%TF.GenerationSoftware,KiCad,Pcbnew,9.0.2*%
%TF.CreationDate,2025-06-22T14:39:41+01:00*%
%TF.ProjectId,just-40-bottom,6a757374-2d34-4302-9d62-6f74746f6d2e,rev?*%
%TF.SameCoordinates,Original*%
%TF.FileFunction,Drillmap*%
%TF.FilePolarity,Positive*%
%FSLAX45Y45*%
G04 Gerber Fmt 4.5, Leading zero omitted, Abs format (unit mm)*
G04 Created by KiCad (PCBNEW 9.0.2) date 2025-06-22 14:39:41*
%MOMM*%
%LPD*%
G01*
G04 APERTURE LIST*
%ADD10C,0.050000*%
%ADD11C,0.200000*%
G04 APERTURE END LIST*
D10*
X26600000Y-17500000D02*
X2850000Y-17500000D01*
X2850000Y-25300000D02*
G75*
G02*
X2750000Y-25200000I0J100000D01*
G01*
X26600000Y-17500000D02*
G75*
G02*
X26700000Y-17600000I0J-100000D01*
G01*
X2750000Y-25200000D02*
X2750000Y-17600000D01*
X2750000Y-17600000D02*
G75*
G02*
X2850000Y-17500000I100000J0D01*
G01*
X26600000Y-25300000D02*
X2850000Y-25300000D01*
X26700000Y-25200000D02*
G75*
G02*
X26600000Y-25300000I-100000J0D01*
G01*
X26700000Y-17600000D02*
X26700000Y-25200000D01*
D11*
X3008277Y-25613984D02*
X3008277Y-25413984D01*
X3008277Y-25413984D02*
X3055896Y-25413984D01*
X3055896Y-25413984D02*
X3084467Y-25423508D01*
X3084467Y-25423508D02*
X3103515Y-25442555D01*
X3103515Y-25442555D02*
X3113039Y-25461603D01*
X3113039Y-25461603D02*
X3122562Y-25499698D01*
X3122562Y-25499698D02*
X3122562Y-25528269D01*
X3122562Y-25528269D02*
X3113039Y-25566365D01*
X3113039Y-25566365D02*
X3103515Y-25585412D01*
X3103515Y-25585412D02*
X3084467Y-25604460D01*
X3084467Y-25604460D02*
X3055896Y-25613984D01*
X3055896Y-25613984D02*
X3008277Y-25613984D01*
X3208277Y-25613984D02*
X3208277Y-25480650D01*
X3208277Y-25518746D02*
X3217801Y-25499698D01*
X3217801Y-25499698D02*
X3227324Y-25490174D01*
X3227324Y-25490174D02*
X3246372Y-25480650D01*
X3246372Y-25480650D02*
X3265420Y-25480650D01*
X3332086Y-25613984D02*
X3332086Y-25480650D01*
X3332086Y-25413984D02*
X3322562Y-25423508D01*
X3322562Y-25423508D02*
X3332086Y-25433031D01*
X3332086Y-25433031D02*
X3341610Y-25423508D01*
X3341610Y-25423508D02*
X3332086Y-25413984D01*
X3332086Y-25413984D02*
X3332086Y-25433031D01*
X3455896Y-25613984D02*
X3436848Y-25604460D01*
X3436848Y-25604460D02*
X3427324Y-25585412D01*
X3427324Y-25585412D02*
X3427324Y-25413984D01*
X3560658Y-25613984D02*
X3541610Y-25604460D01*
X3541610Y-25604460D02*
X3532086Y-25585412D01*
X3532086Y-25585412D02*
X3532086Y-25413984D01*
X3789229Y-25613984D02*
X3789229Y-25413984D01*
X3789229Y-25413984D02*
X3855896Y-25556841D01*
X3855896Y-25556841D02*
X3922562Y-25413984D01*
X3922562Y-25413984D02*
X3922562Y-25613984D01*
X4103515Y-25613984D02*
X4103515Y-25509222D01*
X4103515Y-25509222D02*
X4093991Y-25490174D01*
X4093991Y-25490174D02*
X4074943Y-25480650D01*
X4074943Y-25480650D02*
X4036848Y-25480650D01*
X4036848Y-25480650D02*
X4017801Y-25490174D01*
X4103515Y-25604460D02*
X4084467Y-25613984D01*
X4084467Y-25613984D02*
X4036848Y-25613984D01*
X4036848Y-25613984D02*
X4017801Y-25604460D01*
X4017801Y-25604460D02*
X4008277Y-25585412D01*
X4008277Y-25585412D02*
X4008277Y-25566365D01*
X4008277Y-25566365D02*
X4017801Y-25547317D01*
X4017801Y-25547317D02*
X4036848Y-25537793D01*
X4036848Y-25537793D02*
X4084467Y-25537793D01*
X4084467Y-25537793D02*
X4103515Y-25528269D01*
X4198753Y-25480650D02*
X4198753Y-25680650D01*
X4198753Y-25490174D02*
X4217801Y-25480650D01*
X4217801Y-25480650D02*
X4255896Y-25480650D01*
X4255896Y-25480650D02*
X4274944Y-25490174D01*
X4274944Y-25490174D02*
X4284467Y-25499698D01*
X4284467Y-25499698D02*
X4293991Y-25518746D01*
X4293991Y-25518746D02*
X4293991Y-25575888D01*
X4293991Y-25575888D02*
X4284467Y-25594936D01*
X4284467Y-25594936D02*
X4274944Y-25604460D01*
X4274944Y-25604460D02*
X4255896Y-25613984D01*
X4255896Y-25613984D02*
X4217801Y-25613984D01*
X4217801Y-25613984D02*
X4198753Y-25604460D01*
X4379705Y-25594936D02*
X4389229Y-25604460D01*
X4389229Y-25604460D02*
X4379705Y-25613984D01*
X4379705Y-25613984D02*
X4370182Y-25604460D01*
X4370182Y-25604460D02*
X4379705Y-25594936D01*
X4379705Y-25594936D02*
X4379705Y-25613984D01*
X4379705Y-25490174D02*
X4389229Y-25499698D01*
X4389229Y-25499698D02*
X4379705Y-25509222D01*
X4379705Y-25509222D02*
X4370182Y-25499698D01*
X4370182Y-25499698D02*
X4379705Y-25490174D01*
X4379705Y-25490174D02*
X4379705Y-25509222D01*
M02*
