%TF.GenerationSoftware,KiCad,Pcbnew,10.0.2*%
%TF.CreationDate,2026-05-10T17:26:52+01:00*%
%TF.ProjectId,just-40-mark03-20260510,6a757374-2d34-4302-9d6d-61726b30332d,rev?*%
%TF.SameCoordinates,Original*%
%TF.FileFunction,Paste,Bot*%
%TF.FilePolarity,Positive*%
%FSLAX46Y46*%
G04 Gerber Fmt 4.6, Leading zero omitted, Abs format (unit mm)*
G04 Created by KiCad (PCBNEW 10.0.2) date 2026-05-10 17:26:52*
%MOMM*%
%LPD*%
G01*
G04 APERTURE LIST*
%ADD10C,1.600000*%
%ADD11O,1.600000X3.200000*%
%ADD12O,3.200000X1.600000*%
G04 APERTURE END LIST*
D10*
%TO.C,A2*%
X241590000Y-386910000D03*
D11*
X241590000Y-387710000D03*
D10*
X241590000Y-388510000D03*
X244130000Y-386910000D03*
D11*
X244130000Y-387710000D03*
D10*
X244130000Y-388510000D03*
X246670000Y-386910000D03*
D11*
X246670000Y-387710000D03*
D10*
X246670000Y-388510000D03*
X249210000Y-386910000D03*
D11*
X249210000Y-387710000D03*
D10*
X249210000Y-388510000D03*
X246670000Y-370490000D03*
D11*
X246670000Y-371290000D03*
D10*
X246670000Y-372090000D03*
X251750000Y-386910000D03*
D11*
X251750000Y-387710000D03*
D10*
X251750000Y-388510000D03*
X254290000Y-386910000D03*
D11*
X254290000Y-387710000D03*
D10*
X254290000Y-388510000D03*
X241590000Y-370490000D03*
D11*
X241590000Y-371290000D03*
D10*
X241590000Y-372090000D03*
X256830000Y-386910000D03*
D11*
X256830000Y-387710000D03*
D10*
X256830000Y-388510000D03*
X259370000Y-386910000D03*
D11*
X259370000Y-387710000D03*
D10*
X259370000Y-388510000D03*
X261910000Y-386910000D03*
D11*
X261910000Y-387710000D03*
D10*
X261910000Y-388510000D03*
X261910000Y-384580000D03*
D12*
X262710000Y-384580000D03*
D10*
X263510000Y-384580000D03*
X261910000Y-382040000D03*
D12*
X262710000Y-382040000D03*
D10*
X263510000Y-382040000D03*
X261910000Y-379500000D03*
D12*
X262710000Y-379500000D03*
D10*
X263510000Y-379500000D03*
X261910000Y-376960000D03*
D12*
X262710000Y-376960000D03*
D10*
X263510000Y-376960000D03*
X261910000Y-374420000D03*
D12*
X262710000Y-374420000D03*
D10*
X263510000Y-374420000D03*
X261910000Y-370490000D03*
D11*
X261910000Y-371290000D03*
D10*
X261910000Y-372090000D03*
X259370000Y-370490000D03*
D11*
X259370000Y-371290000D03*
D10*
X259370000Y-372090000D03*
X256830000Y-370490000D03*
D11*
X256830000Y-371290000D03*
D10*
X256830000Y-372090000D03*
X254290000Y-370490000D03*
D11*
X254290000Y-371290000D03*
D10*
X254290000Y-372090000D03*
X251750000Y-370490000D03*
D11*
X251750000Y-371290000D03*
D10*
X251750000Y-372090000D03*
X249210000Y-370490000D03*
D11*
X249210000Y-371290000D03*
D10*
X249210000Y-372090000D03*
X244130000Y-370490000D03*
D11*
X244130000Y-371290000D03*
D10*
X244130000Y-372090000D03*
%TD*%
M02*
