M48
; DRILL file KiCad 10.0.2 date 2026-05-10T17:27:27
; FORMAT={-:-/ absolute / metric / decimal}
; #@! TF.CreationDate,2026-05-10T17:27:27+01:00
; #@! TF.GenerationSoftware,Kicad,Pcbnew,10.0.2
; #@! TF.FileFunction,Plated,1,2,PTH
FMAT,2
METRIC
; #@! TA.AperFunction,Plated,PTH,ViaDrill
T1C0.300
; #@! TA.AperFunction,Plated,PTH,ComponentDrill
T2C0.900
; #@! TA.AperFunction,Plated,PTH,ComponentDrill
T3C1.500
%
G90
G05
T1
X123.5Y-332.5
X161.5Y-370.5
X199.5Y-332.5
T2
X65.25Y-319.0
X65.25Y-327.0
X74.75Y-338.0
X74.75Y-346.0
X84.25Y-319.0
X84.25Y-327.0
X84.25Y-357.0
X84.25Y-365.0
X93.75Y-338.0
X93.75Y-346.0
X103.25Y-319.0
X103.25Y-327.0
X103.25Y-357.0
X103.25Y-365.0
X105.75Y-319.0
X105.75Y-327.0
X112.75Y-338.0
X112.75Y-346.0
X112.75Y-376.0
X112.75Y-384.0
X115.25Y-376.0
X115.25Y-384.0
X122.25Y-357.0
X122.25Y-365.0
X131.75Y-338.0
X131.75Y-346.0
X141.25Y-319.0
X141.25Y-327.0
X141.25Y-357.0
X141.25Y-365.0
X143.75Y-319.0
X143.75Y-327.0
X150.75Y-338.0
X150.75Y-346.0
X150.75Y-376.0
X150.75Y-384.0
X160.25Y-357.0
X160.25Y-365.0
X169.75Y-338.0
X169.75Y-346.0
X169.75Y-376.0
X169.75Y-384.0
X172.25Y-376.0
X172.25Y-384.0
X179.25Y-319.0
X179.25Y-327.0
X179.25Y-357.0
X179.25Y-365.0
X181.75Y-319.0
X181.75Y-327.0
X188.75Y-338.0
X188.75Y-346.0
X198.25Y-357.0
X198.25Y-365.0
X207.75Y-338.0
X207.75Y-346.0
X207.75Y-376.0
X207.75Y-384.0
X217.25Y-319.0
X217.25Y-327.0
X217.25Y-357.0
X217.25Y-365.0
X226.75Y-338.0
X226.75Y-346.0
X226.75Y-376.0
X226.75Y-384.0
X236.25Y-319.0
X236.25Y-327.0
X236.25Y-357.0
X236.25Y-365.0
X245.75Y-338.0
X245.75Y-346.0
X255.25Y-319.0
X255.25Y-327.0
X255.25Y-357.0
X255.25Y-365.0
X257.75Y-319.0
X257.75Y-327.0
X264.75Y-338.0
X264.75Y-346.0
T3
X52.6Y-327.7
X59.6Y-328.75
X62.1Y-346.7
X69.1Y-347.75
X71.6Y-327.7
X71.6Y-365.7
X78.6Y-328.75
X78.6Y-366.75
X81.1Y-346.7
X88.1Y-347.75
X90.6Y-327.7
X90.6Y-365.7
X97.6Y-328.75
X97.6Y-366.75
X100.1Y-346.7
X100.1Y-384.7
X107.1Y-347.75
X107.1Y-385.75
X109.6Y-327.7
X109.6Y-365.7
X116.6Y-328.75
X116.6Y-366.75
X119.1Y-346.7
X119.1Y-384.7
X126.1Y-347.75
X126.1Y-385.75
X128.6Y-327.7
X128.6Y-365.7
X135.6Y-328.75
X135.6Y-366.75
X138.1Y-346.7
X138.1Y-384.7
X145.1Y-347.75
X145.1Y-385.75
X147.6Y-327.7
X147.6Y-365.7
X154.6Y-328.75
X154.6Y-366.75
X157.1Y-346.7
X157.1Y-384.7
X164.1Y-347.75
X164.1Y-385.75
X166.6Y-327.7
X166.6Y-365.7
X173.6Y-328.75
X173.6Y-366.75
X176.1Y-346.7
X176.1Y-384.7
X183.1Y-347.75
X183.1Y-385.75
X185.6Y-327.7
X185.6Y-365.7
X192.6Y-328.75
X192.6Y-366.75
X195.1Y-346.7
X195.1Y-384.7
X202.1Y-347.75
X202.1Y-385.75
X204.6Y-327.7
X204.6Y-365.7
X211.6Y-328.75
X211.6Y-366.75
X214.1Y-346.7
X214.1Y-384.7
X221.1Y-347.75
X221.1Y-385.75
X223.6Y-327.7
X223.6Y-365.7
X230.6Y-328.75
X230.6Y-366.75
X233.1Y-346.7
X240.1Y-347.75
X242.6Y-327.7
X242.6Y-365.7
X249.6Y-328.75
X249.6Y-366.75
X252.1Y-346.7
X259.1Y-347.75
X261.6Y-327.7
X268.6Y-328.75
M30
