%TF.GenerationSoftware,KiCad,Pcbnew,10.0.2*%
%TF.CreationDate,2026-05-10T17:27:27+01:00*%
%TF.ProjectId,just-40-mark03-20260510,6a757374-2d34-4302-9d6d-61726b30332d,rev?*%
%TF.SameCoordinates,Original*%
%TF.FileFunction,Drillmap*%
%TF.FilePolarity,Positive*%
%FSLAX45Y45*%
G04 Gerber Fmt 4.5, Leading zero omitted, Abs format (unit mm)*
G04 Created by KiCad (PCBNEW 10.0.2) date 2026-05-10 17:27:27*
%MOMM*%
%LPD*%
G01*
G04 APERTURE LIST*
%ADD10C,0.050000*%
%ADD11C,0.200000*%
%ADD12C,0.330000*%
%ADD13C,0.500000*%
G04 APERTURE END LIST*
D10*
X4700000Y-31250000D02*
X4700000Y-38900000D01*
X4700000Y-31250000D02*
G75*
G02*
X4800000Y-31150000I100000J0D01*
G01*
X4800000Y-31150000D02*
X27500000Y-31150000D01*
X4800000Y-39000000D02*
G75*
G02*
X4700000Y-38900000I0J100000D01*
G01*
X27500000Y-31150000D02*
G75*
G02*
X27600000Y-31250000I0J-100000D01*
G01*
X27500000Y-39000000D02*
X4800000Y-39000000D01*
X27600000Y-31250000D02*
X27600000Y-38900000D01*
X27600000Y-38900000D02*
G75*
G02*
X27500000Y-39000000I-100000J0D01*
G01*
D11*
X4850000Y-31300000D02*
X5050000Y-31500000D01*
X5050000Y-31300000D02*
X4850000Y-31500000D01*
X4850000Y-38650000D02*
X5050000Y-38850000D01*
X5050000Y-38650000D02*
X4850000Y-38850000D01*
X12250000Y-31300000D02*
X12450000Y-31500000D01*
X12450000Y-31300000D02*
X12250000Y-31500000D01*
X13200000Y-38650000D02*
X13400000Y-38850000D01*
X13400000Y-38650000D02*
X13200000Y-38850000D01*
X15350000Y-31250000D02*
X15550000Y-31450000D01*
X15550000Y-31250000D02*
X15350000Y-31450000D01*
X16750000Y-31250000D02*
X16950000Y-31450000D01*
X16950000Y-31250000D02*
X16750000Y-31450000D01*
X18900000Y-38650000D02*
X19100000Y-38850000D01*
X19100000Y-38650000D02*
X18900000Y-38850000D01*
X19850000Y-31300000D02*
X20050000Y-31500000D01*
X20050000Y-31300000D02*
X19850000Y-31500000D01*
X27250000Y-31300000D02*
X27450000Y-31500000D01*
X27450000Y-31300000D02*
X27250000Y-31500000D01*
X27250000Y-38650000D02*
X27450000Y-38850000D01*
X27450000Y-38650000D02*
X27250000Y-38850000D01*
D12*
X5565000Y-31850000D02*
G75*
G02*
X5235000Y-31850000I-165000J0D01*
G01*
X5235000Y-31850000D02*
G75*
G02*
X5565000Y-31850000I165000J0D01*
G01*
X5615000Y-38350000D02*
G75*
G02*
X5285000Y-38350000I-165000J0D01*
G01*
X5285000Y-38350000D02*
G75*
G02*
X5615000Y-38350000I165000J0D01*
G01*
X12515000Y-32050000D02*
G75*
G02*
X12185000Y-32050000I-165000J0D01*
G01*
X12185000Y-32050000D02*
G75*
G02*
X12515000Y-32050000I165000J0D01*
G01*
X13465000Y-38100000D02*
G75*
G02*
X13135000Y-38100000I-165000J0D01*
G01*
X13135000Y-38100000D02*
G75*
G02*
X13465000Y-38100000I165000J0D01*
G01*
X19165000Y-38100000D02*
G75*
G02*
X18835000Y-38100000I-165000J0D01*
G01*
X18835000Y-38100000D02*
G75*
G02*
X19165000Y-38100000I165000J0D01*
G01*
X20115000Y-32050000D02*
G75*
G02*
X19785000Y-32050000I-165000J0D01*
G01*
X19785000Y-32050000D02*
G75*
G02*
X20115000Y-32050000I165000J0D01*
G01*
X27065000Y-31850000D02*
G75*
G02*
X26735000Y-31850000I-165000J0D01*
G01*
X26735000Y-31850000D02*
G75*
G02*
X27065000Y-31850000I165000J0D01*
G01*
X27065000Y-38300000D02*
G75*
G02*
X26735000Y-38300000I-165000J0D01*
G01*
X26735000Y-38300000D02*
G75*
G02*
X27065000Y-38300000I165000J0D01*
G01*
D13*
X5700000Y-32050000D02*
X5700000Y-32550000D01*
X5450000Y-32300000D02*
X5950000Y-32300000D01*
X6650000Y-33950000D02*
X6650000Y-34450000D01*
X6400000Y-34200000D02*
X6900000Y-34200000D01*
X7600000Y-32050000D02*
X7600000Y-32550000D01*
X7350000Y-32300000D02*
X7850000Y-32300000D01*
X7600000Y-35850000D02*
X7600000Y-36350000D01*
X7350000Y-36100000D02*
X7850000Y-36100000D01*
X8550000Y-33950000D02*
X8550000Y-34450000D01*
X8300000Y-34200000D02*
X8800000Y-34200000D01*
X9500000Y-32050000D02*
X9500000Y-32550000D01*
X9250000Y-32300000D02*
X9750000Y-32300000D01*
X9500000Y-35850000D02*
X9500000Y-36350000D01*
X9250000Y-36100000D02*
X9750000Y-36100000D01*
X10450000Y-33950000D02*
X10450000Y-34450000D01*
X10200000Y-34200000D02*
X10700000Y-34200000D01*
X10450000Y-37750000D02*
X10450000Y-38250000D01*
X10200000Y-38000000D02*
X10700000Y-38000000D01*
X11400000Y-32050000D02*
X11400000Y-32550000D01*
X11150000Y-32300000D02*
X11650000Y-32300000D01*
X11400000Y-35850000D02*
X11400000Y-36350000D01*
X11150000Y-36100000D02*
X11650000Y-36100000D01*
X12350000Y-33950000D02*
X12350000Y-34450000D01*
X12100000Y-34200000D02*
X12600000Y-34200000D01*
X12350000Y-37750000D02*
X12350000Y-38250000D01*
X12100000Y-38000000D02*
X12600000Y-38000000D01*
X13300000Y-32050000D02*
X13300000Y-32550000D01*
X13050000Y-32300000D02*
X13550000Y-32300000D01*
X13300000Y-35850000D02*
X13300000Y-36350000D01*
X13050000Y-36100000D02*
X13550000Y-36100000D01*
X14250000Y-33950000D02*
X14250000Y-34450000D01*
X14000000Y-34200000D02*
X14500000Y-34200000D01*
X14250000Y-37750000D02*
X14250000Y-38250000D01*
X14000000Y-38000000D02*
X14500000Y-38000000D01*
X15200000Y-32050000D02*
X15200000Y-32550000D01*
X14950000Y-32300000D02*
X15450000Y-32300000D01*
X15200000Y-35850000D02*
X15200000Y-36350000D01*
X14950000Y-36100000D02*
X15450000Y-36100000D01*
X16150000Y-33950000D02*
X16150000Y-34450000D01*
X15900000Y-34200000D02*
X16400000Y-34200000D01*
X16150000Y-37750000D02*
X16150000Y-38250000D01*
X15900000Y-38000000D02*
X16400000Y-38000000D01*
X17100000Y-32050000D02*
X17100000Y-32550000D01*
X16850000Y-32300000D02*
X17350000Y-32300000D01*
X17100000Y-35850000D02*
X17100000Y-36350000D01*
X16850000Y-36100000D02*
X17350000Y-36100000D01*
X18050000Y-33950000D02*
X18050000Y-34450000D01*
X17800000Y-34200000D02*
X18300000Y-34200000D01*
X18050000Y-37750000D02*
X18050000Y-38250000D01*
X17800000Y-38000000D02*
X18300000Y-38000000D01*
X19000000Y-32050000D02*
X19000000Y-32550000D01*
X18750000Y-32300000D02*
X19250000Y-32300000D01*
X19000000Y-35850000D02*
X19000000Y-36350000D01*
X18750000Y-36100000D02*
X19250000Y-36100000D01*
X19950000Y-33950000D02*
X19950000Y-34450000D01*
X19700000Y-34200000D02*
X20200000Y-34200000D01*
X19950000Y-37750000D02*
X19950000Y-38250000D01*
X19700000Y-38000000D02*
X20200000Y-38000000D01*
X20900000Y-32050000D02*
X20900000Y-32550000D01*
X20650000Y-32300000D02*
X21150000Y-32300000D01*
X20900000Y-35850000D02*
X20900000Y-36350000D01*
X20650000Y-36100000D02*
X21150000Y-36100000D01*
X21850000Y-33950000D02*
X21850000Y-34450000D01*
X21600000Y-34200000D02*
X22100000Y-34200000D01*
X21850000Y-37750000D02*
X21850000Y-38250000D01*
X21600000Y-38000000D02*
X22100000Y-38000000D01*
X22800000Y-32050000D02*
X22800000Y-32550000D01*
X22550000Y-32300000D02*
X23050000Y-32300000D01*
X22800000Y-35850000D02*
X22800000Y-36350000D01*
X22550000Y-36100000D02*
X23050000Y-36100000D01*
X23750000Y-33950000D02*
X23750000Y-34450000D01*
X23500000Y-34200000D02*
X24000000Y-34200000D01*
X24700000Y-32050000D02*
X24700000Y-32550000D01*
X24450000Y-32300000D02*
X24950000Y-32300000D01*
X24700000Y-35850000D02*
X24700000Y-36350000D01*
X24450000Y-36100000D02*
X24950000Y-36100000D01*
X25650000Y-33950000D02*
X25650000Y-34450000D01*
X25400000Y-34200000D02*
X25900000Y-34200000D01*
X26600000Y-32050000D02*
X26600000Y-32550000D01*
X26350000Y-32300000D02*
X26850000Y-32300000D01*
D11*
X4958277Y-39313984D02*
X4958277Y-39113984D01*
X4958277Y-39113984D02*
X5005896Y-39113984D01*
X5005896Y-39113984D02*
X5034467Y-39123508D01*
X5034467Y-39123508D02*
X5053515Y-39142555D01*
X5053515Y-39142555D02*
X5063039Y-39161603D01*
X5063039Y-39161603D02*
X5072563Y-39199698D01*
X5072563Y-39199698D02*
X5072563Y-39228270D01*
X5072563Y-39228270D02*
X5063039Y-39266365D01*
X5063039Y-39266365D02*
X5053515Y-39285412D01*
X5053515Y-39285412D02*
X5034467Y-39304460D01*
X5034467Y-39304460D02*
X5005896Y-39313984D01*
X5005896Y-39313984D02*
X4958277Y-39313984D01*
X5158277Y-39313984D02*
X5158277Y-39180650D01*
X5158277Y-39218746D02*
X5167801Y-39199698D01*
X5167801Y-39199698D02*
X5177324Y-39190174D01*
X5177324Y-39190174D02*
X5196372Y-39180650D01*
X5196372Y-39180650D02*
X5215420Y-39180650D01*
X5282086Y-39313984D02*
X5282086Y-39180650D01*
X5282086Y-39113984D02*
X5272563Y-39123508D01*
X5272563Y-39123508D02*
X5282086Y-39133031D01*
X5282086Y-39133031D02*
X5291610Y-39123508D01*
X5291610Y-39123508D02*
X5282086Y-39113984D01*
X5282086Y-39113984D02*
X5282086Y-39133031D01*
X5405896Y-39313984D02*
X5386848Y-39304460D01*
X5386848Y-39304460D02*
X5377324Y-39285412D01*
X5377324Y-39285412D02*
X5377324Y-39113984D01*
X5510658Y-39313984D02*
X5491610Y-39304460D01*
X5491610Y-39304460D02*
X5482086Y-39285412D01*
X5482086Y-39285412D02*
X5482086Y-39113984D01*
X5739229Y-39313984D02*
X5739229Y-39113984D01*
X5739229Y-39113984D02*
X5805896Y-39256841D01*
X5805896Y-39256841D02*
X5872562Y-39113984D01*
X5872562Y-39113984D02*
X5872562Y-39313984D01*
X6053515Y-39313984D02*
X6053515Y-39209222D01*
X6053515Y-39209222D02*
X6043991Y-39190174D01*
X6043991Y-39190174D02*
X6024943Y-39180650D01*
X6024943Y-39180650D02*
X5986848Y-39180650D01*
X5986848Y-39180650D02*
X5967801Y-39190174D01*
X6053515Y-39304460D02*
X6034467Y-39313984D01*
X6034467Y-39313984D02*
X5986848Y-39313984D01*
X5986848Y-39313984D02*
X5967801Y-39304460D01*
X5967801Y-39304460D02*
X5958277Y-39285412D01*
X5958277Y-39285412D02*
X5958277Y-39266365D01*
X5958277Y-39266365D02*
X5967801Y-39247317D01*
X5967801Y-39247317D02*
X5986848Y-39237793D01*
X5986848Y-39237793D02*
X6034467Y-39237793D01*
X6034467Y-39237793D02*
X6053515Y-39228270D01*
X6148753Y-39180650D02*
X6148753Y-39380650D01*
X6148753Y-39190174D02*
X6167801Y-39180650D01*
X6167801Y-39180650D02*
X6205896Y-39180650D01*
X6205896Y-39180650D02*
X6224943Y-39190174D01*
X6224943Y-39190174D02*
X6234467Y-39199698D01*
X6234467Y-39199698D02*
X6243991Y-39218746D01*
X6243991Y-39218746D02*
X6243991Y-39275889D01*
X6243991Y-39275889D02*
X6234467Y-39294936D01*
X6234467Y-39294936D02*
X6224943Y-39304460D01*
X6224943Y-39304460D02*
X6205896Y-39313984D01*
X6205896Y-39313984D02*
X6167801Y-39313984D01*
X6167801Y-39313984D02*
X6148753Y-39304460D01*
X6329705Y-39294936D02*
X6339229Y-39304460D01*
X6339229Y-39304460D02*
X6329705Y-39313984D01*
X6329705Y-39313984D02*
X6320182Y-39304460D01*
X6320182Y-39304460D02*
X6329705Y-39294936D01*
X6329705Y-39294936D02*
X6329705Y-39313984D01*
X6329705Y-39190174D02*
X6339229Y-39199698D01*
X6339229Y-39199698D02*
X6329705Y-39209222D01*
X6329705Y-39209222D02*
X6320182Y-39199698D01*
X6320182Y-39199698D02*
X6329705Y-39190174D01*
X6329705Y-39190174D02*
X6329705Y-39209222D01*
X4497500Y-39542500D02*
X4697500Y-39742500D01*
X4697500Y-39542500D02*
X4497500Y-39742500D01*
X4948753Y-39553031D02*
X4958277Y-39543508D01*
X4958277Y-39543508D02*
X4977324Y-39533984D01*
X4977324Y-39533984D02*
X5024944Y-39533984D01*
X5024944Y-39533984D02*
X5043991Y-39543508D01*
X5043991Y-39543508D02*
X5053515Y-39553031D01*
X5053515Y-39553031D02*
X5063039Y-39572079D01*
X5063039Y-39572079D02*
X5063039Y-39591127D01*
X5063039Y-39591127D02*
X5053515Y-39619698D01*
X5053515Y-39619698D02*
X4939229Y-39733984D01*
X4939229Y-39733984D02*
X5063039Y-39733984D01*
X5148753Y-39714936D02*
X5158277Y-39724460D01*
X5158277Y-39724460D02*
X5148753Y-39733984D01*
X5148753Y-39733984D02*
X5139229Y-39724460D01*
X5139229Y-39724460D02*
X5148753Y-39714936D01*
X5148753Y-39714936D02*
X5148753Y-39733984D01*
X5282086Y-39533984D02*
X5301134Y-39533984D01*
X5301134Y-39533984D02*
X5320182Y-39543508D01*
X5320182Y-39543508D02*
X5329705Y-39553031D01*
X5329705Y-39553031D02*
X5339229Y-39572079D01*
X5339229Y-39572079D02*
X5348753Y-39610174D01*
X5348753Y-39610174D02*
X5348753Y-39657793D01*
X5348753Y-39657793D02*
X5339229Y-39695889D01*
X5339229Y-39695889D02*
X5329705Y-39714936D01*
X5329705Y-39714936D02*
X5320182Y-39724460D01*
X5320182Y-39724460D02*
X5301134Y-39733984D01*
X5301134Y-39733984D02*
X5282086Y-39733984D01*
X5282086Y-39733984D02*
X5263039Y-39724460D01*
X5263039Y-39724460D02*
X5253515Y-39714936D01*
X5253515Y-39714936D02*
X5243991Y-39695889D01*
X5243991Y-39695889D02*
X5234467Y-39657793D01*
X5234467Y-39657793D02*
X5234467Y-39610174D01*
X5234467Y-39610174D02*
X5243991Y-39572079D01*
X5243991Y-39572079D02*
X5253515Y-39553031D01*
X5253515Y-39553031D02*
X5263039Y-39543508D01*
X5263039Y-39543508D02*
X5282086Y-39533984D01*
X5472563Y-39533984D02*
X5491610Y-39533984D01*
X5491610Y-39533984D02*
X5510658Y-39543508D01*
X5510658Y-39543508D02*
X5520182Y-39553031D01*
X5520182Y-39553031D02*
X5529705Y-39572079D01*
X5529705Y-39572079D02*
X5539229Y-39610174D01*
X5539229Y-39610174D02*
X5539229Y-39657793D01*
X5539229Y-39657793D02*
X5529705Y-39695889D01*
X5529705Y-39695889D02*
X5520182Y-39714936D01*
X5520182Y-39714936D02*
X5510658Y-39724460D01*
X5510658Y-39724460D02*
X5491610Y-39733984D01*
X5491610Y-39733984D02*
X5472563Y-39733984D01*
X5472563Y-39733984D02*
X5453515Y-39724460D01*
X5453515Y-39724460D02*
X5443991Y-39714936D01*
X5443991Y-39714936D02*
X5434467Y-39695889D01*
X5434467Y-39695889D02*
X5424944Y-39657793D01*
X5424944Y-39657793D02*
X5424944Y-39610174D01*
X5424944Y-39610174D02*
X5434467Y-39572079D01*
X5434467Y-39572079D02*
X5443991Y-39553031D01*
X5443991Y-39553031D02*
X5453515Y-39543508D01*
X5453515Y-39543508D02*
X5472563Y-39533984D01*
X5663039Y-39533984D02*
X5682086Y-39533984D01*
X5682086Y-39533984D02*
X5701134Y-39543508D01*
X5701134Y-39543508D02*
X5710658Y-39553031D01*
X5710658Y-39553031D02*
X5720182Y-39572079D01*
X5720182Y-39572079D02*
X5729705Y-39610174D01*
X5729705Y-39610174D02*
X5729705Y-39657793D01*
X5729705Y-39657793D02*
X5720182Y-39695889D01*
X5720182Y-39695889D02*
X5710658Y-39714936D01*
X5710658Y-39714936D02*
X5701134Y-39724460D01*
X5701134Y-39724460D02*
X5682086Y-39733984D01*
X5682086Y-39733984D02*
X5663039Y-39733984D01*
X5663039Y-39733984D02*
X5643991Y-39724460D01*
X5643991Y-39724460D02*
X5634467Y-39714936D01*
X5634467Y-39714936D02*
X5624943Y-39695889D01*
X5624943Y-39695889D02*
X5615420Y-39657793D01*
X5615420Y-39657793D02*
X5615420Y-39610174D01*
X5615420Y-39610174D02*
X5624943Y-39572079D01*
X5624943Y-39572079D02*
X5634467Y-39553031D01*
X5634467Y-39553031D02*
X5643991Y-39543508D01*
X5643991Y-39543508D02*
X5663039Y-39533984D01*
X5815420Y-39733984D02*
X5815420Y-39600650D01*
X5815420Y-39619698D02*
X5824943Y-39610174D01*
X5824943Y-39610174D02*
X5843991Y-39600650D01*
X5843991Y-39600650D02*
X5872563Y-39600650D01*
X5872563Y-39600650D02*
X5891610Y-39610174D01*
X5891610Y-39610174D02*
X5901134Y-39629222D01*
X5901134Y-39629222D02*
X5901134Y-39733984D01*
X5901134Y-39629222D02*
X5910658Y-39610174D01*
X5910658Y-39610174D02*
X5929705Y-39600650D01*
X5929705Y-39600650D02*
X5958277Y-39600650D01*
X5958277Y-39600650D02*
X5977324Y-39610174D01*
X5977324Y-39610174D02*
X5986848Y-39629222D01*
X5986848Y-39629222D02*
X5986848Y-39733984D01*
X6082086Y-39733984D02*
X6082086Y-39600650D01*
X6082086Y-39619698D02*
X6091610Y-39610174D01*
X6091610Y-39610174D02*
X6110658Y-39600650D01*
X6110658Y-39600650D02*
X6139229Y-39600650D01*
X6139229Y-39600650D02*
X6158277Y-39610174D01*
X6158277Y-39610174D02*
X6167801Y-39629222D01*
X6167801Y-39629222D02*
X6167801Y-39733984D01*
X6167801Y-39629222D02*
X6177324Y-39610174D01*
X6177324Y-39610174D02*
X6196372Y-39600650D01*
X6196372Y-39600650D02*
X6224943Y-39600650D01*
X6224943Y-39600650D02*
X6243991Y-39610174D01*
X6243991Y-39610174D02*
X6253515Y-39629222D01*
X6253515Y-39629222D02*
X6253515Y-39733984D01*
X6643991Y-39524460D02*
X6472563Y-39781603D01*
X6901134Y-39533984D02*
X6920182Y-39533984D01*
X6920182Y-39533984D02*
X6939229Y-39543508D01*
X6939229Y-39543508D02*
X6948753Y-39553031D01*
X6948753Y-39553031D02*
X6958277Y-39572079D01*
X6958277Y-39572079D02*
X6967801Y-39610174D01*
X6967801Y-39610174D02*
X6967801Y-39657793D01*
X6967801Y-39657793D02*
X6958277Y-39695889D01*
X6958277Y-39695889D02*
X6948753Y-39714936D01*
X6948753Y-39714936D02*
X6939229Y-39724460D01*
X6939229Y-39724460D02*
X6920182Y-39733984D01*
X6920182Y-39733984D02*
X6901134Y-39733984D01*
X6901134Y-39733984D02*
X6882086Y-39724460D01*
X6882086Y-39724460D02*
X6872563Y-39714936D01*
X6872563Y-39714936D02*
X6863039Y-39695889D01*
X6863039Y-39695889D02*
X6853515Y-39657793D01*
X6853515Y-39657793D02*
X6853515Y-39610174D01*
X6853515Y-39610174D02*
X6863039Y-39572079D01*
X6863039Y-39572079D02*
X6872563Y-39553031D01*
X6872563Y-39553031D02*
X6882086Y-39543508D01*
X6882086Y-39543508D02*
X6901134Y-39533984D01*
X7053515Y-39714936D02*
X7063039Y-39724460D01*
X7063039Y-39724460D02*
X7053515Y-39733984D01*
X7053515Y-39733984D02*
X7043991Y-39724460D01*
X7043991Y-39724460D02*
X7053515Y-39714936D01*
X7053515Y-39714936D02*
X7053515Y-39733984D01*
X7186848Y-39533984D02*
X7205896Y-39533984D01*
X7205896Y-39533984D02*
X7224944Y-39543508D01*
X7224944Y-39543508D02*
X7234467Y-39553031D01*
X7234467Y-39553031D02*
X7243991Y-39572079D01*
X7243991Y-39572079D02*
X7253515Y-39610174D01*
X7253515Y-39610174D02*
X7253515Y-39657793D01*
X7253515Y-39657793D02*
X7243991Y-39695889D01*
X7243991Y-39695889D02*
X7234467Y-39714936D01*
X7234467Y-39714936D02*
X7224944Y-39724460D01*
X7224944Y-39724460D02*
X7205896Y-39733984D01*
X7205896Y-39733984D02*
X7186848Y-39733984D01*
X7186848Y-39733984D02*
X7167801Y-39724460D01*
X7167801Y-39724460D02*
X7158277Y-39714936D01*
X7158277Y-39714936D02*
X7148753Y-39695889D01*
X7148753Y-39695889D02*
X7139229Y-39657793D01*
X7139229Y-39657793D02*
X7139229Y-39610174D01*
X7139229Y-39610174D02*
X7148753Y-39572079D01*
X7148753Y-39572079D02*
X7158277Y-39553031D01*
X7158277Y-39553031D02*
X7167801Y-39543508D01*
X7167801Y-39543508D02*
X7186848Y-39533984D01*
X7320182Y-39533984D02*
X7453515Y-39533984D01*
X7453515Y-39533984D02*
X7367801Y-39733984D01*
X7558277Y-39619698D02*
X7539229Y-39610174D01*
X7539229Y-39610174D02*
X7529706Y-39600650D01*
X7529706Y-39600650D02*
X7520182Y-39581603D01*
X7520182Y-39581603D02*
X7520182Y-39572079D01*
X7520182Y-39572079D02*
X7529706Y-39553031D01*
X7529706Y-39553031D02*
X7539229Y-39543508D01*
X7539229Y-39543508D02*
X7558277Y-39533984D01*
X7558277Y-39533984D02*
X7596372Y-39533984D01*
X7596372Y-39533984D02*
X7615420Y-39543508D01*
X7615420Y-39543508D02*
X7624944Y-39553031D01*
X7624944Y-39553031D02*
X7634467Y-39572079D01*
X7634467Y-39572079D02*
X7634467Y-39581603D01*
X7634467Y-39581603D02*
X7624944Y-39600650D01*
X7624944Y-39600650D02*
X7615420Y-39610174D01*
X7615420Y-39610174D02*
X7596372Y-39619698D01*
X7596372Y-39619698D02*
X7558277Y-39619698D01*
X7558277Y-39619698D02*
X7539229Y-39629222D01*
X7539229Y-39629222D02*
X7529706Y-39638746D01*
X7529706Y-39638746D02*
X7520182Y-39657793D01*
X7520182Y-39657793D02*
X7520182Y-39695889D01*
X7520182Y-39695889D02*
X7529706Y-39714936D01*
X7529706Y-39714936D02*
X7539229Y-39724460D01*
X7539229Y-39724460D02*
X7558277Y-39733984D01*
X7558277Y-39733984D02*
X7596372Y-39733984D01*
X7596372Y-39733984D02*
X7615420Y-39724460D01*
X7615420Y-39724460D02*
X7624944Y-39714936D01*
X7624944Y-39714936D02*
X7634467Y-39695889D01*
X7634467Y-39695889D02*
X7634467Y-39657793D01*
X7634467Y-39657793D02*
X7624944Y-39638746D01*
X7624944Y-39638746D02*
X7615420Y-39629222D01*
X7615420Y-39629222D02*
X7596372Y-39619698D01*
X7701134Y-39533984D02*
X7834467Y-39533984D01*
X7834467Y-39533984D02*
X7748753Y-39733984D01*
X7901134Y-39533984D02*
X7901134Y-39572079D01*
X7977325Y-39533984D02*
X7977325Y-39572079D01*
X8272563Y-39810174D02*
X8263039Y-39800650D01*
X8263039Y-39800650D02*
X8243991Y-39772079D01*
X8243991Y-39772079D02*
X8234468Y-39753031D01*
X8234468Y-39753031D02*
X8224944Y-39724460D01*
X8224944Y-39724460D02*
X8215420Y-39676841D01*
X8215420Y-39676841D02*
X8215420Y-39638746D01*
X8215420Y-39638746D02*
X8224944Y-39591127D01*
X8224944Y-39591127D02*
X8234468Y-39562555D01*
X8234468Y-39562555D02*
X8243991Y-39543508D01*
X8243991Y-39543508D02*
X8263039Y-39514936D01*
X8263039Y-39514936D02*
X8272563Y-39505412D01*
X8453515Y-39733984D02*
X8339229Y-39733984D01*
X8396372Y-39733984D02*
X8396372Y-39533984D01*
X8396372Y-39533984D02*
X8377325Y-39562555D01*
X8377325Y-39562555D02*
X8358277Y-39581603D01*
X8358277Y-39581603D02*
X8339229Y-39591127D01*
X8577325Y-39533984D02*
X8596372Y-39533984D01*
X8596372Y-39533984D02*
X8615420Y-39543508D01*
X8615420Y-39543508D02*
X8624944Y-39553031D01*
X8624944Y-39553031D02*
X8634468Y-39572079D01*
X8634468Y-39572079D02*
X8643991Y-39610174D01*
X8643991Y-39610174D02*
X8643991Y-39657793D01*
X8643991Y-39657793D02*
X8634468Y-39695889D01*
X8634468Y-39695889D02*
X8624944Y-39714936D01*
X8624944Y-39714936D02*
X8615420Y-39724460D01*
X8615420Y-39724460D02*
X8596372Y-39733984D01*
X8596372Y-39733984D02*
X8577325Y-39733984D01*
X8577325Y-39733984D02*
X8558277Y-39724460D01*
X8558277Y-39724460D02*
X8548753Y-39714936D01*
X8548753Y-39714936D02*
X8539230Y-39695889D01*
X8539230Y-39695889D02*
X8529706Y-39657793D01*
X8529706Y-39657793D02*
X8529706Y-39610174D01*
X8529706Y-39610174D02*
X8539230Y-39572079D01*
X8539230Y-39572079D02*
X8548753Y-39553031D01*
X8548753Y-39553031D02*
X8558277Y-39543508D01*
X8558277Y-39543508D02*
X8577325Y-39533984D01*
X8882087Y-39733984D02*
X8882087Y-39533984D01*
X8967801Y-39733984D02*
X8967801Y-39629222D01*
X8967801Y-39629222D02*
X8958277Y-39610174D01*
X8958277Y-39610174D02*
X8939230Y-39600650D01*
X8939230Y-39600650D02*
X8910658Y-39600650D01*
X8910658Y-39600650D02*
X8891611Y-39610174D01*
X8891611Y-39610174D02*
X8882087Y-39619698D01*
X9091611Y-39733984D02*
X9072563Y-39724460D01*
X9072563Y-39724460D02*
X9063039Y-39714936D01*
X9063039Y-39714936D02*
X9053515Y-39695889D01*
X9053515Y-39695889D02*
X9053515Y-39638746D01*
X9053515Y-39638746D02*
X9063039Y-39619698D01*
X9063039Y-39619698D02*
X9072563Y-39610174D01*
X9072563Y-39610174D02*
X9091611Y-39600650D01*
X9091611Y-39600650D02*
X9120182Y-39600650D01*
X9120182Y-39600650D02*
X9139230Y-39610174D01*
X9139230Y-39610174D02*
X9148753Y-39619698D01*
X9148753Y-39619698D02*
X9158277Y-39638746D01*
X9158277Y-39638746D02*
X9158277Y-39695889D01*
X9158277Y-39695889D02*
X9148753Y-39714936D01*
X9148753Y-39714936D02*
X9139230Y-39724460D01*
X9139230Y-39724460D02*
X9120182Y-39733984D01*
X9120182Y-39733984D02*
X9091611Y-39733984D01*
X9272563Y-39733984D02*
X9253515Y-39724460D01*
X9253515Y-39724460D02*
X9243992Y-39705412D01*
X9243992Y-39705412D02*
X9243992Y-39533984D01*
X9424944Y-39724460D02*
X9405896Y-39733984D01*
X9405896Y-39733984D02*
X9367801Y-39733984D01*
X9367801Y-39733984D02*
X9348753Y-39724460D01*
X9348753Y-39724460D02*
X9339230Y-39705412D01*
X9339230Y-39705412D02*
X9339230Y-39629222D01*
X9339230Y-39629222D02*
X9348753Y-39610174D01*
X9348753Y-39610174D02*
X9367801Y-39600650D01*
X9367801Y-39600650D02*
X9405896Y-39600650D01*
X9405896Y-39600650D02*
X9424944Y-39610174D01*
X9424944Y-39610174D02*
X9434468Y-39629222D01*
X9434468Y-39629222D02*
X9434468Y-39648270D01*
X9434468Y-39648270D02*
X9339230Y-39667317D01*
X9510658Y-39724460D02*
X9529706Y-39733984D01*
X9529706Y-39733984D02*
X9567801Y-39733984D01*
X9567801Y-39733984D02*
X9586849Y-39724460D01*
X9586849Y-39724460D02*
X9596373Y-39705412D01*
X9596373Y-39705412D02*
X9596373Y-39695889D01*
X9596373Y-39695889D02*
X9586849Y-39676841D01*
X9586849Y-39676841D02*
X9567801Y-39667317D01*
X9567801Y-39667317D02*
X9539230Y-39667317D01*
X9539230Y-39667317D02*
X9520182Y-39657793D01*
X9520182Y-39657793D02*
X9510658Y-39638746D01*
X9510658Y-39638746D02*
X9510658Y-39629222D01*
X9510658Y-39629222D02*
X9520182Y-39610174D01*
X9520182Y-39610174D02*
X9539230Y-39600650D01*
X9539230Y-39600650D02*
X9567801Y-39600650D01*
X9567801Y-39600650D02*
X9586849Y-39610174D01*
X9663039Y-39810174D02*
X9672563Y-39800650D01*
X9672563Y-39800650D02*
X9691611Y-39772079D01*
X9691611Y-39772079D02*
X9701134Y-39753031D01*
X9701134Y-39753031D02*
X9710658Y-39724460D01*
X9710658Y-39724460D02*
X9720182Y-39676841D01*
X9720182Y-39676841D02*
X9720182Y-39638746D01*
X9720182Y-39638746D02*
X9710658Y-39591127D01*
X9710658Y-39591127D02*
X9701134Y-39562555D01*
X9701134Y-39562555D02*
X9691611Y-39543508D01*
X9691611Y-39543508D02*
X9672563Y-39514936D01*
X9672563Y-39514936D02*
X9663039Y-39505412D01*
X10024944Y-39810174D02*
X10015420Y-39800650D01*
X10015420Y-39800650D02*
X9996373Y-39772079D01*
X9996373Y-39772079D02*
X9986849Y-39753031D01*
X9986849Y-39753031D02*
X9977325Y-39724460D01*
X9977325Y-39724460D02*
X9967801Y-39676841D01*
X9967801Y-39676841D02*
X9967801Y-39638746D01*
X9967801Y-39638746D02*
X9977325Y-39591127D01*
X9977325Y-39591127D02*
X9986849Y-39562555D01*
X9986849Y-39562555D02*
X9996373Y-39543508D01*
X9996373Y-39543508D02*
X10015420Y-39514936D01*
X10015420Y-39514936D02*
X10024944Y-39505412D01*
X10101134Y-39600650D02*
X10101134Y-39733984D01*
X10101134Y-39619698D02*
X10110658Y-39610174D01*
X10110658Y-39610174D02*
X10129706Y-39600650D01*
X10129706Y-39600650D02*
X10158277Y-39600650D01*
X10158277Y-39600650D02*
X10177325Y-39610174D01*
X10177325Y-39610174D02*
X10186849Y-39629222D01*
X10186849Y-39629222D02*
X10186849Y-39733984D01*
X10310658Y-39733984D02*
X10291611Y-39724460D01*
X10291611Y-39724460D02*
X10282087Y-39714936D01*
X10282087Y-39714936D02*
X10272563Y-39695889D01*
X10272563Y-39695889D02*
X10272563Y-39638746D01*
X10272563Y-39638746D02*
X10282087Y-39619698D01*
X10282087Y-39619698D02*
X10291611Y-39610174D01*
X10291611Y-39610174D02*
X10310658Y-39600650D01*
X10310658Y-39600650D02*
X10339230Y-39600650D01*
X10339230Y-39600650D02*
X10358277Y-39610174D01*
X10358277Y-39610174D02*
X10367801Y-39619698D01*
X10367801Y-39619698D02*
X10377325Y-39638746D01*
X10377325Y-39638746D02*
X10377325Y-39695889D01*
X10377325Y-39695889D02*
X10367801Y-39714936D01*
X10367801Y-39714936D02*
X10358277Y-39724460D01*
X10358277Y-39724460D02*
X10339230Y-39733984D01*
X10339230Y-39733984D02*
X10310658Y-39733984D01*
X10434468Y-39600650D02*
X10510658Y-39600650D01*
X10463039Y-39533984D02*
X10463039Y-39705412D01*
X10463039Y-39705412D02*
X10472563Y-39724460D01*
X10472563Y-39724460D02*
X10491611Y-39733984D01*
X10491611Y-39733984D02*
X10510658Y-39733984D01*
X10729706Y-39600650D02*
X10729706Y-39800650D01*
X10729706Y-39610174D02*
X10748754Y-39600650D01*
X10748754Y-39600650D02*
X10786849Y-39600650D01*
X10786849Y-39600650D02*
X10805896Y-39610174D01*
X10805896Y-39610174D02*
X10815420Y-39619698D01*
X10815420Y-39619698D02*
X10824944Y-39638746D01*
X10824944Y-39638746D02*
X10824944Y-39695889D01*
X10824944Y-39695889D02*
X10815420Y-39714936D01*
X10815420Y-39714936D02*
X10805896Y-39724460D01*
X10805896Y-39724460D02*
X10786849Y-39733984D01*
X10786849Y-39733984D02*
X10748754Y-39733984D01*
X10748754Y-39733984D02*
X10729706Y-39724460D01*
X10939230Y-39733984D02*
X10920182Y-39724460D01*
X10920182Y-39724460D02*
X10910658Y-39705412D01*
X10910658Y-39705412D02*
X10910658Y-39533984D01*
X11101135Y-39733984D02*
X11101135Y-39629222D01*
X11101135Y-39629222D02*
X11091611Y-39610174D01*
X11091611Y-39610174D02*
X11072563Y-39600650D01*
X11072563Y-39600650D02*
X11034468Y-39600650D01*
X11034468Y-39600650D02*
X11015420Y-39610174D01*
X11101135Y-39724460D02*
X11082087Y-39733984D01*
X11082087Y-39733984D02*
X11034468Y-39733984D01*
X11034468Y-39733984D02*
X11015420Y-39724460D01*
X11015420Y-39724460D02*
X11005896Y-39705412D01*
X11005896Y-39705412D02*
X11005896Y-39686365D01*
X11005896Y-39686365D02*
X11015420Y-39667317D01*
X11015420Y-39667317D02*
X11034468Y-39657793D01*
X11034468Y-39657793D02*
X11082087Y-39657793D01*
X11082087Y-39657793D02*
X11101135Y-39648270D01*
X11167801Y-39600650D02*
X11243992Y-39600650D01*
X11196373Y-39533984D02*
X11196373Y-39705412D01*
X11196373Y-39705412D02*
X11205896Y-39724460D01*
X11205896Y-39724460D02*
X11224944Y-39733984D01*
X11224944Y-39733984D02*
X11243992Y-39733984D01*
X11386849Y-39724460D02*
X11367801Y-39733984D01*
X11367801Y-39733984D02*
X11329706Y-39733984D01*
X11329706Y-39733984D02*
X11310658Y-39724460D01*
X11310658Y-39724460D02*
X11301134Y-39705412D01*
X11301134Y-39705412D02*
X11301134Y-39629222D01*
X11301134Y-39629222D02*
X11310658Y-39610174D01*
X11310658Y-39610174D02*
X11329706Y-39600650D01*
X11329706Y-39600650D02*
X11367801Y-39600650D01*
X11367801Y-39600650D02*
X11386849Y-39610174D01*
X11386849Y-39610174D02*
X11396373Y-39629222D01*
X11396373Y-39629222D02*
X11396373Y-39648270D01*
X11396373Y-39648270D02*
X11301134Y-39667317D01*
X11567801Y-39733984D02*
X11567801Y-39533984D01*
X11567801Y-39724460D02*
X11548754Y-39733984D01*
X11548754Y-39733984D02*
X11510658Y-39733984D01*
X11510658Y-39733984D02*
X11491611Y-39724460D01*
X11491611Y-39724460D02*
X11482087Y-39714936D01*
X11482087Y-39714936D02*
X11472563Y-39695889D01*
X11472563Y-39695889D02*
X11472563Y-39638746D01*
X11472563Y-39638746D02*
X11482087Y-39619698D01*
X11482087Y-39619698D02*
X11491611Y-39610174D01*
X11491611Y-39610174D02*
X11510658Y-39600650D01*
X11510658Y-39600650D02*
X11548754Y-39600650D01*
X11548754Y-39600650D02*
X11567801Y-39610174D01*
X11643992Y-39810174D02*
X11653515Y-39800650D01*
X11653515Y-39800650D02*
X11672563Y-39772079D01*
X11672563Y-39772079D02*
X11682087Y-39753031D01*
X11682087Y-39753031D02*
X11691611Y-39724460D01*
X11691611Y-39724460D02*
X11701134Y-39676841D01*
X11701134Y-39676841D02*
X11701134Y-39638746D01*
X11701134Y-39638746D02*
X11691611Y-39591127D01*
X11691611Y-39591127D02*
X11682087Y-39562555D01*
X11682087Y-39562555D02*
X11672563Y-39543508D01*
X11672563Y-39543508D02*
X11653515Y-39514936D01*
X11653515Y-39514936D02*
X11643992Y-39505412D01*
X4697500Y-39962500D02*
G75*
G02*
X4497500Y-39962500I-100000J0D01*
G01*
X4497500Y-39962500D02*
G75*
G02*
X4697500Y-39962500I100000J0D01*
G01*
X4939229Y-39853984D02*
X5063039Y-39853984D01*
X5063039Y-39853984D02*
X4996372Y-39930174D01*
X4996372Y-39930174D02*
X5024944Y-39930174D01*
X5024944Y-39930174D02*
X5043991Y-39939698D01*
X5043991Y-39939698D02*
X5053515Y-39949222D01*
X5053515Y-39949222D02*
X5063039Y-39968270D01*
X5063039Y-39968270D02*
X5063039Y-40015889D01*
X5063039Y-40015889D02*
X5053515Y-40034936D01*
X5053515Y-40034936D02*
X5043991Y-40044460D01*
X5043991Y-40044460D02*
X5024944Y-40053984D01*
X5024944Y-40053984D02*
X4967801Y-40053984D01*
X4967801Y-40053984D02*
X4948753Y-40044460D01*
X4948753Y-40044460D02*
X4939229Y-40034936D01*
X5148753Y-40034936D02*
X5158277Y-40044460D01*
X5158277Y-40044460D02*
X5148753Y-40053984D01*
X5148753Y-40053984D02*
X5139229Y-40044460D01*
X5139229Y-40044460D02*
X5148753Y-40034936D01*
X5148753Y-40034936D02*
X5148753Y-40053984D01*
X5224944Y-39853984D02*
X5348753Y-39853984D01*
X5348753Y-39853984D02*
X5282086Y-39930174D01*
X5282086Y-39930174D02*
X5310658Y-39930174D01*
X5310658Y-39930174D02*
X5329705Y-39939698D01*
X5329705Y-39939698D02*
X5339229Y-39949222D01*
X5339229Y-39949222D02*
X5348753Y-39968270D01*
X5348753Y-39968270D02*
X5348753Y-40015889D01*
X5348753Y-40015889D02*
X5339229Y-40034936D01*
X5339229Y-40034936D02*
X5329705Y-40044460D01*
X5329705Y-40044460D02*
X5310658Y-40053984D01*
X5310658Y-40053984D02*
X5253515Y-40053984D01*
X5253515Y-40053984D02*
X5234467Y-40044460D01*
X5234467Y-40044460D02*
X5224944Y-40034936D01*
X5472563Y-39853984D02*
X5491610Y-39853984D01*
X5491610Y-39853984D02*
X5510658Y-39863508D01*
X5510658Y-39863508D02*
X5520182Y-39873031D01*
X5520182Y-39873031D02*
X5529705Y-39892079D01*
X5529705Y-39892079D02*
X5539229Y-39930174D01*
X5539229Y-39930174D02*
X5539229Y-39977793D01*
X5539229Y-39977793D02*
X5529705Y-40015889D01*
X5529705Y-40015889D02*
X5520182Y-40034936D01*
X5520182Y-40034936D02*
X5510658Y-40044460D01*
X5510658Y-40044460D02*
X5491610Y-40053984D01*
X5491610Y-40053984D02*
X5472563Y-40053984D01*
X5472563Y-40053984D02*
X5453515Y-40044460D01*
X5453515Y-40044460D02*
X5443991Y-40034936D01*
X5443991Y-40034936D02*
X5434467Y-40015889D01*
X5434467Y-40015889D02*
X5424944Y-39977793D01*
X5424944Y-39977793D02*
X5424944Y-39930174D01*
X5424944Y-39930174D02*
X5434467Y-39892079D01*
X5434467Y-39892079D02*
X5443991Y-39873031D01*
X5443991Y-39873031D02*
X5453515Y-39863508D01*
X5453515Y-39863508D02*
X5472563Y-39853984D01*
X5663039Y-39853984D02*
X5682086Y-39853984D01*
X5682086Y-39853984D02*
X5701134Y-39863508D01*
X5701134Y-39863508D02*
X5710658Y-39873031D01*
X5710658Y-39873031D02*
X5720182Y-39892079D01*
X5720182Y-39892079D02*
X5729705Y-39930174D01*
X5729705Y-39930174D02*
X5729705Y-39977793D01*
X5729705Y-39977793D02*
X5720182Y-40015889D01*
X5720182Y-40015889D02*
X5710658Y-40034936D01*
X5710658Y-40034936D02*
X5701134Y-40044460D01*
X5701134Y-40044460D02*
X5682086Y-40053984D01*
X5682086Y-40053984D02*
X5663039Y-40053984D01*
X5663039Y-40053984D02*
X5643991Y-40044460D01*
X5643991Y-40044460D02*
X5634467Y-40034936D01*
X5634467Y-40034936D02*
X5624943Y-40015889D01*
X5624943Y-40015889D02*
X5615420Y-39977793D01*
X5615420Y-39977793D02*
X5615420Y-39930174D01*
X5615420Y-39930174D02*
X5624943Y-39892079D01*
X5624943Y-39892079D02*
X5634467Y-39873031D01*
X5634467Y-39873031D02*
X5643991Y-39863508D01*
X5643991Y-39863508D02*
X5663039Y-39853984D01*
X5815420Y-40053984D02*
X5815420Y-39920650D01*
X5815420Y-39939698D02*
X5824943Y-39930174D01*
X5824943Y-39930174D02*
X5843991Y-39920650D01*
X5843991Y-39920650D02*
X5872563Y-39920650D01*
X5872563Y-39920650D02*
X5891610Y-39930174D01*
X5891610Y-39930174D02*
X5901134Y-39949222D01*
X5901134Y-39949222D02*
X5901134Y-40053984D01*
X5901134Y-39949222D02*
X5910658Y-39930174D01*
X5910658Y-39930174D02*
X5929705Y-39920650D01*
X5929705Y-39920650D02*
X5958277Y-39920650D01*
X5958277Y-39920650D02*
X5977324Y-39930174D01*
X5977324Y-39930174D02*
X5986848Y-39949222D01*
X5986848Y-39949222D02*
X5986848Y-40053984D01*
X6082086Y-40053984D02*
X6082086Y-39920650D01*
X6082086Y-39939698D02*
X6091610Y-39930174D01*
X6091610Y-39930174D02*
X6110658Y-39920650D01*
X6110658Y-39920650D02*
X6139229Y-39920650D01*
X6139229Y-39920650D02*
X6158277Y-39930174D01*
X6158277Y-39930174D02*
X6167801Y-39949222D01*
X6167801Y-39949222D02*
X6167801Y-40053984D01*
X6167801Y-39949222D02*
X6177324Y-39930174D01*
X6177324Y-39930174D02*
X6196372Y-39920650D01*
X6196372Y-39920650D02*
X6224943Y-39920650D01*
X6224943Y-39920650D02*
X6243991Y-39930174D01*
X6243991Y-39930174D02*
X6253515Y-39949222D01*
X6253515Y-39949222D02*
X6253515Y-40053984D01*
X6643991Y-39844460D02*
X6472563Y-40101603D01*
X6901134Y-39853984D02*
X6920182Y-39853984D01*
X6920182Y-39853984D02*
X6939229Y-39863508D01*
X6939229Y-39863508D02*
X6948753Y-39873031D01*
X6948753Y-39873031D02*
X6958277Y-39892079D01*
X6958277Y-39892079D02*
X6967801Y-39930174D01*
X6967801Y-39930174D02*
X6967801Y-39977793D01*
X6967801Y-39977793D02*
X6958277Y-40015889D01*
X6958277Y-40015889D02*
X6948753Y-40034936D01*
X6948753Y-40034936D02*
X6939229Y-40044460D01*
X6939229Y-40044460D02*
X6920182Y-40053984D01*
X6920182Y-40053984D02*
X6901134Y-40053984D01*
X6901134Y-40053984D02*
X6882086Y-40044460D01*
X6882086Y-40044460D02*
X6872563Y-40034936D01*
X6872563Y-40034936D02*
X6863039Y-40015889D01*
X6863039Y-40015889D02*
X6853515Y-39977793D01*
X6853515Y-39977793D02*
X6853515Y-39930174D01*
X6853515Y-39930174D02*
X6863039Y-39892079D01*
X6863039Y-39892079D02*
X6872563Y-39873031D01*
X6872563Y-39873031D02*
X6882086Y-39863508D01*
X6882086Y-39863508D02*
X6901134Y-39853984D01*
X7053515Y-40034936D02*
X7063039Y-40044460D01*
X7063039Y-40044460D02*
X7053515Y-40053984D01*
X7053515Y-40053984D02*
X7043991Y-40044460D01*
X7043991Y-40044460D02*
X7053515Y-40034936D01*
X7053515Y-40034936D02*
X7053515Y-40053984D01*
X7253515Y-40053984D02*
X7139229Y-40053984D01*
X7196372Y-40053984D02*
X7196372Y-39853984D01*
X7196372Y-39853984D02*
X7177325Y-39882555D01*
X7177325Y-39882555D02*
X7158277Y-39901603D01*
X7158277Y-39901603D02*
X7139229Y-39911127D01*
X7329706Y-39873031D02*
X7339229Y-39863508D01*
X7339229Y-39863508D02*
X7358277Y-39853984D01*
X7358277Y-39853984D02*
X7405896Y-39853984D01*
X7405896Y-39853984D02*
X7424944Y-39863508D01*
X7424944Y-39863508D02*
X7434467Y-39873031D01*
X7434467Y-39873031D02*
X7443991Y-39892079D01*
X7443991Y-39892079D02*
X7443991Y-39911127D01*
X7443991Y-39911127D02*
X7434467Y-39939698D01*
X7434467Y-39939698D02*
X7320182Y-40053984D01*
X7320182Y-40053984D02*
X7443991Y-40053984D01*
X7539229Y-40053984D02*
X7577325Y-40053984D01*
X7577325Y-40053984D02*
X7596372Y-40044460D01*
X7596372Y-40044460D02*
X7605896Y-40034936D01*
X7605896Y-40034936D02*
X7624944Y-40006365D01*
X7624944Y-40006365D02*
X7634467Y-39968270D01*
X7634467Y-39968270D02*
X7634467Y-39892079D01*
X7634467Y-39892079D02*
X7624944Y-39873031D01*
X7624944Y-39873031D02*
X7615420Y-39863508D01*
X7615420Y-39863508D02*
X7596372Y-39853984D01*
X7596372Y-39853984D02*
X7558277Y-39853984D01*
X7558277Y-39853984D02*
X7539229Y-39863508D01*
X7539229Y-39863508D02*
X7529706Y-39873031D01*
X7529706Y-39873031D02*
X7520182Y-39892079D01*
X7520182Y-39892079D02*
X7520182Y-39939698D01*
X7520182Y-39939698D02*
X7529706Y-39958746D01*
X7529706Y-39958746D02*
X7539229Y-39968270D01*
X7539229Y-39968270D02*
X7558277Y-39977793D01*
X7558277Y-39977793D02*
X7596372Y-39977793D01*
X7596372Y-39977793D02*
X7615420Y-39968270D01*
X7615420Y-39968270D02*
X7624944Y-39958746D01*
X7624944Y-39958746D02*
X7634467Y-39939698D01*
X7729706Y-40053984D02*
X7767801Y-40053984D01*
X7767801Y-40053984D02*
X7786848Y-40044460D01*
X7786848Y-40044460D02*
X7796372Y-40034936D01*
X7796372Y-40034936D02*
X7815420Y-40006365D01*
X7815420Y-40006365D02*
X7824944Y-39968270D01*
X7824944Y-39968270D02*
X7824944Y-39892079D01*
X7824944Y-39892079D02*
X7815420Y-39873031D01*
X7815420Y-39873031D02*
X7805896Y-39863508D01*
X7805896Y-39863508D02*
X7786848Y-39853984D01*
X7786848Y-39853984D02*
X7748753Y-39853984D01*
X7748753Y-39853984D02*
X7729706Y-39863508D01*
X7729706Y-39863508D02*
X7720182Y-39873031D01*
X7720182Y-39873031D02*
X7710658Y-39892079D01*
X7710658Y-39892079D02*
X7710658Y-39939698D01*
X7710658Y-39939698D02*
X7720182Y-39958746D01*
X7720182Y-39958746D02*
X7729706Y-39968270D01*
X7729706Y-39968270D02*
X7748753Y-39977793D01*
X7748753Y-39977793D02*
X7786848Y-39977793D01*
X7786848Y-39977793D02*
X7805896Y-39968270D01*
X7805896Y-39968270D02*
X7815420Y-39958746D01*
X7815420Y-39958746D02*
X7824944Y-39939698D01*
X7901134Y-39853984D02*
X7901134Y-39892079D01*
X7977325Y-39853984D02*
X7977325Y-39892079D01*
X8272563Y-40130174D02*
X8263039Y-40120650D01*
X8263039Y-40120650D02*
X8243991Y-40092079D01*
X8243991Y-40092079D02*
X8234468Y-40073031D01*
X8234468Y-40073031D02*
X8224944Y-40044460D01*
X8224944Y-40044460D02*
X8215420Y-39996841D01*
X8215420Y-39996841D02*
X8215420Y-39958746D01*
X8215420Y-39958746D02*
X8224944Y-39911127D01*
X8224944Y-39911127D02*
X8234468Y-39882555D01*
X8234468Y-39882555D02*
X8243991Y-39863508D01*
X8243991Y-39863508D02*
X8263039Y-39834936D01*
X8263039Y-39834936D02*
X8272563Y-39825412D01*
X8377325Y-39939698D02*
X8358277Y-39930174D01*
X8358277Y-39930174D02*
X8348753Y-39920650D01*
X8348753Y-39920650D02*
X8339229Y-39901603D01*
X8339229Y-39901603D02*
X8339229Y-39892079D01*
X8339229Y-39892079D02*
X8348753Y-39873031D01*
X8348753Y-39873031D02*
X8358277Y-39863508D01*
X8358277Y-39863508D02*
X8377325Y-39853984D01*
X8377325Y-39853984D02*
X8415420Y-39853984D01*
X8415420Y-39853984D02*
X8434468Y-39863508D01*
X8434468Y-39863508D02*
X8443991Y-39873031D01*
X8443991Y-39873031D02*
X8453515Y-39892079D01*
X8453515Y-39892079D02*
X8453515Y-39901603D01*
X8453515Y-39901603D02*
X8443991Y-39920650D01*
X8443991Y-39920650D02*
X8434468Y-39930174D01*
X8434468Y-39930174D02*
X8415420Y-39939698D01*
X8415420Y-39939698D02*
X8377325Y-39939698D01*
X8377325Y-39939698D02*
X8358277Y-39949222D01*
X8358277Y-39949222D02*
X8348753Y-39958746D01*
X8348753Y-39958746D02*
X8339229Y-39977793D01*
X8339229Y-39977793D02*
X8339229Y-40015889D01*
X8339229Y-40015889D02*
X8348753Y-40034936D01*
X8348753Y-40034936D02*
X8358277Y-40044460D01*
X8358277Y-40044460D02*
X8377325Y-40053984D01*
X8377325Y-40053984D02*
X8415420Y-40053984D01*
X8415420Y-40053984D02*
X8434468Y-40044460D01*
X8434468Y-40044460D02*
X8443991Y-40034936D01*
X8443991Y-40034936D02*
X8453515Y-40015889D01*
X8453515Y-40015889D02*
X8453515Y-39977793D01*
X8453515Y-39977793D02*
X8443991Y-39958746D01*
X8443991Y-39958746D02*
X8434468Y-39949222D01*
X8434468Y-39949222D02*
X8415420Y-39939698D01*
X8691611Y-40053984D02*
X8691611Y-39853984D01*
X8777325Y-40053984D02*
X8777325Y-39949222D01*
X8777325Y-39949222D02*
X8767801Y-39930174D01*
X8767801Y-39930174D02*
X8748753Y-39920650D01*
X8748753Y-39920650D02*
X8720182Y-39920650D01*
X8720182Y-39920650D02*
X8701134Y-39930174D01*
X8701134Y-39930174D02*
X8691611Y-39939698D01*
X8901134Y-40053984D02*
X8882087Y-40044460D01*
X8882087Y-40044460D02*
X8872563Y-40034936D01*
X8872563Y-40034936D02*
X8863039Y-40015889D01*
X8863039Y-40015889D02*
X8863039Y-39958746D01*
X8863039Y-39958746D02*
X8872563Y-39939698D01*
X8872563Y-39939698D02*
X8882087Y-39930174D01*
X8882087Y-39930174D02*
X8901134Y-39920650D01*
X8901134Y-39920650D02*
X8929706Y-39920650D01*
X8929706Y-39920650D02*
X8948753Y-39930174D01*
X8948753Y-39930174D02*
X8958277Y-39939698D01*
X8958277Y-39939698D02*
X8967801Y-39958746D01*
X8967801Y-39958746D02*
X8967801Y-40015889D01*
X8967801Y-40015889D02*
X8958277Y-40034936D01*
X8958277Y-40034936D02*
X8948753Y-40044460D01*
X8948753Y-40044460D02*
X8929706Y-40053984D01*
X8929706Y-40053984D02*
X8901134Y-40053984D01*
X9082087Y-40053984D02*
X9063039Y-40044460D01*
X9063039Y-40044460D02*
X9053515Y-40025412D01*
X9053515Y-40025412D02*
X9053515Y-39853984D01*
X9234468Y-40044460D02*
X9215420Y-40053984D01*
X9215420Y-40053984D02*
X9177325Y-40053984D01*
X9177325Y-40053984D02*
X9158277Y-40044460D01*
X9158277Y-40044460D02*
X9148753Y-40025412D01*
X9148753Y-40025412D02*
X9148753Y-39949222D01*
X9148753Y-39949222D02*
X9158277Y-39930174D01*
X9158277Y-39930174D02*
X9177325Y-39920650D01*
X9177325Y-39920650D02*
X9215420Y-39920650D01*
X9215420Y-39920650D02*
X9234468Y-39930174D01*
X9234468Y-39930174D02*
X9243992Y-39949222D01*
X9243992Y-39949222D02*
X9243992Y-39968270D01*
X9243992Y-39968270D02*
X9148753Y-39987317D01*
X9320182Y-40044460D02*
X9339230Y-40053984D01*
X9339230Y-40053984D02*
X9377325Y-40053984D01*
X9377325Y-40053984D02*
X9396373Y-40044460D01*
X9396373Y-40044460D02*
X9405896Y-40025412D01*
X9405896Y-40025412D02*
X9405896Y-40015889D01*
X9405896Y-40015889D02*
X9396373Y-39996841D01*
X9396373Y-39996841D02*
X9377325Y-39987317D01*
X9377325Y-39987317D02*
X9348753Y-39987317D01*
X9348753Y-39987317D02*
X9329706Y-39977793D01*
X9329706Y-39977793D02*
X9320182Y-39958746D01*
X9320182Y-39958746D02*
X9320182Y-39949222D01*
X9320182Y-39949222D02*
X9329706Y-39930174D01*
X9329706Y-39930174D02*
X9348753Y-39920650D01*
X9348753Y-39920650D02*
X9377325Y-39920650D01*
X9377325Y-39920650D02*
X9396373Y-39930174D01*
X9472563Y-40130174D02*
X9482087Y-40120650D01*
X9482087Y-40120650D02*
X9501134Y-40092079D01*
X9501134Y-40092079D02*
X9510658Y-40073031D01*
X9510658Y-40073031D02*
X9520182Y-40044460D01*
X9520182Y-40044460D02*
X9529706Y-39996841D01*
X9529706Y-39996841D02*
X9529706Y-39958746D01*
X9529706Y-39958746D02*
X9520182Y-39911127D01*
X9520182Y-39911127D02*
X9510658Y-39882555D01*
X9510658Y-39882555D02*
X9501134Y-39863508D01*
X9501134Y-39863508D02*
X9482087Y-39834936D01*
X9482087Y-39834936D02*
X9472563Y-39825412D01*
X9834468Y-40130174D02*
X9824944Y-40120650D01*
X9824944Y-40120650D02*
X9805896Y-40092079D01*
X9805896Y-40092079D02*
X9796373Y-40073031D01*
X9796373Y-40073031D02*
X9786849Y-40044460D01*
X9786849Y-40044460D02*
X9777325Y-39996841D01*
X9777325Y-39996841D02*
X9777325Y-39958746D01*
X9777325Y-39958746D02*
X9786849Y-39911127D01*
X9786849Y-39911127D02*
X9796373Y-39882555D01*
X9796373Y-39882555D02*
X9805896Y-39863508D01*
X9805896Y-39863508D02*
X9824944Y-39834936D01*
X9824944Y-39834936D02*
X9834468Y-39825412D01*
X9910658Y-39920650D02*
X9910658Y-40053984D01*
X9910658Y-39939698D02*
X9920182Y-39930174D01*
X9920182Y-39930174D02*
X9939230Y-39920650D01*
X9939230Y-39920650D02*
X9967801Y-39920650D01*
X9967801Y-39920650D02*
X9986849Y-39930174D01*
X9986849Y-39930174D02*
X9996373Y-39949222D01*
X9996373Y-39949222D02*
X9996373Y-40053984D01*
X10120182Y-40053984D02*
X10101134Y-40044460D01*
X10101134Y-40044460D02*
X10091611Y-40034936D01*
X10091611Y-40034936D02*
X10082087Y-40015889D01*
X10082087Y-40015889D02*
X10082087Y-39958746D01*
X10082087Y-39958746D02*
X10091611Y-39939698D01*
X10091611Y-39939698D02*
X10101134Y-39930174D01*
X10101134Y-39930174D02*
X10120182Y-39920650D01*
X10120182Y-39920650D02*
X10148754Y-39920650D01*
X10148754Y-39920650D02*
X10167801Y-39930174D01*
X10167801Y-39930174D02*
X10177325Y-39939698D01*
X10177325Y-39939698D02*
X10186849Y-39958746D01*
X10186849Y-39958746D02*
X10186849Y-40015889D01*
X10186849Y-40015889D02*
X10177325Y-40034936D01*
X10177325Y-40034936D02*
X10167801Y-40044460D01*
X10167801Y-40044460D02*
X10148754Y-40053984D01*
X10148754Y-40053984D02*
X10120182Y-40053984D01*
X10243992Y-39920650D02*
X10320182Y-39920650D01*
X10272563Y-39853984D02*
X10272563Y-40025412D01*
X10272563Y-40025412D02*
X10282087Y-40044460D01*
X10282087Y-40044460D02*
X10301134Y-40053984D01*
X10301134Y-40053984D02*
X10320182Y-40053984D01*
X10539230Y-39920650D02*
X10539230Y-40120650D01*
X10539230Y-39930174D02*
X10558277Y-39920650D01*
X10558277Y-39920650D02*
X10596373Y-39920650D01*
X10596373Y-39920650D02*
X10615420Y-39930174D01*
X10615420Y-39930174D02*
X10624944Y-39939698D01*
X10624944Y-39939698D02*
X10634468Y-39958746D01*
X10634468Y-39958746D02*
X10634468Y-40015889D01*
X10634468Y-40015889D02*
X10624944Y-40034936D01*
X10624944Y-40034936D02*
X10615420Y-40044460D01*
X10615420Y-40044460D02*
X10596373Y-40053984D01*
X10596373Y-40053984D02*
X10558277Y-40053984D01*
X10558277Y-40053984D02*
X10539230Y-40044460D01*
X10748754Y-40053984D02*
X10729706Y-40044460D01*
X10729706Y-40044460D02*
X10720182Y-40025412D01*
X10720182Y-40025412D02*
X10720182Y-39853984D01*
X10910658Y-40053984D02*
X10910658Y-39949222D01*
X10910658Y-39949222D02*
X10901135Y-39930174D01*
X10901135Y-39930174D02*
X10882087Y-39920650D01*
X10882087Y-39920650D02*
X10843992Y-39920650D01*
X10843992Y-39920650D02*
X10824944Y-39930174D01*
X10910658Y-40044460D02*
X10891611Y-40053984D01*
X10891611Y-40053984D02*
X10843992Y-40053984D01*
X10843992Y-40053984D02*
X10824944Y-40044460D01*
X10824944Y-40044460D02*
X10815420Y-40025412D01*
X10815420Y-40025412D02*
X10815420Y-40006365D01*
X10815420Y-40006365D02*
X10824944Y-39987317D01*
X10824944Y-39987317D02*
X10843992Y-39977793D01*
X10843992Y-39977793D02*
X10891611Y-39977793D01*
X10891611Y-39977793D02*
X10910658Y-39968270D01*
X10977325Y-39920650D02*
X11053515Y-39920650D01*
X11005896Y-39853984D02*
X11005896Y-40025412D01*
X11005896Y-40025412D02*
X11015420Y-40044460D01*
X11015420Y-40044460D02*
X11034468Y-40053984D01*
X11034468Y-40053984D02*
X11053515Y-40053984D01*
X11196373Y-40044460D02*
X11177325Y-40053984D01*
X11177325Y-40053984D02*
X11139230Y-40053984D01*
X11139230Y-40053984D02*
X11120182Y-40044460D01*
X11120182Y-40044460D02*
X11110658Y-40025412D01*
X11110658Y-40025412D02*
X11110658Y-39949222D01*
X11110658Y-39949222D02*
X11120182Y-39930174D01*
X11120182Y-39930174D02*
X11139230Y-39920650D01*
X11139230Y-39920650D02*
X11177325Y-39920650D01*
X11177325Y-39920650D02*
X11196373Y-39930174D01*
X11196373Y-39930174D02*
X11205896Y-39949222D01*
X11205896Y-39949222D02*
X11205896Y-39968270D01*
X11205896Y-39968270D02*
X11110658Y-39987317D01*
X11377325Y-40053984D02*
X11377325Y-39853984D01*
X11377325Y-40044460D02*
X11358277Y-40053984D01*
X11358277Y-40053984D02*
X11320182Y-40053984D01*
X11320182Y-40053984D02*
X11301134Y-40044460D01*
X11301134Y-40044460D02*
X11291611Y-40034936D01*
X11291611Y-40034936D02*
X11282087Y-40015889D01*
X11282087Y-40015889D02*
X11282087Y-39958746D01*
X11282087Y-39958746D02*
X11291611Y-39939698D01*
X11291611Y-39939698D02*
X11301134Y-39930174D01*
X11301134Y-39930174D02*
X11320182Y-39920650D01*
X11320182Y-39920650D02*
X11358277Y-39920650D01*
X11358277Y-39920650D02*
X11377325Y-39930174D01*
X11453515Y-40130174D02*
X11463039Y-40120650D01*
X11463039Y-40120650D02*
X11482087Y-40092079D01*
X11482087Y-40092079D02*
X11491611Y-40073031D01*
X11491611Y-40073031D02*
X11501134Y-40044460D01*
X11501134Y-40044460D02*
X11510658Y-39996841D01*
X11510658Y-39996841D02*
X11510658Y-39958746D01*
X11510658Y-39958746D02*
X11501134Y-39911127D01*
X11501134Y-39911127D02*
X11491611Y-39882555D01*
X11491611Y-39882555D02*
X11482087Y-39863508D01*
X11482087Y-39863508D02*
X11463039Y-39834936D01*
X11463039Y-39834936D02*
X11453515Y-39825412D01*
X4597500Y-40182500D02*
X4597500Y-40382500D01*
X4497500Y-40282500D02*
X4697500Y-40282500D01*
X5053515Y-40173984D02*
X4958277Y-40173984D01*
X4958277Y-40173984D02*
X4948753Y-40269222D01*
X4948753Y-40269222D02*
X4958277Y-40259698D01*
X4958277Y-40259698D02*
X4977324Y-40250174D01*
X4977324Y-40250174D02*
X5024944Y-40250174D01*
X5024944Y-40250174D02*
X5043991Y-40259698D01*
X5043991Y-40259698D02*
X5053515Y-40269222D01*
X5053515Y-40269222D02*
X5063039Y-40288270D01*
X5063039Y-40288270D02*
X5063039Y-40335889D01*
X5063039Y-40335889D02*
X5053515Y-40354936D01*
X5053515Y-40354936D02*
X5043991Y-40364460D01*
X5043991Y-40364460D02*
X5024944Y-40373984D01*
X5024944Y-40373984D02*
X4977324Y-40373984D01*
X4977324Y-40373984D02*
X4958277Y-40364460D01*
X4958277Y-40364460D02*
X4948753Y-40354936D01*
X5148753Y-40354936D02*
X5158277Y-40364460D01*
X5158277Y-40364460D02*
X5148753Y-40373984D01*
X5148753Y-40373984D02*
X5139229Y-40364460D01*
X5139229Y-40364460D02*
X5148753Y-40354936D01*
X5148753Y-40354936D02*
X5148753Y-40373984D01*
X5282086Y-40173984D02*
X5301134Y-40173984D01*
X5301134Y-40173984D02*
X5320182Y-40183508D01*
X5320182Y-40183508D02*
X5329705Y-40193031D01*
X5329705Y-40193031D02*
X5339229Y-40212079D01*
X5339229Y-40212079D02*
X5348753Y-40250174D01*
X5348753Y-40250174D02*
X5348753Y-40297793D01*
X5348753Y-40297793D02*
X5339229Y-40335889D01*
X5339229Y-40335889D02*
X5329705Y-40354936D01*
X5329705Y-40354936D02*
X5320182Y-40364460D01*
X5320182Y-40364460D02*
X5301134Y-40373984D01*
X5301134Y-40373984D02*
X5282086Y-40373984D01*
X5282086Y-40373984D02*
X5263039Y-40364460D01*
X5263039Y-40364460D02*
X5253515Y-40354936D01*
X5253515Y-40354936D02*
X5243991Y-40335889D01*
X5243991Y-40335889D02*
X5234467Y-40297793D01*
X5234467Y-40297793D02*
X5234467Y-40250174D01*
X5234467Y-40250174D02*
X5243991Y-40212079D01*
X5243991Y-40212079D02*
X5253515Y-40193031D01*
X5253515Y-40193031D02*
X5263039Y-40183508D01*
X5263039Y-40183508D02*
X5282086Y-40173984D01*
X5472563Y-40173984D02*
X5491610Y-40173984D01*
X5491610Y-40173984D02*
X5510658Y-40183508D01*
X5510658Y-40183508D02*
X5520182Y-40193031D01*
X5520182Y-40193031D02*
X5529705Y-40212079D01*
X5529705Y-40212079D02*
X5539229Y-40250174D01*
X5539229Y-40250174D02*
X5539229Y-40297793D01*
X5539229Y-40297793D02*
X5529705Y-40335889D01*
X5529705Y-40335889D02*
X5520182Y-40354936D01*
X5520182Y-40354936D02*
X5510658Y-40364460D01*
X5510658Y-40364460D02*
X5491610Y-40373984D01*
X5491610Y-40373984D02*
X5472563Y-40373984D01*
X5472563Y-40373984D02*
X5453515Y-40364460D01*
X5453515Y-40364460D02*
X5443991Y-40354936D01*
X5443991Y-40354936D02*
X5434467Y-40335889D01*
X5434467Y-40335889D02*
X5424944Y-40297793D01*
X5424944Y-40297793D02*
X5424944Y-40250174D01*
X5424944Y-40250174D02*
X5434467Y-40212079D01*
X5434467Y-40212079D02*
X5443991Y-40193031D01*
X5443991Y-40193031D02*
X5453515Y-40183508D01*
X5453515Y-40183508D02*
X5472563Y-40173984D01*
X5663039Y-40173984D02*
X5682086Y-40173984D01*
X5682086Y-40173984D02*
X5701134Y-40183508D01*
X5701134Y-40183508D02*
X5710658Y-40193031D01*
X5710658Y-40193031D02*
X5720182Y-40212079D01*
X5720182Y-40212079D02*
X5729705Y-40250174D01*
X5729705Y-40250174D02*
X5729705Y-40297793D01*
X5729705Y-40297793D02*
X5720182Y-40335889D01*
X5720182Y-40335889D02*
X5710658Y-40354936D01*
X5710658Y-40354936D02*
X5701134Y-40364460D01*
X5701134Y-40364460D02*
X5682086Y-40373984D01*
X5682086Y-40373984D02*
X5663039Y-40373984D01*
X5663039Y-40373984D02*
X5643991Y-40364460D01*
X5643991Y-40364460D02*
X5634467Y-40354936D01*
X5634467Y-40354936D02*
X5624943Y-40335889D01*
X5624943Y-40335889D02*
X5615420Y-40297793D01*
X5615420Y-40297793D02*
X5615420Y-40250174D01*
X5615420Y-40250174D02*
X5624943Y-40212079D01*
X5624943Y-40212079D02*
X5634467Y-40193031D01*
X5634467Y-40193031D02*
X5643991Y-40183508D01*
X5643991Y-40183508D02*
X5663039Y-40173984D01*
X5815420Y-40373984D02*
X5815420Y-40240650D01*
X5815420Y-40259698D02*
X5824943Y-40250174D01*
X5824943Y-40250174D02*
X5843991Y-40240650D01*
X5843991Y-40240650D02*
X5872563Y-40240650D01*
X5872563Y-40240650D02*
X5891610Y-40250174D01*
X5891610Y-40250174D02*
X5901134Y-40269222D01*
X5901134Y-40269222D02*
X5901134Y-40373984D01*
X5901134Y-40269222D02*
X5910658Y-40250174D01*
X5910658Y-40250174D02*
X5929705Y-40240650D01*
X5929705Y-40240650D02*
X5958277Y-40240650D01*
X5958277Y-40240650D02*
X5977324Y-40250174D01*
X5977324Y-40250174D02*
X5986848Y-40269222D01*
X5986848Y-40269222D02*
X5986848Y-40373984D01*
X6082086Y-40373984D02*
X6082086Y-40240650D01*
X6082086Y-40259698D02*
X6091610Y-40250174D01*
X6091610Y-40250174D02*
X6110658Y-40240650D01*
X6110658Y-40240650D02*
X6139229Y-40240650D01*
X6139229Y-40240650D02*
X6158277Y-40250174D01*
X6158277Y-40250174D02*
X6167801Y-40269222D01*
X6167801Y-40269222D02*
X6167801Y-40373984D01*
X6167801Y-40269222D02*
X6177324Y-40250174D01*
X6177324Y-40250174D02*
X6196372Y-40240650D01*
X6196372Y-40240650D02*
X6224943Y-40240650D01*
X6224943Y-40240650D02*
X6243991Y-40250174D01*
X6243991Y-40250174D02*
X6253515Y-40269222D01*
X6253515Y-40269222D02*
X6253515Y-40373984D01*
X6643991Y-40164460D02*
X6472563Y-40421603D01*
X6901134Y-40173984D02*
X6920182Y-40173984D01*
X6920182Y-40173984D02*
X6939229Y-40183508D01*
X6939229Y-40183508D02*
X6948753Y-40193031D01*
X6948753Y-40193031D02*
X6958277Y-40212079D01*
X6958277Y-40212079D02*
X6967801Y-40250174D01*
X6967801Y-40250174D02*
X6967801Y-40297793D01*
X6967801Y-40297793D02*
X6958277Y-40335889D01*
X6958277Y-40335889D02*
X6948753Y-40354936D01*
X6948753Y-40354936D02*
X6939229Y-40364460D01*
X6939229Y-40364460D02*
X6920182Y-40373984D01*
X6920182Y-40373984D02*
X6901134Y-40373984D01*
X6901134Y-40373984D02*
X6882086Y-40364460D01*
X6882086Y-40364460D02*
X6872563Y-40354936D01*
X6872563Y-40354936D02*
X6863039Y-40335889D01*
X6863039Y-40335889D02*
X6853515Y-40297793D01*
X6853515Y-40297793D02*
X6853515Y-40250174D01*
X6853515Y-40250174D02*
X6863039Y-40212079D01*
X6863039Y-40212079D02*
X6872563Y-40193031D01*
X6872563Y-40193031D02*
X6882086Y-40183508D01*
X6882086Y-40183508D02*
X6901134Y-40173984D01*
X7053515Y-40354936D02*
X7063039Y-40364460D01*
X7063039Y-40364460D02*
X7053515Y-40373984D01*
X7053515Y-40373984D02*
X7043991Y-40364460D01*
X7043991Y-40364460D02*
X7053515Y-40354936D01*
X7053515Y-40354936D02*
X7053515Y-40373984D01*
X7253515Y-40373984D02*
X7139229Y-40373984D01*
X7196372Y-40373984D02*
X7196372Y-40173984D01*
X7196372Y-40173984D02*
X7177325Y-40202555D01*
X7177325Y-40202555D02*
X7158277Y-40221603D01*
X7158277Y-40221603D02*
X7139229Y-40231127D01*
X7348753Y-40373984D02*
X7386848Y-40373984D01*
X7386848Y-40373984D02*
X7405896Y-40364460D01*
X7405896Y-40364460D02*
X7415420Y-40354936D01*
X7415420Y-40354936D02*
X7434467Y-40326365D01*
X7434467Y-40326365D02*
X7443991Y-40288270D01*
X7443991Y-40288270D02*
X7443991Y-40212079D01*
X7443991Y-40212079D02*
X7434467Y-40193031D01*
X7434467Y-40193031D02*
X7424944Y-40183508D01*
X7424944Y-40183508D02*
X7405896Y-40173984D01*
X7405896Y-40173984D02*
X7367801Y-40173984D01*
X7367801Y-40173984D02*
X7348753Y-40183508D01*
X7348753Y-40183508D02*
X7339229Y-40193031D01*
X7339229Y-40193031D02*
X7329706Y-40212079D01*
X7329706Y-40212079D02*
X7329706Y-40259698D01*
X7329706Y-40259698D02*
X7339229Y-40278746D01*
X7339229Y-40278746D02*
X7348753Y-40288270D01*
X7348753Y-40288270D02*
X7367801Y-40297793D01*
X7367801Y-40297793D02*
X7405896Y-40297793D01*
X7405896Y-40297793D02*
X7424944Y-40288270D01*
X7424944Y-40288270D02*
X7434467Y-40278746D01*
X7434467Y-40278746D02*
X7443991Y-40259698D01*
X7615420Y-40173984D02*
X7577325Y-40173984D01*
X7577325Y-40173984D02*
X7558277Y-40183508D01*
X7558277Y-40183508D02*
X7548753Y-40193031D01*
X7548753Y-40193031D02*
X7529706Y-40221603D01*
X7529706Y-40221603D02*
X7520182Y-40259698D01*
X7520182Y-40259698D02*
X7520182Y-40335889D01*
X7520182Y-40335889D02*
X7529706Y-40354936D01*
X7529706Y-40354936D02*
X7539229Y-40364460D01*
X7539229Y-40364460D02*
X7558277Y-40373984D01*
X7558277Y-40373984D02*
X7596372Y-40373984D01*
X7596372Y-40373984D02*
X7615420Y-40364460D01*
X7615420Y-40364460D02*
X7624944Y-40354936D01*
X7624944Y-40354936D02*
X7634467Y-40335889D01*
X7634467Y-40335889D02*
X7634467Y-40288270D01*
X7634467Y-40288270D02*
X7624944Y-40269222D01*
X7624944Y-40269222D02*
X7615420Y-40259698D01*
X7615420Y-40259698D02*
X7596372Y-40250174D01*
X7596372Y-40250174D02*
X7558277Y-40250174D01*
X7558277Y-40250174D02*
X7539229Y-40259698D01*
X7539229Y-40259698D02*
X7529706Y-40269222D01*
X7529706Y-40269222D02*
X7520182Y-40288270D01*
X7729706Y-40373984D02*
X7767801Y-40373984D01*
X7767801Y-40373984D02*
X7786848Y-40364460D01*
X7786848Y-40364460D02*
X7796372Y-40354936D01*
X7796372Y-40354936D02*
X7815420Y-40326365D01*
X7815420Y-40326365D02*
X7824944Y-40288270D01*
X7824944Y-40288270D02*
X7824944Y-40212079D01*
X7824944Y-40212079D02*
X7815420Y-40193031D01*
X7815420Y-40193031D02*
X7805896Y-40183508D01*
X7805896Y-40183508D02*
X7786848Y-40173984D01*
X7786848Y-40173984D02*
X7748753Y-40173984D01*
X7748753Y-40173984D02*
X7729706Y-40183508D01*
X7729706Y-40183508D02*
X7720182Y-40193031D01*
X7720182Y-40193031D02*
X7710658Y-40212079D01*
X7710658Y-40212079D02*
X7710658Y-40259698D01*
X7710658Y-40259698D02*
X7720182Y-40278746D01*
X7720182Y-40278746D02*
X7729706Y-40288270D01*
X7729706Y-40288270D02*
X7748753Y-40297793D01*
X7748753Y-40297793D02*
X7786848Y-40297793D01*
X7786848Y-40297793D02*
X7805896Y-40288270D01*
X7805896Y-40288270D02*
X7815420Y-40278746D01*
X7815420Y-40278746D02*
X7824944Y-40259698D01*
X7901134Y-40173984D02*
X7901134Y-40212079D01*
X7977325Y-40173984D02*
X7977325Y-40212079D01*
X8272563Y-40450174D02*
X8263039Y-40440650D01*
X8263039Y-40440650D02*
X8243991Y-40412079D01*
X8243991Y-40412079D02*
X8234468Y-40393031D01*
X8234468Y-40393031D02*
X8224944Y-40364460D01*
X8224944Y-40364460D02*
X8215420Y-40316841D01*
X8215420Y-40316841D02*
X8215420Y-40278746D01*
X8215420Y-40278746D02*
X8224944Y-40231127D01*
X8224944Y-40231127D02*
X8234468Y-40202555D01*
X8234468Y-40202555D02*
X8243991Y-40183508D01*
X8243991Y-40183508D02*
X8263039Y-40154936D01*
X8263039Y-40154936D02*
X8272563Y-40145412D01*
X8434468Y-40240650D02*
X8434468Y-40373984D01*
X8386848Y-40164460D02*
X8339229Y-40307317D01*
X8339229Y-40307317D02*
X8463039Y-40307317D01*
X8577325Y-40173984D02*
X8596372Y-40173984D01*
X8596372Y-40173984D02*
X8615420Y-40183508D01*
X8615420Y-40183508D02*
X8624944Y-40193031D01*
X8624944Y-40193031D02*
X8634468Y-40212079D01*
X8634468Y-40212079D02*
X8643991Y-40250174D01*
X8643991Y-40250174D02*
X8643991Y-40297793D01*
X8643991Y-40297793D02*
X8634468Y-40335889D01*
X8634468Y-40335889D02*
X8624944Y-40354936D01*
X8624944Y-40354936D02*
X8615420Y-40364460D01*
X8615420Y-40364460D02*
X8596372Y-40373984D01*
X8596372Y-40373984D02*
X8577325Y-40373984D01*
X8577325Y-40373984D02*
X8558277Y-40364460D01*
X8558277Y-40364460D02*
X8548753Y-40354936D01*
X8548753Y-40354936D02*
X8539230Y-40335889D01*
X8539230Y-40335889D02*
X8529706Y-40297793D01*
X8529706Y-40297793D02*
X8529706Y-40250174D01*
X8529706Y-40250174D02*
X8539230Y-40212079D01*
X8539230Y-40212079D02*
X8548753Y-40193031D01*
X8548753Y-40193031D02*
X8558277Y-40183508D01*
X8558277Y-40183508D02*
X8577325Y-40173984D01*
X8882087Y-40373984D02*
X8882087Y-40173984D01*
X8967801Y-40373984D02*
X8967801Y-40269222D01*
X8967801Y-40269222D02*
X8958277Y-40250174D01*
X8958277Y-40250174D02*
X8939230Y-40240650D01*
X8939230Y-40240650D02*
X8910658Y-40240650D01*
X8910658Y-40240650D02*
X8891611Y-40250174D01*
X8891611Y-40250174D02*
X8882087Y-40259698D01*
X9091611Y-40373984D02*
X9072563Y-40364460D01*
X9072563Y-40364460D02*
X9063039Y-40354936D01*
X9063039Y-40354936D02*
X9053515Y-40335889D01*
X9053515Y-40335889D02*
X9053515Y-40278746D01*
X9053515Y-40278746D02*
X9063039Y-40259698D01*
X9063039Y-40259698D02*
X9072563Y-40250174D01*
X9072563Y-40250174D02*
X9091611Y-40240650D01*
X9091611Y-40240650D02*
X9120182Y-40240650D01*
X9120182Y-40240650D02*
X9139230Y-40250174D01*
X9139230Y-40250174D02*
X9148753Y-40259698D01*
X9148753Y-40259698D02*
X9158277Y-40278746D01*
X9158277Y-40278746D02*
X9158277Y-40335889D01*
X9158277Y-40335889D02*
X9148753Y-40354936D01*
X9148753Y-40354936D02*
X9139230Y-40364460D01*
X9139230Y-40364460D02*
X9120182Y-40373984D01*
X9120182Y-40373984D02*
X9091611Y-40373984D01*
X9272563Y-40373984D02*
X9253515Y-40364460D01*
X9253515Y-40364460D02*
X9243992Y-40345412D01*
X9243992Y-40345412D02*
X9243992Y-40173984D01*
X9424944Y-40364460D02*
X9405896Y-40373984D01*
X9405896Y-40373984D02*
X9367801Y-40373984D01*
X9367801Y-40373984D02*
X9348753Y-40364460D01*
X9348753Y-40364460D02*
X9339230Y-40345412D01*
X9339230Y-40345412D02*
X9339230Y-40269222D01*
X9339230Y-40269222D02*
X9348753Y-40250174D01*
X9348753Y-40250174D02*
X9367801Y-40240650D01*
X9367801Y-40240650D02*
X9405896Y-40240650D01*
X9405896Y-40240650D02*
X9424944Y-40250174D01*
X9424944Y-40250174D02*
X9434468Y-40269222D01*
X9434468Y-40269222D02*
X9434468Y-40288270D01*
X9434468Y-40288270D02*
X9339230Y-40307317D01*
X9510658Y-40364460D02*
X9529706Y-40373984D01*
X9529706Y-40373984D02*
X9567801Y-40373984D01*
X9567801Y-40373984D02*
X9586849Y-40364460D01*
X9586849Y-40364460D02*
X9596373Y-40345412D01*
X9596373Y-40345412D02*
X9596373Y-40335889D01*
X9596373Y-40335889D02*
X9586849Y-40316841D01*
X9586849Y-40316841D02*
X9567801Y-40307317D01*
X9567801Y-40307317D02*
X9539230Y-40307317D01*
X9539230Y-40307317D02*
X9520182Y-40297793D01*
X9520182Y-40297793D02*
X9510658Y-40278746D01*
X9510658Y-40278746D02*
X9510658Y-40269222D01*
X9510658Y-40269222D02*
X9520182Y-40250174D01*
X9520182Y-40250174D02*
X9539230Y-40240650D01*
X9539230Y-40240650D02*
X9567801Y-40240650D01*
X9567801Y-40240650D02*
X9586849Y-40250174D01*
X9663039Y-40450174D02*
X9672563Y-40440650D01*
X9672563Y-40440650D02*
X9691611Y-40412079D01*
X9691611Y-40412079D02*
X9701134Y-40393031D01*
X9701134Y-40393031D02*
X9710658Y-40364460D01*
X9710658Y-40364460D02*
X9720182Y-40316841D01*
X9720182Y-40316841D02*
X9720182Y-40278746D01*
X9720182Y-40278746D02*
X9710658Y-40231127D01*
X9710658Y-40231127D02*
X9701134Y-40202555D01*
X9701134Y-40202555D02*
X9691611Y-40183508D01*
X9691611Y-40183508D02*
X9672563Y-40154936D01*
X9672563Y-40154936D02*
X9663039Y-40145412D01*
X10024944Y-40450174D02*
X10015420Y-40440650D01*
X10015420Y-40440650D02*
X9996373Y-40412079D01*
X9996373Y-40412079D02*
X9986849Y-40393031D01*
X9986849Y-40393031D02*
X9977325Y-40364460D01*
X9977325Y-40364460D02*
X9967801Y-40316841D01*
X9967801Y-40316841D02*
X9967801Y-40278746D01*
X9967801Y-40278746D02*
X9977325Y-40231127D01*
X9977325Y-40231127D02*
X9986849Y-40202555D01*
X9986849Y-40202555D02*
X9996373Y-40183508D01*
X9996373Y-40183508D02*
X10015420Y-40154936D01*
X10015420Y-40154936D02*
X10024944Y-40145412D01*
X10101134Y-40240650D02*
X10101134Y-40373984D01*
X10101134Y-40259698D02*
X10110658Y-40250174D01*
X10110658Y-40250174D02*
X10129706Y-40240650D01*
X10129706Y-40240650D02*
X10158277Y-40240650D01*
X10158277Y-40240650D02*
X10177325Y-40250174D01*
X10177325Y-40250174D02*
X10186849Y-40269222D01*
X10186849Y-40269222D02*
X10186849Y-40373984D01*
X10310658Y-40373984D02*
X10291611Y-40364460D01*
X10291611Y-40364460D02*
X10282087Y-40354936D01*
X10282087Y-40354936D02*
X10272563Y-40335889D01*
X10272563Y-40335889D02*
X10272563Y-40278746D01*
X10272563Y-40278746D02*
X10282087Y-40259698D01*
X10282087Y-40259698D02*
X10291611Y-40250174D01*
X10291611Y-40250174D02*
X10310658Y-40240650D01*
X10310658Y-40240650D02*
X10339230Y-40240650D01*
X10339230Y-40240650D02*
X10358277Y-40250174D01*
X10358277Y-40250174D02*
X10367801Y-40259698D01*
X10367801Y-40259698D02*
X10377325Y-40278746D01*
X10377325Y-40278746D02*
X10377325Y-40335889D01*
X10377325Y-40335889D02*
X10367801Y-40354936D01*
X10367801Y-40354936D02*
X10358277Y-40364460D01*
X10358277Y-40364460D02*
X10339230Y-40373984D01*
X10339230Y-40373984D02*
X10310658Y-40373984D01*
X10434468Y-40240650D02*
X10510658Y-40240650D01*
X10463039Y-40173984D02*
X10463039Y-40345412D01*
X10463039Y-40345412D02*
X10472563Y-40364460D01*
X10472563Y-40364460D02*
X10491611Y-40373984D01*
X10491611Y-40373984D02*
X10510658Y-40373984D01*
X10729706Y-40240650D02*
X10729706Y-40440650D01*
X10729706Y-40250174D02*
X10748754Y-40240650D01*
X10748754Y-40240650D02*
X10786849Y-40240650D01*
X10786849Y-40240650D02*
X10805896Y-40250174D01*
X10805896Y-40250174D02*
X10815420Y-40259698D01*
X10815420Y-40259698D02*
X10824944Y-40278746D01*
X10824944Y-40278746D02*
X10824944Y-40335889D01*
X10824944Y-40335889D02*
X10815420Y-40354936D01*
X10815420Y-40354936D02*
X10805896Y-40364460D01*
X10805896Y-40364460D02*
X10786849Y-40373984D01*
X10786849Y-40373984D02*
X10748754Y-40373984D01*
X10748754Y-40373984D02*
X10729706Y-40364460D01*
X10939230Y-40373984D02*
X10920182Y-40364460D01*
X10920182Y-40364460D02*
X10910658Y-40345412D01*
X10910658Y-40345412D02*
X10910658Y-40173984D01*
X11101135Y-40373984D02*
X11101135Y-40269222D01*
X11101135Y-40269222D02*
X11091611Y-40250174D01*
X11091611Y-40250174D02*
X11072563Y-40240650D01*
X11072563Y-40240650D02*
X11034468Y-40240650D01*
X11034468Y-40240650D02*
X11015420Y-40250174D01*
X11101135Y-40364460D02*
X11082087Y-40373984D01*
X11082087Y-40373984D02*
X11034468Y-40373984D01*
X11034468Y-40373984D02*
X11015420Y-40364460D01*
X11015420Y-40364460D02*
X11005896Y-40345412D01*
X11005896Y-40345412D02*
X11005896Y-40326365D01*
X11005896Y-40326365D02*
X11015420Y-40307317D01*
X11015420Y-40307317D02*
X11034468Y-40297793D01*
X11034468Y-40297793D02*
X11082087Y-40297793D01*
X11082087Y-40297793D02*
X11101135Y-40288270D01*
X11167801Y-40240650D02*
X11243992Y-40240650D01*
X11196373Y-40173984D02*
X11196373Y-40345412D01*
X11196373Y-40345412D02*
X11205896Y-40364460D01*
X11205896Y-40364460D02*
X11224944Y-40373984D01*
X11224944Y-40373984D02*
X11243992Y-40373984D01*
X11386849Y-40364460D02*
X11367801Y-40373984D01*
X11367801Y-40373984D02*
X11329706Y-40373984D01*
X11329706Y-40373984D02*
X11310658Y-40364460D01*
X11310658Y-40364460D02*
X11301134Y-40345412D01*
X11301134Y-40345412D02*
X11301134Y-40269222D01*
X11301134Y-40269222D02*
X11310658Y-40250174D01*
X11310658Y-40250174D02*
X11329706Y-40240650D01*
X11329706Y-40240650D02*
X11367801Y-40240650D01*
X11367801Y-40240650D02*
X11386849Y-40250174D01*
X11386849Y-40250174D02*
X11396373Y-40269222D01*
X11396373Y-40269222D02*
X11396373Y-40288270D01*
X11396373Y-40288270D02*
X11301134Y-40307317D01*
X11567801Y-40373984D02*
X11567801Y-40173984D01*
X11567801Y-40364460D02*
X11548754Y-40373984D01*
X11548754Y-40373984D02*
X11510658Y-40373984D01*
X11510658Y-40373984D02*
X11491611Y-40364460D01*
X11491611Y-40364460D02*
X11482087Y-40354936D01*
X11482087Y-40354936D02*
X11472563Y-40335889D01*
X11472563Y-40335889D02*
X11472563Y-40278746D01*
X11472563Y-40278746D02*
X11482087Y-40259698D01*
X11482087Y-40259698D02*
X11491611Y-40250174D01*
X11491611Y-40250174D02*
X11510658Y-40240650D01*
X11510658Y-40240650D02*
X11548754Y-40240650D01*
X11548754Y-40240650D02*
X11567801Y-40250174D01*
X11643992Y-40450174D02*
X11653515Y-40440650D01*
X11653515Y-40440650D02*
X11672563Y-40412079D01*
X11672563Y-40412079D02*
X11682087Y-40393031D01*
X11682087Y-40393031D02*
X11691611Y-40364460D01*
X11691611Y-40364460D02*
X11701134Y-40316841D01*
X11701134Y-40316841D02*
X11701134Y-40278746D01*
X11701134Y-40278746D02*
X11691611Y-40231127D01*
X11691611Y-40231127D02*
X11682087Y-40202555D01*
X11682087Y-40202555D02*
X11672563Y-40183508D01*
X11672563Y-40183508D02*
X11653515Y-40154936D01*
X11653515Y-40154936D02*
X11643992Y-40145412D01*
M02*
