M48
; DRILL file KiCad 10.0.2 date 2026-05-10T17:27:27
; FORMAT={-:-/ absolute / metric / decimal}
; #@! TF.CreationDate,2026-05-10T17:27:27+01:00
; #@! TF.GenerationSoftware,Kicad,Pcbnew,10.0.2
; #@! TF.FileFunction,NonPlated,1,2,NPTH
FMAT,2
METRIC
; #@! TA.AperFunction,NonPlated,NPTH,ComponentDrill
T1C2.000
; #@! TA.AperFunction,NonPlated,NPTH,ComponentDrill
T2C3.300
; #@! TA.AperFunction,NonPlated,NPTH,ComponentDrill
T3C5.000
%
G90
G05
T1
X49.5Y-314.0
X49.5Y-387.5
X123.5Y-314.0
X133.0Y-387.5
X154.5Y-313.5
X168.5Y-313.5
X190.0Y-387.5
X199.5Y-314.0
X273.5Y-314.0
X273.5Y-387.5
T2
X54.0Y-318.5
X54.5Y-383.5
X123.5Y-320.5
X133.0Y-381.0
X190.0Y-381.0
X199.5Y-320.5
X269.0Y-318.5
X269.0Y-383.0
T3
X57.0Y-323.0
X66.5Y-342.0
X76.0Y-323.0
X76.0Y-361.0
X85.5Y-342.0
X95.0Y-323.0
X95.0Y-361.0
X104.5Y-342.0
X104.5Y-380.0
X114.0Y-323.0
X114.0Y-361.0
X123.5Y-342.0
X123.5Y-380.0
X133.0Y-323.0
X133.0Y-361.0
X142.5Y-342.0
X142.5Y-380.0
X152.0Y-323.0
X152.0Y-361.0
X161.5Y-342.0
X161.5Y-380.0
X171.0Y-323.0
X171.0Y-361.0
X180.5Y-342.0
X180.5Y-380.0
X190.0Y-323.0
X190.0Y-361.0
X199.5Y-342.0
X199.5Y-380.0
X209.0Y-323.0
X209.0Y-361.0
X218.5Y-342.0
X218.5Y-380.0
X228.0Y-323.0
X228.0Y-361.0
X237.5Y-342.0
X247.0Y-323.0
X247.0Y-361.0
X256.5Y-342.0
X266.0Y-323.0
M30
