%TF.GenerationSoftware,KiCad,Pcbnew,10.0.2*%
%TF.CreationDate,2026-05-10T17:26:52+01:00*%
%TF.ProjectId,just-40-mark03-20260510,6a757374-2d34-4302-9d6d-61726b30332d,rev?*%
%TF.SameCoordinates,Original*%
%TF.FileFunction,Legend,Top*%
%TF.FilePolarity,Positive*%
%FSLAX46Y46*%
G04 Gerber Fmt 4.6, Leading zero omitted, Abs format (unit mm)*
G04 Created by KiCad (PCBNEW 10.0.2) date 2026-05-10 17:26:52*
%MOMM*%
%LPD*%
G01*
G04 APERTURE LIST*
G04 Aperture macros list*
%AMRoundRect*
0 Rectangle with rounded corners*
0 $1 Rounding radius*
0 $2 $3 $4 $5 $6 $7 $8 $9 X,Y pos of 4 corners*
0 Add a 4 corners polygon primitive as box body*
4,1,4,$2,$3,$4,$5,$6,$7,$8,$9,$2,$3,0*
0 Add four circle primitives for the rounded corners*
1,1,$1+$1,$2,$3*
1,1,$1+$1,$4,$5*
1,1,$1+$1,$6,$7*
1,1,$1+$1,$8,$9*
0 Add four rect primitives between the rounded corners*
20,1,$1+$1,$2,$3,$4,$5,0*
20,1,$1+$1,$4,$5,$6,$7,0*
20,1,$1+$1,$6,$7,$8,$9,0*
20,1,$1+$1,$8,$9,$2,$3,0*%
G04 Aperture macros list end*
%ADD10C,0.350000*%
%ADD11C,0.000000*%
%ADD12C,4.600000*%
%ADD13C,3.000000*%
%ADD14C,1.600000*%
%ADD15RoundRect,0.250000X0.550000X0.550000X-0.550000X0.550000X-0.550000X-0.550000X0.550000X-0.550000X0*%
%ADD16C,2.000000*%
%ADD17C,3.300000*%
G04 APERTURE END LIST*
D10*
X67833333Y-378100967D02*
X67833333Y-380600967D01*
X67833333Y-380600967D02*
X67666666Y-381100967D01*
X67666666Y-381100967D02*
X67333333Y-381434301D01*
X67333333Y-381434301D02*
X66833333Y-381600967D01*
X66833333Y-381600967D02*
X66500000Y-381600967D01*
X71000000Y-379267634D02*
X71000000Y-381600967D01*
X69500000Y-379267634D02*
X69500000Y-381100967D01*
X69500000Y-381100967D02*
X69666667Y-381434301D01*
X69666667Y-381434301D02*
X70000000Y-381600967D01*
X70000000Y-381600967D02*
X70500000Y-381600967D01*
X70500000Y-381600967D02*
X70833333Y-381434301D01*
X70833333Y-381434301D02*
X71000000Y-381267634D01*
X72500000Y-381434301D02*
X72833334Y-381600967D01*
X72833334Y-381600967D02*
X73500000Y-381600967D01*
X73500000Y-381600967D02*
X73833334Y-381434301D01*
X73833334Y-381434301D02*
X74000000Y-381100967D01*
X74000000Y-381100967D02*
X74000000Y-380934301D01*
X74000000Y-380934301D02*
X73833334Y-380600967D01*
X73833334Y-380600967D02*
X73500000Y-380434301D01*
X73500000Y-380434301D02*
X73000000Y-380434301D01*
X73000000Y-380434301D02*
X72666667Y-380267634D01*
X72666667Y-380267634D02*
X72500000Y-379934301D01*
X72500000Y-379934301D02*
X72500000Y-379767634D01*
X72500000Y-379767634D02*
X72666667Y-379434301D01*
X72666667Y-379434301D02*
X73000000Y-379267634D01*
X73000000Y-379267634D02*
X73500000Y-379267634D01*
X73500000Y-379267634D02*
X73833334Y-379434301D01*
X75000000Y-379267634D02*
X76333333Y-379267634D01*
X75500000Y-378100967D02*
X75500000Y-381100967D01*
X75500000Y-381100967D02*
X75666667Y-381434301D01*
X75666667Y-381434301D02*
X76000000Y-381600967D01*
X76000000Y-381600967D02*
X76333333Y-381600967D01*
X81666667Y-379267634D02*
X81666667Y-381600967D01*
X80833334Y-377934301D02*
X80000000Y-380434301D01*
X80000000Y-380434301D02*
X82166667Y-380434301D01*
X84166667Y-378100967D02*
X84500000Y-378100967D01*
X84500000Y-378100967D02*
X84833333Y-378267634D01*
X84833333Y-378267634D02*
X85000000Y-378434301D01*
X85000000Y-378434301D02*
X85166667Y-378767634D01*
X85166667Y-378767634D02*
X85333333Y-379434301D01*
X85333333Y-379434301D02*
X85333333Y-380267634D01*
X85333333Y-380267634D02*
X85166667Y-380934301D01*
X85166667Y-380934301D02*
X85000000Y-381267634D01*
X85000000Y-381267634D02*
X84833333Y-381434301D01*
X84833333Y-381434301D02*
X84500000Y-381600967D01*
X84500000Y-381600967D02*
X84166667Y-381600967D01*
X84166667Y-381600967D02*
X83833333Y-381434301D01*
X83833333Y-381434301D02*
X83666667Y-381267634D01*
X83666667Y-381267634D02*
X83500000Y-380934301D01*
X83500000Y-380934301D02*
X83333333Y-380267634D01*
X83333333Y-380267634D02*
X83333333Y-379434301D01*
X83333333Y-379434301D02*
X83500000Y-378767634D01*
X83500000Y-378767634D02*
X83666667Y-378434301D01*
X83666667Y-378434301D02*
X83833333Y-378267634D01*
X83833333Y-378267634D02*
X84166667Y-378100967D01*
X264833333Y-354232095D02*
X267166667Y-354232095D01*
X265333333Y-353232095D02*
X265333333Y-355398761D01*
X267000000Y-353065428D02*
X267166667Y-353398761D01*
X267500000Y-352898761D02*
X267666667Y-353232095D01*
X266666667Y-353065428D02*
X266666667Y-354232095D01*
X266666667Y-354232095D02*
X266666667Y-354898761D01*
X266666667Y-354898761D02*
X266500000Y-355565428D01*
X266500000Y-355565428D02*
X266333333Y-355898761D01*
X266333333Y-355898761D02*
X266000000Y-356398761D01*
X266000000Y-356398761D02*
X265666667Y-356732095D01*
X265833333Y-360700232D02*
X266166667Y-360700232D01*
X266166667Y-360700232D02*
X266333333Y-360866899D01*
X266333333Y-360866899D02*
X266333333Y-361200232D01*
X266333333Y-361200232D02*
X266166667Y-361366899D01*
X266166667Y-361366899D02*
X265833333Y-361366899D01*
X265833333Y-361366899D02*
X265666667Y-361200232D01*
X265666667Y-361200232D02*
X265666667Y-360866899D01*
X265666667Y-360866899D02*
X265833333Y-360700232D01*
X263750000Y-366168369D02*
X266083333Y-366168369D01*
X264250000Y-365001703D02*
X265916667Y-365001703D01*
X264416667Y-364168369D02*
X263750000Y-365668369D01*
X264916667Y-366501703D02*
X265916667Y-367501703D01*
X266416667Y-367668369D02*
X268083333Y-367668369D01*
X266416667Y-364668369D02*
X266416667Y-368001703D01*
X266416667Y-364668369D02*
X268083333Y-364668369D01*
X268083333Y-364668369D02*
X268083333Y-368001703D01*
X264916667Y-365001703D02*
X264916667Y-366001703D01*
X264916667Y-366001703D02*
X264583333Y-367168369D01*
X264583333Y-367168369D02*
X263916667Y-368168369D01*
X264083333Y-371303173D02*
X265416667Y-371636507D01*
X264750000Y-370136507D02*
X265916667Y-370636507D01*
X266750000Y-369803173D02*
X266750000Y-373803173D01*
X268083333Y-372303173D02*
X263750000Y-372803173D01*
D11*
%TO.C,G\u002A\u002A\u002A*%
G36*
X48279174Y-359594183D02*
G01*
X48255347Y-359618010D01*
X48231520Y-359594183D01*
X48255347Y-359570356D01*
X48279174Y-359594183D01*
G37*
G36*
X49136960Y-359832457D02*
G01*
X49113133Y-359856284D01*
X49089306Y-359832457D01*
X49113133Y-359808630D01*
X49136960Y-359832457D01*
G37*
G36*
X49232270Y-359784802D02*
G01*
X49208443Y-359808630D01*
X49184615Y-359784802D01*
X49208443Y-359760975D01*
X49232270Y-359784802D01*
G37*
G36*
X51472045Y-355877110D02*
G01*
X51448218Y-355900937D01*
X51424390Y-355877110D01*
X51448218Y-355853282D01*
X51472045Y-355877110D01*
G37*
G36*
X52472795Y-365789305D02*
G01*
X52448968Y-365813132D01*
X52425141Y-365789305D01*
X52448968Y-365765478D01*
X52472795Y-365789305D01*
G37*
G36*
X53187617Y-355019324D02*
G01*
X53163790Y-355043151D01*
X53139962Y-355019324D01*
X53163790Y-354995496D01*
X53187617Y-355019324D01*
G37*
G36*
X55093809Y-352970168D02*
G01*
X55069981Y-352993995D01*
X55046154Y-352970168D01*
X55069981Y-352946341D01*
X55093809Y-352970168D01*
G37*
G36*
X55236773Y-353351406D02*
G01*
X55212945Y-353375234D01*
X55189118Y-353351406D01*
X55212945Y-353327579D01*
X55236773Y-353351406D01*
G37*
G36*
X55808630Y-361929267D02*
G01*
X55784803Y-361953095D01*
X55760975Y-361929267D01*
X55784803Y-361905440D01*
X55808630Y-361929267D01*
G37*
G36*
X56285178Y-352588930D02*
G01*
X56261351Y-352612757D01*
X56237523Y-352588930D01*
X56261351Y-352565102D01*
X56285178Y-352588930D01*
G37*
G36*
X56428142Y-352493620D02*
G01*
X56404315Y-352517448D01*
X56380488Y-352493620D01*
X56404315Y-352469793D01*
X56428142Y-352493620D01*
G37*
G36*
X56475797Y-352064727D02*
G01*
X56451970Y-352088554D01*
X56428142Y-352064727D01*
X56451970Y-352040900D01*
X56475797Y-352064727D01*
G37*
G36*
X56618762Y-352350656D02*
G01*
X56594934Y-352374483D01*
X56571107Y-352350656D01*
X56594934Y-352326828D01*
X56618762Y-352350656D01*
G37*
G36*
X56618762Y-361357410D02*
G01*
X56594934Y-361381237D01*
X56571107Y-361357410D01*
X56594934Y-361333583D01*
X56618762Y-361357410D01*
G37*
G36*
X56666416Y-361452720D02*
G01*
X56642589Y-361476547D01*
X56618762Y-361452720D01*
X56642589Y-361428892D01*
X56666416Y-361452720D01*
G37*
G36*
X56714071Y-351921763D02*
G01*
X56690244Y-351945590D01*
X56666416Y-351921763D01*
X56690244Y-351897935D01*
X56714071Y-351921763D01*
G37*
G36*
X56761726Y-352255346D02*
G01*
X56737899Y-352279174D01*
X56714071Y-352255346D01*
X56737899Y-352231519D01*
X56761726Y-352255346D01*
G37*
G36*
X56761726Y-361500374D02*
G01*
X56737899Y-361524202D01*
X56714071Y-361500374D01*
X56737899Y-361476547D01*
X56761726Y-361500374D01*
G37*
G36*
X56904690Y-352160037D02*
G01*
X56880863Y-352183864D01*
X56857036Y-352160037D01*
X56880863Y-352136209D01*
X56904690Y-352160037D01*
G37*
G36*
X56904690Y-359260600D02*
G01*
X56880863Y-359284427D01*
X56857036Y-359260600D01*
X56880863Y-359236772D01*
X56904690Y-359260600D01*
G37*
G36*
X57095309Y-365551031D02*
G01*
X57071482Y-365574858D01*
X57047655Y-365551031D01*
X57071482Y-365527204D01*
X57095309Y-365551031D01*
G37*
G36*
X57095309Y-365932269D02*
G01*
X57071482Y-365956097D01*
X57047655Y-365932269D01*
X57071482Y-365908442D01*
X57095309Y-365932269D01*
G37*
G36*
X57142964Y-365693995D02*
G01*
X57119137Y-365717823D01*
X57095309Y-365693995D01*
X57119137Y-365670168D01*
X57142964Y-365693995D01*
G37*
G36*
X57238274Y-366027579D02*
G01*
X57214446Y-366051406D01*
X57190619Y-366027579D01*
X57214446Y-366003751D01*
X57238274Y-366027579D01*
G37*
G36*
X57333583Y-366122888D02*
G01*
X57309756Y-366146716D01*
X57285929Y-366122888D01*
X57309756Y-366099061D01*
X57333583Y-366122888D01*
G37*
G36*
X57428893Y-361643339D02*
G01*
X57405066Y-361667166D01*
X57381238Y-361643339D01*
X57405066Y-361619511D01*
X57428893Y-361643339D01*
G37*
G36*
X57428893Y-362739399D02*
G01*
X57405066Y-362763226D01*
X57381238Y-362739399D01*
X57405066Y-362715571D01*
X57428893Y-362739399D01*
G37*
G36*
X57476548Y-362644089D02*
G01*
X57452720Y-362667917D01*
X57428893Y-362644089D01*
X57452720Y-362620262D01*
X57476548Y-362644089D01*
G37*
G36*
X57524203Y-362548780D02*
G01*
X57500375Y-362572607D01*
X57476548Y-362548780D01*
X57500375Y-362524952D01*
X57524203Y-362548780D01*
G37*
G36*
X57571857Y-362453470D02*
G01*
X57548030Y-362477297D01*
X57524203Y-362453470D01*
X57548030Y-362429643D01*
X57571857Y-362453470D01*
G37*
G36*
X57619512Y-351683489D02*
G01*
X57595685Y-351707316D01*
X57571857Y-351683489D01*
X57595685Y-351659661D01*
X57619512Y-351683489D01*
G37*
G36*
X58000750Y-369839962D02*
G01*
X57976923Y-369863789D01*
X57953096Y-369839962D01*
X57976923Y-369816134D01*
X58000750Y-369839962D01*
G37*
G36*
X58524953Y-358927016D02*
G01*
X58501126Y-358950843D01*
X58477298Y-358927016D01*
X58501126Y-358903189D01*
X58524953Y-358927016D01*
G37*
G36*
X59239775Y-362024577D02*
G01*
X59215947Y-362048404D01*
X59192120Y-362024577D01*
X59215947Y-362000750D01*
X59239775Y-362024577D01*
G37*
G36*
X60383490Y-369935271D02*
G01*
X60359662Y-369959099D01*
X60335835Y-369935271D01*
X60359662Y-369911444D01*
X60383490Y-369935271D01*
G37*
G36*
X60478799Y-367409568D02*
G01*
X60454972Y-367433395D01*
X60431144Y-367409568D01*
X60454972Y-367385740D01*
X60478799Y-367409568D01*
G37*
G36*
X63052157Y-361262100D02*
G01*
X63028330Y-361285928D01*
X63004503Y-361262100D01*
X63028330Y-361238273D01*
X63052157Y-361262100D01*
G37*
G36*
X63766979Y-360166040D02*
G01*
X63743152Y-360189868D01*
X63719324Y-360166040D01*
X63743152Y-360142213D01*
X63766979Y-360166040D01*
G37*
G36*
X64434146Y-359117635D02*
G01*
X64410319Y-359141463D01*
X64386491Y-359117635D01*
X64410319Y-359093808D01*
X64434146Y-359117635D01*
G37*
G36*
X64434146Y-362167541D02*
G01*
X64410319Y-362191369D01*
X64386491Y-362167541D01*
X64410319Y-362143714D01*
X64434146Y-362167541D01*
G37*
G36*
X64577111Y-362024577D02*
G01*
X64553283Y-362048404D01*
X64529456Y-362024577D01*
X64553283Y-362000750D01*
X64577111Y-362024577D01*
G37*
G36*
X64672420Y-361881613D02*
G01*
X64648593Y-361905440D01*
X64624765Y-361881613D01*
X64648593Y-361857785D01*
X64672420Y-361881613D01*
G37*
G36*
X64720075Y-358688742D02*
G01*
X64696248Y-358712570D01*
X64672420Y-358688742D01*
X64696248Y-358664915D01*
X64720075Y-358688742D01*
G37*
G36*
X64720075Y-361738648D02*
G01*
X64696248Y-361762476D01*
X64672420Y-361738648D01*
X64696248Y-361714821D01*
X64720075Y-361738648D01*
G37*
G36*
X65387242Y-359308254D02*
G01*
X65363415Y-359332082D01*
X65339587Y-359308254D01*
X65363415Y-359284427D01*
X65387242Y-359308254D01*
G37*
G36*
X65434897Y-359117635D02*
G01*
X65411069Y-359141463D01*
X65387242Y-359117635D01*
X65411069Y-359093808D01*
X65434897Y-359117635D01*
G37*
G36*
X65530206Y-357116134D02*
G01*
X65506379Y-357139962D01*
X65482551Y-357116134D01*
X65506379Y-357092307D01*
X65530206Y-357116134D01*
G37*
G36*
X65577861Y-357020825D02*
G01*
X65554034Y-357044652D01*
X65530206Y-357020825D01*
X65554034Y-356996997D01*
X65577861Y-357020825D01*
G37*
G36*
X65625516Y-356925515D02*
G01*
X65601688Y-356949342D01*
X65577861Y-356925515D01*
X65601688Y-356901688D01*
X65625516Y-356925515D01*
G37*
G36*
X65625516Y-357878611D02*
G01*
X65601688Y-357902438D01*
X65577861Y-357878611D01*
X65601688Y-357854783D01*
X65625516Y-357878611D01*
G37*
G36*
X65625516Y-357973920D02*
G01*
X65601688Y-357997748D01*
X65577861Y-357973920D01*
X65601688Y-357950093D01*
X65625516Y-357973920D01*
G37*
G36*
X65720825Y-356734896D02*
G01*
X65696998Y-356758723D01*
X65673171Y-356734896D01*
X65696998Y-356711069D01*
X65720825Y-356734896D01*
G37*
G36*
X65768480Y-356639586D02*
G01*
X65744653Y-356663414D01*
X65720825Y-356639586D01*
X65744653Y-356615759D01*
X65768480Y-356639586D01*
G37*
G36*
X48882802Y-359586241D02*
G01*
X48876260Y-359614571D01*
X48851032Y-359618010D01*
X48811806Y-359600574D01*
X48819262Y-359586241D01*
X48875817Y-359580537D01*
X48882802Y-359586241D01*
G37*
G36*
X56222422Y-362468362D02*
G01*
X56228103Y-362542841D01*
X56218660Y-362559701D01*
X56197000Y-362545488D01*
X56193631Y-362497154D01*
X56205269Y-362446304D01*
X56222422Y-362468362D01*
G37*
G36*
X56269293Y-362302563D02*
G01*
X56274997Y-362359118D01*
X56269293Y-362366103D01*
X56240962Y-362359561D01*
X56237523Y-362334333D01*
X56254959Y-362295108D01*
X56269293Y-362302563D01*
G37*
G36*
X56316948Y-362159599D02*
G01*
X56322651Y-362216154D01*
X56316948Y-362223139D01*
X56288617Y-362216597D01*
X56285178Y-362191369D01*
X56302614Y-362152143D01*
X56316948Y-362159599D01*
G37*
G36*
X56555222Y-360301062D02*
G01*
X56560925Y-360357617D01*
X56555222Y-360364602D01*
X56526891Y-360358060D01*
X56523452Y-360332832D01*
X56540888Y-360293607D01*
X56555222Y-360301062D01*
G37*
G36*
X56984115Y-364113445D02*
G01*
X56989818Y-364170000D01*
X56984115Y-364176985D01*
X56955784Y-364170443D01*
X56952345Y-364145215D01*
X56969781Y-364105990D01*
X56984115Y-364113445D01*
G37*
G36*
X57032554Y-363850351D02*
G01*
X57038235Y-363924830D01*
X57028791Y-363941689D01*
X57007132Y-363927477D01*
X57003762Y-363879142D01*
X57015400Y-363828293D01*
X57032554Y-363850351D01*
G37*
G36*
X57222389Y-361587741D02*
G01*
X57215847Y-361616072D01*
X57190619Y-361619511D01*
X57151394Y-361602075D01*
X57158849Y-361587741D01*
X57215404Y-361582038D01*
X57222389Y-361587741D01*
G37*
G36*
X57317489Y-367993339D02*
G01*
X57323784Y-368090905D01*
X57317489Y-368112476D01*
X57300096Y-368118462D01*
X57293453Y-368052907D01*
X57300942Y-367985255D01*
X57317489Y-367993339D01*
G37*
G36*
X57365353Y-351675546D02*
G01*
X57358812Y-351703877D01*
X57333583Y-351707316D01*
X57294358Y-351689880D01*
X57301814Y-351675546D01*
X57358369Y-351669843D01*
X57365353Y-351675546D01*
G37*
G36*
X58223139Y-358871419D02*
G01*
X58228843Y-358927974D01*
X58223139Y-358934958D01*
X58194809Y-358928417D01*
X58191369Y-358903189D01*
X58208806Y-358863963D01*
X58223139Y-358871419D01*
G37*
G36*
X58416737Y-358969707D02*
G01*
X58402524Y-358991366D01*
X58354190Y-358994736D01*
X58303341Y-358983098D01*
X58325399Y-358965945D01*
X58399877Y-358960263D01*
X58416737Y-358969707D01*
G37*
G36*
X58747342Y-361111194D02*
G01*
X58753045Y-361167749D01*
X58747342Y-361174733D01*
X58719011Y-361168192D01*
X58715572Y-361142964D01*
X58733008Y-361103738D01*
X58747342Y-361111194D01*
G37*
G36*
X58794997Y-361254158D02*
G01*
X58800700Y-361310713D01*
X58794997Y-361317698D01*
X58766666Y-361311156D01*
X58763227Y-361285928D01*
X58780663Y-361246703D01*
X58794997Y-361254158D01*
G37*
G36*
X60415259Y-367211006D02*
G01*
X60420963Y-367267561D01*
X60415259Y-367274546D01*
X60386929Y-367268004D01*
X60383490Y-367242776D01*
X60400926Y-367203551D01*
X60415259Y-367211006D01*
G37*
G36*
X60510569Y-367544590D02*
G01*
X60516272Y-367601145D01*
X60510569Y-367608129D01*
X60482238Y-367601588D01*
X60478799Y-367576359D01*
X60496235Y-367537134D01*
X60510569Y-367544590D01*
G37*
G36*
X60559008Y-367758043D02*
G01*
X60564689Y-367832522D01*
X60555245Y-367849382D01*
X60533586Y-367835169D01*
X60530216Y-367786835D01*
X60541854Y-367735985D01*
X60559008Y-367758043D01*
G37*
G36*
X60605670Y-367945684D02*
G01*
X60611964Y-368043250D01*
X60605670Y-368064821D01*
X60588276Y-368070807D01*
X60581633Y-368005252D01*
X60589122Y-367937600D01*
X60605670Y-367945684D01*
G37*
G36*
X64751845Y-361587741D02*
G01*
X64757548Y-361644297D01*
X64751845Y-361651281D01*
X64723514Y-361644740D01*
X64720075Y-361619511D01*
X64737511Y-361580286D01*
X64751845Y-361587741D01*
G37*
G36*
X64799500Y-361397122D02*
G01*
X64805203Y-361453677D01*
X64799500Y-361460662D01*
X64771169Y-361454121D01*
X64767730Y-361428892D01*
X64785166Y-361389667D01*
X64799500Y-361397122D01*
G37*
G36*
X64990119Y-360729955D02*
G01*
X64995822Y-360786510D01*
X64990119Y-360793495D01*
X64961788Y-360786954D01*
X64958349Y-360761725D01*
X64975785Y-360722500D01*
X64990119Y-360729955D01*
G37*
G36*
X65037773Y-360586991D02*
G01*
X65043477Y-360643546D01*
X65037773Y-360650531D01*
X65009443Y-360643989D01*
X65006004Y-360618761D01*
X65023440Y-360579536D01*
X65037773Y-360586991D01*
G37*
G36*
X65086212Y-360419206D02*
G01*
X65091893Y-360493685D01*
X65082450Y-360510545D01*
X65060790Y-360496332D01*
X65057421Y-360447998D01*
X65069059Y-360397149D01*
X65086212Y-360419206D01*
G37*
G36*
X65133083Y-360253408D02*
G01*
X65138786Y-360309963D01*
X65133083Y-360316947D01*
X65104752Y-360310406D01*
X65101313Y-360285177D01*
X65118749Y-360245952D01*
X65133083Y-360253408D01*
G37*
G36*
X65180738Y-360062788D02*
G01*
X65186441Y-360119343D01*
X65180738Y-360126328D01*
X65152407Y-360119787D01*
X65148968Y-360094558D01*
X65166404Y-360055333D01*
X65180738Y-360062788D01*
G37*
G36*
X65228393Y-359872169D02*
G01*
X65234096Y-359928724D01*
X65228393Y-359935709D01*
X65200062Y-359929167D01*
X65196623Y-359903939D01*
X65214059Y-359864714D01*
X65228393Y-359872169D01*
G37*
G36*
X65657077Y-357556941D02*
G01*
X65663371Y-357654507D01*
X65657077Y-357676078D01*
X65639683Y-357682065D01*
X65633040Y-357616509D01*
X65640529Y-357548857D01*
X65657077Y-357556941D01*
G37*
G36*
X48986633Y-359637287D02*
G01*
X49037793Y-359685270D01*
X49027298Y-359712856D01*
X49020636Y-359713320D01*
X48980329Y-359679472D01*
X48965618Y-359658302D01*
X48960001Y-359625692D01*
X48986633Y-359637287D01*
G37*
G36*
X52560742Y-365832409D02*
G01*
X52611500Y-365876708D01*
X52615760Y-365887427D01*
X52593144Y-365907014D01*
X52546058Y-365863125D01*
X52539727Y-365853424D01*
X52534110Y-365820814D01*
X52560742Y-365832409D01*
G37*
G36*
X56944982Y-365260552D02*
G01*
X56995740Y-365304851D01*
X57000000Y-365315570D01*
X56977384Y-365335156D01*
X56930298Y-365291267D01*
X56923967Y-365281567D01*
X56918350Y-365248957D01*
X56944982Y-365260552D01*
G37*
G36*
X57903989Y-369660196D02*
G01*
X57921885Y-369694942D01*
X57934079Y-369762090D01*
X57902067Y-369749057D01*
X57879654Y-369717654D01*
X57865006Y-369655283D01*
X57870954Y-369644117D01*
X57903989Y-369660196D01*
G37*
G36*
X58095697Y-370035543D02*
G01*
X58101973Y-370041700D01*
X58139615Y-370104181D01*
X58134511Y-370127151D01*
X58099062Y-370112850D01*
X58075296Y-370068377D01*
X58060787Y-370012703D01*
X58095697Y-370035543D01*
G37*
G36*
X60206497Y-369803156D02*
G01*
X60216698Y-369816134D01*
X60233471Y-369858995D01*
X60188385Y-369842853D01*
X60145216Y-369816134D01*
X60108580Y-369777878D01*
X60130490Y-369769209D01*
X60206497Y-369803156D01*
G37*
G36*
X48923173Y-359398542D02*
G01*
X48982082Y-359426439D01*
X49063314Y-359473536D01*
X49089306Y-359500550D01*
X49074333Y-359520439D01*
X49017122Y-359487215D01*
X48967363Y-359448590D01*
X48905967Y-359397289D01*
X48923173Y-359398542D01*
G37*
G36*
X48934428Y-360014054D02*
G01*
X48949259Y-360027866D01*
X48883365Y-360035387D01*
X48851032Y-360035847D01*
X48764333Y-360030879D01*
X48754115Y-360018509D01*
X48767636Y-360014054D01*
X48888499Y-360006643D01*
X48934428Y-360014054D01*
G37*
G36*
X51310348Y-355978355D02*
G01*
X51257598Y-356043902D01*
X51185987Y-356114380D01*
X51147517Y-356139211D01*
X51157194Y-356109448D01*
X51209944Y-356043902D01*
X51281555Y-355973423D01*
X51320025Y-355948592D01*
X51310348Y-355978355D01*
G37*
G36*
X51647709Y-355687703D02*
G01*
X51621088Y-355722232D01*
X51551531Y-355796320D01*
X51520482Y-355795997D01*
X51519700Y-355787635D01*
X51552266Y-355747856D01*
X51603096Y-355704239D01*
X51659542Y-355663025D01*
X51647709Y-355687703D01*
G37*
G36*
X51933638Y-355449429D02*
G01*
X51907017Y-355483958D01*
X51837459Y-355558046D01*
X51806411Y-355557724D01*
X51805628Y-355549361D01*
X51838194Y-355509582D01*
X51889024Y-355465966D01*
X51945471Y-355424751D01*
X51933638Y-355449429D01*
G37*
G36*
X52505499Y-354978624D02*
G01*
X52496623Y-354995496D01*
X52451722Y-355041007D01*
X52443343Y-355043151D01*
X52440092Y-355012369D01*
X52448968Y-354995496D01*
X52493869Y-354949986D01*
X52502248Y-354947842D01*
X52505499Y-354978624D01*
G37*
G36*
X52696118Y-354835660D02*
G01*
X52687242Y-354852532D01*
X52642341Y-354898042D01*
X52633962Y-354900187D01*
X52630711Y-354869404D01*
X52639587Y-354852532D01*
X52684488Y-354807022D01*
X52692867Y-354804877D01*
X52696118Y-354835660D01*
G37*
G36*
X52934388Y-354639298D02*
G01*
X52907767Y-354673827D01*
X52838210Y-354747914D01*
X52807161Y-354747592D01*
X52806379Y-354739230D01*
X52838945Y-354699451D01*
X52889775Y-354655834D01*
X52946222Y-354614620D01*
X52934388Y-354639298D01*
G37*
G36*
X53676079Y-362187762D02*
G01*
X53775662Y-362280899D01*
X53806581Y-362326123D01*
X53791609Y-362334333D01*
X53753297Y-362302365D01*
X53678526Y-362223454D01*
X53660558Y-362203282D01*
X53545028Y-362072232D01*
X53676079Y-362187762D01*
G37*
G36*
X53792174Y-353924476D02*
G01*
X53765553Y-353959005D01*
X53695996Y-354033093D01*
X53664947Y-354032770D01*
X53664165Y-354024408D01*
X53696731Y-353984629D01*
X53747561Y-353941012D01*
X53804008Y-353899798D01*
X53792174Y-353924476D01*
G37*
G36*
X53982797Y-353787254D02*
G01*
X53973921Y-353804127D01*
X53929020Y-353849637D01*
X53920641Y-353851782D01*
X53917390Y-353820999D01*
X53926266Y-353804127D01*
X53971167Y-353758616D01*
X53979546Y-353756472D01*
X53982797Y-353787254D01*
G37*
G36*
X54173416Y-353644290D02*
G01*
X54164540Y-353661162D01*
X54119639Y-353706673D01*
X54111261Y-353708817D01*
X54108009Y-353678035D01*
X54116885Y-353661162D01*
X54161786Y-353615652D01*
X54170165Y-353613508D01*
X54173416Y-353644290D01*
G37*
G36*
X55412441Y-353215397D02*
G01*
X55403565Y-353232269D01*
X55358664Y-353277780D01*
X55350285Y-353279924D01*
X55347034Y-353249142D01*
X55355910Y-353232269D01*
X55400811Y-353186759D01*
X55409189Y-353184615D01*
X55412441Y-353215397D01*
G37*
G36*
X55555405Y-353120087D02*
G01*
X55546529Y-353136960D01*
X55501628Y-353182470D01*
X55493249Y-353184615D01*
X55489998Y-353153832D01*
X55498874Y-353136960D01*
X55543775Y-353091449D01*
X55552154Y-353089305D01*
X55555405Y-353120087D01*
G37*
G36*
X55698370Y-353024778D02*
G01*
X55689493Y-353041650D01*
X55644592Y-353087161D01*
X55636214Y-353089305D01*
X55632962Y-353058522D01*
X55641839Y-353041650D01*
X55686740Y-352996140D01*
X55695118Y-352993995D01*
X55698370Y-353024778D01*
G37*
G36*
X55888989Y-352881814D02*
G01*
X55880112Y-352898686D01*
X55835211Y-352944196D01*
X55826833Y-352946341D01*
X55823581Y-352915558D01*
X55832458Y-352898686D01*
X55877359Y-352853175D01*
X55885737Y-352851031D01*
X55888989Y-352881814D01*
G37*
G36*
X56031953Y-368941476D02*
G01*
X56023077Y-368958348D01*
X55978176Y-369003859D01*
X55969797Y-369006003D01*
X55966546Y-368975220D01*
X55975422Y-368958348D01*
X56020323Y-368912838D01*
X56028702Y-368910693D01*
X56031953Y-368941476D01*
G37*
G36*
X56079604Y-352733106D02*
G01*
X56052983Y-352767635D01*
X55983426Y-352841723D01*
X55952377Y-352841401D01*
X55951595Y-352833039D01*
X55984161Y-352793259D01*
X56034991Y-352749643D01*
X56091437Y-352708429D01*
X56079604Y-352733106D01*
G37*
G36*
X56937042Y-351823750D02*
G01*
X56904690Y-351850281D01*
X56817815Y-351890605D01*
X56785553Y-351896476D01*
X56777029Y-351876811D01*
X56809381Y-351850281D01*
X56896256Y-351809956D01*
X56928518Y-351804085D01*
X56937042Y-351823750D01*
G37*
G36*
X57094763Y-365182835D02*
G01*
X57095309Y-365193620D01*
X57058675Y-365239444D01*
X57044842Y-365241275D01*
X57016381Y-365212080D01*
X57023827Y-365193620D01*
X57066650Y-365148158D01*
X57074294Y-365145965D01*
X57094763Y-365182835D01*
G37*
G36*
X57219117Y-351725002D02*
G01*
X57166792Y-351754971D01*
X57065757Y-351790708D01*
X57013628Y-351795220D01*
X57028380Y-351768507D01*
X57047655Y-351754971D01*
X57149385Y-351715459D01*
X57190619Y-351711395D01*
X57219117Y-351725002D01*
G37*
G36*
X57226916Y-369688082D02*
G01*
X57238055Y-369700963D01*
X57169620Y-369708191D01*
X57119137Y-369708807D01*
X57026849Y-369704115D01*
X57012848Y-369693352D01*
X57036297Y-369687120D01*
X57160467Y-369679448D01*
X57226916Y-369688082D01*
G37*
G36*
X57699871Y-359267555D02*
G01*
X57690994Y-359284427D01*
X57646093Y-359329937D01*
X57637715Y-359332082D01*
X57634463Y-359301299D01*
X57643339Y-359284427D01*
X57688240Y-359238916D01*
X57696619Y-359236772D01*
X57699871Y-359267555D01*
G37*
G36*
X57751118Y-369592772D02*
G01*
X57762258Y-369605654D01*
X57693823Y-369612882D01*
X57643339Y-369613497D01*
X57551052Y-369608805D01*
X57537051Y-369598042D01*
X57560499Y-369591811D01*
X57684670Y-369584138D01*
X57751118Y-369592772D01*
G37*
G36*
X59224824Y-370132845D02*
G01*
X59215947Y-370149718D01*
X59171046Y-370195228D01*
X59162668Y-370197373D01*
X59159416Y-370166590D01*
X59168293Y-370149718D01*
X59213194Y-370104207D01*
X59221572Y-370102063D01*
X59224824Y-370132845D01*
G37*
G36*
X60700084Y-368438773D02*
G01*
X60702443Y-368446966D01*
X60709419Y-368550773D01*
X60700677Y-368589930D01*
X60685032Y-368591515D01*
X60678643Y-368516913D01*
X60678709Y-368505628D01*
X60685580Y-368431717D01*
X60700084Y-368438773D01*
G37*
G36*
X62751278Y-361697949D02*
G01*
X62742401Y-361714821D01*
X62697500Y-361760331D01*
X62689122Y-361762476D01*
X62685870Y-361731693D01*
X62694747Y-361714821D01*
X62739648Y-361669310D01*
X62748026Y-361667166D01*
X62751278Y-361697949D01*
G37*
G36*
X62846587Y-361554984D02*
G01*
X62837711Y-361571857D01*
X62792810Y-361617367D01*
X62784431Y-361619511D01*
X62781180Y-361588729D01*
X62790056Y-361571857D01*
X62834957Y-361526346D01*
X62843336Y-361524202D01*
X62846587Y-361554984D01*
G37*
G36*
X62941897Y-361412020D02*
G01*
X62933021Y-361428892D01*
X62888120Y-361474403D01*
X62879741Y-361476547D01*
X62876489Y-361445764D01*
X62885366Y-361428892D01*
X62930267Y-361383382D01*
X62938645Y-361381237D01*
X62941897Y-361412020D01*
G37*
G36*
X63847338Y-360030031D02*
G01*
X63838461Y-360046903D01*
X63793560Y-360092414D01*
X63785182Y-360094558D01*
X63781930Y-360063776D01*
X63790807Y-360046903D01*
X63835708Y-360001393D01*
X63844086Y-359999249D01*
X63847338Y-360030031D01*
G37*
G36*
X63942647Y-359887067D02*
G01*
X63933771Y-359903939D01*
X63888870Y-359949450D01*
X63880491Y-359951594D01*
X63877240Y-359920811D01*
X63886116Y-359903939D01*
X63931017Y-359858429D01*
X63939396Y-359856284D01*
X63942647Y-359887067D01*
G37*
G36*
X64037957Y-359744102D02*
G01*
X64029081Y-359760975D01*
X63984180Y-359806485D01*
X63975801Y-359808630D01*
X63972550Y-359777847D01*
X63981426Y-359760975D01*
X64026327Y-359715464D01*
X64034705Y-359713320D01*
X64037957Y-359744102D01*
G37*
G36*
X64175074Y-359510069D02*
G01*
X64148218Y-359570356D01*
X64099004Y-359645248D01*
X64073382Y-359665665D01*
X64073706Y-359630642D01*
X64100563Y-359570356D01*
X64149776Y-359495464D01*
X64175398Y-359475046D01*
X64175074Y-359510069D01*
G37*
G36*
X64276231Y-359362864D02*
G01*
X64267354Y-359379736D01*
X64222453Y-359425247D01*
X64214075Y-359427391D01*
X64210823Y-359396609D01*
X64219700Y-359379736D01*
X64264601Y-359334226D01*
X64272979Y-359332082D01*
X64276231Y-359362864D01*
G37*
G36*
X64371540Y-359219900D02*
G01*
X64362664Y-359236772D01*
X64317763Y-359282283D01*
X64309384Y-359284427D01*
X64306133Y-359253644D01*
X64315009Y-359236772D01*
X64359910Y-359191262D01*
X64368289Y-359189117D01*
X64371540Y-359219900D01*
G37*
G36*
X65080515Y-358032771D02*
G01*
X65053658Y-358093057D01*
X65004445Y-358167949D01*
X64978823Y-358188367D01*
X64979147Y-358153344D01*
X65006004Y-358093057D01*
X65055217Y-358018165D01*
X65080839Y-357997748D01*
X65080515Y-358032771D01*
G37*
G36*
X65463052Y-357213727D02*
G01*
X65431071Y-357282926D01*
X65374201Y-357394223D01*
X65346003Y-357425209D01*
X65339587Y-357395286D01*
X65366830Y-357325339D01*
X65413698Y-357256293D01*
X65462967Y-357197709D01*
X65463052Y-357213727D01*
G37*
G36*
X65703837Y-357239898D02*
G01*
X65706195Y-357248092D01*
X65713171Y-357351899D01*
X65704429Y-357391056D01*
X65688785Y-357392640D01*
X65682395Y-357318039D01*
X65682461Y-357306753D01*
X65689333Y-357232843D01*
X65703837Y-357239898D01*
G37*
G36*
X65751492Y-356906315D02*
G01*
X65753850Y-356914508D01*
X65760826Y-357018315D01*
X65752084Y-357057473D01*
X65736440Y-357059057D01*
X65730050Y-356984455D01*
X65730116Y-356973170D01*
X65736987Y-356899259D01*
X65751492Y-356906315D01*
G37*
G36*
X53166788Y-354459380D02*
G01*
X53065150Y-354567650D01*
X53012337Y-354611364D01*
X52997001Y-354599879D01*
X52996998Y-354599346D01*
X53028902Y-354561476D01*
X53109294Y-354483527D01*
X53151876Y-354444468D01*
X53306754Y-354304502D01*
X53166788Y-354459380D01*
G37*
G36*
X54236022Y-354056306D02*
G01*
X54204107Y-354093358D01*
X54120635Y-354176713D01*
X54009662Y-354282666D01*
X53783302Y-354495121D01*
X53995757Y-354268761D01*
X54121059Y-354137215D01*
X54194793Y-354065986D01*
X54229006Y-354044417D01*
X54236022Y-354056306D01*
G37*
G36*
X56642246Y-369541866D02*
G01*
X56690244Y-369576289D01*
X56770581Y-369634828D01*
X56805410Y-369659685D01*
X56789747Y-369672523D01*
X56775504Y-369673170D01*
X56709103Y-369639408D01*
X56660338Y-369589774D01*
X56619731Y-369534038D01*
X56642246Y-369541866D01*
G37*
G36*
X57416121Y-368100562D02*
G01*
X57451918Y-368216621D01*
X57486949Y-368279267D01*
X57518979Y-368332310D01*
X57491263Y-368326996D01*
X57438424Y-368281650D01*
X57396575Y-368192682D01*
X57387728Y-368102945D01*
X57394218Y-367981425D01*
X57416121Y-368100562D01*
G37*
G36*
X57536116Y-366334770D02*
G01*
X57652536Y-366444618D01*
X57706617Y-366504650D01*
X57708561Y-366526868D01*
X57700343Y-366527954D01*
X57662808Y-366496066D01*
X57582575Y-366414467D01*
X57521637Y-366349249D01*
X57357411Y-366170543D01*
X57536116Y-366334770D01*
G37*
G36*
X58894278Y-362831710D02*
G01*
X58988152Y-362919619D01*
X59043166Y-362977076D01*
X59049156Y-362986588D01*
X59034284Y-362998813D01*
X58982103Y-362955976D01*
X58881263Y-362848721D01*
X58879366Y-362846622D01*
X58739400Y-362691744D01*
X58894278Y-362831710D01*
G37*
G36*
X48345845Y-359843611D02*
G01*
X48374484Y-359863820D01*
X48489421Y-359953862D01*
X48524567Y-359994168D01*
X48480147Y-359983588D01*
X48362570Y-359924337D01*
X48270802Y-359860864D01*
X48231541Y-359806553D01*
X48231520Y-359805681D01*
X48264296Y-359799697D01*
X48345845Y-359843611D01*
G37*
G36*
X56644788Y-360476495D02*
G01*
X56740992Y-360528464D01*
X56884870Y-360615422D01*
X56947167Y-360663666D01*
X56927056Y-360671412D01*
X56823712Y-360636875D01*
X56783899Y-360621071D01*
X56670723Y-360550248D01*
X56620201Y-360501358D01*
X56599284Y-360463638D01*
X56644788Y-360476495D01*
G37*
G36*
X58462537Y-359887066D02*
G01*
X58423140Y-359959302D01*
X58359549Y-360042828D01*
X58303056Y-360098478D01*
X58264103Y-360120742D01*
X58284222Y-360075619D01*
X58327527Y-360011162D01*
X58401262Y-359913213D01*
X58451384Y-359859677D01*
X58458392Y-359856284D01*
X58462537Y-359887066D01*
G37*
G36*
X55030402Y-362009608D02*
G01*
X55022549Y-362048404D01*
X54995663Y-362162518D01*
X54981602Y-362225731D01*
X54953230Y-362295040D01*
X54918580Y-362326445D01*
X54903189Y-362300092D01*
X54921855Y-362226524D01*
X54967735Y-362110702D01*
X54977286Y-362089617D01*
X55020228Y-362005284D01*
X55030402Y-362009608D01*
G37*
G36*
X55346698Y-361528500D02*
G01*
X55498874Y-361532798D01*
X55340771Y-361578353D01*
X55192410Y-361660806D01*
X55116276Y-361776588D01*
X55072080Y-361865012D01*
X55051416Y-361867334D01*
X55048019Y-361832648D01*
X55086135Y-361677842D01*
X55191757Y-361568646D01*
X55341960Y-361528404D01*
X55346698Y-361528500D01*
G37*
G36*
X55639314Y-361583151D02*
G01*
X55693390Y-361640608D01*
X55742453Y-361732267D01*
X55762712Y-361816792D01*
X55745855Y-361857517D01*
X55742629Y-361857785D01*
X55706687Y-361822495D01*
X55645352Y-361737316D01*
X55643512Y-361734514D01*
X55596161Y-361635344D01*
X55597929Y-361578927D01*
X55639314Y-361583151D01*
G37*
G36*
X58554830Y-360685444D02*
G01*
X58618378Y-360792096D01*
X58674657Y-360905871D01*
X58707244Y-360994497D01*
X58707119Y-361024337D01*
X58677948Y-360995406D01*
X58619646Y-360903399D01*
X58563781Y-360803256D01*
X58506557Y-360685918D01*
X58485560Y-360620485D01*
X58500435Y-360618188D01*
X58554830Y-360685444D01*
G37*
G36*
X59002977Y-370300956D02*
G01*
X58977673Y-370313641D01*
X58846488Y-370353278D01*
X58671100Y-370376397D01*
X58572608Y-370379076D01*
X58310506Y-370374460D01*
X58620263Y-370339836D01*
X58796935Y-370317074D01*
X58946169Y-370292551D01*
X59025328Y-370274401D01*
X59053006Y-370271003D01*
X59002977Y-370300956D01*
G37*
G36*
X59749569Y-369730080D02*
G01*
X59726810Y-369750043D01*
X59669648Y-369774009D01*
X59543383Y-369841012D01*
X59467115Y-369897511D01*
X59403427Y-369944995D01*
X59382739Y-369944513D01*
X59420833Y-369877824D01*
X59510818Y-369801558D01*
X59616250Y-369741925D01*
X59689567Y-369723845D01*
X59749569Y-369730080D01*
G37*
G36*
X53596935Y-354072323D02*
G01*
X53535686Y-354145899D01*
X53521201Y-354161538D01*
X53439667Y-354241687D01*
X53388331Y-354280100D01*
X53385450Y-354280675D01*
X53397811Y-354250753D01*
X53459060Y-354177176D01*
X53473546Y-354161538D01*
X53555079Y-354081388D01*
X53606416Y-354042975D01*
X53609297Y-354042401D01*
X53596935Y-354072323D01*
G37*
G36*
X56000027Y-369316239D02*
G01*
X56029150Y-369370790D01*
X56023557Y-369386464D01*
X56035519Y-369436849D01*
X56058521Y-369450891D01*
X56084235Y-369474024D01*
X56066760Y-369478789D01*
X55990646Y-369456973D01*
X55983364Y-369450781D01*
X55953615Y-369388586D01*
X55958990Y-369328521D01*
X55994215Y-369313162D01*
X56000027Y-369316239D01*
G37*
G36*
X56829897Y-369043819D02*
G01*
X56789923Y-369140136D01*
X56756837Y-369208536D01*
X56681327Y-369354493D01*
X56638497Y-369425677D01*
X56620683Y-369433667D01*
X56618762Y-369417113D01*
X56638786Y-369354303D01*
X56687502Y-369249416D01*
X56747870Y-369134824D01*
X56802851Y-369042900D01*
X56835145Y-369006003D01*
X56829897Y-369043819D01*
G37*
G36*
X58413001Y-368544583D02*
G01*
X58406247Y-368594771D01*
X58367622Y-368694309D01*
X58312961Y-368810038D01*
X58258101Y-368908797D01*
X58218878Y-368957426D01*
X58215408Y-368958348D01*
X58214202Y-368920281D01*
X58240244Y-368836003D01*
X58308097Y-368677094D01*
X58367444Y-368573606D01*
X58408632Y-368541819D01*
X58413001Y-368544583D01*
G37*
G36*
X59411260Y-361316785D02*
G01*
X59400523Y-361381237D01*
X59379767Y-361519646D01*
X59354974Y-361706608D01*
X59336659Y-361857785D01*
X59300961Y-362167541D01*
X59297858Y-361881613D01*
X59307884Y-361686621D01*
X59336943Y-361497028D01*
X59361722Y-361405065D01*
X59402941Y-361289823D01*
X59417763Y-361261434D01*
X59411260Y-361316785D01*
G37*
G36*
X65321942Y-357544053D02*
G01*
X65285789Y-357646140D01*
X65234278Y-357768361D01*
X65181397Y-357878337D01*
X65141134Y-357943691D01*
X65131920Y-357950093D01*
X65136236Y-357910696D01*
X65170993Y-357809166D01*
X65209730Y-357712884D01*
X65267962Y-357585557D01*
X65312401Y-357507439D01*
X65328749Y-357494477D01*
X65321942Y-357544053D01*
G37*
G36*
X48363918Y-359459582D02*
G01*
X48430681Y-359499824D01*
X48552282Y-359530187D01*
X48589549Y-359534967D01*
X48699118Y-359546769D01*
X48724460Y-359553533D01*
X48661573Y-359558273D01*
X48553189Y-359562345D01*
X48413567Y-359561282D01*
X48345877Y-359540114D01*
X48327576Y-359491307D01*
X48327559Y-359486960D01*
X48340117Y-359437409D01*
X48363918Y-359459582D01*
G37*
G36*
X58197675Y-362024825D02*
G01*
X58252969Y-362065419D01*
X58336583Y-362146274D01*
X58428613Y-362245208D01*
X58509156Y-362340041D01*
X58558306Y-362408593D01*
X58560948Y-362429643D01*
X58521999Y-362398345D01*
X58436231Y-362316644D01*
X58332342Y-362212497D01*
X58236331Y-362107570D01*
X58187803Y-362040141D01*
X58197089Y-362024606D01*
X58197675Y-362024825D01*
G37*
G36*
X58850010Y-361437010D02*
G01*
X58916897Y-361528861D01*
X59005546Y-361663179D01*
X59011900Y-361673191D01*
X59109056Y-361832307D01*
X59158035Y-361924798D01*
X59158186Y-361946948D01*
X59108859Y-361895038D01*
X59033733Y-361798217D01*
X58934842Y-361655447D01*
X58859070Y-361527168D01*
X58818972Y-361436249D01*
X58818934Y-361407009D01*
X58850010Y-361437010D01*
G37*
G36*
X56585217Y-361562691D02*
G01*
X56548037Y-361660031D01*
X56493597Y-361789032D01*
X56433762Y-361922504D01*
X56380401Y-362033257D01*
X56345381Y-362094099D01*
X56343668Y-362096059D01*
X56338480Y-362075864D01*
X56356855Y-362000750D01*
X56397960Y-361889621D01*
X56456872Y-361757654D01*
X56519195Y-361633866D01*
X56570532Y-361547277D01*
X56593266Y-361524202D01*
X56585217Y-361562691D01*
G37*
G36*
X57801119Y-360538143D02*
G01*
X57788505Y-360547944D01*
X57619921Y-360635148D01*
X57397857Y-360691849D01*
X57166792Y-360707994D01*
X57071032Y-360703631D01*
X57053396Y-360696105D01*
X57119623Y-360682162D01*
X57246520Y-360662776D01*
X57436658Y-360626223D01*
X57620463Y-360577198D01*
X57699240Y-360549674D01*
X57807071Y-360508231D01*
X57837631Y-360504453D01*
X57801119Y-360538143D01*
G37*
G36*
X58518736Y-358628798D02*
G01*
X58515111Y-358664428D01*
X58473732Y-358763348D01*
X58417730Y-358798973D01*
X58356091Y-358787405D01*
X58335446Y-358706917D01*
X58335064Y-358680323D01*
X58342080Y-358595021D01*
X58366407Y-358595145D01*
X58382718Y-358617260D01*
X58427721Y-358664747D01*
X58471839Y-358627904D01*
X58479370Y-358617260D01*
X58513524Y-358582204D01*
X58518736Y-358628798D01*
G37*
G36*
X52731304Y-355421853D02*
G01*
X52711069Y-355443448D01*
X52587934Y-355567629D01*
X52453340Y-355693821D01*
X52324456Y-355807249D01*
X52218449Y-355893140D01*
X52152485Y-355936722D01*
X52139212Y-355935559D01*
X52172643Y-355897410D01*
X52263277Y-355810101D01*
X52396621Y-355687275D01*
X52532364Y-355565454D01*
X52685501Y-355431538D01*
X52769594Y-355363040D01*
X52784807Y-355359849D01*
X52731304Y-355421853D01*
G37*
G36*
X60752747Y-369434896D02*
G01*
X60758351Y-369699527D01*
X60748732Y-369881546D01*
X60721597Y-369992771D01*
X60674651Y-370045020D01*
X60632769Y-370052959D01*
X60576049Y-370047307D01*
X60602540Y-370021443D01*
X60633677Y-370002936D01*
X60673712Y-369964334D01*
X60699995Y-369892106D01*
X60715909Y-369767683D01*
X60724839Y-369572494D01*
X60726773Y-369492096D01*
X60736473Y-369029830D01*
X60752747Y-369434896D01*
G37*
G36*
X63386199Y-363204033D02*
G01*
X63107611Y-363486132D01*
X62888737Y-363707136D01*
X62722499Y-363873939D01*
X62601820Y-363993435D01*
X62519619Y-364072521D01*
X62468821Y-364118089D01*
X62442345Y-364137035D01*
X62433114Y-364136253D01*
X62432645Y-364132843D01*
X62465174Y-364097522D01*
X62557001Y-364003995D01*
X62699485Y-363860901D01*
X62883988Y-363676881D01*
X63101870Y-363460573D01*
X63344490Y-363220618D01*
X63373827Y-363191661D01*
X64315009Y-362262851D01*
X63386199Y-363204033D01*
G37*
G36*
X55949661Y-362279474D02*
G01*
X55993787Y-362375411D01*
X56029540Y-362469520D01*
X56083076Y-362597872D01*
X56130723Y-362674416D01*
X56153329Y-362684874D01*
X56170180Y-362711434D01*
X56168217Y-362806216D01*
X56160534Y-362866942D01*
X56133037Y-363020247D01*
X56111769Y-363086360D01*
X56098420Y-363062664D01*
X56094559Y-362969248D01*
X56078932Y-362845411D01*
X56038605Y-362676096D01*
X55999126Y-362548421D01*
X55952182Y-362400074D01*
X55925563Y-362291726D01*
X55924116Y-362250617D01*
X55949661Y-362279474D01*
G37*
G36*
X52373724Y-362291956D02*
G01*
X52389646Y-362366351D01*
X52429934Y-362509278D01*
X52488206Y-362699056D01*
X52547067Y-362880879D01*
X52612749Y-363086236D01*
X52662747Y-363256209D01*
X52691795Y-363371907D01*
X52695685Y-363414008D01*
X52674109Y-363379783D01*
X52630570Y-363271155D01*
X52571275Y-363104775D01*
X52502429Y-362897293D01*
X52498339Y-362884550D01*
X52431868Y-362666561D01*
X52380989Y-362479024D01*
X52350669Y-362341829D01*
X52345879Y-362274866D01*
X52345959Y-362274663D01*
X52367254Y-362253511D01*
X52373724Y-362291956D01*
G37*
G36*
X56374427Y-352107796D02*
G01*
X56304031Y-352168173D01*
X56162320Y-352275922D01*
X56011163Y-352385776D01*
X55821784Y-352517993D01*
X55629154Y-352646364D01*
X55449088Y-352761110D01*
X55297402Y-352852449D01*
X55189912Y-352910602D01*
X55142434Y-352925786D01*
X55141463Y-352923606D01*
X55178252Y-352890157D01*
X55278097Y-352814757D01*
X55425216Y-352709014D01*
X55582270Y-352599377D01*
X55833611Y-352428386D01*
X56043966Y-352289662D01*
X56208279Y-352185724D01*
X56321497Y-352119089D01*
X56378564Y-352092274D01*
X56374427Y-352107796D01*
G37*
G36*
X52907561Y-363870727D02*
G01*
X52960164Y-363951764D01*
X53017279Y-364090980D01*
X53023452Y-364109474D01*
X53113506Y-364358946D01*
X53209843Y-364555926D01*
X53335565Y-364741737D01*
X53467750Y-364904162D01*
X53667995Y-365144871D01*
X53808318Y-365326183D01*
X53886279Y-365444815D01*
X53902439Y-365488807D01*
X53883448Y-365528112D01*
X53824350Y-365495704D01*
X53721959Y-365388695D01*
X53573091Y-365204195D01*
X53537564Y-365157879D01*
X53268177Y-364789205D01*
X53067797Y-364479939D01*
X52934233Y-364226126D01*
X52865291Y-364023814D01*
X52854034Y-363924777D01*
X52869005Y-363858266D01*
X52907561Y-363870727D01*
G37*
G36*
X55032337Y-362843259D02*
G01*
X55022096Y-363016040D01*
X54997737Y-363202670D01*
X54975473Y-363377799D01*
X54967793Y-363532534D01*
X54977529Y-363687812D01*
X55007516Y-363864570D01*
X55060588Y-364083745D01*
X55139579Y-364366274D01*
X55168861Y-364466885D01*
X55175843Y-364551258D01*
X55150445Y-364574108D01*
X55108716Y-364533030D01*
X55050749Y-364426340D01*
X54999990Y-364305054D01*
X54913760Y-363984679D01*
X54870411Y-363622486D01*
X54873688Y-363263562D01*
X54897963Y-363077137D01*
X54929606Y-362923526D01*
X54958266Y-362811713D01*
X54974488Y-362771352D01*
X55016471Y-362761770D01*
X55032337Y-362843259D01*
G37*
G36*
X53921487Y-362940519D02*
G01*
X54013003Y-363024047D01*
X54105298Y-363127589D01*
X54171654Y-363221961D01*
X54188368Y-363267619D01*
X54213169Y-363329645D01*
X54279421Y-363448987D01*
X54374897Y-363604207D01*
X54420135Y-363673978D01*
X54580614Y-363927406D01*
X54711258Y-364152888D01*
X54806087Y-364338526D01*
X54859123Y-364472417D01*
X54864385Y-364542663D01*
X54859277Y-364547967D01*
X54817177Y-364522799D01*
X54746145Y-364431754D01*
X54660715Y-364293777D01*
X54651021Y-364276472D01*
X54549661Y-364090979D01*
X54451085Y-363906137D01*
X54385681Y-363779707D01*
X54307212Y-363643843D01*
X54192319Y-363468423D01*
X54064030Y-363288386D01*
X54046382Y-363264894D01*
X53921487Y-363098415D01*
X53847450Y-362993340D01*
X53816879Y-362935634D01*
X53822382Y-362911263D01*
X53856568Y-362906191D01*
X53857470Y-362906191D01*
X53921487Y-362940519D01*
G37*
G36*
X56145686Y-363897925D02*
G01*
X56213058Y-364277609D01*
X56312042Y-364647269D01*
X56435325Y-364988175D01*
X56575593Y-365281599D01*
X56725536Y-365508814D01*
X56809925Y-365599179D01*
X56880920Y-365680187D01*
X56904690Y-365734317D01*
X56882231Y-365740281D01*
X56837104Y-365691265D01*
X56797776Y-365643478D01*
X56762714Y-365629746D01*
X56722110Y-365660981D01*
X56666150Y-365748098D01*
X56585026Y-365902009D01*
X56505758Y-366059845D01*
X56384513Y-366287985D01*
X56293530Y-366425977D01*
X56232560Y-366473970D01*
X56201352Y-366432109D01*
X56199657Y-366300541D01*
X56205675Y-366236165D01*
X56220079Y-366080691D01*
X56236701Y-365862510D01*
X56253191Y-365614116D01*
X56263822Y-365431894D01*
X56275025Y-365171016D01*
X56274027Y-364973998D01*
X56258444Y-364809899D01*
X56225891Y-364647777D01*
X56194114Y-364527411D01*
X56140030Y-364285553D01*
X56106962Y-364039507D01*
X56100602Y-363884071D01*
X56106645Y-363597185D01*
X56145686Y-363897925D01*
G37*
G36*
X52709789Y-365948951D02*
G01*
X52807437Y-365988367D01*
X52958584Y-366057841D01*
X53134985Y-366144218D01*
X53397571Y-366270928D01*
X53682980Y-366400175D01*
X53970918Y-366523584D01*
X54241089Y-366632781D01*
X54473198Y-366719391D01*
X54646950Y-366775042D01*
X54688743Y-366785340D01*
X54849082Y-366820569D01*
X54974672Y-366848966D01*
X55177533Y-366874981D01*
X55418958Y-366876588D01*
X55653133Y-366855401D01*
X55816361Y-366819337D01*
X55970899Y-366745320D01*
X56107823Y-366644513D01*
X56114203Y-366638278D01*
X56193015Y-366569977D01*
X56235263Y-366553838D01*
X56237523Y-366560195D01*
X56202635Y-366624313D01*
X56115569Y-366717635D01*
X56002724Y-366815420D01*
X55890497Y-366892930D01*
X55871332Y-366903370D01*
X55731730Y-366941440D01*
X55525873Y-366955932D01*
X55279512Y-366948142D01*
X55018397Y-366919367D01*
X54768280Y-366870902D01*
X54664915Y-366842630D01*
X54448122Y-366772809D01*
X54226528Y-366695631D01*
X54052232Y-366629428D01*
X53885920Y-366557833D01*
X53683156Y-366464870D01*
X53461448Y-366359264D01*
X53238306Y-366249736D01*
X53031237Y-366145011D01*
X52857751Y-366053811D01*
X52735357Y-365984859D01*
X52681564Y-365946879D01*
X52681249Y-365946399D01*
X52709789Y-365948951D01*
G37*
G36*
X52674543Y-361419262D02*
G01*
X52859359Y-361520390D01*
X53036914Y-361665204D01*
X53179734Y-361834288D01*
X53202547Y-361870729D01*
X53303754Y-362012011D01*
X53450084Y-362178200D01*
X53620015Y-362348676D01*
X53792019Y-362502815D01*
X53944574Y-362619997D01*
X54041708Y-362674691D01*
X54154137Y-362699960D01*
X54222888Y-362694235D01*
X54264853Y-362695682D01*
X54256357Y-362721223D01*
X54260988Y-362752657D01*
X54331332Y-362739399D01*
X54406285Y-362727657D01*
X54407862Y-362755058D01*
X54418322Y-362782287D01*
X54511583Y-362766169D01*
X54519479Y-362763935D01*
X54655277Y-362718745D01*
X54732687Y-362665330D01*
X54786413Y-362575016D01*
X54807456Y-362525975D01*
X54862272Y-362427773D01*
X54915393Y-362380496D01*
X54947861Y-362397758D01*
X54950844Y-362422993D01*
X54924411Y-362488781D01*
X54859183Y-362597671D01*
X54776269Y-362718631D01*
X54696778Y-362820632D01*
X54646956Y-362869720D01*
X54526130Y-362901230D01*
X54350883Y-362886685D01*
X54182891Y-362840445D01*
X53993746Y-362753637D01*
X53806066Y-362624565D01*
X53607941Y-362442437D01*
X53387459Y-362196459D01*
X53165318Y-361918397D01*
X52985820Y-361711841D01*
X52809161Y-361556587D01*
X52647040Y-361459155D01*
X52511155Y-361426065D01*
X52413205Y-361463836D01*
X52393883Y-361488461D01*
X52362752Y-361571696D01*
X52331812Y-361703383D01*
X52325553Y-361738648D01*
X52305646Y-361851436D01*
X52295265Y-361874895D01*
X52289683Y-361813934D01*
X52288141Y-361777492D01*
X52304696Y-361570069D01*
X52371772Y-361436844D01*
X52486831Y-361382348D01*
X52509941Y-361381237D01*
X52674543Y-361419262D01*
G37*
G36*
X59619193Y-367373753D02*
G01*
X59591731Y-367527275D01*
X59527586Y-367768314D01*
X59478049Y-367933770D01*
X59417238Y-368141669D01*
X59369288Y-368325293D01*
X59340518Y-368459322D01*
X59335084Y-368506492D01*
X59335084Y-368614770D01*
X59625812Y-368524286D01*
X59802572Y-368461562D01*
X59960007Y-368392609D01*
X60042791Y-368345953D01*
X60209483Y-368249384D01*
X60375441Y-368185308D01*
X60520617Y-368157387D01*
X60624967Y-368169282D01*
X60668443Y-368224655D01*
X60668689Y-368231613D01*
X60660089Y-368285562D01*
X60626669Y-368249751D01*
X60624912Y-368246989D01*
X60588352Y-368217872D01*
X60522455Y-368222977D01*
X60408052Y-368266916D01*
X60270368Y-368332319D01*
X60073493Y-368422499D01*
X59870899Y-368504673D01*
X59725014Y-368555116D01*
X59559847Y-368616359D01*
X59413459Y-368690640D01*
X59367361Y-368721942D01*
X59303171Y-368782153D01*
X59263804Y-368855367D01*
X59241409Y-368967399D01*
X59228135Y-369144065D01*
X59226015Y-369186676D01*
X59218970Y-369308319D01*
X59213996Y-369334860D01*
X59211088Y-369266244D01*
X59210241Y-369102416D01*
X59210433Y-369021853D01*
X59210149Y-368788781D01*
X59204840Y-368631260D01*
X59190899Y-368529544D01*
X59164719Y-368463884D01*
X59122691Y-368414533D01*
X59095037Y-368390167D01*
X58977673Y-368290661D01*
X59111826Y-368338576D01*
X59218300Y-368375396D01*
X59262794Y-368379578D01*
X59273590Y-368349103D01*
X59274799Y-368326922D01*
X59291007Y-368225289D01*
X59327644Y-368068522D01*
X59377512Y-367881464D01*
X59433412Y-367688957D01*
X59488145Y-367515842D01*
X59534512Y-367386963D01*
X59564224Y-367328158D01*
X59610010Y-367307473D01*
X59619193Y-367373753D01*
G37*
G36*
X52754875Y-363525703D02*
G01*
X52771736Y-363627841D01*
X52786689Y-363717694D01*
X52773349Y-363878409D01*
X52699464Y-364052586D01*
X52585640Y-364205782D01*
X52452481Y-364303552D01*
X52431446Y-364311527D01*
X52330477Y-364348447D01*
X52311122Y-364374953D01*
X52363347Y-364406789D01*
X52369039Y-364409445D01*
X52461834Y-364470996D01*
X52594936Y-364582713D01*
X52753623Y-364729514D01*
X52923171Y-364896317D01*
X53088859Y-365068040D01*
X53235962Y-365229600D01*
X53349759Y-365365915D01*
X53415526Y-365461903D01*
X53425891Y-365492098D01*
X53407847Y-365524759D01*
X53350651Y-365490440D01*
X53249705Y-365385073D01*
X53100414Y-365204589D01*
X53098787Y-365202548D01*
X52934578Y-365019263D01*
X52733143Y-364826143D01*
X52537656Y-364664534D01*
X52534832Y-364662445D01*
X52387039Y-364548502D01*
X52274564Y-364452568D01*
X52215444Y-364390388D01*
X52210694Y-364379419D01*
X52170756Y-364339059D01*
X52065574Y-364273710D01*
X51917099Y-364196868D01*
X51902435Y-364189883D01*
X51729819Y-364113268D01*
X51614484Y-364078076D01*
X51530845Y-364078644D01*
X51479552Y-364096325D01*
X51411416Y-364137685D01*
X51381931Y-364199368D01*
X51381314Y-364311790D01*
X51387430Y-364382713D01*
X51403821Y-364494014D01*
X51437013Y-364593125D01*
X51498838Y-364700428D01*
X51601123Y-364836310D01*
X51755699Y-365021155D01*
X51762657Y-365029294D01*
X51994088Y-365301912D01*
X52165187Y-365507881D01*
X52275545Y-365646495D01*
X52324749Y-365717048D01*
X52312391Y-365718834D01*
X52238058Y-365651145D01*
X52101342Y-365513275D01*
X51955472Y-365361132D01*
X51730865Y-365120257D01*
X51566370Y-364930301D01*
X51453006Y-364776533D01*
X51381791Y-364644224D01*
X51343743Y-364518641D01*
X51329881Y-364385055D01*
X51329081Y-364333783D01*
X51332913Y-364186896D01*
X51355541Y-364091286D01*
X51413656Y-364036460D01*
X51523953Y-364011930D01*
X51703123Y-364007206D01*
X51845267Y-364009408D01*
X52016760Y-364013895D01*
X52099176Y-364019793D01*
X52098750Y-364028575D01*
X52021714Y-364041714D01*
X51996507Y-364045149D01*
X51782320Y-364073733D01*
X51985001Y-364164550D01*
X52129079Y-364219270D01*
X52243796Y-364228708D01*
X52375892Y-364198977D01*
X52522313Y-364144291D01*
X52587192Y-364095873D01*
X52566998Y-364059995D01*
X52463694Y-364043143D01*
X52370411Y-364037933D01*
X52360802Y-364030559D01*
X52439299Y-364016211D01*
X52496623Y-364007402D01*
X52687242Y-363978423D01*
X52715215Y-363716322D01*
X52731939Y-363587679D01*
X52746784Y-363521332D01*
X52754875Y-363525703D01*
G37*
G36*
X62033789Y-364561965D02*
G01*
X62019897Y-364576727D01*
X61773940Y-364836209D01*
X61681413Y-365486486D01*
X61643604Y-365766407D01*
X61621368Y-365978974D01*
X61613855Y-366150715D01*
X61620213Y-366308161D01*
X61639592Y-366477840D01*
X61647788Y-366534891D01*
X61682354Y-366748124D01*
X61720262Y-366950343D01*
X61754265Y-367103409D01*
X61759645Y-367123639D01*
X61805694Y-367306288D01*
X61812454Y-367415142D01*
X61770467Y-367466924D01*
X61670279Y-367478359D01*
X61562945Y-367471526D01*
X61372508Y-367434914D01*
X61127690Y-367357059D01*
X60863514Y-367250104D01*
X60634776Y-367153507D01*
X60482035Y-367101988D01*
X60398447Y-367093496D01*
X60380232Y-367105082D01*
X60348562Y-367105920D01*
X60316799Y-367025484D01*
X60313401Y-367010847D01*
X60265342Y-366901734D01*
X60196641Y-366860419D01*
X60128780Y-366898268D01*
X60121372Y-366909219D01*
X60060473Y-366949001D01*
X59941704Y-366993195D01*
X59884010Y-367009248D01*
X59785503Y-367043118D01*
X59683311Y-367101291D01*
X59562605Y-367195369D01*
X59408555Y-367336952D01*
X59206333Y-367537641D01*
X59198733Y-367545338D01*
X59017379Y-367731018D01*
X58852557Y-367903271D01*
X58719819Y-368045598D01*
X58634717Y-368141500D01*
X58621896Y-368157329D01*
X58522443Y-368285578D01*
X58726231Y-368303882D01*
X58930019Y-368322185D01*
X58696053Y-368330510D01*
X58569315Y-368340950D01*
X58469604Y-368371564D01*
X58368558Y-368437281D01*
X58237817Y-368553026D01*
X58193553Y-368594975D01*
X57949625Y-368802852D01*
X57717649Y-368953485D01*
X57512657Y-369038137D01*
X57404239Y-369053658D01*
X57269060Y-369041841D01*
X57117737Y-369011829D01*
X56979511Y-368971780D01*
X56883624Y-368929851D01*
X56857036Y-368901006D01*
X56824498Y-368908889D01*
X56737598Y-368969316D01*
X56612406Y-369070618D01*
X56553908Y-369121110D01*
X56368296Y-369274546D01*
X56235432Y-369359311D01*
X56145735Y-369378839D01*
X56089627Y-369336566D01*
X56071421Y-369294104D01*
X56074727Y-369184931D01*
X56118227Y-369084416D01*
X56164763Y-368995809D01*
X56151588Y-368958348D01*
X56332833Y-368958348D01*
X56350269Y-368997573D01*
X56364603Y-368990118D01*
X56370306Y-368933563D01*
X56364603Y-368926578D01*
X56336272Y-368933120D01*
X56332833Y-368958348D01*
X56151588Y-368958348D01*
X56149454Y-368952281D01*
X56132663Y-368944049D01*
X56136331Y-368902895D01*
X56208548Y-368809101D01*
X56294667Y-368720074D01*
X56618762Y-368720074D01*
X56636198Y-368759299D01*
X56650531Y-368751844D01*
X56656235Y-368695289D01*
X56650531Y-368688304D01*
X56622201Y-368694846D01*
X56618762Y-368720074D01*
X56294667Y-368720074D01*
X56343476Y-368669617D01*
X56440056Y-368578023D01*
X56612424Y-368409232D01*
X56736678Y-368268703D01*
X56802046Y-368169177D01*
X56809381Y-368141228D01*
X56837274Y-368008428D01*
X56904321Y-367875816D01*
X56971393Y-367803449D01*
X57056067Y-367776612D01*
X57151667Y-367767708D01*
X57267813Y-367734939D01*
X57295464Y-367695496D01*
X57333583Y-367695496D01*
X57357411Y-367719324D01*
X57381238Y-367695496D01*
X57357411Y-367671669D01*
X57333583Y-367695496D01*
X57295464Y-367695496D01*
X57307761Y-367677954D01*
X57364552Y-367581280D01*
X57442023Y-367499248D01*
X57548030Y-367409568D01*
X57456984Y-367517083D01*
X57399592Y-367610218D01*
X57405419Y-367659540D01*
X57463984Y-367647609D01*
X57513020Y-367610306D01*
X57565070Y-367569524D01*
X57585317Y-367585410D01*
X57581674Y-367673670D01*
X57575192Y-367733707D01*
X57558391Y-367838415D01*
X57542499Y-367855145D01*
X57535113Y-367826547D01*
X57505656Y-367738175D01*
X57447345Y-367729888D01*
X57361681Y-367781790D01*
X57316229Y-367846385D01*
X57276839Y-367953709D01*
X57248288Y-368076939D01*
X57235349Y-368189250D01*
X57242798Y-368263818D01*
X57273933Y-368274768D01*
X57330710Y-368282954D01*
X57349728Y-368312171D01*
X57414620Y-368361837D01*
X57524374Y-368376046D01*
X57610964Y-368364967D01*
X57626249Y-368343461D01*
X57621968Y-368340354D01*
X57644511Y-368306036D01*
X57736214Y-368227725D01*
X57886379Y-368113451D01*
X58084308Y-367971248D01*
X58319304Y-367809146D01*
X58417325Y-367743180D01*
X58709683Y-367545286D01*
X58954334Y-367372432D01*
X59170673Y-367208761D01*
X59378096Y-367038419D01*
X59595997Y-366845553D01*
X59843773Y-366614308D01*
X60104226Y-366364253D01*
X60400085Y-366078925D01*
X60690526Y-365800473D01*
X60969324Y-365534704D01*
X61230256Y-365287425D01*
X61467099Y-365064442D01*
X61673630Y-364871563D01*
X61843626Y-364714594D01*
X61970862Y-364599344D01*
X62049117Y-364531617D01*
X62072167Y-364517222D01*
X62033789Y-364561965D01*
G37*
G36*
X61321822Y-353488863D02*
G01*
X61451363Y-353574540D01*
X61516243Y-353727483D01*
X61527204Y-353862939D01*
X61509937Y-353999246D01*
X61463565Y-354197907D01*
X61396232Y-354433549D01*
X61316081Y-354680798D01*
X61231258Y-354914277D01*
X61149906Y-355108615D01*
X61091171Y-355221496D01*
X61034926Y-355329166D01*
X61016536Y-355400436D01*
X61020213Y-355409831D01*
X61077736Y-355414753D01*
X61200270Y-355399960D01*
X61347319Y-355371583D01*
X61529854Y-355343384D01*
X61790143Y-355323137D01*
X62133563Y-355310571D01*
X62565490Y-355305418D01*
X62670919Y-355305252D01*
X63099988Y-355308430D01*
X63445004Y-355318975D01*
X63717044Y-355338412D01*
X63927184Y-355368261D01*
X64086502Y-355410045D01*
X64206074Y-355465286D01*
X64288599Y-355527521D01*
X64357133Y-355603427D01*
X64357734Y-355667663D01*
X64318187Y-355735984D01*
X64276052Y-355832381D01*
X64291712Y-355877437D01*
X64325343Y-355941445D01*
X64338837Y-356050042D01*
X64367627Y-356179887D01*
X64442424Y-356338559D01*
X64484282Y-356404918D01*
X64573910Y-356552487D01*
X64613106Y-356681049D01*
X64616429Y-356841309D01*
X64615332Y-356861317D01*
X64591252Y-357041250D01*
X64534528Y-357144133D01*
X64429322Y-357180392D01*
X64259791Y-357160455D01*
X64186958Y-357143302D01*
X63989710Y-357082485D01*
X63787545Y-357003590D01*
X63716096Y-356970331D01*
X63487291Y-356881807D01*
X63190057Y-356805102D01*
X62847831Y-356742671D01*
X62484048Y-356696969D01*
X62122146Y-356670451D01*
X61785562Y-356665572D01*
X61497731Y-356684786D01*
X61318287Y-356719165D01*
X61129406Y-356796168D01*
X60988049Y-356899290D01*
X60914038Y-357012382D01*
X60907692Y-357053659D01*
X60945552Y-357134039D01*
X61038980Y-357220387D01*
X61062570Y-357235794D01*
X61260238Y-357308952D01*
X61510924Y-357332401D01*
X61788172Y-357309040D01*
X62065527Y-357241767D01*
X62316532Y-357133484D01*
X62386993Y-357090628D01*
X62599437Y-356949632D01*
X62627869Y-357152020D01*
X62653376Y-357297065D01*
X62682002Y-357409816D01*
X62689606Y-357430169D01*
X62684810Y-357523033D01*
X62649261Y-357567055D01*
X62590951Y-357660685D01*
X62575610Y-357743913D01*
X62530649Y-357854168D01*
X62396472Y-357933475D01*
X62174135Y-357981460D01*
X61864696Y-357997746D01*
X61861261Y-357997748D01*
X61669890Y-357994491D01*
X61525948Y-357978633D01*
X61394680Y-357941042D01*
X61241328Y-357872587D01*
X61090373Y-357795215D01*
X60847086Y-357667839D01*
X60674292Y-357573032D01*
X60558842Y-357497669D01*
X60487590Y-357428619D01*
X60447387Y-357352754D01*
X60425088Y-357256947D01*
X60407544Y-357128070D01*
X60405320Y-357111158D01*
X60392057Y-356958106D01*
X60410117Y-356855235D01*
X60469702Y-356759787D01*
X60497172Y-356726242D01*
X60617138Y-356630880D01*
X60813141Y-356529483D01*
X61066770Y-356428796D01*
X61359612Y-356335567D01*
X61673257Y-356256542D01*
X61898600Y-356212734D01*
X62265854Y-356150830D01*
X61407986Y-356145020D01*
X60550118Y-356139211D01*
X60440619Y-356345618D01*
X60338454Y-356512078D01*
X60218133Y-356673771D01*
X60184692Y-356712343D01*
X60096795Y-356814669D01*
X60066003Y-356884768D01*
X60083606Y-356959347D01*
X60112102Y-357018225D01*
X60158743Y-357172739D01*
X60185873Y-357407555D01*
X60191819Y-357568855D01*
X60227872Y-358057771D01*
X60318055Y-358518439D01*
X60456923Y-358924589D01*
X60486027Y-358988526D01*
X60582330Y-359156961D01*
X60730162Y-359372578D01*
X60914427Y-359614402D01*
X61085173Y-359821100D01*
X61342471Y-360123875D01*
X61543854Y-360372129D01*
X61696634Y-360582657D01*
X61808121Y-360772256D01*
X61885629Y-360957719D01*
X61936470Y-361155845D01*
X61967955Y-361383427D01*
X61987397Y-361657263D01*
X61999179Y-361920569D01*
X62027580Y-362626692D01*
X62329697Y-362218411D01*
X62455188Y-362051498D01*
X62559655Y-361917557D01*
X62630498Y-361832438D01*
X62654328Y-361810130D01*
X62643228Y-361845115D01*
X62579822Y-361942620D01*
X62472247Y-362091475D01*
X62328639Y-362280507D01*
X62157135Y-362498546D01*
X62111127Y-362555939D01*
X61945559Y-362761790D01*
X61756528Y-362996931D01*
X61580236Y-363216326D01*
X61551032Y-363252685D01*
X61414636Y-363426389D01*
X61242748Y-363651030D01*
X61055431Y-363900101D01*
X60872746Y-364147095D01*
X60836210Y-364197094D01*
X60697521Y-364380945D01*
X60542789Y-364572453D01*
X60363801Y-364780611D01*
X60152345Y-365014411D01*
X59900209Y-365282845D01*
X59599182Y-365594905D01*
X59241052Y-365959584D01*
X59057152Y-366145189D01*
X58764691Y-366439058D01*
X58494992Y-366708793D01*
X58254981Y-366947560D01*
X58051584Y-367148528D01*
X57891727Y-367304864D01*
X57782335Y-367409737D01*
X57730335Y-367456314D01*
X57727098Y-367457222D01*
X57760046Y-367395256D01*
X57828249Y-367276113D01*
X57917702Y-367124210D01*
X57928752Y-367105689D01*
X58020546Y-366945279D01*
X58064553Y-366845845D01*
X58066525Y-366789511D01*
X58039319Y-366762091D01*
X57953137Y-366702780D01*
X57853497Y-366621925D01*
X57806673Y-366576421D01*
X57832989Y-366584905D01*
X57929268Y-366644532D01*
X58046565Y-366716067D01*
X58113357Y-366737663D01*
X58157391Y-366713784D01*
X58180455Y-366684949D01*
X58223527Y-366597602D01*
X58286705Y-366430773D01*
X58366236Y-366197255D01*
X58458366Y-365909839D01*
X58559341Y-365581319D01*
X58665410Y-365224488D01*
X58772817Y-364852137D01*
X58877810Y-364477060D01*
X58976635Y-364112049D01*
X59065538Y-363769897D01*
X59140766Y-363463395D01*
X59191300Y-363239774D01*
X59236508Y-363039181D01*
X59280701Y-362861824D01*
X59316171Y-362738123D01*
X59324134Y-362715571D01*
X59350550Y-362583837D01*
X59349714Y-362432134D01*
X59349406Y-362429643D01*
X59343060Y-362327194D01*
X59361928Y-362313666D01*
X59373785Y-362328121D01*
X59410626Y-362348554D01*
X59449481Y-362291690D01*
X59479899Y-362208984D01*
X59526257Y-362078198D01*
X59595940Y-361893330D01*
X59676030Y-361688448D01*
X59699628Y-361629483D01*
X59858698Y-361234389D01*
X59717522Y-360954721D01*
X59601187Y-360760299D01*
X59454238Y-360561718D01*
X59360405Y-360456010D01*
X59241365Y-360328640D01*
X59176289Y-360230341D01*
X59148808Y-360125868D01*
X59142600Y-359987058D01*
X59140735Y-359737147D01*
X59068552Y-359903599D01*
X58938208Y-360124441D01*
X58757309Y-360279886D01*
X58605733Y-360355494D01*
X58463860Y-360415866D01*
X58348815Y-360467995D01*
X58323067Y-360480689D01*
X58219342Y-360517463D01*
X58174024Y-360523451D01*
X58078657Y-360563992D01*
X58008193Y-360688374D01*
X57960559Y-360900741D01*
X57952189Y-360966176D01*
X57934114Y-361117235D01*
X57923252Y-361178652D01*
X57917121Y-361155597D01*
X57913240Y-361053244D01*
X57913098Y-361047654D01*
X57919574Y-360865705D01*
X57942408Y-360687100D01*
X57949214Y-360654502D01*
X57966932Y-360535864D01*
X57954771Y-360477958D01*
X57948077Y-360475797D01*
X57907316Y-360452889D01*
X57941708Y-360391968D01*
X58033920Y-360312777D01*
X58106170Y-360268861D01*
X58123723Y-360277731D01*
X58119127Y-360286408D01*
X58125799Y-360304348D01*
X58191088Y-360270629D01*
X58224149Y-360248115D01*
X58296121Y-360186177D01*
X58409772Y-360076548D01*
X58550329Y-359934797D01*
X58703017Y-359776497D01*
X58853062Y-359617215D01*
X58985689Y-359472524D01*
X59086123Y-359357992D01*
X59139592Y-359289191D01*
X59144524Y-359278162D01*
X59100148Y-359272441D01*
X58979843Y-359270430D01*
X58802922Y-359272188D01*
X58625722Y-359276586D01*
X58106862Y-359292573D01*
X57851273Y-359124752D01*
X57611571Y-358988729D01*
X57509294Y-358957207D01*
X57729252Y-358957207D01*
X57796474Y-359022253D01*
X57917697Y-359104967D01*
X58159249Y-359214467D01*
X58395631Y-359230786D01*
X58620871Y-359153782D01*
X58670306Y-359122968D01*
X58804540Y-359004502D01*
X58916477Y-358861500D01*
X58929192Y-358839430D01*
X58984974Y-358728105D01*
X58994629Y-358661639D01*
X58958400Y-358601622D01*
X58930898Y-358570577D01*
X58795026Y-358488045D01*
X58612392Y-358481922D01*
X58391645Y-358551071D01*
X58178272Y-358669638D01*
X58024433Y-358765900D01*
X57890498Y-358841882D01*
X57808947Y-358879737D01*
X57735378Y-358913780D01*
X57729252Y-358957207D01*
X57509294Y-358957207D01*
X57407520Y-358925840D01*
X57217969Y-358932684D01*
X57043830Y-358994909D01*
X56937584Y-359041050D01*
X56888280Y-359051553D01*
X56894617Y-359037164D01*
X56949185Y-358957981D01*
X56920392Y-358921734D01*
X56838407Y-358929969D01*
X56740034Y-358933623D01*
X56692968Y-358907596D01*
X56697257Y-358876810D01*
X56747337Y-358887500D01*
X56779639Y-358883360D01*
X56737524Y-358820716D01*
X56690244Y-358769141D01*
X56562998Y-358654351D01*
X56479930Y-358620021D01*
X56443495Y-358666121D01*
X56451741Y-358772138D01*
X56488798Y-358941686D01*
X56524046Y-359038057D01*
X56572228Y-359081937D01*
X56648089Y-359094009D01*
X56681541Y-359094538D01*
X56776060Y-359101275D01*
X56785193Y-359123842D01*
X56761726Y-359142108D01*
X56664092Y-359167750D01*
X56558411Y-359161247D01*
X56467580Y-359148011D01*
X56451387Y-359179401D01*
X56482665Y-359256641D01*
X56535847Y-359345883D01*
X56578756Y-359379736D01*
X56608388Y-359423086D01*
X56616980Y-359540811D01*
X56604956Y-359714424D01*
X56572740Y-359925439D01*
X56565390Y-359963182D01*
X56512018Y-360228940D01*
X55910136Y-359621403D01*
X55596332Y-359312562D01*
X55318433Y-359059532D01*
X55052602Y-358843862D01*
X54775001Y-358647104D01*
X54461790Y-358450808D01*
X54205193Y-358301868D01*
X53897019Y-358129436D01*
X53623191Y-357982666D01*
X53362003Y-357851313D01*
X53091754Y-357725132D01*
X52790739Y-357593877D01*
X52437255Y-357447304D01*
X52144406Y-357329073D01*
X51808960Y-357196216D01*
X51551750Y-357099532D01*
X51363383Y-357037709D01*
X51234470Y-357009431D01*
X51155616Y-357013384D01*
X51117432Y-357048256D01*
X51110525Y-357112731D01*
X51121449Y-357185951D01*
X51121554Y-357355505D01*
X51048989Y-357470010D01*
X50910754Y-357519839D01*
X50877668Y-357521200D01*
X50789890Y-357530235D01*
X50709965Y-357567040D01*
X50618103Y-357646163D01*
X50494512Y-357782155D01*
X50446848Y-357837915D01*
X50274971Y-358053548D01*
X50074617Y-358325430D01*
X49864167Y-358626816D01*
X49662003Y-358930961D01*
X49486507Y-359211119D01*
X49395396Y-359367774D01*
X49305098Y-359521044D01*
X49243081Y-359597869D01*
X49197236Y-359608133D01*
X49156237Y-359562993D01*
X49150621Y-359530383D01*
X49177252Y-359541978D01*
X49226694Y-359556414D01*
X49215267Y-359504015D01*
X49144318Y-359390148D01*
X49136310Y-359378823D01*
X48991451Y-359252407D01*
X48801077Y-359201251D01*
X48632525Y-359218222D01*
X48545098Y-359244713D01*
X48542819Y-359266938D01*
X48590668Y-359288798D01*
X48652310Y-359316707D01*
X48624904Y-359326670D01*
X48577017Y-359328732D01*
X48506376Y-359319231D01*
X48474446Y-359280771D01*
X48484789Y-359206737D01*
X48540969Y-359090516D01*
X48646548Y-358925493D01*
X48707812Y-358840310D01*
X49020629Y-358840310D01*
X49024418Y-358879361D01*
X49091542Y-358933164D01*
X49201627Y-358949328D01*
X49299838Y-358944763D01*
X49313956Y-358924659D01*
X49258903Y-358877846D01*
X49154835Y-358821766D01*
X49066522Y-358809312D01*
X49020629Y-358840310D01*
X48707812Y-358840310D01*
X48805089Y-358705055D01*
X48871935Y-358617260D01*
X49303752Y-358617260D01*
X49370774Y-358656887D01*
X49428514Y-358664915D01*
X49492618Y-358646114D01*
X49494371Y-358617260D01*
X49427350Y-358577633D01*
X49369610Y-358569605D01*
X49305506Y-358588406D01*
X49303752Y-358617260D01*
X48871935Y-358617260D01*
X49020156Y-358422588D01*
X49143153Y-358264913D01*
X49444460Y-358264913D01*
X49470544Y-358307504D01*
X49568904Y-358373012D01*
X49701872Y-358359661D01*
X49728474Y-358350165D01*
X49784290Y-358308668D01*
X49759334Y-358268888D01*
X49667697Y-358241735D01*
X49581033Y-358236022D01*
X49473312Y-358241504D01*
X49444460Y-358264913D01*
X49143153Y-358264913D01*
X49165690Y-358236022D01*
X49341168Y-358019571D01*
X49359840Y-357997748D01*
X49756473Y-357997748D01*
X49796506Y-358036092D01*
X49854595Y-358045403D01*
X49920488Y-358027057D01*
X49923264Y-357997748D01*
X49854314Y-357953899D01*
X49825142Y-357950093D01*
X49763551Y-357976738D01*
X49756473Y-357997748D01*
X49359840Y-357997748D01*
X49525747Y-357803845D01*
X49578683Y-357745287D01*
X49972647Y-357745287D01*
X49978445Y-357785728D01*
X50024601Y-357844186D01*
X50074144Y-357849418D01*
X50090056Y-357812227D01*
X50052240Y-357759792D01*
X50021001Y-357743172D01*
X49972647Y-357745287D01*
X49578683Y-357745287D01*
X49697062Y-357614335D01*
X49765149Y-357545027D01*
X50137711Y-357545027D01*
X50161538Y-357568855D01*
X50185366Y-357545027D01*
X50161538Y-357521200D01*
X50137711Y-357545027D01*
X49765149Y-357545027D01*
X49828656Y-357480381D01*
X49971767Y-357336793D01*
X50044668Y-357240616D01*
X50053859Y-357182694D01*
X50046854Y-357173008D01*
X49997812Y-357063040D01*
X50000843Y-356907806D01*
X50047741Y-356735866D01*
X50130300Y-356575780D01*
X50240314Y-356456107D01*
X50255997Y-356445143D01*
X50322729Y-356410910D01*
X50411241Y-356387979D01*
X50539218Y-356374649D01*
X50724341Y-356369220D01*
X50984293Y-356369992D01*
X51031749Y-356370548D01*
X51681255Y-356378674D01*
X51874430Y-356199374D01*
X52067604Y-356020074D01*
X51909795Y-356192224D01*
X51751985Y-356364374D01*
X51903901Y-356394757D01*
X52054912Y-356414871D01*
X52228973Y-356424889D01*
X52255908Y-356425140D01*
X52439359Y-356436767D01*
X52691671Y-356468995D01*
X52989620Y-356517842D01*
X53309983Y-356579329D01*
X53629537Y-356649474D01*
X53783302Y-356686941D01*
X54228908Y-356820324D01*
X54735838Y-357009407D01*
X55289036Y-357248354D01*
X55555745Y-357370572D01*
X55443914Y-357062480D01*
X55371756Y-356777290D01*
X55334372Y-356435380D01*
X55332440Y-356069033D01*
X55366638Y-355710531D01*
X55410816Y-355487950D01*
X55494842Y-355238998D01*
X55607599Y-355025944D01*
X55736853Y-354866243D01*
X55870369Y-354777347D01*
X55916848Y-354766070D01*
X56044840Y-354751091D01*
X55974390Y-354950767D01*
X55931866Y-355074336D01*
X55906792Y-355153081D01*
X55903940Y-355165360D01*
X55946103Y-355180736D01*
X56052308Y-355201957D01*
X56107965Y-355210871D01*
X56266345Y-355251029D01*
X56403131Y-355312218D01*
X56427114Y-355328304D01*
X56542237Y-355415142D01*
X56416601Y-355604991D01*
X56262166Y-355888877D01*
X56167876Y-356173857D01*
X56137093Y-356441258D01*
X56173180Y-356672410D01*
X56209505Y-356754951D01*
X56243503Y-356809724D01*
X56275370Y-356823689D01*
X56319035Y-356786328D01*
X56388428Y-356687122D01*
X56470968Y-356557520D01*
X56739165Y-356194973D01*
X57033507Y-355920717D01*
X57362565Y-355729369D01*
X57446053Y-355703847D01*
X58953846Y-355703847D01*
X58992943Y-355751868D01*
X59083786Y-355805565D01*
X59186701Y-355843663D01*
X59226502Y-355850057D01*
X59298542Y-355833546D01*
X59426634Y-355787401D01*
X59554102Y-355734145D01*
X59706921Y-355670886D01*
X59829991Y-355627683D01*
X59887129Y-355615009D01*
X59946528Y-355570878D01*
X60003499Y-355452574D01*
X60054720Y-355281230D01*
X60096865Y-355077978D01*
X60126611Y-354863950D01*
X60140634Y-354660278D01*
X60135608Y-354488095D01*
X60108210Y-354368534D01*
X60088030Y-354337860D01*
X60028554Y-354294494D01*
X59963351Y-354293367D01*
X59876539Y-354342220D01*
X59752235Y-354448795D01*
X59640381Y-354556041D01*
X59436254Y-354783061D01*
X59265274Y-355040400D01*
X59156379Y-355247847D01*
X59069560Y-355430203D01*
X59001350Y-355580785D01*
X58960935Y-355678913D01*
X58953846Y-355703847D01*
X57446053Y-355703847D01*
X57734912Y-355615544D01*
X58029079Y-355578909D01*
X58429643Y-355553919D01*
X58429643Y-355375037D01*
X58453687Y-355162164D01*
X58518647Y-354904111D01*
X58613772Y-354628463D01*
X58728307Y-354362806D01*
X58851499Y-354134723D01*
X58972596Y-353971801D01*
X58979360Y-353964900D01*
X59076013Y-353899813D01*
X59194070Y-353859428D01*
X59303036Y-353848693D01*
X59372419Y-353872557D01*
X59382739Y-353899436D01*
X59416111Y-353944454D01*
X59507967Y-353929207D01*
X59645918Y-353857157D01*
X59723885Y-353804127D01*
X59941681Y-353687018D01*
X60092797Y-353660548D01*
X60229474Y-353645608D01*
X60412629Y-353607367D01*
X60574109Y-353562624D01*
X60777539Y-353510079D01*
X60986298Y-353473929D01*
X61120315Y-353463277D01*
X61321822Y-353488863D01*
G37*
%TD*%
%LPC*%
D12*
%TO.C,SW51*%
X247000000Y-323000000D03*
D13*
X242600000Y-327700000D03*
X249600000Y-328750000D03*
%TD*%
D14*
%TO.C,D55*%
X112750000Y-346000000D03*
D15*
X112750000Y-338000000D03*
%TD*%
D14*
%TO.C,D80*%
X226750000Y-384000000D03*
D15*
X226750000Y-376000000D03*
%TD*%
D16*
%TO.C,H21*%
X123500000Y-314000000D03*
%TD*%
D12*
%TO.C,SW79*%
X199500000Y-380000000D03*
D13*
X195100000Y-384700000D03*
X202100000Y-385750000D03*
%TD*%
D14*
%TO.C,D75*%
X115250000Y-384000000D03*
D15*
X115250000Y-376000000D03*
%TD*%
D12*
%TO.C,SW70*%
X190000000Y-361000000D03*
D13*
X185600000Y-365700000D03*
X192600000Y-366750000D03*
%TD*%
D12*
%TO.C,SW45*%
X133000000Y-323000000D03*
D13*
X128600000Y-327700000D03*
X135600000Y-328750000D03*
%TD*%
D12*
%TO.C,SW63*%
X256500000Y-342000000D03*
D13*
X252100000Y-346700000D03*
X259100000Y-347750000D03*
%TD*%
D12*
%TO.C,SW48*%
X190000000Y-323000000D03*
D13*
X185600000Y-327700000D03*
X192600000Y-328750000D03*
%TD*%
D14*
%TO.C,D47*%
X179250000Y-327000000D03*
D15*
X179250000Y-319000000D03*
%TD*%
D12*
%TO.C,SW60*%
X199500000Y-342000000D03*
D13*
X195100000Y-346700000D03*
X202100000Y-347750000D03*
%TD*%
D14*
%TO.C,D72*%
X236250000Y-365000000D03*
D15*
X236250000Y-357000000D03*
%TD*%
D12*
%TO.C,SW66*%
X114000000Y-361000000D03*
D13*
X109600000Y-365700000D03*
X116600000Y-366750000D03*
%TD*%
D12*
%TO.C,SW42*%
X76000000Y-323000000D03*
D13*
X71600000Y-327700000D03*
X78600000Y-328750000D03*
%TD*%
D14*
%TO.C,D41*%
X65250000Y-327000000D03*
D15*
X65250000Y-319000000D03*
%TD*%
D12*
%TO.C,SW76*%
X142500000Y-380000000D03*
D13*
X138100000Y-384700000D03*
X145100000Y-385750000D03*
%TD*%
D14*
%TO.C,D50*%
X236250000Y-327000000D03*
D15*
X236250000Y-319000000D03*
%TD*%
D12*
%TO.C,SW44*%
X114000000Y-323000000D03*
D13*
X109600000Y-327700000D03*
X116600000Y-328750000D03*
%TD*%
D14*
%TO.C,D45*%
X141250000Y-327000000D03*
D15*
X141250000Y-319000000D03*
%TD*%
D14*
%TO.C,D79*%
X207750000Y-384000000D03*
D15*
X207750000Y-376000000D03*
%TD*%
D14*
%TO.C,D71*%
X217250000Y-365000000D03*
D15*
X217250000Y-357000000D03*
%TD*%
D14*
%TO.C,D67*%
X141250000Y-365000000D03*
D15*
X141250000Y-357000000D03*
%TD*%
D14*
%TO.C,D69*%
X179250000Y-365000000D03*
D15*
X179250000Y-357000000D03*
%TD*%
D17*
%TO.C,H27*%
X199500000Y-320500000D03*
%TD*%
D14*
%TO.C,D66*%
X122250000Y-365000000D03*
D15*
X122250000Y-357000000D03*
%TD*%
D14*
%TO.C,D62*%
X245750000Y-346000000D03*
D15*
X245750000Y-338000000D03*
%TD*%
D14*
%TO.C,D77*%
X169750000Y-384000000D03*
D15*
X169750000Y-376000000D03*
%TD*%
D17*
%TO.C,H26*%
X190000000Y-381000000D03*
%TD*%
D12*
%TO.C,SW75*%
X123500000Y-380000000D03*
D13*
X119100000Y-384700000D03*
X126100000Y-385750000D03*
%TD*%
D14*
%TO.C,D43*%
X103250000Y-327000000D03*
D15*
X103250000Y-319000000D03*
%TD*%
D12*
%TO.C,SW78*%
X180500000Y-380000000D03*
D13*
X176100000Y-384700000D03*
X183100000Y-385750000D03*
%TD*%
D12*
%TO.C,SW72*%
X228000000Y-361000000D03*
D13*
X223600000Y-365700000D03*
X230600000Y-366750000D03*
%TD*%
D12*
%TO.C,SW68*%
X152000000Y-361000000D03*
D13*
X147600000Y-365700000D03*
X154600000Y-366750000D03*
%TD*%
D14*
%TO.C,D54*%
X93750000Y-346000000D03*
D15*
X93750000Y-338000000D03*
%TD*%
D12*
%TO.C,SW49*%
X209000000Y-323000000D03*
D13*
X204600000Y-327700000D03*
X211600000Y-328750000D03*
%TD*%
D12*
%TO.C,SW56*%
X123500000Y-342000000D03*
D13*
X119100000Y-346700000D03*
X126100000Y-347750000D03*
%TD*%
D14*
%TO.C,D61*%
X226750000Y-346000000D03*
D15*
X226750000Y-338000000D03*
%TD*%
D12*
%TO.C,SW54*%
X85500000Y-342000000D03*
D13*
X81100000Y-346700000D03*
X88100000Y-347750000D03*
%TD*%
D14*
%TO.C,D73*%
X255250000Y-365000000D03*
D15*
X255250000Y-357000000D03*
%TD*%
D14*
%TO.C,D44*%
X105750000Y-327000000D03*
D15*
X105750000Y-319000000D03*
%TD*%
D16*
%TO.C,H22*%
X273500000Y-314000000D03*
%TD*%
D12*
%TO.C,SW52*%
X266000000Y-323000000D03*
D13*
X261600000Y-327700000D03*
X268600000Y-328750000D03*
%TD*%
D14*
%TO.C,D78*%
X172250000Y-384000000D03*
D15*
X172250000Y-376000000D03*
%TD*%
D16*
%TO.C,H33*%
X168500000Y-313500000D03*
X154500000Y-313500000D03*
%TD*%
D17*
%TO.C,H28*%
X54500000Y-383500000D03*
%TD*%
D14*
%TO.C,D42*%
X84250000Y-327000000D03*
D15*
X84250000Y-319000000D03*
%TD*%
D12*
%TO.C,SW59*%
X180500000Y-342000000D03*
D13*
X176100000Y-346700000D03*
X183100000Y-347750000D03*
%TD*%
D12*
%TO.C,SW43*%
X95000000Y-323000000D03*
D13*
X90600000Y-327700000D03*
X97600000Y-328750000D03*
%TD*%
D16*
%TO.C,H17*%
X49500000Y-314000000D03*
%TD*%
D12*
%TO.C,SW55*%
X104500000Y-342000000D03*
D13*
X100100000Y-346700000D03*
X107100000Y-347750000D03*
%TD*%
D14*
%TO.C,D65*%
X103250000Y-365000000D03*
D15*
X103250000Y-357000000D03*
%TD*%
D16*
%TO.C,H24*%
X273500000Y-387500000D03*
%TD*%
D17*
%TO.C,H32*%
X133000000Y-381000000D03*
%TD*%
D14*
%TO.C,D46*%
X143750000Y-327000000D03*
D15*
X143750000Y-319000000D03*
%TD*%
D17*
%TO.C,H30*%
X269000000Y-383000000D03*
%TD*%
D12*
%TO.C,SW64*%
X76000000Y-361000000D03*
D13*
X71600000Y-365700000D03*
X78600000Y-366750000D03*
%TD*%
D12*
%TO.C,SW80*%
X218500000Y-380000000D03*
D13*
X214100000Y-384700000D03*
X221100000Y-385750000D03*
%TD*%
D16*
%TO.C,H23*%
X133000000Y-387500000D03*
%TD*%
D12*
%TO.C,SW50*%
X228000000Y-323000000D03*
D13*
X223600000Y-327700000D03*
X230600000Y-328750000D03*
%TD*%
D17*
%TO.C,H25*%
X54000000Y-318500000D03*
%TD*%
D14*
%TO.C,D58*%
X169750000Y-346000000D03*
D15*
X169750000Y-338000000D03*
%TD*%
D12*
%TO.C,SW69*%
X171000000Y-361000000D03*
D13*
X166600000Y-365700000D03*
X173600000Y-366750000D03*
%TD*%
D14*
%TO.C,D63*%
X264750000Y-346000000D03*
D15*
X264750000Y-338000000D03*
%TD*%
D12*
%TO.C,SW67*%
X133000000Y-361000000D03*
D13*
X128600000Y-365700000D03*
X135600000Y-366750000D03*
%TD*%
D12*
%TO.C,SW71*%
X209000000Y-361000000D03*
D13*
X204600000Y-365700000D03*
X211600000Y-366750000D03*
%TD*%
D14*
%TO.C,D59*%
X188750000Y-346000000D03*
D15*
X188750000Y-338000000D03*
%TD*%
D14*
%TO.C,D74*%
X112750000Y-384000000D03*
D15*
X112750000Y-376000000D03*
%TD*%
D14*
%TO.C,D51*%
X255250000Y-327000000D03*
D15*
X255250000Y-319000000D03*
%TD*%
D14*
%TO.C,D49*%
X217250000Y-327000000D03*
D15*
X217250000Y-319000000D03*
%TD*%
D17*
%TO.C,H31*%
X269000000Y-318500000D03*
%TD*%
D12*
%TO.C,SW61*%
X218500000Y-342000000D03*
D13*
X214100000Y-346700000D03*
X221100000Y-347750000D03*
%TD*%
D14*
%TO.C,D68*%
X160250000Y-365000000D03*
D15*
X160250000Y-357000000D03*
%TD*%
D14*
%TO.C,D56*%
X131750000Y-346000000D03*
D15*
X131750000Y-338000000D03*
%TD*%
D17*
%TO.C,H29*%
X123500000Y-320500000D03*
%TD*%
D14*
%TO.C,D60*%
X207750000Y-346000000D03*
D15*
X207750000Y-338000000D03*
%TD*%
D14*
%TO.C,D57*%
X150750000Y-346000000D03*
D15*
X150750000Y-338000000D03*
%TD*%
D14*
%TO.C,D52*%
X257750000Y-327000000D03*
D15*
X257750000Y-319000000D03*
%TD*%
D14*
%TO.C,D76*%
X150750000Y-384000000D03*
D15*
X150750000Y-376000000D03*
%TD*%
D12*
%TO.C,SW65*%
X95000000Y-361000000D03*
D13*
X90600000Y-365700000D03*
X97600000Y-366750000D03*
%TD*%
D12*
%TO.C,SW77*%
X161500000Y-380000000D03*
D13*
X157100000Y-384700000D03*
X164100000Y-385750000D03*
%TD*%
D12*
%TO.C,SW73*%
X247000000Y-361000000D03*
D13*
X242600000Y-365700000D03*
X249600000Y-366750000D03*
%TD*%
D12*
%TO.C,SW47*%
X171000000Y-323000000D03*
D13*
X166600000Y-327700000D03*
X173600000Y-328750000D03*
%TD*%
D14*
%TO.C,D64*%
X84250000Y-365000000D03*
D15*
X84250000Y-357000000D03*
%TD*%
D16*
%TO.C,H18*%
X199500000Y-314000000D03*
%TD*%
D12*
%TO.C,SW62*%
X237500000Y-342000000D03*
D13*
X233100000Y-346700000D03*
X240100000Y-347750000D03*
%TD*%
D12*
%TO.C,SW53*%
X66500000Y-342000000D03*
D13*
X62100000Y-346700000D03*
X69100000Y-347750000D03*
%TD*%
D14*
%TO.C,D70*%
X198250000Y-365000000D03*
D15*
X198250000Y-357000000D03*
%TD*%
D16*
%TO.C,H19*%
X49500000Y-387500000D03*
%TD*%
D14*
%TO.C,D48*%
X181750000Y-327000000D03*
D15*
X181750000Y-319000000D03*
%TD*%
D12*
%TO.C,SW57*%
X142500000Y-342000000D03*
D13*
X138100000Y-346700000D03*
X145100000Y-347750000D03*
%TD*%
D14*
%TO.C,D53*%
X74750000Y-346000000D03*
D15*
X74750000Y-338000000D03*
%TD*%
D12*
%TO.C,SW74*%
X104500000Y-380000000D03*
D13*
X100100000Y-384700000D03*
X107100000Y-385750000D03*
%TD*%
D12*
%TO.C,SW46*%
X152000000Y-323000000D03*
D13*
X147600000Y-327700000D03*
X154600000Y-328750000D03*
%TD*%
D16*
%TO.C,H20*%
X190000000Y-387500000D03*
%TD*%
D12*
%TO.C,SW58*%
X161500000Y-342000000D03*
D13*
X157100000Y-346700000D03*
X164100000Y-347750000D03*
%TD*%
D12*
%TO.C,SW41*%
X57000000Y-323000000D03*
D13*
X52600000Y-327700000D03*
X59600000Y-328750000D03*
%TD*%
%LPD*%
M02*
