%TF.GenerationSoftware,KiCad,Pcbnew,9.0.2*%
%TF.CreationDate,2025-07-17T20:37:33+01:00*%
%TF.ProjectId,just-40-top,6a757374-2d34-4302-9d74-6f702e6b6963,rev?*%
%TF.SameCoordinates,Original*%
%TF.FileFunction,Legend,Top*%
%TF.FilePolarity,Positive*%
%FSLAX46Y46*%
G04 Gerber Fmt 4.6, Leading zero omitted, Abs format (unit mm)*
G04 Created by KiCad (PCBNEW 9.0.2) date 2025-07-17 20:37:33*
%MOMM*%
%LPD*%
G01*
G04 APERTURE LIST*
%ADD10C,0.100000*%
%ADD11C,2.000000*%
G04 APERTURE END LIST*
D10*
X72327693Y-303207419D02*
X71756265Y-303207419D01*
X72041979Y-303207419D02*
X72041979Y-302207419D01*
X72041979Y-302207419D02*
X71946741Y-302350276D01*
X71946741Y-302350276D02*
X71851503Y-302445514D01*
X71851503Y-302445514D02*
X71756265Y-302493133D01*
X72756265Y-302207419D02*
X72756265Y-303016942D01*
X72756265Y-303016942D02*
X72803884Y-303112180D01*
X72803884Y-303112180D02*
X72851503Y-303159800D01*
X72851503Y-303159800D02*
X72946741Y-303207419D01*
X72946741Y-303207419D02*
X73137217Y-303207419D01*
X73137217Y-303207419D02*
X73232455Y-303159800D01*
X73232455Y-303159800D02*
X73280074Y-303112180D01*
X73280074Y-303112180D02*
X73327693Y-303016942D01*
X73327693Y-303016942D02*
X73327693Y-302207419D01*
X62827693Y-246207419D02*
X62256265Y-246207419D01*
X62541979Y-246207419D02*
X62541979Y-245207419D01*
X62541979Y-245207419D02*
X62446741Y-245350276D01*
X62446741Y-245350276D02*
X62351503Y-245445514D01*
X62351503Y-245445514D02*
X62256265Y-245493133D01*
X63256265Y-245207419D02*
X63256265Y-246016942D01*
X63256265Y-246016942D02*
X63303884Y-246112180D01*
X63303884Y-246112180D02*
X63351503Y-246159800D01*
X63351503Y-246159800D02*
X63446741Y-246207419D01*
X63446741Y-246207419D02*
X63637217Y-246207419D01*
X63637217Y-246207419D02*
X63732455Y-246159800D01*
X63732455Y-246159800D02*
X63780074Y-246112180D01*
X63780074Y-246112180D02*
X63827693Y-246016942D01*
X63827693Y-246016942D02*
X63827693Y-245207419D01*
X43827693Y-246207419D02*
X43256265Y-246207419D01*
X43541979Y-246207419D02*
X43541979Y-245207419D01*
X43541979Y-245207419D02*
X43446741Y-245350276D01*
X43446741Y-245350276D02*
X43351503Y-245445514D01*
X43351503Y-245445514D02*
X43256265Y-245493133D01*
X44256265Y-245207419D02*
X44256265Y-246016942D01*
X44256265Y-246016942D02*
X44303884Y-246112180D01*
X44303884Y-246112180D02*
X44351503Y-246159800D01*
X44351503Y-246159800D02*
X44446741Y-246207419D01*
X44446741Y-246207419D02*
X44637217Y-246207419D01*
X44637217Y-246207419D02*
X44732455Y-246159800D01*
X44732455Y-246159800D02*
X44780074Y-246112180D01*
X44780074Y-246112180D02*
X44827693Y-246016942D01*
X44827693Y-246016942D02*
X44827693Y-245207419D01*
X195827693Y-246207419D02*
X195256265Y-246207419D01*
X195541979Y-246207419D02*
X195541979Y-245207419D01*
X195541979Y-245207419D02*
X195446741Y-245350276D01*
X195446741Y-245350276D02*
X195351503Y-245445514D01*
X195351503Y-245445514D02*
X195256265Y-245493133D01*
X196256265Y-245207419D02*
X196256265Y-246016942D01*
X196256265Y-246016942D02*
X196303884Y-246112180D01*
X196303884Y-246112180D02*
X196351503Y-246159800D01*
X196351503Y-246159800D02*
X196446741Y-246207419D01*
X196446741Y-246207419D02*
X196637217Y-246207419D01*
X196637217Y-246207419D02*
X196732455Y-246159800D01*
X196732455Y-246159800D02*
X196780074Y-246112180D01*
X196780074Y-246112180D02*
X196827693Y-246016942D01*
X196827693Y-246016942D02*
X196827693Y-245207419D01*
X91327693Y-303207419D02*
X90756265Y-303207419D01*
X91041979Y-303207419D02*
X91041979Y-302207419D01*
X91041979Y-302207419D02*
X90946741Y-302350276D01*
X90946741Y-302350276D02*
X90851503Y-302445514D01*
X90851503Y-302445514D02*
X90756265Y-302493133D01*
X91756265Y-302207419D02*
X91756265Y-303016942D01*
X91756265Y-303016942D02*
X91803884Y-303112180D01*
X91803884Y-303112180D02*
X91851503Y-303159800D01*
X91851503Y-303159800D02*
X91946741Y-303207419D01*
X91946741Y-303207419D02*
X92137217Y-303207419D01*
X92137217Y-303207419D02*
X92232455Y-303159800D01*
X92232455Y-303159800D02*
X92280074Y-303112180D01*
X92280074Y-303112180D02*
X92327693Y-303016942D01*
X92327693Y-303016942D02*
X92327693Y-302207419D01*
X58077693Y-284207419D02*
X57506265Y-284207419D01*
X57791979Y-284207419D02*
X57791979Y-283207419D01*
X57791979Y-283207419D02*
X57696741Y-283350276D01*
X57696741Y-283350276D02*
X57601503Y-283445514D01*
X57601503Y-283445514D02*
X57506265Y-283493133D01*
X58506265Y-283207419D02*
X58506265Y-284016942D01*
X58506265Y-284016942D02*
X58553884Y-284112180D01*
X58553884Y-284112180D02*
X58601503Y-284159800D01*
X58601503Y-284159800D02*
X58696741Y-284207419D01*
X58696741Y-284207419D02*
X58887217Y-284207419D01*
X58887217Y-284207419D02*
X58982455Y-284159800D01*
X58982455Y-284159800D02*
X59030074Y-284112180D01*
X59030074Y-284112180D02*
X59077693Y-284016942D01*
X59077693Y-284016942D02*
X59077693Y-283207419D01*
X191077693Y-284207419D02*
X190506265Y-284207419D01*
X190791979Y-284207419D02*
X190791979Y-283207419D01*
X190791979Y-283207419D02*
X190696741Y-283350276D01*
X190696741Y-283350276D02*
X190601503Y-283445514D01*
X190601503Y-283445514D02*
X190506265Y-283493133D01*
X191506265Y-283207419D02*
X191506265Y-284016942D01*
X191506265Y-284016942D02*
X191553884Y-284112180D01*
X191553884Y-284112180D02*
X191601503Y-284159800D01*
X191601503Y-284159800D02*
X191696741Y-284207419D01*
X191696741Y-284207419D02*
X191887217Y-284207419D01*
X191887217Y-284207419D02*
X191982455Y-284159800D01*
X191982455Y-284159800D02*
X192030074Y-284112180D01*
X192030074Y-284112180D02*
X192077693Y-284016942D01*
X192077693Y-284016942D02*
X192077693Y-283207419D01*
X86577693Y-265207419D02*
X86006265Y-265207419D01*
X86291979Y-265207419D02*
X86291979Y-264207419D01*
X86291979Y-264207419D02*
X86196741Y-264350276D01*
X86196741Y-264350276D02*
X86101503Y-264445514D01*
X86101503Y-264445514D02*
X86006265Y-264493133D01*
X87006265Y-264207419D02*
X87006265Y-265016942D01*
X87006265Y-265016942D02*
X87053884Y-265112180D01*
X87053884Y-265112180D02*
X87101503Y-265159800D01*
X87101503Y-265159800D02*
X87196741Y-265207419D01*
X87196741Y-265207419D02*
X87387217Y-265207419D01*
X87387217Y-265207419D02*
X87482455Y-265159800D01*
X87482455Y-265159800D02*
X87530074Y-265112180D01*
X87530074Y-265112180D02*
X87577693Y-265016942D01*
X87577693Y-265016942D02*
X87577693Y-264207419D01*
X138827693Y-246207419D02*
X138256265Y-246207419D01*
X138541979Y-246207419D02*
X138541979Y-245207419D01*
X138541979Y-245207419D02*
X138446741Y-245350276D01*
X138446741Y-245350276D02*
X138351503Y-245445514D01*
X138351503Y-245445514D02*
X138256265Y-245493133D01*
X139256265Y-245207419D02*
X139256265Y-246016942D01*
X139256265Y-246016942D02*
X139303884Y-246112180D01*
X139303884Y-246112180D02*
X139351503Y-246159800D01*
X139351503Y-246159800D02*
X139446741Y-246207419D01*
X139446741Y-246207419D02*
X139637217Y-246207419D01*
X139637217Y-246207419D02*
X139732455Y-246159800D01*
X139732455Y-246159800D02*
X139780074Y-246112180D01*
X139780074Y-246112180D02*
X139827693Y-246016942D01*
X139827693Y-246016942D02*
X139827693Y-245207419D01*
X67577693Y-265207419D02*
X67006265Y-265207419D01*
X67291979Y-265207419D02*
X67291979Y-264207419D01*
X67291979Y-264207419D02*
X67196741Y-264350276D01*
X67196741Y-264350276D02*
X67101503Y-264445514D01*
X67101503Y-264445514D02*
X67006265Y-264493133D01*
X68006265Y-264207419D02*
X68006265Y-265016942D01*
X68006265Y-265016942D02*
X68053884Y-265112180D01*
X68053884Y-265112180D02*
X68101503Y-265159800D01*
X68101503Y-265159800D02*
X68196741Y-265207419D01*
X68196741Y-265207419D02*
X68387217Y-265207419D01*
X68387217Y-265207419D02*
X68482455Y-265159800D01*
X68482455Y-265159800D02*
X68530074Y-265112180D01*
X68530074Y-265112180D02*
X68577693Y-265016942D01*
X68577693Y-265016942D02*
X68577693Y-264207419D01*
X119827693Y-246207419D02*
X119256265Y-246207419D01*
X119541979Y-246207419D02*
X119541979Y-245207419D01*
X119541979Y-245207419D02*
X119446741Y-245350276D01*
X119446741Y-245350276D02*
X119351503Y-245445514D01*
X119351503Y-245445514D02*
X119256265Y-245493133D01*
X120256265Y-245207419D02*
X120256265Y-246016942D01*
X120256265Y-246016942D02*
X120303884Y-246112180D01*
X120303884Y-246112180D02*
X120351503Y-246159800D01*
X120351503Y-246159800D02*
X120446741Y-246207419D01*
X120446741Y-246207419D02*
X120637217Y-246207419D01*
X120637217Y-246207419D02*
X120732455Y-246159800D01*
X120732455Y-246159800D02*
X120780074Y-246112180D01*
X120780074Y-246112180D02*
X120827693Y-246016942D01*
X120827693Y-246016942D02*
X120827693Y-245207419D01*
X115077693Y-284207419D02*
X114506265Y-284207419D01*
X114791979Y-284207419D02*
X114791979Y-283207419D01*
X114791979Y-283207419D02*
X114696741Y-283350276D01*
X114696741Y-283350276D02*
X114601503Y-283445514D01*
X114601503Y-283445514D02*
X114506265Y-283493133D01*
X115506265Y-283207419D02*
X115506265Y-284016942D01*
X115506265Y-284016942D02*
X115553884Y-284112180D01*
X115553884Y-284112180D02*
X115601503Y-284159800D01*
X115601503Y-284159800D02*
X115696741Y-284207419D01*
X115696741Y-284207419D02*
X115887217Y-284207419D01*
X115887217Y-284207419D02*
X115982455Y-284159800D01*
X115982455Y-284159800D02*
X116030074Y-284112180D01*
X116030074Y-284112180D02*
X116077693Y-284016942D01*
X116077693Y-284016942D02*
X116077693Y-283207419D01*
X181577693Y-265207419D02*
X181006265Y-265207419D01*
X181291979Y-265207419D02*
X181291979Y-264207419D01*
X181291979Y-264207419D02*
X181196741Y-264350276D01*
X181196741Y-264350276D02*
X181101503Y-264445514D01*
X181101503Y-264445514D02*
X181006265Y-264493133D01*
X182006265Y-264207419D02*
X182006265Y-265016942D01*
X182006265Y-265016942D02*
X182053884Y-265112180D01*
X182053884Y-265112180D02*
X182101503Y-265159800D01*
X182101503Y-265159800D02*
X182196741Y-265207419D01*
X182196741Y-265207419D02*
X182387217Y-265207419D01*
X182387217Y-265207419D02*
X182482455Y-265159800D01*
X182482455Y-265159800D02*
X182530074Y-265112180D01*
X182530074Y-265112180D02*
X182577693Y-265016942D01*
X182577693Y-265016942D02*
X182577693Y-264207419D01*
X77077693Y-284207419D02*
X76506265Y-284207419D01*
X76791979Y-284207419D02*
X76791979Y-283207419D01*
X76791979Y-283207419D02*
X76696741Y-283350276D01*
X76696741Y-283350276D02*
X76601503Y-283445514D01*
X76601503Y-283445514D02*
X76506265Y-283493133D01*
X77506265Y-283207419D02*
X77506265Y-284016942D01*
X77506265Y-284016942D02*
X77553884Y-284112180D01*
X77553884Y-284112180D02*
X77601503Y-284159800D01*
X77601503Y-284159800D02*
X77696741Y-284207419D01*
X77696741Y-284207419D02*
X77887217Y-284207419D01*
X77887217Y-284207419D02*
X77982455Y-284159800D01*
X77982455Y-284159800D02*
X78030074Y-284112180D01*
X78030074Y-284112180D02*
X78077693Y-284016942D01*
X78077693Y-284016942D02*
X78077693Y-283207419D01*
X96077693Y-284207419D02*
X95506265Y-284207419D01*
X95791979Y-284207419D02*
X95791979Y-283207419D01*
X95791979Y-283207419D02*
X95696741Y-283350276D01*
X95696741Y-283350276D02*
X95601503Y-283445514D01*
X95601503Y-283445514D02*
X95506265Y-283493133D01*
X96506265Y-283207419D02*
X96506265Y-284016942D01*
X96506265Y-284016942D02*
X96553884Y-284112180D01*
X96553884Y-284112180D02*
X96601503Y-284159800D01*
X96601503Y-284159800D02*
X96696741Y-284207419D01*
X96696741Y-284207419D02*
X96887217Y-284207419D01*
X96887217Y-284207419D02*
X96982455Y-284159800D01*
X96982455Y-284159800D02*
X97030074Y-284112180D01*
X97030074Y-284112180D02*
X97077693Y-284016942D01*
X97077693Y-284016942D02*
X97077693Y-283207419D01*
X143577693Y-265207419D02*
X143006265Y-265207419D01*
X143291979Y-265207419D02*
X143291979Y-264207419D01*
X143291979Y-264207419D02*
X143196741Y-264350276D01*
X143196741Y-264350276D02*
X143101503Y-264445514D01*
X143101503Y-264445514D02*
X143006265Y-264493133D01*
X144006265Y-264207419D02*
X144006265Y-265016942D01*
X144006265Y-265016942D02*
X144053884Y-265112180D01*
X144053884Y-265112180D02*
X144101503Y-265159800D01*
X144101503Y-265159800D02*
X144196741Y-265207419D01*
X144196741Y-265207419D02*
X144387217Y-265207419D01*
X144387217Y-265207419D02*
X144482455Y-265159800D01*
X144482455Y-265159800D02*
X144530074Y-265112180D01*
X144530074Y-265112180D02*
X144577693Y-265016942D01*
X144577693Y-265016942D02*
X144577693Y-264207419D01*
X157827693Y-246207419D02*
X157256265Y-246207419D01*
X157541979Y-246207419D02*
X157541979Y-245207419D01*
X157541979Y-245207419D02*
X157446741Y-245350276D01*
X157446741Y-245350276D02*
X157351503Y-245445514D01*
X157351503Y-245445514D02*
X157256265Y-245493133D01*
X158256265Y-245207419D02*
X158256265Y-246016942D01*
X158256265Y-246016942D02*
X158303884Y-246112180D01*
X158303884Y-246112180D02*
X158351503Y-246159800D01*
X158351503Y-246159800D02*
X158446741Y-246207419D01*
X158446741Y-246207419D02*
X158637217Y-246207419D01*
X158637217Y-246207419D02*
X158732455Y-246159800D01*
X158732455Y-246159800D02*
X158780074Y-246112180D01*
X158780074Y-246112180D02*
X158827693Y-246016942D01*
X158827693Y-246016942D02*
X158827693Y-245207419D01*
X178827693Y-246207419D02*
X178256265Y-246207419D01*
X178541979Y-246207419D02*
X178541979Y-245207419D01*
X178541979Y-245207419D02*
X178446741Y-245350276D01*
X178446741Y-245350276D02*
X178351503Y-245445514D01*
X178351503Y-245445514D02*
X178256265Y-245493133D01*
X179256265Y-245207419D02*
X179256265Y-246016942D01*
X179256265Y-246016942D02*
X179303884Y-246112180D01*
X179303884Y-246112180D02*
X179351503Y-246159800D01*
X179351503Y-246159800D02*
X179446741Y-246207419D01*
X179446741Y-246207419D02*
X179637217Y-246207419D01*
X179637217Y-246207419D02*
X179732455Y-246159800D01*
X179732455Y-246159800D02*
X179780074Y-246112180D01*
X179780074Y-246112180D02*
X179827693Y-246016942D01*
X179827693Y-246016942D02*
X179827693Y-245207419D01*
X134077693Y-284207419D02*
X133506265Y-284207419D01*
X133791979Y-284207419D02*
X133791979Y-283207419D01*
X133791979Y-283207419D02*
X133696741Y-283350276D01*
X133696741Y-283350276D02*
X133601503Y-283445514D01*
X133601503Y-283445514D02*
X133506265Y-283493133D01*
X134506265Y-283207419D02*
X134506265Y-284016942D01*
X134506265Y-284016942D02*
X134553884Y-284112180D01*
X134553884Y-284112180D02*
X134601503Y-284159800D01*
X134601503Y-284159800D02*
X134696741Y-284207419D01*
X134696741Y-284207419D02*
X134887217Y-284207419D01*
X134887217Y-284207419D02*
X134982455Y-284159800D01*
X134982455Y-284159800D02*
X135030074Y-284112180D01*
X135030074Y-284112180D02*
X135077693Y-284016942D01*
X135077693Y-284016942D02*
X135077693Y-283207419D01*
X172077693Y-284207419D02*
X171506265Y-284207419D01*
X171791979Y-284207419D02*
X171791979Y-283207419D01*
X171791979Y-283207419D02*
X171696741Y-283350276D01*
X171696741Y-283350276D02*
X171601503Y-283445514D01*
X171601503Y-283445514D02*
X171506265Y-283493133D01*
X172506265Y-283207419D02*
X172506265Y-284016942D01*
X172506265Y-284016942D02*
X172553884Y-284112180D01*
X172553884Y-284112180D02*
X172601503Y-284159800D01*
X172601503Y-284159800D02*
X172696741Y-284207419D01*
X172696741Y-284207419D02*
X172887217Y-284207419D01*
X172887217Y-284207419D02*
X172982455Y-284159800D01*
X172982455Y-284159800D02*
X173030074Y-284112180D01*
X173030074Y-284112180D02*
X173077693Y-284016942D01*
X173077693Y-284016942D02*
X173077693Y-283207419D01*
X214827693Y-246207419D02*
X214256265Y-246207419D01*
X214541979Y-246207419D02*
X214541979Y-245207419D01*
X214541979Y-245207419D02*
X214446741Y-245350276D01*
X214446741Y-245350276D02*
X214351503Y-245445514D01*
X214351503Y-245445514D02*
X214256265Y-245493133D01*
X215256265Y-245207419D02*
X215256265Y-246016942D01*
X215256265Y-246016942D02*
X215303884Y-246112180D01*
X215303884Y-246112180D02*
X215351503Y-246159800D01*
X215351503Y-246159800D02*
X215446741Y-246207419D01*
X215446741Y-246207419D02*
X215637217Y-246207419D01*
X215637217Y-246207419D02*
X215732455Y-246159800D01*
X215732455Y-246159800D02*
X215780074Y-246112180D01*
X215780074Y-246112180D02*
X215827693Y-246016942D01*
X215827693Y-246016942D02*
X215827693Y-245207419D01*
X153077693Y-284207419D02*
X152506265Y-284207419D01*
X152791979Y-284207419D02*
X152791979Y-283207419D01*
X152791979Y-283207419D02*
X152696741Y-283350276D01*
X152696741Y-283350276D02*
X152601503Y-283445514D01*
X152601503Y-283445514D02*
X152506265Y-283493133D01*
X153506265Y-283207419D02*
X153506265Y-284016942D01*
X153506265Y-284016942D02*
X153553884Y-284112180D01*
X153553884Y-284112180D02*
X153601503Y-284159800D01*
X153601503Y-284159800D02*
X153696741Y-284207419D01*
X153696741Y-284207419D02*
X153887217Y-284207419D01*
X153887217Y-284207419D02*
X153982455Y-284159800D01*
X153982455Y-284159800D02*
X154030074Y-284112180D01*
X154030074Y-284112180D02*
X154077693Y-284016942D01*
X154077693Y-284016942D02*
X154077693Y-283207419D01*
X53327693Y-303207419D02*
X52756265Y-303207419D01*
X53041979Y-303207419D02*
X53041979Y-302207419D01*
X53041979Y-302207419D02*
X52946741Y-302350276D01*
X52946741Y-302350276D02*
X52851503Y-302445514D01*
X52851503Y-302445514D02*
X52756265Y-302493133D01*
X53756265Y-302207419D02*
X53756265Y-303016942D01*
X53756265Y-303016942D02*
X53803884Y-303112180D01*
X53803884Y-303112180D02*
X53851503Y-303159800D01*
X53851503Y-303159800D02*
X53946741Y-303207419D01*
X53946741Y-303207419D02*
X54137217Y-303207419D01*
X54137217Y-303207419D02*
X54232455Y-303159800D01*
X54232455Y-303159800D02*
X54280074Y-303112180D01*
X54280074Y-303112180D02*
X54327693Y-303016942D01*
X54327693Y-303016942D02*
X54327693Y-302207419D01*
X124577693Y-265207419D02*
X124006265Y-265207419D01*
X124291979Y-265207419D02*
X124291979Y-264207419D01*
X124291979Y-264207419D02*
X124196741Y-264350276D01*
X124196741Y-264350276D02*
X124101503Y-264445514D01*
X124101503Y-264445514D02*
X124006265Y-264493133D01*
X125006265Y-264207419D02*
X125006265Y-265016942D01*
X125006265Y-265016942D02*
X125053884Y-265112180D01*
X125053884Y-265112180D02*
X125101503Y-265159800D01*
X125101503Y-265159800D02*
X125196741Y-265207419D01*
X125196741Y-265207419D02*
X125387217Y-265207419D01*
X125387217Y-265207419D02*
X125482455Y-265159800D01*
X125482455Y-265159800D02*
X125530074Y-265112180D01*
X125530074Y-265112180D02*
X125577693Y-265016942D01*
X125577693Y-265016942D02*
X125577693Y-264207419D01*
X200577693Y-265207419D02*
X200006265Y-265207419D01*
X200291979Y-265207419D02*
X200291979Y-264207419D01*
X200291979Y-264207419D02*
X200196741Y-264350276D01*
X200196741Y-264350276D02*
X200101503Y-264445514D01*
X200101503Y-264445514D02*
X200006265Y-264493133D01*
X201006265Y-264207419D02*
X201006265Y-265016942D01*
X201006265Y-265016942D02*
X201053884Y-265112180D01*
X201053884Y-265112180D02*
X201101503Y-265159800D01*
X201101503Y-265159800D02*
X201196741Y-265207419D01*
X201196741Y-265207419D02*
X201387217Y-265207419D01*
X201387217Y-265207419D02*
X201482455Y-265159800D01*
X201482455Y-265159800D02*
X201530074Y-265112180D01*
X201530074Y-265112180D02*
X201577693Y-265016942D01*
X201577693Y-265016942D02*
X201577693Y-264207419D01*
X219577693Y-265207419D02*
X219006265Y-265207419D01*
X219291979Y-265207419D02*
X219291979Y-264207419D01*
X219291979Y-264207419D02*
X219196741Y-264350276D01*
X219196741Y-264350276D02*
X219101503Y-264445514D01*
X219101503Y-264445514D02*
X219006265Y-264493133D01*
X220006265Y-264207419D02*
X220006265Y-265016942D01*
X220006265Y-265016942D02*
X220053884Y-265112180D01*
X220053884Y-265112180D02*
X220101503Y-265159800D01*
X220101503Y-265159800D02*
X220196741Y-265207419D01*
X220196741Y-265207419D02*
X220387217Y-265207419D01*
X220387217Y-265207419D02*
X220482455Y-265159800D01*
X220482455Y-265159800D02*
X220530074Y-265112180D01*
X220530074Y-265112180D02*
X220577693Y-265016942D01*
X220577693Y-265016942D02*
X220577693Y-264207419D01*
X105577693Y-265207419D02*
X105006265Y-265207419D01*
X105291979Y-265207419D02*
X105291979Y-264207419D01*
X105291979Y-264207419D02*
X105196741Y-264350276D01*
X105196741Y-264350276D02*
X105101503Y-264445514D01*
X105101503Y-264445514D02*
X105006265Y-264493133D01*
X106006265Y-264207419D02*
X106006265Y-265016942D01*
X106006265Y-265016942D02*
X106053884Y-265112180D01*
X106053884Y-265112180D02*
X106101503Y-265159800D01*
X106101503Y-265159800D02*
X106196741Y-265207419D01*
X106196741Y-265207419D02*
X106387217Y-265207419D01*
X106387217Y-265207419D02*
X106482455Y-265159800D01*
X106482455Y-265159800D02*
X106530074Y-265112180D01*
X106530074Y-265112180D02*
X106577693Y-265016942D01*
X106577693Y-265016942D02*
X106577693Y-264207419D01*
X111631265Y-302302657D02*
X111678884Y-302255038D01*
X111678884Y-302255038D02*
X111774122Y-302207419D01*
X111774122Y-302207419D02*
X112012217Y-302207419D01*
X112012217Y-302207419D02*
X112107455Y-302255038D01*
X112107455Y-302255038D02*
X112155074Y-302302657D01*
X112155074Y-302302657D02*
X112202693Y-302397895D01*
X112202693Y-302397895D02*
X112202693Y-302493133D01*
X112202693Y-302493133D02*
X112155074Y-302635990D01*
X112155074Y-302635990D02*
X111583646Y-303207419D01*
X111583646Y-303207419D02*
X112202693Y-303207419D01*
X112631265Y-303112180D02*
X112678884Y-303159800D01*
X112678884Y-303159800D02*
X112631265Y-303207419D01*
X112631265Y-303207419D02*
X112583646Y-303159800D01*
X112583646Y-303159800D02*
X112631265Y-303112180D01*
X112631265Y-303112180D02*
X112631265Y-303207419D01*
X113059836Y-302302657D02*
X113107455Y-302255038D01*
X113107455Y-302255038D02*
X113202693Y-302207419D01*
X113202693Y-302207419D02*
X113440788Y-302207419D01*
X113440788Y-302207419D02*
X113536026Y-302255038D01*
X113536026Y-302255038D02*
X113583645Y-302302657D01*
X113583645Y-302302657D02*
X113631264Y-302397895D01*
X113631264Y-302397895D02*
X113631264Y-302493133D01*
X113631264Y-302493133D02*
X113583645Y-302635990D01*
X113583645Y-302635990D02*
X113012217Y-303207419D01*
X113012217Y-303207419D02*
X113631264Y-303207419D01*
X114536026Y-302207419D02*
X114059836Y-302207419D01*
X114059836Y-302207419D02*
X114012217Y-302683609D01*
X114012217Y-302683609D02*
X114059836Y-302635990D01*
X114059836Y-302635990D02*
X114155074Y-302588371D01*
X114155074Y-302588371D02*
X114393169Y-302588371D01*
X114393169Y-302588371D02*
X114488407Y-302635990D01*
X114488407Y-302635990D02*
X114536026Y-302683609D01*
X114536026Y-302683609D02*
X114583645Y-302778847D01*
X114583645Y-302778847D02*
X114583645Y-303016942D01*
X114583645Y-303016942D02*
X114536026Y-303112180D01*
X114536026Y-303112180D02*
X114488407Y-303159800D01*
X114488407Y-303159800D02*
X114393169Y-303207419D01*
X114393169Y-303207419D02*
X114155074Y-303207419D01*
X114155074Y-303207419D02*
X114059836Y-303159800D01*
X114059836Y-303159800D02*
X114012217Y-303112180D01*
X115012217Y-302207419D02*
X115012217Y-303016942D01*
X115012217Y-303016942D02*
X115059836Y-303112180D01*
X115059836Y-303112180D02*
X115107455Y-303159800D01*
X115107455Y-303159800D02*
X115202693Y-303207419D01*
X115202693Y-303207419D02*
X115393169Y-303207419D01*
X115393169Y-303207419D02*
X115488407Y-303159800D01*
X115488407Y-303159800D02*
X115536026Y-303112180D01*
X115536026Y-303112180D02*
X115583645Y-303016942D01*
X115583645Y-303016942D02*
X115583645Y-302207419D01*
X162577693Y-265207419D02*
X162006265Y-265207419D01*
X162291979Y-265207419D02*
X162291979Y-264207419D01*
X162291979Y-264207419D02*
X162196741Y-264350276D01*
X162196741Y-264350276D02*
X162101503Y-264445514D01*
X162101503Y-264445514D02*
X162006265Y-264493133D01*
X163006265Y-264207419D02*
X163006265Y-265016942D01*
X163006265Y-265016942D02*
X163053884Y-265112180D01*
X163053884Y-265112180D02*
X163101503Y-265159800D01*
X163101503Y-265159800D02*
X163196741Y-265207419D01*
X163196741Y-265207419D02*
X163387217Y-265207419D01*
X163387217Y-265207419D02*
X163482455Y-265159800D01*
X163482455Y-265159800D02*
X163530074Y-265112180D01*
X163530074Y-265112180D02*
X163577693Y-265016942D01*
X163577693Y-265016942D02*
X163577693Y-264207419D01*
X102827693Y-246207419D02*
X102256265Y-246207419D01*
X102541979Y-246207419D02*
X102541979Y-245207419D01*
X102541979Y-245207419D02*
X102446741Y-245350276D01*
X102446741Y-245350276D02*
X102351503Y-245445514D01*
X102351503Y-245445514D02*
X102256265Y-245493133D01*
X103256265Y-245207419D02*
X103256265Y-246016942D01*
X103256265Y-246016942D02*
X103303884Y-246112180D01*
X103303884Y-246112180D02*
X103351503Y-246159800D01*
X103351503Y-246159800D02*
X103446741Y-246207419D01*
X103446741Y-246207419D02*
X103637217Y-246207419D01*
X103637217Y-246207419D02*
X103732455Y-246159800D01*
X103732455Y-246159800D02*
X103780074Y-246112180D01*
X103780074Y-246112180D02*
X103827693Y-246016942D01*
X103827693Y-246016942D02*
X103827693Y-245207419D01*
X194827693Y-303207419D02*
X194256265Y-303207419D01*
X194541979Y-303207419D02*
X194541979Y-302207419D01*
X194541979Y-302207419D02*
X194446741Y-302350276D01*
X194446741Y-302350276D02*
X194351503Y-302445514D01*
X194351503Y-302445514D02*
X194256265Y-302493133D01*
X195256265Y-302207419D02*
X195256265Y-303016942D01*
X195256265Y-303016942D02*
X195303884Y-303112180D01*
X195303884Y-303112180D02*
X195351503Y-303159800D01*
X195351503Y-303159800D02*
X195446741Y-303207419D01*
X195446741Y-303207419D02*
X195637217Y-303207419D01*
X195637217Y-303207419D02*
X195732455Y-303159800D01*
X195732455Y-303159800D02*
X195780074Y-303112180D01*
X195780074Y-303112180D02*
X195827693Y-303016942D01*
X195827693Y-303016942D02*
X195827693Y-302207419D01*
X81827693Y-246207419D02*
X81256265Y-246207419D01*
X81541979Y-246207419D02*
X81541979Y-245207419D01*
X81541979Y-245207419D02*
X81446741Y-245350276D01*
X81446741Y-245350276D02*
X81351503Y-245445514D01*
X81351503Y-245445514D02*
X81256265Y-245493133D01*
X82256265Y-245207419D02*
X82256265Y-246016942D01*
X82256265Y-246016942D02*
X82303884Y-246112180D01*
X82303884Y-246112180D02*
X82351503Y-246159800D01*
X82351503Y-246159800D02*
X82446741Y-246207419D01*
X82446741Y-246207419D02*
X82637217Y-246207419D01*
X82637217Y-246207419D02*
X82732455Y-246159800D01*
X82732455Y-246159800D02*
X82780074Y-246112180D01*
X82780074Y-246112180D02*
X82827693Y-246016942D01*
X82827693Y-246016942D02*
X82827693Y-245207419D01*
X39077693Y-284207419D02*
X38506265Y-284207419D01*
X38791979Y-284207419D02*
X38791979Y-283207419D01*
X38791979Y-283207419D02*
X38696741Y-283350276D01*
X38696741Y-283350276D02*
X38601503Y-283445514D01*
X38601503Y-283445514D02*
X38506265Y-283493133D01*
X39506265Y-283207419D02*
X39506265Y-284016942D01*
X39506265Y-284016942D02*
X39553884Y-284112180D01*
X39553884Y-284112180D02*
X39601503Y-284159800D01*
X39601503Y-284159800D02*
X39696741Y-284207419D01*
X39696741Y-284207419D02*
X39887217Y-284207419D01*
X39887217Y-284207419D02*
X39982455Y-284159800D01*
X39982455Y-284159800D02*
X40030074Y-284112180D01*
X40030074Y-284112180D02*
X40077693Y-284016942D01*
X40077693Y-284016942D02*
X40077693Y-283207419D01*
X210077693Y-284207419D02*
X209506265Y-284207419D01*
X209791979Y-284207419D02*
X209791979Y-283207419D01*
X209791979Y-283207419D02*
X209696741Y-283350276D01*
X209696741Y-283350276D02*
X209601503Y-283445514D01*
X209601503Y-283445514D02*
X209506265Y-283493133D01*
X210506265Y-283207419D02*
X210506265Y-284016942D01*
X210506265Y-284016942D02*
X210553884Y-284112180D01*
X210553884Y-284112180D02*
X210601503Y-284159800D01*
X210601503Y-284159800D02*
X210696741Y-284207419D01*
X210696741Y-284207419D02*
X210887217Y-284207419D01*
X210887217Y-284207419D02*
X210982455Y-284159800D01*
X210982455Y-284159800D02*
X211030074Y-284112180D01*
X211030074Y-284112180D02*
X211077693Y-284016942D01*
X211077693Y-284016942D02*
X211077693Y-283207419D01*
X156827693Y-303207419D02*
X156256265Y-303207419D01*
X156541979Y-303207419D02*
X156541979Y-302207419D01*
X156541979Y-302207419D02*
X156446741Y-302350276D01*
X156446741Y-302350276D02*
X156351503Y-302445514D01*
X156351503Y-302445514D02*
X156256265Y-302493133D01*
X157256265Y-302207419D02*
X157256265Y-303016942D01*
X157256265Y-303016942D02*
X157303884Y-303112180D01*
X157303884Y-303112180D02*
X157351503Y-303159800D01*
X157351503Y-303159800D02*
X157446741Y-303207419D01*
X157446741Y-303207419D02*
X157637217Y-303207419D01*
X157637217Y-303207419D02*
X157732455Y-303159800D01*
X157732455Y-303159800D02*
X157780074Y-303112180D01*
X157780074Y-303112180D02*
X157827693Y-303016942D01*
X157827693Y-303016942D02*
X157827693Y-302207419D01*
X175827693Y-303207419D02*
X175256265Y-303207419D01*
X175541979Y-303207419D02*
X175541979Y-302207419D01*
X175541979Y-302207419D02*
X175446741Y-302350276D01*
X175446741Y-302350276D02*
X175351503Y-302445514D01*
X175351503Y-302445514D02*
X175256265Y-302493133D01*
X176256265Y-302207419D02*
X176256265Y-303016942D01*
X176256265Y-303016942D02*
X176303884Y-303112180D01*
X176303884Y-303112180D02*
X176351503Y-303159800D01*
X176351503Y-303159800D02*
X176446741Y-303207419D01*
X176446741Y-303207419D02*
X176637217Y-303207419D01*
X176637217Y-303207419D02*
X176732455Y-303159800D01*
X176732455Y-303159800D02*
X176780074Y-303112180D01*
X176780074Y-303112180D02*
X176827693Y-303016942D01*
X176827693Y-303016942D02*
X176827693Y-302207419D01*
X29577693Y-265207419D02*
X29006265Y-265207419D01*
X29291979Y-265207419D02*
X29291979Y-264207419D01*
X29291979Y-264207419D02*
X29196741Y-264350276D01*
X29196741Y-264350276D02*
X29101503Y-264445514D01*
X29101503Y-264445514D02*
X29006265Y-264493133D01*
X30006265Y-264207419D02*
X30006265Y-265016942D01*
X30006265Y-265016942D02*
X30053884Y-265112180D01*
X30053884Y-265112180D02*
X30101503Y-265159800D01*
X30101503Y-265159800D02*
X30196741Y-265207419D01*
X30196741Y-265207419D02*
X30387217Y-265207419D01*
X30387217Y-265207419D02*
X30482455Y-265159800D01*
X30482455Y-265159800D02*
X30530074Y-265112180D01*
X30530074Y-265112180D02*
X30577693Y-265016942D01*
X30577693Y-265016942D02*
X30577693Y-264207419D01*
X48577693Y-265207419D02*
X48006265Y-265207419D01*
X48291979Y-265207419D02*
X48291979Y-264207419D01*
X48291979Y-264207419D02*
X48196741Y-264350276D01*
X48196741Y-264350276D02*
X48101503Y-264445514D01*
X48101503Y-264445514D02*
X48006265Y-264493133D01*
X49006265Y-264207419D02*
X49006265Y-265016942D01*
X49006265Y-265016942D02*
X49053884Y-265112180D01*
X49053884Y-265112180D02*
X49101503Y-265159800D01*
X49101503Y-265159800D02*
X49196741Y-265207419D01*
X49196741Y-265207419D02*
X49387217Y-265207419D01*
X49387217Y-265207419D02*
X49482455Y-265159800D01*
X49482455Y-265159800D02*
X49530074Y-265112180D01*
X49530074Y-265112180D02*
X49577693Y-265016942D01*
X49577693Y-265016942D02*
X49577693Y-264207419D01*
X233827693Y-246207419D02*
X233256265Y-246207419D01*
X233541979Y-246207419D02*
X233541979Y-245207419D01*
X233541979Y-245207419D02*
X233446741Y-245350276D01*
X233446741Y-245350276D02*
X233351503Y-245445514D01*
X233351503Y-245445514D02*
X233256265Y-245493133D01*
X234256265Y-245207419D02*
X234256265Y-246016942D01*
X234256265Y-246016942D02*
X234303884Y-246112180D01*
X234303884Y-246112180D02*
X234351503Y-246159800D01*
X234351503Y-246159800D02*
X234446741Y-246207419D01*
X234446741Y-246207419D02*
X234637217Y-246207419D01*
X234637217Y-246207419D02*
X234732455Y-246159800D01*
X234732455Y-246159800D02*
X234780074Y-246112180D01*
X234780074Y-246112180D02*
X234827693Y-246016942D01*
X234827693Y-246016942D02*
X234827693Y-245207419D01*
X27827693Y-246207419D02*
X27256265Y-246207419D01*
X27541979Y-246207419D02*
X27541979Y-245207419D01*
X27541979Y-245207419D02*
X27446741Y-245350276D01*
X27446741Y-245350276D02*
X27351503Y-245445514D01*
X27351503Y-245445514D02*
X27256265Y-245493133D01*
X28256265Y-245207419D02*
X28256265Y-246016942D01*
X28256265Y-246016942D02*
X28303884Y-246112180D01*
X28303884Y-246112180D02*
X28351503Y-246159800D01*
X28351503Y-246159800D02*
X28446741Y-246207419D01*
X28446741Y-246207419D02*
X28637217Y-246207419D01*
X28637217Y-246207419D02*
X28732455Y-246159800D01*
X28732455Y-246159800D02*
X28780074Y-246112180D01*
X28780074Y-246112180D02*
X28827693Y-246016942D01*
X28827693Y-246016942D02*
X28827693Y-245207419D01*
%TO.C,H65*%
X71500000Y-302000000D02*
X90000000Y-302000000D01*
X71500000Y-320500000D02*
X71500000Y-302000000D01*
X88000000Y-320500000D02*
X71500000Y-320500000D01*
X90000000Y-302000000D02*
X90000000Y-317500000D01*
%TO.C,H33*%
X62000000Y-245000000D02*
X80500000Y-245000000D01*
X80500000Y-263500000D01*
X62000000Y-263500000D01*
X62000000Y-245000000D01*
%TO.C,H32*%
X43000000Y-245000000D02*
X61500000Y-245000000D01*
X61500000Y-263500000D01*
X43000000Y-263500000D01*
X43000000Y-245000000D01*
%TO.C,H40*%
X195000000Y-245000000D02*
X213500000Y-245000000D01*
X213500000Y-263500000D01*
X195000000Y-263500000D01*
X195000000Y-245000000D01*
%TO.C,H66*%
X90500000Y-302000000D02*
X90500000Y-317500000D01*
X92500000Y-320500000D02*
X109000000Y-320500000D01*
X109000000Y-302000000D02*
X90500000Y-302000000D01*
X109000000Y-320500000D02*
X109000000Y-302000000D01*
%TO.C,H55*%
X57250000Y-283000000D02*
X75750000Y-283000000D01*
X75750000Y-301500000D01*
X57250000Y-301500000D01*
X57250000Y-283000000D01*
%TO.C,H62*%
X190250000Y-283000000D02*
X208750000Y-283000000D01*
X208750000Y-301500000D01*
X190250000Y-301500000D01*
X190250000Y-283000000D01*
%TO.C,H46*%
X85750000Y-264000000D02*
X104250000Y-264000000D01*
X104250000Y-282500000D01*
X85750000Y-282500000D01*
X85750000Y-264000000D01*
%TO.C,H37*%
X138000000Y-245000000D02*
X156500000Y-245000000D01*
X156500000Y-263500000D01*
X138000000Y-263500000D01*
X138000000Y-245000000D01*
%TO.C,H45*%
X66750000Y-264000000D02*
X85250000Y-264000000D01*
X85250000Y-282500000D01*
X66750000Y-282500000D01*
X66750000Y-264000000D01*
%TO.C,H36*%
X119000000Y-245000000D02*
X137500000Y-245000000D01*
X137500000Y-263500000D01*
X119000000Y-263500000D01*
X119000000Y-245000000D01*
%TO.C,H58*%
X114250000Y-283000000D02*
X132750000Y-283000000D01*
X132750000Y-301500000D01*
X114250000Y-301500000D01*
X114250000Y-283000000D01*
%TO.C,H51*%
X180750000Y-264000000D02*
X199250000Y-264000000D01*
X199250000Y-282500000D01*
X180750000Y-282500000D01*
X180750000Y-264000000D01*
%TO.C,H56*%
X76250000Y-283000000D02*
X94750000Y-283000000D01*
X94750000Y-301500000D01*
X76250000Y-301500000D01*
X76250000Y-283000000D01*
%TO.C,H57*%
X95250000Y-283000000D02*
X113750000Y-283000000D01*
X113750000Y-301500000D01*
X95250000Y-301500000D01*
X95250000Y-283000000D01*
%TO.C,H49*%
X142750000Y-264000000D02*
X161250000Y-264000000D01*
X161250000Y-282500000D01*
X142750000Y-282500000D01*
X142750000Y-264000000D01*
%TO.C,H38*%
X157000000Y-245000000D02*
X157000000Y-263500000D01*
X157000000Y-263500000D02*
X175500000Y-263500000D01*
X173500000Y-245000000D02*
X157000000Y-245000000D01*
X175500000Y-263500000D02*
X175500000Y-248000000D01*
%TO.C,H39*%
X176000000Y-263500000D02*
X176000000Y-248000000D01*
X178000000Y-245000000D02*
X194500000Y-245000000D01*
X194500000Y-245000000D02*
X194500000Y-263500000D01*
X194500000Y-263500000D02*
X176000000Y-263500000D01*
%TO.C,H59*%
X133250000Y-283000000D02*
X151750000Y-283000000D01*
X151750000Y-301500000D01*
X133250000Y-301500000D01*
X133250000Y-283000000D01*
%TO.C,H61*%
X171250000Y-283000000D02*
X189750000Y-283000000D01*
X189750000Y-301500000D01*
X171250000Y-301500000D01*
X171250000Y-283000000D01*
%TO.C,H41*%
X214000000Y-245000000D02*
X232500000Y-245000000D01*
X232500000Y-263500000D01*
X214000000Y-263500000D01*
X214000000Y-245000000D01*
%TO.C,H60*%
X152250000Y-283000000D02*
X170750000Y-283000000D01*
X170750000Y-301500000D01*
X152250000Y-301500000D01*
X152250000Y-283000000D01*
%TO.C,H64*%
X52500000Y-302000000D02*
X71000000Y-302000000D01*
X71000000Y-320500000D01*
X52500000Y-320500000D01*
X52500000Y-302000000D01*
%TO.C,H48*%
X123750000Y-264000000D02*
X142250000Y-264000000D01*
X142250000Y-282500000D01*
X123750000Y-282500000D01*
X123750000Y-264000000D01*
%TO.C,H52*%
X199750000Y-264000000D02*
X218250000Y-264000000D01*
X218250000Y-282500000D01*
X199750000Y-282500000D01*
X199750000Y-264000000D01*
%TO.C,H53*%
X218750000Y-264000000D02*
X237250000Y-264000000D01*
X237250000Y-282500000D01*
X218750000Y-282500000D01*
X218750000Y-264000000D01*
%TO.C,H47*%
X104750000Y-264000000D02*
X123250000Y-264000000D01*
X123250000Y-282500000D01*
X104750000Y-282500000D01*
X104750000Y-264000000D01*
%TO.C,H67*%
X111375000Y-302000000D02*
X153625000Y-302000000D01*
X153625000Y-320500000D01*
X111375000Y-320500000D01*
X111375000Y-302000000D01*
%TO.C,H50*%
X161750000Y-264000000D02*
X180250000Y-264000000D01*
X180250000Y-282500000D01*
X161750000Y-282500000D01*
X161750000Y-264000000D01*
%TO.C,H35*%
X100000000Y-263500000D02*
X100000000Y-248000000D01*
X102000000Y-245000000D02*
X118500000Y-245000000D01*
X118500000Y-245000000D02*
X118500000Y-263500000D01*
X118500000Y-263500000D02*
X100000000Y-263500000D01*
%TO.C,H70*%
X194000000Y-302000000D02*
X212500000Y-302000000D01*
X212500000Y-320500000D01*
X194000000Y-320500000D01*
X194000000Y-302000000D01*
%TO.C,H34*%
X81000000Y-245000000D02*
X81000000Y-263500000D01*
X81000000Y-263500000D02*
X99500000Y-263500000D01*
X97500000Y-245000000D02*
X81000000Y-245000000D01*
X99500000Y-263500000D02*
X99500000Y-248000000D01*
%TO.C,H54*%
X38250000Y-283000000D02*
X56750000Y-283000000D01*
X56750000Y-301500000D01*
X38250000Y-301500000D01*
X38250000Y-283000000D01*
%TO.C,H63*%
X209250000Y-283000000D02*
X227750000Y-283000000D01*
X227750000Y-301500000D01*
X209250000Y-301500000D01*
X209250000Y-283000000D01*
%TO.C,H68*%
X156000000Y-302000000D02*
X174500000Y-302000000D01*
X156000000Y-320500000D02*
X156000000Y-302000000D01*
X172500000Y-320500000D02*
X156000000Y-320500000D01*
X174500000Y-302000000D02*
X174500000Y-317500000D01*
%TO.C,H69*%
X175000000Y-302000000D02*
X175000000Y-317500000D01*
X177000000Y-320500000D02*
X193500000Y-320500000D01*
X193500000Y-302000000D02*
X175000000Y-302000000D01*
X193500000Y-320500000D02*
X193500000Y-302000000D01*
%TO.C,H43*%
X28750000Y-264000000D02*
X47250000Y-264000000D01*
X47250000Y-282500000D01*
X28750000Y-282500000D01*
X28750000Y-264000000D01*
%TO.C,H44*%
X47750000Y-264000000D02*
X66250000Y-264000000D01*
X66250000Y-282500000D01*
X47750000Y-282500000D01*
X47750000Y-264000000D01*
%TO.C,H42*%
X233000000Y-245000000D02*
X248500000Y-245000000D01*
X233000000Y-263500000D02*
X233000000Y-245000000D01*
X251500000Y-248000000D02*
X251500000Y-263500000D01*
X251500000Y-263500000D02*
X233000000Y-263500000D01*
%TO.C,H31*%
X24000000Y-263500000D02*
X24000000Y-248000000D01*
X27000000Y-245000000D02*
X42500000Y-245000000D01*
X42500000Y-245000000D02*
X42500000Y-263500000D01*
X42500000Y-263500000D02*
X24000000Y-263500000D01*
%TD*%
%LPC*%
D11*
%TO.C,H29*%
X174750000Y-319750000D03*
%TD*%
%TO.C,H23*%
X24750000Y-245750000D03*
%TD*%
%TO.C,H25*%
X175750000Y-245750000D03*
%TD*%
%TO.C,H24*%
X99750000Y-245750000D03*
%TD*%
%TO.C,H30*%
X250750000Y-319750000D03*
%TD*%
%TO.C,H28*%
X90250000Y-319750000D03*
%TD*%
%TO.C,H27*%
X24750000Y-319750000D03*
%TD*%
%TO.C,H26*%
X250750000Y-245750000D03*
%TD*%
%LPD*%
M02*
