%TF.GenerationSoftware,KiCad,Pcbnew,9.0.2*%
%TF.CreationDate,2025-07-17T20:38:21+01:00*%
%TF.ProjectId,just-40-top,6a757374-2d34-4302-9d74-6f702e6b6963,rev?*%
%TF.SameCoordinates,Original*%
%TF.FileFunction,Drillmap*%
%TF.FilePolarity,Positive*%
%FSLAX45Y45*%
G04 Gerber Fmt 4.5, Leading zero omitted, Abs format (unit mm)*
G04 Created by KiCad (PCBNEW 9.0.2) date 2025-07-17 20:38:21*
%MOMM*%
%LPD*%
G01*
G04 APERTURE LIST*
%ADD10C,0.050000*%
%ADD11C,0.200000*%
G04 APERTURE END LIST*
D10*
X2375000Y-32175000D02*
G75*
G02*
X2275000Y-32075000I0J100000D01*
G01*
X2275000Y-24475000D02*
G75*
G02*
X2375000Y-24375000I100000J0D01*
G01*
X25175000Y-24375000D02*
X2375000Y-24375000D01*
X25275000Y-32075000D02*
G75*
G02*
X25175000Y-32175000I-100000J0D01*
G01*
X25175000Y-24375000D02*
G75*
G02*
X25275000Y-24475000I0J-100000D01*
G01*
X2275000Y-32075000D02*
X2275000Y-24475000D01*
X25275000Y-24475000D02*
X25275000Y-32075000D01*
X25175000Y-32175000D02*
X2375000Y-32175000D01*
X7375000Y-31775000D02*
X7375000Y-30475000D01*
X7425000Y-30425000D02*
X8725000Y-30425000D01*
X8725000Y-31825000D02*
X7425000Y-31825000D01*
X8775000Y-30475000D02*
X8775000Y-31775000D01*
X7375000Y-30475000D02*
G75*
G02*
X7425000Y-30425000I0J50000D01*
G01*
X7425000Y-31825000D02*
G75*
G02*
X7375000Y-31775000I-50000J0D01*
G01*
X8725000Y-30425000D02*
G75*
G02*
X8775000Y-30475000I50000J0D01*
G01*
X8775000Y-31775000D02*
G75*
G02*
X8725000Y-31825000I0J-50000D01*
G01*
X6425000Y-26075000D02*
X6425000Y-24775000D01*
X6475000Y-24725000D02*
X7775000Y-24725000D01*
X7775000Y-26125000D02*
X6475000Y-26125000D01*
X7825000Y-24775000D02*
X7825000Y-26075000D01*
X6425000Y-24775000D02*
G75*
G02*
X6475000Y-24725000I0J50000D01*
G01*
X6475000Y-26125000D02*
G75*
G02*
X6425000Y-26075000I-50000J0D01*
G01*
X7775000Y-24725000D02*
G75*
G02*
X7825000Y-24775000I50000J0D01*
G01*
X7825000Y-26075000D02*
G75*
G02*
X7775000Y-26125000I0J-50000D01*
G01*
X4525000Y-26075000D02*
X4525000Y-24775000D01*
X4575000Y-24725000D02*
X5875000Y-24725000D01*
X5875000Y-26125000D02*
X4575000Y-26125000D01*
X5925000Y-24775000D02*
X5925000Y-26075000D01*
X4525000Y-24775000D02*
G75*
G02*
X4575000Y-24725000I0J50000D01*
G01*
X4575000Y-26125000D02*
G75*
G02*
X4525000Y-26075000I-50000J0D01*
G01*
X5875000Y-24725000D02*
G75*
G02*
X5925000Y-24775000I50000J0D01*
G01*
X5925000Y-26075000D02*
G75*
G02*
X5875000Y-26125000I0J-50000D01*
G01*
X19725000Y-26075000D02*
X19725000Y-24775000D01*
X19775000Y-24725000D02*
X21075000Y-24725000D01*
X21075000Y-26125000D02*
X19775000Y-26125000D01*
X21125000Y-24775000D02*
X21125000Y-26075000D01*
X19725000Y-24775000D02*
G75*
G02*
X19775000Y-24725000I0J50000D01*
G01*
X19775000Y-26125000D02*
G75*
G02*
X19725000Y-26075000I-50000J0D01*
G01*
X21075000Y-24725000D02*
G75*
G02*
X21125000Y-24775000I50000J0D01*
G01*
X21125000Y-26075000D02*
G75*
G02*
X21075000Y-26125000I0J-50000D01*
G01*
X9275000Y-31775000D02*
X9275000Y-30475000D01*
X9325000Y-30425000D02*
X10625000Y-30425000D01*
X10625000Y-31825000D02*
X9325000Y-31825000D01*
X10675000Y-30475000D02*
X10675000Y-31775000D01*
X9275000Y-30475000D02*
G75*
G02*
X9325000Y-30425000I0J50000D01*
G01*
X9325000Y-31825000D02*
G75*
G02*
X9275000Y-31775000I-50000J0D01*
G01*
X10625000Y-30425000D02*
G75*
G02*
X10675000Y-30475000I50000J0D01*
G01*
X10675000Y-31775000D02*
G75*
G02*
X10625000Y-31825000I0J-50000D01*
G01*
X5950000Y-29875000D02*
X5950000Y-28575000D01*
X6000000Y-28525000D02*
X7300000Y-28525000D01*
X7300000Y-29925000D02*
X6000000Y-29925000D01*
X7350000Y-28575000D02*
X7350000Y-29875000D01*
X5950000Y-28575000D02*
G75*
G02*
X6000000Y-28525000I0J50000D01*
G01*
X6000000Y-29925000D02*
G75*
G02*
X5950000Y-29875000I-50000J0D01*
G01*
X7300000Y-28525000D02*
G75*
G02*
X7350000Y-28575000I50000J0D01*
G01*
X7350000Y-29875000D02*
G75*
G02*
X7300000Y-29925000I0J-50000D01*
G01*
X19250000Y-29875000D02*
X19250000Y-28575000D01*
X19300000Y-28525000D02*
X20600000Y-28525000D01*
X20600000Y-29925000D02*
X19300000Y-29925000D01*
X20650000Y-28575000D02*
X20650000Y-29875000D01*
X19250000Y-28575000D02*
G75*
G02*
X19300000Y-28525000I0J50000D01*
G01*
X19300000Y-29925000D02*
G75*
G02*
X19250000Y-29875000I-50000J0D01*
G01*
X20600000Y-28525000D02*
G75*
G02*
X20650000Y-28575000I50000J0D01*
G01*
X20650000Y-29875000D02*
G75*
G02*
X20600000Y-29925000I0J-50000D01*
G01*
X8800000Y-27975000D02*
X8800000Y-26675000D01*
X8850000Y-26625000D02*
X10150000Y-26625000D01*
X10150000Y-28025000D02*
X8850000Y-28025000D01*
X10200000Y-26675000D02*
X10200000Y-27975000D01*
X8800000Y-26675000D02*
G75*
G02*
X8850000Y-26625000I0J50000D01*
G01*
X8850000Y-28025000D02*
G75*
G02*
X8800000Y-27975000I-50000J0D01*
G01*
X10150000Y-26625000D02*
G75*
G02*
X10200000Y-26675000I50000J0D01*
G01*
X10200000Y-27975000D02*
G75*
G02*
X10150000Y-28025000I0J-50000D01*
G01*
X14025000Y-26075000D02*
X14025000Y-24775000D01*
X14075000Y-24725000D02*
X15375000Y-24725000D01*
X15375000Y-26125000D02*
X14075000Y-26125000D01*
X15425000Y-24775000D02*
X15425000Y-26075000D01*
X14025000Y-24775000D02*
G75*
G02*
X14075000Y-24725000I0J50000D01*
G01*
X14075000Y-26125000D02*
G75*
G02*
X14025000Y-26075000I-50000J0D01*
G01*
X15375000Y-24725000D02*
G75*
G02*
X15425000Y-24775000I50000J0D01*
G01*
X15425000Y-26075000D02*
G75*
G02*
X15375000Y-26125000I0J-50000D01*
G01*
X6900000Y-27975000D02*
X6900000Y-26675000D01*
X6950000Y-26625000D02*
X8250000Y-26625000D01*
X8250000Y-28025000D02*
X6950000Y-28025000D01*
X8300000Y-26675000D02*
X8300000Y-27975000D01*
X6900000Y-26675000D02*
G75*
G02*
X6950000Y-26625000I0J50000D01*
G01*
X6950000Y-28025000D02*
G75*
G02*
X6900000Y-27975000I-50000J0D01*
G01*
X8250000Y-26625000D02*
G75*
G02*
X8300000Y-26675000I50000J0D01*
G01*
X8300000Y-27975000D02*
G75*
G02*
X8250000Y-28025000I0J-50000D01*
G01*
X12125000Y-26075000D02*
X12125000Y-24775000D01*
X12175000Y-24725000D02*
X13475000Y-24725000D01*
X13475000Y-26125000D02*
X12175000Y-26125000D01*
X13525000Y-24775000D02*
X13525000Y-26075000D01*
X12125000Y-24775000D02*
G75*
G02*
X12175000Y-24725000I0J50000D01*
G01*
X12175000Y-26125000D02*
G75*
G02*
X12125000Y-26075000I-50000J0D01*
G01*
X13475000Y-24725000D02*
G75*
G02*
X13525000Y-24775000I50000J0D01*
G01*
X13525000Y-26075000D02*
G75*
G02*
X13475000Y-26125000I0J-50000D01*
G01*
X11650000Y-29875000D02*
X11650000Y-28575000D01*
X11700000Y-28525000D02*
X13000000Y-28525000D01*
X13000000Y-29925000D02*
X11700000Y-29925000D01*
X13050000Y-28575000D02*
X13050000Y-29875000D01*
X11650000Y-28575000D02*
G75*
G02*
X11700000Y-28525000I0J50000D01*
G01*
X11700000Y-29925000D02*
G75*
G02*
X11650000Y-29875000I-50000J0D01*
G01*
X13000000Y-28525000D02*
G75*
G02*
X13050000Y-28575000I50000J0D01*
G01*
X13050000Y-29875000D02*
G75*
G02*
X13000000Y-29925000I0J-50000D01*
G01*
X18300000Y-27975000D02*
X18300000Y-26675000D01*
X18350000Y-26625000D02*
X19650000Y-26625000D01*
X19650000Y-28025000D02*
X18350000Y-28025000D01*
X19700000Y-26675000D02*
X19700000Y-27975000D01*
X18300000Y-26675000D02*
G75*
G02*
X18350000Y-26625000I0J50000D01*
G01*
X18350000Y-28025000D02*
G75*
G02*
X18300000Y-27975000I-50000J0D01*
G01*
X19650000Y-26625000D02*
G75*
G02*
X19700000Y-26675000I50000J0D01*
G01*
X19700000Y-27975000D02*
G75*
G02*
X19650000Y-28025000I0J-50000D01*
G01*
X7850000Y-29875000D02*
X7850000Y-28575000D01*
X7900000Y-28525000D02*
X9200000Y-28525000D01*
X9200000Y-29925000D02*
X7900000Y-29925000D01*
X9250000Y-28575000D02*
X9250000Y-29875000D01*
X7850000Y-28575000D02*
G75*
G02*
X7900000Y-28525000I0J50000D01*
G01*
X7900000Y-29925000D02*
G75*
G02*
X7850000Y-29875000I-50000J0D01*
G01*
X9200000Y-28525000D02*
G75*
G02*
X9250000Y-28575000I50000J0D01*
G01*
X9250000Y-29875000D02*
G75*
G02*
X9200000Y-29925000I0J-50000D01*
G01*
X9750000Y-29875000D02*
X9750000Y-28575000D01*
X9800000Y-28525000D02*
X11100000Y-28525000D01*
X11100000Y-29925000D02*
X9800000Y-29925000D01*
X11150000Y-28575000D02*
X11150000Y-29875000D01*
X9750000Y-28575000D02*
G75*
G02*
X9800000Y-28525000I0J50000D01*
G01*
X9800000Y-29925000D02*
G75*
G02*
X9750000Y-29875000I-50000J0D01*
G01*
X11100000Y-28525000D02*
G75*
G02*
X11150000Y-28575000I50000J0D01*
G01*
X11150000Y-29875000D02*
G75*
G02*
X11100000Y-29925000I0J-50000D01*
G01*
X14500000Y-27975000D02*
X14500000Y-26675000D01*
X14550000Y-26625000D02*
X15850000Y-26625000D01*
X15850000Y-28025000D02*
X14550000Y-28025000D01*
X15900000Y-26675000D02*
X15900000Y-27975000D01*
X14500000Y-26675000D02*
G75*
G02*
X14550000Y-26625000I0J50000D01*
G01*
X14550000Y-28025000D02*
G75*
G02*
X14500000Y-27975000I-50000J0D01*
G01*
X15850000Y-26625000D02*
G75*
G02*
X15900000Y-26675000I50000J0D01*
G01*
X15900000Y-27975000D02*
G75*
G02*
X15850000Y-28025000I0J-50000D01*
G01*
X15925000Y-26075000D02*
X15925000Y-24775000D01*
X15975000Y-24725000D02*
X17275000Y-24725000D01*
X17275000Y-26125000D02*
X15975000Y-26125000D01*
X17325000Y-24775000D02*
X17325000Y-26075000D01*
X15925000Y-24775000D02*
G75*
G02*
X15975000Y-24725000I0J50000D01*
G01*
X15975000Y-26125000D02*
G75*
G02*
X15925000Y-26075000I-50000J0D01*
G01*
X17275000Y-24725000D02*
G75*
G02*
X17325000Y-24775000I50000J0D01*
G01*
X17325000Y-26075000D02*
G75*
G02*
X17275000Y-26125000I0J-50000D01*
G01*
X17825000Y-26075000D02*
X17825000Y-24775000D01*
X17875000Y-24725000D02*
X19175000Y-24725000D01*
X19175000Y-26125000D02*
X17875000Y-26125000D01*
X19225000Y-24775000D02*
X19225000Y-26075000D01*
X17825000Y-24775000D02*
G75*
G02*
X17875000Y-24725000I0J50000D01*
G01*
X17875000Y-26125000D02*
G75*
G02*
X17825000Y-26075000I-50000J0D01*
G01*
X19175000Y-24725000D02*
G75*
G02*
X19225000Y-24775000I50000J0D01*
G01*
X19225000Y-26075000D02*
G75*
G02*
X19175000Y-26125000I0J-50000D01*
G01*
X13550000Y-29875000D02*
X13550000Y-28575000D01*
X13600000Y-28525000D02*
X14900000Y-28525000D01*
X14900000Y-29925000D02*
X13600000Y-29925000D01*
X14950000Y-28575000D02*
X14950000Y-29875000D01*
X13550000Y-28575000D02*
G75*
G02*
X13600000Y-28525000I0J50000D01*
G01*
X13600000Y-29925000D02*
G75*
G02*
X13550000Y-29875000I-50000J0D01*
G01*
X14900000Y-28525000D02*
G75*
G02*
X14950000Y-28575000I50000J0D01*
G01*
X14950000Y-29875000D02*
G75*
G02*
X14900000Y-29925000I0J-50000D01*
G01*
X17350000Y-29875000D02*
X17350000Y-28575000D01*
X17400000Y-28525000D02*
X18700000Y-28525000D01*
X18700000Y-29925000D02*
X17400000Y-29925000D01*
X18750000Y-28575000D02*
X18750000Y-29875000D01*
X17350000Y-28575000D02*
G75*
G02*
X17400000Y-28525000I0J50000D01*
G01*
X17400000Y-29925000D02*
G75*
G02*
X17350000Y-29875000I-50000J0D01*
G01*
X18700000Y-28525000D02*
G75*
G02*
X18750000Y-28575000I50000J0D01*
G01*
X18750000Y-29875000D02*
G75*
G02*
X18700000Y-29925000I0J-50000D01*
G01*
X21625000Y-26075000D02*
X21625000Y-24775000D01*
X21675000Y-24725000D02*
X22975000Y-24725000D01*
X22975000Y-26125000D02*
X21675000Y-26125000D01*
X23025000Y-24775000D02*
X23025000Y-26075000D01*
X21625000Y-24775000D02*
G75*
G02*
X21675000Y-24725000I0J50000D01*
G01*
X21675000Y-26125000D02*
G75*
G02*
X21625000Y-26075000I-50000J0D01*
G01*
X22975000Y-24725000D02*
G75*
G02*
X23025000Y-24775000I50000J0D01*
G01*
X23025000Y-26075000D02*
G75*
G02*
X22975000Y-26125000I0J-50000D01*
G01*
X15450000Y-29875000D02*
X15450000Y-28575000D01*
X15500000Y-28525000D02*
X16800000Y-28525000D01*
X16800000Y-29925000D02*
X15500000Y-29925000D01*
X16850000Y-28575000D02*
X16850000Y-29875000D01*
X15450000Y-28575000D02*
G75*
G02*
X15500000Y-28525000I0J50000D01*
G01*
X15500000Y-29925000D02*
G75*
G02*
X15450000Y-29875000I-50000J0D01*
G01*
X16800000Y-28525000D02*
G75*
G02*
X16850000Y-28575000I50000J0D01*
G01*
X16850000Y-29875000D02*
G75*
G02*
X16800000Y-29925000I0J-50000D01*
G01*
X5475000Y-31775000D02*
X5475000Y-30475000D01*
X5525000Y-30425000D02*
X6825000Y-30425000D01*
X6825000Y-31825000D02*
X5525000Y-31825000D01*
X6875000Y-30475000D02*
X6875000Y-31775000D01*
X5475000Y-30475000D02*
G75*
G02*
X5525000Y-30425000I0J50000D01*
G01*
X5525000Y-31825000D02*
G75*
G02*
X5475000Y-31775000I-50000J0D01*
G01*
X6825000Y-30425000D02*
G75*
G02*
X6875000Y-30475000I50000J0D01*
G01*
X6875000Y-31775000D02*
G75*
G02*
X6825000Y-31825000I0J-50000D01*
G01*
X12600000Y-27975000D02*
X12600000Y-26675000D01*
X12650000Y-26625000D02*
X13950000Y-26625000D01*
X13950000Y-28025000D02*
X12650000Y-28025000D01*
X14000000Y-26675000D02*
X14000000Y-27975000D01*
X12600000Y-26675000D02*
G75*
G02*
X12650000Y-26625000I0J50000D01*
G01*
X12650000Y-28025000D02*
G75*
G02*
X12600000Y-27975000I-50000J0D01*
G01*
X13950000Y-26625000D02*
G75*
G02*
X14000000Y-26675000I50000J0D01*
G01*
X14000000Y-27975000D02*
G75*
G02*
X13950000Y-28025000I0J-50000D01*
G01*
X20200000Y-27975000D02*
X20200000Y-26675000D01*
X20250000Y-26625000D02*
X21550000Y-26625000D01*
X21550000Y-28025000D02*
X20250000Y-28025000D01*
X21600000Y-26675000D02*
X21600000Y-27975000D01*
X20200000Y-26675000D02*
G75*
G02*
X20250000Y-26625000I0J50000D01*
G01*
X20250000Y-28025000D02*
G75*
G02*
X20200000Y-27975000I-50000J0D01*
G01*
X21550000Y-26625000D02*
G75*
G02*
X21600000Y-26675000I50000J0D01*
G01*
X21600000Y-27975000D02*
G75*
G02*
X21550000Y-28025000I0J-50000D01*
G01*
X22100000Y-27975000D02*
X22100000Y-26675000D01*
X22150000Y-26625000D02*
X23450000Y-26625000D01*
X23450000Y-28025000D02*
X22150000Y-28025000D01*
X23500000Y-26675000D02*
X23500000Y-27975000D01*
X22100000Y-26675000D02*
G75*
G02*
X22150000Y-26625000I0J50000D01*
G01*
X22150000Y-28025000D02*
G75*
G02*
X22100000Y-27975000I-50000J0D01*
G01*
X23450000Y-26625000D02*
G75*
G02*
X23500000Y-26675000I50000J0D01*
G01*
X23500000Y-27975000D02*
G75*
G02*
X23450000Y-28025000I0J-50000D01*
G01*
X10700000Y-27975000D02*
X10700000Y-26675000D01*
X10750000Y-26625000D02*
X12050000Y-26625000D01*
X12050000Y-28025000D02*
X10750000Y-28025000D01*
X12100000Y-26675000D02*
X12100000Y-27975000D01*
X10700000Y-26675000D02*
G75*
G02*
X10750000Y-26625000I0J50000D01*
G01*
X10750000Y-28025000D02*
G75*
G02*
X10700000Y-27975000I-50000J0D01*
G01*
X12050000Y-26625000D02*
G75*
G02*
X12100000Y-26675000I50000J0D01*
G01*
X12100000Y-27975000D02*
G75*
G02*
X12050000Y-28025000I0J-50000D01*
G01*
X11720000Y-30675000D02*
X11720000Y-31575000D01*
X11820000Y-30675000D02*
X12280000Y-30675000D01*
X11820000Y-31575000D02*
X12280000Y-31575000D01*
X12380000Y-30675000D02*
X12380000Y-31575000D01*
X12550000Y-31775000D02*
X12550000Y-30475000D01*
X12600000Y-30425000D02*
X13900000Y-30425000D01*
X13900000Y-31825000D02*
X12600000Y-31825000D01*
X13950000Y-30475000D02*
X13950000Y-31775000D01*
X14120000Y-30675000D02*
X14120000Y-31575000D01*
X14220000Y-30675000D02*
X14680000Y-30675000D01*
X14220000Y-31575000D02*
X14680000Y-31575000D01*
X14780000Y-30675000D02*
X14780000Y-31575000D01*
X11720000Y-30675000D02*
G75*
G02*
X11820000Y-30675000I50000J0D01*
G01*
X11820000Y-31575000D02*
G75*
G02*
X11720000Y-31575000I-50000J0D01*
G01*
X12280000Y-30675000D02*
G75*
G02*
X12380000Y-30675000I50000J0D01*
G01*
X12380000Y-31575000D02*
G75*
G02*
X12280000Y-31575000I-50000J0D01*
G01*
X12550000Y-30475000D02*
G75*
G02*
X12600000Y-30425000I0J50000D01*
G01*
X12600000Y-31825000D02*
G75*
G02*
X12550000Y-31775000I-50000J0D01*
G01*
X13900000Y-30425000D02*
G75*
G02*
X13950000Y-30475000I50000J0D01*
G01*
X13950000Y-31775000D02*
G75*
G02*
X13900000Y-31825000I0J-50000D01*
G01*
X14120000Y-30675000D02*
G75*
G02*
X14220000Y-30675000I50000J0D01*
G01*
X14220000Y-31575000D02*
G75*
G02*
X14120000Y-31575000I-50000J0D01*
G01*
X14680000Y-30675000D02*
G75*
G02*
X14780000Y-30675000I50000J0D01*
G01*
X14780000Y-31575000D02*
G75*
G02*
X14680000Y-31575000I-50000J0D01*
G01*
X16400000Y-27975000D02*
X16400000Y-26675000D01*
X16450000Y-26625000D02*
X17750000Y-26625000D01*
X17750000Y-28025000D02*
X16450000Y-28025000D01*
X17800000Y-26675000D02*
X17800000Y-27975000D01*
X16400000Y-26675000D02*
G75*
G02*
X16450000Y-26625000I0J50000D01*
G01*
X16450000Y-28025000D02*
G75*
G02*
X16400000Y-27975000I-50000J0D01*
G01*
X17750000Y-26625000D02*
G75*
G02*
X17800000Y-26675000I50000J0D01*
G01*
X17800000Y-27975000D02*
G75*
G02*
X17750000Y-28025000I0J-50000D01*
G01*
X10225000Y-26075000D02*
X10225000Y-24775000D01*
X10275000Y-24725000D02*
X11575000Y-24725000D01*
X11575000Y-26125000D02*
X10275000Y-26125000D01*
X11625000Y-24775000D02*
X11625000Y-26075000D01*
X10225000Y-24775000D02*
G75*
G02*
X10275000Y-24725000I0J50000D01*
G01*
X10275000Y-26125000D02*
G75*
G02*
X10225000Y-26075000I-50000J0D01*
G01*
X11575000Y-24725000D02*
G75*
G02*
X11625000Y-24775000I50000J0D01*
G01*
X11625000Y-26075000D02*
G75*
G02*
X11575000Y-26125000I0J-50000D01*
G01*
X19625000Y-31775000D02*
X19625000Y-30475000D01*
X19675000Y-30425000D02*
X20975000Y-30425000D01*
X20975000Y-31825000D02*
X19675000Y-31825000D01*
X21025000Y-30475000D02*
X21025000Y-31775000D01*
X19625000Y-30475000D02*
G75*
G02*
X19675000Y-30425000I0J50000D01*
G01*
X19675000Y-31825000D02*
G75*
G02*
X19625000Y-31775000I-50000J0D01*
G01*
X20975000Y-30425000D02*
G75*
G02*
X21025000Y-30475000I50000J0D01*
G01*
X21025000Y-31775000D02*
G75*
G02*
X20975000Y-31825000I0J-50000D01*
G01*
X8325000Y-26075000D02*
X8325000Y-24775000D01*
X8375000Y-24725000D02*
X9675000Y-24725000D01*
X9675000Y-26125000D02*
X8375000Y-26125000D01*
X9725000Y-24775000D02*
X9725000Y-26075000D01*
X8325000Y-24775000D02*
G75*
G02*
X8375000Y-24725000I0J50000D01*
G01*
X8375000Y-26125000D02*
G75*
G02*
X8325000Y-26075000I-50000J0D01*
G01*
X9675000Y-24725000D02*
G75*
G02*
X9725000Y-24775000I50000J0D01*
G01*
X9725000Y-26075000D02*
G75*
G02*
X9675000Y-26125000I0J-50000D01*
G01*
X4050000Y-29875000D02*
X4050000Y-28575000D01*
X4100000Y-28525000D02*
X5400000Y-28525000D01*
X5400000Y-29925000D02*
X4100000Y-29925000D01*
X5450000Y-28575000D02*
X5450000Y-29875000D01*
X4050000Y-28575000D02*
G75*
G02*
X4100000Y-28525000I0J50000D01*
G01*
X4100000Y-29925000D02*
G75*
G02*
X4050000Y-29875000I-50000J0D01*
G01*
X5400000Y-28525000D02*
G75*
G02*
X5450000Y-28575000I50000J0D01*
G01*
X5450000Y-29875000D02*
G75*
G02*
X5400000Y-29925000I0J-50000D01*
G01*
X21150000Y-29875000D02*
X21150000Y-28575000D01*
X21200000Y-28525000D02*
X22500000Y-28525000D01*
X22500000Y-29925000D02*
X21200000Y-29925000D01*
X22550000Y-28575000D02*
X22550000Y-29875000D01*
X21150000Y-28575000D02*
G75*
G02*
X21200000Y-28525000I0J50000D01*
G01*
X21200000Y-29925000D02*
G75*
G02*
X21150000Y-29875000I-50000J0D01*
G01*
X22500000Y-28525000D02*
G75*
G02*
X22550000Y-28575000I50000J0D01*
G01*
X22550000Y-29875000D02*
G75*
G02*
X22500000Y-29925000I0J-50000D01*
G01*
X15825000Y-31775000D02*
X15825000Y-30475000D01*
X15875000Y-30425000D02*
X17175000Y-30425000D01*
X17175000Y-31825000D02*
X15875000Y-31825000D01*
X17225000Y-30475000D02*
X17225000Y-31775000D01*
X15825000Y-30475000D02*
G75*
G02*
X15875000Y-30425000I0J50000D01*
G01*
X15875000Y-31825000D02*
G75*
G02*
X15825000Y-31775000I-50000J0D01*
G01*
X17175000Y-30425000D02*
G75*
G02*
X17225000Y-30475000I50000J0D01*
G01*
X17225000Y-31775000D02*
G75*
G02*
X17175000Y-31825000I0J-50000D01*
G01*
X17725000Y-31775000D02*
X17725000Y-30475000D01*
X17775000Y-30425000D02*
X19075000Y-30425000D01*
X19075000Y-31825000D02*
X17775000Y-31825000D01*
X19125000Y-30475000D02*
X19125000Y-31775000D01*
X17725000Y-30475000D02*
G75*
G02*
X17775000Y-30425000I0J50000D01*
G01*
X17775000Y-31825000D02*
G75*
G02*
X17725000Y-31775000I-50000J0D01*
G01*
X19075000Y-30425000D02*
G75*
G02*
X19125000Y-30475000I50000J0D01*
G01*
X19125000Y-31775000D02*
G75*
G02*
X19075000Y-31825000I0J-50000D01*
G01*
X3100000Y-27975000D02*
X3100000Y-26675000D01*
X3150000Y-26625000D02*
X4450000Y-26625000D01*
X4450000Y-28025000D02*
X3150000Y-28025000D01*
X4500000Y-26675000D02*
X4500000Y-27975000D01*
X3100000Y-26675000D02*
G75*
G02*
X3150000Y-26625000I0J50000D01*
G01*
X3150000Y-28025000D02*
G75*
G02*
X3100000Y-27975000I-50000J0D01*
G01*
X4450000Y-26625000D02*
G75*
G02*
X4500000Y-26675000I50000J0D01*
G01*
X4500000Y-27975000D02*
G75*
G02*
X4450000Y-28025000I0J-50000D01*
G01*
X5000000Y-27975000D02*
X5000000Y-26675000D01*
X5050000Y-26625000D02*
X6350000Y-26625000D01*
X6350000Y-28025000D02*
X5050000Y-28025000D01*
X6400000Y-26675000D02*
X6400000Y-27975000D01*
X5000000Y-26675000D02*
G75*
G02*
X5050000Y-26625000I0J50000D01*
G01*
X5050000Y-28025000D02*
G75*
G02*
X5000000Y-27975000I-50000J0D01*
G01*
X6350000Y-26625000D02*
G75*
G02*
X6400000Y-26675000I50000J0D01*
G01*
X6400000Y-27975000D02*
G75*
G02*
X6350000Y-28025000I0J-50000D01*
G01*
X23525000Y-26075000D02*
X23525000Y-24775000D01*
X23575000Y-24725000D02*
X24875000Y-24725000D01*
X24875000Y-26125000D02*
X23575000Y-26125000D01*
X24925000Y-24775000D02*
X24925000Y-26075000D01*
X23525000Y-24775000D02*
G75*
G02*
X23575000Y-24725000I0J50000D01*
G01*
X23575000Y-26125000D02*
G75*
G02*
X23525000Y-26075000I-50000J0D01*
G01*
X24875000Y-24725000D02*
G75*
G02*
X24925000Y-24775000I50000J0D01*
G01*
X24925000Y-26075000D02*
G75*
G02*
X24875000Y-26125000I0J-50000D01*
G01*
X2625000Y-26075000D02*
X2625000Y-24775000D01*
X2675000Y-24725000D02*
X3975000Y-24725000D01*
X3975000Y-26125000D02*
X2675000Y-26125000D01*
X4025000Y-24775000D02*
X4025000Y-26075000D01*
X2625000Y-24775000D02*
G75*
G02*
X2675000Y-24725000I0J50000D01*
G01*
X2675000Y-26125000D02*
G75*
G02*
X2625000Y-26075000I-50000J0D01*
G01*
X3975000Y-24725000D02*
G75*
G02*
X4025000Y-24775000I50000J0D01*
G01*
X4025000Y-26075000D02*
G75*
G02*
X3975000Y-26125000I0J-50000D01*
G01*
D11*
X2375000Y-24475000D02*
X2575000Y-24675000D01*
X2575000Y-24475000D02*
X2375000Y-24675000D01*
X2375000Y-31875000D02*
X2575000Y-32075000D01*
X2575000Y-31875000D02*
X2375000Y-32075000D01*
X8925000Y-31875000D02*
X9125000Y-32075000D01*
X9125000Y-31875000D02*
X8925000Y-32075000D01*
X9875000Y-24475000D02*
X10075000Y-24675000D01*
X10075000Y-24475000D02*
X9875000Y-24675000D01*
X17375000Y-31875000D02*
X17575000Y-32075000D01*
X17575000Y-31875000D02*
X17375000Y-32075000D01*
X17475000Y-24475000D02*
X17675000Y-24675000D01*
X17675000Y-24475000D02*
X17475000Y-24675000D01*
X24975000Y-24475000D02*
X25175000Y-24675000D01*
X25175000Y-24475000D02*
X24975000Y-24675000D01*
X24975000Y-31875000D02*
X25175000Y-32075000D01*
X25175000Y-31875000D02*
X24975000Y-32075000D01*
X2533277Y-32488984D02*
X2533277Y-32288984D01*
X2533277Y-32288984D02*
X2580896Y-32288984D01*
X2580896Y-32288984D02*
X2609467Y-32298508D01*
X2609467Y-32298508D02*
X2628515Y-32317555D01*
X2628515Y-32317555D02*
X2638039Y-32336603D01*
X2638039Y-32336603D02*
X2647563Y-32374698D01*
X2647563Y-32374698D02*
X2647563Y-32403269D01*
X2647563Y-32403269D02*
X2638039Y-32441365D01*
X2638039Y-32441365D02*
X2628515Y-32460412D01*
X2628515Y-32460412D02*
X2609467Y-32479460D01*
X2609467Y-32479460D02*
X2580896Y-32488984D01*
X2580896Y-32488984D02*
X2533277Y-32488984D01*
X2733277Y-32488984D02*
X2733277Y-32355650D01*
X2733277Y-32393746D02*
X2742801Y-32374698D01*
X2742801Y-32374698D02*
X2752324Y-32365174D01*
X2752324Y-32365174D02*
X2771372Y-32355650D01*
X2771372Y-32355650D02*
X2790420Y-32355650D01*
X2857086Y-32488984D02*
X2857086Y-32355650D01*
X2857086Y-32288984D02*
X2847562Y-32298508D01*
X2847562Y-32298508D02*
X2857086Y-32308031D01*
X2857086Y-32308031D02*
X2866610Y-32298508D01*
X2866610Y-32298508D02*
X2857086Y-32288984D01*
X2857086Y-32288984D02*
X2857086Y-32308031D01*
X2980896Y-32488984D02*
X2961848Y-32479460D01*
X2961848Y-32479460D02*
X2952324Y-32460412D01*
X2952324Y-32460412D02*
X2952324Y-32288984D01*
X3085658Y-32488984D02*
X3066610Y-32479460D01*
X3066610Y-32479460D02*
X3057086Y-32460412D01*
X3057086Y-32460412D02*
X3057086Y-32288984D01*
X3314229Y-32488984D02*
X3314229Y-32288984D01*
X3314229Y-32288984D02*
X3380896Y-32431841D01*
X3380896Y-32431841D02*
X3447562Y-32288984D01*
X3447562Y-32288984D02*
X3447562Y-32488984D01*
X3628515Y-32488984D02*
X3628515Y-32384222D01*
X3628515Y-32384222D02*
X3618991Y-32365174D01*
X3618991Y-32365174D02*
X3599943Y-32355650D01*
X3599943Y-32355650D02*
X3561848Y-32355650D01*
X3561848Y-32355650D02*
X3542801Y-32365174D01*
X3628515Y-32479460D02*
X3609467Y-32488984D01*
X3609467Y-32488984D02*
X3561848Y-32488984D01*
X3561848Y-32488984D02*
X3542801Y-32479460D01*
X3542801Y-32479460D02*
X3533277Y-32460412D01*
X3533277Y-32460412D02*
X3533277Y-32441365D01*
X3533277Y-32441365D02*
X3542801Y-32422317D01*
X3542801Y-32422317D02*
X3561848Y-32412793D01*
X3561848Y-32412793D02*
X3609467Y-32412793D01*
X3609467Y-32412793D02*
X3628515Y-32403269D01*
X3723753Y-32355650D02*
X3723753Y-32555650D01*
X3723753Y-32365174D02*
X3742801Y-32355650D01*
X3742801Y-32355650D02*
X3780896Y-32355650D01*
X3780896Y-32355650D02*
X3799943Y-32365174D01*
X3799943Y-32365174D02*
X3809467Y-32374698D01*
X3809467Y-32374698D02*
X3818991Y-32393746D01*
X3818991Y-32393746D02*
X3818991Y-32450888D01*
X3818991Y-32450888D02*
X3809467Y-32469936D01*
X3809467Y-32469936D02*
X3799943Y-32479460D01*
X3799943Y-32479460D02*
X3780896Y-32488984D01*
X3780896Y-32488984D02*
X3742801Y-32488984D01*
X3742801Y-32488984D02*
X3723753Y-32479460D01*
X3904705Y-32469936D02*
X3914229Y-32479460D01*
X3914229Y-32479460D02*
X3904705Y-32488984D01*
X3904705Y-32488984D02*
X3895182Y-32479460D01*
X3895182Y-32479460D02*
X3904705Y-32469936D01*
X3904705Y-32469936D02*
X3904705Y-32488984D01*
X3904705Y-32365174D02*
X3914229Y-32374698D01*
X3914229Y-32374698D02*
X3904705Y-32384222D01*
X3904705Y-32384222D02*
X3895182Y-32374698D01*
X3895182Y-32374698D02*
X3904705Y-32365174D01*
X3904705Y-32365174D02*
X3904705Y-32384222D01*
X2072500Y-32717500D02*
X2272500Y-32917500D01*
X2272500Y-32717500D02*
X2072500Y-32917500D01*
X2523753Y-32728031D02*
X2533277Y-32718508D01*
X2533277Y-32718508D02*
X2552324Y-32708984D01*
X2552324Y-32708984D02*
X2599944Y-32708984D01*
X2599944Y-32708984D02*
X2618991Y-32718508D01*
X2618991Y-32718508D02*
X2628515Y-32728031D01*
X2628515Y-32728031D02*
X2638039Y-32747079D01*
X2638039Y-32747079D02*
X2638039Y-32766127D01*
X2638039Y-32766127D02*
X2628515Y-32794698D01*
X2628515Y-32794698D02*
X2514229Y-32908984D01*
X2514229Y-32908984D02*
X2638039Y-32908984D01*
X2723753Y-32889936D02*
X2733277Y-32899460D01*
X2733277Y-32899460D02*
X2723753Y-32908984D01*
X2723753Y-32908984D02*
X2714229Y-32899460D01*
X2714229Y-32899460D02*
X2723753Y-32889936D01*
X2723753Y-32889936D02*
X2723753Y-32908984D01*
X2857086Y-32708984D02*
X2876134Y-32708984D01*
X2876134Y-32708984D02*
X2895182Y-32718508D01*
X2895182Y-32718508D02*
X2904705Y-32728031D01*
X2904705Y-32728031D02*
X2914229Y-32747079D01*
X2914229Y-32747079D02*
X2923753Y-32785174D01*
X2923753Y-32785174D02*
X2923753Y-32832793D01*
X2923753Y-32832793D02*
X2914229Y-32870888D01*
X2914229Y-32870888D02*
X2904705Y-32889936D01*
X2904705Y-32889936D02*
X2895182Y-32899460D01*
X2895182Y-32899460D02*
X2876134Y-32908984D01*
X2876134Y-32908984D02*
X2857086Y-32908984D01*
X2857086Y-32908984D02*
X2838039Y-32899460D01*
X2838039Y-32899460D02*
X2828515Y-32889936D01*
X2828515Y-32889936D02*
X2818991Y-32870888D01*
X2818991Y-32870888D02*
X2809467Y-32832793D01*
X2809467Y-32832793D02*
X2809467Y-32785174D01*
X2809467Y-32785174D02*
X2818991Y-32747079D01*
X2818991Y-32747079D02*
X2828515Y-32728031D01*
X2828515Y-32728031D02*
X2838039Y-32718508D01*
X2838039Y-32718508D02*
X2857086Y-32708984D01*
X3047562Y-32708984D02*
X3066610Y-32708984D01*
X3066610Y-32708984D02*
X3085658Y-32718508D01*
X3085658Y-32718508D02*
X3095182Y-32728031D01*
X3095182Y-32728031D02*
X3104705Y-32747079D01*
X3104705Y-32747079D02*
X3114229Y-32785174D01*
X3114229Y-32785174D02*
X3114229Y-32832793D01*
X3114229Y-32832793D02*
X3104705Y-32870888D01*
X3104705Y-32870888D02*
X3095182Y-32889936D01*
X3095182Y-32889936D02*
X3085658Y-32899460D01*
X3085658Y-32899460D02*
X3066610Y-32908984D01*
X3066610Y-32908984D02*
X3047562Y-32908984D01*
X3047562Y-32908984D02*
X3028515Y-32899460D01*
X3028515Y-32899460D02*
X3018991Y-32889936D01*
X3018991Y-32889936D02*
X3009467Y-32870888D01*
X3009467Y-32870888D02*
X2999943Y-32832793D01*
X2999943Y-32832793D02*
X2999943Y-32785174D01*
X2999943Y-32785174D02*
X3009467Y-32747079D01*
X3009467Y-32747079D02*
X3018991Y-32728031D01*
X3018991Y-32728031D02*
X3028515Y-32718508D01*
X3028515Y-32718508D02*
X3047562Y-32708984D01*
X3238039Y-32708984D02*
X3257086Y-32708984D01*
X3257086Y-32708984D02*
X3276134Y-32718508D01*
X3276134Y-32718508D02*
X3285658Y-32728031D01*
X3285658Y-32728031D02*
X3295182Y-32747079D01*
X3295182Y-32747079D02*
X3304705Y-32785174D01*
X3304705Y-32785174D02*
X3304705Y-32832793D01*
X3304705Y-32832793D02*
X3295182Y-32870888D01*
X3295182Y-32870888D02*
X3285658Y-32889936D01*
X3285658Y-32889936D02*
X3276134Y-32899460D01*
X3276134Y-32899460D02*
X3257086Y-32908984D01*
X3257086Y-32908984D02*
X3238039Y-32908984D01*
X3238039Y-32908984D02*
X3218991Y-32899460D01*
X3218991Y-32899460D02*
X3209467Y-32889936D01*
X3209467Y-32889936D02*
X3199943Y-32870888D01*
X3199943Y-32870888D02*
X3190420Y-32832793D01*
X3190420Y-32832793D02*
X3190420Y-32785174D01*
X3190420Y-32785174D02*
X3199943Y-32747079D01*
X3199943Y-32747079D02*
X3209467Y-32728031D01*
X3209467Y-32728031D02*
X3218991Y-32718508D01*
X3218991Y-32718508D02*
X3238039Y-32708984D01*
X3390420Y-32908984D02*
X3390420Y-32775650D01*
X3390420Y-32794698D02*
X3399943Y-32785174D01*
X3399943Y-32785174D02*
X3418991Y-32775650D01*
X3418991Y-32775650D02*
X3447563Y-32775650D01*
X3447563Y-32775650D02*
X3466610Y-32785174D01*
X3466610Y-32785174D02*
X3476134Y-32804222D01*
X3476134Y-32804222D02*
X3476134Y-32908984D01*
X3476134Y-32804222D02*
X3485658Y-32785174D01*
X3485658Y-32785174D02*
X3504705Y-32775650D01*
X3504705Y-32775650D02*
X3533277Y-32775650D01*
X3533277Y-32775650D02*
X3552324Y-32785174D01*
X3552324Y-32785174D02*
X3561848Y-32804222D01*
X3561848Y-32804222D02*
X3561848Y-32908984D01*
X3657086Y-32908984D02*
X3657086Y-32775650D01*
X3657086Y-32794698D02*
X3666610Y-32785174D01*
X3666610Y-32785174D02*
X3685658Y-32775650D01*
X3685658Y-32775650D02*
X3714229Y-32775650D01*
X3714229Y-32775650D02*
X3733277Y-32785174D01*
X3733277Y-32785174D02*
X3742801Y-32804222D01*
X3742801Y-32804222D02*
X3742801Y-32908984D01*
X3742801Y-32804222D02*
X3752324Y-32785174D01*
X3752324Y-32785174D02*
X3771372Y-32775650D01*
X3771372Y-32775650D02*
X3799943Y-32775650D01*
X3799943Y-32775650D02*
X3818991Y-32785174D01*
X3818991Y-32785174D02*
X3828515Y-32804222D01*
X3828515Y-32804222D02*
X3828515Y-32908984D01*
X4218991Y-32699460D02*
X4047563Y-32956603D01*
X4476134Y-32708984D02*
X4495182Y-32708984D01*
X4495182Y-32708984D02*
X4514229Y-32718508D01*
X4514229Y-32718508D02*
X4523753Y-32728031D01*
X4523753Y-32728031D02*
X4533277Y-32747079D01*
X4533277Y-32747079D02*
X4542801Y-32785174D01*
X4542801Y-32785174D02*
X4542801Y-32832793D01*
X4542801Y-32832793D02*
X4533277Y-32870888D01*
X4533277Y-32870888D02*
X4523753Y-32889936D01*
X4523753Y-32889936D02*
X4514229Y-32899460D01*
X4514229Y-32899460D02*
X4495182Y-32908984D01*
X4495182Y-32908984D02*
X4476134Y-32908984D01*
X4476134Y-32908984D02*
X4457087Y-32899460D01*
X4457087Y-32899460D02*
X4447563Y-32889936D01*
X4447563Y-32889936D02*
X4438039Y-32870888D01*
X4438039Y-32870888D02*
X4428515Y-32832793D01*
X4428515Y-32832793D02*
X4428515Y-32785174D01*
X4428515Y-32785174D02*
X4438039Y-32747079D01*
X4438039Y-32747079D02*
X4447563Y-32728031D01*
X4447563Y-32728031D02*
X4457087Y-32718508D01*
X4457087Y-32718508D02*
X4476134Y-32708984D01*
X4628515Y-32889936D02*
X4638039Y-32899460D01*
X4638039Y-32899460D02*
X4628515Y-32908984D01*
X4628515Y-32908984D02*
X4618991Y-32899460D01*
X4618991Y-32899460D02*
X4628515Y-32889936D01*
X4628515Y-32889936D02*
X4628515Y-32908984D01*
X4761848Y-32708984D02*
X4780896Y-32708984D01*
X4780896Y-32708984D02*
X4799944Y-32718508D01*
X4799944Y-32718508D02*
X4809468Y-32728031D01*
X4809468Y-32728031D02*
X4818991Y-32747079D01*
X4818991Y-32747079D02*
X4828515Y-32785174D01*
X4828515Y-32785174D02*
X4828515Y-32832793D01*
X4828515Y-32832793D02*
X4818991Y-32870888D01*
X4818991Y-32870888D02*
X4809468Y-32889936D01*
X4809468Y-32889936D02*
X4799944Y-32899460D01*
X4799944Y-32899460D02*
X4780896Y-32908984D01*
X4780896Y-32908984D02*
X4761848Y-32908984D01*
X4761848Y-32908984D02*
X4742801Y-32899460D01*
X4742801Y-32899460D02*
X4733277Y-32889936D01*
X4733277Y-32889936D02*
X4723753Y-32870888D01*
X4723753Y-32870888D02*
X4714229Y-32832793D01*
X4714229Y-32832793D02*
X4714229Y-32785174D01*
X4714229Y-32785174D02*
X4723753Y-32747079D01*
X4723753Y-32747079D02*
X4733277Y-32728031D01*
X4733277Y-32728031D02*
X4742801Y-32718508D01*
X4742801Y-32718508D02*
X4761848Y-32708984D01*
X4895182Y-32708984D02*
X5028515Y-32708984D01*
X5028515Y-32708984D02*
X4942801Y-32908984D01*
X5133277Y-32794698D02*
X5114229Y-32785174D01*
X5114229Y-32785174D02*
X5104706Y-32775650D01*
X5104706Y-32775650D02*
X5095182Y-32756603D01*
X5095182Y-32756603D02*
X5095182Y-32747079D01*
X5095182Y-32747079D02*
X5104706Y-32728031D01*
X5104706Y-32728031D02*
X5114229Y-32718508D01*
X5114229Y-32718508D02*
X5133277Y-32708984D01*
X5133277Y-32708984D02*
X5171372Y-32708984D01*
X5171372Y-32708984D02*
X5190420Y-32718508D01*
X5190420Y-32718508D02*
X5199944Y-32728031D01*
X5199944Y-32728031D02*
X5209468Y-32747079D01*
X5209468Y-32747079D02*
X5209468Y-32756603D01*
X5209468Y-32756603D02*
X5199944Y-32775650D01*
X5199944Y-32775650D02*
X5190420Y-32785174D01*
X5190420Y-32785174D02*
X5171372Y-32794698D01*
X5171372Y-32794698D02*
X5133277Y-32794698D01*
X5133277Y-32794698D02*
X5114229Y-32804222D01*
X5114229Y-32804222D02*
X5104706Y-32813746D01*
X5104706Y-32813746D02*
X5095182Y-32832793D01*
X5095182Y-32832793D02*
X5095182Y-32870888D01*
X5095182Y-32870888D02*
X5104706Y-32889936D01*
X5104706Y-32889936D02*
X5114229Y-32899460D01*
X5114229Y-32899460D02*
X5133277Y-32908984D01*
X5133277Y-32908984D02*
X5171372Y-32908984D01*
X5171372Y-32908984D02*
X5190420Y-32899460D01*
X5190420Y-32899460D02*
X5199944Y-32889936D01*
X5199944Y-32889936D02*
X5209468Y-32870888D01*
X5209468Y-32870888D02*
X5209468Y-32832793D01*
X5209468Y-32832793D02*
X5199944Y-32813746D01*
X5199944Y-32813746D02*
X5190420Y-32804222D01*
X5190420Y-32804222D02*
X5171372Y-32794698D01*
X5276134Y-32708984D02*
X5409468Y-32708984D01*
X5409468Y-32708984D02*
X5323753Y-32908984D01*
X5476134Y-32708984D02*
X5476134Y-32747079D01*
X5552325Y-32708984D02*
X5552325Y-32747079D01*
X5847563Y-32985174D02*
X5838039Y-32975650D01*
X5838039Y-32975650D02*
X5818991Y-32947079D01*
X5818991Y-32947079D02*
X5809468Y-32928031D01*
X5809468Y-32928031D02*
X5799944Y-32899460D01*
X5799944Y-32899460D02*
X5790420Y-32851841D01*
X5790420Y-32851841D02*
X5790420Y-32813746D01*
X5790420Y-32813746D02*
X5799944Y-32766127D01*
X5799944Y-32766127D02*
X5809468Y-32737555D01*
X5809468Y-32737555D02*
X5818991Y-32718508D01*
X5818991Y-32718508D02*
X5838039Y-32689936D01*
X5838039Y-32689936D02*
X5847563Y-32680412D01*
X5952325Y-32794698D02*
X5933277Y-32785174D01*
X5933277Y-32785174D02*
X5923753Y-32775650D01*
X5923753Y-32775650D02*
X5914229Y-32756603D01*
X5914229Y-32756603D02*
X5914229Y-32747079D01*
X5914229Y-32747079D02*
X5923753Y-32728031D01*
X5923753Y-32728031D02*
X5933277Y-32718508D01*
X5933277Y-32718508D02*
X5952325Y-32708984D01*
X5952325Y-32708984D02*
X5990420Y-32708984D01*
X5990420Y-32708984D02*
X6009468Y-32718508D01*
X6009468Y-32718508D02*
X6018991Y-32728031D01*
X6018991Y-32728031D02*
X6028515Y-32747079D01*
X6028515Y-32747079D02*
X6028515Y-32756603D01*
X6028515Y-32756603D02*
X6018991Y-32775650D01*
X6018991Y-32775650D02*
X6009468Y-32785174D01*
X6009468Y-32785174D02*
X5990420Y-32794698D01*
X5990420Y-32794698D02*
X5952325Y-32794698D01*
X5952325Y-32794698D02*
X5933277Y-32804222D01*
X5933277Y-32804222D02*
X5923753Y-32813746D01*
X5923753Y-32813746D02*
X5914229Y-32832793D01*
X5914229Y-32832793D02*
X5914229Y-32870888D01*
X5914229Y-32870888D02*
X5923753Y-32889936D01*
X5923753Y-32889936D02*
X5933277Y-32899460D01*
X5933277Y-32899460D02*
X5952325Y-32908984D01*
X5952325Y-32908984D02*
X5990420Y-32908984D01*
X5990420Y-32908984D02*
X6009468Y-32899460D01*
X6009468Y-32899460D02*
X6018991Y-32889936D01*
X6018991Y-32889936D02*
X6028515Y-32870888D01*
X6028515Y-32870888D02*
X6028515Y-32832793D01*
X6028515Y-32832793D02*
X6018991Y-32813746D01*
X6018991Y-32813746D02*
X6009468Y-32804222D01*
X6009468Y-32804222D02*
X5990420Y-32794698D01*
X6266610Y-32908984D02*
X6266610Y-32708984D01*
X6352325Y-32908984D02*
X6352325Y-32804222D01*
X6352325Y-32804222D02*
X6342801Y-32785174D01*
X6342801Y-32785174D02*
X6323753Y-32775650D01*
X6323753Y-32775650D02*
X6295182Y-32775650D01*
X6295182Y-32775650D02*
X6276134Y-32785174D01*
X6276134Y-32785174D02*
X6266610Y-32794698D01*
X6476134Y-32908984D02*
X6457087Y-32899460D01*
X6457087Y-32899460D02*
X6447563Y-32889936D01*
X6447563Y-32889936D02*
X6438039Y-32870888D01*
X6438039Y-32870888D02*
X6438039Y-32813746D01*
X6438039Y-32813746D02*
X6447563Y-32794698D01*
X6447563Y-32794698D02*
X6457087Y-32785174D01*
X6457087Y-32785174D02*
X6476134Y-32775650D01*
X6476134Y-32775650D02*
X6504706Y-32775650D01*
X6504706Y-32775650D02*
X6523753Y-32785174D01*
X6523753Y-32785174D02*
X6533277Y-32794698D01*
X6533277Y-32794698D02*
X6542801Y-32813746D01*
X6542801Y-32813746D02*
X6542801Y-32870888D01*
X6542801Y-32870888D02*
X6533277Y-32889936D01*
X6533277Y-32889936D02*
X6523753Y-32899460D01*
X6523753Y-32899460D02*
X6504706Y-32908984D01*
X6504706Y-32908984D02*
X6476134Y-32908984D01*
X6657087Y-32908984D02*
X6638039Y-32899460D01*
X6638039Y-32899460D02*
X6628515Y-32880412D01*
X6628515Y-32880412D02*
X6628515Y-32708984D01*
X6809468Y-32899460D02*
X6790420Y-32908984D01*
X6790420Y-32908984D02*
X6752325Y-32908984D01*
X6752325Y-32908984D02*
X6733277Y-32899460D01*
X6733277Y-32899460D02*
X6723753Y-32880412D01*
X6723753Y-32880412D02*
X6723753Y-32804222D01*
X6723753Y-32804222D02*
X6733277Y-32785174D01*
X6733277Y-32785174D02*
X6752325Y-32775650D01*
X6752325Y-32775650D02*
X6790420Y-32775650D01*
X6790420Y-32775650D02*
X6809468Y-32785174D01*
X6809468Y-32785174D02*
X6818991Y-32804222D01*
X6818991Y-32804222D02*
X6818991Y-32823269D01*
X6818991Y-32823269D02*
X6723753Y-32842317D01*
X6895182Y-32899460D02*
X6914230Y-32908984D01*
X6914230Y-32908984D02*
X6952325Y-32908984D01*
X6952325Y-32908984D02*
X6971372Y-32899460D01*
X6971372Y-32899460D02*
X6980896Y-32880412D01*
X6980896Y-32880412D02*
X6980896Y-32870888D01*
X6980896Y-32870888D02*
X6971372Y-32851841D01*
X6971372Y-32851841D02*
X6952325Y-32842317D01*
X6952325Y-32842317D02*
X6923753Y-32842317D01*
X6923753Y-32842317D02*
X6904706Y-32832793D01*
X6904706Y-32832793D02*
X6895182Y-32813746D01*
X6895182Y-32813746D02*
X6895182Y-32804222D01*
X6895182Y-32804222D02*
X6904706Y-32785174D01*
X6904706Y-32785174D02*
X6923753Y-32775650D01*
X6923753Y-32775650D02*
X6952325Y-32775650D01*
X6952325Y-32775650D02*
X6971372Y-32785174D01*
X7047563Y-32985174D02*
X7057087Y-32975650D01*
X7057087Y-32975650D02*
X7076134Y-32947079D01*
X7076134Y-32947079D02*
X7085658Y-32928031D01*
X7085658Y-32928031D02*
X7095182Y-32899460D01*
X7095182Y-32899460D02*
X7104706Y-32851841D01*
X7104706Y-32851841D02*
X7104706Y-32813746D01*
X7104706Y-32813746D02*
X7095182Y-32766127D01*
X7095182Y-32766127D02*
X7085658Y-32737555D01*
X7085658Y-32737555D02*
X7076134Y-32718508D01*
X7076134Y-32718508D02*
X7057087Y-32689936D01*
X7057087Y-32689936D02*
X7047563Y-32680412D01*
X7409468Y-32985174D02*
X7399944Y-32975650D01*
X7399944Y-32975650D02*
X7380896Y-32947079D01*
X7380896Y-32947079D02*
X7371372Y-32928031D01*
X7371372Y-32928031D02*
X7361849Y-32899460D01*
X7361849Y-32899460D02*
X7352325Y-32851841D01*
X7352325Y-32851841D02*
X7352325Y-32813746D01*
X7352325Y-32813746D02*
X7361849Y-32766127D01*
X7361849Y-32766127D02*
X7371372Y-32737555D01*
X7371372Y-32737555D02*
X7380896Y-32718508D01*
X7380896Y-32718508D02*
X7399944Y-32689936D01*
X7399944Y-32689936D02*
X7409468Y-32680412D01*
X7485658Y-32775650D02*
X7485658Y-32908984D01*
X7485658Y-32794698D02*
X7495182Y-32785174D01*
X7495182Y-32785174D02*
X7514230Y-32775650D01*
X7514230Y-32775650D02*
X7542801Y-32775650D01*
X7542801Y-32775650D02*
X7561849Y-32785174D01*
X7561849Y-32785174D02*
X7571372Y-32804222D01*
X7571372Y-32804222D02*
X7571372Y-32908984D01*
X7695182Y-32908984D02*
X7676134Y-32899460D01*
X7676134Y-32899460D02*
X7666611Y-32889936D01*
X7666611Y-32889936D02*
X7657087Y-32870888D01*
X7657087Y-32870888D02*
X7657087Y-32813746D01*
X7657087Y-32813746D02*
X7666611Y-32794698D01*
X7666611Y-32794698D02*
X7676134Y-32785174D01*
X7676134Y-32785174D02*
X7695182Y-32775650D01*
X7695182Y-32775650D02*
X7723753Y-32775650D01*
X7723753Y-32775650D02*
X7742801Y-32785174D01*
X7742801Y-32785174D02*
X7752325Y-32794698D01*
X7752325Y-32794698D02*
X7761849Y-32813746D01*
X7761849Y-32813746D02*
X7761849Y-32870888D01*
X7761849Y-32870888D02*
X7752325Y-32889936D01*
X7752325Y-32889936D02*
X7742801Y-32899460D01*
X7742801Y-32899460D02*
X7723753Y-32908984D01*
X7723753Y-32908984D02*
X7695182Y-32908984D01*
X7818992Y-32775650D02*
X7895182Y-32775650D01*
X7847563Y-32708984D02*
X7847563Y-32880412D01*
X7847563Y-32880412D02*
X7857087Y-32899460D01*
X7857087Y-32899460D02*
X7876134Y-32908984D01*
X7876134Y-32908984D02*
X7895182Y-32908984D01*
X8114230Y-32775650D02*
X8114230Y-32975650D01*
X8114230Y-32785174D02*
X8133277Y-32775650D01*
X8133277Y-32775650D02*
X8171373Y-32775650D01*
X8171373Y-32775650D02*
X8190420Y-32785174D01*
X8190420Y-32785174D02*
X8199944Y-32794698D01*
X8199944Y-32794698D02*
X8209468Y-32813746D01*
X8209468Y-32813746D02*
X8209468Y-32870888D01*
X8209468Y-32870888D02*
X8199944Y-32889936D01*
X8199944Y-32889936D02*
X8190420Y-32899460D01*
X8190420Y-32899460D02*
X8171373Y-32908984D01*
X8171373Y-32908984D02*
X8133277Y-32908984D01*
X8133277Y-32908984D02*
X8114230Y-32899460D01*
X8323753Y-32908984D02*
X8304706Y-32899460D01*
X8304706Y-32899460D02*
X8295182Y-32880412D01*
X8295182Y-32880412D02*
X8295182Y-32708984D01*
X8485658Y-32908984D02*
X8485658Y-32804222D01*
X8485658Y-32804222D02*
X8476135Y-32785174D01*
X8476135Y-32785174D02*
X8457087Y-32775650D01*
X8457087Y-32775650D02*
X8418992Y-32775650D01*
X8418992Y-32775650D02*
X8399944Y-32785174D01*
X8485658Y-32899460D02*
X8466611Y-32908984D01*
X8466611Y-32908984D02*
X8418992Y-32908984D01*
X8418992Y-32908984D02*
X8399944Y-32899460D01*
X8399944Y-32899460D02*
X8390420Y-32880412D01*
X8390420Y-32880412D02*
X8390420Y-32861365D01*
X8390420Y-32861365D02*
X8399944Y-32842317D01*
X8399944Y-32842317D02*
X8418992Y-32832793D01*
X8418992Y-32832793D02*
X8466611Y-32832793D01*
X8466611Y-32832793D02*
X8485658Y-32823269D01*
X8552325Y-32775650D02*
X8628515Y-32775650D01*
X8580896Y-32708984D02*
X8580896Y-32880412D01*
X8580896Y-32880412D02*
X8590420Y-32899460D01*
X8590420Y-32899460D02*
X8609468Y-32908984D01*
X8609468Y-32908984D02*
X8628515Y-32908984D01*
X8771373Y-32899460D02*
X8752325Y-32908984D01*
X8752325Y-32908984D02*
X8714230Y-32908984D01*
X8714230Y-32908984D02*
X8695182Y-32899460D01*
X8695182Y-32899460D02*
X8685658Y-32880412D01*
X8685658Y-32880412D02*
X8685658Y-32804222D01*
X8685658Y-32804222D02*
X8695182Y-32785174D01*
X8695182Y-32785174D02*
X8714230Y-32775650D01*
X8714230Y-32775650D02*
X8752325Y-32775650D01*
X8752325Y-32775650D02*
X8771373Y-32785174D01*
X8771373Y-32785174D02*
X8780896Y-32804222D01*
X8780896Y-32804222D02*
X8780896Y-32823269D01*
X8780896Y-32823269D02*
X8685658Y-32842317D01*
X8952325Y-32908984D02*
X8952325Y-32708984D01*
X8952325Y-32899460D02*
X8933277Y-32908984D01*
X8933277Y-32908984D02*
X8895182Y-32908984D01*
X8895182Y-32908984D02*
X8876135Y-32899460D01*
X8876135Y-32899460D02*
X8866611Y-32889936D01*
X8866611Y-32889936D02*
X8857087Y-32870888D01*
X8857087Y-32870888D02*
X8857087Y-32813746D01*
X8857087Y-32813746D02*
X8866611Y-32794698D01*
X8866611Y-32794698D02*
X8876135Y-32785174D01*
X8876135Y-32785174D02*
X8895182Y-32775650D01*
X8895182Y-32775650D02*
X8933277Y-32775650D01*
X8933277Y-32775650D02*
X8952325Y-32785174D01*
X9028516Y-32985174D02*
X9038039Y-32975650D01*
X9038039Y-32975650D02*
X9057087Y-32947079D01*
X9057087Y-32947079D02*
X9066611Y-32928031D01*
X9066611Y-32928031D02*
X9076135Y-32899460D01*
X9076135Y-32899460D02*
X9085658Y-32851841D01*
X9085658Y-32851841D02*
X9085658Y-32813746D01*
X9085658Y-32813746D02*
X9076135Y-32766127D01*
X9076135Y-32766127D02*
X9066611Y-32737555D01*
X9066611Y-32737555D02*
X9057087Y-32718508D01*
X9057087Y-32718508D02*
X9038039Y-32689936D01*
X9038039Y-32689936D02*
X9028516Y-32680412D01*
M02*
