M48
; DRILL file KiCad 10.0.1 date 2026-04-26T20:16:18
; FORMAT={-:-/ absolute / metric / decimal}
; #@! TF.CreationDate,2026-04-26T20:16:18+01:00
; #@! TF.GenerationSoftware,Kicad,Pcbnew,10.0.1
; #@! TF.FileFunction,Plated,1,2,PTH
FMAT,2
METRIC
; #@! TA.AperFunction,Plated,PTH,ViaDrill
T1C0.300
; #@! TA.AperFunction,Plated,PTH,ComponentDrill
T2C0.900
; #@! TA.AperFunction,Plated,PTH,ComponentDrill
T3C1.000
; #@! TA.AperFunction,Plated,PTH,ComponentDrill
T4C1.500
%
G90
G05
T1
X85.5Y-495.5
X161.5Y-475.13
X161.5Y-477.67
X161.5Y-480.21
X161.5Y-482.75
X161.5Y-485.25
X237.5Y-495.5
T2
X53.5Y-476.5
X53.5Y-484.5
X58.5Y-478.0
X58.5Y-486.0
X63.5Y-479.5
X63.5Y-487.5
X68.5Y-476.5
X68.5Y-484.5
X73.5Y-478.0
X73.5Y-486.0
X78.5Y-479.5
X78.5Y-487.5
X83.5Y-481.0
X83.5Y-489.0
X88.5Y-476.5
X88.5Y-484.5
X93.5Y-478.0
X93.5Y-486.0
X98.5Y-479.5
X98.5Y-487.5
X103.5Y-481.0
X103.5Y-489.0
X108.5Y-476.5
X108.5Y-484.5
X113.5Y-478.0
X113.5Y-486.0
X118.5Y-479.5
X118.5Y-487.5
X123.5Y-481.0
X123.5Y-489.0
X128.5Y-476.5
X128.5Y-484.5
X133.5Y-478.0
X133.5Y-486.0
X138.5Y-479.5
X138.5Y-487.5
X143.5Y-481.0
X143.5Y-489.0
X148.5Y-476.5
X148.5Y-484.5
X174.5Y-478.0
X174.5Y-486.0
X179.5Y-479.5
X179.5Y-487.5
X184.5Y-481.0
X184.5Y-489.0
X189.5Y-476.5
X189.5Y-484.5
X194.5Y-478.0
X194.5Y-486.0
X199.5Y-479.5
X199.5Y-487.5
X204.5Y-481.0
X204.5Y-489.0
X209.5Y-476.5
X209.5Y-484.5
X214.5Y-478.0
X214.5Y-486.0
X219.5Y-479.5
X219.5Y-487.5
X224.5Y-481.0
X224.5Y-489.0
X229.5Y-476.5
X229.5Y-484.5
X234.5Y-478.0
X234.5Y-486.0
X239.5Y-479.5
X239.5Y-487.5
X244.5Y-476.5
X244.5Y-484.5
X249.5Y-478.0
X249.5Y-486.0
X254.5Y-479.5
X254.5Y-487.5
X259.5Y-476.5
X259.5Y-484.5
X264.5Y-478.0
X264.5Y-486.0
X269.5Y-476.5
X269.5Y-484.5
T3
X153.88Y-472.59
X153.88Y-475.13
X153.88Y-477.67
X153.88Y-480.21
X153.88Y-482.75
X153.88Y-485.29
X153.88Y-487.83
X153.88Y-490.37
X153.88Y-492.91
X156.42Y-492.91
X158.96Y-492.91
X161.5Y-492.91
X164.04Y-492.91
X166.58Y-492.91
X169.12Y-472.59
X169.12Y-475.13
X169.12Y-477.67
X169.12Y-480.21
X169.12Y-482.75
X169.12Y-485.29
X169.12Y-487.83
X169.12Y-490.37
X169.12Y-492.91
T4
X52.6Y-509.7
X59.6Y-510.75
X62.1Y-528.7
X69.1Y-529.75
X71.6Y-509.7
X71.6Y-547.7
X78.6Y-510.75
X78.6Y-548.75
X81.1Y-528.7
X88.1Y-529.75
X90.6Y-509.7
X90.6Y-547.7
X95.35Y-566.7
X97.6Y-510.75
X97.6Y-548.75
X100.1Y-528.7
X102.35Y-567.75
X107.1Y-529.75
X109.6Y-509.7
X109.6Y-547.7
X114.35Y-566.7
X116.6Y-510.75
X116.6Y-548.75
X119.1Y-528.7
X121.35Y-567.75
X126.1Y-529.75
X128.6Y-509.7
X128.6Y-547.7
X133.35Y-566.7
X135.6Y-510.75
X135.6Y-548.75
X138.1Y-528.7
X140.35Y-567.75
X145.1Y-529.75
X147.6Y-509.7
X147.6Y-547.7
X154.6Y-510.75
X154.6Y-548.75
X157.1Y-528.7
X157.1Y-566.7
X164.1Y-529.75
X164.1Y-567.75
X166.6Y-509.7
X166.6Y-547.7
X173.6Y-510.75
X173.6Y-548.75
X176.1Y-528.7
X180.85Y-566.7
X183.1Y-529.75
X185.6Y-509.7
X185.6Y-547.7
X187.85Y-567.75
X192.6Y-510.75
X192.6Y-548.75
X195.1Y-528.7
X199.85Y-566.7
X202.1Y-529.75
X204.6Y-509.7
X204.6Y-547.7
X206.85Y-567.75
X211.6Y-510.75
X211.6Y-548.75
X214.1Y-528.7
X218.85Y-566.7
X221.1Y-529.75
X223.6Y-509.7
X223.6Y-547.7
X225.85Y-567.75
X230.6Y-510.75
X230.6Y-548.75
X233.1Y-528.7
X240.1Y-529.75
X242.6Y-509.7
X242.6Y-547.7
X249.6Y-510.75
X249.6Y-548.75
X252.1Y-528.7
X259.1Y-529.75
X261.6Y-509.7
X268.6Y-510.75
M30
