%TF.GenerationSoftware,KiCad,Pcbnew,10.0.5*%
%TF.CreationDate,2026-08-06T20:10:46+01:00*%
%TF.ProjectId,just-40-mark03,6a757374-2d34-4302-9d6d-61726b30332e,rev?*%
%TF.SameCoordinates,Original*%
%TF.FileFunction,Soldermask,Top*%
%TF.FilePolarity,Negative*%
%FSLAX46Y46*%
G04 Gerber Fmt 4.6, Leading zero omitted, Abs format (unit mm)*
G04 Created by KiCad (PCBNEW 10.0.5) date 2026-08-06 20:10:46*
%MOMM*%
%LPD*%
G01*
G04 APERTURE LIST*
G04 Aperture macros list*
%AMRoundRect*
0 Rectangle with rounded corners*
0 $1 Rounding radius*
0 $2 $3 $4 $5 $6 $7 $8 $9 X,Y pos of 4 corners*
0 Add a 4 corners polygon primitive as box body*
4,1,4,$2,$3,$4,$5,$6,$7,$8,$9,$2,$3,0*
0 Add four circle primitives for the rounded corners*
1,1,$1+$1,$2,$3*
1,1,$1+$1,$4,$5*
1,1,$1+$1,$6,$7*
1,1,$1+$1,$8,$9*
0 Add four rect primitives between the rounded corners*
20,1,$1+$1,$2,$3,$4,$5,0*
20,1,$1+$1,$4,$5,$6,$7,0*
20,1,$1+$1,$6,$7,$8,$9,0*
20,1,$1+$1,$8,$9,$2,$3,0*%
G04 Aperture macros list end*
%ADD10C,3.300000*%
%ADD11C,1.600000*%
%ADD12RoundRect,0.250000X0.550000X0.550000X-0.550000X0.550000X-0.550000X-0.550000X0.550000X-0.550000X0*%
%ADD13C,1.900000*%
%ADD14C,1.400000*%
%ADD15C,4.300000*%
%ADD16C,2.500000*%
%ADD17C,2.700000*%
%ADD18C,1.850000*%
G04 APERTURE END LIST*
D10*
%TO.C,H11*%
X123500000Y-361000000D03*
%TD*%
D11*
%TO.C,D7*%
X179250000Y-365000000D03*
D12*
X179250000Y-357000000D03*
%TD*%
D13*
%TO.C,H3*%
X199500000Y-351500000D03*
%TD*%
D10*
%TO.C,H14*%
X53000000Y-422000000D03*
%TD*%
D11*
%TO.C,D32*%
X219750000Y-403000000D03*
D12*
X219750000Y-395000000D03*
%TD*%
D10*
%TO.C,H12*%
X199500000Y-361000000D03*
%TD*%
D11*
%TO.C,D30*%
X181750000Y-403000000D03*
D12*
X181750000Y-395000000D03*
%TD*%
D14*
%TO.C,SW39*%
X194420000Y-418000000D03*
D15*
X199500000Y-418000000D03*
D14*
X204580000Y-418000000D03*
D16*
X203310000Y-420540000D03*
D17*
X196960000Y-423080000D03*
%TD*%
D14*
%TO.C,SW19*%
X175420000Y-380000000D03*
D15*
X180500000Y-380000000D03*
D14*
X185580000Y-380000000D03*
D16*
X184310000Y-382540000D03*
D17*
X177960000Y-385080000D03*
%TD*%
D14*
%TO.C,SW23*%
X251420000Y-380000000D03*
D15*
X256500000Y-380000000D03*
D14*
X261580000Y-380000000D03*
D16*
X260310000Y-382540000D03*
D17*
X253960000Y-385080000D03*
%TD*%
D14*
%TO.C,SW32*%
X222920000Y-399000000D03*
D15*
X228000000Y-399000000D03*
D14*
X233080000Y-399000000D03*
D16*
X231810000Y-401540000D03*
D17*
X225460000Y-404080000D03*
%TD*%
D11*
%TO.C,D5*%
X141250000Y-365000000D03*
D12*
X141250000Y-357000000D03*
%TD*%
D13*
%TO.C,H4*%
X274500000Y-351500000D03*
%TD*%
D11*
%TO.C,D27*%
X124750000Y-403000000D03*
D12*
X124750000Y-395000000D03*
%TD*%
D11*
%TO.C,D17*%
X134250000Y-384000000D03*
D12*
X134250000Y-376000000D03*
%TD*%
D11*
%TO.C,D20*%
X191250000Y-384000000D03*
D12*
X191250000Y-376000000D03*
%TD*%
D10*
%TO.C,H17*%
X270000000Y-422000000D03*
%TD*%
D11*
%TO.C,D9*%
X217250000Y-365000000D03*
D12*
X217250000Y-357000000D03*
%TD*%
D14*
%TO.C,SW38*%
X175420000Y-418000000D03*
D15*
X180500000Y-418000000D03*
D14*
X185580000Y-418000000D03*
D16*
X184310000Y-420540000D03*
D17*
X177960000Y-423080000D03*
%TD*%
D14*
%TO.C,SW6*%
X146920000Y-361000000D03*
D15*
X152000000Y-361000000D03*
D14*
X157080000Y-361000000D03*
D16*
X155810000Y-363540000D03*
D17*
X149460000Y-366080000D03*
%TD*%
D13*
%TO.C,H2*%
X123500000Y-351500000D03*
%TD*%
D14*
%TO.C,SW35*%
X118420000Y-418000000D03*
D15*
X123500000Y-418000000D03*
D14*
X128580000Y-418000000D03*
D16*
X127310000Y-420540000D03*
D17*
X120960000Y-423080000D03*
%TD*%
D11*
%TO.C,D15*%
X96250000Y-384000000D03*
D12*
X96250000Y-376000000D03*
%TD*%
D11*
%TO.C,D2*%
X67750000Y-365000000D03*
D12*
X67750000Y-357000000D03*
%TD*%
D11*
%TO.C,D8*%
X181750000Y-365000000D03*
D12*
X181750000Y-357000000D03*
%TD*%
D11*
%TO.C,D14*%
X77250000Y-384000000D03*
D12*
X77250000Y-376000000D03*
%TD*%
D11*
%TO.C,D28*%
X143750000Y-403000000D03*
D12*
X143750000Y-395000000D03*
%TD*%
D11*
%TO.C,D25*%
X86750000Y-403000000D03*
D12*
X86750000Y-395000000D03*
%TD*%
D11*
%TO.C,D6*%
X143750000Y-365000000D03*
D12*
X143750000Y-357000000D03*
%TD*%
D13*
%TO.C,H8*%
X274500000Y-426500000D03*
%TD*%
D14*
%TO.C,SW34*%
X99420000Y-418000000D03*
D15*
X104500000Y-418000000D03*
D14*
X109580000Y-418000000D03*
D16*
X108310000Y-420540000D03*
D17*
X101960000Y-423080000D03*
%TD*%
D14*
%TO.C,SW17*%
X137420000Y-380000000D03*
D15*
X142500000Y-380000000D03*
D14*
X147580000Y-380000000D03*
D16*
X146310000Y-382540000D03*
D17*
X139960000Y-385080000D03*
%TD*%
D14*
%TO.C,SW9*%
X203920000Y-361000000D03*
D15*
X209000000Y-361000000D03*
D14*
X214080000Y-361000000D03*
D16*
X212810000Y-363540000D03*
D17*
X206460000Y-366080000D03*
%TD*%
D11*
%TO.C,D4*%
X105750000Y-365000000D03*
D12*
X105750000Y-357000000D03*
%TD*%
D13*
%TO.C,H6*%
X133000000Y-426500000D03*
%TD*%
D10*
%TO.C,H10*%
X53000000Y-357000000D03*
%TD*%
D11*
%TO.C,D29*%
X162750000Y-403000000D03*
D12*
X162750000Y-395000000D03*
%TD*%
D14*
%TO.C,SW3*%
X89920000Y-361000000D03*
D15*
X95000000Y-361000000D03*
D14*
X100080000Y-361000000D03*
D16*
X98810000Y-363540000D03*
D17*
X92460000Y-366080000D03*
%TD*%
D14*
%TO.C,SW5*%
X127920000Y-361000000D03*
D15*
X133000000Y-361000000D03*
D14*
X138080000Y-361000000D03*
D16*
X136810000Y-363540000D03*
D17*
X130460000Y-366080000D03*
%TD*%
D10*
%TO.C,H19*%
X199500000Y-389500000D03*
%TD*%
D11*
%TO.C,D1*%
X65250000Y-365000000D03*
D12*
X65250000Y-357000000D03*
%TD*%
D11*
%TO.C,D34*%
X112750000Y-422000000D03*
D12*
X112750000Y-414000000D03*
%TD*%
D11*
%TO.C,D36*%
X150750000Y-422000000D03*
D12*
X150750000Y-414000000D03*
%TD*%
D14*
%TO.C,SW30*%
X184920000Y-399000000D03*
D15*
X190000000Y-399000000D03*
D14*
X195080000Y-399000000D03*
D16*
X193810000Y-401540000D03*
D17*
X187460000Y-404080000D03*
%TD*%
D11*
%TO.C,D24*%
X84250000Y-403000000D03*
D12*
X84250000Y-395000000D03*
%TD*%
D14*
%TO.C,SW33*%
X241920000Y-399000000D03*
D15*
X247000000Y-399000000D03*
D14*
X252080000Y-399000000D03*
D16*
X250810000Y-401540000D03*
D17*
X244460000Y-404080000D03*
%TD*%
D11*
%TO.C,D16*%
X115250000Y-384000000D03*
D12*
X115250000Y-376000000D03*
%TD*%
D13*
%TO.C,H9*%
X168500000Y-351500000D03*
D18*
X154500000Y-351500000D03*
%TD*%
D11*
%TO.C,D13*%
X74750000Y-384000000D03*
D12*
X74750000Y-376000000D03*
%TD*%
D11*
%TO.C,D38*%
X172250000Y-422000000D03*
D12*
X172250000Y-414000000D03*
%TD*%
D14*
%TO.C,SW15*%
X99420000Y-380000000D03*
D15*
X104500000Y-380000000D03*
D14*
X109580000Y-380000000D03*
D16*
X108310000Y-382540000D03*
D17*
X101960000Y-385080000D03*
%TD*%
D14*
%TO.C,SW24*%
X70920000Y-399000000D03*
D15*
X76000000Y-399000000D03*
D14*
X81080000Y-399000000D03*
D16*
X79810000Y-401540000D03*
D17*
X73460000Y-404080000D03*
%TD*%
D13*
%TO.C,H1*%
X48500000Y-351500000D03*
%TD*%
D11*
%TO.C,D18*%
X153250000Y-384000000D03*
D12*
X153250000Y-376000000D03*
%TD*%
D14*
%TO.C,SW29*%
X165920000Y-399000000D03*
D15*
X171000000Y-399000000D03*
D14*
X176080000Y-399000000D03*
D16*
X174810000Y-401540000D03*
D17*
X168460000Y-404080000D03*
%TD*%
D11*
%TO.C,D26*%
X105750000Y-403000000D03*
D12*
X105750000Y-395000000D03*
%TD*%
D14*
%TO.C,SW13*%
X61420000Y-380000000D03*
D15*
X66500000Y-380000000D03*
D14*
X71580000Y-380000000D03*
D16*
X70310000Y-382540000D03*
D17*
X63960000Y-385080000D03*
%TD*%
D11*
%TO.C,D39*%
X207750000Y-422000000D03*
D12*
X207750000Y-414000000D03*
%TD*%
D11*
%TO.C,D31*%
X200750000Y-403000000D03*
D12*
X200750000Y-395000000D03*
%TD*%
D11*
%TO.C,D11*%
X238750000Y-365000000D03*
D12*
X238750000Y-357000000D03*
%TD*%
D11*
%TO.C,D19*%
X172250000Y-384000000D03*
D12*
X172250000Y-376000000D03*
%TD*%
D14*
%TO.C,SW16*%
X118420000Y-380000000D03*
D15*
X123500000Y-380000000D03*
D14*
X128580000Y-380000000D03*
D16*
X127310000Y-382540000D03*
D17*
X120960000Y-385080000D03*
%TD*%
D14*
%TO.C,SW14*%
X80420000Y-380000000D03*
D15*
X85500000Y-380000000D03*
D14*
X90580000Y-380000000D03*
D16*
X89310000Y-382540000D03*
D17*
X82960000Y-385080000D03*
%TD*%
D11*
%TO.C,D21*%
X210250000Y-384000000D03*
D12*
X210250000Y-376000000D03*
%TD*%
D14*
%TO.C,SW8*%
X184920000Y-361000000D03*
D15*
X190000000Y-361000000D03*
D14*
X195080000Y-361000000D03*
D16*
X193810000Y-363540000D03*
D17*
X187460000Y-366080000D03*
%TD*%
D14*
%TO.C,SW27*%
X127920000Y-399000000D03*
D15*
X133000000Y-399000000D03*
D14*
X138080000Y-399000000D03*
D16*
X136810000Y-401540000D03*
D17*
X130460000Y-404080000D03*
%TD*%
D11*
%TO.C,D40*%
X210250000Y-422000000D03*
D12*
X210250000Y-414000000D03*
%TD*%
D11*
%TO.C,D23*%
X248250000Y-384000000D03*
D12*
X248250000Y-376000000D03*
%TD*%
D11*
%TO.C,D22*%
X229250000Y-384000000D03*
D12*
X229250000Y-376000000D03*
%TD*%
D10*
%TO.C,H16*%
X190000000Y-418000000D03*
%TD*%
D14*
%TO.C,SW31*%
X203920000Y-399000000D03*
D15*
X209000000Y-399000000D03*
D14*
X214080000Y-399000000D03*
D16*
X212810000Y-401540000D03*
D17*
X206460000Y-404080000D03*
%TD*%
D14*
%TO.C,SW25*%
X89920000Y-399000000D03*
D15*
X95000000Y-399000000D03*
D14*
X100080000Y-399000000D03*
D16*
X98810000Y-401540000D03*
D17*
X92460000Y-404080000D03*
%TD*%
D14*
%TO.C,SW28*%
X146920000Y-399000000D03*
D15*
X152000000Y-399000000D03*
D14*
X157080000Y-399000000D03*
D16*
X155810000Y-401540000D03*
D17*
X149460000Y-404080000D03*
%TD*%
D14*
%TO.C,SW36*%
X137420000Y-418000000D03*
D15*
X142500000Y-418000000D03*
D14*
X147580000Y-418000000D03*
D16*
X146310000Y-420540000D03*
D17*
X139960000Y-423080000D03*
%TD*%
D14*
%TO.C,SW20*%
X194420000Y-380000000D03*
D15*
X199500000Y-380000000D03*
D14*
X204580000Y-380000000D03*
D16*
X203310000Y-382540000D03*
D17*
X196960000Y-385080000D03*
%TD*%
D14*
%TO.C,SW1*%
X51920000Y-361000000D03*
D15*
X57000000Y-361000000D03*
D14*
X62080000Y-361000000D03*
D16*
X60810000Y-363540000D03*
D17*
X54460000Y-366080000D03*
%TD*%
D14*
%TO.C,SW21*%
X213420000Y-380000000D03*
D15*
X218500000Y-380000000D03*
D14*
X223580000Y-380000000D03*
D16*
X222310000Y-382540000D03*
D17*
X215960000Y-385080000D03*
%TD*%
D14*
%TO.C,SW26*%
X108920000Y-399000000D03*
D15*
X114000000Y-399000000D03*
D14*
X119080000Y-399000000D03*
D16*
X117810000Y-401540000D03*
D17*
X111460000Y-404080000D03*
%TD*%
D10*
%TO.C,H18*%
X123500000Y-389500000D03*
%TD*%
D11*
%TO.C,D3*%
X86750000Y-365000000D03*
D12*
X86750000Y-357000000D03*
%TD*%
D11*
%TO.C,D10*%
X219750000Y-365000000D03*
D12*
X219750000Y-357000000D03*
%TD*%
D14*
%TO.C,SW18*%
X156420000Y-380000000D03*
D15*
X161500000Y-380000000D03*
D14*
X166580000Y-380000000D03*
D16*
X165310000Y-382540000D03*
D17*
X158960000Y-385080000D03*
%TD*%
D14*
%TO.C,SW4*%
X108920000Y-361000000D03*
D15*
X114000000Y-361000000D03*
D14*
X119080000Y-361000000D03*
D16*
X117810000Y-363540000D03*
D17*
X111460000Y-366080000D03*
%TD*%
D14*
%TO.C,SW11*%
X241920000Y-361000000D03*
D15*
X247000000Y-361000000D03*
D14*
X252080000Y-361000000D03*
D16*
X250810000Y-363540000D03*
D17*
X244460000Y-366080000D03*
%TD*%
D14*
%TO.C,SW37*%
X156420000Y-418000000D03*
D15*
X161500000Y-418000000D03*
D14*
X166580000Y-418000000D03*
D16*
X165310000Y-420540000D03*
D17*
X158960000Y-423080000D03*
%TD*%
D14*
%TO.C,SW2*%
X70920000Y-361000000D03*
D15*
X76000000Y-361000000D03*
D14*
X81080000Y-361000000D03*
D16*
X79810000Y-363540000D03*
D17*
X73460000Y-366080000D03*
%TD*%
D11*
%TO.C,D12*%
X257750000Y-365000000D03*
D12*
X257750000Y-357000000D03*
%TD*%
D11*
%TO.C,D33*%
X238750000Y-403000000D03*
D12*
X238750000Y-395000000D03*
%TD*%
D11*
%TO.C,D37*%
X153250000Y-422000000D03*
D12*
X153250000Y-414000000D03*
%TD*%
D10*
%TO.C,H13*%
X270000000Y-357000000D03*
%TD*%
D14*
%TO.C,SW7*%
X165920000Y-361000000D03*
D15*
X171000000Y-361000000D03*
D14*
X176080000Y-361000000D03*
D16*
X174810000Y-363540000D03*
D17*
X168460000Y-366080000D03*
%TD*%
D14*
%TO.C,SW10*%
X222920000Y-361000000D03*
D15*
X228000000Y-361000000D03*
D14*
X233080000Y-361000000D03*
D16*
X231810000Y-363540000D03*
D17*
X225460000Y-366080000D03*
%TD*%
D14*
%TO.C,SW12*%
X260920000Y-361000000D03*
D15*
X266000000Y-361000000D03*
D14*
X271080000Y-361000000D03*
D16*
X269810000Y-363540000D03*
D17*
X263460000Y-366080000D03*
%TD*%
D14*
%TO.C,SW40*%
X213420000Y-418000000D03*
D15*
X218500000Y-418000000D03*
D14*
X223580000Y-418000000D03*
D16*
X222310000Y-420540000D03*
D17*
X215960000Y-423080000D03*
%TD*%
D10*
%TO.C,H15*%
X133000000Y-418000000D03*
%TD*%
D11*
%TO.C,D35*%
X115250000Y-422000000D03*
D12*
X115250000Y-414000000D03*
%TD*%
D13*
%TO.C,H7*%
X190000000Y-426500000D03*
%TD*%
%TO.C,H5*%
X48500000Y-426500000D03*
%TD*%
D14*
%TO.C,SW22*%
X232420000Y-380000000D03*
D15*
X237500000Y-380000000D03*
D14*
X242580000Y-380000000D03*
D16*
X241310000Y-382540000D03*
D17*
X234960000Y-385080000D03*
%TD*%
M02*
