M48
; DRILL file KiCad 10.0.5 date 2026-08-06T20:11:59
; FORMAT={-:-/ absolute / metric / decimal}
; #@! TF.CreationDate,2026-08-06T20:11:59+01:00
; #@! TF.GenerationSoftware,Kicad,Pcbnew,10.0.5
; #@! TF.FileFunction,Plated,1,2,PTH
FMAT,2
METRIC
; #@! TA.AperFunction,Plated,PTH,ViaDrill
T1C0.300
; #@! TA.AperFunction,Plated,PTH,ComponentDrill
T2C0.900
; #@! TA.AperFunction,Plated,PTH,ComponentDrill
T3C1.000
; #@! TA.AperFunction,Plated,PTH,ComponentDrill
T4C1.200
%
G90
G05
T1
X60.81Y-369.25
X65.25Y-361.0
X74.75Y-380.0
X84.25Y-399.0
X112.75Y-418.0
T2
X65.25Y-357.0
X65.25Y-365.0
X67.75Y-357.0
X67.75Y-365.0
X74.75Y-376.0
X74.75Y-384.0
X77.25Y-376.0
X77.25Y-384.0
X84.25Y-395.0
X84.25Y-403.0
X86.75Y-357.0
X86.75Y-365.0
X86.75Y-395.0
X86.75Y-403.0
X96.25Y-376.0
X96.25Y-384.0
X105.75Y-357.0
X105.75Y-365.0
X105.75Y-395.0
X105.75Y-403.0
X112.75Y-414.0
X112.75Y-422.0
X115.25Y-376.0
X115.25Y-384.0
X115.25Y-414.0
X115.25Y-422.0
X124.75Y-395.0
X124.75Y-403.0
X134.25Y-376.0
X134.25Y-384.0
X141.25Y-357.0
X141.25Y-365.0
X143.75Y-357.0
X143.75Y-365.0
X143.75Y-395.0
X143.75Y-403.0
X150.75Y-414.0
X150.75Y-422.0
X153.25Y-376.0
X153.25Y-384.0
X153.25Y-414.0
X153.25Y-422.0
X162.75Y-395.0
X162.75Y-403.0
X172.25Y-376.0
X172.25Y-384.0
X172.25Y-414.0
X172.25Y-422.0
X179.25Y-357.0
X179.25Y-365.0
X181.75Y-357.0
X181.75Y-365.0
X181.75Y-395.0
X181.75Y-403.0
X191.25Y-376.0
X191.25Y-384.0
X200.75Y-395.0
X200.75Y-403.0
X207.75Y-414.0
X207.75Y-422.0
X210.25Y-376.0
X210.25Y-384.0
X210.25Y-414.0
X210.25Y-422.0
X217.25Y-357.0
X217.25Y-365.0
X219.75Y-357.0
X219.75Y-365.0
X219.75Y-395.0
X219.75Y-403.0
X229.25Y-376.0
X229.25Y-384.0
X238.75Y-357.0
X238.75Y-365.0
X238.75Y-395.0
X238.75Y-403.0
X248.25Y-376.0
X248.25Y-384.0
X257.75Y-357.0
X257.75Y-365.0
T3
X60.81Y-363.54
X70.31Y-382.54
X79.81Y-363.54
X79.81Y-401.54
X89.31Y-382.54
X98.81Y-363.54
X98.81Y-401.54
X108.31Y-382.54
X108.31Y-420.54
X117.81Y-363.54
X117.81Y-401.54
X127.31Y-382.54
X127.31Y-420.54
X136.81Y-363.54
X136.81Y-401.54
X146.31Y-382.54
X146.31Y-420.54
X155.81Y-363.54
X155.81Y-401.54
X165.31Y-382.54
X165.31Y-420.54
X174.81Y-363.54
X174.81Y-401.54
X184.31Y-382.54
X184.31Y-420.54
X193.81Y-363.54
X193.81Y-401.54
X203.31Y-382.54
X203.31Y-420.54
X212.81Y-363.54
X212.81Y-401.54
X222.31Y-382.54
X222.31Y-420.54
X231.81Y-363.54
X231.81Y-401.54
X241.31Y-382.54
X250.81Y-363.54
X250.81Y-401.54
X260.31Y-382.54
X269.81Y-363.54
T4
X54.46Y-366.08
X63.96Y-385.08
X73.46Y-366.08
X73.46Y-404.08
X82.96Y-385.08
X92.46Y-366.08
X92.46Y-404.08
X101.96Y-385.08
X101.96Y-423.08
X111.46Y-366.08
X111.46Y-404.08
X120.96Y-385.08
X120.96Y-423.08
X130.46Y-366.08
X130.46Y-404.08
X139.96Y-385.08
X139.96Y-423.08
X149.46Y-366.08
X149.46Y-404.08
X158.96Y-385.08
X158.96Y-423.08
X168.46Y-366.08
X168.46Y-404.08
X177.96Y-385.08
X177.96Y-423.08
X187.46Y-366.08
X187.46Y-404.08
X196.96Y-385.08
X196.96Y-423.08
X206.46Y-366.08
X206.46Y-404.08
X215.96Y-385.08
X215.96Y-423.08
X225.46Y-366.08
X225.46Y-404.08
X234.96Y-385.08
X244.46Y-366.08
X244.46Y-404.08
X253.96Y-385.08
X263.46Y-366.08
M30
