%TF.GenerationSoftware,KiCad,Pcbnew,10.0.5*%
%TF.CreationDate,2026-08-06T20:11:59+01:00*%
%TF.ProjectId,just-40-mark03,6a757374-2d34-4302-9d6d-61726b30332e,rev?*%
%TF.SameCoordinates,Original*%
%TF.FileFunction,Drillmap*%
%TF.FilePolarity,Positive*%
%FSLAX45Y45*%
G04 Gerber Fmt 4.5, Leading zero omitted, Abs format (unit mm)*
G04 Created by KiCad (PCBNEW 10.0.5) date 2026-08-06 20:11:59*
%MOMM*%
%LPD*%
G01*
G04 APERTURE LIST*
%ADD10C,0.050000*%
%ADD11C,0.200000*%
%ADD12C,0.140000*%
%ADD13C,0.185000*%
%ADD14C,0.190000*%
%ADD15C,0.330000*%
%ADD16C,0.430000*%
G04 APERTURE END LIST*
D10*
X4650000Y-35050000D02*
G75*
G02*
X4750000Y-34950000I100000J0D01*
G01*
X4750000Y-34950000D02*
X27550000Y-34950000D01*
X27550000Y-34950000D02*
G75*
G02*
X27650000Y-35050000I0J-100000D01*
G01*
X4650000Y-35050000D02*
X4650000Y-42750000D01*
X27650000Y-35050000D02*
X27650000Y-42750000D01*
X4750000Y-42850000D02*
G75*
G02*
X4650000Y-42750000I0J100000D01*
G01*
X4750000Y-42850000D02*
X27550000Y-42850000D01*
X27650000Y-42750000D02*
G75*
G02*
X27550000Y-42850000I-100000J0D01*
G01*
D11*
D12*
X5122000Y-36030000D02*
X5262000Y-36170000D01*
X5262000Y-36030000D02*
X5122000Y-36170000D01*
X6072000Y-37930000D02*
X6212000Y-38070000D01*
X6212000Y-37930000D02*
X6072000Y-38070000D01*
X6138000Y-36030000D02*
X6278000Y-36170000D01*
X6278000Y-36030000D02*
X6138000Y-36170000D01*
X7022000Y-36030000D02*
X7162000Y-36170000D01*
X7162000Y-36030000D02*
X7022000Y-36170000D01*
X7022000Y-39830000D02*
X7162000Y-39970000D01*
X7162000Y-39830000D02*
X7022000Y-39970000D01*
X7088000Y-37930000D02*
X7228000Y-38070000D01*
X7228000Y-37930000D02*
X7088000Y-38070000D01*
X7972000Y-37930000D02*
X8112000Y-38070000D01*
X8112000Y-37930000D02*
X7972000Y-38070000D01*
X8038000Y-36030000D02*
X8178000Y-36170000D01*
X8178000Y-36030000D02*
X8038000Y-36170000D01*
X8038000Y-39830000D02*
X8178000Y-39970000D01*
X8178000Y-39830000D02*
X8038000Y-39970000D01*
X8922000Y-36030000D02*
X9062000Y-36170000D01*
X9062000Y-36030000D02*
X8922000Y-36170000D01*
X8922000Y-39830000D02*
X9062000Y-39970000D01*
X9062000Y-39830000D02*
X8922000Y-39970000D01*
X8988000Y-37930000D02*
X9128000Y-38070000D01*
X9128000Y-37930000D02*
X8988000Y-38070000D01*
X9872000Y-37930000D02*
X10012000Y-38070000D01*
X10012000Y-37930000D02*
X9872000Y-38070000D01*
X9872000Y-41730000D02*
X10012000Y-41870000D01*
X10012000Y-41730000D02*
X9872000Y-41870000D01*
X9938000Y-36030000D02*
X10078000Y-36170000D01*
X10078000Y-36030000D02*
X9938000Y-36170000D01*
X9938000Y-39830000D02*
X10078000Y-39970000D01*
X10078000Y-39830000D02*
X9938000Y-39970000D01*
X10822000Y-36030000D02*
X10962000Y-36170000D01*
X10962000Y-36030000D02*
X10822000Y-36170000D01*
X10822000Y-39830000D02*
X10962000Y-39970000D01*
X10962000Y-39830000D02*
X10822000Y-39970000D01*
X10888000Y-37930000D02*
X11028000Y-38070000D01*
X11028000Y-37930000D02*
X10888000Y-38070000D01*
X10888000Y-41730000D02*
X11028000Y-41870000D01*
X11028000Y-41730000D02*
X10888000Y-41870000D01*
X11772000Y-37930000D02*
X11912000Y-38070000D01*
X11912000Y-37930000D02*
X11772000Y-38070000D01*
X11772000Y-41730000D02*
X11912000Y-41870000D01*
X11912000Y-41730000D02*
X11772000Y-41870000D01*
X11838000Y-36030000D02*
X11978000Y-36170000D01*
X11978000Y-36030000D02*
X11838000Y-36170000D01*
X11838000Y-39830000D02*
X11978000Y-39970000D01*
X11978000Y-39830000D02*
X11838000Y-39970000D01*
X12722000Y-36030000D02*
X12862000Y-36170000D01*
X12862000Y-36030000D02*
X12722000Y-36170000D01*
X12722000Y-39830000D02*
X12862000Y-39970000D01*
X12862000Y-39830000D02*
X12722000Y-39970000D01*
X12788000Y-37930000D02*
X12928000Y-38070000D01*
X12928000Y-37930000D02*
X12788000Y-38070000D01*
X12788000Y-41730000D02*
X12928000Y-41870000D01*
X12928000Y-41730000D02*
X12788000Y-41870000D01*
X13672000Y-37930000D02*
X13812000Y-38070000D01*
X13812000Y-37930000D02*
X13672000Y-38070000D01*
X13672000Y-41730000D02*
X13812000Y-41870000D01*
X13812000Y-41730000D02*
X13672000Y-41870000D01*
X13738000Y-36030000D02*
X13878000Y-36170000D01*
X13878000Y-36030000D02*
X13738000Y-36170000D01*
X13738000Y-39830000D02*
X13878000Y-39970000D01*
X13878000Y-39830000D02*
X13738000Y-39970000D01*
X14622000Y-36030000D02*
X14762000Y-36170000D01*
X14762000Y-36030000D02*
X14622000Y-36170000D01*
X14622000Y-39830000D02*
X14762000Y-39970000D01*
X14762000Y-39830000D02*
X14622000Y-39970000D01*
X14688000Y-37930000D02*
X14828000Y-38070000D01*
X14828000Y-37930000D02*
X14688000Y-38070000D01*
X14688000Y-41730000D02*
X14828000Y-41870000D01*
X14828000Y-41730000D02*
X14688000Y-41870000D01*
X15572000Y-37930000D02*
X15712000Y-38070000D01*
X15712000Y-37930000D02*
X15572000Y-38070000D01*
X15572000Y-41730000D02*
X15712000Y-41870000D01*
X15712000Y-41730000D02*
X15572000Y-41870000D01*
X15638000Y-36030000D02*
X15778000Y-36170000D01*
X15778000Y-36030000D02*
X15638000Y-36170000D01*
X15638000Y-39830000D02*
X15778000Y-39970000D01*
X15778000Y-39830000D02*
X15638000Y-39970000D01*
X16522000Y-36030000D02*
X16662000Y-36170000D01*
X16662000Y-36030000D02*
X16522000Y-36170000D01*
X16522000Y-39830000D02*
X16662000Y-39970000D01*
X16662000Y-39830000D02*
X16522000Y-39970000D01*
X16588000Y-37930000D02*
X16728000Y-38070000D01*
X16728000Y-37930000D02*
X16588000Y-38070000D01*
X16588000Y-41730000D02*
X16728000Y-41870000D01*
X16728000Y-41730000D02*
X16588000Y-41870000D01*
X17472000Y-37930000D02*
X17612000Y-38070000D01*
X17612000Y-37930000D02*
X17472000Y-38070000D01*
X17472000Y-41730000D02*
X17612000Y-41870000D01*
X17612000Y-41730000D02*
X17472000Y-41870000D01*
X17538000Y-36030000D02*
X17678000Y-36170000D01*
X17678000Y-36030000D02*
X17538000Y-36170000D01*
X17538000Y-39830000D02*
X17678000Y-39970000D01*
X17678000Y-39830000D02*
X17538000Y-39970000D01*
X18422000Y-36030000D02*
X18562000Y-36170000D01*
X18562000Y-36030000D02*
X18422000Y-36170000D01*
X18422000Y-39830000D02*
X18562000Y-39970000D01*
X18562000Y-39830000D02*
X18422000Y-39970000D01*
X18488000Y-37930000D02*
X18628000Y-38070000D01*
X18628000Y-37930000D02*
X18488000Y-38070000D01*
X18488000Y-41730000D02*
X18628000Y-41870000D01*
X18628000Y-41730000D02*
X18488000Y-41870000D01*
X19372000Y-37930000D02*
X19512000Y-38070000D01*
X19512000Y-37930000D02*
X19372000Y-38070000D01*
X19372000Y-41730000D02*
X19512000Y-41870000D01*
X19512000Y-41730000D02*
X19372000Y-41870000D01*
X19438000Y-36030000D02*
X19578000Y-36170000D01*
X19578000Y-36030000D02*
X19438000Y-36170000D01*
X19438000Y-39830000D02*
X19578000Y-39970000D01*
X19578000Y-39830000D02*
X19438000Y-39970000D01*
X20322000Y-36030000D02*
X20462000Y-36170000D01*
X20462000Y-36030000D02*
X20322000Y-36170000D01*
X20322000Y-39830000D02*
X20462000Y-39970000D01*
X20462000Y-39830000D02*
X20322000Y-39970000D01*
X20388000Y-37930000D02*
X20528000Y-38070000D01*
X20528000Y-37930000D02*
X20388000Y-38070000D01*
X20388000Y-41730000D02*
X20528000Y-41870000D01*
X20528000Y-41730000D02*
X20388000Y-41870000D01*
X21272000Y-37930000D02*
X21412000Y-38070000D01*
X21412000Y-37930000D02*
X21272000Y-38070000D01*
X21272000Y-41730000D02*
X21412000Y-41870000D01*
X21412000Y-41730000D02*
X21272000Y-41870000D01*
X21338000Y-36030000D02*
X21478000Y-36170000D01*
X21478000Y-36030000D02*
X21338000Y-36170000D01*
X21338000Y-39830000D02*
X21478000Y-39970000D01*
X21478000Y-39830000D02*
X21338000Y-39970000D01*
X22222000Y-36030000D02*
X22362000Y-36170000D01*
X22362000Y-36030000D02*
X22222000Y-36170000D01*
X22222000Y-39830000D02*
X22362000Y-39970000D01*
X22362000Y-39830000D02*
X22222000Y-39970000D01*
X22288000Y-37930000D02*
X22428000Y-38070000D01*
X22428000Y-37930000D02*
X22288000Y-38070000D01*
X22288000Y-41730000D02*
X22428000Y-41870000D01*
X22428000Y-41730000D02*
X22288000Y-41870000D01*
X23172000Y-37930000D02*
X23312000Y-38070000D01*
X23312000Y-37930000D02*
X23172000Y-38070000D01*
X23238000Y-36030000D02*
X23378000Y-36170000D01*
X23378000Y-36030000D02*
X23238000Y-36170000D01*
X23238000Y-39830000D02*
X23378000Y-39970000D01*
X23378000Y-39830000D02*
X23238000Y-39970000D01*
X24122000Y-36030000D02*
X24262000Y-36170000D01*
X24262000Y-36030000D02*
X24122000Y-36170000D01*
X24122000Y-39830000D02*
X24262000Y-39970000D01*
X24262000Y-39830000D02*
X24122000Y-39970000D01*
X24188000Y-37930000D02*
X24328000Y-38070000D01*
X24328000Y-37930000D02*
X24188000Y-38070000D01*
X25072000Y-37930000D02*
X25212000Y-38070000D01*
X25212000Y-37930000D02*
X25072000Y-38070000D01*
X25138000Y-36030000D02*
X25278000Y-36170000D01*
X25278000Y-36030000D02*
X25138000Y-36170000D01*
X25138000Y-39830000D02*
X25278000Y-39970000D01*
X25278000Y-39830000D02*
X25138000Y-39970000D01*
X26022000Y-36030000D02*
X26162000Y-36170000D01*
X26162000Y-36030000D02*
X26022000Y-36170000D01*
X26088000Y-37930000D02*
X26228000Y-38070000D01*
X26228000Y-37930000D02*
X26088000Y-38070000D01*
X27038000Y-36030000D02*
X27178000Y-36170000D01*
X27178000Y-36030000D02*
X27038000Y-36170000D01*
D13*
X15542500Y-35150000D02*
G75*
G02*
X15357500Y-35150000I-92500J0D01*
G01*
X15357500Y-35150000D02*
G75*
G02*
X15542500Y-35150000I92500J0D01*
G01*
D14*
X4850000Y-35055000D02*
X4850000Y-35245000D01*
X4755000Y-35150000D02*
X4945000Y-35150000D01*
X4850000Y-42555000D02*
X4850000Y-42745000D01*
X4755000Y-42650000D02*
X4945000Y-42650000D01*
X12350000Y-35055000D02*
X12350000Y-35245000D01*
X12255000Y-35150000D02*
X12445000Y-35150000D01*
X13300000Y-42555000D02*
X13300000Y-42745000D01*
X13205000Y-42650000D02*
X13395000Y-42650000D01*
X16850000Y-35055000D02*
X16850000Y-35245000D01*
X16755000Y-35150000D02*
X16945000Y-35150000D01*
X19000000Y-42555000D02*
X19000000Y-42745000D01*
X18905000Y-42650000D02*
X19095000Y-42650000D01*
X19950000Y-35055000D02*
X19950000Y-35245000D01*
X19855000Y-35150000D02*
X20045000Y-35150000D01*
X27450000Y-35055000D02*
X27450000Y-35245000D01*
X27355000Y-35150000D02*
X27545000Y-35150000D01*
X27450000Y-42555000D02*
X27450000Y-42745000D01*
X27355000Y-42650000D02*
X27545000Y-42650000D01*
D15*
X5416674Y-35816674D02*
X5416674Y-35583326D01*
X5183326Y-35583326D01*
X5183326Y-35816674D01*
X5416674Y-35816674D01*
X5416674Y-42316674D02*
X5416674Y-42083326D01*
X5183326Y-42083326D01*
X5183326Y-42316674D01*
X5416674Y-42316674D01*
X12466674Y-36216674D02*
X12466674Y-35983326D01*
X12233326Y-35983326D01*
X12233326Y-36216674D01*
X12466674Y-36216674D01*
X12466674Y-39066674D02*
X12466674Y-38833326D01*
X12233326Y-38833326D01*
X12233326Y-39066674D01*
X12466674Y-39066674D01*
X13416674Y-41916674D02*
X13416674Y-41683326D01*
X13183326Y-41683326D01*
X13183326Y-41916674D01*
X13416674Y-41916674D01*
X19116674Y-41916674D02*
X19116674Y-41683326D01*
X18883326Y-41683326D01*
X18883326Y-41916674D01*
X19116674Y-41916674D01*
X20066674Y-36216674D02*
X20066674Y-35983326D01*
X19833326Y-35983326D01*
X19833326Y-36216674D01*
X20066674Y-36216674D01*
X20066674Y-39066674D02*
X20066674Y-38833326D01*
X19833326Y-38833326D01*
X19833326Y-39066674D01*
X20066674Y-39066674D01*
X27116674Y-35816674D02*
X27116674Y-35583326D01*
X26883326Y-35583326D01*
X26883326Y-35816674D01*
X27116674Y-35816674D01*
X27116674Y-42316674D02*
X27116674Y-42083326D01*
X26883326Y-42083326D01*
X26883326Y-42316674D01*
X27116674Y-42316674D01*
D16*
X5700000Y-36315000D02*
X5915000Y-36100000D01*
X5700000Y-35885000D01*
X5485000Y-36100000D01*
X5700000Y-36315000D01*
X6650000Y-38215000D02*
X6865000Y-38000000D01*
X6650000Y-37785000D01*
X6435000Y-38000000D01*
X6650000Y-38215000D01*
X7600000Y-36315000D02*
X7815000Y-36100000D01*
X7600000Y-35885000D01*
X7385000Y-36100000D01*
X7600000Y-36315000D01*
X7600000Y-40115000D02*
X7815000Y-39900000D01*
X7600000Y-39685000D01*
X7385000Y-39900000D01*
X7600000Y-40115000D01*
X8550000Y-38215000D02*
X8765000Y-38000000D01*
X8550000Y-37785000D01*
X8335000Y-38000000D01*
X8550000Y-38215000D01*
X9500000Y-36315000D02*
X9715000Y-36100000D01*
X9500000Y-35885000D01*
X9285000Y-36100000D01*
X9500000Y-36315000D01*
X9500000Y-40115000D02*
X9715000Y-39900000D01*
X9500000Y-39685000D01*
X9285000Y-39900000D01*
X9500000Y-40115000D01*
X10450000Y-38215000D02*
X10665000Y-38000000D01*
X10450000Y-37785000D01*
X10235000Y-38000000D01*
X10450000Y-38215000D01*
X10450000Y-42015000D02*
X10665000Y-41800000D01*
X10450000Y-41585000D01*
X10235000Y-41800000D01*
X10450000Y-42015000D01*
X11400000Y-36315000D02*
X11615000Y-36100000D01*
X11400000Y-35885000D01*
X11185000Y-36100000D01*
X11400000Y-36315000D01*
X11400000Y-40115000D02*
X11615000Y-39900000D01*
X11400000Y-39685000D01*
X11185000Y-39900000D01*
X11400000Y-40115000D01*
X12350000Y-38215000D02*
X12565000Y-38000000D01*
X12350000Y-37785000D01*
X12135000Y-38000000D01*
X12350000Y-38215000D01*
X12350000Y-42015000D02*
X12565000Y-41800000D01*
X12350000Y-41585000D01*
X12135000Y-41800000D01*
X12350000Y-42015000D01*
X13300000Y-36315000D02*
X13515000Y-36100000D01*
X13300000Y-35885000D01*
X13085000Y-36100000D01*
X13300000Y-36315000D01*
X13300000Y-40115000D02*
X13515000Y-39900000D01*
X13300000Y-39685000D01*
X13085000Y-39900000D01*
X13300000Y-40115000D01*
X14250000Y-38215000D02*
X14465000Y-38000000D01*
X14250000Y-37785000D01*
X14035000Y-38000000D01*
X14250000Y-38215000D01*
X14250000Y-42015000D02*
X14465000Y-41800000D01*
X14250000Y-41585000D01*
X14035000Y-41800000D01*
X14250000Y-42015000D01*
X15200000Y-36315000D02*
X15415000Y-36100000D01*
X15200000Y-35885000D01*
X14985000Y-36100000D01*
X15200000Y-36315000D01*
X15200000Y-40115000D02*
X15415000Y-39900000D01*
X15200000Y-39685000D01*
X14985000Y-39900000D01*
X15200000Y-40115000D01*
X16150000Y-38215000D02*
X16365000Y-38000000D01*
X16150000Y-37785000D01*
X15935000Y-38000000D01*
X16150000Y-38215000D01*
X16150000Y-42015000D02*
X16365000Y-41800000D01*
X16150000Y-41585000D01*
X15935000Y-41800000D01*
X16150000Y-42015000D01*
X17100000Y-36315000D02*
X17315000Y-36100000D01*
X17100000Y-35885000D01*
X16885000Y-36100000D01*
X17100000Y-36315000D01*
X17100000Y-40115000D02*
X17315000Y-39900000D01*
X17100000Y-39685000D01*
X16885000Y-39900000D01*
X17100000Y-40115000D01*
X18050000Y-38215000D02*
X18265000Y-38000000D01*
X18050000Y-37785000D01*
X17835000Y-38000000D01*
X18050000Y-38215000D01*
X18050000Y-42015000D02*
X18265000Y-41800000D01*
X18050000Y-41585000D01*
X17835000Y-41800000D01*
X18050000Y-42015000D01*
X19000000Y-36315000D02*
X19215000Y-36100000D01*
X19000000Y-35885000D01*
X18785000Y-36100000D01*
X19000000Y-36315000D01*
X19000000Y-40115000D02*
X19215000Y-39900000D01*
X19000000Y-39685000D01*
X18785000Y-39900000D01*
X19000000Y-40115000D01*
X19950000Y-38215000D02*
X20165000Y-38000000D01*
X19950000Y-37785000D01*
X19735000Y-38000000D01*
X19950000Y-38215000D01*
X19950000Y-42015000D02*
X20165000Y-41800000D01*
X19950000Y-41585000D01*
X19735000Y-41800000D01*
X19950000Y-42015000D01*
X20900000Y-36315000D02*
X21115000Y-36100000D01*
X20900000Y-35885000D01*
X20685000Y-36100000D01*
X20900000Y-36315000D01*
X20900000Y-40115000D02*
X21115000Y-39900000D01*
X20900000Y-39685000D01*
X20685000Y-39900000D01*
X20900000Y-40115000D01*
X21850000Y-38215000D02*
X22065000Y-38000000D01*
X21850000Y-37785000D01*
X21635000Y-38000000D01*
X21850000Y-38215000D01*
X21850000Y-42015000D02*
X22065000Y-41800000D01*
X21850000Y-41585000D01*
X21635000Y-41800000D01*
X21850000Y-42015000D01*
X22800000Y-36315000D02*
X23015000Y-36100000D01*
X22800000Y-35885000D01*
X22585000Y-36100000D01*
X22800000Y-36315000D01*
X22800000Y-40115000D02*
X23015000Y-39900000D01*
X22800000Y-39685000D01*
X22585000Y-39900000D01*
X22800000Y-40115000D01*
X23750000Y-38215000D02*
X23965000Y-38000000D01*
X23750000Y-37785000D01*
X23535000Y-38000000D01*
X23750000Y-38215000D01*
X24700000Y-36315000D02*
X24915000Y-36100000D01*
X24700000Y-35885000D01*
X24485000Y-36100000D01*
X24700000Y-36315000D01*
X24700000Y-40115000D02*
X24915000Y-39900000D01*
X24700000Y-39685000D01*
X24485000Y-39900000D01*
X24700000Y-40115000D01*
X25650000Y-38215000D02*
X25865000Y-38000000D01*
X25650000Y-37785000D01*
X25435000Y-38000000D01*
X25650000Y-38215000D01*
X26600000Y-36315000D02*
X26815000Y-36100000D01*
X26600000Y-35885000D01*
X26385000Y-36100000D01*
X26600000Y-36315000D01*
D11*
X4908277Y-43163984D02*
X4908277Y-42963984D01*
X4908277Y-42963984D02*
X4955896Y-42963984D01*
X4955896Y-42963984D02*
X4984467Y-42973508D01*
X4984467Y-42973508D02*
X5003515Y-42992555D01*
X5003515Y-42992555D02*
X5013039Y-43011603D01*
X5013039Y-43011603D02*
X5022563Y-43049698D01*
X5022563Y-43049698D02*
X5022563Y-43078270D01*
X5022563Y-43078270D02*
X5013039Y-43116365D01*
X5013039Y-43116365D02*
X5003515Y-43135412D01*
X5003515Y-43135412D02*
X4984467Y-43154460D01*
X4984467Y-43154460D02*
X4955896Y-43163984D01*
X4955896Y-43163984D02*
X4908277Y-43163984D01*
X5108277Y-43163984D02*
X5108277Y-43030650D01*
X5108277Y-43068746D02*
X5117801Y-43049698D01*
X5117801Y-43049698D02*
X5127324Y-43040174D01*
X5127324Y-43040174D02*
X5146372Y-43030650D01*
X5146372Y-43030650D02*
X5165420Y-43030650D01*
X5232086Y-43163984D02*
X5232086Y-43030650D01*
X5232086Y-42963984D02*
X5222563Y-42973508D01*
X5222563Y-42973508D02*
X5232086Y-42983031D01*
X5232086Y-42983031D02*
X5241610Y-42973508D01*
X5241610Y-42973508D02*
X5232086Y-42963984D01*
X5232086Y-42963984D02*
X5232086Y-42983031D01*
X5355896Y-43163984D02*
X5336848Y-43154460D01*
X5336848Y-43154460D02*
X5327324Y-43135412D01*
X5327324Y-43135412D02*
X5327324Y-42963984D01*
X5460658Y-43163984D02*
X5441610Y-43154460D01*
X5441610Y-43154460D02*
X5432086Y-43135412D01*
X5432086Y-43135412D02*
X5432086Y-42963984D01*
X5689229Y-43163984D02*
X5689229Y-42963984D01*
X5689229Y-42963984D02*
X5755896Y-43106841D01*
X5755896Y-43106841D02*
X5822562Y-42963984D01*
X5822562Y-42963984D02*
X5822562Y-43163984D01*
X6003515Y-43163984D02*
X6003515Y-43059222D01*
X6003515Y-43059222D02*
X5993991Y-43040174D01*
X5993991Y-43040174D02*
X5974943Y-43030650D01*
X5974943Y-43030650D02*
X5936848Y-43030650D01*
X5936848Y-43030650D02*
X5917801Y-43040174D01*
X6003515Y-43154460D02*
X5984467Y-43163984D01*
X5984467Y-43163984D02*
X5936848Y-43163984D01*
X5936848Y-43163984D02*
X5917801Y-43154460D01*
X5917801Y-43154460D02*
X5908277Y-43135412D01*
X5908277Y-43135412D02*
X5908277Y-43116365D01*
X5908277Y-43116365D02*
X5917801Y-43097317D01*
X5917801Y-43097317D02*
X5936848Y-43087793D01*
X5936848Y-43087793D02*
X5984467Y-43087793D01*
X5984467Y-43087793D02*
X6003515Y-43078270D01*
X6098753Y-43030650D02*
X6098753Y-43230650D01*
X6098753Y-43040174D02*
X6117801Y-43030650D01*
X6117801Y-43030650D02*
X6155896Y-43030650D01*
X6155896Y-43030650D02*
X6174943Y-43040174D01*
X6174943Y-43040174D02*
X6184467Y-43049698D01*
X6184467Y-43049698D02*
X6193991Y-43068746D01*
X6193991Y-43068746D02*
X6193991Y-43125889D01*
X6193991Y-43125889D02*
X6184467Y-43144936D01*
X6184467Y-43144936D02*
X6174943Y-43154460D01*
X6174943Y-43154460D02*
X6155896Y-43163984D01*
X6155896Y-43163984D02*
X6117801Y-43163984D01*
X6117801Y-43163984D02*
X6098753Y-43154460D01*
X6279705Y-43144936D02*
X6289229Y-43154460D01*
X6289229Y-43154460D02*
X6279705Y-43163984D01*
X6279705Y-43163984D02*
X6270182Y-43154460D01*
X6270182Y-43154460D02*
X6279705Y-43144936D01*
X6279705Y-43144936D02*
X6279705Y-43163984D01*
X6279705Y-43040174D02*
X6289229Y-43049698D01*
X6289229Y-43049698D02*
X6279705Y-43059222D01*
X6279705Y-43059222D02*
X6270182Y-43049698D01*
X6270182Y-43049698D02*
X6279705Y-43040174D01*
X6279705Y-43040174D02*
X6279705Y-43059222D01*
D12*
X4507500Y-43422500D02*
X4647500Y-43562500D01*
X4647500Y-43422500D02*
X4507500Y-43562500D01*
D11*
X5013039Y-43583984D02*
X4898753Y-43583984D01*
X4955896Y-43583984D02*
X4955896Y-43383984D01*
X4955896Y-43383984D02*
X4936848Y-43412555D01*
X4936848Y-43412555D02*
X4917801Y-43431603D01*
X4917801Y-43431603D02*
X4898753Y-43441127D01*
X5098753Y-43564936D02*
X5108277Y-43574460D01*
X5108277Y-43574460D02*
X5098753Y-43583984D01*
X5098753Y-43583984D02*
X5089229Y-43574460D01*
X5089229Y-43574460D02*
X5098753Y-43564936D01*
X5098753Y-43564936D02*
X5098753Y-43583984D01*
X5279705Y-43450650D02*
X5279705Y-43583984D01*
X5232086Y-43374460D02*
X5184467Y-43517317D01*
X5184467Y-43517317D02*
X5308277Y-43517317D01*
X5422563Y-43383984D02*
X5441610Y-43383984D01*
X5441610Y-43383984D02*
X5460658Y-43393508D01*
X5460658Y-43393508D02*
X5470182Y-43403031D01*
X5470182Y-43403031D02*
X5479705Y-43422079D01*
X5479705Y-43422079D02*
X5489229Y-43460174D01*
X5489229Y-43460174D02*
X5489229Y-43507793D01*
X5489229Y-43507793D02*
X5479705Y-43545889D01*
X5479705Y-43545889D02*
X5470182Y-43564936D01*
X5470182Y-43564936D02*
X5460658Y-43574460D01*
X5460658Y-43574460D02*
X5441610Y-43583984D01*
X5441610Y-43583984D02*
X5422563Y-43583984D01*
X5422563Y-43583984D02*
X5403515Y-43574460D01*
X5403515Y-43574460D02*
X5393991Y-43564936D01*
X5393991Y-43564936D02*
X5384467Y-43545889D01*
X5384467Y-43545889D02*
X5374944Y-43507793D01*
X5374944Y-43507793D02*
X5374944Y-43460174D01*
X5374944Y-43460174D02*
X5384467Y-43422079D01*
X5384467Y-43422079D02*
X5393991Y-43403031D01*
X5393991Y-43403031D02*
X5403515Y-43393508D01*
X5403515Y-43393508D02*
X5422563Y-43383984D01*
X5613039Y-43383984D02*
X5632086Y-43383984D01*
X5632086Y-43383984D02*
X5651134Y-43393508D01*
X5651134Y-43393508D02*
X5660658Y-43403031D01*
X5660658Y-43403031D02*
X5670182Y-43422079D01*
X5670182Y-43422079D02*
X5679705Y-43460174D01*
X5679705Y-43460174D02*
X5679705Y-43507793D01*
X5679705Y-43507793D02*
X5670182Y-43545889D01*
X5670182Y-43545889D02*
X5660658Y-43564936D01*
X5660658Y-43564936D02*
X5651134Y-43574460D01*
X5651134Y-43574460D02*
X5632086Y-43583984D01*
X5632086Y-43583984D02*
X5613039Y-43583984D01*
X5613039Y-43583984D02*
X5593991Y-43574460D01*
X5593991Y-43574460D02*
X5584467Y-43564936D01*
X5584467Y-43564936D02*
X5574944Y-43545889D01*
X5574944Y-43545889D02*
X5565420Y-43507793D01*
X5565420Y-43507793D02*
X5565420Y-43460174D01*
X5565420Y-43460174D02*
X5574944Y-43422079D01*
X5574944Y-43422079D02*
X5584467Y-43403031D01*
X5584467Y-43403031D02*
X5593991Y-43393508D01*
X5593991Y-43393508D02*
X5613039Y-43383984D01*
X5765420Y-43583984D02*
X5765420Y-43450650D01*
X5765420Y-43469698D02*
X5774943Y-43460174D01*
X5774943Y-43460174D02*
X5793991Y-43450650D01*
X5793991Y-43450650D02*
X5822563Y-43450650D01*
X5822563Y-43450650D02*
X5841610Y-43460174D01*
X5841610Y-43460174D02*
X5851134Y-43479222D01*
X5851134Y-43479222D02*
X5851134Y-43583984D01*
X5851134Y-43479222D02*
X5860658Y-43460174D01*
X5860658Y-43460174D02*
X5879705Y-43450650D01*
X5879705Y-43450650D02*
X5908277Y-43450650D01*
X5908277Y-43450650D02*
X5927324Y-43460174D01*
X5927324Y-43460174D02*
X5936848Y-43479222D01*
X5936848Y-43479222D02*
X5936848Y-43583984D01*
X6032086Y-43583984D02*
X6032086Y-43450650D01*
X6032086Y-43469698D02*
X6041610Y-43460174D01*
X6041610Y-43460174D02*
X6060658Y-43450650D01*
X6060658Y-43450650D02*
X6089229Y-43450650D01*
X6089229Y-43450650D02*
X6108277Y-43460174D01*
X6108277Y-43460174D02*
X6117801Y-43479222D01*
X6117801Y-43479222D02*
X6117801Y-43583984D01*
X6117801Y-43479222D02*
X6127324Y-43460174D01*
X6127324Y-43460174D02*
X6146372Y-43450650D01*
X6146372Y-43450650D02*
X6174943Y-43450650D01*
X6174943Y-43450650D02*
X6193991Y-43460174D01*
X6193991Y-43460174D02*
X6203515Y-43479222D01*
X6203515Y-43479222D02*
X6203515Y-43583984D01*
X6593991Y-43374460D02*
X6422563Y-43631603D01*
X6851134Y-43383984D02*
X6870182Y-43383984D01*
X6870182Y-43383984D02*
X6889229Y-43393508D01*
X6889229Y-43393508D02*
X6898753Y-43403031D01*
X6898753Y-43403031D02*
X6908277Y-43422079D01*
X6908277Y-43422079D02*
X6917801Y-43460174D01*
X6917801Y-43460174D02*
X6917801Y-43507793D01*
X6917801Y-43507793D02*
X6908277Y-43545889D01*
X6908277Y-43545889D02*
X6898753Y-43564936D01*
X6898753Y-43564936D02*
X6889229Y-43574460D01*
X6889229Y-43574460D02*
X6870182Y-43583984D01*
X6870182Y-43583984D02*
X6851134Y-43583984D01*
X6851134Y-43583984D02*
X6832086Y-43574460D01*
X6832086Y-43574460D02*
X6822563Y-43564936D01*
X6822563Y-43564936D02*
X6813039Y-43545889D01*
X6813039Y-43545889D02*
X6803515Y-43507793D01*
X6803515Y-43507793D02*
X6803515Y-43460174D01*
X6803515Y-43460174D02*
X6813039Y-43422079D01*
X6813039Y-43422079D02*
X6822563Y-43403031D01*
X6822563Y-43403031D02*
X6832086Y-43393508D01*
X6832086Y-43393508D02*
X6851134Y-43383984D01*
X7003515Y-43564936D02*
X7013039Y-43574460D01*
X7013039Y-43574460D02*
X7003515Y-43583984D01*
X7003515Y-43583984D02*
X6993991Y-43574460D01*
X6993991Y-43574460D02*
X7003515Y-43564936D01*
X7003515Y-43564936D02*
X7003515Y-43583984D01*
X7136848Y-43383984D02*
X7155896Y-43383984D01*
X7155896Y-43383984D02*
X7174944Y-43393508D01*
X7174944Y-43393508D02*
X7184467Y-43403031D01*
X7184467Y-43403031D02*
X7193991Y-43422079D01*
X7193991Y-43422079D02*
X7203515Y-43460174D01*
X7203515Y-43460174D02*
X7203515Y-43507793D01*
X7203515Y-43507793D02*
X7193991Y-43545889D01*
X7193991Y-43545889D02*
X7184467Y-43564936D01*
X7184467Y-43564936D02*
X7174944Y-43574460D01*
X7174944Y-43574460D02*
X7155896Y-43583984D01*
X7155896Y-43583984D02*
X7136848Y-43583984D01*
X7136848Y-43583984D02*
X7117801Y-43574460D01*
X7117801Y-43574460D02*
X7108277Y-43564936D01*
X7108277Y-43564936D02*
X7098753Y-43545889D01*
X7098753Y-43545889D02*
X7089229Y-43507793D01*
X7089229Y-43507793D02*
X7089229Y-43460174D01*
X7089229Y-43460174D02*
X7098753Y-43422079D01*
X7098753Y-43422079D02*
X7108277Y-43403031D01*
X7108277Y-43403031D02*
X7117801Y-43393508D01*
X7117801Y-43393508D02*
X7136848Y-43383984D01*
X7384467Y-43383984D02*
X7289229Y-43383984D01*
X7289229Y-43383984D02*
X7279706Y-43479222D01*
X7279706Y-43479222D02*
X7289229Y-43469698D01*
X7289229Y-43469698D02*
X7308277Y-43460174D01*
X7308277Y-43460174D02*
X7355896Y-43460174D01*
X7355896Y-43460174D02*
X7374944Y-43469698D01*
X7374944Y-43469698D02*
X7384467Y-43479222D01*
X7384467Y-43479222D02*
X7393991Y-43498270D01*
X7393991Y-43498270D02*
X7393991Y-43545889D01*
X7393991Y-43545889D02*
X7384467Y-43564936D01*
X7384467Y-43564936D02*
X7374944Y-43574460D01*
X7374944Y-43574460D02*
X7355896Y-43583984D01*
X7355896Y-43583984D02*
X7308277Y-43583984D01*
X7308277Y-43583984D02*
X7289229Y-43574460D01*
X7289229Y-43574460D02*
X7279706Y-43564936D01*
X7574944Y-43383984D02*
X7479706Y-43383984D01*
X7479706Y-43383984D02*
X7470182Y-43479222D01*
X7470182Y-43479222D02*
X7479706Y-43469698D01*
X7479706Y-43469698D02*
X7498753Y-43460174D01*
X7498753Y-43460174D02*
X7546372Y-43460174D01*
X7546372Y-43460174D02*
X7565420Y-43469698D01*
X7565420Y-43469698D02*
X7574944Y-43479222D01*
X7574944Y-43479222D02*
X7584467Y-43498270D01*
X7584467Y-43498270D02*
X7584467Y-43545889D01*
X7584467Y-43545889D02*
X7574944Y-43564936D01*
X7574944Y-43564936D02*
X7565420Y-43574460D01*
X7565420Y-43574460D02*
X7546372Y-43583984D01*
X7546372Y-43583984D02*
X7498753Y-43583984D01*
X7498753Y-43583984D02*
X7479706Y-43574460D01*
X7479706Y-43574460D02*
X7470182Y-43564936D01*
X7774944Y-43583984D02*
X7660658Y-43583984D01*
X7717801Y-43583984D02*
X7717801Y-43383984D01*
X7717801Y-43383984D02*
X7698753Y-43412555D01*
X7698753Y-43412555D02*
X7679706Y-43431603D01*
X7679706Y-43431603D02*
X7660658Y-43441127D01*
X7851134Y-43383984D02*
X7851134Y-43422079D01*
X7927325Y-43383984D02*
X7927325Y-43422079D01*
X8222563Y-43660174D02*
X8213039Y-43650650D01*
X8213039Y-43650650D02*
X8193991Y-43622079D01*
X8193991Y-43622079D02*
X8184468Y-43603031D01*
X8184468Y-43603031D02*
X8174944Y-43574460D01*
X8174944Y-43574460D02*
X8165420Y-43526841D01*
X8165420Y-43526841D02*
X8165420Y-43488746D01*
X8165420Y-43488746D02*
X8174944Y-43441127D01*
X8174944Y-43441127D02*
X8184468Y-43412555D01*
X8184468Y-43412555D02*
X8193991Y-43393508D01*
X8193991Y-43393508D02*
X8213039Y-43364936D01*
X8213039Y-43364936D02*
X8222563Y-43355412D01*
X8327325Y-43469698D02*
X8308277Y-43460174D01*
X8308277Y-43460174D02*
X8298753Y-43450650D01*
X8298753Y-43450650D02*
X8289229Y-43431603D01*
X8289229Y-43431603D02*
X8289229Y-43422079D01*
X8289229Y-43422079D02*
X8298753Y-43403031D01*
X8298753Y-43403031D02*
X8308277Y-43393508D01*
X8308277Y-43393508D02*
X8327325Y-43383984D01*
X8327325Y-43383984D02*
X8365420Y-43383984D01*
X8365420Y-43383984D02*
X8384468Y-43393508D01*
X8384468Y-43393508D02*
X8393991Y-43403031D01*
X8393991Y-43403031D02*
X8403515Y-43422079D01*
X8403515Y-43422079D02*
X8403515Y-43431603D01*
X8403515Y-43431603D02*
X8393991Y-43450650D01*
X8393991Y-43450650D02*
X8384468Y-43460174D01*
X8384468Y-43460174D02*
X8365420Y-43469698D01*
X8365420Y-43469698D02*
X8327325Y-43469698D01*
X8327325Y-43469698D02*
X8308277Y-43479222D01*
X8308277Y-43479222D02*
X8298753Y-43488746D01*
X8298753Y-43488746D02*
X8289229Y-43507793D01*
X8289229Y-43507793D02*
X8289229Y-43545889D01*
X8289229Y-43545889D02*
X8298753Y-43564936D01*
X8298753Y-43564936D02*
X8308277Y-43574460D01*
X8308277Y-43574460D02*
X8327325Y-43583984D01*
X8327325Y-43583984D02*
X8365420Y-43583984D01*
X8365420Y-43583984D02*
X8384468Y-43574460D01*
X8384468Y-43574460D02*
X8393991Y-43564936D01*
X8393991Y-43564936D02*
X8403515Y-43545889D01*
X8403515Y-43545889D02*
X8403515Y-43507793D01*
X8403515Y-43507793D02*
X8393991Y-43488746D01*
X8393991Y-43488746D02*
X8384468Y-43479222D01*
X8384468Y-43479222D02*
X8365420Y-43469698D01*
X8527325Y-43383984D02*
X8546372Y-43383984D01*
X8546372Y-43383984D02*
X8565420Y-43393508D01*
X8565420Y-43393508D02*
X8574944Y-43403031D01*
X8574944Y-43403031D02*
X8584468Y-43422079D01*
X8584468Y-43422079D02*
X8593991Y-43460174D01*
X8593991Y-43460174D02*
X8593991Y-43507793D01*
X8593991Y-43507793D02*
X8584468Y-43545889D01*
X8584468Y-43545889D02*
X8574944Y-43564936D01*
X8574944Y-43564936D02*
X8565420Y-43574460D01*
X8565420Y-43574460D02*
X8546372Y-43583984D01*
X8546372Y-43583984D02*
X8527325Y-43583984D01*
X8527325Y-43583984D02*
X8508277Y-43574460D01*
X8508277Y-43574460D02*
X8498753Y-43564936D01*
X8498753Y-43564936D02*
X8489230Y-43545889D01*
X8489230Y-43545889D02*
X8479706Y-43507793D01*
X8479706Y-43507793D02*
X8479706Y-43460174D01*
X8479706Y-43460174D02*
X8489230Y-43422079D01*
X8489230Y-43422079D02*
X8498753Y-43403031D01*
X8498753Y-43403031D02*
X8508277Y-43393508D01*
X8508277Y-43393508D02*
X8527325Y-43383984D01*
X8832087Y-43583984D02*
X8832087Y-43383984D01*
X8917801Y-43583984D02*
X8917801Y-43479222D01*
X8917801Y-43479222D02*
X8908277Y-43460174D01*
X8908277Y-43460174D02*
X8889230Y-43450650D01*
X8889230Y-43450650D02*
X8860658Y-43450650D01*
X8860658Y-43450650D02*
X8841611Y-43460174D01*
X8841611Y-43460174D02*
X8832087Y-43469698D01*
X9041611Y-43583984D02*
X9022563Y-43574460D01*
X9022563Y-43574460D02*
X9013039Y-43564936D01*
X9013039Y-43564936D02*
X9003515Y-43545889D01*
X9003515Y-43545889D02*
X9003515Y-43488746D01*
X9003515Y-43488746D02*
X9013039Y-43469698D01*
X9013039Y-43469698D02*
X9022563Y-43460174D01*
X9022563Y-43460174D02*
X9041611Y-43450650D01*
X9041611Y-43450650D02*
X9070182Y-43450650D01*
X9070182Y-43450650D02*
X9089230Y-43460174D01*
X9089230Y-43460174D02*
X9098753Y-43469698D01*
X9098753Y-43469698D02*
X9108277Y-43488746D01*
X9108277Y-43488746D02*
X9108277Y-43545889D01*
X9108277Y-43545889D02*
X9098753Y-43564936D01*
X9098753Y-43564936D02*
X9089230Y-43574460D01*
X9089230Y-43574460D02*
X9070182Y-43583984D01*
X9070182Y-43583984D02*
X9041611Y-43583984D01*
X9222563Y-43583984D02*
X9203515Y-43574460D01*
X9203515Y-43574460D02*
X9193992Y-43555412D01*
X9193992Y-43555412D02*
X9193992Y-43383984D01*
X9374944Y-43574460D02*
X9355896Y-43583984D01*
X9355896Y-43583984D02*
X9317801Y-43583984D01*
X9317801Y-43583984D02*
X9298753Y-43574460D01*
X9298753Y-43574460D02*
X9289230Y-43555412D01*
X9289230Y-43555412D02*
X9289230Y-43479222D01*
X9289230Y-43479222D02*
X9298753Y-43460174D01*
X9298753Y-43460174D02*
X9317801Y-43450650D01*
X9317801Y-43450650D02*
X9355896Y-43450650D01*
X9355896Y-43450650D02*
X9374944Y-43460174D01*
X9374944Y-43460174D02*
X9384468Y-43479222D01*
X9384468Y-43479222D02*
X9384468Y-43498270D01*
X9384468Y-43498270D02*
X9289230Y-43517317D01*
X9460658Y-43574460D02*
X9479706Y-43583984D01*
X9479706Y-43583984D02*
X9517801Y-43583984D01*
X9517801Y-43583984D02*
X9536849Y-43574460D01*
X9536849Y-43574460D02*
X9546373Y-43555412D01*
X9546373Y-43555412D02*
X9546373Y-43545889D01*
X9546373Y-43545889D02*
X9536849Y-43526841D01*
X9536849Y-43526841D02*
X9517801Y-43517317D01*
X9517801Y-43517317D02*
X9489230Y-43517317D01*
X9489230Y-43517317D02*
X9470182Y-43507793D01*
X9470182Y-43507793D02*
X9460658Y-43488746D01*
X9460658Y-43488746D02*
X9460658Y-43479222D01*
X9460658Y-43479222D02*
X9470182Y-43460174D01*
X9470182Y-43460174D02*
X9489230Y-43450650D01*
X9489230Y-43450650D02*
X9517801Y-43450650D01*
X9517801Y-43450650D02*
X9536849Y-43460174D01*
X9613039Y-43660174D02*
X9622563Y-43650650D01*
X9622563Y-43650650D02*
X9641611Y-43622079D01*
X9641611Y-43622079D02*
X9651134Y-43603031D01*
X9651134Y-43603031D02*
X9660658Y-43574460D01*
X9660658Y-43574460D02*
X9670182Y-43526841D01*
X9670182Y-43526841D02*
X9670182Y-43488746D01*
X9670182Y-43488746D02*
X9660658Y-43441127D01*
X9660658Y-43441127D02*
X9651134Y-43412555D01*
X9651134Y-43412555D02*
X9641611Y-43393508D01*
X9641611Y-43393508D02*
X9622563Y-43364936D01*
X9622563Y-43364936D02*
X9613039Y-43355412D01*
X9974944Y-43660174D02*
X9965420Y-43650650D01*
X9965420Y-43650650D02*
X9946373Y-43622079D01*
X9946373Y-43622079D02*
X9936849Y-43603031D01*
X9936849Y-43603031D02*
X9927325Y-43574460D01*
X9927325Y-43574460D02*
X9917801Y-43526841D01*
X9917801Y-43526841D02*
X9917801Y-43488746D01*
X9917801Y-43488746D02*
X9927325Y-43441127D01*
X9927325Y-43441127D02*
X9936849Y-43412555D01*
X9936849Y-43412555D02*
X9946373Y-43393508D01*
X9946373Y-43393508D02*
X9965420Y-43364936D01*
X9965420Y-43364936D02*
X9974944Y-43355412D01*
X10051134Y-43450650D02*
X10051134Y-43583984D01*
X10051134Y-43469698D02*
X10060658Y-43460174D01*
X10060658Y-43460174D02*
X10079706Y-43450650D01*
X10079706Y-43450650D02*
X10108277Y-43450650D01*
X10108277Y-43450650D02*
X10127325Y-43460174D01*
X10127325Y-43460174D02*
X10136849Y-43479222D01*
X10136849Y-43479222D02*
X10136849Y-43583984D01*
X10260658Y-43583984D02*
X10241611Y-43574460D01*
X10241611Y-43574460D02*
X10232087Y-43564936D01*
X10232087Y-43564936D02*
X10222563Y-43545889D01*
X10222563Y-43545889D02*
X10222563Y-43488746D01*
X10222563Y-43488746D02*
X10232087Y-43469698D01*
X10232087Y-43469698D02*
X10241611Y-43460174D01*
X10241611Y-43460174D02*
X10260658Y-43450650D01*
X10260658Y-43450650D02*
X10289230Y-43450650D01*
X10289230Y-43450650D02*
X10308277Y-43460174D01*
X10308277Y-43460174D02*
X10317801Y-43469698D01*
X10317801Y-43469698D02*
X10327325Y-43488746D01*
X10327325Y-43488746D02*
X10327325Y-43545889D01*
X10327325Y-43545889D02*
X10317801Y-43564936D01*
X10317801Y-43564936D02*
X10308277Y-43574460D01*
X10308277Y-43574460D02*
X10289230Y-43583984D01*
X10289230Y-43583984D02*
X10260658Y-43583984D01*
X10384468Y-43450650D02*
X10460658Y-43450650D01*
X10413039Y-43383984D02*
X10413039Y-43555412D01*
X10413039Y-43555412D02*
X10422563Y-43574460D01*
X10422563Y-43574460D02*
X10441611Y-43583984D01*
X10441611Y-43583984D02*
X10460658Y-43583984D01*
X10679706Y-43450650D02*
X10679706Y-43650650D01*
X10679706Y-43460174D02*
X10698754Y-43450650D01*
X10698754Y-43450650D02*
X10736849Y-43450650D01*
X10736849Y-43450650D02*
X10755896Y-43460174D01*
X10755896Y-43460174D02*
X10765420Y-43469698D01*
X10765420Y-43469698D02*
X10774944Y-43488746D01*
X10774944Y-43488746D02*
X10774944Y-43545889D01*
X10774944Y-43545889D02*
X10765420Y-43564936D01*
X10765420Y-43564936D02*
X10755896Y-43574460D01*
X10755896Y-43574460D02*
X10736849Y-43583984D01*
X10736849Y-43583984D02*
X10698754Y-43583984D01*
X10698754Y-43583984D02*
X10679706Y-43574460D01*
X10889230Y-43583984D02*
X10870182Y-43574460D01*
X10870182Y-43574460D02*
X10860658Y-43555412D01*
X10860658Y-43555412D02*
X10860658Y-43383984D01*
X11051135Y-43583984D02*
X11051135Y-43479222D01*
X11051135Y-43479222D02*
X11041611Y-43460174D01*
X11041611Y-43460174D02*
X11022563Y-43450650D01*
X11022563Y-43450650D02*
X10984468Y-43450650D01*
X10984468Y-43450650D02*
X10965420Y-43460174D01*
X11051135Y-43574460D02*
X11032087Y-43583984D01*
X11032087Y-43583984D02*
X10984468Y-43583984D01*
X10984468Y-43583984D02*
X10965420Y-43574460D01*
X10965420Y-43574460D02*
X10955896Y-43555412D01*
X10955896Y-43555412D02*
X10955896Y-43536365D01*
X10955896Y-43536365D02*
X10965420Y-43517317D01*
X10965420Y-43517317D02*
X10984468Y-43507793D01*
X10984468Y-43507793D02*
X11032087Y-43507793D01*
X11032087Y-43507793D02*
X11051135Y-43498270D01*
X11117801Y-43450650D02*
X11193992Y-43450650D01*
X11146373Y-43383984D02*
X11146373Y-43555412D01*
X11146373Y-43555412D02*
X11155896Y-43574460D01*
X11155896Y-43574460D02*
X11174944Y-43583984D01*
X11174944Y-43583984D02*
X11193992Y-43583984D01*
X11336849Y-43574460D02*
X11317801Y-43583984D01*
X11317801Y-43583984D02*
X11279706Y-43583984D01*
X11279706Y-43583984D02*
X11260658Y-43574460D01*
X11260658Y-43574460D02*
X11251134Y-43555412D01*
X11251134Y-43555412D02*
X11251134Y-43479222D01*
X11251134Y-43479222D02*
X11260658Y-43460174D01*
X11260658Y-43460174D02*
X11279706Y-43450650D01*
X11279706Y-43450650D02*
X11317801Y-43450650D01*
X11317801Y-43450650D02*
X11336849Y-43460174D01*
X11336849Y-43460174D02*
X11346373Y-43479222D01*
X11346373Y-43479222D02*
X11346373Y-43498270D01*
X11346373Y-43498270D02*
X11251134Y-43517317D01*
X11517801Y-43583984D02*
X11517801Y-43383984D01*
X11517801Y-43574460D02*
X11498754Y-43583984D01*
X11498754Y-43583984D02*
X11460658Y-43583984D01*
X11460658Y-43583984D02*
X11441611Y-43574460D01*
X11441611Y-43574460D02*
X11432087Y-43564936D01*
X11432087Y-43564936D02*
X11422563Y-43545889D01*
X11422563Y-43545889D02*
X11422563Y-43488746D01*
X11422563Y-43488746D02*
X11432087Y-43469698D01*
X11432087Y-43469698D02*
X11441611Y-43460174D01*
X11441611Y-43460174D02*
X11460658Y-43450650D01*
X11460658Y-43450650D02*
X11498754Y-43450650D01*
X11498754Y-43450650D02*
X11517801Y-43460174D01*
X11593992Y-43660174D02*
X11603515Y-43650650D01*
X11603515Y-43650650D02*
X11622563Y-43622079D01*
X11622563Y-43622079D02*
X11632087Y-43603031D01*
X11632087Y-43603031D02*
X11641611Y-43574460D01*
X11641611Y-43574460D02*
X11651134Y-43526841D01*
X11651134Y-43526841D02*
X11651134Y-43488746D01*
X11651134Y-43488746D02*
X11641611Y-43441127D01*
X11641611Y-43441127D02*
X11632087Y-43412555D01*
X11632087Y-43412555D02*
X11622563Y-43393508D01*
X11622563Y-43393508D02*
X11603515Y-43364936D01*
X11603515Y-43364936D02*
X11593992Y-43355412D01*
D13*
X4647500Y-43756500D02*
G75*
G02*
X4462500Y-43756500I-92500J0D01*
G01*
X4462500Y-43756500D02*
G75*
G02*
X4647500Y-43756500I92500J0D01*
G01*
D11*
X5013039Y-43847984D02*
X4898753Y-43847984D01*
X4955896Y-43847984D02*
X4955896Y-43647984D01*
X4955896Y-43647984D02*
X4936848Y-43676555D01*
X4936848Y-43676555D02*
X4917801Y-43695603D01*
X4917801Y-43695603D02*
X4898753Y-43705127D01*
X5098753Y-43828936D02*
X5108277Y-43838460D01*
X5108277Y-43838460D02*
X5098753Y-43847984D01*
X5098753Y-43847984D02*
X5089229Y-43838460D01*
X5089229Y-43838460D02*
X5098753Y-43828936D01*
X5098753Y-43828936D02*
X5098753Y-43847984D01*
X5222563Y-43733698D02*
X5203515Y-43724174D01*
X5203515Y-43724174D02*
X5193991Y-43714650D01*
X5193991Y-43714650D02*
X5184467Y-43695603D01*
X5184467Y-43695603D02*
X5184467Y-43686079D01*
X5184467Y-43686079D02*
X5193991Y-43667031D01*
X5193991Y-43667031D02*
X5203515Y-43657508D01*
X5203515Y-43657508D02*
X5222563Y-43647984D01*
X5222563Y-43647984D02*
X5260658Y-43647984D01*
X5260658Y-43647984D02*
X5279705Y-43657508D01*
X5279705Y-43657508D02*
X5289229Y-43667031D01*
X5289229Y-43667031D02*
X5298753Y-43686079D01*
X5298753Y-43686079D02*
X5298753Y-43695603D01*
X5298753Y-43695603D02*
X5289229Y-43714650D01*
X5289229Y-43714650D02*
X5279705Y-43724174D01*
X5279705Y-43724174D02*
X5260658Y-43733698D01*
X5260658Y-43733698D02*
X5222563Y-43733698D01*
X5222563Y-43733698D02*
X5203515Y-43743222D01*
X5203515Y-43743222D02*
X5193991Y-43752746D01*
X5193991Y-43752746D02*
X5184467Y-43771793D01*
X5184467Y-43771793D02*
X5184467Y-43809889D01*
X5184467Y-43809889D02*
X5193991Y-43828936D01*
X5193991Y-43828936D02*
X5203515Y-43838460D01*
X5203515Y-43838460D02*
X5222563Y-43847984D01*
X5222563Y-43847984D02*
X5260658Y-43847984D01*
X5260658Y-43847984D02*
X5279705Y-43838460D01*
X5279705Y-43838460D02*
X5289229Y-43828936D01*
X5289229Y-43828936D02*
X5298753Y-43809889D01*
X5298753Y-43809889D02*
X5298753Y-43771793D01*
X5298753Y-43771793D02*
X5289229Y-43752746D01*
X5289229Y-43752746D02*
X5279705Y-43743222D01*
X5279705Y-43743222D02*
X5260658Y-43733698D01*
X5479705Y-43647984D02*
X5384467Y-43647984D01*
X5384467Y-43647984D02*
X5374944Y-43743222D01*
X5374944Y-43743222D02*
X5384467Y-43733698D01*
X5384467Y-43733698D02*
X5403515Y-43724174D01*
X5403515Y-43724174D02*
X5451134Y-43724174D01*
X5451134Y-43724174D02*
X5470182Y-43733698D01*
X5470182Y-43733698D02*
X5479705Y-43743222D01*
X5479705Y-43743222D02*
X5489229Y-43762270D01*
X5489229Y-43762270D02*
X5489229Y-43809889D01*
X5489229Y-43809889D02*
X5479705Y-43828936D01*
X5479705Y-43828936D02*
X5470182Y-43838460D01*
X5470182Y-43838460D02*
X5451134Y-43847984D01*
X5451134Y-43847984D02*
X5403515Y-43847984D01*
X5403515Y-43847984D02*
X5384467Y-43838460D01*
X5384467Y-43838460D02*
X5374944Y-43828936D01*
X5613039Y-43647984D02*
X5632086Y-43647984D01*
X5632086Y-43647984D02*
X5651134Y-43657508D01*
X5651134Y-43657508D02*
X5660658Y-43667031D01*
X5660658Y-43667031D02*
X5670182Y-43686079D01*
X5670182Y-43686079D02*
X5679705Y-43724174D01*
X5679705Y-43724174D02*
X5679705Y-43771793D01*
X5679705Y-43771793D02*
X5670182Y-43809889D01*
X5670182Y-43809889D02*
X5660658Y-43828936D01*
X5660658Y-43828936D02*
X5651134Y-43838460D01*
X5651134Y-43838460D02*
X5632086Y-43847984D01*
X5632086Y-43847984D02*
X5613039Y-43847984D01*
X5613039Y-43847984D02*
X5593991Y-43838460D01*
X5593991Y-43838460D02*
X5584467Y-43828936D01*
X5584467Y-43828936D02*
X5574944Y-43809889D01*
X5574944Y-43809889D02*
X5565420Y-43771793D01*
X5565420Y-43771793D02*
X5565420Y-43724174D01*
X5565420Y-43724174D02*
X5574944Y-43686079D01*
X5574944Y-43686079D02*
X5584467Y-43667031D01*
X5584467Y-43667031D02*
X5593991Y-43657508D01*
X5593991Y-43657508D02*
X5613039Y-43647984D01*
X5765420Y-43847984D02*
X5765420Y-43714650D01*
X5765420Y-43733698D02*
X5774943Y-43724174D01*
X5774943Y-43724174D02*
X5793991Y-43714650D01*
X5793991Y-43714650D02*
X5822563Y-43714650D01*
X5822563Y-43714650D02*
X5841610Y-43724174D01*
X5841610Y-43724174D02*
X5851134Y-43743222D01*
X5851134Y-43743222D02*
X5851134Y-43847984D01*
X5851134Y-43743222D02*
X5860658Y-43724174D01*
X5860658Y-43724174D02*
X5879705Y-43714650D01*
X5879705Y-43714650D02*
X5908277Y-43714650D01*
X5908277Y-43714650D02*
X5927324Y-43724174D01*
X5927324Y-43724174D02*
X5936848Y-43743222D01*
X5936848Y-43743222D02*
X5936848Y-43847984D01*
X6032086Y-43847984D02*
X6032086Y-43714650D01*
X6032086Y-43733698D02*
X6041610Y-43724174D01*
X6041610Y-43724174D02*
X6060658Y-43714650D01*
X6060658Y-43714650D02*
X6089229Y-43714650D01*
X6089229Y-43714650D02*
X6108277Y-43724174D01*
X6108277Y-43724174D02*
X6117801Y-43743222D01*
X6117801Y-43743222D02*
X6117801Y-43847984D01*
X6117801Y-43743222D02*
X6127324Y-43724174D01*
X6127324Y-43724174D02*
X6146372Y-43714650D01*
X6146372Y-43714650D02*
X6174943Y-43714650D01*
X6174943Y-43714650D02*
X6193991Y-43724174D01*
X6193991Y-43724174D02*
X6203515Y-43743222D01*
X6203515Y-43743222D02*
X6203515Y-43847984D01*
X6593991Y-43638460D02*
X6422563Y-43895603D01*
X6851134Y-43647984D02*
X6870182Y-43647984D01*
X6870182Y-43647984D02*
X6889229Y-43657508D01*
X6889229Y-43657508D02*
X6898753Y-43667031D01*
X6898753Y-43667031D02*
X6908277Y-43686079D01*
X6908277Y-43686079D02*
X6917801Y-43724174D01*
X6917801Y-43724174D02*
X6917801Y-43771793D01*
X6917801Y-43771793D02*
X6908277Y-43809889D01*
X6908277Y-43809889D02*
X6898753Y-43828936D01*
X6898753Y-43828936D02*
X6889229Y-43838460D01*
X6889229Y-43838460D02*
X6870182Y-43847984D01*
X6870182Y-43847984D02*
X6851134Y-43847984D01*
X6851134Y-43847984D02*
X6832086Y-43838460D01*
X6832086Y-43838460D02*
X6822563Y-43828936D01*
X6822563Y-43828936D02*
X6813039Y-43809889D01*
X6813039Y-43809889D02*
X6803515Y-43771793D01*
X6803515Y-43771793D02*
X6803515Y-43724174D01*
X6803515Y-43724174D02*
X6813039Y-43686079D01*
X6813039Y-43686079D02*
X6822563Y-43667031D01*
X6822563Y-43667031D02*
X6832086Y-43657508D01*
X6832086Y-43657508D02*
X6851134Y-43647984D01*
X7003515Y-43828936D02*
X7013039Y-43838460D01*
X7013039Y-43838460D02*
X7003515Y-43847984D01*
X7003515Y-43847984D02*
X6993991Y-43838460D01*
X6993991Y-43838460D02*
X7003515Y-43828936D01*
X7003515Y-43828936D02*
X7003515Y-43847984D01*
X7136848Y-43647984D02*
X7155896Y-43647984D01*
X7155896Y-43647984D02*
X7174944Y-43657508D01*
X7174944Y-43657508D02*
X7184467Y-43667031D01*
X7184467Y-43667031D02*
X7193991Y-43686079D01*
X7193991Y-43686079D02*
X7203515Y-43724174D01*
X7203515Y-43724174D02*
X7203515Y-43771793D01*
X7203515Y-43771793D02*
X7193991Y-43809889D01*
X7193991Y-43809889D02*
X7184467Y-43828936D01*
X7184467Y-43828936D02*
X7174944Y-43838460D01*
X7174944Y-43838460D02*
X7155896Y-43847984D01*
X7155896Y-43847984D02*
X7136848Y-43847984D01*
X7136848Y-43847984D02*
X7117801Y-43838460D01*
X7117801Y-43838460D02*
X7108277Y-43828936D01*
X7108277Y-43828936D02*
X7098753Y-43809889D01*
X7098753Y-43809889D02*
X7089229Y-43771793D01*
X7089229Y-43771793D02*
X7089229Y-43724174D01*
X7089229Y-43724174D02*
X7098753Y-43686079D01*
X7098753Y-43686079D02*
X7108277Y-43667031D01*
X7108277Y-43667031D02*
X7117801Y-43657508D01*
X7117801Y-43657508D02*
X7136848Y-43647984D01*
X7270182Y-43647984D02*
X7403515Y-43647984D01*
X7403515Y-43647984D02*
X7317801Y-43847984D01*
X7470182Y-43667031D02*
X7479706Y-43657508D01*
X7479706Y-43657508D02*
X7498753Y-43647984D01*
X7498753Y-43647984D02*
X7546372Y-43647984D01*
X7546372Y-43647984D02*
X7565420Y-43657508D01*
X7565420Y-43657508D02*
X7574944Y-43667031D01*
X7574944Y-43667031D02*
X7584467Y-43686079D01*
X7584467Y-43686079D02*
X7584467Y-43705127D01*
X7584467Y-43705127D02*
X7574944Y-43733698D01*
X7574944Y-43733698D02*
X7460658Y-43847984D01*
X7460658Y-43847984D02*
X7584467Y-43847984D01*
X7698753Y-43733698D02*
X7679706Y-43724174D01*
X7679706Y-43724174D02*
X7670182Y-43714650D01*
X7670182Y-43714650D02*
X7660658Y-43695603D01*
X7660658Y-43695603D02*
X7660658Y-43686079D01*
X7660658Y-43686079D02*
X7670182Y-43667031D01*
X7670182Y-43667031D02*
X7679706Y-43657508D01*
X7679706Y-43657508D02*
X7698753Y-43647984D01*
X7698753Y-43647984D02*
X7736848Y-43647984D01*
X7736848Y-43647984D02*
X7755896Y-43657508D01*
X7755896Y-43657508D02*
X7765420Y-43667031D01*
X7765420Y-43667031D02*
X7774944Y-43686079D01*
X7774944Y-43686079D02*
X7774944Y-43695603D01*
X7774944Y-43695603D02*
X7765420Y-43714650D01*
X7765420Y-43714650D02*
X7755896Y-43724174D01*
X7755896Y-43724174D02*
X7736848Y-43733698D01*
X7736848Y-43733698D02*
X7698753Y-43733698D01*
X7698753Y-43733698D02*
X7679706Y-43743222D01*
X7679706Y-43743222D02*
X7670182Y-43752746D01*
X7670182Y-43752746D02*
X7660658Y-43771793D01*
X7660658Y-43771793D02*
X7660658Y-43809889D01*
X7660658Y-43809889D02*
X7670182Y-43828936D01*
X7670182Y-43828936D02*
X7679706Y-43838460D01*
X7679706Y-43838460D02*
X7698753Y-43847984D01*
X7698753Y-43847984D02*
X7736848Y-43847984D01*
X7736848Y-43847984D02*
X7755896Y-43838460D01*
X7755896Y-43838460D02*
X7765420Y-43828936D01*
X7765420Y-43828936D02*
X7774944Y-43809889D01*
X7774944Y-43809889D02*
X7774944Y-43771793D01*
X7774944Y-43771793D02*
X7765420Y-43752746D01*
X7765420Y-43752746D02*
X7755896Y-43743222D01*
X7755896Y-43743222D02*
X7736848Y-43733698D01*
X7851134Y-43647984D02*
X7851134Y-43686079D01*
X7927325Y-43647984D02*
X7927325Y-43686079D01*
X8222563Y-43924174D02*
X8213039Y-43914650D01*
X8213039Y-43914650D02*
X8193991Y-43886079D01*
X8193991Y-43886079D02*
X8184468Y-43867031D01*
X8184468Y-43867031D02*
X8174944Y-43838460D01*
X8174944Y-43838460D02*
X8165420Y-43790841D01*
X8165420Y-43790841D02*
X8165420Y-43752746D01*
X8165420Y-43752746D02*
X8174944Y-43705127D01*
X8174944Y-43705127D02*
X8184468Y-43676555D01*
X8184468Y-43676555D02*
X8193991Y-43657508D01*
X8193991Y-43657508D02*
X8213039Y-43628936D01*
X8213039Y-43628936D02*
X8222563Y-43619412D01*
X8403515Y-43847984D02*
X8289229Y-43847984D01*
X8346372Y-43847984D02*
X8346372Y-43647984D01*
X8346372Y-43647984D02*
X8327325Y-43676555D01*
X8327325Y-43676555D02*
X8308277Y-43695603D01*
X8308277Y-43695603D02*
X8289229Y-43705127D01*
X8641611Y-43847984D02*
X8641611Y-43647984D01*
X8727325Y-43847984D02*
X8727325Y-43743222D01*
X8727325Y-43743222D02*
X8717801Y-43724174D01*
X8717801Y-43724174D02*
X8698753Y-43714650D01*
X8698753Y-43714650D02*
X8670182Y-43714650D01*
X8670182Y-43714650D02*
X8651134Y-43724174D01*
X8651134Y-43724174D02*
X8641611Y-43733698D01*
X8851134Y-43847984D02*
X8832087Y-43838460D01*
X8832087Y-43838460D02*
X8822563Y-43828936D01*
X8822563Y-43828936D02*
X8813039Y-43809889D01*
X8813039Y-43809889D02*
X8813039Y-43752746D01*
X8813039Y-43752746D02*
X8822563Y-43733698D01*
X8822563Y-43733698D02*
X8832087Y-43724174D01*
X8832087Y-43724174D02*
X8851134Y-43714650D01*
X8851134Y-43714650D02*
X8879706Y-43714650D01*
X8879706Y-43714650D02*
X8898753Y-43724174D01*
X8898753Y-43724174D02*
X8908277Y-43733698D01*
X8908277Y-43733698D02*
X8917801Y-43752746D01*
X8917801Y-43752746D02*
X8917801Y-43809889D01*
X8917801Y-43809889D02*
X8908277Y-43828936D01*
X8908277Y-43828936D02*
X8898753Y-43838460D01*
X8898753Y-43838460D02*
X8879706Y-43847984D01*
X8879706Y-43847984D02*
X8851134Y-43847984D01*
X9032087Y-43847984D02*
X9013039Y-43838460D01*
X9013039Y-43838460D02*
X9003515Y-43819412D01*
X9003515Y-43819412D02*
X9003515Y-43647984D01*
X9184468Y-43838460D02*
X9165420Y-43847984D01*
X9165420Y-43847984D02*
X9127325Y-43847984D01*
X9127325Y-43847984D02*
X9108277Y-43838460D01*
X9108277Y-43838460D02*
X9098753Y-43819412D01*
X9098753Y-43819412D02*
X9098753Y-43743222D01*
X9098753Y-43743222D02*
X9108277Y-43724174D01*
X9108277Y-43724174D02*
X9127325Y-43714650D01*
X9127325Y-43714650D02*
X9165420Y-43714650D01*
X9165420Y-43714650D02*
X9184468Y-43724174D01*
X9184468Y-43724174D02*
X9193992Y-43743222D01*
X9193992Y-43743222D02*
X9193992Y-43762270D01*
X9193992Y-43762270D02*
X9098753Y-43781317D01*
X9260658Y-43924174D02*
X9270182Y-43914650D01*
X9270182Y-43914650D02*
X9289230Y-43886079D01*
X9289230Y-43886079D02*
X9298753Y-43867031D01*
X9298753Y-43867031D02*
X9308277Y-43838460D01*
X9308277Y-43838460D02*
X9317801Y-43790841D01*
X9317801Y-43790841D02*
X9317801Y-43752746D01*
X9317801Y-43752746D02*
X9308277Y-43705127D01*
X9308277Y-43705127D02*
X9298753Y-43676555D01*
X9298753Y-43676555D02*
X9289230Y-43657508D01*
X9289230Y-43657508D02*
X9270182Y-43628936D01*
X9270182Y-43628936D02*
X9260658Y-43619412D01*
X9622563Y-43924174D02*
X9613039Y-43914650D01*
X9613039Y-43914650D02*
X9593992Y-43886079D01*
X9593992Y-43886079D02*
X9584468Y-43867031D01*
X9584468Y-43867031D02*
X9574944Y-43838460D01*
X9574944Y-43838460D02*
X9565420Y-43790841D01*
X9565420Y-43790841D02*
X9565420Y-43752746D01*
X9565420Y-43752746D02*
X9574944Y-43705127D01*
X9574944Y-43705127D02*
X9584468Y-43676555D01*
X9584468Y-43676555D02*
X9593992Y-43657508D01*
X9593992Y-43657508D02*
X9613039Y-43628936D01*
X9613039Y-43628936D02*
X9622563Y-43619412D01*
X9698753Y-43714650D02*
X9698753Y-43847984D01*
X9698753Y-43733698D02*
X9708277Y-43724174D01*
X9708277Y-43724174D02*
X9727325Y-43714650D01*
X9727325Y-43714650D02*
X9755896Y-43714650D01*
X9755896Y-43714650D02*
X9774944Y-43724174D01*
X9774944Y-43724174D02*
X9784468Y-43743222D01*
X9784468Y-43743222D02*
X9784468Y-43847984D01*
X9908277Y-43847984D02*
X9889230Y-43838460D01*
X9889230Y-43838460D02*
X9879706Y-43828936D01*
X9879706Y-43828936D02*
X9870182Y-43809889D01*
X9870182Y-43809889D02*
X9870182Y-43752746D01*
X9870182Y-43752746D02*
X9879706Y-43733698D01*
X9879706Y-43733698D02*
X9889230Y-43724174D01*
X9889230Y-43724174D02*
X9908277Y-43714650D01*
X9908277Y-43714650D02*
X9936849Y-43714650D01*
X9936849Y-43714650D02*
X9955896Y-43724174D01*
X9955896Y-43724174D02*
X9965420Y-43733698D01*
X9965420Y-43733698D02*
X9974944Y-43752746D01*
X9974944Y-43752746D02*
X9974944Y-43809889D01*
X9974944Y-43809889D02*
X9965420Y-43828936D01*
X9965420Y-43828936D02*
X9955896Y-43838460D01*
X9955896Y-43838460D02*
X9936849Y-43847984D01*
X9936849Y-43847984D02*
X9908277Y-43847984D01*
X10032087Y-43714650D02*
X10108277Y-43714650D01*
X10060658Y-43647984D02*
X10060658Y-43819412D01*
X10060658Y-43819412D02*
X10070182Y-43838460D01*
X10070182Y-43838460D02*
X10089230Y-43847984D01*
X10089230Y-43847984D02*
X10108277Y-43847984D01*
X10327325Y-43714650D02*
X10327325Y-43914650D01*
X10327325Y-43724174D02*
X10346373Y-43714650D01*
X10346373Y-43714650D02*
X10384468Y-43714650D01*
X10384468Y-43714650D02*
X10403515Y-43724174D01*
X10403515Y-43724174D02*
X10413039Y-43733698D01*
X10413039Y-43733698D02*
X10422563Y-43752746D01*
X10422563Y-43752746D02*
X10422563Y-43809889D01*
X10422563Y-43809889D02*
X10413039Y-43828936D01*
X10413039Y-43828936D02*
X10403515Y-43838460D01*
X10403515Y-43838460D02*
X10384468Y-43847984D01*
X10384468Y-43847984D02*
X10346373Y-43847984D01*
X10346373Y-43847984D02*
X10327325Y-43838460D01*
X10536849Y-43847984D02*
X10517801Y-43838460D01*
X10517801Y-43838460D02*
X10508277Y-43819412D01*
X10508277Y-43819412D02*
X10508277Y-43647984D01*
X10698754Y-43847984D02*
X10698754Y-43743222D01*
X10698754Y-43743222D02*
X10689230Y-43724174D01*
X10689230Y-43724174D02*
X10670182Y-43714650D01*
X10670182Y-43714650D02*
X10632087Y-43714650D01*
X10632087Y-43714650D02*
X10613039Y-43724174D01*
X10698754Y-43838460D02*
X10679706Y-43847984D01*
X10679706Y-43847984D02*
X10632087Y-43847984D01*
X10632087Y-43847984D02*
X10613039Y-43838460D01*
X10613039Y-43838460D02*
X10603515Y-43819412D01*
X10603515Y-43819412D02*
X10603515Y-43800365D01*
X10603515Y-43800365D02*
X10613039Y-43781317D01*
X10613039Y-43781317D02*
X10632087Y-43771793D01*
X10632087Y-43771793D02*
X10679706Y-43771793D01*
X10679706Y-43771793D02*
X10698754Y-43762270D01*
X10765420Y-43714650D02*
X10841611Y-43714650D01*
X10793992Y-43647984D02*
X10793992Y-43819412D01*
X10793992Y-43819412D02*
X10803515Y-43838460D01*
X10803515Y-43838460D02*
X10822563Y-43847984D01*
X10822563Y-43847984D02*
X10841611Y-43847984D01*
X10984468Y-43838460D02*
X10965420Y-43847984D01*
X10965420Y-43847984D02*
X10927325Y-43847984D01*
X10927325Y-43847984D02*
X10908277Y-43838460D01*
X10908277Y-43838460D02*
X10898754Y-43819412D01*
X10898754Y-43819412D02*
X10898754Y-43743222D01*
X10898754Y-43743222D02*
X10908277Y-43724174D01*
X10908277Y-43724174D02*
X10927325Y-43714650D01*
X10927325Y-43714650D02*
X10965420Y-43714650D01*
X10965420Y-43714650D02*
X10984468Y-43724174D01*
X10984468Y-43724174D02*
X10993992Y-43743222D01*
X10993992Y-43743222D02*
X10993992Y-43762270D01*
X10993992Y-43762270D02*
X10898754Y-43781317D01*
X11165420Y-43847984D02*
X11165420Y-43647984D01*
X11165420Y-43838460D02*
X11146373Y-43847984D01*
X11146373Y-43847984D02*
X11108277Y-43847984D01*
X11108277Y-43847984D02*
X11089230Y-43838460D01*
X11089230Y-43838460D02*
X11079706Y-43828936D01*
X11079706Y-43828936D02*
X11070182Y-43809889D01*
X11070182Y-43809889D02*
X11070182Y-43752746D01*
X11070182Y-43752746D02*
X11079706Y-43733698D01*
X11079706Y-43733698D02*
X11089230Y-43724174D01*
X11089230Y-43724174D02*
X11108277Y-43714650D01*
X11108277Y-43714650D02*
X11146373Y-43714650D01*
X11146373Y-43714650D02*
X11165420Y-43724174D01*
X11241611Y-43924174D02*
X11251134Y-43914650D01*
X11251134Y-43914650D02*
X11270182Y-43886079D01*
X11270182Y-43886079D02*
X11279706Y-43867031D01*
X11279706Y-43867031D02*
X11289230Y-43838460D01*
X11289230Y-43838460D02*
X11298753Y-43790841D01*
X11298753Y-43790841D02*
X11298753Y-43752746D01*
X11298753Y-43752746D02*
X11289230Y-43705127D01*
X11289230Y-43705127D02*
X11279706Y-43676555D01*
X11279706Y-43676555D02*
X11270182Y-43657508D01*
X11270182Y-43657508D02*
X11251134Y-43628936D01*
X11251134Y-43628936D02*
X11241611Y-43619412D01*
D14*
X4552500Y-43966500D02*
X4552500Y-44156500D01*
X4457500Y-44061500D02*
X4647500Y-44061500D01*
D11*
X5013039Y-44152984D02*
X4898753Y-44152984D01*
X4955896Y-44152984D02*
X4955896Y-43952984D01*
X4955896Y-43952984D02*
X4936848Y-43981555D01*
X4936848Y-43981555D02*
X4917801Y-44000603D01*
X4917801Y-44000603D02*
X4898753Y-44010127D01*
X5098753Y-44133936D02*
X5108277Y-44143460D01*
X5108277Y-44143460D02*
X5098753Y-44152984D01*
X5098753Y-44152984D02*
X5089229Y-44143460D01*
X5089229Y-44143460D02*
X5098753Y-44133936D01*
X5098753Y-44133936D02*
X5098753Y-44152984D01*
X5203515Y-44152984D02*
X5241610Y-44152984D01*
X5241610Y-44152984D02*
X5260658Y-44143460D01*
X5260658Y-44143460D02*
X5270182Y-44133936D01*
X5270182Y-44133936D02*
X5289229Y-44105365D01*
X5289229Y-44105365D02*
X5298753Y-44067270D01*
X5298753Y-44067270D02*
X5298753Y-43991079D01*
X5298753Y-43991079D02*
X5289229Y-43972031D01*
X5289229Y-43972031D02*
X5279705Y-43962508D01*
X5279705Y-43962508D02*
X5260658Y-43952984D01*
X5260658Y-43952984D02*
X5222563Y-43952984D01*
X5222563Y-43952984D02*
X5203515Y-43962508D01*
X5203515Y-43962508D02*
X5193991Y-43972031D01*
X5193991Y-43972031D02*
X5184467Y-43991079D01*
X5184467Y-43991079D02*
X5184467Y-44038698D01*
X5184467Y-44038698D02*
X5193991Y-44057746D01*
X5193991Y-44057746D02*
X5203515Y-44067270D01*
X5203515Y-44067270D02*
X5222563Y-44076793D01*
X5222563Y-44076793D02*
X5260658Y-44076793D01*
X5260658Y-44076793D02*
X5279705Y-44067270D01*
X5279705Y-44067270D02*
X5289229Y-44057746D01*
X5289229Y-44057746D02*
X5298753Y-44038698D01*
X5422563Y-43952984D02*
X5441610Y-43952984D01*
X5441610Y-43952984D02*
X5460658Y-43962508D01*
X5460658Y-43962508D02*
X5470182Y-43972031D01*
X5470182Y-43972031D02*
X5479705Y-43991079D01*
X5479705Y-43991079D02*
X5489229Y-44029174D01*
X5489229Y-44029174D02*
X5489229Y-44076793D01*
X5489229Y-44076793D02*
X5479705Y-44114889D01*
X5479705Y-44114889D02*
X5470182Y-44133936D01*
X5470182Y-44133936D02*
X5460658Y-44143460D01*
X5460658Y-44143460D02*
X5441610Y-44152984D01*
X5441610Y-44152984D02*
X5422563Y-44152984D01*
X5422563Y-44152984D02*
X5403515Y-44143460D01*
X5403515Y-44143460D02*
X5393991Y-44133936D01*
X5393991Y-44133936D02*
X5384467Y-44114889D01*
X5384467Y-44114889D02*
X5374944Y-44076793D01*
X5374944Y-44076793D02*
X5374944Y-44029174D01*
X5374944Y-44029174D02*
X5384467Y-43991079D01*
X5384467Y-43991079D02*
X5393991Y-43972031D01*
X5393991Y-43972031D02*
X5403515Y-43962508D01*
X5403515Y-43962508D02*
X5422563Y-43952984D01*
X5613039Y-43952984D02*
X5632086Y-43952984D01*
X5632086Y-43952984D02*
X5651134Y-43962508D01*
X5651134Y-43962508D02*
X5660658Y-43972031D01*
X5660658Y-43972031D02*
X5670182Y-43991079D01*
X5670182Y-43991079D02*
X5679705Y-44029174D01*
X5679705Y-44029174D02*
X5679705Y-44076793D01*
X5679705Y-44076793D02*
X5670182Y-44114889D01*
X5670182Y-44114889D02*
X5660658Y-44133936D01*
X5660658Y-44133936D02*
X5651134Y-44143460D01*
X5651134Y-44143460D02*
X5632086Y-44152984D01*
X5632086Y-44152984D02*
X5613039Y-44152984D01*
X5613039Y-44152984D02*
X5593991Y-44143460D01*
X5593991Y-44143460D02*
X5584467Y-44133936D01*
X5584467Y-44133936D02*
X5574944Y-44114889D01*
X5574944Y-44114889D02*
X5565420Y-44076793D01*
X5565420Y-44076793D02*
X5565420Y-44029174D01*
X5565420Y-44029174D02*
X5574944Y-43991079D01*
X5574944Y-43991079D02*
X5584467Y-43972031D01*
X5584467Y-43972031D02*
X5593991Y-43962508D01*
X5593991Y-43962508D02*
X5613039Y-43952984D01*
X5765420Y-44152984D02*
X5765420Y-44019650D01*
X5765420Y-44038698D02*
X5774943Y-44029174D01*
X5774943Y-44029174D02*
X5793991Y-44019650D01*
X5793991Y-44019650D02*
X5822563Y-44019650D01*
X5822563Y-44019650D02*
X5841610Y-44029174D01*
X5841610Y-44029174D02*
X5851134Y-44048222D01*
X5851134Y-44048222D02*
X5851134Y-44152984D01*
X5851134Y-44048222D02*
X5860658Y-44029174D01*
X5860658Y-44029174D02*
X5879705Y-44019650D01*
X5879705Y-44019650D02*
X5908277Y-44019650D01*
X5908277Y-44019650D02*
X5927324Y-44029174D01*
X5927324Y-44029174D02*
X5936848Y-44048222D01*
X5936848Y-44048222D02*
X5936848Y-44152984D01*
X6032086Y-44152984D02*
X6032086Y-44019650D01*
X6032086Y-44038698D02*
X6041610Y-44029174D01*
X6041610Y-44029174D02*
X6060658Y-44019650D01*
X6060658Y-44019650D02*
X6089229Y-44019650D01*
X6089229Y-44019650D02*
X6108277Y-44029174D01*
X6108277Y-44029174D02*
X6117801Y-44048222D01*
X6117801Y-44048222D02*
X6117801Y-44152984D01*
X6117801Y-44048222D02*
X6127324Y-44029174D01*
X6127324Y-44029174D02*
X6146372Y-44019650D01*
X6146372Y-44019650D02*
X6174943Y-44019650D01*
X6174943Y-44019650D02*
X6193991Y-44029174D01*
X6193991Y-44029174D02*
X6203515Y-44048222D01*
X6203515Y-44048222D02*
X6203515Y-44152984D01*
X6593991Y-43943460D02*
X6422563Y-44200603D01*
X6851134Y-43952984D02*
X6870182Y-43952984D01*
X6870182Y-43952984D02*
X6889229Y-43962508D01*
X6889229Y-43962508D02*
X6898753Y-43972031D01*
X6898753Y-43972031D02*
X6908277Y-43991079D01*
X6908277Y-43991079D02*
X6917801Y-44029174D01*
X6917801Y-44029174D02*
X6917801Y-44076793D01*
X6917801Y-44076793D02*
X6908277Y-44114889D01*
X6908277Y-44114889D02*
X6898753Y-44133936D01*
X6898753Y-44133936D02*
X6889229Y-44143460D01*
X6889229Y-44143460D02*
X6870182Y-44152984D01*
X6870182Y-44152984D02*
X6851134Y-44152984D01*
X6851134Y-44152984D02*
X6832086Y-44143460D01*
X6832086Y-44143460D02*
X6822563Y-44133936D01*
X6822563Y-44133936D02*
X6813039Y-44114889D01*
X6813039Y-44114889D02*
X6803515Y-44076793D01*
X6803515Y-44076793D02*
X6803515Y-44029174D01*
X6803515Y-44029174D02*
X6813039Y-43991079D01*
X6813039Y-43991079D02*
X6822563Y-43972031D01*
X6822563Y-43972031D02*
X6832086Y-43962508D01*
X6832086Y-43962508D02*
X6851134Y-43952984D01*
X7003515Y-44133936D02*
X7013039Y-44143460D01*
X7013039Y-44143460D02*
X7003515Y-44152984D01*
X7003515Y-44152984D02*
X6993991Y-44143460D01*
X6993991Y-44143460D02*
X7003515Y-44133936D01*
X7003515Y-44133936D02*
X7003515Y-44152984D01*
X7136848Y-43952984D02*
X7155896Y-43952984D01*
X7155896Y-43952984D02*
X7174944Y-43962508D01*
X7174944Y-43962508D02*
X7184467Y-43972031D01*
X7184467Y-43972031D02*
X7193991Y-43991079D01*
X7193991Y-43991079D02*
X7203515Y-44029174D01*
X7203515Y-44029174D02*
X7203515Y-44076793D01*
X7203515Y-44076793D02*
X7193991Y-44114889D01*
X7193991Y-44114889D02*
X7184467Y-44133936D01*
X7184467Y-44133936D02*
X7174944Y-44143460D01*
X7174944Y-44143460D02*
X7155896Y-44152984D01*
X7155896Y-44152984D02*
X7136848Y-44152984D01*
X7136848Y-44152984D02*
X7117801Y-44143460D01*
X7117801Y-44143460D02*
X7108277Y-44133936D01*
X7108277Y-44133936D02*
X7098753Y-44114889D01*
X7098753Y-44114889D02*
X7089229Y-44076793D01*
X7089229Y-44076793D02*
X7089229Y-44029174D01*
X7089229Y-44029174D02*
X7098753Y-43991079D01*
X7098753Y-43991079D02*
X7108277Y-43972031D01*
X7108277Y-43972031D02*
X7117801Y-43962508D01*
X7117801Y-43962508D02*
X7136848Y-43952984D01*
X7270182Y-43952984D02*
X7403515Y-43952984D01*
X7403515Y-43952984D02*
X7317801Y-44152984D01*
X7565420Y-44019650D02*
X7565420Y-44152984D01*
X7517801Y-43943460D02*
X7470182Y-44086317D01*
X7470182Y-44086317D02*
X7593991Y-44086317D01*
X7698753Y-44038698D02*
X7679706Y-44029174D01*
X7679706Y-44029174D02*
X7670182Y-44019650D01*
X7670182Y-44019650D02*
X7660658Y-44000603D01*
X7660658Y-44000603D02*
X7660658Y-43991079D01*
X7660658Y-43991079D02*
X7670182Y-43972031D01*
X7670182Y-43972031D02*
X7679706Y-43962508D01*
X7679706Y-43962508D02*
X7698753Y-43952984D01*
X7698753Y-43952984D02*
X7736848Y-43952984D01*
X7736848Y-43952984D02*
X7755896Y-43962508D01*
X7755896Y-43962508D02*
X7765420Y-43972031D01*
X7765420Y-43972031D02*
X7774944Y-43991079D01*
X7774944Y-43991079D02*
X7774944Y-44000603D01*
X7774944Y-44000603D02*
X7765420Y-44019650D01*
X7765420Y-44019650D02*
X7755896Y-44029174D01*
X7755896Y-44029174D02*
X7736848Y-44038698D01*
X7736848Y-44038698D02*
X7698753Y-44038698D01*
X7698753Y-44038698D02*
X7679706Y-44048222D01*
X7679706Y-44048222D02*
X7670182Y-44057746D01*
X7670182Y-44057746D02*
X7660658Y-44076793D01*
X7660658Y-44076793D02*
X7660658Y-44114889D01*
X7660658Y-44114889D02*
X7670182Y-44133936D01*
X7670182Y-44133936D02*
X7679706Y-44143460D01*
X7679706Y-44143460D02*
X7698753Y-44152984D01*
X7698753Y-44152984D02*
X7736848Y-44152984D01*
X7736848Y-44152984D02*
X7755896Y-44143460D01*
X7755896Y-44143460D02*
X7765420Y-44133936D01*
X7765420Y-44133936D02*
X7774944Y-44114889D01*
X7774944Y-44114889D02*
X7774944Y-44076793D01*
X7774944Y-44076793D02*
X7765420Y-44057746D01*
X7765420Y-44057746D02*
X7755896Y-44048222D01*
X7755896Y-44048222D02*
X7736848Y-44038698D01*
X7851134Y-43952984D02*
X7851134Y-43991079D01*
X7927325Y-43952984D02*
X7927325Y-43991079D01*
X8222563Y-44229174D02*
X8213039Y-44219650D01*
X8213039Y-44219650D02*
X8193991Y-44191079D01*
X8193991Y-44191079D02*
X8184468Y-44172031D01*
X8184468Y-44172031D02*
X8174944Y-44143460D01*
X8174944Y-44143460D02*
X8165420Y-44095841D01*
X8165420Y-44095841D02*
X8165420Y-44057746D01*
X8165420Y-44057746D02*
X8174944Y-44010127D01*
X8174944Y-44010127D02*
X8184468Y-43981555D01*
X8184468Y-43981555D02*
X8193991Y-43962508D01*
X8193991Y-43962508D02*
X8213039Y-43933936D01*
X8213039Y-43933936D02*
X8222563Y-43924412D01*
X8308277Y-44152984D02*
X8346372Y-44152984D01*
X8346372Y-44152984D02*
X8365420Y-44143460D01*
X8365420Y-44143460D02*
X8374944Y-44133936D01*
X8374944Y-44133936D02*
X8393991Y-44105365D01*
X8393991Y-44105365D02*
X8403515Y-44067270D01*
X8403515Y-44067270D02*
X8403515Y-43991079D01*
X8403515Y-43991079D02*
X8393991Y-43972031D01*
X8393991Y-43972031D02*
X8384468Y-43962508D01*
X8384468Y-43962508D02*
X8365420Y-43952984D01*
X8365420Y-43952984D02*
X8327325Y-43952984D01*
X8327325Y-43952984D02*
X8308277Y-43962508D01*
X8308277Y-43962508D02*
X8298753Y-43972031D01*
X8298753Y-43972031D02*
X8289229Y-43991079D01*
X8289229Y-43991079D02*
X8289229Y-44038698D01*
X8289229Y-44038698D02*
X8298753Y-44057746D01*
X8298753Y-44057746D02*
X8308277Y-44067270D01*
X8308277Y-44067270D02*
X8327325Y-44076793D01*
X8327325Y-44076793D02*
X8365420Y-44076793D01*
X8365420Y-44076793D02*
X8384468Y-44067270D01*
X8384468Y-44067270D02*
X8393991Y-44057746D01*
X8393991Y-44057746D02*
X8403515Y-44038698D01*
X8641611Y-44152984D02*
X8641611Y-43952984D01*
X8727325Y-44152984D02*
X8727325Y-44048222D01*
X8727325Y-44048222D02*
X8717801Y-44029174D01*
X8717801Y-44029174D02*
X8698753Y-44019650D01*
X8698753Y-44019650D02*
X8670182Y-44019650D01*
X8670182Y-44019650D02*
X8651134Y-44029174D01*
X8651134Y-44029174D02*
X8641611Y-44038698D01*
X8851134Y-44152984D02*
X8832087Y-44143460D01*
X8832087Y-44143460D02*
X8822563Y-44133936D01*
X8822563Y-44133936D02*
X8813039Y-44114889D01*
X8813039Y-44114889D02*
X8813039Y-44057746D01*
X8813039Y-44057746D02*
X8822563Y-44038698D01*
X8822563Y-44038698D02*
X8832087Y-44029174D01*
X8832087Y-44029174D02*
X8851134Y-44019650D01*
X8851134Y-44019650D02*
X8879706Y-44019650D01*
X8879706Y-44019650D02*
X8898753Y-44029174D01*
X8898753Y-44029174D02*
X8908277Y-44038698D01*
X8908277Y-44038698D02*
X8917801Y-44057746D01*
X8917801Y-44057746D02*
X8917801Y-44114889D01*
X8917801Y-44114889D02*
X8908277Y-44133936D01*
X8908277Y-44133936D02*
X8898753Y-44143460D01*
X8898753Y-44143460D02*
X8879706Y-44152984D01*
X8879706Y-44152984D02*
X8851134Y-44152984D01*
X9032087Y-44152984D02*
X9013039Y-44143460D01*
X9013039Y-44143460D02*
X9003515Y-44124412D01*
X9003515Y-44124412D02*
X9003515Y-43952984D01*
X9184468Y-44143460D02*
X9165420Y-44152984D01*
X9165420Y-44152984D02*
X9127325Y-44152984D01*
X9127325Y-44152984D02*
X9108277Y-44143460D01*
X9108277Y-44143460D02*
X9098753Y-44124412D01*
X9098753Y-44124412D02*
X9098753Y-44048222D01*
X9098753Y-44048222D02*
X9108277Y-44029174D01*
X9108277Y-44029174D02*
X9127325Y-44019650D01*
X9127325Y-44019650D02*
X9165420Y-44019650D01*
X9165420Y-44019650D02*
X9184468Y-44029174D01*
X9184468Y-44029174D02*
X9193992Y-44048222D01*
X9193992Y-44048222D02*
X9193992Y-44067270D01*
X9193992Y-44067270D02*
X9098753Y-44086317D01*
X9270182Y-44143460D02*
X9289230Y-44152984D01*
X9289230Y-44152984D02*
X9327325Y-44152984D01*
X9327325Y-44152984D02*
X9346373Y-44143460D01*
X9346373Y-44143460D02*
X9355896Y-44124412D01*
X9355896Y-44124412D02*
X9355896Y-44114889D01*
X9355896Y-44114889D02*
X9346373Y-44095841D01*
X9346373Y-44095841D02*
X9327325Y-44086317D01*
X9327325Y-44086317D02*
X9298753Y-44086317D01*
X9298753Y-44086317D02*
X9279706Y-44076793D01*
X9279706Y-44076793D02*
X9270182Y-44057746D01*
X9270182Y-44057746D02*
X9270182Y-44048222D01*
X9270182Y-44048222D02*
X9279706Y-44029174D01*
X9279706Y-44029174D02*
X9298753Y-44019650D01*
X9298753Y-44019650D02*
X9327325Y-44019650D01*
X9327325Y-44019650D02*
X9346373Y-44029174D01*
X9422563Y-44229174D02*
X9432087Y-44219650D01*
X9432087Y-44219650D02*
X9451134Y-44191079D01*
X9451134Y-44191079D02*
X9460658Y-44172031D01*
X9460658Y-44172031D02*
X9470182Y-44143460D01*
X9470182Y-44143460D02*
X9479706Y-44095841D01*
X9479706Y-44095841D02*
X9479706Y-44057746D01*
X9479706Y-44057746D02*
X9470182Y-44010127D01*
X9470182Y-44010127D02*
X9460658Y-43981555D01*
X9460658Y-43981555D02*
X9451134Y-43962508D01*
X9451134Y-43962508D02*
X9432087Y-43933936D01*
X9432087Y-43933936D02*
X9422563Y-43924412D01*
X9784468Y-44229174D02*
X9774944Y-44219650D01*
X9774944Y-44219650D02*
X9755896Y-44191079D01*
X9755896Y-44191079D02*
X9746373Y-44172031D01*
X9746373Y-44172031D02*
X9736849Y-44143460D01*
X9736849Y-44143460D02*
X9727325Y-44095841D01*
X9727325Y-44095841D02*
X9727325Y-44057746D01*
X9727325Y-44057746D02*
X9736849Y-44010127D01*
X9736849Y-44010127D02*
X9746373Y-43981555D01*
X9746373Y-43981555D02*
X9755896Y-43962508D01*
X9755896Y-43962508D02*
X9774944Y-43933936D01*
X9774944Y-43933936D02*
X9784468Y-43924412D01*
X9860658Y-44019650D02*
X9860658Y-44152984D01*
X9860658Y-44038698D02*
X9870182Y-44029174D01*
X9870182Y-44029174D02*
X9889230Y-44019650D01*
X9889230Y-44019650D02*
X9917801Y-44019650D01*
X9917801Y-44019650D02*
X9936849Y-44029174D01*
X9936849Y-44029174D02*
X9946373Y-44048222D01*
X9946373Y-44048222D02*
X9946373Y-44152984D01*
X10070182Y-44152984D02*
X10051134Y-44143460D01*
X10051134Y-44143460D02*
X10041611Y-44133936D01*
X10041611Y-44133936D02*
X10032087Y-44114889D01*
X10032087Y-44114889D02*
X10032087Y-44057746D01*
X10032087Y-44057746D02*
X10041611Y-44038698D01*
X10041611Y-44038698D02*
X10051134Y-44029174D01*
X10051134Y-44029174D02*
X10070182Y-44019650D01*
X10070182Y-44019650D02*
X10098754Y-44019650D01*
X10098754Y-44019650D02*
X10117801Y-44029174D01*
X10117801Y-44029174D02*
X10127325Y-44038698D01*
X10127325Y-44038698D02*
X10136849Y-44057746D01*
X10136849Y-44057746D02*
X10136849Y-44114889D01*
X10136849Y-44114889D02*
X10127325Y-44133936D01*
X10127325Y-44133936D02*
X10117801Y-44143460D01*
X10117801Y-44143460D02*
X10098754Y-44152984D01*
X10098754Y-44152984D02*
X10070182Y-44152984D01*
X10193992Y-44019650D02*
X10270182Y-44019650D01*
X10222563Y-43952984D02*
X10222563Y-44124412D01*
X10222563Y-44124412D02*
X10232087Y-44143460D01*
X10232087Y-44143460D02*
X10251134Y-44152984D01*
X10251134Y-44152984D02*
X10270182Y-44152984D01*
X10489230Y-44019650D02*
X10489230Y-44219650D01*
X10489230Y-44029174D02*
X10508277Y-44019650D01*
X10508277Y-44019650D02*
X10546373Y-44019650D01*
X10546373Y-44019650D02*
X10565420Y-44029174D01*
X10565420Y-44029174D02*
X10574944Y-44038698D01*
X10574944Y-44038698D02*
X10584468Y-44057746D01*
X10584468Y-44057746D02*
X10584468Y-44114889D01*
X10584468Y-44114889D02*
X10574944Y-44133936D01*
X10574944Y-44133936D02*
X10565420Y-44143460D01*
X10565420Y-44143460D02*
X10546373Y-44152984D01*
X10546373Y-44152984D02*
X10508277Y-44152984D01*
X10508277Y-44152984D02*
X10489230Y-44143460D01*
X10698754Y-44152984D02*
X10679706Y-44143460D01*
X10679706Y-44143460D02*
X10670182Y-44124412D01*
X10670182Y-44124412D02*
X10670182Y-43952984D01*
X10860658Y-44152984D02*
X10860658Y-44048222D01*
X10860658Y-44048222D02*
X10851135Y-44029174D01*
X10851135Y-44029174D02*
X10832087Y-44019650D01*
X10832087Y-44019650D02*
X10793992Y-44019650D01*
X10793992Y-44019650D02*
X10774944Y-44029174D01*
X10860658Y-44143460D02*
X10841611Y-44152984D01*
X10841611Y-44152984D02*
X10793992Y-44152984D01*
X10793992Y-44152984D02*
X10774944Y-44143460D01*
X10774944Y-44143460D02*
X10765420Y-44124412D01*
X10765420Y-44124412D02*
X10765420Y-44105365D01*
X10765420Y-44105365D02*
X10774944Y-44086317D01*
X10774944Y-44086317D02*
X10793992Y-44076793D01*
X10793992Y-44076793D02*
X10841611Y-44076793D01*
X10841611Y-44076793D02*
X10860658Y-44067270D01*
X10927325Y-44019650D02*
X11003515Y-44019650D01*
X10955896Y-43952984D02*
X10955896Y-44124412D01*
X10955896Y-44124412D02*
X10965420Y-44143460D01*
X10965420Y-44143460D02*
X10984468Y-44152984D01*
X10984468Y-44152984D02*
X11003515Y-44152984D01*
X11146373Y-44143460D02*
X11127325Y-44152984D01*
X11127325Y-44152984D02*
X11089230Y-44152984D01*
X11089230Y-44152984D02*
X11070182Y-44143460D01*
X11070182Y-44143460D02*
X11060658Y-44124412D01*
X11060658Y-44124412D02*
X11060658Y-44048222D01*
X11060658Y-44048222D02*
X11070182Y-44029174D01*
X11070182Y-44029174D02*
X11089230Y-44019650D01*
X11089230Y-44019650D02*
X11127325Y-44019650D01*
X11127325Y-44019650D02*
X11146373Y-44029174D01*
X11146373Y-44029174D02*
X11155896Y-44048222D01*
X11155896Y-44048222D02*
X11155896Y-44067270D01*
X11155896Y-44067270D02*
X11060658Y-44086317D01*
X11327325Y-44152984D02*
X11327325Y-43952984D01*
X11327325Y-44143460D02*
X11308277Y-44152984D01*
X11308277Y-44152984D02*
X11270182Y-44152984D01*
X11270182Y-44152984D02*
X11251134Y-44143460D01*
X11251134Y-44143460D02*
X11241611Y-44133936D01*
X11241611Y-44133936D02*
X11232087Y-44114889D01*
X11232087Y-44114889D02*
X11232087Y-44057746D01*
X11232087Y-44057746D02*
X11241611Y-44038698D01*
X11241611Y-44038698D02*
X11251134Y-44029174D01*
X11251134Y-44029174D02*
X11270182Y-44019650D01*
X11270182Y-44019650D02*
X11308277Y-44019650D01*
X11308277Y-44019650D02*
X11327325Y-44029174D01*
X11403515Y-44229174D02*
X11413039Y-44219650D01*
X11413039Y-44219650D02*
X11432087Y-44191079D01*
X11432087Y-44191079D02*
X11441611Y-44172031D01*
X11441611Y-44172031D02*
X11451134Y-44143460D01*
X11451134Y-44143460D02*
X11460658Y-44095841D01*
X11460658Y-44095841D02*
X11460658Y-44057746D01*
X11460658Y-44057746D02*
X11451134Y-44010127D01*
X11451134Y-44010127D02*
X11441611Y-43981555D01*
X11441611Y-43981555D02*
X11432087Y-43962508D01*
X11432087Y-43962508D02*
X11413039Y-43933936D01*
X11413039Y-43933936D02*
X11403515Y-43924412D01*
X4618211Y-44442211D02*
X4618211Y-44300789D01*
X4476789Y-44300789D01*
X4476789Y-44442211D01*
X4618211Y-44442211D01*
X4889229Y-44262984D02*
X5013039Y-44262984D01*
X5013039Y-44262984D02*
X4946372Y-44339174D01*
X4946372Y-44339174D02*
X4974944Y-44339174D01*
X4974944Y-44339174D02*
X4993991Y-44348698D01*
X4993991Y-44348698D02*
X5003515Y-44358222D01*
X5003515Y-44358222D02*
X5013039Y-44377270D01*
X5013039Y-44377270D02*
X5013039Y-44424889D01*
X5013039Y-44424889D02*
X5003515Y-44443936D01*
X5003515Y-44443936D02*
X4993991Y-44453460D01*
X4993991Y-44453460D02*
X4974944Y-44462984D01*
X4974944Y-44462984D02*
X4917801Y-44462984D01*
X4917801Y-44462984D02*
X4898753Y-44453460D01*
X4898753Y-44453460D02*
X4889229Y-44443936D01*
X5098753Y-44443936D02*
X5108277Y-44453460D01*
X5108277Y-44453460D02*
X5098753Y-44462984D01*
X5098753Y-44462984D02*
X5089229Y-44453460D01*
X5089229Y-44453460D02*
X5098753Y-44443936D01*
X5098753Y-44443936D02*
X5098753Y-44462984D01*
X5174944Y-44262984D02*
X5298753Y-44262984D01*
X5298753Y-44262984D02*
X5232086Y-44339174D01*
X5232086Y-44339174D02*
X5260658Y-44339174D01*
X5260658Y-44339174D02*
X5279705Y-44348698D01*
X5279705Y-44348698D02*
X5289229Y-44358222D01*
X5289229Y-44358222D02*
X5298753Y-44377270D01*
X5298753Y-44377270D02*
X5298753Y-44424889D01*
X5298753Y-44424889D02*
X5289229Y-44443936D01*
X5289229Y-44443936D02*
X5279705Y-44453460D01*
X5279705Y-44453460D02*
X5260658Y-44462984D01*
X5260658Y-44462984D02*
X5203515Y-44462984D01*
X5203515Y-44462984D02*
X5184467Y-44453460D01*
X5184467Y-44453460D02*
X5174944Y-44443936D01*
X5422563Y-44262984D02*
X5441610Y-44262984D01*
X5441610Y-44262984D02*
X5460658Y-44272508D01*
X5460658Y-44272508D02*
X5470182Y-44282031D01*
X5470182Y-44282031D02*
X5479705Y-44301079D01*
X5479705Y-44301079D02*
X5489229Y-44339174D01*
X5489229Y-44339174D02*
X5489229Y-44386793D01*
X5489229Y-44386793D02*
X5479705Y-44424889D01*
X5479705Y-44424889D02*
X5470182Y-44443936D01*
X5470182Y-44443936D02*
X5460658Y-44453460D01*
X5460658Y-44453460D02*
X5441610Y-44462984D01*
X5441610Y-44462984D02*
X5422563Y-44462984D01*
X5422563Y-44462984D02*
X5403515Y-44453460D01*
X5403515Y-44453460D02*
X5393991Y-44443936D01*
X5393991Y-44443936D02*
X5384467Y-44424889D01*
X5384467Y-44424889D02*
X5374944Y-44386793D01*
X5374944Y-44386793D02*
X5374944Y-44339174D01*
X5374944Y-44339174D02*
X5384467Y-44301079D01*
X5384467Y-44301079D02*
X5393991Y-44282031D01*
X5393991Y-44282031D02*
X5403515Y-44272508D01*
X5403515Y-44272508D02*
X5422563Y-44262984D01*
X5613039Y-44262984D02*
X5632086Y-44262984D01*
X5632086Y-44262984D02*
X5651134Y-44272508D01*
X5651134Y-44272508D02*
X5660658Y-44282031D01*
X5660658Y-44282031D02*
X5670182Y-44301079D01*
X5670182Y-44301079D02*
X5679705Y-44339174D01*
X5679705Y-44339174D02*
X5679705Y-44386793D01*
X5679705Y-44386793D02*
X5670182Y-44424889D01*
X5670182Y-44424889D02*
X5660658Y-44443936D01*
X5660658Y-44443936D02*
X5651134Y-44453460D01*
X5651134Y-44453460D02*
X5632086Y-44462984D01*
X5632086Y-44462984D02*
X5613039Y-44462984D01*
X5613039Y-44462984D02*
X5593991Y-44453460D01*
X5593991Y-44453460D02*
X5584467Y-44443936D01*
X5584467Y-44443936D02*
X5574944Y-44424889D01*
X5574944Y-44424889D02*
X5565420Y-44386793D01*
X5565420Y-44386793D02*
X5565420Y-44339174D01*
X5565420Y-44339174D02*
X5574944Y-44301079D01*
X5574944Y-44301079D02*
X5584467Y-44282031D01*
X5584467Y-44282031D02*
X5593991Y-44272508D01*
X5593991Y-44272508D02*
X5613039Y-44262984D01*
X5765420Y-44462984D02*
X5765420Y-44329650D01*
X5765420Y-44348698D02*
X5774943Y-44339174D01*
X5774943Y-44339174D02*
X5793991Y-44329650D01*
X5793991Y-44329650D02*
X5822563Y-44329650D01*
X5822563Y-44329650D02*
X5841610Y-44339174D01*
X5841610Y-44339174D02*
X5851134Y-44358222D01*
X5851134Y-44358222D02*
X5851134Y-44462984D01*
X5851134Y-44358222D02*
X5860658Y-44339174D01*
X5860658Y-44339174D02*
X5879705Y-44329650D01*
X5879705Y-44329650D02*
X5908277Y-44329650D01*
X5908277Y-44329650D02*
X5927324Y-44339174D01*
X5927324Y-44339174D02*
X5936848Y-44358222D01*
X5936848Y-44358222D02*
X5936848Y-44462984D01*
X6032086Y-44462984D02*
X6032086Y-44329650D01*
X6032086Y-44348698D02*
X6041610Y-44339174D01*
X6041610Y-44339174D02*
X6060658Y-44329650D01*
X6060658Y-44329650D02*
X6089229Y-44329650D01*
X6089229Y-44329650D02*
X6108277Y-44339174D01*
X6108277Y-44339174D02*
X6117801Y-44358222D01*
X6117801Y-44358222D02*
X6117801Y-44462984D01*
X6117801Y-44358222D02*
X6127324Y-44339174D01*
X6127324Y-44339174D02*
X6146372Y-44329650D01*
X6146372Y-44329650D02*
X6174943Y-44329650D01*
X6174943Y-44329650D02*
X6193991Y-44339174D01*
X6193991Y-44339174D02*
X6203515Y-44358222D01*
X6203515Y-44358222D02*
X6203515Y-44462984D01*
X6593991Y-44253460D02*
X6422563Y-44510603D01*
X6851134Y-44262984D02*
X6870182Y-44262984D01*
X6870182Y-44262984D02*
X6889229Y-44272508D01*
X6889229Y-44272508D02*
X6898753Y-44282031D01*
X6898753Y-44282031D02*
X6908277Y-44301079D01*
X6908277Y-44301079D02*
X6917801Y-44339174D01*
X6917801Y-44339174D02*
X6917801Y-44386793D01*
X6917801Y-44386793D02*
X6908277Y-44424889D01*
X6908277Y-44424889D02*
X6898753Y-44443936D01*
X6898753Y-44443936D02*
X6889229Y-44453460D01*
X6889229Y-44453460D02*
X6870182Y-44462984D01*
X6870182Y-44462984D02*
X6851134Y-44462984D01*
X6851134Y-44462984D02*
X6832086Y-44453460D01*
X6832086Y-44453460D02*
X6822563Y-44443936D01*
X6822563Y-44443936D02*
X6813039Y-44424889D01*
X6813039Y-44424889D02*
X6803515Y-44386793D01*
X6803515Y-44386793D02*
X6803515Y-44339174D01*
X6803515Y-44339174D02*
X6813039Y-44301079D01*
X6813039Y-44301079D02*
X6822563Y-44282031D01*
X6822563Y-44282031D02*
X6832086Y-44272508D01*
X6832086Y-44272508D02*
X6851134Y-44262984D01*
X7003515Y-44443936D02*
X7013039Y-44453460D01*
X7013039Y-44453460D02*
X7003515Y-44462984D01*
X7003515Y-44462984D02*
X6993991Y-44453460D01*
X6993991Y-44453460D02*
X7003515Y-44443936D01*
X7003515Y-44443936D02*
X7003515Y-44462984D01*
X7203515Y-44462984D02*
X7089229Y-44462984D01*
X7146372Y-44462984D02*
X7146372Y-44262984D01*
X7146372Y-44262984D02*
X7127325Y-44291555D01*
X7127325Y-44291555D02*
X7108277Y-44310603D01*
X7108277Y-44310603D02*
X7089229Y-44320127D01*
X7279706Y-44282031D02*
X7289229Y-44272508D01*
X7289229Y-44272508D02*
X7308277Y-44262984D01*
X7308277Y-44262984D02*
X7355896Y-44262984D01*
X7355896Y-44262984D02*
X7374944Y-44272508D01*
X7374944Y-44272508D02*
X7384467Y-44282031D01*
X7384467Y-44282031D02*
X7393991Y-44301079D01*
X7393991Y-44301079D02*
X7393991Y-44320127D01*
X7393991Y-44320127D02*
X7384467Y-44348698D01*
X7384467Y-44348698D02*
X7270182Y-44462984D01*
X7270182Y-44462984D02*
X7393991Y-44462984D01*
X7489229Y-44462984D02*
X7527325Y-44462984D01*
X7527325Y-44462984D02*
X7546372Y-44453460D01*
X7546372Y-44453460D02*
X7555896Y-44443936D01*
X7555896Y-44443936D02*
X7574944Y-44415365D01*
X7574944Y-44415365D02*
X7584467Y-44377270D01*
X7584467Y-44377270D02*
X7584467Y-44301079D01*
X7584467Y-44301079D02*
X7574944Y-44282031D01*
X7574944Y-44282031D02*
X7565420Y-44272508D01*
X7565420Y-44272508D02*
X7546372Y-44262984D01*
X7546372Y-44262984D02*
X7508277Y-44262984D01*
X7508277Y-44262984D02*
X7489229Y-44272508D01*
X7489229Y-44272508D02*
X7479706Y-44282031D01*
X7479706Y-44282031D02*
X7470182Y-44301079D01*
X7470182Y-44301079D02*
X7470182Y-44348698D01*
X7470182Y-44348698D02*
X7479706Y-44367746D01*
X7479706Y-44367746D02*
X7489229Y-44377270D01*
X7489229Y-44377270D02*
X7508277Y-44386793D01*
X7508277Y-44386793D02*
X7546372Y-44386793D01*
X7546372Y-44386793D02*
X7565420Y-44377270D01*
X7565420Y-44377270D02*
X7574944Y-44367746D01*
X7574944Y-44367746D02*
X7584467Y-44348698D01*
X7679706Y-44462984D02*
X7717801Y-44462984D01*
X7717801Y-44462984D02*
X7736848Y-44453460D01*
X7736848Y-44453460D02*
X7746372Y-44443936D01*
X7746372Y-44443936D02*
X7765420Y-44415365D01*
X7765420Y-44415365D02*
X7774944Y-44377270D01*
X7774944Y-44377270D02*
X7774944Y-44301079D01*
X7774944Y-44301079D02*
X7765420Y-44282031D01*
X7765420Y-44282031D02*
X7755896Y-44272508D01*
X7755896Y-44272508D02*
X7736848Y-44262984D01*
X7736848Y-44262984D02*
X7698753Y-44262984D01*
X7698753Y-44262984D02*
X7679706Y-44272508D01*
X7679706Y-44272508D02*
X7670182Y-44282031D01*
X7670182Y-44282031D02*
X7660658Y-44301079D01*
X7660658Y-44301079D02*
X7660658Y-44348698D01*
X7660658Y-44348698D02*
X7670182Y-44367746D01*
X7670182Y-44367746D02*
X7679706Y-44377270D01*
X7679706Y-44377270D02*
X7698753Y-44386793D01*
X7698753Y-44386793D02*
X7736848Y-44386793D01*
X7736848Y-44386793D02*
X7755896Y-44377270D01*
X7755896Y-44377270D02*
X7765420Y-44367746D01*
X7765420Y-44367746D02*
X7774944Y-44348698D01*
X7851134Y-44262984D02*
X7851134Y-44301079D01*
X7927325Y-44262984D02*
X7927325Y-44301079D01*
X8222563Y-44539174D02*
X8213039Y-44529650D01*
X8213039Y-44529650D02*
X8193991Y-44501079D01*
X8193991Y-44501079D02*
X8184468Y-44482031D01*
X8184468Y-44482031D02*
X8174944Y-44453460D01*
X8174944Y-44453460D02*
X8165420Y-44405841D01*
X8165420Y-44405841D02*
X8165420Y-44367746D01*
X8165420Y-44367746D02*
X8174944Y-44320127D01*
X8174944Y-44320127D02*
X8184468Y-44291555D01*
X8184468Y-44291555D02*
X8193991Y-44272508D01*
X8193991Y-44272508D02*
X8213039Y-44243936D01*
X8213039Y-44243936D02*
X8222563Y-44234412D01*
X8403515Y-44462984D02*
X8289229Y-44462984D01*
X8346372Y-44462984D02*
X8346372Y-44262984D01*
X8346372Y-44262984D02*
X8327325Y-44291555D01*
X8327325Y-44291555D02*
X8308277Y-44310603D01*
X8308277Y-44310603D02*
X8289229Y-44320127D01*
X8527325Y-44262984D02*
X8546372Y-44262984D01*
X8546372Y-44262984D02*
X8565420Y-44272508D01*
X8565420Y-44272508D02*
X8574944Y-44282031D01*
X8574944Y-44282031D02*
X8584468Y-44301079D01*
X8584468Y-44301079D02*
X8593991Y-44339174D01*
X8593991Y-44339174D02*
X8593991Y-44386793D01*
X8593991Y-44386793D02*
X8584468Y-44424889D01*
X8584468Y-44424889D02*
X8574944Y-44443936D01*
X8574944Y-44443936D02*
X8565420Y-44453460D01*
X8565420Y-44453460D02*
X8546372Y-44462984D01*
X8546372Y-44462984D02*
X8527325Y-44462984D01*
X8527325Y-44462984D02*
X8508277Y-44453460D01*
X8508277Y-44453460D02*
X8498753Y-44443936D01*
X8498753Y-44443936D02*
X8489230Y-44424889D01*
X8489230Y-44424889D02*
X8479706Y-44386793D01*
X8479706Y-44386793D02*
X8479706Y-44339174D01*
X8479706Y-44339174D02*
X8489230Y-44301079D01*
X8489230Y-44301079D02*
X8498753Y-44282031D01*
X8498753Y-44282031D02*
X8508277Y-44272508D01*
X8508277Y-44272508D02*
X8527325Y-44262984D01*
X8832087Y-44462984D02*
X8832087Y-44262984D01*
X8917801Y-44462984D02*
X8917801Y-44358222D01*
X8917801Y-44358222D02*
X8908277Y-44339174D01*
X8908277Y-44339174D02*
X8889230Y-44329650D01*
X8889230Y-44329650D02*
X8860658Y-44329650D01*
X8860658Y-44329650D02*
X8841611Y-44339174D01*
X8841611Y-44339174D02*
X8832087Y-44348698D01*
X9041611Y-44462984D02*
X9022563Y-44453460D01*
X9022563Y-44453460D02*
X9013039Y-44443936D01*
X9013039Y-44443936D02*
X9003515Y-44424889D01*
X9003515Y-44424889D02*
X9003515Y-44367746D01*
X9003515Y-44367746D02*
X9013039Y-44348698D01*
X9013039Y-44348698D02*
X9022563Y-44339174D01*
X9022563Y-44339174D02*
X9041611Y-44329650D01*
X9041611Y-44329650D02*
X9070182Y-44329650D01*
X9070182Y-44329650D02*
X9089230Y-44339174D01*
X9089230Y-44339174D02*
X9098753Y-44348698D01*
X9098753Y-44348698D02*
X9108277Y-44367746D01*
X9108277Y-44367746D02*
X9108277Y-44424889D01*
X9108277Y-44424889D02*
X9098753Y-44443936D01*
X9098753Y-44443936D02*
X9089230Y-44453460D01*
X9089230Y-44453460D02*
X9070182Y-44462984D01*
X9070182Y-44462984D02*
X9041611Y-44462984D01*
X9222563Y-44462984D02*
X9203515Y-44453460D01*
X9203515Y-44453460D02*
X9193992Y-44434412D01*
X9193992Y-44434412D02*
X9193992Y-44262984D01*
X9374944Y-44453460D02*
X9355896Y-44462984D01*
X9355896Y-44462984D02*
X9317801Y-44462984D01*
X9317801Y-44462984D02*
X9298753Y-44453460D01*
X9298753Y-44453460D02*
X9289230Y-44434412D01*
X9289230Y-44434412D02*
X9289230Y-44358222D01*
X9289230Y-44358222D02*
X9298753Y-44339174D01*
X9298753Y-44339174D02*
X9317801Y-44329650D01*
X9317801Y-44329650D02*
X9355896Y-44329650D01*
X9355896Y-44329650D02*
X9374944Y-44339174D01*
X9374944Y-44339174D02*
X9384468Y-44358222D01*
X9384468Y-44358222D02*
X9384468Y-44377270D01*
X9384468Y-44377270D02*
X9289230Y-44396317D01*
X9460658Y-44453460D02*
X9479706Y-44462984D01*
X9479706Y-44462984D02*
X9517801Y-44462984D01*
X9517801Y-44462984D02*
X9536849Y-44453460D01*
X9536849Y-44453460D02*
X9546373Y-44434412D01*
X9546373Y-44434412D02*
X9546373Y-44424889D01*
X9546373Y-44424889D02*
X9536849Y-44405841D01*
X9536849Y-44405841D02*
X9517801Y-44396317D01*
X9517801Y-44396317D02*
X9489230Y-44396317D01*
X9489230Y-44396317D02*
X9470182Y-44386793D01*
X9470182Y-44386793D02*
X9460658Y-44367746D01*
X9460658Y-44367746D02*
X9460658Y-44358222D01*
X9460658Y-44358222D02*
X9470182Y-44339174D01*
X9470182Y-44339174D02*
X9489230Y-44329650D01*
X9489230Y-44329650D02*
X9517801Y-44329650D01*
X9517801Y-44329650D02*
X9536849Y-44339174D01*
X9613039Y-44539174D02*
X9622563Y-44529650D01*
X9622563Y-44529650D02*
X9641611Y-44501079D01*
X9641611Y-44501079D02*
X9651134Y-44482031D01*
X9651134Y-44482031D02*
X9660658Y-44453460D01*
X9660658Y-44453460D02*
X9670182Y-44405841D01*
X9670182Y-44405841D02*
X9670182Y-44367746D01*
X9670182Y-44367746D02*
X9660658Y-44320127D01*
X9660658Y-44320127D02*
X9651134Y-44291555D01*
X9651134Y-44291555D02*
X9641611Y-44272508D01*
X9641611Y-44272508D02*
X9622563Y-44243936D01*
X9622563Y-44243936D02*
X9613039Y-44234412D01*
X9974944Y-44539174D02*
X9965420Y-44529650D01*
X9965420Y-44529650D02*
X9946373Y-44501079D01*
X9946373Y-44501079D02*
X9936849Y-44482031D01*
X9936849Y-44482031D02*
X9927325Y-44453460D01*
X9927325Y-44453460D02*
X9917801Y-44405841D01*
X9917801Y-44405841D02*
X9917801Y-44367746D01*
X9917801Y-44367746D02*
X9927325Y-44320127D01*
X9927325Y-44320127D02*
X9936849Y-44291555D01*
X9936849Y-44291555D02*
X9946373Y-44272508D01*
X9946373Y-44272508D02*
X9965420Y-44243936D01*
X9965420Y-44243936D02*
X9974944Y-44234412D01*
X10051134Y-44329650D02*
X10051134Y-44462984D01*
X10051134Y-44348698D02*
X10060658Y-44339174D01*
X10060658Y-44339174D02*
X10079706Y-44329650D01*
X10079706Y-44329650D02*
X10108277Y-44329650D01*
X10108277Y-44329650D02*
X10127325Y-44339174D01*
X10127325Y-44339174D02*
X10136849Y-44358222D01*
X10136849Y-44358222D02*
X10136849Y-44462984D01*
X10260658Y-44462984D02*
X10241611Y-44453460D01*
X10241611Y-44453460D02*
X10232087Y-44443936D01*
X10232087Y-44443936D02*
X10222563Y-44424889D01*
X10222563Y-44424889D02*
X10222563Y-44367746D01*
X10222563Y-44367746D02*
X10232087Y-44348698D01*
X10232087Y-44348698D02*
X10241611Y-44339174D01*
X10241611Y-44339174D02*
X10260658Y-44329650D01*
X10260658Y-44329650D02*
X10289230Y-44329650D01*
X10289230Y-44329650D02*
X10308277Y-44339174D01*
X10308277Y-44339174D02*
X10317801Y-44348698D01*
X10317801Y-44348698D02*
X10327325Y-44367746D01*
X10327325Y-44367746D02*
X10327325Y-44424889D01*
X10327325Y-44424889D02*
X10317801Y-44443936D01*
X10317801Y-44443936D02*
X10308277Y-44453460D01*
X10308277Y-44453460D02*
X10289230Y-44462984D01*
X10289230Y-44462984D02*
X10260658Y-44462984D01*
X10384468Y-44329650D02*
X10460658Y-44329650D01*
X10413039Y-44262984D02*
X10413039Y-44434412D01*
X10413039Y-44434412D02*
X10422563Y-44453460D01*
X10422563Y-44453460D02*
X10441611Y-44462984D01*
X10441611Y-44462984D02*
X10460658Y-44462984D01*
X10679706Y-44329650D02*
X10679706Y-44529650D01*
X10679706Y-44339174D02*
X10698754Y-44329650D01*
X10698754Y-44329650D02*
X10736849Y-44329650D01*
X10736849Y-44329650D02*
X10755896Y-44339174D01*
X10755896Y-44339174D02*
X10765420Y-44348698D01*
X10765420Y-44348698D02*
X10774944Y-44367746D01*
X10774944Y-44367746D02*
X10774944Y-44424889D01*
X10774944Y-44424889D02*
X10765420Y-44443936D01*
X10765420Y-44443936D02*
X10755896Y-44453460D01*
X10755896Y-44453460D02*
X10736849Y-44462984D01*
X10736849Y-44462984D02*
X10698754Y-44462984D01*
X10698754Y-44462984D02*
X10679706Y-44453460D01*
X10889230Y-44462984D02*
X10870182Y-44453460D01*
X10870182Y-44453460D02*
X10860658Y-44434412D01*
X10860658Y-44434412D02*
X10860658Y-44262984D01*
X11051135Y-44462984D02*
X11051135Y-44358222D01*
X11051135Y-44358222D02*
X11041611Y-44339174D01*
X11041611Y-44339174D02*
X11022563Y-44329650D01*
X11022563Y-44329650D02*
X10984468Y-44329650D01*
X10984468Y-44329650D02*
X10965420Y-44339174D01*
X11051135Y-44453460D02*
X11032087Y-44462984D01*
X11032087Y-44462984D02*
X10984468Y-44462984D01*
X10984468Y-44462984D02*
X10965420Y-44453460D01*
X10965420Y-44453460D02*
X10955896Y-44434412D01*
X10955896Y-44434412D02*
X10955896Y-44415365D01*
X10955896Y-44415365D02*
X10965420Y-44396317D01*
X10965420Y-44396317D02*
X10984468Y-44386793D01*
X10984468Y-44386793D02*
X11032087Y-44386793D01*
X11032087Y-44386793D02*
X11051135Y-44377270D01*
X11117801Y-44329650D02*
X11193992Y-44329650D01*
X11146373Y-44262984D02*
X11146373Y-44434412D01*
X11146373Y-44434412D02*
X11155896Y-44453460D01*
X11155896Y-44453460D02*
X11174944Y-44462984D01*
X11174944Y-44462984D02*
X11193992Y-44462984D01*
X11336849Y-44453460D02*
X11317801Y-44462984D01*
X11317801Y-44462984D02*
X11279706Y-44462984D01*
X11279706Y-44462984D02*
X11260658Y-44453460D01*
X11260658Y-44453460D02*
X11251134Y-44434412D01*
X11251134Y-44434412D02*
X11251134Y-44358222D01*
X11251134Y-44358222D02*
X11260658Y-44339174D01*
X11260658Y-44339174D02*
X11279706Y-44329650D01*
X11279706Y-44329650D02*
X11317801Y-44329650D01*
X11317801Y-44329650D02*
X11336849Y-44339174D01*
X11336849Y-44339174D02*
X11346373Y-44358222D01*
X11346373Y-44358222D02*
X11346373Y-44377270D01*
X11346373Y-44377270D02*
X11251134Y-44396317D01*
X11517801Y-44462984D02*
X11517801Y-44262984D01*
X11517801Y-44453460D02*
X11498754Y-44462984D01*
X11498754Y-44462984D02*
X11460658Y-44462984D01*
X11460658Y-44462984D02*
X11441611Y-44453460D01*
X11441611Y-44453460D02*
X11432087Y-44443936D01*
X11432087Y-44443936D02*
X11422563Y-44424889D01*
X11422563Y-44424889D02*
X11422563Y-44367746D01*
X11422563Y-44367746D02*
X11432087Y-44348698D01*
X11432087Y-44348698D02*
X11441611Y-44339174D01*
X11441611Y-44339174D02*
X11460658Y-44329650D01*
X11460658Y-44329650D02*
X11498754Y-44329650D01*
X11498754Y-44329650D02*
X11517801Y-44339174D01*
X11593992Y-44539174D02*
X11603515Y-44529650D01*
X11603515Y-44529650D02*
X11622563Y-44501079D01*
X11622563Y-44501079D02*
X11632087Y-44482031D01*
X11632087Y-44482031D02*
X11641611Y-44453460D01*
X11641611Y-44453460D02*
X11651134Y-44405841D01*
X11651134Y-44405841D02*
X11651134Y-44367746D01*
X11651134Y-44367746D02*
X11641611Y-44320127D01*
X11641611Y-44320127D02*
X11632087Y-44291555D01*
X11632087Y-44291555D02*
X11622563Y-44272508D01*
X11622563Y-44272508D02*
X11603515Y-44243936D01*
X11603515Y-44243936D02*
X11593992Y-44234412D01*
X4547500Y-44791500D02*
X4647500Y-44691500D01*
X4547500Y-44591500D01*
X4447500Y-44691500D01*
X4547500Y-44791500D01*
X4993991Y-44649650D02*
X4993991Y-44782984D01*
X4946372Y-44573460D02*
X4898753Y-44716317D01*
X4898753Y-44716317D02*
X5022563Y-44716317D01*
X5098753Y-44763936D02*
X5108277Y-44773460D01*
X5108277Y-44773460D02*
X5098753Y-44782984D01*
X5098753Y-44782984D02*
X5089229Y-44773460D01*
X5089229Y-44773460D02*
X5098753Y-44763936D01*
X5098753Y-44763936D02*
X5098753Y-44782984D01*
X5174944Y-44582984D02*
X5298753Y-44582984D01*
X5298753Y-44582984D02*
X5232086Y-44659174D01*
X5232086Y-44659174D02*
X5260658Y-44659174D01*
X5260658Y-44659174D02*
X5279705Y-44668698D01*
X5279705Y-44668698D02*
X5289229Y-44678222D01*
X5289229Y-44678222D02*
X5298753Y-44697270D01*
X5298753Y-44697270D02*
X5298753Y-44744888D01*
X5298753Y-44744888D02*
X5289229Y-44763936D01*
X5289229Y-44763936D02*
X5279705Y-44773460D01*
X5279705Y-44773460D02*
X5260658Y-44782984D01*
X5260658Y-44782984D02*
X5203515Y-44782984D01*
X5203515Y-44782984D02*
X5184467Y-44773460D01*
X5184467Y-44773460D02*
X5174944Y-44763936D01*
X5422563Y-44582984D02*
X5441610Y-44582984D01*
X5441610Y-44582984D02*
X5460658Y-44592508D01*
X5460658Y-44592508D02*
X5470182Y-44602031D01*
X5470182Y-44602031D02*
X5479705Y-44621079D01*
X5479705Y-44621079D02*
X5489229Y-44659174D01*
X5489229Y-44659174D02*
X5489229Y-44706793D01*
X5489229Y-44706793D02*
X5479705Y-44744888D01*
X5479705Y-44744888D02*
X5470182Y-44763936D01*
X5470182Y-44763936D02*
X5460658Y-44773460D01*
X5460658Y-44773460D02*
X5441610Y-44782984D01*
X5441610Y-44782984D02*
X5422563Y-44782984D01*
X5422563Y-44782984D02*
X5403515Y-44773460D01*
X5403515Y-44773460D02*
X5393991Y-44763936D01*
X5393991Y-44763936D02*
X5384467Y-44744888D01*
X5384467Y-44744888D02*
X5374944Y-44706793D01*
X5374944Y-44706793D02*
X5374944Y-44659174D01*
X5374944Y-44659174D02*
X5384467Y-44621079D01*
X5384467Y-44621079D02*
X5393991Y-44602031D01*
X5393991Y-44602031D02*
X5403515Y-44592508D01*
X5403515Y-44592508D02*
X5422563Y-44582984D01*
X5613039Y-44582984D02*
X5632086Y-44582984D01*
X5632086Y-44582984D02*
X5651134Y-44592508D01*
X5651134Y-44592508D02*
X5660658Y-44602031D01*
X5660658Y-44602031D02*
X5670182Y-44621079D01*
X5670182Y-44621079D02*
X5679705Y-44659174D01*
X5679705Y-44659174D02*
X5679705Y-44706793D01*
X5679705Y-44706793D02*
X5670182Y-44744888D01*
X5670182Y-44744888D02*
X5660658Y-44763936D01*
X5660658Y-44763936D02*
X5651134Y-44773460D01*
X5651134Y-44773460D02*
X5632086Y-44782984D01*
X5632086Y-44782984D02*
X5613039Y-44782984D01*
X5613039Y-44782984D02*
X5593991Y-44773460D01*
X5593991Y-44773460D02*
X5584467Y-44763936D01*
X5584467Y-44763936D02*
X5574944Y-44744888D01*
X5574944Y-44744888D02*
X5565420Y-44706793D01*
X5565420Y-44706793D02*
X5565420Y-44659174D01*
X5565420Y-44659174D02*
X5574944Y-44621079D01*
X5574944Y-44621079D02*
X5584467Y-44602031D01*
X5584467Y-44602031D02*
X5593991Y-44592508D01*
X5593991Y-44592508D02*
X5613039Y-44582984D01*
X5765420Y-44782984D02*
X5765420Y-44649650D01*
X5765420Y-44668698D02*
X5774943Y-44659174D01*
X5774943Y-44659174D02*
X5793991Y-44649650D01*
X5793991Y-44649650D02*
X5822563Y-44649650D01*
X5822563Y-44649650D02*
X5841610Y-44659174D01*
X5841610Y-44659174D02*
X5851134Y-44678222D01*
X5851134Y-44678222D02*
X5851134Y-44782984D01*
X5851134Y-44678222D02*
X5860658Y-44659174D01*
X5860658Y-44659174D02*
X5879705Y-44649650D01*
X5879705Y-44649650D02*
X5908277Y-44649650D01*
X5908277Y-44649650D02*
X5927324Y-44659174D01*
X5927324Y-44659174D02*
X5936848Y-44678222D01*
X5936848Y-44678222D02*
X5936848Y-44782984D01*
X6032086Y-44782984D02*
X6032086Y-44649650D01*
X6032086Y-44668698D02*
X6041610Y-44659174D01*
X6041610Y-44659174D02*
X6060658Y-44649650D01*
X6060658Y-44649650D02*
X6089229Y-44649650D01*
X6089229Y-44649650D02*
X6108277Y-44659174D01*
X6108277Y-44659174D02*
X6117801Y-44678222D01*
X6117801Y-44678222D02*
X6117801Y-44782984D01*
X6117801Y-44678222D02*
X6127324Y-44659174D01*
X6127324Y-44659174D02*
X6146372Y-44649650D01*
X6146372Y-44649650D02*
X6174943Y-44649650D01*
X6174943Y-44649650D02*
X6193991Y-44659174D01*
X6193991Y-44659174D02*
X6203515Y-44678222D01*
X6203515Y-44678222D02*
X6203515Y-44782984D01*
X6593991Y-44573460D02*
X6422563Y-44830603D01*
X6851134Y-44582984D02*
X6870182Y-44582984D01*
X6870182Y-44582984D02*
X6889229Y-44592508D01*
X6889229Y-44592508D02*
X6898753Y-44602031D01*
X6898753Y-44602031D02*
X6908277Y-44621079D01*
X6908277Y-44621079D02*
X6917801Y-44659174D01*
X6917801Y-44659174D02*
X6917801Y-44706793D01*
X6917801Y-44706793D02*
X6908277Y-44744888D01*
X6908277Y-44744888D02*
X6898753Y-44763936D01*
X6898753Y-44763936D02*
X6889229Y-44773460D01*
X6889229Y-44773460D02*
X6870182Y-44782984D01*
X6870182Y-44782984D02*
X6851134Y-44782984D01*
X6851134Y-44782984D02*
X6832086Y-44773460D01*
X6832086Y-44773460D02*
X6822563Y-44763936D01*
X6822563Y-44763936D02*
X6813039Y-44744888D01*
X6813039Y-44744888D02*
X6803515Y-44706793D01*
X6803515Y-44706793D02*
X6803515Y-44659174D01*
X6803515Y-44659174D02*
X6813039Y-44621079D01*
X6813039Y-44621079D02*
X6822563Y-44602031D01*
X6822563Y-44602031D02*
X6832086Y-44592508D01*
X6832086Y-44592508D02*
X6851134Y-44582984D01*
X7003515Y-44763936D02*
X7013039Y-44773460D01*
X7013039Y-44773460D02*
X7003515Y-44782984D01*
X7003515Y-44782984D02*
X6993991Y-44773460D01*
X6993991Y-44773460D02*
X7003515Y-44763936D01*
X7003515Y-44763936D02*
X7003515Y-44782984D01*
X7203515Y-44782984D02*
X7089229Y-44782984D01*
X7146372Y-44782984D02*
X7146372Y-44582984D01*
X7146372Y-44582984D02*
X7127325Y-44611555D01*
X7127325Y-44611555D02*
X7108277Y-44630603D01*
X7108277Y-44630603D02*
X7089229Y-44640127D01*
X7374944Y-44582984D02*
X7336848Y-44582984D01*
X7336848Y-44582984D02*
X7317801Y-44592508D01*
X7317801Y-44592508D02*
X7308277Y-44602031D01*
X7308277Y-44602031D02*
X7289229Y-44630603D01*
X7289229Y-44630603D02*
X7279706Y-44668698D01*
X7279706Y-44668698D02*
X7279706Y-44744888D01*
X7279706Y-44744888D02*
X7289229Y-44763936D01*
X7289229Y-44763936D02*
X7298753Y-44773460D01*
X7298753Y-44773460D02*
X7317801Y-44782984D01*
X7317801Y-44782984D02*
X7355896Y-44782984D01*
X7355896Y-44782984D02*
X7374944Y-44773460D01*
X7374944Y-44773460D02*
X7384467Y-44763936D01*
X7384467Y-44763936D02*
X7393991Y-44744888D01*
X7393991Y-44744888D02*
X7393991Y-44697270D01*
X7393991Y-44697270D02*
X7384467Y-44678222D01*
X7384467Y-44678222D02*
X7374944Y-44668698D01*
X7374944Y-44668698D02*
X7355896Y-44659174D01*
X7355896Y-44659174D02*
X7317801Y-44659174D01*
X7317801Y-44659174D02*
X7298753Y-44668698D01*
X7298753Y-44668698D02*
X7289229Y-44678222D01*
X7289229Y-44678222D02*
X7279706Y-44697270D01*
X7489229Y-44782984D02*
X7527325Y-44782984D01*
X7527325Y-44782984D02*
X7546372Y-44773460D01*
X7546372Y-44773460D02*
X7555896Y-44763936D01*
X7555896Y-44763936D02*
X7574944Y-44735365D01*
X7574944Y-44735365D02*
X7584467Y-44697270D01*
X7584467Y-44697270D02*
X7584467Y-44621079D01*
X7584467Y-44621079D02*
X7574944Y-44602031D01*
X7574944Y-44602031D02*
X7565420Y-44592508D01*
X7565420Y-44592508D02*
X7546372Y-44582984D01*
X7546372Y-44582984D02*
X7508277Y-44582984D01*
X7508277Y-44582984D02*
X7489229Y-44592508D01*
X7489229Y-44592508D02*
X7479706Y-44602031D01*
X7479706Y-44602031D02*
X7470182Y-44621079D01*
X7470182Y-44621079D02*
X7470182Y-44668698D01*
X7470182Y-44668698D02*
X7479706Y-44687746D01*
X7479706Y-44687746D02*
X7489229Y-44697270D01*
X7489229Y-44697270D02*
X7508277Y-44706793D01*
X7508277Y-44706793D02*
X7546372Y-44706793D01*
X7546372Y-44706793D02*
X7565420Y-44697270D01*
X7565420Y-44697270D02*
X7574944Y-44687746D01*
X7574944Y-44687746D02*
X7584467Y-44668698D01*
X7651134Y-44582984D02*
X7774944Y-44582984D01*
X7774944Y-44582984D02*
X7708277Y-44659174D01*
X7708277Y-44659174D02*
X7736848Y-44659174D01*
X7736848Y-44659174D02*
X7755896Y-44668698D01*
X7755896Y-44668698D02*
X7765420Y-44678222D01*
X7765420Y-44678222D02*
X7774944Y-44697270D01*
X7774944Y-44697270D02*
X7774944Y-44744888D01*
X7774944Y-44744888D02*
X7765420Y-44763936D01*
X7765420Y-44763936D02*
X7755896Y-44773460D01*
X7755896Y-44773460D02*
X7736848Y-44782984D01*
X7736848Y-44782984D02*
X7679706Y-44782984D01*
X7679706Y-44782984D02*
X7660658Y-44773460D01*
X7660658Y-44773460D02*
X7651134Y-44763936D01*
X7851134Y-44582984D02*
X7851134Y-44621079D01*
X7927325Y-44582984D02*
X7927325Y-44621079D01*
X8222563Y-44859174D02*
X8213039Y-44849650D01*
X8213039Y-44849650D02*
X8193991Y-44821079D01*
X8193991Y-44821079D02*
X8184468Y-44802031D01*
X8184468Y-44802031D02*
X8174944Y-44773460D01*
X8174944Y-44773460D02*
X8165420Y-44725841D01*
X8165420Y-44725841D02*
X8165420Y-44687746D01*
X8165420Y-44687746D02*
X8174944Y-44640127D01*
X8174944Y-44640127D02*
X8184468Y-44611555D01*
X8184468Y-44611555D02*
X8193991Y-44592508D01*
X8193991Y-44592508D02*
X8213039Y-44563936D01*
X8213039Y-44563936D02*
X8222563Y-44554412D01*
X8384468Y-44649650D02*
X8384468Y-44782984D01*
X8336848Y-44573460D02*
X8289229Y-44716317D01*
X8289229Y-44716317D02*
X8413039Y-44716317D01*
X8527325Y-44582984D02*
X8546372Y-44582984D01*
X8546372Y-44582984D02*
X8565420Y-44592508D01*
X8565420Y-44592508D02*
X8574944Y-44602031D01*
X8574944Y-44602031D02*
X8584468Y-44621079D01*
X8584468Y-44621079D02*
X8593991Y-44659174D01*
X8593991Y-44659174D02*
X8593991Y-44706793D01*
X8593991Y-44706793D02*
X8584468Y-44744888D01*
X8584468Y-44744888D02*
X8574944Y-44763936D01*
X8574944Y-44763936D02*
X8565420Y-44773460D01*
X8565420Y-44773460D02*
X8546372Y-44782984D01*
X8546372Y-44782984D02*
X8527325Y-44782984D01*
X8527325Y-44782984D02*
X8508277Y-44773460D01*
X8508277Y-44773460D02*
X8498753Y-44763936D01*
X8498753Y-44763936D02*
X8489230Y-44744888D01*
X8489230Y-44744888D02*
X8479706Y-44706793D01*
X8479706Y-44706793D02*
X8479706Y-44659174D01*
X8479706Y-44659174D02*
X8489230Y-44621079D01*
X8489230Y-44621079D02*
X8498753Y-44602031D01*
X8498753Y-44602031D02*
X8508277Y-44592508D01*
X8508277Y-44592508D02*
X8527325Y-44582984D01*
X8832087Y-44782984D02*
X8832087Y-44582984D01*
X8917801Y-44782984D02*
X8917801Y-44678222D01*
X8917801Y-44678222D02*
X8908277Y-44659174D01*
X8908277Y-44659174D02*
X8889230Y-44649650D01*
X8889230Y-44649650D02*
X8860658Y-44649650D01*
X8860658Y-44649650D02*
X8841611Y-44659174D01*
X8841611Y-44659174D02*
X8832087Y-44668698D01*
X9041611Y-44782984D02*
X9022563Y-44773460D01*
X9022563Y-44773460D02*
X9013039Y-44763936D01*
X9013039Y-44763936D02*
X9003515Y-44744888D01*
X9003515Y-44744888D02*
X9003515Y-44687746D01*
X9003515Y-44687746D02*
X9013039Y-44668698D01*
X9013039Y-44668698D02*
X9022563Y-44659174D01*
X9022563Y-44659174D02*
X9041611Y-44649650D01*
X9041611Y-44649650D02*
X9070182Y-44649650D01*
X9070182Y-44649650D02*
X9089230Y-44659174D01*
X9089230Y-44659174D02*
X9098753Y-44668698D01*
X9098753Y-44668698D02*
X9108277Y-44687746D01*
X9108277Y-44687746D02*
X9108277Y-44744888D01*
X9108277Y-44744888D02*
X9098753Y-44763936D01*
X9098753Y-44763936D02*
X9089230Y-44773460D01*
X9089230Y-44773460D02*
X9070182Y-44782984D01*
X9070182Y-44782984D02*
X9041611Y-44782984D01*
X9222563Y-44782984D02*
X9203515Y-44773460D01*
X9203515Y-44773460D02*
X9193992Y-44754412D01*
X9193992Y-44754412D02*
X9193992Y-44582984D01*
X9374944Y-44773460D02*
X9355896Y-44782984D01*
X9355896Y-44782984D02*
X9317801Y-44782984D01*
X9317801Y-44782984D02*
X9298753Y-44773460D01*
X9298753Y-44773460D02*
X9289230Y-44754412D01*
X9289230Y-44754412D02*
X9289230Y-44678222D01*
X9289230Y-44678222D02*
X9298753Y-44659174D01*
X9298753Y-44659174D02*
X9317801Y-44649650D01*
X9317801Y-44649650D02*
X9355896Y-44649650D01*
X9355896Y-44649650D02*
X9374944Y-44659174D01*
X9374944Y-44659174D02*
X9384468Y-44678222D01*
X9384468Y-44678222D02*
X9384468Y-44697270D01*
X9384468Y-44697270D02*
X9289230Y-44716317D01*
X9460658Y-44773460D02*
X9479706Y-44782984D01*
X9479706Y-44782984D02*
X9517801Y-44782984D01*
X9517801Y-44782984D02*
X9536849Y-44773460D01*
X9536849Y-44773460D02*
X9546373Y-44754412D01*
X9546373Y-44754412D02*
X9546373Y-44744888D01*
X9546373Y-44744888D02*
X9536849Y-44725841D01*
X9536849Y-44725841D02*
X9517801Y-44716317D01*
X9517801Y-44716317D02*
X9489230Y-44716317D01*
X9489230Y-44716317D02*
X9470182Y-44706793D01*
X9470182Y-44706793D02*
X9460658Y-44687746D01*
X9460658Y-44687746D02*
X9460658Y-44678222D01*
X9460658Y-44678222D02*
X9470182Y-44659174D01*
X9470182Y-44659174D02*
X9489230Y-44649650D01*
X9489230Y-44649650D02*
X9517801Y-44649650D01*
X9517801Y-44649650D02*
X9536849Y-44659174D01*
X9613039Y-44859174D02*
X9622563Y-44849650D01*
X9622563Y-44849650D02*
X9641611Y-44821079D01*
X9641611Y-44821079D02*
X9651134Y-44802031D01*
X9651134Y-44802031D02*
X9660658Y-44773460D01*
X9660658Y-44773460D02*
X9670182Y-44725841D01*
X9670182Y-44725841D02*
X9670182Y-44687746D01*
X9670182Y-44687746D02*
X9660658Y-44640127D01*
X9660658Y-44640127D02*
X9651134Y-44611555D01*
X9651134Y-44611555D02*
X9641611Y-44592508D01*
X9641611Y-44592508D02*
X9622563Y-44563936D01*
X9622563Y-44563936D02*
X9613039Y-44554412D01*
X9974944Y-44859174D02*
X9965420Y-44849650D01*
X9965420Y-44849650D02*
X9946373Y-44821079D01*
X9946373Y-44821079D02*
X9936849Y-44802031D01*
X9936849Y-44802031D02*
X9927325Y-44773460D01*
X9927325Y-44773460D02*
X9917801Y-44725841D01*
X9917801Y-44725841D02*
X9917801Y-44687746D01*
X9917801Y-44687746D02*
X9927325Y-44640127D01*
X9927325Y-44640127D02*
X9936849Y-44611555D01*
X9936849Y-44611555D02*
X9946373Y-44592508D01*
X9946373Y-44592508D02*
X9965420Y-44563936D01*
X9965420Y-44563936D02*
X9974944Y-44554412D01*
X10051134Y-44649650D02*
X10051134Y-44782984D01*
X10051134Y-44668698D02*
X10060658Y-44659174D01*
X10060658Y-44659174D02*
X10079706Y-44649650D01*
X10079706Y-44649650D02*
X10108277Y-44649650D01*
X10108277Y-44649650D02*
X10127325Y-44659174D01*
X10127325Y-44659174D02*
X10136849Y-44678222D01*
X10136849Y-44678222D02*
X10136849Y-44782984D01*
X10260658Y-44782984D02*
X10241611Y-44773460D01*
X10241611Y-44773460D02*
X10232087Y-44763936D01*
X10232087Y-44763936D02*
X10222563Y-44744888D01*
X10222563Y-44744888D02*
X10222563Y-44687746D01*
X10222563Y-44687746D02*
X10232087Y-44668698D01*
X10232087Y-44668698D02*
X10241611Y-44659174D01*
X10241611Y-44659174D02*
X10260658Y-44649650D01*
X10260658Y-44649650D02*
X10289230Y-44649650D01*
X10289230Y-44649650D02*
X10308277Y-44659174D01*
X10308277Y-44659174D02*
X10317801Y-44668698D01*
X10317801Y-44668698D02*
X10327325Y-44687746D01*
X10327325Y-44687746D02*
X10327325Y-44744888D01*
X10327325Y-44744888D02*
X10317801Y-44763936D01*
X10317801Y-44763936D02*
X10308277Y-44773460D01*
X10308277Y-44773460D02*
X10289230Y-44782984D01*
X10289230Y-44782984D02*
X10260658Y-44782984D01*
X10384468Y-44649650D02*
X10460658Y-44649650D01*
X10413039Y-44582984D02*
X10413039Y-44754412D01*
X10413039Y-44754412D02*
X10422563Y-44773460D01*
X10422563Y-44773460D02*
X10441611Y-44782984D01*
X10441611Y-44782984D02*
X10460658Y-44782984D01*
X10679706Y-44649650D02*
X10679706Y-44849650D01*
X10679706Y-44659174D02*
X10698754Y-44649650D01*
X10698754Y-44649650D02*
X10736849Y-44649650D01*
X10736849Y-44649650D02*
X10755896Y-44659174D01*
X10755896Y-44659174D02*
X10765420Y-44668698D01*
X10765420Y-44668698D02*
X10774944Y-44687746D01*
X10774944Y-44687746D02*
X10774944Y-44744888D01*
X10774944Y-44744888D02*
X10765420Y-44763936D01*
X10765420Y-44763936D02*
X10755896Y-44773460D01*
X10755896Y-44773460D02*
X10736849Y-44782984D01*
X10736849Y-44782984D02*
X10698754Y-44782984D01*
X10698754Y-44782984D02*
X10679706Y-44773460D01*
X10889230Y-44782984D02*
X10870182Y-44773460D01*
X10870182Y-44773460D02*
X10860658Y-44754412D01*
X10860658Y-44754412D02*
X10860658Y-44582984D01*
X11051135Y-44782984D02*
X11051135Y-44678222D01*
X11051135Y-44678222D02*
X11041611Y-44659174D01*
X11041611Y-44659174D02*
X11022563Y-44649650D01*
X11022563Y-44649650D02*
X10984468Y-44649650D01*
X10984468Y-44649650D02*
X10965420Y-44659174D01*
X11051135Y-44773460D02*
X11032087Y-44782984D01*
X11032087Y-44782984D02*
X10984468Y-44782984D01*
X10984468Y-44782984D02*
X10965420Y-44773460D01*
X10965420Y-44773460D02*
X10955896Y-44754412D01*
X10955896Y-44754412D02*
X10955896Y-44735365D01*
X10955896Y-44735365D02*
X10965420Y-44716317D01*
X10965420Y-44716317D02*
X10984468Y-44706793D01*
X10984468Y-44706793D02*
X11032087Y-44706793D01*
X11032087Y-44706793D02*
X11051135Y-44697270D01*
X11117801Y-44649650D02*
X11193992Y-44649650D01*
X11146373Y-44582984D02*
X11146373Y-44754412D01*
X11146373Y-44754412D02*
X11155896Y-44773460D01*
X11155896Y-44773460D02*
X11174944Y-44782984D01*
X11174944Y-44782984D02*
X11193992Y-44782984D01*
X11336849Y-44773460D02*
X11317801Y-44782984D01*
X11317801Y-44782984D02*
X11279706Y-44782984D01*
X11279706Y-44782984D02*
X11260658Y-44773460D01*
X11260658Y-44773460D02*
X11251134Y-44754412D01*
X11251134Y-44754412D02*
X11251134Y-44678222D01*
X11251134Y-44678222D02*
X11260658Y-44659174D01*
X11260658Y-44659174D02*
X11279706Y-44649650D01*
X11279706Y-44649650D02*
X11317801Y-44649650D01*
X11317801Y-44649650D02*
X11336849Y-44659174D01*
X11336849Y-44659174D02*
X11346373Y-44678222D01*
X11346373Y-44678222D02*
X11346373Y-44697270D01*
X11346373Y-44697270D02*
X11251134Y-44716317D01*
X11517801Y-44782984D02*
X11517801Y-44582984D01*
X11517801Y-44773460D02*
X11498754Y-44782984D01*
X11498754Y-44782984D02*
X11460658Y-44782984D01*
X11460658Y-44782984D02*
X11441611Y-44773460D01*
X11441611Y-44773460D02*
X11432087Y-44763936D01*
X11432087Y-44763936D02*
X11422563Y-44744888D01*
X11422563Y-44744888D02*
X11422563Y-44687746D01*
X11422563Y-44687746D02*
X11432087Y-44668698D01*
X11432087Y-44668698D02*
X11441611Y-44659174D01*
X11441611Y-44659174D02*
X11460658Y-44649650D01*
X11460658Y-44649650D02*
X11498754Y-44649650D01*
X11498754Y-44649650D02*
X11517801Y-44659174D01*
X11593992Y-44859174D02*
X11603515Y-44849650D01*
X11603515Y-44849650D02*
X11622563Y-44821079D01*
X11622563Y-44821079D02*
X11632087Y-44802031D01*
X11632087Y-44802031D02*
X11641611Y-44773460D01*
X11641611Y-44773460D02*
X11651134Y-44725841D01*
X11651134Y-44725841D02*
X11651134Y-44687746D01*
X11651134Y-44687746D02*
X11641611Y-44640127D01*
X11641611Y-44640127D02*
X11632087Y-44611555D01*
X11632087Y-44611555D02*
X11622563Y-44592508D01*
X11622563Y-44592508D02*
X11603515Y-44563936D01*
X11603515Y-44563936D02*
X11593992Y-44554412D01*
M02*
