%TF.GenerationSoftware,KiCad,Pcbnew,10.0.5*%
%TF.CreationDate,2026-08-06T20:10:46+01:00*%
%TF.ProjectId,just-40-mark03,6a757374-2d34-4302-9d6d-61726b30332e,rev?*%
%TF.SameCoordinates,Original*%
%TF.FileFunction,Paste,Bot*%
%TF.FilePolarity,Positive*%
%FSLAX46Y46*%
G04 Gerber Fmt 4.6, Leading zero omitted, Abs format (unit mm)*
G04 Created by KiCad (PCBNEW 10.0.5) date 2026-08-06 20:10:46*
%MOMM*%
%LPD*%
G01*
G04 APERTURE LIST*
%ADD10C,1.600000*%
%ADD11O,3.200000X1.600000*%
%ADD12O,1.600000X3.200000*%
G04 APERTURE END LIST*
D10*
%TO.C,A1*%
X64410000Y-391380000D03*
D11*
X65210000Y-391380000D03*
D10*
X66010000Y-391380000D03*
X64410000Y-396460000D03*
D11*
X65210000Y-396460000D03*
D10*
X66010000Y-396460000D03*
X64410000Y-399000000D03*
D11*
X65210000Y-399000000D03*
D10*
X66010000Y-399000000D03*
X64410000Y-401540000D03*
D11*
X65210000Y-401540000D03*
D10*
X66010000Y-401540000D03*
X64410000Y-404080000D03*
D11*
X65210000Y-404080000D03*
D10*
X66010000Y-404080000D03*
X64410000Y-406620000D03*
D11*
X65210000Y-406620000D03*
D10*
X66010000Y-406620000D03*
X64410000Y-409160000D03*
D11*
X65210000Y-409160000D03*
D10*
X66010000Y-409160000D03*
X62080000Y-410760000D03*
D12*
X62080000Y-409960000D03*
D10*
X62080000Y-409160000D03*
X59540000Y-410760000D03*
D12*
X59540000Y-409960000D03*
D10*
X59540000Y-409160000D03*
X57000000Y-410760000D03*
D12*
X57000000Y-409960000D03*
D10*
X57000000Y-409160000D03*
X54460000Y-410760000D03*
D12*
X54460000Y-409960000D03*
D10*
X54460000Y-409160000D03*
X51920000Y-410760000D03*
D12*
X51920000Y-409960000D03*
D10*
X51920000Y-409160000D03*
X47990000Y-409160000D03*
D11*
X48790000Y-409160000D03*
D10*
X49590000Y-409160000D03*
X47990000Y-406620000D03*
D11*
X48790000Y-406620000D03*
D10*
X49590000Y-406620000D03*
X47990000Y-404080000D03*
D11*
X48790000Y-404080000D03*
D10*
X49590000Y-404080000D03*
X64410000Y-388840000D03*
D11*
X65210000Y-388840000D03*
D10*
X66010000Y-388840000D03*
X47990000Y-401540000D03*
D11*
X48790000Y-401540000D03*
D10*
X49590000Y-401540000D03*
X47990000Y-399000000D03*
D11*
X48790000Y-399000000D03*
D10*
X49590000Y-399000000D03*
X64410000Y-393920000D03*
D11*
X65210000Y-393920000D03*
D10*
X66010000Y-393920000D03*
X47990000Y-396460000D03*
D11*
X48790000Y-396460000D03*
D10*
X49590000Y-396460000D03*
X47990000Y-393920000D03*
D11*
X48790000Y-393920000D03*
D10*
X49590000Y-393920000D03*
X47990000Y-391380000D03*
D11*
X48790000Y-391380000D03*
D10*
X49590000Y-391380000D03*
X47990000Y-388840000D03*
D11*
X48790000Y-388840000D03*
D10*
X49590000Y-388840000D03*
%TD*%
M02*
