M48
; DRILL file KiCad 10.0.5 date 2026-08-06T20:11:59
; FORMAT={-:-/ absolute / metric / decimal}
; #@! TF.CreationDate,2026-08-06T20:11:59+01:00
; #@! TF.GenerationSoftware,Kicad,Pcbnew,10.0.5
; #@! TF.FileFunction,NonPlated,1,2,NPTH
FMAT,2
METRIC
; #@! TA.AperFunction,NonPlated,NPTH,ComponentDrill
T1C1.400
; #@! TA.AperFunction,NonPlated,NPTH,ComponentDrill
T2C1.850
; #@! TA.AperFunction,NonPlated,NPTH,ComponentDrill
T3C1.900
; #@! TA.AperFunction,NonPlated,NPTH,ComponentDrill
T4C3.300
; #@! TA.AperFunction,NonPlated,NPTH,ComponentDrill
T5C4.300
%
G90
G05
T1
X51.92Y-361.0
X61.42Y-380.0
X62.08Y-361.0
X70.92Y-361.0
X70.92Y-399.0
X71.58Y-380.0
X80.42Y-380.0
X81.08Y-361.0
X81.08Y-399.0
X89.92Y-361.0
X89.92Y-399.0
X90.58Y-380.0
X99.42Y-380.0
X99.42Y-418.0
X100.08Y-361.0
X100.08Y-399.0
X108.92Y-361.0
X108.92Y-399.0
X109.58Y-380.0
X109.58Y-418.0
X118.42Y-380.0
X118.42Y-418.0
X119.08Y-361.0
X119.08Y-399.0
X127.92Y-361.0
X127.92Y-399.0
X128.58Y-380.0
X128.58Y-418.0
X137.42Y-380.0
X137.42Y-418.0
X138.08Y-361.0
X138.08Y-399.0
X146.92Y-361.0
X146.92Y-399.0
X147.58Y-380.0
X147.58Y-418.0
X156.42Y-380.0
X156.42Y-418.0
X157.08Y-361.0
X157.08Y-399.0
X165.92Y-361.0
X165.92Y-399.0
X166.58Y-380.0
X166.58Y-418.0
X175.42Y-380.0
X175.42Y-418.0
X176.08Y-361.0
X176.08Y-399.0
X184.92Y-361.0
X184.92Y-399.0
X185.58Y-380.0
X185.58Y-418.0
X194.42Y-380.0
X194.42Y-418.0
X195.08Y-361.0
X195.08Y-399.0
X203.92Y-361.0
X203.92Y-399.0
X204.58Y-380.0
X204.58Y-418.0
X213.42Y-380.0
X213.42Y-418.0
X214.08Y-361.0
X214.08Y-399.0
X222.92Y-361.0
X222.92Y-399.0
X223.58Y-380.0
X223.58Y-418.0
X232.42Y-380.0
X233.08Y-361.0
X233.08Y-399.0
X241.92Y-361.0
X241.92Y-399.0
X242.58Y-380.0
X251.42Y-380.0
X252.08Y-361.0
X252.08Y-399.0
X260.92Y-361.0
X261.58Y-380.0
X271.08Y-361.0
T2
X154.5Y-351.5
T3
X48.5Y-351.5
X48.5Y-426.5
X123.5Y-351.5
X133.0Y-426.5
X168.5Y-351.5
X190.0Y-426.5
X199.5Y-351.5
X274.5Y-351.5
X274.5Y-426.5
T4
X53.0Y-357.0
X53.0Y-422.0
X123.5Y-361.0
X123.5Y-389.5
X133.0Y-418.0
X190.0Y-418.0
X199.5Y-361.0
X199.5Y-389.5
X270.0Y-357.0
X270.0Y-422.0
T5
X57.0Y-361.0
X66.5Y-380.0
X76.0Y-361.0
X76.0Y-399.0
X85.5Y-380.0
X95.0Y-361.0
X95.0Y-399.0
X104.5Y-380.0
X104.5Y-418.0
X114.0Y-361.0
X114.0Y-399.0
X123.5Y-380.0
X123.5Y-418.0
X133.0Y-361.0
X133.0Y-399.0
X142.5Y-380.0
X142.5Y-418.0
X152.0Y-361.0
X152.0Y-399.0
X161.5Y-380.0
X161.5Y-418.0
X171.0Y-361.0
X171.0Y-399.0
X180.5Y-380.0
X180.5Y-418.0
X190.0Y-361.0
X190.0Y-399.0
X199.5Y-380.0
X199.5Y-418.0
X209.0Y-361.0
X209.0Y-399.0
X218.5Y-380.0
X218.5Y-418.0
X228.0Y-361.0
X228.0Y-399.0
X237.5Y-380.0
X247.0Y-361.0
X247.0Y-399.0
X256.5Y-380.0
X266.0Y-361.0
M30
