%TF.GenerationSoftware,KiCad,Pcbnew,10.0.5*%
%TF.CreationDate,2026-08-06T20:11:59+01:00*%
%TF.ProjectId,just-40-mark03,6a757374-2d34-4302-9d6d-61726b30332e,rev?*%
%TF.SameCoordinates,Original*%
%TF.FileFunction,Drillmap*%
%TF.FilePolarity,Positive*%
%FSLAX45Y45*%
G04 Gerber Fmt 4.5, Leading zero omitted, Abs format (unit mm)*
G04 Created by KiCad (PCBNEW 10.0.5) date 2026-08-06 20:11:59*
%MOMM*%
%LPD*%
G01*
G04 APERTURE LIST*
%ADD10C,0.050000*%
%ADD11C,0.200000*%
%ADD12C,0.100000*%
%ADD13C,0.120000*%
G04 APERTURE END LIST*
D10*
X4650000Y-35050000D02*
G75*
G02*
X4750000Y-34950000I100000J0D01*
G01*
X4750000Y-34950000D02*
X27550000Y-34950000D01*
X27550000Y-34950000D02*
G75*
G02*
X27650000Y-35050000I0J-100000D01*
G01*
X4650000Y-35050000D02*
X4650000Y-42750000D01*
X27650000Y-35050000D02*
X27650000Y-42750000D01*
X4750000Y-42850000D02*
G75*
G02*
X4650000Y-42750000I0J100000D01*
G01*
X4750000Y-42850000D02*
X27550000Y-42850000D01*
X27650000Y-42750000D02*
G75*
G02*
X27550000Y-42850000I-100000J0D01*
G01*
D11*
D12*
X6066000Y-36910000D02*
X6096000Y-36940000D01*
X6096000Y-36910000D02*
X6066000Y-36940000D01*
X6510000Y-36085000D02*
X6540000Y-36115000D01*
X6540000Y-36085000D02*
X6510000Y-36115000D01*
X7460000Y-37985000D02*
X7490000Y-38015000D01*
X7490000Y-37985000D02*
X7460000Y-38015000D01*
X8410000Y-39885000D02*
X8440000Y-39915000D01*
X8440000Y-39885000D02*
X8410000Y-39915000D01*
X11260000Y-41785000D02*
X11290000Y-41815000D01*
X11290000Y-41785000D02*
X11260000Y-41815000D01*
X6570000Y-35700000D02*
G75*
G02*
X6480000Y-35700000I-45000J0D01*
G01*
X6480000Y-35700000D02*
G75*
G02*
X6570000Y-35700000I45000J0D01*
G01*
X6570000Y-36500000D02*
G75*
G02*
X6480000Y-36500000I-45000J0D01*
G01*
X6480000Y-36500000D02*
G75*
G02*
X6570000Y-36500000I45000J0D01*
G01*
X6820000Y-35700000D02*
G75*
G02*
X6730000Y-35700000I-45000J0D01*
G01*
X6730000Y-35700000D02*
G75*
G02*
X6820000Y-35700000I45000J0D01*
G01*
X6820000Y-36500000D02*
G75*
G02*
X6730000Y-36500000I-45000J0D01*
G01*
X6730000Y-36500000D02*
G75*
G02*
X6820000Y-36500000I45000J0D01*
G01*
X7520000Y-37600000D02*
G75*
G02*
X7430000Y-37600000I-45000J0D01*
G01*
X7430000Y-37600000D02*
G75*
G02*
X7520000Y-37600000I45000J0D01*
G01*
X7520000Y-38400000D02*
G75*
G02*
X7430000Y-38400000I-45000J0D01*
G01*
X7430000Y-38400000D02*
G75*
G02*
X7520000Y-38400000I45000J0D01*
G01*
X7770000Y-37600000D02*
G75*
G02*
X7680000Y-37600000I-45000J0D01*
G01*
X7680000Y-37600000D02*
G75*
G02*
X7770000Y-37600000I45000J0D01*
G01*
X7770000Y-38400000D02*
G75*
G02*
X7680000Y-38400000I-45000J0D01*
G01*
X7680000Y-38400000D02*
G75*
G02*
X7770000Y-38400000I45000J0D01*
G01*
X8470000Y-39500000D02*
G75*
G02*
X8380000Y-39500000I-45000J0D01*
G01*
X8380000Y-39500000D02*
G75*
G02*
X8470000Y-39500000I45000J0D01*
G01*
X8470000Y-40300000D02*
G75*
G02*
X8380000Y-40300000I-45000J0D01*
G01*
X8380000Y-40300000D02*
G75*
G02*
X8470000Y-40300000I45000J0D01*
G01*
X8720000Y-35700000D02*
G75*
G02*
X8630000Y-35700000I-45000J0D01*
G01*
X8630000Y-35700000D02*
G75*
G02*
X8720000Y-35700000I45000J0D01*
G01*
X8720000Y-36500000D02*
G75*
G02*
X8630000Y-36500000I-45000J0D01*
G01*
X8630000Y-36500000D02*
G75*
G02*
X8720000Y-36500000I45000J0D01*
G01*
X8720000Y-39500000D02*
G75*
G02*
X8630000Y-39500000I-45000J0D01*
G01*
X8630000Y-39500000D02*
G75*
G02*
X8720000Y-39500000I45000J0D01*
G01*
X8720000Y-40300000D02*
G75*
G02*
X8630000Y-40300000I-45000J0D01*
G01*
X8630000Y-40300000D02*
G75*
G02*
X8720000Y-40300000I45000J0D01*
G01*
X9670000Y-37600000D02*
G75*
G02*
X9580000Y-37600000I-45000J0D01*
G01*
X9580000Y-37600000D02*
G75*
G02*
X9670000Y-37600000I45000J0D01*
G01*
X9670000Y-38400000D02*
G75*
G02*
X9580000Y-38400000I-45000J0D01*
G01*
X9580000Y-38400000D02*
G75*
G02*
X9670000Y-38400000I45000J0D01*
G01*
X10620000Y-35700000D02*
G75*
G02*
X10530000Y-35700000I-45000J0D01*
G01*
X10530000Y-35700000D02*
G75*
G02*
X10620000Y-35700000I45000J0D01*
G01*
X10620000Y-36500000D02*
G75*
G02*
X10530000Y-36500000I-45000J0D01*
G01*
X10530000Y-36500000D02*
G75*
G02*
X10620000Y-36500000I45000J0D01*
G01*
X10620000Y-39500000D02*
G75*
G02*
X10530000Y-39500000I-45000J0D01*
G01*
X10530000Y-39500000D02*
G75*
G02*
X10620000Y-39500000I45000J0D01*
G01*
X10620000Y-40300000D02*
G75*
G02*
X10530000Y-40300000I-45000J0D01*
G01*
X10530000Y-40300000D02*
G75*
G02*
X10620000Y-40300000I45000J0D01*
G01*
X11320000Y-41400000D02*
G75*
G02*
X11230000Y-41400000I-45000J0D01*
G01*
X11230000Y-41400000D02*
G75*
G02*
X11320000Y-41400000I45000J0D01*
G01*
X11320000Y-42200000D02*
G75*
G02*
X11230000Y-42200000I-45000J0D01*
G01*
X11230000Y-42200000D02*
G75*
G02*
X11320000Y-42200000I45000J0D01*
G01*
X11570000Y-37600000D02*
G75*
G02*
X11480000Y-37600000I-45000J0D01*
G01*
X11480000Y-37600000D02*
G75*
G02*
X11570000Y-37600000I45000J0D01*
G01*
X11570000Y-38400000D02*
G75*
G02*
X11480000Y-38400000I-45000J0D01*
G01*
X11480000Y-38400000D02*
G75*
G02*
X11570000Y-38400000I45000J0D01*
G01*
X11570000Y-41400000D02*
G75*
G02*
X11480000Y-41400000I-45000J0D01*
G01*
X11480000Y-41400000D02*
G75*
G02*
X11570000Y-41400000I45000J0D01*
G01*
X11570000Y-42200000D02*
G75*
G02*
X11480000Y-42200000I-45000J0D01*
G01*
X11480000Y-42200000D02*
G75*
G02*
X11570000Y-42200000I45000J0D01*
G01*
X12520000Y-39500000D02*
G75*
G02*
X12430000Y-39500000I-45000J0D01*
G01*
X12430000Y-39500000D02*
G75*
G02*
X12520000Y-39500000I45000J0D01*
G01*
X12520000Y-40300000D02*
G75*
G02*
X12430000Y-40300000I-45000J0D01*
G01*
X12430000Y-40300000D02*
G75*
G02*
X12520000Y-40300000I45000J0D01*
G01*
X13470000Y-37600000D02*
G75*
G02*
X13380000Y-37600000I-45000J0D01*
G01*
X13380000Y-37600000D02*
G75*
G02*
X13470000Y-37600000I45000J0D01*
G01*
X13470000Y-38400000D02*
G75*
G02*
X13380000Y-38400000I-45000J0D01*
G01*
X13380000Y-38400000D02*
G75*
G02*
X13470000Y-38400000I45000J0D01*
G01*
X14170000Y-35700000D02*
G75*
G02*
X14080000Y-35700000I-45000J0D01*
G01*
X14080000Y-35700000D02*
G75*
G02*
X14170000Y-35700000I45000J0D01*
G01*
X14170000Y-36500000D02*
G75*
G02*
X14080000Y-36500000I-45000J0D01*
G01*
X14080000Y-36500000D02*
G75*
G02*
X14170000Y-36500000I45000J0D01*
G01*
X14420000Y-35700000D02*
G75*
G02*
X14330000Y-35700000I-45000J0D01*
G01*
X14330000Y-35700000D02*
G75*
G02*
X14420000Y-35700000I45000J0D01*
G01*
X14420000Y-36500000D02*
G75*
G02*
X14330000Y-36500000I-45000J0D01*
G01*
X14330000Y-36500000D02*
G75*
G02*
X14420000Y-36500000I45000J0D01*
G01*
X14420000Y-39500000D02*
G75*
G02*
X14330000Y-39500000I-45000J0D01*
G01*
X14330000Y-39500000D02*
G75*
G02*
X14420000Y-39500000I45000J0D01*
G01*
X14420000Y-40300000D02*
G75*
G02*
X14330000Y-40300000I-45000J0D01*
G01*
X14330000Y-40300000D02*
G75*
G02*
X14420000Y-40300000I45000J0D01*
G01*
X15120000Y-41400000D02*
G75*
G02*
X15030000Y-41400000I-45000J0D01*
G01*
X15030000Y-41400000D02*
G75*
G02*
X15120000Y-41400000I45000J0D01*
G01*
X15120000Y-42200000D02*
G75*
G02*
X15030000Y-42200000I-45000J0D01*
G01*
X15030000Y-42200000D02*
G75*
G02*
X15120000Y-42200000I45000J0D01*
G01*
X15370000Y-37600000D02*
G75*
G02*
X15280000Y-37600000I-45000J0D01*
G01*
X15280000Y-37600000D02*
G75*
G02*
X15370000Y-37600000I45000J0D01*
G01*
X15370000Y-38400000D02*
G75*
G02*
X15280000Y-38400000I-45000J0D01*
G01*
X15280000Y-38400000D02*
G75*
G02*
X15370000Y-38400000I45000J0D01*
G01*
X15370000Y-41400000D02*
G75*
G02*
X15280000Y-41400000I-45000J0D01*
G01*
X15280000Y-41400000D02*
G75*
G02*
X15370000Y-41400000I45000J0D01*
G01*
X15370000Y-42200000D02*
G75*
G02*
X15280000Y-42200000I-45000J0D01*
G01*
X15280000Y-42200000D02*
G75*
G02*
X15370000Y-42200000I45000J0D01*
G01*
X16320000Y-39500000D02*
G75*
G02*
X16230000Y-39500000I-45000J0D01*
G01*
X16230000Y-39500000D02*
G75*
G02*
X16320000Y-39500000I45000J0D01*
G01*
X16320000Y-40300000D02*
G75*
G02*
X16230000Y-40300000I-45000J0D01*
G01*
X16230000Y-40300000D02*
G75*
G02*
X16320000Y-40300000I45000J0D01*
G01*
X17270000Y-37600000D02*
G75*
G02*
X17180000Y-37600000I-45000J0D01*
G01*
X17180000Y-37600000D02*
G75*
G02*
X17270000Y-37600000I45000J0D01*
G01*
X17270000Y-38400000D02*
G75*
G02*
X17180000Y-38400000I-45000J0D01*
G01*
X17180000Y-38400000D02*
G75*
G02*
X17270000Y-38400000I45000J0D01*
G01*
X17270000Y-41400000D02*
G75*
G02*
X17180000Y-41400000I-45000J0D01*
G01*
X17180000Y-41400000D02*
G75*
G02*
X17270000Y-41400000I45000J0D01*
G01*
X17270000Y-42200000D02*
G75*
G02*
X17180000Y-42200000I-45000J0D01*
G01*
X17180000Y-42200000D02*
G75*
G02*
X17270000Y-42200000I45000J0D01*
G01*
X17970000Y-35700000D02*
G75*
G02*
X17880000Y-35700000I-45000J0D01*
G01*
X17880000Y-35700000D02*
G75*
G02*
X17970000Y-35700000I45000J0D01*
G01*
X17970000Y-36500000D02*
G75*
G02*
X17880000Y-36500000I-45000J0D01*
G01*
X17880000Y-36500000D02*
G75*
G02*
X17970000Y-36500000I45000J0D01*
G01*
X18220000Y-35700000D02*
G75*
G02*
X18130000Y-35700000I-45000J0D01*
G01*
X18130000Y-35700000D02*
G75*
G02*
X18220000Y-35700000I45000J0D01*
G01*
X18220000Y-36500000D02*
G75*
G02*
X18130000Y-36500000I-45000J0D01*
G01*
X18130000Y-36500000D02*
G75*
G02*
X18220000Y-36500000I45000J0D01*
G01*
X18220000Y-39500000D02*
G75*
G02*
X18130000Y-39500000I-45000J0D01*
G01*
X18130000Y-39500000D02*
G75*
G02*
X18220000Y-39500000I45000J0D01*
G01*
X18220000Y-40300000D02*
G75*
G02*
X18130000Y-40300000I-45000J0D01*
G01*
X18130000Y-40300000D02*
G75*
G02*
X18220000Y-40300000I45000J0D01*
G01*
X19170000Y-37600000D02*
G75*
G02*
X19080000Y-37600000I-45000J0D01*
G01*
X19080000Y-37600000D02*
G75*
G02*
X19170000Y-37600000I45000J0D01*
G01*
X19170000Y-38400000D02*
G75*
G02*
X19080000Y-38400000I-45000J0D01*
G01*
X19080000Y-38400000D02*
G75*
G02*
X19170000Y-38400000I45000J0D01*
G01*
X20120000Y-39500000D02*
G75*
G02*
X20030000Y-39500000I-45000J0D01*
G01*
X20030000Y-39500000D02*
G75*
G02*
X20120000Y-39500000I45000J0D01*
G01*
X20120000Y-40300000D02*
G75*
G02*
X20030000Y-40300000I-45000J0D01*
G01*
X20030000Y-40300000D02*
G75*
G02*
X20120000Y-40300000I45000J0D01*
G01*
X20820000Y-41400000D02*
G75*
G02*
X20730000Y-41400000I-45000J0D01*
G01*
X20730000Y-41400000D02*
G75*
G02*
X20820000Y-41400000I45000J0D01*
G01*
X20820000Y-42200000D02*
G75*
G02*
X20730000Y-42200000I-45000J0D01*
G01*
X20730000Y-42200000D02*
G75*
G02*
X20820000Y-42200000I45000J0D01*
G01*
X21070000Y-37600000D02*
G75*
G02*
X20980000Y-37600000I-45000J0D01*
G01*
X20980000Y-37600000D02*
G75*
G02*
X21070000Y-37600000I45000J0D01*
G01*
X21070000Y-38400000D02*
G75*
G02*
X20980000Y-38400000I-45000J0D01*
G01*
X20980000Y-38400000D02*
G75*
G02*
X21070000Y-38400000I45000J0D01*
G01*
X21070000Y-41400000D02*
G75*
G02*
X20980000Y-41400000I-45000J0D01*
G01*
X20980000Y-41400000D02*
G75*
G02*
X21070000Y-41400000I45000J0D01*
G01*
X21070000Y-42200000D02*
G75*
G02*
X20980000Y-42200000I-45000J0D01*
G01*
X20980000Y-42200000D02*
G75*
G02*
X21070000Y-42200000I45000J0D01*
G01*
X21770000Y-35700000D02*
G75*
G02*
X21680000Y-35700000I-45000J0D01*
G01*
X21680000Y-35700000D02*
G75*
G02*
X21770000Y-35700000I45000J0D01*
G01*
X21770000Y-36500000D02*
G75*
G02*
X21680000Y-36500000I-45000J0D01*
G01*
X21680000Y-36500000D02*
G75*
G02*
X21770000Y-36500000I45000J0D01*
G01*
X22020000Y-35700000D02*
G75*
G02*
X21930000Y-35700000I-45000J0D01*
G01*
X21930000Y-35700000D02*
G75*
G02*
X22020000Y-35700000I45000J0D01*
G01*
X22020000Y-36500000D02*
G75*
G02*
X21930000Y-36500000I-45000J0D01*
G01*
X21930000Y-36500000D02*
G75*
G02*
X22020000Y-36500000I45000J0D01*
G01*
X22020000Y-39500000D02*
G75*
G02*
X21930000Y-39500000I-45000J0D01*
G01*
X21930000Y-39500000D02*
G75*
G02*
X22020000Y-39500000I45000J0D01*
G01*
X22020000Y-40300000D02*
G75*
G02*
X21930000Y-40300000I-45000J0D01*
G01*
X21930000Y-40300000D02*
G75*
G02*
X22020000Y-40300000I45000J0D01*
G01*
X22970000Y-37600000D02*
G75*
G02*
X22880000Y-37600000I-45000J0D01*
G01*
X22880000Y-37600000D02*
G75*
G02*
X22970000Y-37600000I45000J0D01*
G01*
X22970000Y-38400000D02*
G75*
G02*
X22880000Y-38400000I-45000J0D01*
G01*
X22880000Y-38400000D02*
G75*
G02*
X22970000Y-38400000I45000J0D01*
G01*
X23920000Y-35700000D02*
G75*
G02*
X23830000Y-35700000I-45000J0D01*
G01*
X23830000Y-35700000D02*
G75*
G02*
X23920000Y-35700000I45000J0D01*
G01*
X23920000Y-36500000D02*
G75*
G02*
X23830000Y-36500000I-45000J0D01*
G01*
X23830000Y-36500000D02*
G75*
G02*
X23920000Y-36500000I45000J0D01*
G01*
X23920000Y-39500000D02*
G75*
G02*
X23830000Y-39500000I-45000J0D01*
G01*
X23830000Y-39500000D02*
G75*
G02*
X23920000Y-39500000I45000J0D01*
G01*
X23920000Y-40300000D02*
G75*
G02*
X23830000Y-40300000I-45000J0D01*
G01*
X23830000Y-40300000D02*
G75*
G02*
X23920000Y-40300000I45000J0D01*
G01*
X24870000Y-37600000D02*
G75*
G02*
X24780000Y-37600000I-45000J0D01*
G01*
X24780000Y-37600000D02*
G75*
G02*
X24870000Y-37600000I45000J0D01*
G01*
X24870000Y-38400000D02*
G75*
G02*
X24780000Y-38400000I-45000J0D01*
G01*
X24780000Y-38400000D02*
G75*
G02*
X24870000Y-38400000I45000J0D01*
G01*
X25820000Y-35700000D02*
G75*
G02*
X25730000Y-35700000I-45000J0D01*
G01*
X25730000Y-35700000D02*
G75*
G02*
X25820000Y-35700000I45000J0D01*
G01*
X25820000Y-36500000D02*
G75*
G02*
X25730000Y-36500000I-45000J0D01*
G01*
X25730000Y-36500000D02*
G75*
G02*
X25820000Y-36500000I45000J0D01*
G01*
X6081000Y-36304000D02*
X6081000Y-36404000D01*
X6031000Y-36354000D02*
X6131000Y-36354000D01*
X7031000Y-38204000D02*
X7031000Y-38304000D01*
X6981000Y-38254000D02*
X7081000Y-38254000D01*
X7981000Y-36304000D02*
X7981000Y-36404000D01*
X7931000Y-36354000D02*
X8031000Y-36354000D01*
X7981000Y-40104000D02*
X7981000Y-40204000D01*
X7931000Y-40154000D02*
X8031000Y-40154000D01*
X8931000Y-38204000D02*
X8931000Y-38304000D01*
X8881000Y-38254000D02*
X8981000Y-38254000D01*
X9881000Y-36304000D02*
X9881000Y-36404000D01*
X9831000Y-36354000D02*
X9931000Y-36354000D01*
X9881000Y-40104000D02*
X9881000Y-40204000D01*
X9831000Y-40154000D02*
X9931000Y-40154000D01*
X10831000Y-38204000D02*
X10831000Y-38304000D01*
X10781000Y-38254000D02*
X10881000Y-38254000D01*
X10831000Y-42004000D02*
X10831000Y-42104000D01*
X10781000Y-42054000D02*
X10881000Y-42054000D01*
X11781000Y-36304000D02*
X11781000Y-36404000D01*
X11731000Y-36354000D02*
X11831000Y-36354000D01*
X11781000Y-40104000D02*
X11781000Y-40204000D01*
X11731000Y-40154000D02*
X11831000Y-40154000D01*
X12731000Y-38204000D02*
X12731000Y-38304000D01*
X12681000Y-38254000D02*
X12781000Y-38254000D01*
X12731000Y-42004000D02*
X12731000Y-42104000D01*
X12681000Y-42054000D02*
X12781000Y-42054000D01*
X13681000Y-36304000D02*
X13681000Y-36404000D01*
X13631000Y-36354000D02*
X13731000Y-36354000D01*
X13681000Y-40104000D02*
X13681000Y-40204000D01*
X13631000Y-40154000D02*
X13731000Y-40154000D01*
X14631000Y-38204000D02*
X14631000Y-38304000D01*
X14581000Y-38254000D02*
X14681000Y-38254000D01*
X14631000Y-42004000D02*
X14631000Y-42104000D01*
X14581000Y-42054000D02*
X14681000Y-42054000D01*
X15581000Y-36304000D02*
X15581000Y-36404000D01*
X15531000Y-36354000D02*
X15631000Y-36354000D01*
X15581000Y-40104000D02*
X15581000Y-40204000D01*
X15531000Y-40154000D02*
X15631000Y-40154000D01*
X16531000Y-38204000D02*
X16531000Y-38304000D01*
X16481000Y-38254000D02*
X16581000Y-38254000D01*
X16531000Y-42004000D02*
X16531000Y-42104000D01*
X16481000Y-42054000D02*
X16581000Y-42054000D01*
X17481000Y-36304000D02*
X17481000Y-36404000D01*
X17431000Y-36354000D02*
X17531000Y-36354000D01*
X17481000Y-40104000D02*
X17481000Y-40204000D01*
X17431000Y-40154000D02*
X17531000Y-40154000D01*
X18431000Y-38204000D02*
X18431000Y-38304000D01*
X18381000Y-38254000D02*
X18481000Y-38254000D01*
X18431000Y-42004000D02*
X18431000Y-42104000D01*
X18381000Y-42054000D02*
X18481000Y-42054000D01*
X19381000Y-36304000D02*
X19381000Y-36404000D01*
X19331000Y-36354000D02*
X19431000Y-36354000D01*
X19381000Y-40104000D02*
X19381000Y-40204000D01*
X19331000Y-40154000D02*
X19431000Y-40154000D01*
X20331000Y-38204000D02*
X20331000Y-38304000D01*
X20281000Y-38254000D02*
X20381000Y-38254000D01*
X20331000Y-42004000D02*
X20331000Y-42104000D01*
X20281000Y-42054000D02*
X20381000Y-42054000D01*
X21281000Y-36304000D02*
X21281000Y-36404000D01*
X21231000Y-36354000D02*
X21331000Y-36354000D01*
X21281000Y-40104000D02*
X21281000Y-40204000D01*
X21231000Y-40154000D02*
X21331000Y-40154000D01*
X22231000Y-38204000D02*
X22231000Y-38304000D01*
X22181000Y-38254000D02*
X22281000Y-38254000D01*
X22231000Y-42004000D02*
X22231000Y-42104000D01*
X22181000Y-42054000D02*
X22281000Y-42054000D01*
X23181000Y-36304000D02*
X23181000Y-36404000D01*
X23131000Y-36354000D02*
X23231000Y-36354000D01*
X23181000Y-40104000D02*
X23181000Y-40204000D01*
X23131000Y-40154000D02*
X23231000Y-40154000D01*
X24131000Y-38204000D02*
X24131000Y-38304000D01*
X24081000Y-38254000D02*
X24181000Y-38254000D01*
X25081000Y-36304000D02*
X25081000Y-36404000D01*
X25031000Y-36354000D02*
X25131000Y-36354000D01*
X25081000Y-40104000D02*
X25081000Y-40204000D01*
X25031000Y-40154000D02*
X25131000Y-40154000D01*
X26031000Y-38204000D02*
X26031000Y-38304000D01*
X25981000Y-38254000D02*
X26081000Y-38254000D01*
X26981000Y-36304000D02*
X26981000Y-36404000D01*
X26931000Y-36354000D02*
X27031000Y-36354000D01*
D13*
X5488427Y-36650427D02*
X5488427Y-36565573D01*
X5403573Y-36565573D01*
X5403573Y-36650427D01*
X5488427Y-36650427D01*
X6438427Y-38550427D02*
X6438427Y-38465573D01*
X6353573Y-38465573D01*
X6353573Y-38550427D01*
X6438427Y-38550427D01*
X7388427Y-36650427D02*
X7388427Y-36565573D01*
X7303573Y-36565573D01*
X7303573Y-36650427D01*
X7388427Y-36650427D01*
X7388427Y-40450427D02*
X7388427Y-40365573D01*
X7303573Y-40365573D01*
X7303573Y-40450427D01*
X7388427Y-40450427D01*
X8338427Y-38550427D02*
X8338427Y-38465573D01*
X8253573Y-38465573D01*
X8253573Y-38550427D01*
X8338427Y-38550427D01*
X9288427Y-36650427D02*
X9288427Y-36565573D01*
X9203573Y-36565573D01*
X9203573Y-36650427D01*
X9288427Y-36650427D01*
X9288427Y-40450427D02*
X9288427Y-40365573D01*
X9203573Y-40365573D01*
X9203573Y-40450427D01*
X9288427Y-40450427D01*
X10238427Y-38550427D02*
X10238427Y-38465573D01*
X10153573Y-38465573D01*
X10153573Y-38550427D01*
X10238427Y-38550427D01*
X10238427Y-42350427D02*
X10238427Y-42265573D01*
X10153573Y-42265573D01*
X10153573Y-42350427D01*
X10238427Y-42350427D01*
X11188427Y-36650427D02*
X11188427Y-36565573D01*
X11103573Y-36565573D01*
X11103573Y-36650427D01*
X11188427Y-36650427D01*
X11188427Y-40450427D02*
X11188427Y-40365573D01*
X11103573Y-40365573D01*
X11103573Y-40450427D01*
X11188427Y-40450427D01*
X12138427Y-38550427D02*
X12138427Y-38465573D01*
X12053573Y-38465573D01*
X12053573Y-38550427D01*
X12138427Y-38550427D01*
X12138427Y-42350427D02*
X12138427Y-42265573D01*
X12053573Y-42265573D01*
X12053573Y-42350427D01*
X12138427Y-42350427D01*
X13088427Y-36650427D02*
X13088427Y-36565573D01*
X13003573Y-36565573D01*
X13003573Y-36650427D01*
X13088427Y-36650427D01*
X13088427Y-40450427D02*
X13088427Y-40365573D01*
X13003573Y-40365573D01*
X13003573Y-40450427D01*
X13088427Y-40450427D01*
X14038427Y-38550427D02*
X14038427Y-38465573D01*
X13953573Y-38465573D01*
X13953573Y-38550427D01*
X14038427Y-38550427D01*
X14038427Y-42350427D02*
X14038427Y-42265573D01*
X13953573Y-42265573D01*
X13953573Y-42350427D01*
X14038427Y-42350427D01*
X14988427Y-36650427D02*
X14988427Y-36565573D01*
X14903573Y-36565573D01*
X14903573Y-36650427D01*
X14988427Y-36650427D01*
X14988427Y-40450427D02*
X14988427Y-40365573D01*
X14903573Y-40365573D01*
X14903573Y-40450427D01*
X14988427Y-40450427D01*
X15938427Y-38550427D02*
X15938427Y-38465573D01*
X15853573Y-38465573D01*
X15853573Y-38550427D01*
X15938427Y-38550427D01*
X15938427Y-42350427D02*
X15938427Y-42265573D01*
X15853573Y-42265573D01*
X15853573Y-42350427D01*
X15938427Y-42350427D01*
X16888427Y-36650427D02*
X16888427Y-36565573D01*
X16803573Y-36565573D01*
X16803573Y-36650427D01*
X16888427Y-36650427D01*
X16888427Y-40450427D02*
X16888427Y-40365573D01*
X16803573Y-40365573D01*
X16803573Y-40450427D01*
X16888427Y-40450427D01*
X17838427Y-38550427D02*
X17838427Y-38465573D01*
X17753573Y-38465573D01*
X17753573Y-38550427D01*
X17838427Y-38550427D01*
X17838427Y-42350427D02*
X17838427Y-42265573D01*
X17753573Y-42265573D01*
X17753573Y-42350427D01*
X17838427Y-42350427D01*
X18788427Y-36650427D02*
X18788427Y-36565573D01*
X18703573Y-36565573D01*
X18703573Y-36650427D01*
X18788427Y-36650427D01*
X18788427Y-40450427D02*
X18788427Y-40365573D01*
X18703573Y-40365573D01*
X18703573Y-40450427D01*
X18788427Y-40450427D01*
X19738427Y-38550427D02*
X19738427Y-38465573D01*
X19653573Y-38465573D01*
X19653573Y-38550427D01*
X19738427Y-38550427D01*
X19738427Y-42350427D02*
X19738427Y-42265573D01*
X19653573Y-42265573D01*
X19653573Y-42350427D01*
X19738427Y-42350427D01*
X20688427Y-36650427D02*
X20688427Y-36565573D01*
X20603573Y-36565573D01*
X20603573Y-36650427D01*
X20688427Y-36650427D01*
X20688427Y-40450427D02*
X20688427Y-40365573D01*
X20603573Y-40365573D01*
X20603573Y-40450427D01*
X20688427Y-40450427D01*
X21638427Y-38550427D02*
X21638427Y-38465573D01*
X21553573Y-38465573D01*
X21553573Y-38550427D01*
X21638427Y-38550427D01*
X21638427Y-42350427D02*
X21638427Y-42265573D01*
X21553573Y-42265573D01*
X21553573Y-42350427D01*
X21638427Y-42350427D01*
X22588427Y-36650427D02*
X22588427Y-36565573D01*
X22503573Y-36565573D01*
X22503573Y-36650427D01*
X22588427Y-36650427D01*
X22588427Y-40450427D02*
X22588427Y-40365573D01*
X22503573Y-40365573D01*
X22503573Y-40450427D01*
X22588427Y-40450427D01*
X23538427Y-38550427D02*
X23538427Y-38465573D01*
X23453573Y-38465573D01*
X23453573Y-38550427D01*
X23538427Y-38550427D01*
X24488427Y-36650427D02*
X24488427Y-36565573D01*
X24403573Y-36565573D01*
X24403573Y-36650427D01*
X24488427Y-36650427D01*
X24488427Y-40450427D02*
X24488427Y-40365573D01*
X24403573Y-40365573D01*
X24403573Y-40450427D01*
X24488427Y-40450427D01*
X25438427Y-38550427D02*
X25438427Y-38465573D01*
X25353573Y-38465573D01*
X25353573Y-38550427D01*
X25438427Y-38550427D01*
X26388427Y-36650427D02*
X26388427Y-36565573D01*
X26303573Y-36565573D01*
X26303573Y-36650427D01*
X26388427Y-36650427D01*
D11*
X4908277Y-43163984D02*
X4908277Y-42963984D01*
X4908277Y-42963984D02*
X4955896Y-42963984D01*
X4955896Y-42963984D02*
X4984467Y-42973508D01*
X4984467Y-42973508D02*
X5003515Y-42992555D01*
X5003515Y-42992555D02*
X5013039Y-43011603D01*
X5013039Y-43011603D02*
X5022563Y-43049698D01*
X5022563Y-43049698D02*
X5022563Y-43078270D01*
X5022563Y-43078270D02*
X5013039Y-43116365D01*
X5013039Y-43116365D02*
X5003515Y-43135412D01*
X5003515Y-43135412D02*
X4984467Y-43154460D01*
X4984467Y-43154460D02*
X4955896Y-43163984D01*
X4955896Y-43163984D02*
X4908277Y-43163984D01*
X5108277Y-43163984D02*
X5108277Y-43030650D01*
X5108277Y-43068746D02*
X5117801Y-43049698D01*
X5117801Y-43049698D02*
X5127324Y-43040174D01*
X5127324Y-43040174D02*
X5146372Y-43030650D01*
X5146372Y-43030650D02*
X5165420Y-43030650D01*
X5232086Y-43163984D02*
X5232086Y-43030650D01*
X5232086Y-42963984D02*
X5222563Y-42973508D01*
X5222563Y-42973508D02*
X5232086Y-42983031D01*
X5232086Y-42983031D02*
X5241610Y-42973508D01*
X5241610Y-42973508D02*
X5232086Y-42963984D01*
X5232086Y-42963984D02*
X5232086Y-42983031D01*
X5355896Y-43163984D02*
X5336848Y-43154460D01*
X5336848Y-43154460D02*
X5327324Y-43135412D01*
X5327324Y-43135412D02*
X5327324Y-42963984D01*
X5460658Y-43163984D02*
X5441610Y-43154460D01*
X5441610Y-43154460D02*
X5432086Y-43135412D01*
X5432086Y-43135412D02*
X5432086Y-42963984D01*
X5689229Y-43163984D02*
X5689229Y-42963984D01*
X5689229Y-42963984D02*
X5755896Y-43106841D01*
X5755896Y-43106841D02*
X5822562Y-42963984D01*
X5822562Y-42963984D02*
X5822562Y-43163984D01*
X6003515Y-43163984D02*
X6003515Y-43059222D01*
X6003515Y-43059222D02*
X5993991Y-43040174D01*
X5993991Y-43040174D02*
X5974943Y-43030650D01*
X5974943Y-43030650D02*
X5936848Y-43030650D01*
X5936848Y-43030650D02*
X5917801Y-43040174D01*
X6003515Y-43154460D02*
X5984467Y-43163984D01*
X5984467Y-43163984D02*
X5936848Y-43163984D01*
X5936848Y-43163984D02*
X5917801Y-43154460D01*
X5917801Y-43154460D02*
X5908277Y-43135412D01*
X5908277Y-43135412D02*
X5908277Y-43116365D01*
X5908277Y-43116365D02*
X5917801Y-43097317D01*
X5917801Y-43097317D02*
X5936848Y-43087793D01*
X5936848Y-43087793D02*
X5984467Y-43087793D01*
X5984467Y-43087793D02*
X6003515Y-43078270D01*
X6098753Y-43030650D02*
X6098753Y-43230650D01*
X6098753Y-43040174D02*
X6117801Y-43030650D01*
X6117801Y-43030650D02*
X6155896Y-43030650D01*
X6155896Y-43030650D02*
X6174943Y-43040174D01*
X6174943Y-43040174D02*
X6184467Y-43049698D01*
X6184467Y-43049698D02*
X6193991Y-43068746D01*
X6193991Y-43068746D02*
X6193991Y-43125889D01*
X6193991Y-43125889D02*
X6184467Y-43144936D01*
X6184467Y-43144936D02*
X6174943Y-43154460D01*
X6174943Y-43154460D02*
X6155896Y-43163984D01*
X6155896Y-43163984D02*
X6117801Y-43163984D01*
X6117801Y-43163984D02*
X6098753Y-43154460D01*
X6279705Y-43144936D02*
X6289229Y-43154460D01*
X6289229Y-43154460D02*
X6279705Y-43163984D01*
X6279705Y-43163984D02*
X6270182Y-43154460D01*
X6270182Y-43154460D02*
X6279705Y-43144936D01*
X6279705Y-43144936D02*
X6279705Y-43163984D01*
X6279705Y-43040174D02*
X6289229Y-43049698D01*
X6289229Y-43049698D02*
X6279705Y-43059222D01*
X6279705Y-43059222D02*
X6270182Y-43049698D01*
X6270182Y-43049698D02*
X6279705Y-43040174D01*
X6279705Y-43040174D02*
X6279705Y-43059222D01*
D12*
X4617500Y-43477500D02*
X4647500Y-43507500D01*
X4647500Y-43477500D02*
X4617500Y-43507500D01*
D11*
X4946372Y-43383984D02*
X4965420Y-43383984D01*
X4965420Y-43383984D02*
X4984467Y-43393508D01*
X4984467Y-43393508D02*
X4993991Y-43403031D01*
X4993991Y-43403031D02*
X5003515Y-43422079D01*
X5003515Y-43422079D02*
X5013039Y-43460174D01*
X5013039Y-43460174D02*
X5013039Y-43507793D01*
X5013039Y-43507793D02*
X5003515Y-43545889D01*
X5003515Y-43545889D02*
X4993991Y-43564936D01*
X4993991Y-43564936D02*
X4984467Y-43574460D01*
X4984467Y-43574460D02*
X4965420Y-43583984D01*
X4965420Y-43583984D02*
X4946372Y-43583984D01*
X4946372Y-43583984D02*
X4927324Y-43574460D01*
X4927324Y-43574460D02*
X4917801Y-43564936D01*
X4917801Y-43564936D02*
X4908277Y-43545889D01*
X4908277Y-43545889D02*
X4898753Y-43507793D01*
X4898753Y-43507793D02*
X4898753Y-43460174D01*
X4898753Y-43460174D02*
X4908277Y-43422079D01*
X4908277Y-43422079D02*
X4917801Y-43403031D01*
X4917801Y-43403031D02*
X4927324Y-43393508D01*
X4927324Y-43393508D02*
X4946372Y-43383984D01*
X5098753Y-43564936D02*
X5108277Y-43574460D01*
X5108277Y-43574460D02*
X5098753Y-43583984D01*
X5098753Y-43583984D02*
X5089229Y-43574460D01*
X5089229Y-43574460D02*
X5098753Y-43564936D01*
X5098753Y-43564936D02*
X5098753Y-43583984D01*
X5174944Y-43383984D02*
X5298753Y-43383984D01*
X5298753Y-43383984D02*
X5232086Y-43460174D01*
X5232086Y-43460174D02*
X5260658Y-43460174D01*
X5260658Y-43460174D02*
X5279705Y-43469698D01*
X5279705Y-43469698D02*
X5289229Y-43479222D01*
X5289229Y-43479222D02*
X5298753Y-43498270D01*
X5298753Y-43498270D02*
X5298753Y-43545889D01*
X5298753Y-43545889D02*
X5289229Y-43564936D01*
X5289229Y-43564936D02*
X5279705Y-43574460D01*
X5279705Y-43574460D02*
X5260658Y-43583984D01*
X5260658Y-43583984D02*
X5203515Y-43583984D01*
X5203515Y-43583984D02*
X5184467Y-43574460D01*
X5184467Y-43574460D02*
X5174944Y-43564936D01*
X5422563Y-43383984D02*
X5441610Y-43383984D01*
X5441610Y-43383984D02*
X5460658Y-43393508D01*
X5460658Y-43393508D02*
X5470182Y-43403031D01*
X5470182Y-43403031D02*
X5479705Y-43422079D01*
X5479705Y-43422079D02*
X5489229Y-43460174D01*
X5489229Y-43460174D02*
X5489229Y-43507793D01*
X5489229Y-43507793D02*
X5479705Y-43545889D01*
X5479705Y-43545889D02*
X5470182Y-43564936D01*
X5470182Y-43564936D02*
X5460658Y-43574460D01*
X5460658Y-43574460D02*
X5441610Y-43583984D01*
X5441610Y-43583984D02*
X5422563Y-43583984D01*
X5422563Y-43583984D02*
X5403515Y-43574460D01*
X5403515Y-43574460D02*
X5393991Y-43564936D01*
X5393991Y-43564936D02*
X5384467Y-43545889D01*
X5384467Y-43545889D02*
X5374944Y-43507793D01*
X5374944Y-43507793D02*
X5374944Y-43460174D01*
X5374944Y-43460174D02*
X5384467Y-43422079D01*
X5384467Y-43422079D02*
X5393991Y-43403031D01*
X5393991Y-43403031D02*
X5403515Y-43393508D01*
X5403515Y-43393508D02*
X5422563Y-43383984D01*
X5613039Y-43383984D02*
X5632086Y-43383984D01*
X5632086Y-43383984D02*
X5651134Y-43393508D01*
X5651134Y-43393508D02*
X5660658Y-43403031D01*
X5660658Y-43403031D02*
X5670182Y-43422079D01*
X5670182Y-43422079D02*
X5679705Y-43460174D01*
X5679705Y-43460174D02*
X5679705Y-43507793D01*
X5679705Y-43507793D02*
X5670182Y-43545889D01*
X5670182Y-43545889D02*
X5660658Y-43564936D01*
X5660658Y-43564936D02*
X5651134Y-43574460D01*
X5651134Y-43574460D02*
X5632086Y-43583984D01*
X5632086Y-43583984D02*
X5613039Y-43583984D01*
X5613039Y-43583984D02*
X5593991Y-43574460D01*
X5593991Y-43574460D02*
X5584467Y-43564936D01*
X5584467Y-43564936D02*
X5574944Y-43545889D01*
X5574944Y-43545889D02*
X5565420Y-43507793D01*
X5565420Y-43507793D02*
X5565420Y-43460174D01*
X5565420Y-43460174D02*
X5574944Y-43422079D01*
X5574944Y-43422079D02*
X5584467Y-43403031D01*
X5584467Y-43403031D02*
X5593991Y-43393508D01*
X5593991Y-43393508D02*
X5613039Y-43383984D01*
X5765420Y-43583984D02*
X5765420Y-43450650D01*
X5765420Y-43469698D02*
X5774943Y-43460174D01*
X5774943Y-43460174D02*
X5793991Y-43450650D01*
X5793991Y-43450650D02*
X5822563Y-43450650D01*
X5822563Y-43450650D02*
X5841610Y-43460174D01*
X5841610Y-43460174D02*
X5851134Y-43479222D01*
X5851134Y-43479222D02*
X5851134Y-43583984D01*
X5851134Y-43479222D02*
X5860658Y-43460174D01*
X5860658Y-43460174D02*
X5879705Y-43450650D01*
X5879705Y-43450650D02*
X5908277Y-43450650D01*
X5908277Y-43450650D02*
X5927324Y-43460174D01*
X5927324Y-43460174D02*
X5936848Y-43479222D01*
X5936848Y-43479222D02*
X5936848Y-43583984D01*
X6032086Y-43583984D02*
X6032086Y-43450650D01*
X6032086Y-43469698D02*
X6041610Y-43460174D01*
X6041610Y-43460174D02*
X6060658Y-43450650D01*
X6060658Y-43450650D02*
X6089229Y-43450650D01*
X6089229Y-43450650D02*
X6108277Y-43460174D01*
X6108277Y-43460174D02*
X6117801Y-43479222D01*
X6117801Y-43479222D02*
X6117801Y-43583984D01*
X6117801Y-43479222D02*
X6127324Y-43460174D01*
X6127324Y-43460174D02*
X6146372Y-43450650D01*
X6146372Y-43450650D02*
X6174943Y-43450650D01*
X6174943Y-43450650D02*
X6193991Y-43460174D01*
X6193991Y-43460174D02*
X6203515Y-43479222D01*
X6203515Y-43479222D02*
X6203515Y-43583984D01*
X6593991Y-43374460D02*
X6422563Y-43631603D01*
X6851134Y-43383984D02*
X6870182Y-43383984D01*
X6870182Y-43383984D02*
X6889229Y-43393508D01*
X6889229Y-43393508D02*
X6898753Y-43403031D01*
X6898753Y-43403031D02*
X6908277Y-43422079D01*
X6908277Y-43422079D02*
X6917801Y-43460174D01*
X6917801Y-43460174D02*
X6917801Y-43507793D01*
X6917801Y-43507793D02*
X6908277Y-43545889D01*
X6908277Y-43545889D02*
X6898753Y-43564936D01*
X6898753Y-43564936D02*
X6889229Y-43574460D01*
X6889229Y-43574460D02*
X6870182Y-43583984D01*
X6870182Y-43583984D02*
X6851134Y-43583984D01*
X6851134Y-43583984D02*
X6832086Y-43574460D01*
X6832086Y-43574460D02*
X6822563Y-43564936D01*
X6822563Y-43564936D02*
X6813039Y-43545889D01*
X6813039Y-43545889D02*
X6803515Y-43507793D01*
X6803515Y-43507793D02*
X6803515Y-43460174D01*
X6803515Y-43460174D02*
X6813039Y-43422079D01*
X6813039Y-43422079D02*
X6822563Y-43403031D01*
X6822563Y-43403031D02*
X6832086Y-43393508D01*
X6832086Y-43393508D02*
X6851134Y-43383984D01*
X7003515Y-43564936D02*
X7013039Y-43574460D01*
X7013039Y-43574460D02*
X7003515Y-43583984D01*
X7003515Y-43583984D02*
X6993991Y-43574460D01*
X6993991Y-43574460D02*
X7003515Y-43564936D01*
X7003515Y-43564936D02*
X7003515Y-43583984D01*
X7136848Y-43383984D02*
X7155896Y-43383984D01*
X7155896Y-43383984D02*
X7174944Y-43393508D01*
X7174944Y-43393508D02*
X7184467Y-43403031D01*
X7184467Y-43403031D02*
X7193991Y-43422079D01*
X7193991Y-43422079D02*
X7203515Y-43460174D01*
X7203515Y-43460174D02*
X7203515Y-43507793D01*
X7203515Y-43507793D02*
X7193991Y-43545889D01*
X7193991Y-43545889D02*
X7184467Y-43564936D01*
X7184467Y-43564936D02*
X7174944Y-43574460D01*
X7174944Y-43574460D02*
X7155896Y-43583984D01*
X7155896Y-43583984D02*
X7136848Y-43583984D01*
X7136848Y-43583984D02*
X7117801Y-43574460D01*
X7117801Y-43574460D02*
X7108277Y-43564936D01*
X7108277Y-43564936D02*
X7098753Y-43545889D01*
X7098753Y-43545889D02*
X7089229Y-43507793D01*
X7089229Y-43507793D02*
X7089229Y-43460174D01*
X7089229Y-43460174D02*
X7098753Y-43422079D01*
X7098753Y-43422079D02*
X7108277Y-43403031D01*
X7108277Y-43403031D02*
X7117801Y-43393508D01*
X7117801Y-43393508D02*
X7136848Y-43383984D01*
X7393991Y-43583984D02*
X7279706Y-43583984D01*
X7336848Y-43583984D02*
X7336848Y-43383984D01*
X7336848Y-43383984D02*
X7317801Y-43412555D01*
X7317801Y-43412555D02*
X7298753Y-43431603D01*
X7298753Y-43431603D02*
X7279706Y-43441127D01*
X7584467Y-43583984D02*
X7470182Y-43583984D01*
X7527325Y-43583984D02*
X7527325Y-43383984D01*
X7527325Y-43383984D02*
X7508277Y-43412555D01*
X7508277Y-43412555D02*
X7489229Y-43431603D01*
X7489229Y-43431603D02*
X7470182Y-43441127D01*
X7698753Y-43469698D02*
X7679706Y-43460174D01*
X7679706Y-43460174D02*
X7670182Y-43450650D01*
X7670182Y-43450650D02*
X7660658Y-43431603D01*
X7660658Y-43431603D02*
X7660658Y-43422079D01*
X7660658Y-43422079D02*
X7670182Y-43403031D01*
X7670182Y-43403031D02*
X7679706Y-43393508D01*
X7679706Y-43393508D02*
X7698753Y-43383984D01*
X7698753Y-43383984D02*
X7736848Y-43383984D01*
X7736848Y-43383984D02*
X7755896Y-43393508D01*
X7755896Y-43393508D02*
X7765420Y-43403031D01*
X7765420Y-43403031D02*
X7774944Y-43422079D01*
X7774944Y-43422079D02*
X7774944Y-43431603D01*
X7774944Y-43431603D02*
X7765420Y-43450650D01*
X7765420Y-43450650D02*
X7755896Y-43460174D01*
X7755896Y-43460174D02*
X7736848Y-43469698D01*
X7736848Y-43469698D02*
X7698753Y-43469698D01*
X7698753Y-43469698D02*
X7679706Y-43479222D01*
X7679706Y-43479222D02*
X7670182Y-43488746D01*
X7670182Y-43488746D02*
X7660658Y-43507793D01*
X7660658Y-43507793D02*
X7660658Y-43545889D01*
X7660658Y-43545889D02*
X7670182Y-43564936D01*
X7670182Y-43564936D02*
X7679706Y-43574460D01*
X7679706Y-43574460D02*
X7698753Y-43583984D01*
X7698753Y-43583984D02*
X7736848Y-43583984D01*
X7736848Y-43583984D02*
X7755896Y-43574460D01*
X7755896Y-43574460D02*
X7765420Y-43564936D01*
X7765420Y-43564936D02*
X7774944Y-43545889D01*
X7774944Y-43545889D02*
X7774944Y-43507793D01*
X7774944Y-43507793D02*
X7765420Y-43488746D01*
X7765420Y-43488746D02*
X7755896Y-43479222D01*
X7755896Y-43479222D02*
X7736848Y-43469698D01*
X7851134Y-43383984D02*
X7851134Y-43422079D01*
X7927325Y-43383984D02*
X7927325Y-43422079D01*
X8222563Y-43660174D02*
X8213039Y-43650650D01*
X8213039Y-43650650D02*
X8193991Y-43622079D01*
X8193991Y-43622079D02*
X8184468Y-43603031D01*
X8184468Y-43603031D02*
X8174944Y-43574460D01*
X8174944Y-43574460D02*
X8165420Y-43526841D01*
X8165420Y-43526841D02*
X8165420Y-43488746D01*
X8165420Y-43488746D02*
X8174944Y-43441127D01*
X8174944Y-43441127D02*
X8184468Y-43412555D01*
X8184468Y-43412555D02*
X8193991Y-43393508D01*
X8193991Y-43393508D02*
X8213039Y-43364936D01*
X8213039Y-43364936D02*
X8222563Y-43355412D01*
X8393991Y-43383984D02*
X8298753Y-43383984D01*
X8298753Y-43383984D02*
X8289229Y-43479222D01*
X8289229Y-43479222D02*
X8298753Y-43469698D01*
X8298753Y-43469698D02*
X8317801Y-43460174D01*
X8317801Y-43460174D02*
X8365420Y-43460174D01*
X8365420Y-43460174D02*
X8384468Y-43469698D01*
X8384468Y-43469698D02*
X8393991Y-43479222D01*
X8393991Y-43479222D02*
X8403515Y-43498270D01*
X8403515Y-43498270D02*
X8403515Y-43545889D01*
X8403515Y-43545889D02*
X8393991Y-43564936D01*
X8393991Y-43564936D02*
X8384468Y-43574460D01*
X8384468Y-43574460D02*
X8365420Y-43583984D01*
X8365420Y-43583984D02*
X8317801Y-43583984D01*
X8317801Y-43583984D02*
X8298753Y-43574460D01*
X8298753Y-43574460D02*
X8289229Y-43564936D01*
X8641611Y-43583984D02*
X8641611Y-43383984D01*
X8727325Y-43583984D02*
X8727325Y-43479222D01*
X8727325Y-43479222D02*
X8717801Y-43460174D01*
X8717801Y-43460174D02*
X8698753Y-43450650D01*
X8698753Y-43450650D02*
X8670182Y-43450650D01*
X8670182Y-43450650D02*
X8651134Y-43460174D01*
X8651134Y-43460174D02*
X8641611Y-43469698D01*
X8851134Y-43583984D02*
X8832087Y-43574460D01*
X8832087Y-43574460D02*
X8822563Y-43564936D01*
X8822563Y-43564936D02*
X8813039Y-43545889D01*
X8813039Y-43545889D02*
X8813039Y-43488746D01*
X8813039Y-43488746D02*
X8822563Y-43469698D01*
X8822563Y-43469698D02*
X8832087Y-43460174D01*
X8832087Y-43460174D02*
X8851134Y-43450650D01*
X8851134Y-43450650D02*
X8879706Y-43450650D01*
X8879706Y-43450650D02*
X8898753Y-43460174D01*
X8898753Y-43460174D02*
X8908277Y-43469698D01*
X8908277Y-43469698D02*
X8917801Y-43488746D01*
X8917801Y-43488746D02*
X8917801Y-43545889D01*
X8917801Y-43545889D02*
X8908277Y-43564936D01*
X8908277Y-43564936D02*
X8898753Y-43574460D01*
X8898753Y-43574460D02*
X8879706Y-43583984D01*
X8879706Y-43583984D02*
X8851134Y-43583984D01*
X9032087Y-43583984D02*
X9013039Y-43574460D01*
X9013039Y-43574460D02*
X9003515Y-43555412D01*
X9003515Y-43555412D02*
X9003515Y-43383984D01*
X9184468Y-43574460D02*
X9165420Y-43583984D01*
X9165420Y-43583984D02*
X9127325Y-43583984D01*
X9127325Y-43583984D02*
X9108277Y-43574460D01*
X9108277Y-43574460D02*
X9098753Y-43555412D01*
X9098753Y-43555412D02*
X9098753Y-43479222D01*
X9098753Y-43479222D02*
X9108277Y-43460174D01*
X9108277Y-43460174D02*
X9127325Y-43450650D01*
X9127325Y-43450650D02*
X9165420Y-43450650D01*
X9165420Y-43450650D02*
X9184468Y-43460174D01*
X9184468Y-43460174D02*
X9193992Y-43479222D01*
X9193992Y-43479222D02*
X9193992Y-43498270D01*
X9193992Y-43498270D02*
X9098753Y-43517317D01*
X9270182Y-43574460D02*
X9289230Y-43583984D01*
X9289230Y-43583984D02*
X9327325Y-43583984D01*
X9327325Y-43583984D02*
X9346373Y-43574460D01*
X9346373Y-43574460D02*
X9355896Y-43555412D01*
X9355896Y-43555412D02*
X9355896Y-43545889D01*
X9355896Y-43545889D02*
X9346373Y-43526841D01*
X9346373Y-43526841D02*
X9327325Y-43517317D01*
X9327325Y-43517317D02*
X9298753Y-43517317D01*
X9298753Y-43517317D02*
X9279706Y-43507793D01*
X9279706Y-43507793D02*
X9270182Y-43488746D01*
X9270182Y-43488746D02*
X9270182Y-43479222D01*
X9270182Y-43479222D02*
X9279706Y-43460174D01*
X9279706Y-43460174D02*
X9298753Y-43450650D01*
X9298753Y-43450650D02*
X9327325Y-43450650D01*
X9327325Y-43450650D02*
X9346373Y-43460174D01*
X9422563Y-43660174D02*
X9432087Y-43650650D01*
X9432087Y-43650650D02*
X9451134Y-43622079D01*
X9451134Y-43622079D02*
X9460658Y-43603031D01*
X9460658Y-43603031D02*
X9470182Y-43574460D01*
X9470182Y-43574460D02*
X9479706Y-43526841D01*
X9479706Y-43526841D02*
X9479706Y-43488746D01*
X9479706Y-43488746D02*
X9470182Y-43441127D01*
X9470182Y-43441127D02*
X9460658Y-43412555D01*
X9460658Y-43412555D02*
X9451134Y-43393508D01*
X9451134Y-43393508D02*
X9432087Y-43364936D01*
X9432087Y-43364936D02*
X9422563Y-43355412D01*
D12*
X4647500Y-43756500D02*
G75*
G02*
X4557500Y-43756500I-45000J0D01*
G01*
X4557500Y-43756500D02*
G75*
G02*
X4647500Y-43756500I45000J0D01*
G01*
D11*
X4946372Y-43647984D02*
X4965420Y-43647984D01*
X4965420Y-43647984D02*
X4984467Y-43657508D01*
X4984467Y-43657508D02*
X4993991Y-43667031D01*
X4993991Y-43667031D02*
X5003515Y-43686079D01*
X5003515Y-43686079D02*
X5013039Y-43724174D01*
X5013039Y-43724174D02*
X5013039Y-43771793D01*
X5013039Y-43771793D02*
X5003515Y-43809889D01*
X5003515Y-43809889D02*
X4993991Y-43828936D01*
X4993991Y-43828936D02*
X4984467Y-43838460D01*
X4984467Y-43838460D02*
X4965420Y-43847984D01*
X4965420Y-43847984D02*
X4946372Y-43847984D01*
X4946372Y-43847984D02*
X4927324Y-43838460D01*
X4927324Y-43838460D02*
X4917801Y-43828936D01*
X4917801Y-43828936D02*
X4908277Y-43809889D01*
X4908277Y-43809889D02*
X4898753Y-43771793D01*
X4898753Y-43771793D02*
X4898753Y-43724174D01*
X4898753Y-43724174D02*
X4908277Y-43686079D01*
X4908277Y-43686079D02*
X4917801Y-43667031D01*
X4917801Y-43667031D02*
X4927324Y-43657508D01*
X4927324Y-43657508D02*
X4946372Y-43647984D01*
X5098753Y-43828936D02*
X5108277Y-43838460D01*
X5108277Y-43838460D02*
X5098753Y-43847984D01*
X5098753Y-43847984D02*
X5089229Y-43838460D01*
X5089229Y-43838460D02*
X5098753Y-43828936D01*
X5098753Y-43828936D02*
X5098753Y-43847984D01*
X5203515Y-43847984D02*
X5241610Y-43847984D01*
X5241610Y-43847984D02*
X5260658Y-43838460D01*
X5260658Y-43838460D02*
X5270182Y-43828936D01*
X5270182Y-43828936D02*
X5289229Y-43800365D01*
X5289229Y-43800365D02*
X5298753Y-43762270D01*
X5298753Y-43762270D02*
X5298753Y-43686079D01*
X5298753Y-43686079D02*
X5289229Y-43667031D01*
X5289229Y-43667031D02*
X5279705Y-43657508D01*
X5279705Y-43657508D02*
X5260658Y-43647984D01*
X5260658Y-43647984D02*
X5222563Y-43647984D01*
X5222563Y-43647984D02*
X5203515Y-43657508D01*
X5203515Y-43657508D02*
X5193991Y-43667031D01*
X5193991Y-43667031D02*
X5184467Y-43686079D01*
X5184467Y-43686079D02*
X5184467Y-43733698D01*
X5184467Y-43733698D02*
X5193991Y-43752746D01*
X5193991Y-43752746D02*
X5203515Y-43762270D01*
X5203515Y-43762270D02*
X5222563Y-43771793D01*
X5222563Y-43771793D02*
X5260658Y-43771793D01*
X5260658Y-43771793D02*
X5279705Y-43762270D01*
X5279705Y-43762270D02*
X5289229Y-43752746D01*
X5289229Y-43752746D02*
X5298753Y-43733698D01*
X5422563Y-43647984D02*
X5441610Y-43647984D01*
X5441610Y-43647984D02*
X5460658Y-43657508D01*
X5460658Y-43657508D02*
X5470182Y-43667031D01*
X5470182Y-43667031D02*
X5479705Y-43686079D01*
X5479705Y-43686079D02*
X5489229Y-43724174D01*
X5489229Y-43724174D02*
X5489229Y-43771793D01*
X5489229Y-43771793D02*
X5479705Y-43809889D01*
X5479705Y-43809889D02*
X5470182Y-43828936D01*
X5470182Y-43828936D02*
X5460658Y-43838460D01*
X5460658Y-43838460D02*
X5441610Y-43847984D01*
X5441610Y-43847984D02*
X5422563Y-43847984D01*
X5422563Y-43847984D02*
X5403515Y-43838460D01*
X5403515Y-43838460D02*
X5393991Y-43828936D01*
X5393991Y-43828936D02*
X5384467Y-43809889D01*
X5384467Y-43809889D02*
X5374944Y-43771793D01*
X5374944Y-43771793D02*
X5374944Y-43724174D01*
X5374944Y-43724174D02*
X5384467Y-43686079D01*
X5384467Y-43686079D02*
X5393991Y-43667031D01*
X5393991Y-43667031D02*
X5403515Y-43657508D01*
X5403515Y-43657508D02*
X5422563Y-43647984D01*
X5613039Y-43647984D02*
X5632086Y-43647984D01*
X5632086Y-43647984D02*
X5651134Y-43657508D01*
X5651134Y-43657508D02*
X5660658Y-43667031D01*
X5660658Y-43667031D02*
X5670182Y-43686079D01*
X5670182Y-43686079D02*
X5679705Y-43724174D01*
X5679705Y-43724174D02*
X5679705Y-43771793D01*
X5679705Y-43771793D02*
X5670182Y-43809889D01*
X5670182Y-43809889D02*
X5660658Y-43828936D01*
X5660658Y-43828936D02*
X5651134Y-43838460D01*
X5651134Y-43838460D02*
X5632086Y-43847984D01*
X5632086Y-43847984D02*
X5613039Y-43847984D01*
X5613039Y-43847984D02*
X5593991Y-43838460D01*
X5593991Y-43838460D02*
X5584467Y-43828936D01*
X5584467Y-43828936D02*
X5574944Y-43809889D01*
X5574944Y-43809889D02*
X5565420Y-43771793D01*
X5565420Y-43771793D02*
X5565420Y-43724174D01*
X5565420Y-43724174D02*
X5574944Y-43686079D01*
X5574944Y-43686079D02*
X5584467Y-43667031D01*
X5584467Y-43667031D02*
X5593991Y-43657508D01*
X5593991Y-43657508D02*
X5613039Y-43647984D01*
X5765420Y-43847984D02*
X5765420Y-43714650D01*
X5765420Y-43733698D02*
X5774943Y-43724174D01*
X5774943Y-43724174D02*
X5793991Y-43714650D01*
X5793991Y-43714650D02*
X5822563Y-43714650D01*
X5822563Y-43714650D02*
X5841610Y-43724174D01*
X5841610Y-43724174D02*
X5851134Y-43743222D01*
X5851134Y-43743222D02*
X5851134Y-43847984D01*
X5851134Y-43743222D02*
X5860658Y-43724174D01*
X5860658Y-43724174D02*
X5879705Y-43714650D01*
X5879705Y-43714650D02*
X5908277Y-43714650D01*
X5908277Y-43714650D02*
X5927324Y-43724174D01*
X5927324Y-43724174D02*
X5936848Y-43743222D01*
X5936848Y-43743222D02*
X5936848Y-43847984D01*
X6032086Y-43847984D02*
X6032086Y-43714650D01*
X6032086Y-43733698D02*
X6041610Y-43724174D01*
X6041610Y-43724174D02*
X6060658Y-43714650D01*
X6060658Y-43714650D02*
X6089229Y-43714650D01*
X6089229Y-43714650D02*
X6108277Y-43724174D01*
X6108277Y-43724174D02*
X6117801Y-43743222D01*
X6117801Y-43743222D02*
X6117801Y-43847984D01*
X6117801Y-43743222D02*
X6127324Y-43724174D01*
X6127324Y-43724174D02*
X6146372Y-43714650D01*
X6146372Y-43714650D02*
X6174943Y-43714650D01*
X6174943Y-43714650D02*
X6193991Y-43724174D01*
X6193991Y-43724174D02*
X6203515Y-43743222D01*
X6203515Y-43743222D02*
X6203515Y-43847984D01*
X6593991Y-43638460D02*
X6422563Y-43895603D01*
X6851134Y-43647984D02*
X6870182Y-43647984D01*
X6870182Y-43647984D02*
X6889229Y-43657508D01*
X6889229Y-43657508D02*
X6898753Y-43667031D01*
X6898753Y-43667031D02*
X6908277Y-43686079D01*
X6908277Y-43686079D02*
X6917801Y-43724174D01*
X6917801Y-43724174D02*
X6917801Y-43771793D01*
X6917801Y-43771793D02*
X6908277Y-43809889D01*
X6908277Y-43809889D02*
X6898753Y-43828936D01*
X6898753Y-43828936D02*
X6889229Y-43838460D01*
X6889229Y-43838460D02*
X6870182Y-43847984D01*
X6870182Y-43847984D02*
X6851134Y-43847984D01*
X6851134Y-43847984D02*
X6832086Y-43838460D01*
X6832086Y-43838460D02*
X6822563Y-43828936D01*
X6822563Y-43828936D02*
X6813039Y-43809889D01*
X6813039Y-43809889D02*
X6803515Y-43771793D01*
X6803515Y-43771793D02*
X6803515Y-43724174D01*
X6803515Y-43724174D02*
X6813039Y-43686079D01*
X6813039Y-43686079D02*
X6822563Y-43667031D01*
X6822563Y-43667031D02*
X6832086Y-43657508D01*
X6832086Y-43657508D02*
X6851134Y-43647984D01*
X7003515Y-43828936D02*
X7013039Y-43838460D01*
X7013039Y-43838460D02*
X7003515Y-43847984D01*
X7003515Y-43847984D02*
X6993991Y-43838460D01*
X6993991Y-43838460D02*
X7003515Y-43828936D01*
X7003515Y-43828936D02*
X7003515Y-43847984D01*
X7136848Y-43647984D02*
X7155896Y-43647984D01*
X7155896Y-43647984D02*
X7174944Y-43657508D01*
X7174944Y-43657508D02*
X7184467Y-43667031D01*
X7184467Y-43667031D02*
X7193991Y-43686079D01*
X7193991Y-43686079D02*
X7203515Y-43724174D01*
X7203515Y-43724174D02*
X7203515Y-43771793D01*
X7203515Y-43771793D02*
X7193991Y-43809889D01*
X7193991Y-43809889D02*
X7184467Y-43828936D01*
X7184467Y-43828936D02*
X7174944Y-43838460D01*
X7174944Y-43838460D02*
X7155896Y-43847984D01*
X7155896Y-43847984D02*
X7136848Y-43847984D01*
X7136848Y-43847984D02*
X7117801Y-43838460D01*
X7117801Y-43838460D02*
X7108277Y-43828936D01*
X7108277Y-43828936D02*
X7098753Y-43809889D01*
X7098753Y-43809889D02*
X7089229Y-43771793D01*
X7089229Y-43771793D02*
X7089229Y-43724174D01*
X7089229Y-43724174D02*
X7098753Y-43686079D01*
X7098753Y-43686079D02*
X7108277Y-43667031D01*
X7108277Y-43667031D02*
X7117801Y-43657508D01*
X7117801Y-43657508D02*
X7136848Y-43647984D01*
X7270182Y-43647984D02*
X7393991Y-43647984D01*
X7393991Y-43647984D02*
X7327325Y-43724174D01*
X7327325Y-43724174D02*
X7355896Y-43724174D01*
X7355896Y-43724174D02*
X7374944Y-43733698D01*
X7374944Y-43733698D02*
X7384467Y-43743222D01*
X7384467Y-43743222D02*
X7393991Y-43762270D01*
X7393991Y-43762270D02*
X7393991Y-43809889D01*
X7393991Y-43809889D02*
X7384467Y-43828936D01*
X7384467Y-43828936D02*
X7374944Y-43838460D01*
X7374944Y-43838460D02*
X7355896Y-43847984D01*
X7355896Y-43847984D02*
X7298753Y-43847984D01*
X7298753Y-43847984D02*
X7279706Y-43838460D01*
X7279706Y-43838460D02*
X7270182Y-43828936D01*
X7574944Y-43647984D02*
X7479706Y-43647984D01*
X7479706Y-43647984D02*
X7470182Y-43743222D01*
X7470182Y-43743222D02*
X7479706Y-43733698D01*
X7479706Y-43733698D02*
X7498753Y-43724174D01*
X7498753Y-43724174D02*
X7546372Y-43724174D01*
X7546372Y-43724174D02*
X7565420Y-43733698D01*
X7565420Y-43733698D02*
X7574944Y-43743222D01*
X7574944Y-43743222D02*
X7584467Y-43762270D01*
X7584467Y-43762270D02*
X7584467Y-43809889D01*
X7584467Y-43809889D02*
X7574944Y-43828936D01*
X7574944Y-43828936D02*
X7565420Y-43838460D01*
X7565420Y-43838460D02*
X7546372Y-43847984D01*
X7546372Y-43847984D02*
X7498753Y-43847984D01*
X7498753Y-43847984D02*
X7479706Y-43838460D01*
X7479706Y-43838460D02*
X7470182Y-43828936D01*
X7755896Y-43714650D02*
X7755896Y-43847984D01*
X7708277Y-43638460D02*
X7660658Y-43781317D01*
X7660658Y-43781317D02*
X7784467Y-43781317D01*
X7851134Y-43647984D02*
X7851134Y-43686079D01*
X7927325Y-43647984D02*
X7927325Y-43686079D01*
X8222563Y-43924174D02*
X8213039Y-43914650D01*
X8213039Y-43914650D02*
X8193991Y-43886079D01*
X8193991Y-43886079D02*
X8184468Y-43867031D01*
X8184468Y-43867031D02*
X8174944Y-43838460D01*
X8174944Y-43838460D02*
X8165420Y-43790841D01*
X8165420Y-43790841D02*
X8165420Y-43752746D01*
X8165420Y-43752746D02*
X8174944Y-43705127D01*
X8174944Y-43705127D02*
X8184468Y-43676555D01*
X8184468Y-43676555D02*
X8193991Y-43657508D01*
X8193991Y-43657508D02*
X8213039Y-43628936D01*
X8213039Y-43628936D02*
X8222563Y-43619412D01*
X8327325Y-43733698D02*
X8308277Y-43724174D01*
X8308277Y-43724174D02*
X8298753Y-43714650D01*
X8298753Y-43714650D02*
X8289229Y-43695603D01*
X8289229Y-43695603D02*
X8289229Y-43686079D01*
X8289229Y-43686079D02*
X8298753Y-43667031D01*
X8298753Y-43667031D02*
X8308277Y-43657508D01*
X8308277Y-43657508D02*
X8327325Y-43647984D01*
X8327325Y-43647984D02*
X8365420Y-43647984D01*
X8365420Y-43647984D02*
X8384468Y-43657508D01*
X8384468Y-43657508D02*
X8393991Y-43667031D01*
X8393991Y-43667031D02*
X8403515Y-43686079D01*
X8403515Y-43686079D02*
X8403515Y-43695603D01*
X8403515Y-43695603D02*
X8393991Y-43714650D01*
X8393991Y-43714650D02*
X8384468Y-43724174D01*
X8384468Y-43724174D02*
X8365420Y-43733698D01*
X8365420Y-43733698D02*
X8327325Y-43733698D01*
X8327325Y-43733698D02*
X8308277Y-43743222D01*
X8308277Y-43743222D02*
X8298753Y-43752746D01*
X8298753Y-43752746D02*
X8289229Y-43771793D01*
X8289229Y-43771793D02*
X8289229Y-43809889D01*
X8289229Y-43809889D02*
X8298753Y-43828936D01*
X8298753Y-43828936D02*
X8308277Y-43838460D01*
X8308277Y-43838460D02*
X8327325Y-43847984D01*
X8327325Y-43847984D02*
X8365420Y-43847984D01*
X8365420Y-43847984D02*
X8384468Y-43838460D01*
X8384468Y-43838460D02*
X8393991Y-43828936D01*
X8393991Y-43828936D02*
X8403515Y-43809889D01*
X8403515Y-43809889D02*
X8403515Y-43771793D01*
X8403515Y-43771793D02*
X8393991Y-43752746D01*
X8393991Y-43752746D02*
X8384468Y-43743222D01*
X8384468Y-43743222D02*
X8365420Y-43733698D01*
X8527325Y-43647984D02*
X8546372Y-43647984D01*
X8546372Y-43647984D02*
X8565420Y-43657508D01*
X8565420Y-43657508D02*
X8574944Y-43667031D01*
X8574944Y-43667031D02*
X8584468Y-43686079D01*
X8584468Y-43686079D02*
X8593991Y-43724174D01*
X8593991Y-43724174D02*
X8593991Y-43771793D01*
X8593991Y-43771793D02*
X8584468Y-43809889D01*
X8584468Y-43809889D02*
X8574944Y-43828936D01*
X8574944Y-43828936D02*
X8565420Y-43838460D01*
X8565420Y-43838460D02*
X8546372Y-43847984D01*
X8546372Y-43847984D02*
X8527325Y-43847984D01*
X8527325Y-43847984D02*
X8508277Y-43838460D01*
X8508277Y-43838460D02*
X8498753Y-43828936D01*
X8498753Y-43828936D02*
X8489230Y-43809889D01*
X8489230Y-43809889D02*
X8479706Y-43771793D01*
X8479706Y-43771793D02*
X8479706Y-43724174D01*
X8479706Y-43724174D02*
X8489230Y-43686079D01*
X8489230Y-43686079D02*
X8498753Y-43667031D01*
X8498753Y-43667031D02*
X8508277Y-43657508D01*
X8508277Y-43657508D02*
X8527325Y-43647984D01*
X8832087Y-43847984D02*
X8832087Y-43647984D01*
X8917801Y-43847984D02*
X8917801Y-43743222D01*
X8917801Y-43743222D02*
X8908277Y-43724174D01*
X8908277Y-43724174D02*
X8889230Y-43714650D01*
X8889230Y-43714650D02*
X8860658Y-43714650D01*
X8860658Y-43714650D02*
X8841611Y-43724174D01*
X8841611Y-43724174D02*
X8832087Y-43733698D01*
X9041611Y-43847984D02*
X9022563Y-43838460D01*
X9022563Y-43838460D02*
X9013039Y-43828936D01*
X9013039Y-43828936D02*
X9003515Y-43809889D01*
X9003515Y-43809889D02*
X9003515Y-43752746D01*
X9003515Y-43752746D02*
X9013039Y-43733698D01*
X9013039Y-43733698D02*
X9022563Y-43724174D01*
X9022563Y-43724174D02*
X9041611Y-43714650D01*
X9041611Y-43714650D02*
X9070182Y-43714650D01*
X9070182Y-43714650D02*
X9089230Y-43724174D01*
X9089230Y-43724174D02*
X9098753Y-43733698D01*
X9098753Y-43733698D02*
X9108277Y-43752746D01*
X9108277Y-43752746D02*
X9108277Y-43809889D01*
X9108277Y-43809889D02*
X9098753Y-43828936D01*
X9098753Y-43828936D02*
X9089230Y-43838460D01*
X9089230Y-43838460D02*
X9070182Y-43847984D01*
X9070182Y-43847984D02*
X9041611Y-43847984D01*
X9222563Y-43847984D02*
X9203515Y-43838460D01*
X9203515Y-43838460D02*
X9193992Y-43819412D01*
X9193992Y-43819412D02*
X9193992Y-43647984D01*
X9374944Y-43838460D02*
X9355896Y-43847984D01*
X9355896Y-43847984D02*
X9317801Y-43847984D01*
X9317801Y-43847984D02*
X9298753Y-43838460D01*
X9298753Y-43838460D02*
X9289230Y-43819412D01*
X9289230Y-43819412D02*
X9289230Y-43743222D01*
X9289230Y-43743222D02*
X9298753Y-43724174D01*
X9298753Y-43724174D02*
X9317801Y-43714650D01*
X9317801Y-43714650D02*
X9355896Y-43714650D01*
X9355896Y-43714650D02*
X9374944Y-43724174D01*
X9374944Y-43724174D02*
X9384468Y-43743222D01*
X9384468Y-43743222D02*
X9384468Y-43762270D01*
X9384468Y-43762270D02*
X9289230Y-43781317D01*
X9460658Y-43838460D02*
X9479706Y-43847984D01*
X9479706Y-43847984D02*
X9517801Y-43847984D01*
X9517801Y-43847984D02*
X9536849Y-43838460D01*
X9536849Y-43838460D02*
X9546373Y-43819412D01*
X9546373Y-43819412D02*
X9546373Y-43809889D01*
X9546373Y-43809889D02*
X9536849Y-43790841D01*
X9536849Y-43790841D02*
X9517801Y-43781317D01*
X9517801Y-43781317D02*
X9489230Y-43781317D01*
X9489230Y-43781317D02*
X9470182Y-43771793D01*
X9470182Y-43771793D02*
X9460658Y-43752746D01*
X9460658Y-43752746D02*
X9460658Y-43743222D01*
X9460658Y-43743222D02*
X9470182Y-43724174D01*
X9470182Y-43724174D02*
X9489230Y-43714650D01*
X9489230Y-43714650D02*
X9517801Y-43714650D01*
X9517801Y-43714650D02*
X9536849Y-43724174D01*
X9613039Y-43924174D02*
X9622563Y-43914650D01*
X9622563Y-43914650D02*
X9641611Y-43886079D01*
X9641611Y-43886079D02*
X9651134Y-43867031D01*
X9651134Y-43867031D02*
X9660658Y-43838460D01*
X9660658Y-43838460D02*
X9670182Y-43790841D01*
X9670182Y-43790841D02*
X9670182Y-43752746D01*
X9670182Y-43752746D02*
X9660658Y-43705127D01*
X9660658Y-43705127D02*
X9651134Y-43676555D01*
X9651134Y-43676555D02*
X9641611Y-43657508D01*
X9641611Y-43657508D02*
X9622563Y-43628936D01*
X9622563Y-43628936D02*
X9613039Y-43619412D01*
D12*
X4597500Y-43970500D02*
X4597500Y-44070500D01*
X4547500Y-44020500D02*
X4647500Y-44020500D01*
D11*
X5013039Y-44111984D02*
X4898753Y-44111984D01*
X4955896Y-44111984D02*
X4955896Y-43911984D01*
X4955896Y-43911984D02*
X4936848Y-43940555D01*
X4936848Y-43940555D02*
X4917801Y-43959603D01*
X4917801Y-43959603D02*
X4898753Y-43969127D01*
X5098753Y-44092936D02*
X5108277Y-44102460D01*
X5108277Y-44102460D02*
X5098753Y-44111984D01*
X5098753Y-44111984D02*
X5089229Y-44102460D01*
X5089229Y-44102460D02*
X5098753Y-44092936D01*
X5098753Y-44092936D02*
X5098753Y-44111984D01*
X5232086Y-43911984D02*
X5251134Y-43911984D01*
X5251134Y-43911984D02*
X5270182Y-43921508D01*
X5270182Y-43921508D02*
X5279705Y-43931031D01*
X5279705Y-43931031D02*
X5289229Y-43950079D01*
X5289229Y-43950079D02*
X5298753Y-43988174D01*
X5298753Y-43988174D02*
X5298753Y-44035793D01*
X5298753Y-44035793D02*
X5289229Y-44073889D01*
X5289229Y-44073889D02*
X5279705Y-44092936D01*
X5279705Y-44092936D02*
X5270182Y-44102460D01*
X5270182Y-44102460D02*
X5251134Y-44111984D01*
X5251134Y-44111984D02*
X5232086Y-44111984D01*
X5232086Y-44111984D02*
X5213039Y-44102460D01*
X5213039Y-44102460D02*
X5203515Y-44092936D01*
X5203515Y-44092936D02*
X5193991Y-44073889D01*
X5193991Y-44073889D02*
X5184467Y-44035793D01*
X5184467Y-44035793D02*
X5184467Y-43988174D01*
X5184467Y-43988174D02*
X5193991Y-43950079D01*
X5193991Y-43950079D02*
X5203515Y-43931031D01*
X5203515Y-43931031D02*
X5213039Y-43921508D01*
X5213039Y-43921508D02*
X5232086Y-43911984D01*
X5422563Y-43911984D02*
X5441610Y-43911984D01*
X5441610Y-43911984D02*
X5460658Y-43921508D01*
X5460658Y-43921508D02*
X5470182Y-43931031D01*
X5470182Y-43931031D02*
X5479705Y-43950079D01*
X5479705Y-43950079D02*
X5489229Y-43988174D01*
X5489229Y-43988174D02*
X5489229Y-44035793D01*
X5489229Y-44035793D02*
X5479705Y-44073889D01*
X5479705Y-44073889D02*
X5470182Y-44092936D01*
X5470182Y-44092936D02*
X5460658Y-44102460D01*
X5460658Y-44102460D02*
X5441610Y-44111984D01*
X5441610Y-44111984D02*
X5422563Y-44111984D01*
X5422563Y-44111984D02*
X5403515Y-44102460D01*
X5403515Y-44102460D02*
X5393991Y-44092936D01*
X5393991Y-44092936D02*
X5384467Y-44073889D01*
X5384467Y-44073889D02*
X5374944Y-44035793D01*
X5374944Y-44035793D02*
X5374944Y-43988174D01*
X5374944Y-43988174D02*
X5384467Y-43950079D01*
X5384467Y-43950079D02*
X5393991Y-43931031D01*
X5393991Y-43931031D02*
X5403515Y-43921508D01*
X5403515Y-43921508D02*
X5422563Y-43911984D01*
X5613039Y-43911984D02*
X5632086Y-43911984D01*
X5632086Y-43911984D02*
X5651134Y-43921508D01*
X5651134Y-43921508D02*
X5660658Y-43931031D01*
X5660658Y-43931031D02*
X5670182Y-43950079D01*
X5670182Y-43950079D02*
X5679705Y-43988174D01*
X5679705Y-43988174D02*
X5679705Y-44035793D01*
X5679705Y-44035793D02*
X5670182Y-44073889D01*
X5670182Y-44073889D02*
X5660658Y-44092936D01*
X5660658Y-44092936D02*
X5651134Y-44102460D01*
X5651134Y-44102460D02*
X5632086Y-44111984D01*
X5632086Y-44111984D02*
X5613039Y-44111984D01*
X5613039Y-44111984D02*
X5593991Y-44102460D01*
X5593991Y-44102460D02*
X5584467Y-44092936D01*
X5584467Y-44092936D02*
X5574944Y-44073889D01*
X5574944Y-44073889D02*
X5565420Y-44035793D01*
X5565420Y-44035793D02*
X5565420Y-43988174D01*
X5565420Y-43988174D02*
X5574944Y-43950079D01*
X5574944Y-43950079D02*
X5584467Y-43931031D01*
X5584467Y-43931031D02*
X5593991Y-43921508D01*
X5593991Y-43921508D02*
X5613039Y-43911984D01*
X5765420Y-44111984D02*
X5765420Y-43978650D01*
X5765420Y-43997698D02*
X5774943Y-43988174D01*
X5774943Y-43988174D02*
X5793991Y-43978650D01*
X5793991Y-43978650D02*
X5822563Y-43978650D01*
X5822563Y-43978650D02*
X5841610Y-43988174D01*
X5841610Y-43988174D02*
X5851134Y-44007222D01*
X5851134Y-44007222D02*
X5851134Y-44111984D01*
X5851134Y-44007222D02*
X5860658Y-43988174D01*
X5860658Y-43988174D02*
X5879705Y-43978650D01*
X5879705Y-43978650D02*
X5908277Y-43978650D01*
X5908277Y-43978650D02*
X5927324Y-43988174D01*
X5927324Y-43988174D02*
X5936848Y-44007222D01*
X5936848Y-44007222D02*
X5936848Y-44111984D01*
X6032086Y-44111984D02*
X6032086Y-43978650D01*
X6032086Y-43997698D02*
X6041610Y-43988174D01*
X6041610Y-43988174D02*
X6060658Y-43978650D01*
X6060658Y-43978650D02*
X6089229Y-43978650D01*
X6089229Y-43978650D02*
X6108277Y-43988174D01*
X6108277Y-43988174D02*
X6117801Y-44007222D01*
X6117801Y-44007222D02*
X6117801Y-44111984D01*
X6117801Y-44007222D02*
X6127324Y-43988174D01*
X6127324Y-43988174D02*
X6146372Y-43978650D01*
X6146372Y-43978650D02*
X6174943Y-43978650D01*
X6174943Y-43978650D02*
X6193991Y-43988174D01*
X6193991Y-43988174D02*
X6203515Y-44007222D01*
X6203515Y-44007222D02*
X6203515Y-44111984D01*
X6593991Y-43902460D02*
X6422563Y-44159603D01*
X6851134Y-43911984D02*
X6870182Y-43911984D01*
X6870182Y-43911984D02*
X6889229Y-43921508D01*
X6889229Y-43921508D02*
X6898753Y-43931031D01*
X6898753Y-43931031D02*
X6908277Y-43950079D01*
X6908277Y-43950079D02*
X6917801Y-43988174D01*
X6917801Y-43988174D02*
X6917801Y-44035793D01*
X6917801Y-44035793D02*
X6908277Y-44073889D01*
X6908277Y-44073889D02*
X6898753Y-44092936D01*
X6898753Y-44092936D02*
X6889229Y-44102460D01*
X6889229Y-44102460D02*
X6870182Y-44111984D01*
X6870182Y-44111984D02*
X6851134Y-44111984D01*
X6851134Y-44111984D02*
X6832086Y-44102460D01*
X6832086Y-44102460D02*
X6822563Y-44092936D01*
X6822563Y-44092936D02*
X6813039Y-44073889D01*
X6813039Y-44073889D02*
X6803515Y-44035793D01*
X6803515Y-44035793D02*
X6803515Y-43988174D01*
X6803515Y-43988174D02*
X6813039Y-43950079D01*
X6813039Y-43950079D02*
X6822563Y-43931031D01*
X6822563Y-43931031D02*
X6832086Y-43921508D01*
X6832086Y-43921508D02*
X6851134Y-43911984D01*
X7003515Y-44092936D02*
X7013039Y-44102460D01*
X7013039Y-44102460D02*
X7003515Y-44111984D01*
X7003515Y-44111984D02*
X6993991Y-44102460D01*
X6993991Y-44102460D02*
X7003515Y-44092936D01*
X7003515Y-44092936D02*
X7003515Y-44111984D01*
X7136848Y-43911984D02*
X7155896Y-43911984D01*
X7155896Y-43911984D02*
X7174944Y-43921508D01*
X7174944Y-43921508D02*
X7184467Y-43931031D01*
X7184467Y-43931031D02*
X7193991Y-43950079D01*
X7193991Y-43950079D02*
X7203515Y-43988174D01*
X7203515Y-43988174D02*
X7203515Y-44035793D01*
X7203515Y-44035793D02*
X7193991Y-44073889D01*
X7193991Y-44073889D02*
X7184467Y-44092936D01*
X7184467Y-44092936D02*
X7174944Y-44102460D01*
X7174944Y-44102460D02*
X7155896Y-44111984D01*
X7155896Y-44111984D02*
X7136848Y-44111984D01*
X7136848Y-44111984D02*
X7117801Y-44102460D01*
X7117801Y-44102460D02*
X7108277Y-44092936D01*
X7108277Y-44092936D02*
X7098753Y-44073889D01*
X7098753Y-44073889D02*
X7089229Y-44035793D01*
X7089229Y-44035793D02*
X7089229Y-43988174D01*
X7089229Y-43988174D02*
X7098753Y-43950079D01*
X7098753Y-43950079D02*
X7108277Y-43931031D01*
X7108277Y-43931031D02*
X7117801Y-43921508D01*
X7117801Y-43921508D02*
X7136848Y-43911984D01*
X7270182Y-43911984D02*
X7393991Y-43911984D01*
X7393991Y-43911984D02*
X7327325Y-43988174D01*
X7327325Y-43988174D02*
X7355896Y-43988174D01*
X7355896Y-43988174D02*
X7374944Y-43997698D01*
X7374944Y-43997698D02*
X7384467Y-44007222D01*
X7384467Y-44007222D02*
X7393991Y-44026270D01*
X7393991Y-44026270D02*
X7393991Y-44073889D01*
X7393991Y-44073889D02*
X7384467Y-44092936D01*
X7384467Y-44092936D02*
X7374944Y-44102460D01*
X7374944Y-44102460D02*
X7355896Y-44111984D01*
X7355896Y-44111984D02*
X7298753Y-44111984D01*
X7298753Y-44111984D02*
X7279706Y-44102460D01*
X7279706Y-44102460D02*
X7270182Y-44092936D01*
X7489229Y-44111984D02*
X7527325Y-44111984D01*
X7527325Y-44111984D02*
X7546372Y-44102460D01*
X7546372Y-44102460D02*
X7555896Y-44092936D01*
X7555896Y-44092936D02*
X7574944Y-44064365D01*
X7574944Y-44064365D02*
X7584467Y-44026270D01*
X7584467Y-44026270D02*
X7584467Y-43950079D01*
X7584467Y-43950079D02*
X7574944Y-43931031D01*
X7574944Y-43931031D02*
X7565420Y-43921508D01*
X7565420Y-43921508D02*
X7546372Y-43911984D01*
X7546372Y-43911984D02*
X7508277Y-43911984D01*
X7508277Y-43911984D02*
X7489229Y-43921508D01*
X7489229Y-43921508D02*
X7479706Y-43931031D01*
X7479706Y-43931031D02*
X7470182Y-43950079D01*
X7470182Y-43950079D02*
X7470182Y-43997698D01*
X7470182Y-43997698D02*
X7479706Y-44016746D01*
X7479706Y-44016746D02*
X7489229Y-44026270D01*
X7489229Y-44026270D02*
X7508277Y-44035793D01*
X7508277Y-44035793D02*
X7546372Y-44035793D01*
X7546372Y-44035793D02*
X7565420Y-44026270D01*
X7565420Y-44026270D02*
X7574944Y-44016746D01*
X7574944Y-44016746D02*
X7584467Y-43997698D01*
X7755896Y-43978650D02*
X7755896Y-44111984D01*
X7708277Y-43902460D02*
X7660658Y-44045317D01*
X7660658Y-44045317D02*
X7784467Y-44045317D01*
X7851134Y-43911984D02*
X7851134Y-43950079D01*
X7927325Y-43911984D02*
X7927325Y-43950079D01*
X8222563Y-44188174D02*
X8213039Y-44178650D01*
X8213039Y-44178650D02*
X8193991Y-44150079D01*
X8193991Y-44150079D02*
X8184468Y-44131031D01*
X8184468Y-44131031D02*
X8174944Y-44102460D01*
X8174944Y-44102460D02*
X8165420Y-44054841D01*
X8165420Y-44054841D02*
X8165420Y-44016746D01*
X8165420Y-44016746D02*
X8174944Y-43969127D01*
X8174944Y-43969127D02*
X8184468Y-43940555D01*
X8184468Y-43940555D02*
X8193991Y-43921508D01*
X8193991Y-43921508D02*
X8213039Y-43892936D01*
X8213039Y-43892936D02*
X8222563Y-43883412D01*
X8384468Y-43978650D02*
X8384468Y-44111984D01*
X8336848Y-43902460D02*
X8289229Y-44045317D01*
X8289229Y-44045317D02*
X8413039Y-44045317D01*
X8527325Y-43911984D02*
X8546372Y-43911984D01*
X8546372Y-43911984D02*
X8565420Y-43921508D01*
X8565420Y-43921508D02*
X8574944Y-43931031D01*
X8574944Y-43931031D02*
X8584468Y-43950079D01*
X8584468Y-43950079D02*
X8593991Y-43988174D01*
X8593991Y-43988174D02*
X8593991Y-44035793D01*
X8593991Y-44035793D02*
X8584468Y-44073889D01*
X8584468Y-44073889D02*
X8574944Y-44092936D01*
X8574944Y-44092936D02*
X8565420Y-44102460D01*
X8565420Y-44102460D02*
X8546372Y-44111984D01*
X8546372Y-44111984D02*
X8527325Y-44111984D01*
X8527325Y-44111984D02*
X8508277Y-44102460D01*
X8508277Y-44102460D02*
X8498753Y-44092936D01*
X8498753Y-44092936D02*
X8489230Y-44073889D01*
X8489230Y-44073889D02*
X8479706Y-44035793D01*
X8479706Y-44035793D02*
X8479706Y-43988174D01*
X8479706Y-43988174D02*
X8489230Y-43950079D01*
X8489230Y-43950079D02*
X8498753Y-43931031D01*
X8498753Y-43931031D02*
X8508277Y-43921508D01*
X8508277Y-43921508D02*
X8527325Y-43911984D01*
X8832087Y-44111984D02*
X8832087Y-43911984D01*
X8917801Y-44111984D02*
X8917801Y-44007222D01*
X8917801Y-44007222D02*
X8908277Y-43988174D01*
X8908277Y-43988174D02*
X8889230Y-43978650D01*
X8889230Y-43978650D02*
X8860658Y-43978650D01*
X8860658Y-43978650D02*
X8841611Y-43988174D01*
X8841611Y-43988174D02*
X8832087Y-43997698D01*
X9041611Y-44111984D02*
X9022563Y-44102460D01*
X9022563Y-44102460D02*
X9013039Y-44092936D01*
X9013039Y-44092936D02*
X9003515Y-44073889D01*
X9003515Y-44073889D02*
X9003515Y-44016746D01*
X9003515Y-44016746D02*
X9013039Y-43997698D01*
X9013039Y-43997698D02*
X9022563Y-43988174D01*
X9022563Y-43988174D02*
X9041611Y-43978650D01*
X9041611Y-43978650D02*
X9070182Y-43978650D01*
X9070182Y-43978650D02*
X9089230Y-43988174D01*
X9089230Y-43988174D02*
X9098753Y-43997698D01*
X9098753Y-43997698D02*
X9108277Y-44016746D01*
X9108277Y-44016746D02*
X9108277Y-44073889D01*
X9108277Y-44073889D02*
X9098753Y-44092936D01*
X9098753Y-44092936D02*
X9089230Y-44102460D01*
X9089230Y-44102460D02*
X9070182Y-44111984D01*
X9070182Y-44111984D02*
X9041611Y-44111984D01*
X9222563Y-44111984D02*
X9203515Y-44102460D01*
X9203515Y-44102460D02*
X9193992Y-44083412D01*
X9193992Y-44083412D02*
X9193992Y-43911984D01*
X9374944Y-44102460D02*
X9355896Y-44111984D01*
X9355896Y-44111984D02*
X9317801Y-44111984D01*
X9317801Y-44111984D02*
X9298753Y-44102460D01*
X9298753Y-44102460D02*
X9289230Y-44083412D01*
X9289230Y-44083412D02*
X9289230Y-44007222D01*
X9289230Y-44007222D02*
X9298753Y-43988174D01*
X9298753Y-43988174D02*
X9317801Y-43978650D01*
X9317801Y-43978650D02*
X9355896Y-43978650D01*
X9355896Y-43978650D02*
X9374944Y-43988174D01*
X9374944Y-43988174D02*
X9384468Y-44007222D01*
X9384468Y-44007222D02*
X9384468Y-44026270D01*
X9384468Y-44026270D02*
X9289230Y-44045317D01*
X9460658Y-44102460D02*
X9479706Y-44111984D01*
X9479706Y-44111984D02*
X9517801Y-44111984D01*
X9517801Y-44111984D02*
X9536849Y-44102460D01*
X9536849Y-44102460D02*
X9546373Y-44083412D01*
X9546373Y-44083412D02*
X9546373Y-44073889D01*
X9546373Y-44073889D02*
X9536849Y-44054841D01*
X9536849Y-44054841D02*
X9517801Y-44045317D01*
X9517801Y-44045317D02*
X9489230Y-44045317D01*
X9489230Y-44045317D02*
X9470182Y-44035793D01*
X9470182Y-44035793D02*
X9460658Y-44016746D01*
X9460658Y-44016746D02*
X9460658Y-44007222D01*
X9460658Y-44007222D02*
X9470182Y-43988174D01*
X9470182Y-43988174D02*
X9489230Y-43978650D01*
X9489230Y-43978650D02*
X9517801Y-43978650D01*
X9517801Y-43978650D02*
X9536849Y-43988174D01*
X9613039Y-44188174D02*
X9622563Y-44178650D01*
X9622563Y-44178650D02*
X9641611Y-44150079D01*
X9641611Y-44150079D02*
X9651134Y-44131031D01*
X9651134Y-44131031D02*
X9660658Y-44102460D01*
X9660658Y-44102460D02*
X9670182Y-44054841D01*
X9670182Y-44054841D02*
X9670182Y-44016746D01*
X9670182Y-44016746D02*
X9660658Y-43969127D01*
X9660658Y-43969127D02*
X9651134Y-43940555D01*
X9651134Y-43940555D02*
X9641611Y-43921508D01*
X9641611Y-43921508D02*
X9622563Y-43892936D01*
X9622563Y-43892936D02*
X9613039Y-43883412D01*
D13*
X4629927Y-44326927D02*
X4629927Y-44242073D01*
X4545073Y-44242073D01*
X4545073Y-44326927D01*
X4629927Y-44326927D01*
D11*
X5013039Y-44375984D02*
X4898753Y-44375984D01*
X4955896Y-44375984D02*
X4955896Y-44175984D01*
X4955896Y-44175984D02*
X4936848Y-44204555D01*
X4936848Y-44204555D02*
X4917801Y-44223603D01*
X4917801Y-44223603D02*
X4898753Y-44233127D01*
X5098753Y-44356936D02*
X5108277Y-44366460D01*
X5108277Y-44366460D02*
X5098753Y-44375984D01*
X5098753Y-44375984D02*
X5089229Y-44366460D01*
X5089229Y-44366460D02*
X5098753Y-44356936D01*
X5098753Y-44356936D02*
X5098753Y-44375984D01*
X5184467Y-44195031D02*
X5193991Y-44185508D01*
X5193991Y-44185508D02*
X5213039Y-44175984D01*
X5213039Y-44175984D02*
X5260658Y-44175984D01*
X5260658Y-44175984D02*
X5279705Y-44185508D01*
X5279705Y-44185508D02*
X5289229Y-44195031D01*
X5289229Y-44195031D02*
X5298753Y-44214079D01*
X5298753Y-44214079D02*
X5298753Y-44233127D01*
X5298753Y-44233127D02*
X5289229Y-44261698D01*
X5289229Y-44261698D02*
X5174944Y-44375984D01*
X5174944Y-44375984D02*
X5298753Y-44375984D01*
X5422563Y-44175984D02*
X5441610Y-44175984D01*
X5441610Y-44175984D02*
X5460658Y-44185508D01*
X5460658Y-44185508D02*
X5470182Y-44195031D01*
X5470182Y-44195031D02*
X5479705Y-44214079D01*
X5479705Y-44214079D02*
X5489229Y-44252174D01*
X5489229Y-44252174D02*
X5489229Y-44299793D01*
X5489229Y-44299793D02*
X5479705Y-44337889D01*
X5479705Y-44337889D02*
X5470182Y-44356936D01*
X5470182Y-44356936D02*
X5460658Y-44366460D01*
X5460658Y-44366460D02*
X5441610Y-44375984D01*
X5441610Y-44375984D02*
X5422563Y-44375984D01*
X5422563Y-44375984D02*
X5403515Y-44366460D01*
X5403515Y-44366460D02*
X5393991Y-44356936D01*
X5393991Y-44356936D02*
X5384467Y-44337889D01*
X5384467Y-44337889D02*
X5374944Y-44299793D01*
X5374944Y-44299793D02*
X5374944Y-44252174D01*
X5374944Y-44252174D02*
X5384467Y-44214079D01*
X5384467Y-44214079D02*
X5393991Y-44195031D01*
X5393991Y-44195031D02*
X5403515Y-44185508D01*
X5403515Y-44185508D02*
X5422563Y-44175984D01*
X5613039Y-44175984D02*
X5632086Y-44175984D01*
X5632086Y-44175984D02*
X5651134Y-44185508D01*
X5651134Y-44185508D02*
X5660658Y-44195031D01*
X5660658Y-44195031D02*
X5670182Y-44214079D01*
X5670182Y-44214079D02*
X5679705Y-44252174D01*
X5679705Y-44252174D02*
X5679705Y-44299793D01*
X5679705Y-44299793D02*
X5670182Y-44337889D01*
X5670182Y-44337889D02*
X5660658Y-44356936D01*
X5660658Y-44356936D02*
X5651134Y-44366460D01*
X5651134Y-44366460D02*
X5632086Y-44375984D01*
X5632086Y-44375984D02*
X5613039Y-44375984D01*
X5613039Y-44375984D02*
X5593991Y-44366460D01*
X5593991Y-44366460D02*
X5584467Y-44356936D01*
X5584467Y-44356936D02*
X5574944Y-44337889D01*
X5574944Y-44337889D02*
X5565420Y-44299793D01*
X5565420Y-44299793D02*
X5565420Y-44252174D01*
X5565420Y-44252174D02*
X5574944Y-44214079D01*
X5574944Y-44214079D02*
X5584467Y-44195031D01*
X5584467Y-44195031D02*
X5593991Y-44185508D01*
X5593991Y-44185508D02*
X5613039Y-44175984D01*
X5765420Y-44375984D02*
X5765420Y-44242650D01*
X5765420Y-44261698D02*
X5774943Y-44252174D01*
X5774943Y-44252174D02*
X5793991Y-44242650D01*
X5793991Y-44242650D02*
X5822563Y-44242650D01*
X5822563Y-44242650D02*
X5841610Y-44252174D01*
X5841610Y-44252174D02*
X5851134Y-44271222D01*
X5851134Y-44271222D02*
X5851134Y-44375984D01*
X5851134Y-44271222D02*
X5860658Y-44252174D01*
X5860658Y-44252174D02*
X5879705Y-44242650D01*
X5879705Y-44242650D02*
X5908277Y-44242650D01*
X5908277Y-44242650D02*
X5927324Y-44252174D01*
X5927324Y-44252174D02*
X5936848Y-44271222D01*
X5936848Y-44271222D02*
X5936848Y-44375984D01*
X6032086Y-44375984D02*
X6032086Y-44242650D01*
X6032086Y-44261698D02*
X6041610Y-44252174D01*
X6041610Y-44252174D02*
X6060658Y-44242650D01*
X6060658Y-44242650D02*
X6089229Y-44242650D01*
X6089229Y-44242650D02*
X6108277Y-44252174D01*
X6108277Y-44252174D02*
X6117801Y-44271222D01*
X6117801Y-44271222D02*
X6117801Y-44375984D01*
X6117801Y-44271222D02*
X6127324Y-44252174D01*
X6127324Y-44252174D02*
X6146372Y-44242650D01*
X6146372Y-44242650D02*
X6174943Y-44242650D01*
X6174943Y-44242650D02*
X6193991Y-44252174D01*
X6193991Y-44252174D02*
X6203515Y-44271222D01*
X6203515Y-44271222D02*
X6203515Y-44375984D01*
X6593991Y-44166460D02*
X6422563Y-44423603D01*
X6851134Y-44175984D02*
X6870182Y-44175984D01*
X6870182Y-44175984D02*
X6889229Y-44185508D01*
X6889229Y-44185508D02*
X6898753Y-44195031D01*
X6898753Y-44195031D02*
X6908277Y-44214079D01*
X6908277Y-44214079D02*
X6917801Y-44252174D01*
X6917801Y-44252174D02*
X6917801Y-44299793D01*
X6917801Y-44299793D02*
X6908277Y-44337889D01*
X6908277Y-44337889D02*
X6898753Y-44356936D01*
X6898753Y-44356936D02*
X6889229Y-44366460D01*
X6889229Y-44366460D02*
X6870182Y-44375984D01*
X6870182Y-44375984D02*
X6851134Y-44375984D01*
X6851134Y-44375984D02*
X6832086Y-44366460D01*
X6832086Y-44366460D02*
X6822563Y-44356936D01*
X6822563Y-44356936D02*
X6813039Y-44337889D01*
X6813039Y-44337889D02*
X6803515Y-44299793D01*
X6803515Y-44299793D02*
X6803515Y-44252174D01*
X6803515Y-44252174D02*
X6813039Y-44214079D01*
X6813039Y-44214079D02*
X6822563Y-44195031D01*
X6822563Y-44195031D02*
X6832086Y-44185508D01*
X6832086Y-44185508D02*
X6851134Y-44175984D01*
X7003515Y-44356936D02*
X7013039Y-44366460D01*
X7013039Y-44366460D02*
X7003515Y-44375984D01*
X7003515Y-44375984D02*
X6993991Y-44366460D01*
X6993991Y-44366460D02*
X7003515Y-44356936D01*
X7003515Y-44356936D02*
X7003515Y-44375984D01*
X7136848Y-44175984D02*
X7155896Y-44175984D01*
X7155896Y-44175984D02*
X7174944Y-44185508D01*
X7174944Y-44185508D02*
X7184467Y-44195031D01*
X7184467Y-44195031D02*
X7193991Y-44214079D01*
X7193991Y-44214079D02*
X7203515Y-44252174D01*
X7203515Y-44252174D02*
X7203515Y-44299793D01*
X7203515Y-44299793D02*
X7193991Y-44337889D01*
X7193991Y-44337889D02*
X7184467Y-44356936D01*
X7184467Y-44356936D02*
X7174944Y-44366460D01*
X7174944Y-44366460D02*
X7155896Y-44375984D01*
X7155896Y-44375984D02*
X7136848Y-44375984D01*
X7136848Y-44375984D02*
X7117801Y-44366460D01*
X7117801Y-44366460D02*
X7108277Y-44356936D01*
X7108277Y-44356936D02*
X7098753Y-44337889D01*
X7098753Y-44337889D02*
X7089229Y-44299793D01*
X7089229Y-44299793D02*
X7089229Y-44252174D01*
X7089229Y-44252174D02*
X7098753Y-44214079D01*
X7098753Y-44214079D02*
X7108277Y-44195031D01*
X7108277Y-44195031D02*
X7117801Y-44185508D01*
X7117801Y-44185508D02*
X7136848Y-44175984D01*
X7374944Y-44242650D02*
X7374944Y-44375984D01*
X7327325Y-44166460D02*
X7279706Y-44309317D01*
X7279706Y-44309317D02*
X7403515Y-44309317D01*
X7460658Y-44175984D02*
X7593991Y-44175984D01*
X7593991Y-44175984D02*
X7508277Y-44375984D01*
X7660658Y-44195031D02*
X7670182Y-44185508D01*
X7670182Y-44185508D02*
X7689229Y-44175984D01*
X7689229Y-44175984D02*
X7736848Y-44175984D01*
X7736848Y-44175984D02*
X7755896Y-44185508D01*
X7755896Y-44185508D02*
X7765420Y-44195031D01*
X7765420Y-44195031D02*
X7774944Y-44214079D01*
X7774944Y-44214079D02*
X7774944Y-44233127D01*
X7774944Y-44233127D02*
X7765420Y-44261698D01*
X7765420Y-44261698D02*
X7651134Y-44375984D01*
X7651134Y-44375984D02*
X7774944Y-44375984D01*
X7851134Y-44175984D02*
X7851134Y-44214079D01*
X7927325Y-44175984D02*
X7927325Y-44214079D01*
X8222563Y-44452174D02*
X8213039Y-44442650D01*
X8213039Y-44442650D02*
X8193991Y-44414079D01*
X8193991Y-44414079D02*
X8184468Y-44395031D01*
X8184468Y-44395031D02*
X8174944Y-44366460D01*
X8174944Y-44366460D02*
X8165420Y-44318841D01*
X8165420Y-44318841D02*
X8165420Y-44280746D01*
X8165420Y-44280746D02*
X8174944Y-44233127D01*
X8174944Y-44233127D02*
X8184468Y-44204555D01*
X8184468Y-44204555D02*
X8193991Y-44185508D01*
X8193991Y-44185508D02*
X8213039Y-44156936D01*
X8213039Y-44156936D02*
X8222563Y-44147412D01*
X8384468Y-44242650D02*
X8384468Y-44375984D01*
X8336848Y-44166460D02*
X8289229Y-44309317D01*
X8289229Y-44309317D02*
X8413039Y-44309317D01*
X8527325Y-44175984D02*
X8546372Y-44175984D01*
X8546372Y-44175984D02*
X8565420Y-44185508D01*
X8565420Y-44185508D02*
X8574944Y-44195031D01*
X8574944Y-44195031D02*
X8584468Y-44214079D01*
X8584468Y-44214079D02*
X8593991Y-44252174D01*
X8593991Y-44252174D02*
X8593991Y-44299793D01*
X8593991Y-44299793D02*
X8584468Y-44337889D01*
X8584468Y-44337889D02*
X8574944Y-44356936D01*
X8574944Y-44356936D02*
X8565420Y-44366460D01*
X8565420Y-44366460D02*
X8546372Y-44375984D01*
X8546372Y-44375984D02*
X8527325Y-44375984D01*
X8527325Y-44375984D02*
X8508277Y-44366460D01*
X8508277Y-44366460D02*
X8498753Y-44356936D01*
X8498753Y-44356936D02*
X8489230Y-44337889D01*
X8489230Y-44337889D02*
X8479706Y-44299793D01*
X8479706Y-44299793D02*
X8479706Y-44252174D01*
X8479706Y-44252174D02*
X8489230Y-44214079D01*
X8489230Y-44214079D02*
X8498753Y-44195031D01*
X8498753Y-44195031D02*
X8508277Y-44185508D01*
X8508277Y-44185508D02*
X8527325Y-44175984D01*
X8832087Y-44375984D02*
X8832087Y-44175984D01*
X8917801Y-44375984D02*
X8917801Y-44271222D01*
X8917801Y-44271222D02*
X8908277Y-44252174D01*
X8908277Y-44252174D02*
X8889230Y-44242650D01*
X8889230Y-44242650D02*
X8860658Y-44242650D01*
X8860658Y-44242650D02*
X8841611Y-44252174D01*
X8841611Y-44252174D02*
X8832087Y-44261698D01*
X9041611Y-44375984D02*
X9022563Y-44366460D01*
X9022563Y-44366460D02*
X9013039Y-44356936D01*
X9013039Y-44356936D02*
X9003515Y-44337889D01*
X9003515Y-44337889D02*
X9003515Y-44280746D01*
X9003515Y-44280746D02*
X9013039Y-44261698D01*
X9013039Y-44261698D02*
X9022563Y-44252174D01*
X9022563Y-44252174D02*
X9041611Y-44242650D01*
X9041611Y-44242650D02*
X9070182Y-44242650D01*
X9070182Y-44242650D02*
X9089230Y-44252174D01*
X9089230Y-44252174D02*
X9098753Y-44261698D01*
X9098753Y-44261698D02*
X9108277Y-44280746D01*
X9108277Y-44280746D02*
X9108277Y-44337889D01*
X9108277Y-44337889D02*
X9098753Y-44356936D01*
X9098753Y-44356936D02*
X9089230Y-44366460D01*
X9089230Y-44366460D02*
X9070182Y-44375984D01*
X9070182Y-44375984D02*
X9041611Y-44375984D01*
X9222563Y-44375984D02*
X9203515Y-44366460D01*
X9203515Y-44366460D02*
X9193992Y-44347412D01*
X9193992Y-44347412D02*
X9193992Y-44175984D01*
X9374944Y-44366460D02*
X9355896Y-44375984D01*
X9355896Y-44375984D02*
X9317801Y-44375984D01*
X9317801Y-44375984D02*
X9298753Y-44366460D01*
X9298753Y-44366460D02*
X9289230Y-44347412D01*
X9289230Y-44347412D02*
X9289230Y-44271222D01*
X9289230Y-44271222D02*
X9298753Y-44252174D01*
X9298753Y-44252174D02*
X9317801Y-44242650D01*
X9317801Y-44242650D02*
X9355896Y-44242650D01*
X9355896Y-44242650D02*
X9374944Y-44252174D01*
X9374944Y-44252174D02*
X9384468Y-44271222D01*
X9384468Y-44271222D02*
X9384468Y-44290270D01*
X9384468Y-44290270D02*
X9289230Y-44309317D01*
X9460658Y-44366460D02*
X9479706Y-44375984D01*
X9479706Y-44375984D02*
X9517801Y-44375984D01*
X9517801Y-44375984D02*
X9536849Y-44366460D01*
X9536849Y-44366460D02*
X9546373Y-44347412D01*
X9546373Y-44347412D02*
X9546373Y-44337889D01*
X9546373Y-44337889D02*
X9536849Y-44318841D01*
X9536849Y-44318841D02*
X9517801Y-44309317D01*
X9517801Y-44309317D02*
X9489230Y-44309317D01*
X9489230Y-44309317D02*
X9470182Y-44299793D01*
X9470182Y-44299793D02*
X9460658Y-44280746D01*
X9460658Y-44280746D02*
X9460658Y-44271222D01*
X9460658Y-44271222D02*
X9470182Y-44252174D01*
X9470182Y-44252174D02*
X9489230Y-44242650D01*
X9489230Y-44242650D02*
X9517801Y-44242650D01*
X9517801Y-44242650D02*
X9536849Y-44252174D01*
X9613039Y-44452174D02*
X9622563Y-44442650D01*
X9622563Y-44442650D02*
X9641611Y-44414079D01*
X9641611Y-44414079D02*
X9651134Y-44395031D01*
X9651134Y-44395031D02*
X9660658Y-44366460D01*
X9660658Y-44366460D02*
X9670182Y-44318841D01*
X9670182Y-44318841D02*
X9670182Y-44280746D01*
X9670182Y-44280746D02*
X9660658Y-44233127D01*
X9660658Y-44233127D02*
X9651134Y-44204555D01*
X9651134Y-44204555D02*
X9641611Y-44185508D01*
X9641611Y-44185508D02*
X9622563Y-44156936D01*
X9622563Y-44156936D02*
X9613039Y-44147412D01*
M02*
