M48
; DRILL file {KiCad 9.0.2} date 2025-06-22T14:38:35+0100
; FORMAT={-:-/ absolute / metric / decimal}
; #@! TF.CreationDate,2025-06-22T14:38:35+01:00
; #@! TF.GenerationSoftware,Kicad,Pcbnew,9.0.2
; #@! TF.FileFunction,Plated,1,2,PTH
FMAT,2
METRIC
; #@! TA.AperFunction,Plated,PTH,ViaDrill
T1C0.300
; #@! TA.AperFunction,Plated,PTH,ComponentDrill
T2C1.500
%
G90
G05
T1
X28.5Y-70.075
X28.5Y-89.075
X28.5Y-108.075
X28.5Y-127.075
X29.5Y-73.675
X29.5Y-92.675
X29.5Y-111.675
X29.5Y-130.675
X31.5Y-71.75
X31.5Y-105.549
X32.25Y-86.0
X32.25Y-109.25
X33.0Y-86.75
X33.0Y-128.75
X33.6Y-102.075
X33.6Y-118.75
X34.25Y-85.25
X34.25Y-90.5
X57.35Y-104.0
X57.35Y-118.7
X76.35Y-104.147
X80.75Y-118.7
X90.6Y-84.9
X97.799Y-117.276
X99.75Y-108.075
X108.25Y-84.9
X109.0Y-84.0
X114.0Y-106.75
X115.0Y-106.75
X116.0Y-103.0
X116.0Y-106.75
X117.0Y-106.75
X125.75Y-98.276
X125.75Y-104.5
X128.62Y-136.75
X133.75Y-141.21
X133.95Y-122.0
X134.75Y-107.0
X135.75Y-107.0
X136.75Y-107.0
X137.75Y-107.0
X139.025Y-108.075
X139.025Y-123.5
X152.35Y-103.75
X153.0Y-117.276
X153.0Y-123.5
X153.0Y-136.276
X171.35Y-103.75
X190.35Y-103.75
X209.35Y-105.5
X218.5Y-84.0
X218.5Y-122.0
X219.25Y-109.575
X226.175Y-90.575
X232.5Y-84.25
X234.025Y-110.0
X234.25Y-83.5
X236.25Y-108.075
X238.775Y-79.276
X238.775Y-90.975
X238.775Y-95.25
X240.225Y-80.7
X241.0Y-84.25
X241.0Y-89.075
X241.649Y-83.5
X245.25Y-109.575
X249.25Y-87.25
X249.725Y-142.0
X250.25Y-87.25
X250.25Y-90.575
X258.75Y-71.575
X258.75Y-83.0
X262.75Y-79.276
X262.75Y-136.276
X263.75Y-70.075
X263.75Y-87.25
X263.75Y-106.25
X263.75Y-127.075
T2
X33.6Y-80.7
X33.6Y-137.7
X35.975Y-99.7
X40.6Y-81.75
X40.6Y-138.75
X40.725Y-118.7
X42.975Y-100.75
X47.725Y-119.75
X52.6Y-80.7
X52.6Y-137.7
X57.35Y-99.7
X59.6Y-81.75
X59.6Y-138.75
X64.35Y-100.75
X66.85Y-118.7
X71.6Y-80.7
X71.6Y-137.7
X73.85Y-119.75
X76.35Y-99.7
X78.6Y-81.75
X78.6Y-138.75
X83.35Y-100.75
X85.85Y-118.7
X90.6Y-80.7
X92.85Y-119.75
X95.35Y-99.7
X97.6Y-81.75
X102.35Y-100.75
X104.85Y-118.7
X109.6Y-80.7
X111.85Y-119.75
X114.35Y-99.7
X116.6Y-81.75
X121.35Y-100.75
X123.85Y-118.7
X128.6Y-80.7
X130.85Y-119.75
X133.35Y-99.7
X135.6Y-81.75
X140.35Y-100.75
X140.475Y-137.7
X142.85Y-118.7
X147.475Y-138.75
X147.6Y-80.7
X149.85Y-119.75
X152.35Y-99.7
X154.6Y-81.75
X159.35Y-100.75
X161.85Y-118.7
X166.6Y-80.7
X168.85Y-119.75
X171.35Y-99.7
X173.6Y-81.75
X178.35Y-100.75
X180.85Y-118.7
X185.6Y-80.7
X187.85Y-119.75
X190.35Y-99.7
X192.6Y-81.75
X197.35Y-100.75
X199.85Y-118.7
X204.6Y-80.7
X206.85Y-119.75
X209.35Y-99.7
X209.35Y-137.7
X211.6Y-81.75
X216.35Y-100.75
X216.35Y-138.75
X223.6Y-80.7
X228.35Y-137.7
X230.6Y-81.75
X235.35Y-138.75
X235.475Y-118.7
X240.225Y-99.7
X242.475Y-119.75
X247.225Y-100.75
X247.35Y-80.7
X249.725Y-137.7
X254.35Y-81.75
X256.725Y-138.75
M30
