%TF.GenerationSoftware,KiCad,Pcbnew,9.0.2*%
%TF.CreationDate,2025-06-22T14:38:35+01:00*%
%TF.ProjectId,just-40-top,6a757374-2d34-4302-9d74-6f702e6b6963,rev?*%
%TF.SameCoordinates,Original*%
%TF.FileFunction,Drillmap*%
%TF.FilePolarity,Positive*%
%FSLAX45Y45*%
G04 Gerber Fmt 4.5, Leading zero omitted, Abs format (unit mm)*
G04 Created by KiCad (PCBNEW 9.0.2) date 2025-06-22 14:38:35*
%MOMM*%
%LPD*%
G01*
G04 APERTURE LIST*
%ADD10C,0.050000*%
%ADD11C,0.200000*%
%ADD12C,0.525000*%
G04 APERTURE END LIST*
D10*
X26600000Y-6550000D02*
G75*
G02*
X26700000Y-6650000I0J-100000D01*
G01*
X26700000Y-14250000D02*
G75*
G02*
X26600000Y-14350000I-100000J0D01*
G01*
X2850000Y-14350000D02*
G75*
G02*
X2750000Y-14250000I0J100000D01*
G01*
X26600000Y-6550000D02*
X2850000Y-6550000D01*
X2750000Y-6650000D02*
G75*
G02*
X2850000Y-6550000I100000J0D01*
G01*
X26600000Y-14350000D02*
X2850000Y-14350000D01*
X26700000Y-6650000D02*
X26700000Y-14250000D01*
X2750000Y-14250000D02*
X2750000Y-6650000D01*
X18910000Y-6972500D02*
X18910000Y-7192500D01*
X18960000Y-6922500D02*
X19180000Y-6922500D01*
X19180000Y-7242500D02*
X18960000Y-7242500D01*
X19230000Y-6972500D02*
X19230000Y-7192500D01*
X18910000Y-6972500D02*
G75*
G02*
X18960000Y-6922500I50000J0D01*
G01*
X18960000Y-7242500D02*
G75*
G02*
X18910000Y-7192500I0J50000D01*
G01*
X19180000Y-6922500D02*
G75*
G02*
X19230000Y-6972500I0J-50000D01*
G01*
X19230000Y-7192500D02*
G75*
G02*
X19180000Y-7242500I-50000J0D01*
G01*
X19385000Y-8872500D02*
X19385000Y-9092500D01*
X19435000Y-8822500D02*
X19655000Y-8822500D01*
X19655000Y-9142500D02*
X19435000Y-9142500D01*
X19705000Y-8872500D02*
X19705000Y-9092500D01*
X19385000Y-8872500D02*
G75*
G02*
X19435000Y-8822500I50000J0D01*
G01*
X19435000Y-9142500D02*
G75*
G02*
X19385000Y-9092500I0J50000D01*
G01*
X19655000Y-8822500D02*
G75*
G02*
X19705000Y-8872500I0J-50000D01*
G01*
X19705000Y-9092500D02*
G75*
G02*
X19655000Y-9142500I-50000J0D01*
G01*
X21285000Y-8872500D02*
X21285000Y-9092500D01*
X21335000Y-8822500D02*
X21555000Y-8822500D01*
X21555000Y-9142500D02*
X21335000Y-9142500D01*
X21605000Y-8872500D02*
X21605000Y-9092500D01*
X21285000Y-8872500D02*
G75*
G02*
X21335000Y-8822500I50000J0D01*
G01*
X21335000Y-9142500D02*
G75*
G02*
X21285000Y-9092500I0J50000D01*
G01*
X21555000Y-8822500D02*
G75*
G02*
X21605000Y-8872500I0J-50000D01*
G01*
X21605000Y-9092500D02*
G75*
G02*
X21555000Y-9142500I-50000J0D01*
G01*
X11785000Y-8872500D02*
X11785000Y-9092500D01*
X11835000Y-8822500D02*
X12055000Y-8822500D01*
X12055000Y-9142500D02*
X11835000Y-9142500D01*
X12105000Y-8872500D02*
X12105000Y-9092500D01*
X11785000Y-8872500D02*
G75*
G02*
X11835000Y-8822500I50000J0D01*
G01*
X11835000Y-9142500D02*
G75*
G02*
X11785000Y-9092500I0J50000D01*
G01*
X12055000Y-8822500D02*
G75*
G02*
X12105000Y-8872500I0J-50000D01*
G01*
X12105000Y-9092500D02*
G75*
G02*
X12055000Y-9142500I-50000J0D01*
G01*
X7510000Y-12672500D02*
X7510000Y-12892500D01*
X7560000Y-12622500D02*
X7780000Y-12622500D01*
X7780000Y-12942500D02*
X7560000Y-12942500D01*
X7830000Y-12672500D02*
X7830000Y-12892500D01*
X7510000Y-12672500D02*
G75*
G02*
X7560000Y-12622500I50000J0D01*
G01*
X7560000Y-12942500D02*
G75*
G02*
X7510000Y-12892500I0J50000D01*
G01*
X7780000Y-12622500D02*
G75*
G02*
X7830000Y-12672500I0J-50000D01*
G01*
X7830000Y-12892500D02*
G75*
G02*
X7780000Y-12942500I-50000J0D01*
G01*
X13685000Y-8872500D02*
X13685000Y-9092500D01*
X13735000Y-8822500D02*
X13955000Y-8822500D01*
X13955000Y-9142500D02*
X13735000Y-9142500D01*
X14005000Y-8872500D02*
X14005000Y-9092500D01*
X13685000Y-8872500D02*
G75*
G02*
X13735000Y-8822500I50000J0D01*
G01*
X13735000Y-9142500D02*
G75*
G02*
X13685000Y-9092500I0J50000D01*
G01*
X13955000Y-8822500D02*
G75*
G02*
X14005000Y-8872500I0J-50000D01*
G01*
X14005000Y-9092500D02*
G75*
G02*
X13955000Y-9142500I-50000J0D01*
G01*
X12735000Y-10772500D02*
X12735000Y-10992500D01*
X12785000Y-10722500D02*
X13005000Y-10722500D01*
X13005000Y-11042500D02*
X12785000Y-11042500D01*
X13055000Y-10772500D02*
X13055000Y-10992500D01*
X12735000Y-10772500D02*
G75*
G02*
X12785000Y-10722500I50000J0D01*
G01*
X12785000Y-11042500D02*
G75*
G02*
X12735000Y-10992500I0J50000D01*
G01*
X13005000Y-10722500D02*
G75*
G02*
X13055000Y-10772500I0J-50000D01*
G01*
X13055000Y-10992500D02*
G75*
G02*
X13005000Y-11042500I-50000J0D01*
G01*
X22367500Y-11120000D02*
X22367500Y-11300000D01*
X22417500Y-11350000D02*
X22457500Y-11350000D01*
X22457500Y-10850000D02*
X23117500Y-10850000D01*
X22457500Y-11070000D02*
X22417500Y-11070000D01*
X22457500Y-11070000D02*
X22457500Y-10950000D01*
X22457500Y-11980000D02*
X22457500Y-11350000D01*
X22457500Y-12080000D02*
X22637500Y-12080000D01*
X22637500Y-12080000D02*
X22637500Y-12150000D01*
X22687500Y-12200000D02*
X22887500Y-12200000D01*
X22937500Y-12080000D02*
X22937500Y-12150000D01*
X23117500Y-11070000D02*
X23117500Y-10950000D01*
X23117500Y-11350000D02*
X23157500Y-11350000D01*
X23117500Y-11980000D02*
X23117500Y-11350000D01*
X23117500Y-12080000D02*
X22937500Y-12080000D01*
X23157500Y-11070000D02*
X23117500Y-11070000D01*
X23207500Y-11300000D02*
X23207500Y-11120000D01*
X23897500Y-10772500D02*
X23897500Y-10992500D01*
X23947500Y-10722500D02*
X24167500Y-10722500D01*
X24167500Y-11042500D02*
X23947500Y-11042500D01*
X24217500Y-10772500D02*
X24217500Y-10992500D01*
X24767500Y-11120000D02*
X24767500Y-11300000D01*
X24817500Y-11350000D02*
X24857500Y-11350000D01*
X24857500Y-10850000D02*
X25517500Y-10850000D01*
X24857500Y-11070000D02*
X24817500Y-11070000D01*
X24857500Y-11070000D02*
X24857500Y-10950000D01*
X24857500Y-11980000D02*
X24857500Y-11350000D01*
X24857500Y-12080000D02*
X25037500Y-12080000D01*
X25037500Y-12080000D02*
X25037500Y-12150000D01*
X25087500Y-12200000D02*
X25287500Y-12200000D01*
X25337500Y-12080000D02*
X25337500Y-12150000D01*
X25517500Y-11070000D02*
X25517500Y-10950000D01*
X25517500Y-11350000D02*
X25557500Y-11350000D01*
X25517500Y-11980000D02*
X25517500Y-11350000D01*
X25517500Y-12080000D02*
X25337500Y-12080000D01*
X25557500Y-11070000D02*
X25517500Y-11070000D01*
X25607500Y-11300000D02*
X25607500Y-11120000D01*
X22367500Y-11120000D02*
G75*
G02*
X22417500Y-11070000I50000J0D01*
G01*
X22417500Y-11350000D02*
G75*
G02*
X22367500Y-11300000I0J50000D01*
G01*
X22457500Y-10950000D02*
G75*
G02*
X22457500Y-10850000I0J50000D01*
G01*
X22457500Y-12080000D02*
G75*
G02*
X22457500Y-11980000I0J50000D01*
G01*
X22687500Y-12200000D02*
G75*
G02*
X22637500Y-12150000I0J50000D01*
G01*
X22937500Y-12150000D02*
G75*
G02*
X22887500Y-12200000I-50000J0D01*
G01*
X23117500Y-10850000D02*
G75*
G02*
X23117500Y-10950000I0J-50000D01*
G01*
X23117500Y-11980000D02*
G75*
G02*
X23117500Y-12080000I0J-50000D01*
G01*
X23157500Y-11070000D02*
G75*
G02*
X23207500Y-11120000I0J-50000D01*
G01*
X23207500Y-11300000D02*
G75*
G02*
X23157500Y-11350000I-50000J0D01*
G01*
X23897500Y-10772500D02*
G75*
G02*
X23947500Y-10722500I50000J0D01*
G01*
X23947500Y-11042500D02*
G75*
G02*
X23897500Y-10992500I0J50000D01*
G01*
X24167500Y-10722500D02*
G75*
G02*
X24217500Y-10772500I0J-50000D01*
G01*
X24217500Y-10992500D02*
G75*
G02*
X24167500Y-11042500I-50000J0D01*
G01*
X24767500Y-11120000D02*
G75*
G02*
X24817500Y-11070000I50000J0D01*
G01*
X24817500Y-11350000D02*
G75*
G02*
X24767500Y-11300000I0J50000D01*
G01*
X24857500Y-10950000D02*
G75*
G02*
X24857500Y-10850000I0J50000D01*
G01*
X24857500Y-12080000D02*
G75*
G02*
X24857500Y-11980000I0J50000D01*
G01*
X25087500Y-12200000D02*
G75*
G02*
X25037500Y-12150000I0J50000D01*
G01*
X25337500Y-12150000D02*
G75*
G02*
X25287500Y-12200000I-50000J0D01*
G01*
X25517500Y-10850000D02*
G75*
G02*
X25517500Y-10950000I0J-50000D01*
G01*
X25517500Y-11980000D02*
G75*
G02*
X25517500Y-12080000I0J-50000D01*
G01*
X25557500Y-11070000D02*
G75*
G02*
X25607500Y-11120000I0J-50000D01*
G01*
X25607500Y-11300000D02*
G75*
G02*
X25557500Y-11350000I-50000J0D01*
G01*
X5610000Y-6972500D02*
X5610000Y-7192500D01*
X5660000Y-6922500D02*
X5880000Y-6922500D01*
X5880000Y-7242500D02*
X5660000Y-7242500D01*
X5930000Y-6972500D02*
X5930000Y-7192500D01*
X5610000Y-6972500D02*
G75*
G02*
X5660000Y-6922500I50000J0D01*
G01*
X5660000Y-7242500D02*
G75*
G02*
X5610000Y-7192500I0J50000D01*
G01*
X5880000Y-6922500D02*
G75*
G02*
X5930000Y-6972500I0J-50000D01*
G01*
X5930000Y-7192500D02*
G75*
G02*
X5880000Y-7242500I-50000J0D01*
G01*
X5610000Y-12672500D02*
X5610000Y-12892500D01*
X5660000Y-12622500D02*
X5880000Y-12622500D01*
X5880000Y-12942500D02*
X5660000Y-12942500D01*
X5930000Y-12672500D02*
X5930000Y-12892500D01*
X5610000Y-12672500D02*
G75*
G02*
X5660000Y-12622500I50000J0D01*
G01*
X5660000Y-12942500D02*
G75*
G02*
X5610000Y-12892500I0J50000D01*
G01*
X5880000Y-12622500D02*
G75*
G02*
X5930000Y-12672500I0J-50000D01*
G01*
X5930000Y-12892500D02*
G75*
G02*
X5880000Y-12942500I-50000J0D01*
G01*
X3710000Y-12672500D02*
X3710000Y-12892500D01*
X3760000Y-12622500D02*
X3980000Y-12622500D01*
X3980000Y-12942500D02*
X3760000Y-12942500D01*
X4030000Y-12672500D02*
X4030000Y-12892500D01*
X3710000Y-12672500D02*
G75*
G02*
X3760000Y-12622500I50000J0D01*
G01*
X3760000Y-12942500D02*
G75*
G02*
X3710000Y-12892500I0J50000D01*
G01*
X3980000Y-12622500D02*
G75*
G02*
X4030000Y-12672500I0J-50000D01*
G01*
X4030000Y-12892500D02*
G75*
G02*
X3980000Y-12942500I-50000J0D01*
G01*
X14635000Y-10772500D02*
X14635000Y-10992500D01*
X14685000Y-10722500D02*
X14905000Y-10722500D01*
X14905000Y-11042500D02*
X14685000Y-11042500D01*
X14955000Y-10772500D02*
X14955000Y-10992500D01*
X14635000Y-10772500D02*
G75*
G02*
X14685000Y-10722500I50000J0D01*
G01*
X14685000Y-11042500D02*
G75*
G02*
X14635000Y-10992500I0J50000D01*
G01*
X14905000Y-10722500D02*
G75*
G02*
X14955000Y-10772500I0J-50000D01*
G01*
X14955000Y-10992500D02*
G75*
G02*
X14905000Y-11042500I-50000J0D01*
G01*
X18435000Y-10772500D02*
X18435000Y-10992500D01*
X18485000Y-10722500D02*
X18705000Y-10722500D01*
X18705000Y-11042500D02*
X18485000Y-11042500D01*
X18755000Y-10772500D02*
X18755000Y-10992500D01*
X18435000Y-10772500D02*
G75*
G02*
X18485000Y-10722500I50000J0D01*
G01*
X18485000Y-11042500D02*
G75*
G02*
X18435000Y-10992500I0J50000D01*
G01*
X18705000Y-10722500D02*
G75*
G02*
X18755000Y-10772500I0J-50000D01*
G01*
X18755000Y-10992500D02*
G75*
G02*
X18705000Y-11042500I-50000J0D01*
G01*
X15110000Y-6972500D02*
X15110000Y-7192500D01*
X15160000Y-6922500D02*
X15380000Y-6922500D01*
X15380000Y-7242500D02*
X15160000Y-7242500D01*
X15430000Y-6972500D02*
X15430000Y-7192500D01*
X15110000Y-6972500D02*
G75*
G02*
X15160000Y-6922500I50000J0D01*
G01*
X15160000Y-7242500D02*
G75*
G02*
X15110000Y-7192500I0J50000D01*
G01*
X15380000Y-6922500D02*
G75*
G02*
X15430000Y-6972500I0J-50000D01*
G01*
X15430000Y-7192500D02*
G75*
G02*
X15380000Y-7242500I-50000J0D01*
G01*
X3710000Y-6972500D02*
X3710000Y-7192500D01*
X3760000Y-6922500D02*
X3980000Y-6922500D01*
X3980000Y-7242500D02*
X3760000Y-7242500D01*
X4030000Y-6972500D02*
X4030000Y-7192500D01*
X3710000Y-6972500D02*
G75*
G02*
X3760000Y-6922500I50000J0D01*
G01*
X3760000Y-7242500D02*
G75*
G02*
X3710000Y-7192500I0J50000D01*
G01*
X3980000Y-6922500D02*
G75*
G02*
X4030000Y-6972500I0J-50000D01*
G01*
X4030000Y-7192500D02*
G75*
G02*
X3980000Y-7242500I-50000J0D01*
G01*
X10835000Y-10772500D02*
X10835000Y-10992500D01*
X10885000Y-10722500D02*
X11105000Y-10722500D01*
X11105000Y-11042500D02*
X10885000Y-11042500D01*
X11155000Y-10772500D02*
X11155000Y-10992500D01*
X10835000Y-10772500D02*
G75*
G02*
X10885000Y-10722500I50000J0D01*
G01*
X10885000Y-11042500D02*
G75*
G02*
X10835000Y-10992500I0J50000D01*
G01*
X11105000Y-10722500D02*
G75*
G02*
X11155000Y-10772500I0J-50000D01*
G01*
X11155000Y-10992500D02*
G75*
G02*
X11105000Y-11042500I-50000J0D01*
G01*
X9410000Y-6972500D02*
X9410000Y-7192500D01*
X9460000Y-6922500D02*
X9680000Y-6922500D01*
X9680000Y-7242500D02*
X9460000Y-7242500D01*
X9730000Y-6972500D02*
X9730000Y-7192500D01*
X9410000Y-6972500D02*
G75*
G02*
X9460000Y-6922500I50000J0D01*
G01*
X9460000Y-7242500D02*
G75*
G02*
X9410000Y-7192500I0J50000D01*
G01*
X9680000Y-6922500D02*
G75*
G02*
X9730000Y-6972500I0J-50000D01*
G01*
X9730000Y-7192500D02*
G75*
G02*
X9680000Y-7242500I-50000J0D01*
G01*
X22842500Y-9220000D02*
X22842500Y-9400000D01*
X22892500Y-9450000D02*
X22932500Y-9450000D01*
X22932500Y-8950000D02*
X23592500Y-8950000D01*
X22932500Y-9170000D02*
X22892500Y-9170000D01*
X22932500Y-9170000D02*
X22932500Y-9050000D01*
X22932500Y-10080000D02*
X22932500Y-9450000D01*
X22932500Y-10180000D02*
X23112500Y-10180000D01*
X23112500Y-10180000D02*
X23112500Y-10250000D01*
X23162500Y-10300000D02*
X23362500Y-10300000D01*
X23412500Y-10180000D02*
X23412500Y-10250000D01*
X23592500Y-9170000D02*
X23592500Y-9050000D01*
X23592500Y-9450000D02*
X23632500Y-9450000D01*
X23592500Y-10080000D02*
X23592500Y-9450000D01*
X23592500Y-10180000D02*
X23412500Y-10180000D01*
X23632500Y-9170000D02*
X23592500Y-9170000D01*
X23682500Y-9400000D02*
X23682500Y-9220000D01*
X24372500Y-8872500D02*
X24372500Y-9092500D01*
X24422500Y-8822500D02*
X24642500Y-8822500D01*
X24642500Y-9142500D02*
X24422500Y-9142500D01*
X24692500Y-8872500D02*
X24692500Y-9092500D01*
X25242500Y-9220000D02*
X25242500Y-9400000D01*
X25292500Y-9450000D02*
X25332500Y-9450000D01*
X25332500Y-8950000D02*
X25992500Y-8950000D01*
X25332500Y-9170000D02*
X25292500Y-9170000D01*
X25332500Y-9170000D02*
X25332500Y-9050000D01*
X25332500Y-10080000D02*
X25332500Y-9450000D01*
X25332500Y-10180000D02*
X25512500Y-10180000D01*
X25512500Y-10180000D02*
X25512500Y-10250000D01*
X25562500Y-10300000D02*
X25762500Y-10300000D01*
X25812500Y-10180000D02*
X25812500Y-10250000D01*
X25992500Y-9170000D02*
X25992500Y-9050000D01*
X25992500Y-9450000D02*
X26032500Y-9450000D01*
X25992500Y-10080000D02*
X25992500Y-9450000D01*
X25992500Y-10180000D02*
X25812500Y-10180000D01*
X26032500Y-9170000D02*
X25992500Y-9170000D01*
X26082500Y-9400000D02*
X26082500Y-9220000D01*
X22842500Y-9220000D02*
G75*
G02*
X22892500Y-9170000I50000J0D01*
G01*
X22892500Y-9450000D02*
G75*
G02*
X22842500Y-9400000I0J50000D01*
G01*
X22932500Y-9050000D02*
G75*
G02*
X22932500Y-8950000I0J50000D01*
G01*
X22932500Y-10180000D02*
G75*
G02*
X22932500Y-10080000I0J50000D01*
G01*
X23162500Y-10300000D02*
G75*
G02*
X23112500Y-10250000I0J50000D01*
G01*
X23412500Y-10250000D02*
G75*
G02*
X23362500Y-10300000I-50000J0D01*
G01*
X23592500Y-8950000D02*
G75*
G02*
X23592500Y-9050000I0J-50000D01*
G01*
X23592500Y-10080000D02*
G75*
G02*
X23592500Y-10180000I0J-50000D01*
G01*
X23632500Y-9170000D02*
G75*
G02*
X23682500Y-9220000I0J-50000D01*
G01*
X23682500Y-9400000D02*
G75*
G02*
X23632500Y-9450000I-50000J0D01*
G01*
X24372500Y-8872500D02*
G75*
G02*
X24422500Y-8822500I50000J0D01*
G01*
X24422500Y-9142500D02*
G75*
G02*
X24372500Y-9092500I0J50000D01*
G01*
X24642500Y-8822500D02*
G75*
G02*
X24692500Y-8872500I0J-50000D01*
G01*
X24692500Y-9092500D02*
G75*
G02*
X24642500Y-9142500I-50000J0D01*
G01*
X25242500Y-9220000D02*
G75*
G02*
X25292500Y-9170000I50000J0D01*
G01*
X25292500Y-9450000D02*
G75*
G02*
X25242500Y-9400000I0J50000D01*
G01*
X25332500Y-9050000D02*
G75*
G02*
X25332500Y-8950000I0J50000D01*
G01*
X25332500Y-10180000D02*
G75*
G02*
X25332500Y-10080000I0J50000D01*
G01*
X25562500Y-10300000D02*
G75*
G02*
X25512500Y-10250000I0J50000D01*
G01*
X25812500Y-10250000D02*
G75*
G02*
X25762500Y-10300000I-50000J0D01*
G01*
X25992500Y-8950000D02*
G75*
G02*
X25992500Y-9050000I0J-50000D01*
G01*
X25992500Y-10080000D02*
G75*
G02*
X25992500Y-10180000I0J-50000D01*
G01*
X26032500Y-9170000D02*
G75*
G02*
X26082500Y-9220000I0J-50000D01*
G01*
X26082500Y-9400000D02*
G75*
G02*
X26032500Y-9450000I-50000J0D01*
G01*
X8935000Y-10772500D02*
X8935000Y-10992500D01*
X8985000Y-10722500D02*
X9205000Y-10722500D01*
X9205000Y-11042500D02*
X8985000Y-11042500D01*
X9255000Y-10772500D02*
X9255000Y-10992500D01*
X8935000Y-10772500D02*
G75*
G02*
X8985000Y-10722500I50000J0D01*
G01*
X8985000Y-11042500D02*
G75*
G02*
X8935000Y-10992500I0J50000D01*
G01*
X9205000Y-10722500D02*
G75*
G02*
X9255000Y-10772500I0J-50000D01*
G01*
X9255000Y-10992500D02*
G75*
G02*
X9205000Y-11042500I-50000J0D01*
G01*
X25322500Y-12672500D02*
X25322500Y-12892500D01*
X25372500Y-12622500D02*
X25592500Y-12622500D01*
X25592500Y-12942500D02*
X25372500Y-12942500D01*
X25642500Y-12672500D02*
X25642500Y-12892500D01*
X25322500Y-12672500D02*
G75*
G02*
X25372500Y-12622500I50000J0D01*
G01*
X25372500Y-12942500D02*
G75*
G02*
X25322500Y-12892500I0J50000D01*
G01*
X25592500Y-12622500D02*
G75*
G02*
X25642500Y-12672500I0J-50000D01*
G01*
X25642500Y-12892500D02*
G75*
G02*
X25592500Y-12942500I-50000J0D01*
G01*
X22710000Y-6972500D02*
X22710000Y-7192500D01*
X22760000Y-6922500D02*
X22980000Y-6922500D01*
X22980000Y-7242500D02*
X22760000Y-7242500D01*
X23030000Y-6972500D02*
X23030000Y-7192500D01*
X22710000Y-6972500D02*
G75*
G02*
X22760000Y-6922500I50000J0D01*
G01*
X22760000Y-7242500D02*
G75*
G02*
X22710000Y-7192500I0J50000D01*
G01*
X22980000Y-6922500D02*
G75*
G02*
X23030000Y-6972500I0J-50000D01*
G01*
X23030000Y-7192500D02*
G75*
G02*
X22980000Y-7242500I-50000J0D01*
G01*
X4422500Y-10772500D02*
X4422500Y-10992500D01*
X4472500Y-10722500D02*
X4692500Y-10722500D01*
X4692500Y-11042500D02*
X4472500Y-11042500D01*
X4742500Y-10772500D02*
X4742500Y-10992500D01*
X4422500Y-10772500D02*
G75*
G02*
X4472500Y-10722500I50000J0D01*
G01*
X4472500Y-11042500D02*
G75*
G02*
X4422500Y-10992500I0J50000D01*
G01*
X4692500Y-10722500D02*
G75*
G02*
X4742500Y-10772500I0J-50000D01*
G01*
X4742500Y-10992500D02*
G75*
G02*
X4692500Y-11042500I-50000J0D01*
G01*
X9067500Y-13400000D02*
X9067500Y-13580000D01*
X9117500Y-13630000D02*
X9157500Y-13630000D01*
X9157500Y-12620000D02*
X9337500Y-12620000D01*
X9157500Y-12720000D02*
X9157500Y-13350000D01*
X9157500Y-13350000D02*
X9117500Y-13350000D01*
X9157500Y-13630000D02*
X9157500Y-13750000D01*
X9337500Y-12620000D02*
X9337500Y-12550000D01*
X9587500Y-12500000D02*
X9387500Y-12500000D01*
X9637500Y-12620000D02*
X9637500Y-12550000D01*
X9817500Y-12620000D02*
X9637500Y-12620000D01*
X9817500Y-12720000D02*
X9817500Y-13350000D01*
X9817500Y-13630000D02*
X9817500Y-13750000D01*
X9817500Y-13630000D02*
X9857500Y-13630000D01*
X9817500Y-13850000D02*
X9157500Y-13850000D01*
X9857500Y-13350000D02*
X9817500Y-13350000D01*
X9907500Y-13580000D02*
X9907500Y-13400000D01*
X14397500Y-12672500D02*
X14397500Y-12892500D01*
X14447500Y-12622500D02*
X14667500Y-12622500D01*
X14667500Y-12942500D02*
X14447500Y-12942500D01*
X14717500Y-12672500D02*
X14717500Y-12892500D01*
X19067500Y-13400000D02*
X19067500Y-13580000D01*
X19117500Y-13630000D02*
X19157500Y-13630000D01*
X19157500Y-12620000D02*
X19337500Y-12620000D01*
X19157500Y-12720000D02*
X19157500Y-13350000D01*
X19157500Y-13350000D02*
X19117500Y-13350000D01*
X19157500Y-13630000D02*
X19157500Y-13750000D01*
X19337500Y-12620000D02*
X19337500Y-12550000D01*
X19587500Y-12500000D02*
X19387500Y-12500000D01*
X19637500Y-12620000D02*
X19637500Y-12550000D01*
X19817500Y-12620000D02*
X19637500Y-12620000D01*
X19817500Y-12720000D02*
X19817500Y-13350000D01*
X19817500Y-13630000D02*
X19817500Y-13750000D01*
X19817500Y-13630000D02*
X19857500Y-13630000D01*
X19817500Y-13850000D02*
X19157500Y-13850000D01*
X19857500Y-13350000D02*
X19817500Y-13350000D01*
X19907500Y-13580000D02*
X19907500Y-13400000D01*
X9067500Y-13400000D02*
G75*
G02*
X9117500Y-13350000I50000J0D01*
G01*
X9117500Y-13630000D02*
G75*
G02*
X9067500Y-13580000I0J50000D01*
G01*
X9157500Y-12720000D02*
G75*
G02*
X9157500Y-12620000I0J50000D01*
G01*
X9157500Y-13850000D02*
G75*
G02*
X9157500Y-13750000I0J50000D01*
G01*
X9337500Y-12550000D02*
G75*
G02*
X9387500Y-12500000I50000J0D01*
G01*
X9587500Y-12500000D02*
G75*
G02*
X9637500Y-12550000I0J-50000D01*
G01*
X9817500Y-12620000D02*
G75*
G02*
X9817500Y-12720000I0J-50000D01*
G01*
X9817500Y-13750000D02*
G75*
G02*
X9817500Y-13850000I0J-50000D01*
G01*
X9857500Y-13350000D02*
G75*
G02*
X9907500Y-13400000I0J-50000D01*
G01*
X9907500Y-13580000D02*
G75*
G02*
X9857500Y-13630000I-50000J0D01*
G01*
X14397500Y-12672500D02*
G75*
G02*
X14447500Y-12622500I50000J0D01*
G01*
X14447500Y-12942500D02*
G75*
G02*
X14397500Y-12892500I0J50000D01*
G01*
X14667500Y-12622500D02*
G75*
G02*
X14717500Y-12672500I0J-50000D01*
G01*
X14717500Y-12892500D02*
G75*
G02*
X14667500Y-12942500I-50000J0D01*
G01*
X19067500Y-13400000D02*
G75*
G02*
X19117500Y-13350000I50000J0D01*
G01*
X19117500Y-13630000D02*
G75*
G02*
X19067500Y-13580000I0J50000D01*
G01*
X19157500Y-12720000D02*
G75*
G02*
X19157500Y-12620000I0J50000D01*
G01*
X19157500Y-13850000D02*
G75*
G02*
X19157500Y-13750000I0J50000D01*
G01*
X19337500Y-12550000D02*
G75*
G02*
X19387500Y-12500000I50000J0D01*
G01*
X19587500Y-12500000D02*
G75*
G02*
X19637500Y-12550000I0J-50000D01*
G01*
X19817500Y-12620000D02*
G75*
G02*
X19817500Y-12720000I0J-50000D01*
G01*
X19817500Y-13750000D02*
G75*
G02*
X19817500Y-13850000I0J-50000D01*
G01*
X19857500Y-13350000D02*
G75*
G02*
X19907500Y-13400000I0J-50000D01*
G01*
X19907500Y-13580000D02*
G75*
G02*
X19857500Y-13630000I-50000J0D01*
G01*
X25085000Y-6972500D02*
X25085000Y-7192500D01*
X25135000Y-6922500D02*
X25355000Y-6922500D01*
X25355000Y-7242500D02*
X25135000Y-7242500D01*
X25405000Y-6972500D02*
X25405000Y-7192500D01*
X25085000Y-6972500D02*
G75*
G02*
X25135000Y-6922500I50000J0D01*
G01*
X25135000Y-7242500D02*
G75*
G02*
X25085000Y-7192500I0J50000D01*
G01*
X25355000Y-6922500D02*
G75*
G02*
X25405000Y-6972500I0J-50000D01*
G01*
X25405000Y-7192500D02*
G75*
G02*
X25355000Y-7242500I-50000J0D01*
G01*
X20810000Y-6972500D02*
X20810000Y-7192500D01*
X20860000Y-6922500D02*
X21080000Y-6922500D01*
X21080000Y-7242500D02*
X20860000Y-7242500D01*
X21130000Y-6972500D02*
X21130000Y-7192500D01*
X20810000Y-6972500D02*
G75*
G02*
X20860000Y-6922500I50000J0D01*
G01*
X20860000Y-7242500D02*
G75*
G02*
X20810000Y-7192500I0J50000D01*
G01*
X21080000Y-6922500D02*
G75*
G02*
X21130000Y-6972500I0J-50000D01*
G01*
X21130000Y-7192500D02*
G75*
G02*
X21080000Y-7242500I-50000J0D01*
G01*
X21285000Y-12672500D02*
X21285000Y-12892500D01*
X21335000Y-12622500D02*
X21555000Y-12622500D01*
X21555000Y-12942500D02*
X21335000Y-12942500D01*
X21605000Y-12672500D02*
X21605000Y-12892500D01*
X21285000Y-12672500D02*
G75*
G02*
X21335000Y-12622500I50000J0D01*
G01*
X21335000Y-12942500D02*
G75*
G02*
X21285000Y-12892500I0J50000D01*
G01*
X21555000Y-12622500D02*
G75*
G02*
X21605000Y-12672500I0J-50000D01*
G01*
X21605000Y-12892500D02*
G75*
G02*
X21555000Y-12942500I-50000J0D01*
G01*
X15585000Y-8872500D02*
X15585000Y-9092500D01*
X15635000Y-8822500D02*
X15855000Y-8822500D01*
X15855000Y-9142500D02*
X15635000Y-9142500D01*
X15905000Y-8872500D02*
X15905000Y-9092500D01*
X15585000Y-8872500D02*
G75*
G02*
X15635000Y-8822500I50000J0D01*
G01*
X15635000Y-9142500D02*
G75*
G02*
X15585000Y-9092500I0J50000D01*
G01*
X15855000Y-8822500D02*
G75*
G02*
X15905000Y-8872500I0J-50000D01*
G01*
X15905000Y-9092500D02*
G75*
G02*
X15855000Y-9142500I-50000J0D01*
G01*
X7035000Y-10772500D02*
X7035000Y-10992500D01*
X7085000Y-10722500D02*
X7305000Y-10722500D01*
X7305000Y-11042500D02*
X7085000Y-11042500D01*
X7355000Y-10772500D02*
X7355000Y-10992500D01*
X7035000Y-10772500D02*
G75*
G02*
X7085000Y-10722500I50000J0D01*
G01*
X7085000Y-11042500D02*
G75*
G02*
X7035000Y-10992500I0J50000D01*
G01*
X7305000Y-10722500D02*
G75*
G02*
X7355000Y-10772500I0J-50000D01*
G01*
X7355000Y-10992500D02*
G75*
G02*
X7305000Y-11042500I-50000J0D01*
G01*
X17010000Y-6972500D02*
X17010000Y-7192500D01*
X17060000Y-6922500D02*
X17280000Y-6922500D01*
X17280000Y-7242500D02*
X17060000Y-7242500D01*
X17330000Y-6972500D02*
X17330000Y-7192500D01*
X17010000Y-6972500D02*
G75*
G02*
X17060000Y-6922500I50000J0D01*
G01*
X17060000Y-7242500D02*
G75*
G02*
X17010000Y-7192500I0J50000D01*
G01*
X17280000Y-6922500D02*
G75*
G02*
X17330000Y-6972500I0J-50000D01*
G01*
X17330000Y-7192500D02*
G75*
G02*
X17280000Y-7242500I-50000J0D01*
G01*
X6085000Y-8872500D02*
X6085000Y-9092500D01*
X6135000Y-8822500D02*
X6355000Y-8822500D01*
X6355000Y-9142500D02*
X6135000Y-9142500D01*
X6405000Y-8872500D02*
X6405000Y-9092500D01*
X6085000Y-8872500D02*
G75*
G02*
X6135000Y-8822500I50000J0D01*
G01*
X6135000Y-9142500D02*
G75*
G02*
X6085000Y-9092500I0J50000D01*
G01*
X6355000Y-8822500D02*
G75*
G02*
X6405000Y-8872500I0J-50000D01*
G01*
X6405000Y-9092500D02*
G75*
G02*
X6355000Y-9142500I-50000J0D01*
G01*
X3947500Y-8872500D02*
X3947500Y-9092500D01*
X3997500Y-8822500D02*
X4217500Y-8822500D01*
X4217500Y-9142500D02*
X3997500Y-9142500D01*
X4267500Y-8872500D02*
X4267500Y-9092500D01*
X3947500Y-8872500D02*
G75*
G02*
X3997500Y-8822500I50000J0D01*
G01*
X3997500Y-9142500D02*
G75*
G02*
X3947500Y-9092500I0J50000D01*
G01*
X4217500Y-8822500D02*
G75*
G02*
X4267500Y-8872500I0J-50000D01*
G01*
X4267500Y-9092500D02*
G75*
G02*
X4217500Y-9142500I-50000J0D01*
G01*
X11310000Y-6972500D02*
X11310000Y-7192500D01*
X11360000Y-6922500D02*
X11580000Y-6922500D01*
X11580000Y-7242500D02*
X11360000Y-7242500D01*
X11630000Y-6972500D02*
X11630000Y-7192500D01*
X11310000Y-6972500D02*
G75*
G02*
X11360000Y-6922500I50000J0D01*
G01*
X11360000Y-7242500D02*
G75*
G02*
X11310000Y-7192500I0J50000D01*
G01*
X11580000Y-6922500D02*
G75*
G02*
X11630000Y-6972500I0J-50000D01*
G01*
X11630000Y-7192500D02*
G75*
G02*
X11580000Y-7242500I-50000J0D01*
G01*
X7985000Y-8872500D02*
X7985000Y-9092500D01*
X8035000Y-8822500D02*
X8255000Y-8822500D01*
X8255000Y-9142500D02*
X8035000Y-9142500D01*
X8305000Y-8872500D02*
X8305000Y-9092500D01*
X7985000Y-8872500D02*
G75*
G02*
X8035000Y-8822500I50000J0D01*
G01*
X8035000Y-9142500D02*
G75*
G02*
X7985000Y-9092500I0J50000D01*
G01*
X8255000Y-8822500D02*
G75*
G02*
X8305000Y-8872500I0J-50000D01*
G01*
X8305000Y-9092500D02*
G75*
G02*
X8255000Y-9142500I-50000J0D01*
G01*
X7510000Y-6972500D02*
X7510000Y-7192500D01*
X7560000Y-6922500D02*
X7780000Y-6922500D01*
X7780000Y-7242500D02*
X7560000Y-7242500D01*
X7830000Y-6972500D02*
X7830000Y-7192500D01*
X7510000Y-6972500D02*
G75*
G02*
X7560000Y-6922500I50000J0D01*
G01*
X7560000Y-7242500D02*
G75*
G02*
X7510000Y-7192500I0J50000D01*
G01*
X7780000Y-6922500D02*
G75*
G02*
X7830000Y-6972500I0J-50000D01*
G01*
X7830000Y-7192500D02*
G75*
G02*
X7780000Y-7242500I-50000J0D01*
G01*
X9885000Y-8872500D02*
X9885000Y-9092500D01*
X9935000Y-8822500D02*
X10155000Y-8822500D01*
X10155000Y-9142500D02*
X9935000Y-9142500D01*
X10205000Y-8872500D02*
X10205000Y-9092500D01*
X9885000Y-8872500D02*
G75*
G02*
X9935000Y-8822500I50000J0D01*
G01*
X9935000Y-9142500D02*
G75*
G02*
X9885000Y-9092500I0J50000D01*
G01*
X10155000Y-8822500D02*
G75*
G02*
X10205000Y-8872500I0J-50000D01*
G01*
X10205000Y-9092500D02*
G75*
G02*
X10155000Y-9142500I-50000J0D01*
G01*
X16535000Y-10772500D02*
X16535000Y-10992500D01*
X16585000Y-10722500D02*
X16805000Y-10722500D01*
X16805000Y-11042500D02*
X16585000Y-11042500D01*
X16855000Y-10772500D02*
X16855000Y-10992500D01*
X16535000Y-10772500D02*
G75*
G02*
X16585000Y-10722500I50000J0D01*
G01*
X16585000Y-11042500D02*
G75*
G02*
X16535000Y-10992500I0J50000D01*
G01*
X16805000Y-10722500D02*
G75*
G02*
X16855000Y-10772500I0J-50000D01*
G01*
X16855000Y-10992500D02*
G75*
G02*
X16805000Y-11042500I-50000J0D01*
G01*
X13210000Y-6972500D02*
X13210000Y-7192500D01*
X13260000Y-6922500D02*
X13480000Y-6922500D01*
X13480000Y-7242500D02*
X13260000Y-7242500D01*
X13530000Y-6972500D02*
X13530000Y-7192500D01*
X13210000Y-6972500D02*
G75*
G02*
X13260000Y-6922500I50000J0D01*
G01*
X13260000Y-7242500D02*
G75*
G02*
X13210000Y-7192500I0J50000D01*
G01*
X13480000Y-6922500D02*
G75*
G02*
X13530000Y-6972500I0J-50000D01*
G01*
X13530000Y-7192500D02*
G75*
G02*
X13480000Y-7242500I-50000J0D01*
G01*
X17485000Y-8872500D02*
X17485000Y-9092500D01*
X17535000Y-8822500D02*
X17755000Y-8822500D01*
X17755000Y-9142500D02*
X17535000Y-9142500D01*
X17805000Y-8872500D02*
X17805000Y-9092500D01*
X17485000Y-8872500D02*
G75*
G02*
X17535000Y-8822500I50000J0D01*
G01*
X17535000Y-9142500D02*
G75*
G02*
X17485000Y-9092500I0J50000D01*
G01*
X17755000Y-8822500D02*
G75*
G02*
X17805000Y-8872500I0J-50000D01*
G01*
X17805000Y-9092500D02*
G75*
G02*
X17755000Y-9142500I-50000J0D01*
G01*
X23185000Y-12672500D02*
X23185000Y-12892500D01*
X23235000Y-12622500D02*
X23455000Y-12622500D01*
X23455000Y-12942500D02*
X23235000Y-12942500D01*
X23505000Y-12672500D02*
X23505000Y-12892500D01*
X23185000Y-12672500D02*
G75*
G02*
X23235000Y-12622500I50000J0D01*
G01*
X23235000Y-12942500D02*
G75*
G02*
X23185000Y-12892500I0J50000D01*
G01*
X23455000Y-12622500D02*
G75*
G02*
X23505000Y-12672500I0J-50000D01*
G01*
X23505000Y-12892500D02*
G75*
G02*
X23455000Y-12942500I-50000J0D01*
G01*
X20335000Y-10772500D02*
X20335000Y-10992500D01*
X20385000Y-10722500D02*
X20605000Y-10722500D01*
X20605000Y-11042500D02*
X20385000Y-11042500D01*
X20655000Y-10772500D02*
X20655000Y-10992500D01*
X20335000Y-10772500D02*
G75*
G02*
X20385000Y-10722500I50000J0D01*
G01*
X20385000Y-11042500D02*
G75*
G02*
X20335000Y-10992500I0J50000D01*
G01*
X20605000Y-10722500D02*
G75*
G02*
X20655000Y-10772500I0J-50000D01*
G01*
X20655000Y-10992500D02*
G75*
G02*
X20605000Y-11042500I-50000J0D01*
G01*
X10075000Y-13050000D02*
X10075000Y-13550000D01*
X10775000Y-13000000D02*
X10125000Y-13000000D01*
X10775000Y-13600000D02*
X10125000Y-13600000D01*
X10825000Y-13550000D02*
X10825000Y-13050000D01*
X10075000Y-13050000D02*
G75*
G02*
X10125000Y-13000000I50000J0D01*
G01*
X10125000Y-13600000D02*
G75*
G02*
X10075000Y-13550000I0J50000D01*
G01*
X10775000Y-13000000D02*
G75*
G02*
X10825000Y-13050000I0J-50000D01*
G01*
X10825000Y-13550000D02*
G75*
G02*
X10775000Y-13600000I-50000J0D01*
G01*
D11*
X2850000Y-6650000D02*
X3050000Y-6850000D01*
X3050000Y-6650000D02*
X2850000Y-6850000D01*
X2850000Y-14050000D02*
X3050000Y-14250000D01*
X3050000Y-14050000D02*
X2850000Y-14250000D01*
X10350000Y-6650000D02*
X10550000Y-6850000D01*
X10550000Y-6650000D02*
X10350000Y-6850000D01*
X10350000Y-14050000D02*
X10550000Y-14250000D01*
X10550000Y-14050000D02*
X10350000Y-14250000D01*
X17950000Y-6650000D02*
X18150000Y-6850000D01*
X18150000Y-6650000D02*
X17950000Y-6850000D01*
X17950000Y-14050000D02*
X18150000Y-14250000D01*
X18150000Y-14050000D02*
X17950000Y-14250000D01*
X26400000Y-6650000D02*
X26600000Y-6850000D01*
X26600000Y-6650000D02*
X26400000Y-6850000D01*
X26400000Y-14050000D02*
X26600000Y-14250000D01*
X26600000Y-14050000D02*
X26400000Y-14250000D01*
D12*
X4062500Y-7600000D02*
G75*
G02*
X3537500Y-7600000I-262500J0D01*
G01*
X3537500Y-7600000D02*
G75*
G02*
X4062500Y-7600000I262500J0D01*
G01*
X4062500Y-13300000D02*
G75*
G02*
X3537500Y-13300000I-262500J0D01*
G01*
X3537500Y-13300000D02*
G75*
G02*
X4062500Y-13300000I262500J0D01*
G01*
X4300000Y-9500000D02*
G75*
G02*
X3775000Y-9500000I-262500J0D01*
G01*
X3775000Y-9500000D02*
G75*
G02*
X4300000Y-9500000I262500J0D01*
G01*
X4775000Y-11400000D02*
G75*
G02*
X4250000Y-11400000I-262500J0D01*
G01*
X4250000Y-11400000D02*
G75*
G02*
X4775000Y-11400000I262500J0D01*
G01*
X5962500Y-7600000D02*
G75*
G02*
X5437500Y-7600000I-262500J0D01*
G01*
X5437500Y-7600000D02*
G75*
G02*
X5962500Y-7600000I262500J0D01*
G01*
X5962500Y-13300000D02*
G75*
G02*
X5437500Y-13300000I-262500J0D01*
G01*
X5437500Y-13300000D02*
G75*
G02*
X5962500Y-13300000I262500J0D01*
G01*
X6437500Y-9500000D02*
G75*
G02*
X5912500Y-9500000I-262500J0D01*
G01*
X5912500Y-9500000D02*
G75*
G02*
X6437500Y-9500000I262500J0D01*
G01*
X7387500Y-11400000D02*
G75*
G02*
X6862500Y-11400000I-262500J0D01*
G01*
X6862500Y-11400000D02*
G75*
G02*
X7387500Y-11400000I262500J0D01*
G01*
X7862500Y-7600000D02*
G75*
G02*
X7337500Y-7600000I-262500J0D01*
G01*
X7337500Y-7600000D02*
G75*
G02*
X7862500Y-7600000I262500J0D01*
G01*
X7862500Y-13300000D02*
G75*
G02*
X7337500Y-13300000I-262500J0D01*
G01*
X7337500Y-13300000D02*
G75*
G02*
X7862500Y-13300000I262500J0D01*
G01*
X8337500Y-9500000D02*
G75*
G02*
X7812500Y-9500000I-262500J0D01*
G01*
X7812500Y-9500000D02*
G75*
G02*
X8337500Y-9500000I262500J0D01*
G01*
X9287500Y-11400000D02*
G75*
G02*
X8762500Y-11400000I-262500J0D01*
G01*
X8762500Y-11400000D02*
G75*
G02*
X9287500Y-11400000I262500J0D01*
G01*
X9762500Y-7600000D02*
G75*
G02*
X9237500Y-7600000I-262500J0D01*
G01*
X9237500Y-7600000D02*
G75*
G02*
X9762500Y-7600000I262500J0D01*
G01*
X10237500Y-9500000D02*
G75*
G02*
X9712500Y-9500000I-262500J0D01*
G01*
X9712500Y-9500000D02*
G75*
G02*
X10237500Y-9500000I262500J0D01*
G01*
X11187500Y-11400000D02*
G75*
G02*
X10662500Y-11400000I-262500J0D01*
G01*
X10662500Y-11400000D02*
G75*
G02*
X11187500Y-11400000I262500J0D01*
G01*
X11662500Y-7600000D02*
G75*
G02*
X11137500Y-7600000I-262500J0D01*
G01*
X11137500Y-7600000D02*
G75*
G02*
X11662500Y-7600000I262500J0D01*
G01*
X12137500Y-9500000D02*
G75*
G02*
X11612500Y-9500000I-262500J0D01*
G01*
X11612500Y-9500000D02*
G75*
G02*
X12137500Y-9500000I262500J0D01*
G01*
X13087500Y-11400000D02*
G75*
G02*
X12562500Y-11400000I-262500J0D01*
G01*
X12562500Y-11400000D02*
G75*
G02*
X13087500Y-11400000I262500J0D01*
G01*
X13562500Y-7600000D02*
G75*
G02*
X13037500Y-7600000I-262500J0D01*
G01*
X13037500Y-7600000D02*
G75*
G02*
X13562500Y-7600000I262500J0D01*
G01*
X14037500Y-9500000D02*
G75*
G02*
X13512500Y-9500000I-262500J0D01*
G01*
X13512500Y-9500000D02*
G75*
G02*
X14037500Y-9500000I262500J0D01*
G01*
X14750000Y-13300000D02*
G75*
G02*
X14225000Y-13300000I-262500J0D01*
G01*
X14225000Y-13300000D02*
G75*
G02*
X14750000Y-13300000I262500J0D01*
G01*
X14987500Y-11400000D02*
G75*
G02*
X14462500Y-11400000I-262500J0D01*
G01*
X14462500Y-11400000D02*
G75*
G02*
X14987500Y-11400000I262500J0D01*
G01*
X15462500Y-7600000D02*
G75*
G02*
X14937500Y-7600000I-262500J0D01*
G01*
X14937500Y-7600000D02*
G75*
G02*
X15462500Y-7600000I262500J0D01*
G01*
X15937500Y-9500000D02*
G75*
G02*
X15412500Y-9500000I-262500J0D01*
G01*
X15412500Y-9500000D02*
G75*
G02*
X15937500Y-9500000I262500J0D01*
G01*
X16887500Y-11400000D02*
G75*
G02*
X16362500Y-11400000I-262500J0D01*
G01*
X16362500Y-11400000D02*
G75*
G02*
X16887500Y-11400000I262500J0D01*
G01*
X17362500Y-7600000D02*
G75*
G02*
X16837500Y-7600000I-262500J0D01*
G01*
X16837500Y-7600000D02*
G75*
G02*
X17362500Y-7600000I262500J0D01*
G01*
X17837500Y-9500000D02*
G75*
G02*
X17312500Y-9500000I-262500J0D01*
G01*
X17312500Y-9500000D02*
G75*
G02*
X17837500Y-9500000I262500J0D01*
G01*
X18787500Y-11400000D02*
G75*
G02*
X18262500Y-11400000I-262500J0D01*
G01*
X18262500Y-11400000D02*
G75*
G02*
X18787500Y-11400000I262500J0D01*
G01*
X19262500Y-7600000D02*
G75*
G02*
X18737500Y-7600000I-262500J0D01*
G01*
X18737500Y-7600000D02*
G75*
G02*
X19262500Y-7600000I262500J0D01*
G01*
X19737500Y-9500000D02*
G75*
G02*
X19212500Y-9500000I-262500J0D01*
G01*
X19212500Y-9500000D02*
G75*
G02*
X19737500Y-9500000I262500J0D01*
G01*
X20687500Y-11400000D02*
G75*
G02*
X20162500Y-11400000I-262500J0D01*
G01*
X20162500Y-11400000D02*
G75*
G02*
X20687500Y-11400000I262500J0D01*
G01*
X21162500Y-7600000D02*
G75*
G02*
X20637500Y-7600000I-262500J0D01*
G01*
X20637500Y-7600000D02*
G75*
G02*
X21162500Y-7600000I262500J0D01*
G01*
X21637500Y-9500000D02*
G75*
G02*
X21112500Y-9500000I-262500J0D01*
G01*
X21112500Y-9500000D02*
G75*
G02*
X21637500Y-9500000I262500J0D01*
G01*
X21637500Y-13300000D02*
G75*
G02*
X21112500Y-13300000I-262500J0D01*
G01*
X21112500Y-13300000D02*
G75*
G02*
X21637500Y-13300000I262500J0D01*
G01*
X23062500Y-7600000D02*
G75*
G02*
X22537500Y-7600000I-262500J0D01*
G01*
X22537500Y-7600000D02*
G75*
G02*
X23062500Y-7600000I262500J0D01*
G01*
X23537500Y-13300000D02*
G75*
G02*
X23012500Y-13300000I-262500J0D01*
G01*
X23012500Y-13300000D02*
G75*
G02*
X23537500Y-13300000I262500J0D01*
G01*
X24250000Y-11400000D02*
G75*
G02*
X23725000Y-11400000I-262500J0D01*
G01*
X23725000Y-11400000D02*
G75*
G02*
X24250000Y-11400000I262500J0D01*
G01*
X24725000Y-9500000D02*
G75*
G02*
X24200000Y-9500000I-262500J0D01*
G01*
X24200000Y-9500000D02*
G75*
G02*
X24725000Y-9500000I262500J0D01*
G01*
X25437500Y-7600000D02*
G75*
G02*
X24912500Y-7600000I-262500J0D01*
G01*
X24912500Y-7600000D02*
G75*
G02*
X25437500Y-7600000I262500J0D01*
G01*
X25675000Y-13300000D02*
G75*
G02*
X25150000Y-13300000I-262500J0D01*
G01*
X25150000Y-13300000D02*
G75*
G02*
X25675000Y-13300000I262500J0D01*
G01*
D11*
X3008277Y-14663984D02*
X3008277Y-14463984D01*
X3008277Y-14463984D02*
X3055896Y-14463984D01*
X3055896Y-14463984D02*
X3084467Y-14473508D01*
X3084467Y-14473508D02*
X3103515Y-14492555D01*
X3103515Y-14492555D02*
X3113039Y-14511603D01*
X3113039Y-14511603D02*
X3122562Y-14549698D01*
X3122562Y-14549698D02*
X3122562Y-14578269D01*
X3122562Y-14578269D02*
X3113039Y-14616365D01*
X3113039Y-14616365D02*
X3103515Y-14635412D01*
X3103515Y-14635412D02*
X3084467Y-14654460D01*
X3084467Y-14654460D02*
X3055896Y-14663984D01*
X3055896Y-14663984D02*
X3008277Y-14663984D01*
X3208277Y-14663984D02*
X3208277Y-14530650D01*
X3208277Y-14568746D02*
X3217801Y-14549698D01*
X3217801Y-14549698D02*
X3227324Y-14540174D01*
X3227324Y-14540174D02*
X3246372Y-14530650D01*
X3246372Y-14530650D02*
X3265420Y-14530650D01*
X3332086Y-14663984D02*
X3332086Y-14530650D01*
X3332086Y-14463984D02*
X3322562Y-14473508D01*
X3322562Y-14473508D02*
X3332086Y-14483031D01*
X3332086Y-14483031D02*
X3341610Y-14473508D01*
X3341610Y-14473508D02*
X3332086Y-14463984D01*
X3332086Y-14463984D02*
X3332086Y-14483031D01*
X3455896Y-14663984D02*
X3436848Y-14654460D01*
X3436848Y-14654460D02*
X3427324Y-14635412D01*
X3427324Y-14635412D02*
X3427324Y-14463984D01*
X3560658Y-14663984D02*
X3541610Y-14654460D01*
X3541610Y-14654460D02*
X3532086Y-14635412D01*
X3532086Y-14635412D02*
X3532086Y-14463984D01*
X3789229Y-14663984D02*
X3789229Y-14463984D01*
X3789229Y-14463984D02*
X3855896Y-14606841D01*
X3855896Y-14606841D02*
X3922562Y-14463984D01*
X3922562Y-14463984D02*
X3922562Y-14663984D01*
X4103515Y-14663984D02*
X4103515Y-14559222D01*
X4103515Y-14559222D02*
X4093991Y-14540174D01*
X4093991Y-14540174D02*
X4074943Y-14530650D01*
X4074943Y-14530650D02*
X4036848Y-14530650D01*
X4036848Y-14530650D02*
X4017801Y-14540174D01*
X4103515Y-14654460D02*
X4084467Y-14663984D01*
X4084467Y-14663984D02*
X4036848Y-14663984D01*
X4036848Y-14663984D02*
X4017801Y-14654460D01*
X4017801Y-14654460D02*
X4008277Y-14635412D01*
X4008277Y-14635412D02*
X4008277Y-14616365D01*
X4008277Y-14616365D02*
X4017801Y-14597317D01*
X4017801Y-14597317D02*
X4036848Y-14587793D01*
X4036848Y-14587793D02*
X4084467Y-14587793D01*
X4084467Y-14587793D02*
X4103515Y-14578269D01*
X4198753Y-14530650D02*
X4198753Y-14730650D01*
X4198753Y-14540174D02*
X4217801Y-14530650D01*
X4217801Y-14530650D02*
X4255896Y-14530650D01*
X4255896Y-14530650D02*
X4274944Y-14540174D01*
X4274944Y-14540174D02*
X4284467Y-14549698D01*
X4284467Y-14549698D02*
X4293991Y-14568746D01*
X4293991Y-14568746D02*
X4293991Y-14625888D01*
X4293991Y-14625888D02*
X4284467Y-14644936D01*
X4284467Y-14644936D02*
X4274944Y-14654460D01*
X4274944Y-14654460D02*
X4255896Y-14663984D01*
X4255896Y-14663984D02*
X4217801Y-14663984D01*
X4217801Y-14663984D02*
X4198753Y-14654460D01*
X4379705Y-14644936D02*
X4389229Y-14654460D01*
X4389229Y-14654460D02*
X4379705Y-14663984D01*
X4379705Y-14663984D02*
X4370182Y-14654460D01*
X4370182Y-14654460D02*
X4379705Y-14644936D01*
X4379705Y-14644936D02*
X4379705Y-14663984D01*
X4379705Y-14540174D02*
X4389229Y-14549698D01*
X4389229Y-14549698D02*
X4379705Y-14559222D01*
X4379705Y-14559222D02*
X4370182Y-14549698D01*
X4370182Y-14549698D02*
X4379705Y-14540174D01*
X4379705Y-14540174D02*
X4379705Y-14559222D01*
X2547500Y-14892500D02*
X2747500Y-15092500D01*
X2747500Y-14892500D02*
X2547500Y-15092500D01*
X2998753Y-14903031D02*
X3008277Y-14893508D01*
X3008277Y-14893508D02*
X3027324Y-14883984D01*
X3027324Y-14883984D02*
X3074943Y-14883984D01*
X3074943Y-14883984D02*
X3093991Y-14893508D01*
X3093991Y-14893508D02*
X3103515Y-14903031D01*
X3103515Y-14903031D02*
X3113039Y-14922079D01*
X3113039Y-14922079D02*
X3113039Y-14941127D01*
X3113039Y-14941127D02*
X3103515Y-14969698D01*
X3103515Y-14969698D02*
X2989229Y-15083984D01*
X2989229Y-15083984D02*
X3113039Y-15083984D01*
X3198753Y-15064936D02*
X3208277Y-15074460D01*
X3208277Y-15074460D02*
X3198753Y-15083984D01*
X3198753Y-15083984D02*
X3189229Y-15074460D01*
X3189229Y-15074460D02*
X3198753Y-15064936D01*
X3198753Y-15064936D02*
X3198753Y-15083984D01*
X3332086Y-14883984D02*
X3351134Y-14883984D01*
X3351134Y-14883984D02*
X3370182Y-14893508D01*
X3370182Y-14893508D02*
X3379705Y-14903031D01*
X3379705Y-14903031D02*
X3389229Y-14922079D01*
X3389229Y-14922079D02*
X3398753Y-14960174D01*
X3398753Y-14960174D02*
X3398753Y-15007793D01*
X3398753Y-15007793D02*
X3389229Y-15045888D01*
X3389229Y-15045888D02*
X3379705Y-15064936D01*
X3379705Y-15064936D02*
X3370182Y-15074460D01*
X3370182Y-15074460D02*
X3351134Y-15083984D01*
X3351134Y-15083984D02*
X3332086Y-15083984D01*
X3332086Y-15083984D02*
X3313039Y-15074460D01*
X3313039Y-15074460D02*
X3303515Y-15064936D01*
X3303515Y-15064936D02*
X3293991Y-15045888D01*
X3293991Y-15045888D02*
X3284467Y-15007793D01*
X3284467Y-15007793D02*
X3284467Y-14960174D01*
X3284467Y-14960174D02*
X3293991Y-14922079D01*
X3293991Y-14922079D02*
X3303515Y-14903031D01*
X3303515Y-14903031D02*
X3313039Y-14893508D01*
X3313039Y-14893508D02*
X3332086Y-14883984D01*
X3522562Y-14883984D02*
X3541610Y-14883984D01*
X3541610Y-14883984D02*
X3560658Y-14893508D01*
X3560658Y-14893508D02*
X3570182Y-14903031D01*
X3570182Y-14903031D02*
X3579705Y-14922079D01*
X3579705Y-14922079D02*
X3589229Y-14960174D01*
X3589229Y-14960174D02*
X3589229Y-15007793D01*
X3589229Y-15007793D02*
X3579705Y-15045888D01*
X3579705Y-15045888D02*
X3570182Y-15064936D01*
X3570182Y-15064936D02*
X3560658Y-15074460D01*
X3560658Y-15074460D02*
X3541610Y-15083984D01*
X3541610Y-15083984D02*
X3522562Y-15083984D01*
X3522562Y-15083984D02*
X3503515Y-15074460D01*
X3503515Y-15074460D02*
X3493991Y-15064936D01*
X3493991Y-15064936D02*
X3484467Y-15045888D01*
X3484467Y-15045888D02*
X3474943Y-15007793D01*
X3474943Y-15007793D02*
X3474943Y-14960174D01*
X3474943Y-14960174D02*
X3484467Y-14922079D01*
X3484467Y-14922079D02*
X3493991Y-14903031D01*
X3493991Y-14903031D02*
X3503515Y-14893508D01*
X3503515Y-14893508D02*
X3522562Y-14883984D01*
X3713039Y-14883984D02*
X3732086Y-14883984D01*
X3732086Y-14883984D02*
X3751134Y-14893508D01*
X3751134Y-14893508D02*
X3760658Y-14903031D01*
X3760658Y-14903031D02*
X3770182Y-14922079D01*
X3770182Y-14922079D02*
X3779705Y-14960174D01*
X3779705Y-14960174D02*
X3779705Y-15007793D01*
X3779705Y-15007793D02*
X3770182Y-15045888D01*
X3770182Y-15045888D02*
X3760658Y-15064936D01*
X3760658Y-15064936D02*
X3751134Y-15074460D01*
X3751134Y-15074460D02*
X3732086Y-15083984D01*
X3732086Y-15083984D02*
X3713039Y-15083984D01*
X3713039Y-15083984D02*
X3693991Y-15074460D01*
X3693991Y-15074460D02*
X3684467Y-15064936D01*
X3684467Y-15064936D02*
X3674943Y-15045888D01*
X3674943Y-15045888D02*
X3665420Y-15007793D01*
X3665420Y-15007793D02*
X3665420Y-14960174D01*
X3665420Y-14960174D02*
X3674943Y-14922079D01*
X3674943Y-14922079D02*
X3684467Y-14903031D01*
X3684467Y-14903031D02*
X3693991Y-14893508D01*
X3693991Y-14893508D02*
X3713039Y-14883984D01*
X3865420Y-15083984D02*
X3865420Y-14950650D01*
X3865420Y-14969698D02*
X3874943Y-14960174D01*
X3874943Y-14960174D02*
X3893991Y-14950650D01*
X3893991Y-14950650D02*
X3922563Y-14950650D01*
X3922563Y-14950650D02*
X3941610Y-14960174D01*
X3941610Y-14960174D02*
X3951134Y-14979222D01*
X3951134Y-14979222D02*
X3951134Y-15083984D01*
X3951134Y-14979222D02*
X3960658Y-14960174D01*
X3960658Y-14960174D02*
X3979705Y-14950650D01*
X3979705Y-14950650D02*
X4008277Y-14950650D01*
X4008277Y-14950650D02*
X4027324Y-14960174D01*
X4027324Y-14960174D02*
X4036848Y-14979222D01*
X4036848Y-14979222D02*
X4036848Y-15083984D01*
X4132086Y-15083984D02*
X4132086Y-14950650D01*
X4132086Y-14969698D02*
X4141610Y-14960174D01*
X4141610Y-14960174D02*
X4160658Y-14950650D01*
X4160658Y-14950650D02*
X4189229Y-14950650D01*
X4189229Y-14950650D02*
X4208277Y-14960174D01*
X4208277Y-14960174D02*
X4217801Y-14979222D01*
X4217801Y-14979222D02*
X4217801Y-15083984D01*
X4217801Y-14979222D02*
X4227325Y-14960174D01*
X4227325Y-14960174D02*
X4246372Y-14950650D01*
X4246372Y-14950650D02*
X4274944Y-14950650D01*
X4274944Y-14950650D02*
X4293991Y-14960174D01*
X4293991Y-14960174D02*
X4303515Y-14979222D01*
X4303515Y-14979222D02*
X4303515Y-15083984D01*
X4693991Y-14874460D02*
X4522563Y-15131603D01*
X4951134Y-14883984D02*
X4970182Y-14883984D01*
X4970182Y-14883984D02*
X4989229Y-14893508D01*
X4989229Y-14893508D02*
X4998753Y-14903031D01*
X4998753Y-14903031D02*
X5008277Y-14922079D01*
X5008277Y-14922079D02*
X5017801Y-14960174D01*
X5017801Y-14960174D02*
X5017801Y-15007793D01*
X5017801Y-15007793D02*
X5008277Y-15045888D01*
X5008277Y-15045888D02*
X4998753Y-15064936D01*
X4998753Y-15064936D02*
X4989229Y-15074460D01*
X4989229Y-15074460D02*
X4970182Y-15083984D01*
X4970182Y-15083984D02*
X4951134Y-15083984D01*
X4951134Y-15083984D02*
X4932087Y-15074460D01*
X4932087Y-15074460D02*
X4922563Y-15064936D01*
X4922563Y-15064936D02*
X4913039Y-15045888D01*
X4913039Y-15045888D02*
X4903515Y-15007793D01*
X4903515Y-15007793D02*
X4903515Y-14960174D01*
X4903515Y-14960174D02*
X4913039Y-14922079D01*
X4913039Y-14922079D02*
X4922563Y-14903031D01*
X4922563Y-14903031D02*
X4932087Y-14893508D01*
X4932087Y-14893508D02*
X4951134Y-14883984D01*
X5103515Y-15064936D02*
X5113039Y-15074460D01*
X5113039Y-15074460D02*
X5103515Y-15083984D01*
X5103515Y-15083984D02*
X5093991Y-15074460D01*
X5093991Y-15074460D02*
X5103515Y-15064936D01*
X5103515Y-15064936D02*
X5103515Y-15083984D01*
X5236848Y-14883984D02*
X5255896Y-14883984D01*
X5255896Y-14883984D02*
X5274944Y-14893508D01*
X5274944Y-14893508D02*
X5284468Y-14903031D01*
X5284468Y-14903031D02*
X5293991Y-14922079D01*
X5293991Y-14922079D02*
X5303515Y-14960174D01*
X5303515Y-14960174D02*
X5303515Y-15007793D01*
X5303515Y-15007793D02*
X5293991Y-15045888D01*
X5293991Y-15045888D02*
X5284468Y-15064936D01*
X5284468Y-15064936D02*
X5274944Y-15074460D01*
X5274944Y-15074460D02*
X5255896Y-15083984D01*
X5255896Y-15083984D02*
X5236848Y-15083984D01*
X5236848Y-15083984D02*
X5217801Y-15074460D01*
X5217801Y-15074460D02*
X5208277Y-15064936D01*
X5208277Y-15064936D02*
X5198753Y-15045888D01*
X5198753Y-15045888D02*
X5189229Y-15007793D01*
X5189229Y-15007793D02*
X5189229Y-14960174D01*
X5189229Y-14960174D02*
X5198753Y-14922079D01*
X5198753Y-14922079D02*
X5208277Y-14903031D01*
X5208277Y-14903031D02*
X5217801Y-14893508D01*
X5217801Y-14893508D02*
X5236848Y-14883984D01*
X5370182Y-14883984D02*
X5503515Y-14883984D01*
X5503515Y-14883984D02*
X5417801Y-15083984D01*
X5608277Y-14969698D02*
X5589229Y-14960174D01*
X5589229Y-14960174D02*
X5579706Y-14950650D01*
X5579706Y-14950650D02*
X5570182Y-14931603D01*
X5570182Y-14931603D02*
X5570182Y-14922079D01*
X5570182Y-14922079D02*
X5579706Y-14903031D01*
X5579706Y-14903031D02*
X5589229Y-14893508D01*
X5589229Y-14893508D02*
X5608277Y-14883984D01*
X5608277Y-14883984D02*
X5646372Y-14883984D01*
X5646372Y-14883984D02*
X5665420Y-14893508D01*
X5665420Y-14893508D02*
X5674944Y-14903031D01*
X5674944Y-14903031D02*
X5684467Y-14922079D01*
X5684467Y-14922079D02*
X5684467Y-14931603D01*
X5684467Y-14931603D02*
X5674944Y-14950650D01*
X5674944Y-14950650D02*
X5665420Y-14960174D01*
X5665420Y-14960174D02*
X5646372Y-14969698D01*
X5646372Y-14969698D02*
X5608277Y-14969698D01*
X5608277Y-14969698D02*
X5589229Y-14979222D01*
X5589229Y-14979222D02*
X5579706Y-14988746D01*
X5579706Y-14988746D02*
X5570182Y-15007793D01*
X5570182Y-15007793D02*
X5570182Y-15045888D01*
X5570182Y-15045888D02*
X5579706Y-15064936D01*
X5579706Y-15064936D02*
X5589229Y-15074460D01*
X5589229Y-15074460D02*
X5608277Y-15083984D01*
X5608277Y-15083984D02*
X5646372Y-15083984D01*
X5646372Y-15083984D02*
X5665420Y-15074460D01*
X5665420Y-15074460D02*
X5674944Y-15064936D01*
X5674944Y-15064936D02*
X5684467Y-15045888D01*
X5684467Y-15045888D02*
X5684467Y-15007793D01*
X5684467Y-15007793D02*
X5674944Y-14988746D01*
X5674944Y-14988746D02*
X5665420Y-14979222D01*
X5665420Y-14979222D02*
X5646372Y-14969698D01*
X5751134Y-14883984D02*
X5884467Y-14883984D01*
X5884467Y-14883984D02*
X5798753Y-15083984D01*
X5951134Y-14883984D02*
X5951134Y-14922079D01*
X6027325Y-14883984D02*
X6027325Y-14922079D01*
X6322563Y-15160174D02*
X6313039Y-15150650D01*
X6313039Y-15150650D02*
X6293991Y-15122079D01*
X6293991Y-15122079D02*
X6284468Y-15103031D01*
X6284468Y-15103031D02*
X6274944Y-15074460D01*
X6274944Y-15074460D02*
X6265420Y-15026841D01*
X6265420Y-15026841D02*
X6265420Y-14988746D01*
X6265420Y-14988746D02*
X6274944Y-14941127D01*
X6274944Y-14941127D02*
X6284468Y-14912555D01*
X6284468Y-14912555D02*
X6293991Y-14893508D01*
X6293991Y-14893508D02*
X6313039Y-14864936D01*
X6313039Y-14864936D02*
X6322563Y-14855412D01*
X6427325Y-14969698D02*
X6408277Y-14960174D01*
X6408277Y-14960174D02*
X6398753Y-14950650D01*
X6398753Y-14950650D02*
X6389229Y-14931603D01*
X6389229Y-14931603D02*
X6389229Y-14922079D01*
X6389229Y-14922079D02*
X6398753Y-14903031D01*
X6398753Y-14903031D02*
X6408277Y-14893508D01*
X6408277Y-14893508D02*
X6427325Y-14883984D01*
X6427325Y-14883984D02*
X6465420Y-14883984D01*
X6465420Y-14883984D02*
X6484468Y-14893508D01*
X6484468Y-14893508D02*
X6493991Y-14903031D01*
X6493991Y-14903031D02*
X6503515Y-14922079D01*
X6503515Y-14922079D02*
X6503515Y-14931603D01*
X6503515Y-14931603D02*
X6493991Y-14950650D01*
X6493991Y-14950650D02*
X6484468Y-14960174D01*
X6484468Y-14960174D02*
X6465420Y-14969698D01*
X6465420Y-14969698D02*
X6427325Y-14969698D01*
X6427325Y-14969698D02*
X6408277Y-14979222D01*
X6408277Y-14979222D02*
X6398753Y-14988746D01*
X6398753Y-14988746D02*
X6389229Y-15007793D01*
X6389229Y-15007793D02*
X6389229Y-15045888D01*
X6389229Y-15045888D02*
X6398753Y-15064936D01*
X6398753Y-15064936D02*
X6408277Y-15074460D01*
X6408277Y-15074460D02*
X6427325Y-15083984D01*
X6427325Y-15083984D02*
X6465420Y-15083984D01*
X6465420Y-15083984D02*
X6484468Y-15074460D01*
X6484468Y-15074460D02*
X6493991Y-15064936D01*
X6493991Y-15064936D02*
X6503515Y-15045888D01*
X6503515Y-15045888D02*
X6503515Y-15007793D01*
X6503515Y-15007793D02*
X6493991Y-14988746D01*
X6493991Y-14988746D02*
X6484468Y-14979222D01*
X6484468Y-14979222D02*
X6465420Y-14969698D01*
X6741610Y-15083984D02*
X6741610Y-14883984D01*
X6827325Y-15083984D02*
X6827325Y-14979222D01*
X6827325Y-14979222D02*
X6817801Y-14960174D01*
X6817801Y-14960174D02*
X6798753Y-14950650D01*
X6798753Y-14950650D02*
X6770182Y-14950650D01*
X6770182Y-14950650D02*
X6751134Y-14960174D01*
X6751134Y-14960174D02*
X6741610Y-14969698D01*
X6951134Y-15083984D02*
X6932087Y-15074460D01*
X6932087Y-15074460D02*
X6922563Y-15064936D01*
X6922563Y-15064936D02*
X6913039Y-15045888D01*
X6913039Y-15045888D02*
X6913039Y-14988746D01*
X6913039Y-14988746D02*
X6922563Y-14969698D01*
X6922563Y-14969698D02*
X6932087Y-14960174D01*
X6932087Y-14960174D02*
X6951134Y-14950650D01*
X6951134Y-14950650D02*
X6979706Y-14950650D01*
X6979706Y-14950650D02*
X6998753Y-14960174D01*
X6998753Y-14960174D02*
X7008277Y-14969698D01*
X7008277Y-14969698D02*
X7017801Y-14988746D01*
X7017801Y-14988746D02*
X7017801Y-15045888D01*
X7017801Y-15045888D02*
X7008277Y-15064936D01*
X7008277Y-15064936D02*
X6998753Y-15074460D01*
X6998753Y-15074460D02*
X6979706Y-15083984D01*
X6979706Y-15083984D02*
X6951134Y-15083984D01*
X7132087Y-15083984D02*
X7113039Y-15074460D01*
X7113039Y-15074460D02*
X7103515Y-15055412D01*
X7103515Y-15055412D02*
X7103515Y-14883984D01*
X7284468Y-15074460D02*
X7265420Y-15083984D01*
X7265420Y-15083984D02*
X7227325Y-15083984D01*
X7227325Y-15083984D02*
X7208277Y-15074460D01*
X7208277Y-15074460D02*
X7198753Y-15055412D01*
X7198753Y-15055412D02*
X7198753Y-14979222D01*
X7198753Y-14979222D02*
X7208277Y-14960174D01*
X7208277Y-14960174D02*
X7227325Y-14950650D01*
X7227325Y-14950650D02*
X7265420Y-14950650D01*
X7265420Y-14950650D02*
X7284468Y-14960174D01*
X7284468Y-14960174D02*
X7293991Y-14979222D01*
X7293991Y-14979222D02*
X7293991Y-14998269D01*
X7293991Y-14998269D02*
X7198753Y-15017317D01*
X7370182Y-15074460D02*
X7389230Y-15083984D01*
X7389230Y-15083984D02*
X7427325Y-15083984D01*
X7427325Y-15083984D02*
X7446372Y-15074460D01*
X7446372Y-15074460D02*
X7455896Y-15055412D01*
X7455896Y-15055412D02*
X7455896Y-15045888D01*
X7455896Y-15045888D02*
X7446372Y-15026841D01*
X7446372Y-15026841D02*
X7427325Y-15017317D01*
X7427325Y-15017317D02*
X7398753Y-15017317D01*
X7398753Y-15017317D02*
X7379706Y-15007793D01*
X7379706Y-15007793D02*
X7370182Y-14988746D01*
X7370182Y-14988746D02*
X7370182Y-14979222D01*
X7370182Y-14979222D02*
X7379706Y-14960174D01*
X7379706Y-14960174D02*
X7398753Y-14950650D01*
X7398753Y-14950650D02*
X7427325Y-14950650D01*
X7427325Y-14950650D02*
X7446372Y-14960174D01*
X7522563Y-15160174D02*
X7532087Y-15150650D01*
X7532087Y-15150650D02*
X7551134Y-15122079D01*
X7551134Y-15122079D02*
X7560658Y-15103031D01*
X7560658Y-15103031D02*
X7570182Y-15074460D01*
X7570182Y-15074460D02*
X7579706Y-15026841D01*
X7579706Y-15026841D02*
X7579706Y-14988746D01*
X7579706Y-14988746D02*
X7570182Y-14941127D01*
X7570182Y-14941127D02*
X7560658Y-14912555D01*
X7560658Y-14912555D02*
X7551134Y-14893508D01*
X7551134Y-14893508D02*
X7532087Y-14864936D01*
X7532087Y-14864936D02*
X7522563Y-14855412D01*
X7884468Y-15160174D02*
X7874944Y-15150650D01*
X7874944Y-15150650D02*
X7855896Y-15122079D01*
X7855896Y-15122079D02*
X7846372Y-15103031D01*
X7846372Y-15103031D02*
X7836849Y-15074460D01*
X7836849Y-15074460D02*
X7827325Y-15026841D01*
X7827325Y-15026841D02*
X7827325Y-14988746D01*
X7827325Y-14988746D02*
X7836849Y-14941127D01*
X7836849Y-14941127D02*
X7846372Y-14912555D01*
X7846372Y-14912555D02*
X7855896Y-14893508D01*
X7855896Y-14893508D02*
X7874944Y-14864936D01*
X7874944Y-14864936D02*
X7884468Y-14855412D01*
X7960658Y-14950650D02*
X7960658Y-15083984D01*
X7960658Y-14969698D02*
X7970182Y-14960174D01*
X7970182Y-14960174D02*
X7989230Y-14950650D01*
X7989230Y-14950650D02*
X8017801Y-14950650D01*
X8017801Y-14950650D02*
X8036849Y-14960174D01*
X8036849Y-14960174D02*
X8046372Y-14979222D01*
X8046372Y-14979222D02*
X8046372Y-15083984D01*
X8170182Y-15083984D02*
X8151134Y-15074460D01*
X8151134Y-15074460D02*
X8141611Y-15064936D01*
X8141611Y-15064936D02*
X8132087Y-15045888D01*
X8132087Y-15045888D02*
X8132087Y-14988746D01*
X8132087Y-14988746D02*
X8141611Y-14969698D01*
X8141611Y-14969698D02*
X8151134Y-14960174D01*
X8151134Y-14960174D02*
X8170182Y-14950650D01*
X8170182Y-14950650D02*
X8198753Y-14950650D01*
X8198753Y-14950650D02*
X8217801Y-14960174D01*
X8217801Y-14960174D02*
X8227325Y-14969698D01*
X8227325Y-14969698D02*
X8236849Y-14988746D01*
X8236849Y-14988746D02*
X8236849Y-15045888D01*
X8236849Y-15045888D02*
X8227325Y-15064936D01*
X8227325Y-15064936D02*
X8217801Y-15074460D01*
X8217801Y-15074460D02*
X8198753Y-15083984D01*
X8198753Y-15083984D02*
X8170182Y-15083984D01*
X8293992Y-14950650D02*
X8370182Y-14950650D01*
X8322563Y-14883984D02*
X8322563Y-15055412D01*
X8322563Y-15055412D02*
X8332087Y-15074460D01*
X8332087Y-15074460D02*
X8351134Y-15083984D01*
X8351134Y-15083984D02*
X8370182Y-15083984D01*
X8589230Y-14950650D02*
X8589230Y-15150650D01*
X8589230Y-14960174D02*
X8608277Y-14950650D01*
X8608277Y-14950650D02*
X8646373Y-14950650D01*
X8646373Y-14950650D02*
X8665420Y-14960174D01*
X8665420Y-14960174D02*
X8674944Y-14969698D01*
X8674944Y-14969698D02*
X8684468Y-14988746D01*
X8684468Y-14988746D02*
X8684468Y-15045888D01*
X8684468Y-15045888D02*
X8674944Y-15064936D01*
X8674944Y-15064936D02*
X8665420Y-15074460D01*
X8665420Y-15074460D02*
X8646373Y-15083984D01*
X8646373Y-15083984D02*
X8608277Y-15083984D01*
X8608277Y-15083984D02*
X8589230Y-15074460D01*
X8798754Y-15083984D02*
X8779706Y-15074460D01*
X8779706Y-15074460D02*
X8770182Y-15055412D01*
X8770182Y-15055412D02*
X8770182Y-14883984D01*
X8960658Y-15083984D02*
X8960658Y-14979222D01*
X8960658Y-14979222D02*
X8951135Y-14960174D01*
X8951135Y-14960174D02*
X8932087Y-14950650D01*
X8932087Y-14950650D02*
X8893992Y-14950650D01*
X8893992Y-14950650D02*
X8874944Y-14960174D01*
X8960658Y-15074460D02*
X8941611Y-15083984D01*
X8941611Y-15083984D02*
X8893992Y-15083984D01*
X8893992Y-15083984D02*
X8874944Y-15074460D01*
X8874944Y-15074460D02*
X8865420Y-15055412D01*
X8865420Y-15055412D02*
X8865420Y-15036365D01*
X8865420Y-15036365D02*
X8874944Y-15017317D01*
X8874944Y-15017317D02*
X8893992Y-15007793D01*
X8893992Y-15007793D02*
X8941611Y-15007793D01*
X8941611Y-15007793D02*
X8960658Y-14998269D01*
X9027325Y-14950650D02*
X9103515Y-14950650D01*
X9055896Y-14883984D02*
X9055896Y-15055412D01*
X9055896Y-15055412D02*
X9065420Y-15074460D01*
X9065420Y-15074460D02*
X9084468Y-15083984D01*
X9084468Y-15083984D02*
X9103515Y-15083984D01*
X9246373Y-15074460D02*
X9227325Y-15083984D01*
X9227325Y-15083984D02*
X9189230Y-15083984D01*
X9189230Y-15083984D02*
X9170182Y-15074460D01*
X9170182Y-15074460D02*
X9160658Y-15055412D01*
X9160658Y-15055412D02*
X9160658Y-14979222D01*
X9160658Y-14979222D02*
X9170182Y-14960174D01*
X9170182Y-14960174D02*
X9189230Y-14950650D01*
X9189230Y-14950650D02*
X9227325Y-14950650D01*
X9227325Y-14950650D02*
X9246373Y-14960174D01*
X9246373Y-14960174D02*
X9255896Y-14979222D01*
X9255896Y-14979222D02*
X9255896Y-14998269D01*
X9255896Y-14998269D02*
X9160658Y-15017317D01*
X9427325Y-15083984D02*
X9427325Y-14883984D01*
X9427325Y-15074460D02*
X9408277Y-15083984D01*
X9408277Y-15083984D02*
X9370182Y-15083984D01*
X9370182Y-15083984D02*
X9351135Y-15074460D01*
X9351135Y-15074460D02*
X9341611Y-15064936D01*
X9341611Y-15064936D02*
X9332087Y-15045888D01*
X9332087Y-15045888D02*
X9332087Y-14988746D01*
X9332087Y-14988746D02*
X9341611Y-14969698D01*
X9341611Y-14969698D02*
X9351135Y-14960174D01*
X9351135Y-14960174D02*
X9370182Y-14950650D01*
X9370182Y-14950650D02*
X9408277Y-14950650D01*
X9408277Y-14950650D02*
X9427325Y-14960174D01*
X9503516Y-15160174D02*
X9513039Y-15150650D01*
X9513039Y-15150650D02*
X9532087Y-15122079D01*
X9532087Y-15122079D02*
X9541611Y-15103031D01*
X9541611Y-15103031D02*
X9551135Y-15074460D01*
X9551135Y-15074460D02*
X9560658Y-15026841D01*
X9560658Y-15026841D02*
X9560658Y-14988746D01*
X9560658Y-14988746D02*
X9551135Y-14941127D01*
X9551135Y-14941127D02*
X9541611Y-14912555D01*
X9541611Y-14912555D02*
X9532087Y-14893508D01*
X9532087Y-14893508D02*
X9513039Y-14864936D01*
X9513039Y-14864936D02*
X9503516Y-14855412D01*
X2747500Y-15312500D02*
G75*
G02*
X2547500Y-15312500I-100000J0D01*
G01*
X2547500Y-15312500D02*
G75*
G02*
X2747500Y-15312500I100000J0D01*
G01*
X3103515Y-15203984D02*
X3008277Y-15203984D01*
X3008277Y-15203984D02*
X2998753Y-15299222D01*
X2998753Y-15299222D02*
X3008277Y-15289698D01*
X3008277Y-15289698D02*
X3027324Y-15280174D01*
X3027324Y-15280174D02*
X3074943Y-15280174D01*
X3074943Y-15280174D02*
X3093991Y-15289698D01*
X3093991Y-15289698D02*
X3103515Y-15299222D01*
X3103515Y-15299222D02*
X3113039Y-15318269D01*
X3113039Y-15318269D02*
X3113039Y-15365888D01*
X3113039Y-15365888D02*
X3103515Y-15384936D01*
X3103515Y-15384936D02*
X3093991Y-15394460D01*
X3093991Y-15394460D02*
X3074943Y-15403984D01*
X3074943Y-15403984D02*
X3027324Y-15403984D01*
X3027324Y-15403984D02*
X3008277Y-15394460D01*
X3008277Y-15394460D02*
X2998753Y-15384936D01*
X3198753Y-15384936D02*
X3208277Y-15394460D01*
X3208277Y-15394460D02*
X3198753Y-15403984D01*
X3198753Y-15403984D02*
X3189229Y-15394460D01*
X3189229Y-15394460D02*
X3198753Y-15384936D01*
X3198753Y-15384936D02*
X3198753Y-15403984D01*
X3284467Y-15223031D02*
X3293991Y-15213508D01*
X3293991Y-15213508D02*
X3313039Y-15203984D01*
X3313039Y-15203984D02*
X3360658Y-15203984D01*
X3360658Y-15203984D02*
X3379705Y-15213508D01*
X3379705Y-15213508D02*
X3389229Y-15223031D01*
X3389229Y-15223031D02*
X3398753Y-15242079D01*
X3398753Y-15242079D02*
X3398753Y-15261127D01*
X3398753Y-15261127D02*
X3389229Y-15289698D01*
X3389229Y-15289698D02*
X3274943Y-15403984D01*
X3274943Y-15403984D02*
X3398753Y-15403984D01*
X3579705Y-15203984D02*
X3484467Y-15203984D01*
X3484467Y-15203984D02*
X3474943Y-15299222D01*
X3474943Y-15299222D02*
X3484467Y-15289698D01*
X3484467Y-15289698D02*
X3503515Y-15280174D01*
X3503515Y-15280174D02*
X3551134Y-15280174D01*
X3551134Y-15280174D02*
X3570182Y-15289698D01*
X3570182Y-15289698D02*
X3579705Y-15299222D01*
X3579705Y-15299222D02*
X3589229Y-15318269D01*
X3589229Y-15318269D02*
X3589229Y-15365888D01*
X3589229Y-15365888D02*
X3579705Y-15384936D01*
X3579705Y-15384936D02*
X3570182Y-15394460D01*
X3570182Y-15394460D02*
X3551134Y-15403984D01*
X3551134Y-15403984D02*
X3503515Y-15403984D01*
X3503515Y-15403984D02*
X3484467Y-15394460D01*
X3484467Y-15394460D02*
X3474943Y-15384936D01*
X3713039Y-15203984D02*
X3732086Y-15203984D01*
X3732086Y-15203984D02*
X3751134Y-15213508D01*
X3751134Y-15213508D02*
X3760658Y-15223031D01*
X3760658Y-15223031D02*
X3770182Y-15242079D01*
X3770182Y-15242079D02*
X3779705Y-15280174D01*
X3779705Y-15280174D02*
X3779705Y-15327793D01*
X3779705Y-15327793D02*
X3770182Y-15365888D01*
X3770182Y-15365888D02*
X3760658Y-15384936D01*
X3760658Y-15384936D02*
X3751134Y-15394460D01*
X3751134Y-15394460D02*
X3732086Y-15403984D01*
X3732086Y-15403984D02*
X3713039Y-15403984D01*
X3713039Y-15403984D02*
X3693991Y-15394460D01*
X3693991Y-15394460D02*
X3684467Y-15384936D01*
X3684467Y-15384936D02*
X3674943Y-15365888D01*
X3674943Y-15365888D02*
X3665420Y-15327793D01*
X3665420Y-15327793D02*
X3665420Y-15280174D01*
X3665420Y-15280174D02*
X3674943Y-15242079D01*
X3674943Y-15242079D02*
X3684467Y-15223031D01*
X3684467Y-15223031D02*
X3693991Y-15213508D01*
X3693991Y-15213508D02*
X3713039Y-15203984D01*
X3865420Y-15403984D02*
X3865420Y-15270650D01*
X3865420Y-15289698D02*
X3874943Y-15280174D01*
X3874943Y-15280174D02*
X3893991Y-15270650D01*
X3893991Y-15270650D02*
X3922563Y-15270650D01*
X3922563Y-15270650D02*
X3941610Y-15280174D01*
X3941610Y-15280174D02*
X3951134Y-15299222D01*
X3951134Y-15299222D02*
X3951134Y-15403984D01*
X3951134Y-15299222D02*
X3960658Y-15280174D01*
X3960658Y-15280174D02*
X3979705Y-15270650D01*
X3979705Y-15270650D02*
X4008277Y-15270650D01*
X4008277Y-15270650D02*
X4027324Y-15280174D01*
X4027324Y-15280174D02*
X4036848Y-15299222D01*
X4036848Y-15299222D02*
X4036848Y-15403984D01*
X4132086Y-15403984D02*
X4132086Y-15270650D01*
X4132086Y-15289698D02*
X4141610Y-15280174D01*
X4141610Y-15280174D02*
X4160658Y-15270650D01*
X4160658Y-15270650D02*
X4189229Y-15270650D01*
X4189229Y-15270650D02*
X4208277Y-15280174D01*
X4208277Y-15280174D02*
X4217801Y-15299222D01*
X4217801Y-15299222D02*
X4217801Y-15403984D01*
X4217801Y-15299222D02*
X4227325Y-15280174D01*
X4227325Y-15280174D02*
X4246372Y-15270650D01*
X4246372Y-15270650D02*
X4274944Y-15270650D01*
X4274944Y-15270650D02*
X4293991Y-15280174D01*
X4293991Y-15280174D02*
X4303515Y-15299222D01*
X4303515Y-15299222D02*
X4303515Y-15403984D01*
X4693991Y-15194460D02*
X4522563Y-15451603D01*
X4951134Y-15203984D02*
X4970182Y-15203984D01*
X4970182Y-15203984D02*
X4989229Y-15213508D01*
X4989229Y-15213508D02*
X4998753Y-15223031D01*
X4998753Y-15223031D02*
X5008277Y-15242079D01*
X5008277Y-15242079D02*
X5017801Y-15280174D01*
X5017801Y-15280174D02*
X5017801Y-15327793D01*
X5017801Y-15327793D02*
X5008277Y-15365888D01*
X5008277Y-15365888D02*
X4998753Y-15384936D01*
X4998753Y-15384936D02*
X4989229Y-15394460D01*
X4989229Y-15394460D02*
X4970182Y-15403984D01*
X4970182Y-15403984D02*
X4951134Y-15403984D01*
X4951134Y-15403984D02*
X4932087Y-15394460D01*
X4932087Y-15394460D02*
X4922563Y-15384936D01*
X4922563Y-15384936D02*
X4913039Y-15365888D01*
X4913039Y-15365888D02*
X4903515Y-15327793D01*
X4903515Y-15327793D02*
X4903515Y-15280174D01*
X4903515Y-15280174D02*
X4913039Y-15242079D01*
X4913039Y-15242079D02*
X4922563Y-15223031D01*
X4922563Y-15223031D02*
X4932087Y-15213508D01*
X4932087Y-15213508D02*
X4951134Y-15203984D01*
X5103515Y-15384936D02*
X5113039Y-15394460D01*
X5113039Y-15394460D02*
X5103515Y-15403984D01*
X5103515Y-15403984D02*
X5093991Y-15394460D01*
X5093991Y-15394460D02*
X5103515Y-15384936D01*
X5103515Y-15384936D02*
X5103515Y-15403984D01*
X5189229Y-15223031D02*
X5198753Y-15213508D01*
X5198753Y-15213508D02*
X5217801Y-15203984D01*
X5217801Y-15203984D02*
X5265420Y-15203984D01*
X5265420Y-15203984D02*
X5284468Y-15213508D01*
X5284468Y-15213508D02*
X5293991Y-15223031D01*
X5293991Y-15223031D02*
X5303515Y-15242079D01*
X5303515Y-15242079D02*
X5303515Y-15261127D01*
X5303515Y-15261127D02*
X5293991Y-15289698D01*
X5293991Y-15289698D02*
X5179706Y-15403984D01*
X5179706Y-15403984D02*
X5303515Y-15403984D01*
X5427325Y-15203984D02*
X5446372Y-15203984D01*
X5446372Y-15203984D02*
X5465420Y-15213508D01*
X5465420Y-15213508D02*
X5474944Y-15223031D01*
X5474944Y-15223031D02*
X5484468Y-15242079D01*
X5484468Y-15242079D02*
X5493991Y-15280174D01*
X5493991Y-15280174D02*
X5493991Y-15327793D01*
X5493991Y-15327793D02*
X5484468Y-15365888D01*
X5484468Y-15365888D02*
X5474944Y-15384936D01*
X5474944Y-15384936D02*
X5465420Y-15394460D01*
X5465420Y-15394460D02*
X5446372Y-15403984D01*
X5446372Y-15403984D02*
X5427325Y-15403984D01*
X5427325Y-15403984D02*
X5408277Y-15394460D01*
X5408277Y-15394460D02*
X5398753Y-15384936D01*
X5398753Y-15384936D02*
X5389229Y-15365888D01*
X5389229Y-15365888D02*
X5379706Y-15327793D01*
X5379706Y-15327793D02*
X5379706Y-15280174D01*
X5379706Y-15280174D02*
X5389229Y-15242079D01*
X5389229Y-15242079D02*
X5398753Y-15223031D01*
X5398753Y-15223031D02*
X5408277Y-15213508D01*
X5408277Y-15213508D02*
X5427325Y-15203984D01*
X5665420Y-15203984D02*
X5627325Y-15203984D01*
X5627325Y-15203984D02*
X5608277Y-15213508D01*
X5608277Y-15213508D02*
X5598753Y-15223031D01*
X5598753Y-15223031D02*
X5579706Y-15251603D01*
X5579706Y-15251603D02*
X5570182Y-15289698D01*
X5570182Y-15289698D02*
X5570182Y-15365888D01*
X5570182Y-15365888D02*
X5579706Y-15384936D01*
X5579706Y-15384936D02*
X5589229Y-15394460D01*
X5589229Y-15394460D02*
X5608277Y-15403984D01*
X5608277Y-15403984D02*
X5646372Y-15403984D01*
X5646372Y-15403984D02*
X5665420Y-15394460D01*
X5665420Y-15394460D02*
X5674944Y-15384936D01*
X5674944Y-15384936D02*
X5684467Y-15365888D01*
X5684467Y-15365888D02*
X5684467Y-15318269D01*
X5684467Y-15318269D02*
X5674944Y-15299222D01*
X5674944Y-15299222D02*
X5665420Y-15289698D01*
X5665420Y-15289698D02*
X5646372Y-15280174D01*
X5646372Y-15280174D02*
X5608277Y-15280174D01*
X5608277Y-15280174D02*
X5589229Y-15289698D01*
X5589229Y-15289698D02*
X5579706Y-15299222D01*
X5579706Y-15299222D02*
X5570182Y-15318269D01*
X5751134Y-15203984D02*
X5884467Y-15203984D01*
X5884467Y-15203984D02*
X5798753Y-15403984D01*
X5951134Y-15203984D02*
X5951134Y-15242079D01*
X6027325Y-15203984D02*
X6027325Y-15242079D01*
X6322563Y-15480174D02*
X6313039Y-15470650D01*
X6313039Y-15470650D02*
X6293991Y-15442079D01*
X6293991Y-15442079D02*
X6284468Y-15423031D01*
X6284468Y-15423031D02*
X6274944Y-15394460D01*
X6274944Y-15394460D02*
X6265420Y-15346841D01*
X6265420Y-15346841D02*
X6265420Y-15308746D01*
X6265420Y-15308746D02*
X6274944Y-15261127D01*
X6274944Y-15261127D02*
X6284468Y-15232555D01*
X6284468Y-15232555D02*
X6293991Y-15213508D01*
X6293991Y-15213508D02*
X6313039Y-15184936D01*
X6313039Y-15184936D02*
X6322563Y-15175412D01*
X6484468Y-15270650D02*
X6484468Y-15403984D01*
X6436848Y-15194460D02*
X6389229Y-15337317D01*
X6389229Y-15337317D02*
X6513039Y-15337317D01*
X6627325Y-15203984D02*
X6646372Y-15203984D01*
X6646372Y-15203984D02*
X6665420Y-15213508D01*
X6665420Y-15213508D02*
X6674944Y-15223031D01*
X6674944Y-15223031D02*
X6684468Y-15242079D01*
X6684468Y-15242079D02*
X6693991Y-15280174D01*
X6693991Y-15280174D02*
X6693991Y-15327793D01*
X6693991Y-15327793D02*
X6684468Y-15365888D01*
X6684468Y-15365888D02*
X6674944Y-15384936D01*
X6674944Y-15384936D02*
X6665420Y-15394460D01*
X6665420Y-15394460D02*
X6646372Y-15403984D01*
X6646372Y-15403984D02*
X6627325Y-15403984D01*
X6627325Y-15403984D02*
X6608277Y-15394460D01*
X6608277Y-15394460D02*
X6598753Y-15384936D01*
X6598753Y-15384936D02*
X6589229Y-15365888D01*
X6589229Y-15365888D02*
X6579706Y-15327793D01*
X6579706Y-15327793D02*
X6579706Y-15280174D01*
X6579706Y-15280174D02*
X6589229Y-15242079D01*
X6589229Y-15242079D02*
X6598753Y-15223031D01*
X6598753Y-15223031D02*
X6608277Y-15213508D01*
X6608277Y-15213508D02*
X6627325Y-15203984D01*
X6932087Y-15403984D02*
X6932087Y-15203984D01*
X7017801Y-15403984D02*
X7017801Y-15299222D01*
X7017801Y-15299222D02*
X7008277Y-15280174D01*
X7008277Y-15280174D02*
X6989230Y-15270650D01*
X6989230Y-15270650D02*
X6960658Y-15270650D01*
X6960658Y-15270650D02*
X6941610Y-15280174D01*
X6941610Y-15280174D02*
X6932087Y-15289698D01*
X7141610Y-15403984D02*
X7122563Y-15394460D01*
X7122563Y-15394460D02*
X7113039Y-15384936D01*
X7113039Y-15384936D02*
X7103515Y-15365888D01*
X7103515Y-15365888D02*
X7103515Y-15308746D01*
X7103515Y-15308746D02*
X7113039Y-15289698D01*
X7113039Y-15289698D02*
X7122563Y-15280174D01*
X7122563Y-15280174D02*
X7141610Y-15270650D01*
X7141610Y-15270650D02*
X7170182Y-15270650D01*
X7170182Y-15270650D02*
X7189230Y-15280174D01*
X7189230Y-15280174D02*
X7198753Y-15289698D01*
X7198753Y-15289698D02*
X7208277Y-15308746D01*
X7208277Y-15308746D02*
X7208277Y-15365888D01*
X7208277Y-15365888D02*
X7198753Y-15384936D01*
X7198753Y-15384936D02*
X7189230Y-15394460D01*
X7189230Y-15394460D02*
X7170182Y-15403984D01*
X7170182Y-15403984D02*
X7141610Y-15403984D01*
X7322563Y-15403984D02*
X7303515Y-15394460D01*
X7303515Y-15394460D02*
X7293991Y-15375412D01*
X7293991Y-15375412D02*
X7293991Y-15203984D01*
X7474944Y-15394460D02*
X7455896Y-15403984D01*
X7455896Y-15403984D02*
X7417801Y-15403984D01*
X7417801Y-15403984D02*
X7398753Y-15394460D01*
X7398753Y-15394460D02*
X7389230Y-15375412D01*
X7389230Y-15375412D02*
X7389230Y-15299222D01*
X7389230Y-15299222D02*
X7398753Y-15280174D01*
X7398753Y-15280174D02*
X7417801Y-15270650D01*
X7417801Y-15270650D02*
X7455896Y-15270650D01*
X7455896Y-15270650D02*
X7474944Y-15280174D01*
X7474944Y-15280174D02*
X7484468Y-15299222D01*
X7484468Y-15299222D02*
X7484468Y-15318269D01*
X7484468Y-15318269D02*
X7389230Y-15337317D01*
X7560658Y-15394460D02*
X7579706Y-15403984D01*
X7579706Y-15403984D02*
X7617801Y-15403984D01*
X7617801Y-15403984D02*
X7636849Y-15394460D01*
X7636849Y-15394460D02*
X7646372Y-15375412D01*
X7646372Y-15375412D02*
X7646372Y-15365888D01*
X7646372Y-15365888D02*
X7636849Y-15346841D01*
X7636849Y-15346841D02*
X7617801Y-15337317D01*
X7617801Y-15337317D02*
X7589230Y-15337317D01*
X7589230Y-15337317D02*
X7570182Y-15327793D01*
X7570182Y-15327793D02*
X7560658Y-15308746D01*
X7560658Y-15308746D02*
X7560658Y-15299222D01*
X7560658Y-15299222D02*
X7570182Y-15280174D01*
X7570182Y-15280174D02*
X7589230Y-15270650D01*
X7589230Y-15270650D02*
X7617801Y-15270650D01*
X7617801Y-15270650D02*
X7636849Y-15280174D01*
X7713039Y-15480174D02*
X7722563Y-15470650D01*
X7722563Y-15470650D02*
X7741611Y-15442079D01*
X7741611Y-15442079D02*
X7751134Y-15423031D01*
X7751134Y-15423031D02*
X7760658Y-15394460D01*
X7760658Y-15394460D02*
X7770182Y-15346841D01*
X7770182Y-15346841D02*
X7770182Y-15308746D01*
X7770182Y-15308746D02*
X7760658Y-15261127D01*
X7760658Y-15261127D02*
X7751134Y-15232555D01*
X7751134Y-15232555D02*
X7741611Y-15213508D01*
X7741611Y-15213508D02*
X7722563Y-15184936D01*
X7722563Y-15184936D02*
X7713039Y-15175412D01*
X8074944Y-15480174D02*
X8065420Y-15470650D01*
X8065420Y-15470650D02*
X8046372Y-15442079D01*
X8046372Y-15442079D02*
X8036849Y-15423031D01*
X8036849Y-15423031D02*
X8027325Y-15394460D01*
X8027325Y-15394460D02*
X8017801Y-15346841D01*
X8017801Y-15346841D02*
X8017801Y-15308746D01*
X8017801Y-15308746D02*
X8027325Y-15261127D01*
X8027325Y-15261127D02*
X8036849Y-15232555D01*
X8036849Y-15232555D02*
X8046372Y-15213508D01*
X8046372Y-15213508D02*
X8065420Y-15184936D01*
X8065420Y-15184936D02*
X8074944Y-15175412D01*
X8151134Y-15270650D02*
X8151134Y-15403984D01*
X8151134Y-15289698D02*
X8160658Y-15280174D01*
X8160658Y-15280174D02*
X8179706Y-15270650D01*
X8179706Y-15270650D02*
X8208277Y-15270650D01*
X8208277Y-15270650D02*
X8227325Y-15280174D01*
X8227325Y-15280174D02*
X8236849Y-15299222D01*
X8236849Y-15299222D02*
X8236849Y-15403984D01*
X8360658Y-15403984D02*
X8341611Y-15394460D01*
X8341611Y-15394460D02*
X8332087Y-15384936D01*
X8332087Y-15384936D02*
X8322563Y-15365888D01*
X8322563Y-15365888D02*
X8322563Y-15308746D01*
X8322563Y-15308746D02*
X8332087Y-15289698D01*
X8332087Y-15289698D02*
X8341611Y-15280174D01*
X8341611Y-15280174D02*
X8360658Y-15270650D01*
X8360658Y-15270650D02*
X8389230Y-15270650D01*
X8389230Y-15270650D02*
X8408277Y-15280174D01*
X8408277Y-15280174D02*
X8417801Y-15289698D01*
X8417801Y-15289698D02*
X8427325Y-15308746D01*
X8427325Y-15308746D02*
X8427325Y-15365888D01*
X8427325Y-15365888D02*
X8417801Y-15384936D01*
X8417801Y-15384936D02*
X8408277Y-15394460D01*
X8408277Y-15394460D02*
X8389230Y-15403984D01*
X8389230Y-15403984D02*
X8360658Y-15403984D01*
X8484468Y-15270650D02*
X8560658Y-15270650D01*
X8513039Y-15203984D02*
X8513039Y-15375412D01*
X8513039Y-15375412D02*
X8522563Y-15394460D01*
X8522563Y-15394460D02*
X8541611Y-15403984D01*
X8541611Y-15403984D02*
X8560658Y-15403984D01*
X8779706Y-15270650D02*
X8779706Y-15470650D01*
X8779706Y-15280174D02*
X8798754Y-15270650D01*
X8798754Y-15270650D02*
X8836849Y-15270650D01*
X8836849Y-15270650D02*
X8855896Y-15280174D01*
X8855896Y-15280174D02*
X8865420Y-15289698D01*
X8865420Y-15289698D02*
X8874944Y-15308746D01*
X8874944Y-15308746D02*
X8874944Y-15365888D01*
X8874944Y-15365888D02*
X8865420Y-15384936D01*
X8865420Y-15384936D02*
X8855896Y-15394460D01*
X8855896Y-15394460D02*
X8836849Y-15403984D01*
X8836849Y-15403984D02*
X8798754Y-15403984D01*
X8798754Y-15403984D02*
X8779706Y-15394460D01*
X8989230Y-15403984D02*
X8970182Y-15394460D01*
X8970182Y-15394460D02*
X8960658Y-15375412D01*
X8960658Y-15375412D02*
X8960658Y-15203984D01*
X9151135Y-15403984D02*
X9151135Y-15299222D01*
X9151135Y-15299222D02*
X9141611Y-15280174D01*
X9141611Y-15280174D02*
X9122563Y-15270650D01*
X9122563Y-15270650D02*
X9084468Y-15270650D01*
X9084468Y-15270650D02*
X9065420Y-15280174D01*
X9151135Y-15394460D02*
X9132087Y-15403984D01*
X9132087Y-15403984D02*
X9084468Y-15403984D01*
X9084468Y-15403984D02*
X9065420Y-15394460D01*
X9065420Y-15394460D02*
X9055896Y-15375412D01*
X9055896Y-15375412D02*
X9055896Y-15356365D01*
X9055896Y-15356365D02*
X9065420Y-15337317D01*
X9065420Y-15337317D02*
X9084468Y-15327793D01*
X9084468Y-15327793D02*
X9132087Y-15327793D01*
X9132087Y-15327793D02*
X9151135Y-15318269D01*
X9217801Y-15270650D02*
X9293992Y-15270650D01*
X9246373Y-15203984D02*
X9246373Y-15375412D01*
X9246373Y-15375412D02*
X9255896Y-15394460D01*
X9255896Y-15394460D02*
X9274944Y-15403984D01*
X9274944Y-15403984D02*
X9293992Y-15403984D01*
X9436849Y-15394460D02*
X9417801Y-15403984D01*
X9417801Y-15403984D02*
X9379706Y-15403984D01*
X9379706Y-15403984D02*
X9360658Y-15394460D01*
X9360658Y-15394460D02*
X9351135Y-15375412D01*
X9351135Y-15375412D02*
X9351135Y-15299222D01*
X9351135Y-15299222D02*
X9360658Y-15280174D01*
X9360658Y-15280174D02*
X9379706Y-15270650D01*
X9379706Y-15270650D02*
X9417801Y-15270650D01*
X9417801Y-15270650D02*
X9436849Y-15280174D01*
X9436849Y-15280174D02*
X9446373Y-15299222D01*
X9446373Y-15299222D02*
X9446373Y-15318269D01*
X9446373Y-15318269D02*
X9351135Y-15337317D01*
X9617801Y-15403984D02*
X9617801Y-15203984D01*
X9617801Y-15394460D02*
X9598754Y-15403984D01*
X9598754Y-15403984D02*
X9560658Y-15403984D01*
X9560658Y-15403984D02*
X9541611Y-15394460D01*
X9541611Y-15394460D02*
X9532087Y-15384936D01*
X9532087Y-15384936D02*
X9522563Y-15365888D01*
X9522563Y-15365888D02*
X9522563Y-15308746D01*
X9522563Y-15308746D02*
X9532087Y-15289698D01*
X9532087Y-15289698D02*
X9541611Y-15280174D01*
X9541611Y-15280174D02*
X9560658Y-15270650D01*
X9560658Y-15270650D02*
X9598754Y-15270650D01*
X9598754Y-15270650D02*
X9617801Y-15280174D01*
X9693992Y-15480174D02*
X9703516Y-15470650D01*
X9703516Y-15470650D02*
X9722563Y-15442079D01*
X9722563Y-15442079D02*
X9732087Y-15423031D01*
X9732087Y-15423031D02*
X9741611Y-15394460D01*
X9741611Y-15394460D02*
X9751135Y-15346841D01*
X9751135Y-15346841D02*
X9751135Y-15308746D01*
X9751135Y-15308746D02*
X9741611Y-15261127D01*
X9741611Y-15261127D02*
X9732087Y-15232555D01*
X9732087Y-15232555D02*
X9722563Y-15213508D01*
X9722563Y-15213508D02*
X9703516Y-15184936D01*
X9703516Y-15184936D02*
X9693992Y-15175412D01*
M02*
