%TF.GenerationSoftware,KiCad,Pcbnew,9.0.2*%
%TF.CreationDate,2025-06-22T14:38:31+01:00*%
%TF.ProjectId,just-40-top,6a757374-2d34-4302-9d74-6f702e6b6963,rev?*%
%TF.SameCoordinates,Original*%
%TF.FileFunction,Soldermask,Bot*%
%TF.FilePolarity,Negative*%
%FSLAX46Y46*%
G04 Gerber Fmt 4.6, Leading zero omitted, Abs format (unit mm)*
G04 Created by KiCad (PCBNEW 9.0.2) date 2025-06-22 14:38:31*
%MOMM*%
%LPD*%
G01*
G04 APERTURE LIST*
G04 Aperture macros list*
%AMRoundRect*
0 Rectangle with rounded corners*
0 $1 Rounding radius*
0 $2 $3 $4 $5 $6 $7 $8 $9 X,Y pos of 4 corners*
0 Add a 4 corners polygon primitive as box body*
4,1,4,$2,$3,$4,$5,$6,$7,$8,$9,$2,$3,0*
0 Add four circle primitives for the rounded corners*
1,1,$1+$1,$2,$3*
1,1,$1+$1,$4,$5*
1,1,$1+$1,$6,$7*
1,1,$1+$1,$8,$9*
0 Add four rect primitives between the rounded corners*
20,1,$1+$1,$2,$3,$4,$5,0*
20,1,$1+$1,$4,$5,$6,$7,0*
20,1,$1+$1,$6,$7,$8,$9,0*
20,1,$1+$1,$8,$9,$2,$3,0*%
G04 Aperture macros list end*
%ADD10C,2.000000*%
%ADD11C,5.250000*%
%ADD12R,1.300000X0.820000*%
%ADD13C,3.000000*%
%ADD14R,2.000000X1.400000*%
%ADD15RoundRect,0.180000X0.420000X-0.420000X0.420000X0.420000X-0.420000X0.420000X-0.420000X-0.420000X0*%
%ADD16R,1.200000X1.200000*%
G04 APERTURE END LIST*
D10*
%TO.C,H4*%
X265000000Y-67500000D03*
%TD*%
%TO.C,H1*%
X29500000Y-67500000D03*
%TD*%
D11*
%TO.C,A9*%
X190000000Y-76000000D03*
D12*
X193500000Y-70075000D03*
X193500000Y-71575000D03*
X187900000Y-71575000D03*
X187900000Y-70075000D03*
D13*
X185600000Y-80700000D03*
X192600000Y-81750000D03*
D14*
X184150000Y-73675000D03*
X184150000Y-70075000D03*
D15*
X189100000Y-80800000D03*
D16*
X189100000Y-84000000D03*
%TD*%
D10*
%TO.C,H5*%
X29500000Y-141500000D03*
%TD*%
D11*
%TO.C,A21*%
X194750000Y-95000000D03*
D12*
X198250000Y-89075000D03*
X198250000Y-90575000D03*
X192650000Y-90575000D03*
X192650000Y-89075000D03*
D13*
X190350000Y-99700000D03*
X197350000Y-100750000D03*
D14*
X188900000Y-92675000D03*
X188900000Y-89075000D03*
D15*
X193850000Y-99800000D03*
D16*
X193850000Y-103000000D03*
%TD*%
D10*
%TO.C,H7*%
X180500000Y-141500000D03*
%TD*%
D11*
%TO.C,A22*%
X213750000Y-95000000D03*
D12*
X217250000Y-89075000D03*
X217250000Y-90575000D03*
X211650000Y-90575000D03*
X211650000Y-89075000D03*
D13*
X209350000Y-99700000D03*
X216350000Y-100750000D03*
D14*
X207900000Y-92675000D03*
X207900000Y-89075000D03*
D15*
X212850000Y-99800000D03*
D16*
X212850000Y-103000000D03*
%TD*%
D11*
%TO.C,A17*%
X118750000Y-95000000D03*
D12*
X122250000Y-89075000D03*
X122250000Y-90575000D03*
X116650000Y-90575000D03*
X116650000Y-89075000D03*
D13*
X114350000Y-99700000D03*
X121350000Y-100750000D03*
D14*
X112900000Y-92675000D03*
X112900000Y-89075000D03*
D15*
X117850000Y-99800000D03*
D16*
X117850000Y-103000000D03*
%TD*%
D11*
%TO.C,A36*%
X76000000Y-133000000D03*
D12*
X79500000Y-127075000D03*
X79500000Y-128575000D03*
X73900000Y-128575000D03*
X73900000Y-127075000D03*
D13*
X71600000Y-137700000D03*
X78600000Y-138750000D03*
D14*
X70150000Y-130675000D03*
X70150000Y-127075000D03*
D15*
X75100000Y-137800000D03*
D16*
X75100000Y-141000000D03*
%TD*%
D11*
%TO.C,A18*%
X137750000Y-95000000D03*
D12*
X141250000Y-89075000D03*
X141250000Y-90575000D03*
X135650000Y-90575000D03*
X135650000Y-89075000D03*
D13*
X133350000Y-99700000D03*
X140350000Y-100750000D03*
D14*
X131900000Y-92675000D03*
X131900000Y-89075000D03*
D15*
X136850000Y-99800000D03*
D16*
X136850000Y-103000000D03*
%TD*%
D11*
%TO.C,A28*%
X128250000Y-114000000D03*
D12*
X131750000Y-108075000D03*
X131750000Y-109575000D03*
X126150000Y-109575000D03*
X126150000Y-108075000D03*
D13*
X123850000Y-118700000D03*
X130850000Y-119750000D03*
D14*
X122400000Y-111675000D03*
X122400000Y-108075000D03*
D15*
X127350000Y-118800000D03*
D16*
X127350000Y-122000000D03*
%TD*%
D11*
%TO.C,A33*%
X239875000Y-114000000D03*
D12*
X243375000Y-108075000D03*
X243375000Y-109575000D03*
X237775000Y-109575000D03*
X237775000Y-108075000D03*
D13*
X235475000Y-118700000D03*
X242475000Y-119750000D03*
D14*
X234025000Y-111675000D03*
X234025000Y-108075000D03*
D15*
X238975000Y-118800000D03*
D16*
X238975000Y-122000000D03*
%TD*%
D11*
%TO.C,A2*%
X57000000Y-76000000D03*
D12*
X60500000Y-70075000D03*
X60500000Y-71575000D03*
X54900000Y-71575000D03*
X54900000Y-70075000D03*
D13*
X52600000Y-80700000D03*
X59600000Y-81750000D03*
D14*
X51150000Y-73675000D03*
X51150000Y-70075000D03*
D15*
X56100000Y-80800000D03*
D16*
X56100000Y-84000000D03*
%TD*%
D11*
%TO.C,A35*%
X57000000Y-133000000D03*
D12*
X60500000Y-127075000D03*
X60500000Y-128575000D03*
X54900000Y-128575000D03*
X54900000Y-127075000D03*
D13*
X52600000Y-137700000D03*
X59600000Y-138750000D03*
D14*
X51150000Y-130675000D03*
X51150000Y-127075000D03*
D15*
X56100000Y-137800000D03*
D16*
X56100000Y-141000000D03*
%TD*%
D10*
%TO.C,H8*%
X265000000Y-141500000D03*
%TD*%
D11*
%TO.C,A34*%
X38000000Y-133000000D03*
D12*
X41500000Y-127075000D03*
X41500000Y-128575000D03*
X35900000Y-128575000D03*
X35900000Y-127075000D03*
D13*
X33600000Y-137700000D03*
X40600000Y-138750000D03*
D14*
X32150000Y-130675000D03*
X32150000Y-127075000D03*
D15*
X37100000Y-137800000D03*
D16*
X37100000Y-141000000D03*
%TD*%
D11*
%TO.C,A29*%
X147250000Y-114000000D03*
D12*
X150750000Y-108075000D03*
X150750000Y-109575000D03*
X145150000Y-109575000D03*
X145150000Y-108075000D03*
D13*
X142850000Y-118700000D03*
X149850000Y-119750000D03*
D14*
X141400000Y-111675000D03*
X141400000Y-108075000D03*
D15*
X146350000Y-118800000D03*
D16*
X146350000Y-122000000D03*
%TD*%
D10*
%TO.C,H6*%
X104500000Y-141500000D03*
%TD*%
D11*
%TO.C,A31*%
X185250000Y-114000000D03*
D12*
X188750000Y-108075000D03*
X188750000Y-109575000D03*
X183150000Y-109575000D03*
X183150000Y-108075000D03*
D13*
X180850000Y-118700000D03*
X187850000Y-119750000D03*
D14*
X179400000Y-111675000D03*
X179400000Y-108075000D03*
D15*
X184350000Y-118800000D03*
D16*
X184350000Y-122000000D03*
%TD*%
D11*
%TO.C,A7*%
X152000000Y-76000000D03*
D12*
X155500000Y-70075000D03*
X155500000Y-71575000D03*
X149900000Y-71575000D03*
X149900000Y-70075000D03*
D13*
X147600000Y-80700000D03*
X154600000Y-81750000D03*
D14*
X146150000Y-73675000D03*
X146150000Y-70075000D03*
D15*
X151100000Y-80800000D03*
D16*
X151100000Y-84000000D03*
%TD*%
D11*
%TO.C,A1*%
X38000000Y-76000000D03*
D12*
X41500000Y-70075000D03*
X41500000Y-71575000D03*
X35900000Y-71575000D03*
X35900000Y-70075000D03*
D13*
X33600000Y-80700000D03*
X40600000Y-81750000D03*
D14*
X32150000Y-73675000D03*
X32150000Y-70075000D03*
D15*
X37100000Y-80800000D03*
D16*
X37100000Y-84000000D03*
%TD*%
D11*
%TO.C,A27*%
X109250000Y-114000000D03*
D12*
X112750000Y-108075000D03*
X112750000Y-109575000D03*
X107150000Y-109575000D03*
X107150000Y-108075000D03*
D13*
X104850000Y-118700000D03*
X111850000Y-119750000D03*
D14*
X103400000Y-111675000D03*
X103400000Y-108075000D03*
D15*
X108350000Y-118800000D03*
D16*
X108350000Y-122000000D03*
%TD*%
D11*
%TO.C,A4*%
X95000000Y-76000000D03*
D12*
X98500000Y-70075000D03*
X98500000Y-71575000D03*
X92900000Y-71575000D03*
X92900000Y-70075000D03*
D13*
X90600000Y-80700000D03*
X97600000Y-81750000D03*
D14*
X89150000Y-73675000D03*
X89150000Y-70075000D03*
D15*
X94100000Y-80800000D03*
D16*
X94100000Y-84000000D03*
%TD*%
D11*
%TO.C,A23*%
X244625000Y-95000000D03*
D12*
X248125000Y-89075000D03*
X248125000Y-90575000D03*
X242525000Y-90575000D03*
X242525000Y-89075000D03*
D13*
X240225000Y-99700000D03*
X247225000Y-100750000D03*
D14*
X238775000Y-92675000D03*
X238775000Y-89075000D03*
D15*
X243725000Y-99800000D03*
D16*
X243725000Y-103000000D03*
%TD*%
D11*
%TO.C,A26*%
X90250000Y-114000000D03*
D12*
X93750000Y-108075000D03*
X93750000Y-109575000D03*
X88150000Y-109575000D03*
X88150000Y-108075000D03*
D13*
X85850000Y-118700000D03*
X92850000Y-119750000D03*
D14*
X84400000Y-111675000D03*
X84400000Y-108075000D03*
D15*
X89350000Y-118800000D03*
D16*
X89350000Y-122000000D03*
%TD*%
D11*
%TO.C,A40*%
X254125000Y-133000000D03*
D12*
X257625000Y-127075000D03*
X257625000Y-128575000D03*
X252025000Y-128575000D03*
X252025000Y-127075000D03*
D13*
X249725000Y-137700000D03*
X256725000Y-138750000D03*
D14*
X248275000Y-130675000D03*
X248275000Y-127075000D03*
D15*
X253225000Y-137800000D03*
D16*
X253225000Y-141000000D03*
%TD*%
D11*
%TO.C,A11*%
X228000000Y-76000000D03*
D12*
X231500000Y-70075000D03*
X231500000Y-71575000D03*
X225900000Y-71575000D03*
X225900000Y-70075000D03*
D13*
X223600000Y-80700000D03*
X230600000Y-81750000D03*
D14*
X222150000Y-73675000D03*
X222150000Y-70075000D03*
D15*
X227100000Y-80800000D03*
D16*
X227100000Y-84000000D03*
%TD*%
D11*
%TO.C,A24*%
X45125000Y-114000000D03*
D12*
X48625000Y-108075000D03*
X48625000Y-109575000D03*
X43025000Y-109575000D03*
X43025000Y-108075000D03*
D13*
X40725000Y-118700000D03*
X47725000Y-119750000D03*
D14*
X39275000Y-111675000D03*
X39275000Y-108075000D03*
D15*
X44225000Y-118800000D03*
D16*
X44225000Y-122000000D03*
%TD*%
D11*
%TO.C,A37*%
X144875000Y-133000000D03*
D12*
X148375000Y-127075000D03*
X148375000Y-128575000D03*
X142775000Y-128575000D03*
X142775000Y-127075000D03*
D13*
X140475000Y-137700000D03*
X147475000Y-138750000D03*
D14*
X139025000Y-130675000D03*
X139025000Y-127075000D03*
D15*
X143975000Y-137800000D03*
D16*
X143975000Y-141000000D03*
%TD*%
D11*
%TO.C,A12*%
X251750000Y-76000000D03*
D12*
X255250000Y-70075000D03*
X255250000Y-71575000D03*
X249650000Y-71575000D03*
X249650000Y-70075000D03*
D13*
X247350000Y-80700000D03*
X254350000Y-81750000D03*
D14*
X245900000Y-73675000D03*
X245900000Y-70075000D03*
D15*
X250850000Y-80800000D03*
D16*
X250850000Y-84000000D03*
%TD*%
D11*
%TO.C,A10*%
X209000000Y-76000000D03*
D12*
X212500000Y-70075000D03*
X212500000Y-71575000D03*
X206900000Y-71575000D03*
X206900000Y-70075000D03*
D13*
X204600000Y-80700000D03*
X211600000Y-81750000D03*
D14*
X203150000Y-73675000D03*
X203150000Y-70075000D03*
D15*
X208100000Y-80800000D03*
D16*
X208100000Y-84000000D03*
%TD*%
D11*
%TO.C,A38*%
X213750000Y-133000000D03*
D12*
X217250000Y-127075000D03*
X217250000Y-128575000D03*
X211650000Y-128575000D03*
X211650000Y-127075000D03*
D13*
X209350000Y-137700000D03*
X216350000Y-138750000D03*
D14*
X207900000Y-130675000D03*
X207900000Y-127075000D03*
D15*
X212850000Y-137800000D03*
D16*
X212850000Y-141000000D03*
%TD*%
D11*
%TO.C,A19*%
X156750000Y-95000000D03*
D12*
X160250000Y-89075000D03*
X160250000Y-90575000D03*
X154650000Y-90575000D03*
X154650000Y-89075000D03*
D13*
X152350000Y-99700000D03*
X159350000Y-100750000D03*
D14*
X150900000Y-92675000D03*
X150900000Y-89075000D03*
D15*
X155850000Y-99800000D03*
D16*
X155850000Y-103000000D03*
%TD*%
D11*
%TO.C,A25*%
X71250000Y-114000000D03*
D12*
X74750000Y-108075000D03*
X74750000Y-109575000D03*
X69150000Y-109575000D03*
X69150000Y-108075000D03*
D13*
X66850000Y-118700000D03*
X73850000Y-119750000D03*
D14*
X65400000Y-111675000D03*
X65400000Y-108075000D03*
D15*
X70350000Y-118800000D03*
D16*
X70350000Y-122000000D03*
%TD*%
D11*
%TO.C,A8*%
X171000000Y-76000000D03*
D12*
X174500000Y-70075000D03*
X174500000Y-71575000D03*
X168900000Y-71575000D03*
X168900000Y-70075000D03*
D13*
X166600000Y-80700000D03*
X173600000Y-81750000D03*
D14*
X165150000Y-73675000D03*
X165150000Y-70075000D03*
D15*
X170100000Y-80800000D03*
D16*
X170100000Y-84000000D03*
%TD*%
D10*
%TO.C,H3*%
X180500000Y-67500000D03*
%TD*%
D11*
%TO.C,A14*%
X61750000Y-95000000D03*
D12*
X65250000Y-89075000D03*
X65250000Y-90575000D03*
X59650000Y-90575000D03*
X59650000Y-89075000D03*
D13*
X57350000Y-99700000D03*
X64350000Y-100750000D03*
D14*
X55900000Y-92675000D03*
X55900000Y-89075000D03*
D15*
X60850000Y-99800000D03*
D16*
X60850000Y-103000000D03*
%TD*%
D11*
%TO.C,A13*%
X40375000Y-95000000D03*
D12*
X43875000Y-89075000D03*
X43875000Y-90575000D03*
X38275000Y-90575000D03*
X38275000Y-89075000D03*
D13*
X35975000Y-99700000D03*
X42975000Y-100750000D03*
D14*
X34525000Y-92675000D03*
X34525000Y-89075000D03*
D15*
X39475000Y-99800000D03*
D16*
X39475000Y-103000000D03*
%TD*%
D11*
%TO.C,A5*%
X114000000Y-76000000D03*
D12*
X117500000Y-70075000D03*
X117500000Y-71575000D03*
X111900000Y-71575000D03*
X111900000Y-70075000D03*
D13*
X109600000Y-80700000D03*
X116600000Y-81750000D03*
D14*
X108150000Y-73675000D03*
X108150000Y-70075000D03*
D15*
X113100000Y-80800000D03*
D16*
X113100000Y-84000000D03*
%TD*%
D11*
%TO.C,A15*%
X80750000Y-95000000D03*
D12*
X84250000Y-89075000D03*
X84250000Y-90575000D03*
X78650000Y-90575000D03*
X78650000Y-89075000D03*
D13*
X76350000Y-99700000D03*
X83350000Y-100750000D03*
D14*
X74900000Y-92675000D03*
X74900000Y-89075000D03*
D15*
X79850000Y-99800000D03*
D16*
X79850000Y-103000000D03*
%TD*%
D11*
%TO.C,A3*%
X76000000Y-76000000D03*
D12*
X79500000Y-70075000D03*
X79500000Y-71575000D03*
X73900000Y-71575000D03*
X73900000Y-70075000D03*
D13*
X71600000Y-80700000D03*
X78600000Y-81750000D03*
D14*
X70150000Y-73675000D03*
X70150000Y-70075000D03*
D15*
X75100000Y-80800000D03*
D16*
X75100000Y-84000000D03*
%TD*%
D11*
%TO.C,A16*%
X99750000Y-95000000D03*
D12*
X103250000Y-89075000D03*
X103250000Y-90575000D03*
X97650000Y-90575000D03*
X97650000Y-89075000D03*
D13*
X95350000Y-99700000D03*
X102350000Y-100750000D03*
D14*
X93900000Y-92675000D03*
X93900000Y-89075000D03*
D15*
X98850000Y-99800000D03*
D16*
X98850000Y-103000000D03*
%TD*%
D11*
%TO.C,A30*%
X166250000Y-114000000D03*
D12*
X169750000Y-108075000D03*
X169750000Y-109575000D03*
X164150000Y-109575000D03*
X164150000Y-108075000D03*
D13*
X161850000Y-118700000D03*
X168850000Y-119750000D03*
D14*
X160400000Y-111675000D03*
X160400000Y-108075000D03*
D15*
X165350000Y-118800000D03*
D16*
X165350000Y-122000000D03*
%TD*%
D11*
%TO.C,A6*%
X133000000Y-76000000D03*
D12*
X136500000Y-70075000D03*
X136500000Y-71575000D03*
X130900000Y-71575000D03*
X130900000Y-70075000D03*
D13*
X128600000Y-80700000D03*
X135600000Y-81750000D03*
D14*
X127150000Y-73675000D03*
X127150000Y-70075000D03*
D15*
X132100000Y-80800000D03*
D16*
X132100000Y-84000000D03*
%TD*%
D11*
%TO.C,A20*%
X175750000Y-95000000D03*
D12*
X179250000Y-89075000D03*
X179250000Y-90575000D03*
X173650000Y-90575000D03*
X173650000Y-89075000D03*
D13*
X171350000Y-99700000D03*
X178350000Y-100750000D03*
D14*
X169900000Y-92675000D03*
X169900000Y-89075000D03*
D15*
X174850000Y-99800000D03*
D16*
X174850000Y-103000000D03*
%TD*%
D11*
%TO.C,A39*%
X232750000Y-133000000D03*
D12*
X236250000Y-127075000D03*
X236250000Y-128575000D03*
X230650000Y-128575000D03*
X230650000Y-127075000D03*
D13*
X228350000Y-137700000D03*
X235350000Y-138750000D03*
D14*
X226900000Y-130675000D03*
X226900000Y-127075000D03*
D15*
X231850000Y-137800000D03*
D16*
X231850000Y-141000000D03*
%TD*%
D11*
%TO.C,A32*%
X204250000Y-114000000D03*
D12*
X207750000Y-108075000D03*
X207750000Y-109575000D03*
X202150000Y-109575000D03*
X202150000Y-108075000D03*
D13*
X199850000Y-118700000D03*
X206850000Y-119750000D03*
D14*
X198400000Y-111675000D03*
X198400000Y-108075000D03*
D15*
X203350000Y-118800000D03*
D16*
X203350000Y-122000000D03*
%TD*%
D10*
%TO.C,H2*%
X104500000Y-67500000D03*
%TD*%
M02*
