%TF.GenerationSoftware,KiCad,Pcbnew,9.0.2*%
%TF.CreationDate,2025-06-22T14:38:31+01:00*%
%TF.ProjectId,just-40-top,6a757374-2d34-4302-9d74-6f702e6b6963,rev?*%
%TF.SameCoordinates,Original*%
%TF.FileFunction,Soldermask,Top*%
%TF.FilePolarity,Negative*%
%FSLAX46Y46*%
G04 Gerber Fmt 4.6, Leading zero omitted, Abs format (unit mm)*
G04 Created by KiCad (PCBNEW 9.0.2) date 2025-06-22 14:38:31*
%MOMM*%
%LPD*%
G01*
G04 APERTURE LIST*
%ADD10C,2.000000*%
%ADD11C,5.250000*%
%ADD12C,3.000000*%
%ADD13O,1.600000X3.200000*%
%ADD14O,3.200000X1.600000*%
G04 APERTURE END LIST*
D10*
%TO.C,H4*%
X265000000Y-67500000D03*
%TD*%
%TO.C,H1*%
X29500000Y-67500000D03*
%TD*%
D11*
%TO.C,A9*%
X190000000Y-76000000D03*
D12*
X185600000Y-80700000D03*
X192600000Y-81750000D03*
%TD*%
D10*
%TO.C,H5*%
X29500000Y-141500000D03*
%TD*%
D11*
%TO.C,A21*%
X194750000Y-95000000D03*
D12*
X190350000Y-99700000D03*
X197350000Y-100750000D03*
%TD*%
D10*
%TO.C,H7*%
X180500000Y-141500000D03*
%TD*%
D11*
%TO.C,A22*%
X213750000Y-95000000D03*
D12*
X209350000Y-99700000D03*
X216350000Y-100750000D03*
%TD*%
D11*
%TO.C,A17*%
X118750000Y-95000000D03*
D12*
X114350000Y-99700000D03*
X121350000Y-100750000D03*
%TD*%
D11*
%TO.C,A36*%
X76000000Y-133000000D03*
D12*
X71600000Y-137700000D03*
X78600000Y-138750000D03*
%TD*%
D11*
%TO.C,A18*%
X137750000Y-95000000D03*
D12*
X133350000Y-99700000D03*
X140350000Y-100750000D03*
%TD*%
D11*
%TO.C,A28*%
X128250000Y-114000000D03*
D12*
X123850000Y-118700000D03*
X130850000Y-119750000D03*
%TD*%
D11*
%TO.C,A33*%
X239875000Y-114000000D03*
D12*
X235475000Y-118700000D03*
X242475000Y-119750000D03*
%TD*%
D11*
%TO.C,A2*%
X57000000Y-76000000D03*
D12*
X52600000Y-80700000D03*
X59600000Y-81750000D03*
%TD*%
D11*
%TO.C,A35*%
X57000000Y-133000000D03*
D12*
X52600000Y-137700000D03*
X59600000Y-138750000D03*
%TD*%
D10*
%TO.C,H8*%
X265000000Y-141500000D03*
%TD*%
D11*
%TO.C,A34*%
X38000000Y-133000000D03*
D12*
X33600000Y-137700000D03*
X40600000Y-138750000D03*
%TD*%
D11*
%TO.C,A29*%
X147250000Y-114000000D03*
D12*
X142850000Y-118700000D03*
X149850000Y-119750000D03*
%TD*%
D10*
%TO.C,H6*%
X104500000Y-141500000D03*
%TD*%
D11*
%TO.C,A31*%
X185250000Y-114000000D03*
D12*
X180850000Y-118700000D03*
X187850000Y-119750000D03*
%TD*%
D11*
%TO.C,A7*%
X152000000Y-76000000D03*
D12*
X147600000Y-80700000D03*
X154600000Y-81750000D03*
%TD*%
D11*
%TO.C,A1*%
X38000000Y-76000000D03*
D12*
X33600000Y-80700000D03*
X40600000Y-81750000D03*
%TD*%
D11*
%TO.C,A27*%
X109250000Y-114000000D03*
D12*
X104850000Y-118700000D03*
X111850000Y-119750000D03*
%TD*%
D11*
%TO.C,A4*%
X95000000Y-76000000D03*
D12*
X90600000Y-80700000D03*
X97600000Y-81750000D03*
%TD*%
D11*
%TO.C,A23*%
X244625000Y-95000000D03*
D12*
X240225000Y-99700000D03*
X247225000Y-100750000D03*
%TD*%
D11*
%TO.C,A26*%
X90250000Y-114000000D03*
D12*
X85850000Y-118700000D03*
X92850000Y-119750000D03*
%TD*%
D11*
%TO.C,A40*%
X254125000Y-133000000D03*
D12*
X249725000Y-137700000D03*
X256725000Y-138750000D03*
%TD*%
D11*
%TO.C,A11*%
X228000000Y-76000000D03*
D12*
X223600000Y-80700000D03*
X230600000Y-81750000D03*
%TD*%
D11*
%TO.C,A24*%
X45125000Y-114000000D03*
D12*
X40725000Y-118700000D03*
X47725000Y-119750000D03*
%TD*%
D11*
%TO.C,A37*%
X144875000Y-133000000D03*
D12*
X140475000Y-137700000D03*
X147475000Y-138750000D03*
%TD*%
D11*
%TO.C,A12*%
X251750000Y-76000000D03*
D12*
X247350000Y-80700000D03*
X254350000Y-81750000D03*
%TD*%
D11*
%TO.C,A10*%
X209000000Y-76000000D03*
D12*
X204600000Y-80700000D03*
X211600000Y-81750000D03*
%TD*%
D11*
%TO.C,A38*%
X213750000Y-133000000D03*
D12*
X209350000Y-137700000D03*
X216350000Y-138750000D03*
%TD*%
D11*
%TO.C,A19*%
X156750000Y-95000000D03*
D12*
X152350000Y-99700000D03*
X159350000Y-100750000D03*
%TD*%
D11*
%TO.C,A25*%
X71250000Y-114000000D03*
D12*
X66850000Y-118700000D03*
X73850000Y-119750000D03*
%TD*%
D11*
%TO.C,A8*%
X171000000Y-76000000D03*
D12*
X166600000Y-80700000D03*
X173600000Y-81750000D03*
%TD*%
D10*
%TO.C,H3*%
X180500000Y-67500000D03*
%TD*%
D11*
%TO.C,A14*%
X61750000Y-95000000D03*
D12*
X57350000Y-99700000D03*
X64350000Y-100750000D03*
%TD*%
D11*
%TO.C,A13*%
X40375000Y-95000000D03*
D12*
X35975000Y-99700000D03*
X42975000Y-100750000D03*
%TD*%
D11*
%TO.C,A5*%
X114000000Y-76000000D03*
D12*
X109600000Y-80700000D03*
X116600000Y-81750000D03*
%TD*%
D11*
%TO.C,A15*%
X80750000Y-95000000D03*
D12*
X76350000Y-99700000D03*
X83350000Y-100750000D03*
%TD*%
D11*
%TO.C,A3*%
X76000000Y-76000000D03*
D12*
X71600000Y-80700000D03*
X78600000Y-81750000D03*
%TD*%
D11*
%TO.C,A16*%
X99750000Y-95000000D03*
D12*
X95350000Y-99700000D03*
X102350000Y-100750000D03*
%TD*%
D11*
%TO.C,A30*%
X166250000Y-114000000D03*
D12*
X161850000Y-118700000D03*
X168850000Y-119750000D03*
%TD*%
D11*
%TO.C,A6*%
X133000000Y-76000000D03*
D12*
X128600000Y-80700000D03*
X135600000Y-81750000D03*
%TD*%
D11*
%TO.C,A20*%
X175750000Y-95000000D03*
D12*
X171350000Y-99700000D03*
X178350000Y-100750000D03*
%TD*%
D11*
%TO.C,A39*%
X232750000Y-133000000D03*
D12*
X228350000Y-137700000D03*
X235350000Y-138750000D03*
%TD*%
D11*
%TO.C,A32*%
X204250000Y-114000000D03*
D12*
X199850000Y-118700000D03*
X206850000Y-119750000D03*
%TD*%
D10*
%TO.C,H2*%
X104500000Y-67500000D03*
%TD*%
D13*
%TO.C,A41*%
X110840000Y-124790000D03*
X113380000Y-124790000D03*
X115920000Y-124790000D03*
X118460000Y-124790000D03*
X115920000Y-141210000D03*
X121000000Y-124790000D03*
X123540000Y-124790000D03*
X110840000Y-141210000D03*
X126080000Y-124790000D03*
X128620000Y-124790000D03*
X131160000Y-124790000D03*
D14*
X131960000Y-127920000D03*
X131960000Y-130460000D03*
X131960000Y-133000000D03*
X131960000Y-135540000D03*
X131960000Y-138080000D03*
D13*
X131160000Y-141210000D03*
X128620000Y-141210000D03*
X126080000Y-141210000D03*
X123540000Y-141210000D03*
X121000000Y-141210000D03*
X118460000Y-141210000D03*
X113380000Y-141210000D03*
%TD*%
M02*
