%TF.GenerationSoftware,KiCad,Pcbnew,9.0.2*%
%TF.CreationDate,2025-06-22T14:38:31+01:00*%
%TF.ProjectId,just-40-top,6a757374-2d34-4302-9d74-6f702e6b6963,rev?*%
%TF.SameCoordinates,Original*%
%TF.FileFunction,Profile,NP*%
%FSLAX46Y46*%
G04 Gerber Fmt 4.6, Leading zero omitted, Abs format (unit mm)*
G04 Created by KiCad (PCBNEW 9.0.2) date 2025-06-22 14:38:31*
%MOMM*%
%LPD*%
G01*
G04 APERTURE LIST*
%TA.AperFunction,Profile*%
%ADD10C,0.050000*%
%TD*%
G04 APERTURE END LIST*
D10*
X266000000Y-65500000D02*
G75*
G02*
X267000000Y-66500000I0J-1000000D01*
G01*
X267000000Y-142500000D02*
G75*
G02*
X266000000Y-143500000I-1000000J0D01*
G01*
X28500000Y-143500000D02*
G75*
G02*
X27500000Y-142500000I0J1000000D01*
G01*
X266000000Y-65500000D02*
X28500000Y-65500000D01*
X27500000Y-66500000D02*
G75*
G02*
X28500000Y-65500000I1000000J0D01*
G01*
X266000000Y-143500000D02*
X28500000Y-143500000D01*
X267000000Y-66500000D02*
X267000000Y-142500000D01*
X27500000Y-142500000D02*
X27500000Y-66500000D01*
%TO.C,A9*%
X189099998Y-69725000D02*
X189099998Y-71925001D01*
X189599999Y-69225000D02*
X191800000Y-69225000D01*
X191799998Y-72425000D02*
X189599997Y-72425000D01*
X192300000Y-69725000D02*
X192299998Y-71925000D01*
X189099998Y-69725000D02*
G75*
G02*
X189599998Y-69225000I500001J-1D01*
G01*
X189599996Y-72425001D02*
G75*
G02*
X189099996Y-71925001I1J500001D01*
G01*
X191800000Y-69225000D02*
G75*
G02*
X192300000Y-69725000I0J-500000D01*
G01*
X192299998Y-71925000D02*
G75*
G02*
X191799998Y-72424998I-499998J0D01*
G01*
%TO.C,A21*%
X193849998Y-88725000D02*
X193849998Y-90925001D01*
X194349999Y-88225000D02*
X196550000Y-88225000D01*
X196549998Y-91425000D02*
X194349997Y-91425000D01*
X197050000Y-88725000D02*
X197049998Y-90925000D01*
X193849998Y-88725000D02*
G75*
G02*
X194349998Y-88225000I500001J-1D01*
G01*
X194349996Y-91425001D02*
G75*
G02*
X193849996Y-90925001I1J500001D01*
G01*
X196550000Y-88225000D02*
G75*
G02*
X197050000Y-88725000I0J-500000D01*
G01*
X197049998Y-90925000D02*
G75*
G02*
X196549998Y-91424998I-499998J0D01*
G01*
%TO.C,A22*%
X212849998Y-88725000D02*
X212849998Y-90925001D01*
X213349999Y-88225000D02*
X215550000Y-88225000D01*
X215549998Y-91425000D02*
X213349997Y-91425000D01*
X216050000Y-88725000D02*
X216049998Y-90925000D01*
X212849998Y-88725000D02*
G75*
G02*
X213349998Y-88225000I500001J-1D01*
G01*
X213349996Y-91425001D02*
G75*
G02*
X212849996Y-90925001I1J500001D01*
G01*
X215550000Y-88225000D02*
G75*
G02*
X216050000Y-88725000I0J-500000D01*
G01*
X216049998Y-90925000D02*
G75*
G02*
X215549998Y-91424998I-499998J0D01*
G01*
%TO.C,A17*%
X117849998Y-88725000D02*
X117849998Y-90925001D01*
X118349999Y-88225000D02*
X120550000Y-88225000D01*
X120549998Y-91425000D02*
X118349997Y-91425000D01*
X121050000Y-88725000D02*
X121049998Y-90925000D01*
X117849998Y-88725000D02*
G75*
G02*
X118349998Y-88225000I500001J-1D01*
G01*
X118349996Y-91425001D02*
G75*
G02*
X117849996Y-90925001I1J500001D01*
G01*
X120550000Y-88225000D02*
G75*
G02*
X121050000Y-88725000I0J-500000D01*
G01*
X121049998Y-90925000D02*
G75*
G02*
X120549998Y-91424998I-499998J0D01*
G01*
%TO.C,A36*%
X75099998Y-126725000D02*
X75099998Y-128925001D01*
X75599999Y-126225000D02*
X77800000Y-126225000D01*
X77799998Y-129425000D02*
X75599997Y-129425000D01*
X78300000Y-126725000D02*
X78299998Y-128925000D01*
X75099998Y-126725000D02*
G75*
G02*
X75599998Y-126225000I500001J-1D01*
G01*
X75599996Y-129425001D02*
G75*
G02*
X75099996Y-128925001I1J500001D01*
G01*
X77800000Y-126225000D02*
G75*
G02*
X78300000Y-126725000I0J-500000D01*
G01*
X78299998Y-128925000D02*
G75*
G02*
X77799998Y-129424998I-499998J0D01*
G01*
%TO.C,A18*%
X136849998Y-88725000D02*
X136849998Y-90925001D01*
X137349999Y-88225000D02*
X139550000Y-88225000D01*
X139549998Y-91425000D02*
X137349997Y-91425000D01*
X140050000Y-88725000D02*
X140049998Y-90925000D01*
X136849998Y-88725000D02*
G75*
G02*
X137349998Y-88225000I500001J-1D01*
G01*
X137349996Y-91425001D02*
G75*
G02*
X136849996Y-90925001I1J500001D01*
G01*
X139550000Y-88225000D02*
G75*
G02*
X140050000Y-88725000I0J-500000D01*
G01*
X140049998Y-90925000D02*
G75*
G02*
X139549998Y-91424998I-499998J0D01*
G01*
%TO.C,A28*%
X127349998Y-107725000D02*
X127349998Y-109925001D01*
X127849999Y-107225000D02*
X130050000Y-107225000D01*
X130049998Y-110425000D02*
X127849997Y-110425000D01*
X130550000Y-107725000D02*
X130549998Y-109925000D01*
X127349998Y-107725000D02*
G75*
G02*
X127849998Y-107225000I500001J-1D01*
G01*
X127849996Y-110425001D02*
G75*
G02*
X127349996Y-109925001I1J500001D01*
G01*
X130050000Y-107225000D02*
G75*
G02*
X130550000Y-107725000I0J-500000D01*
G01*
X130549998Y-109925000D02*
G75*
G02*
X130049998Y-110424998I-499998J0D01*
G01*
%TO.C,A33*%
X223675000Y-111199999D02*
X223674999Y-113000001D01*
X224174999Y-113500000D02*
X224575000Y-113500000D01*
X224575000Y-108500000D02*
X231175000Y-108500000D01*
X224575000Y-110700000D02*
X224175000Y-110700000D01*
X224575000Y-110700000D02*
X224575000Y-109500000D01*
X224575000Y-119800000D02*
X224575000Y-113500000D01*
X224575000Y-120800000D02*
X226375000Y-120800000D01*
X226375000Y-120800000D02*
X226375000Y-121500000D01*
X226875000Y-122000000D02*
X228875001Y-122000000D01*
X229375000Y-120800000D02*
X229375001Y-121500000D01*
X231175000Y-110700000D02*
X231175000Y-109500000D01*
X231175000Y-113500000D02*
X231575000Y-113500000D01*
X231175000Y-119800000D02*
X231175000Y-113500000D01*
X231175000Y-120800000D02*
X229375000Y-120800000D01*
X231575001Y-110700000D02*
X231175000Y-110700000D01*
X232075000Y-113000001D02*
X232075001Y-111199999D01*
X238974998Y-107725000D02*
X238974998Y-109925001D01*
X239474999Y-107225000D02*
X241675000Y-107225000D01*
X241674998Y-110425000D02*
X239474997Y-110425000D01*
X242175000Y-107725000D02*
X242174998Y-109925000D01*
X247675000Y-111199999D02*
X247674999Y-113000001D01*
X248174999Y-113500000D02*
X248575000Y-113500000D01*
X248575000Y-108500000D02*
X255175000Y-108500000D01*
X248575000Y-110700000D02*
X248175000Y-110700000D01*
X248575000Y-110700000D02*
X248575000Y-109500000D01*
X248575000Y-119800000D02*
X248575000Y-113500000D01*
X248575000Y-120800000D02*
X250375000Y-120800000D01*
X250375000Y-120800000D02*
X250375000Y-121500000D01*
X250875000Y-122000000D02*
X252875001Y-122000000D01*
X253375000Y-120800000D02*
X253375001Y-121500000D01*
X255175000Y-110700000D02*
X255175000Y-109500000D01*
X255175000Y-113500000D02*
X255575000Y-113500000D01*
X255175000Y-119800000D02*
X255175000Y-113500000D01*
X255175000Y-120800000D02*
X253375000Y-120800000D01*
X255575001Y-110700000D02*
X255175000Y-110700000D01*
X256075000Y-113000001D02*
X256075001Y-111199999D01*
X223674999Y-111199999D02*
G75*
G02*
X224174999Y-110699999I500001J-1D01*
G01*
X224174999Y-113500001D02*
G75*
G02*
X223674999Y-113000001I1J500001D01*
G01*
X224575000Y-109500000D02*
G75*
G02*
X224575000Y-108500000I0J500000D01*
G01*
X224575000Y-120800000D02*
G75*
G02*
X224575000Y-119800000I0J500000D01*
G01*
X226875000Y-122000000D02*
G75*
G02*
X226375000Y-121500000I1J500001D01*
G01*
X229375001Y-121500001D02*
G75*
G02*
X228875001Y-122000001I-500001J1D01*
G01*
X231175000Y-108500000D02*
G75*
G02*
X231175000Y-109500000I0J-500000D01*
G01*
X231175000Y-119800000D02*
G75*
G02*
X231175000Y-120800000I0J-500000D01*
G01*
X231575001Y-110699999D02*
G75*
G02*
X232075001Y-111199999I-1J-500001D01*
G01*
X232075001Y-113000001D02*
G75*
G02*
X231575001Y-113500001I-500001J1D01*
G01*
X238974998Y-107725000D02*
G75*
G02*
X239474998Y-107225000I500001J-1D01*
G01*
X239474996Y-110425001D02*
G75*
G02*
X238974996Y-109925001I1J500001D01*
G01*
X241675000Y-107225000D02*
G75*
G02*
X242175000Y-107725000I0J-500000D01*
G01*
X242174998Y-109925000D02*
G75*
G02*
X241674998Y-110424998I-499998J0D01*
G01*
X247674999Y-111199999D02*
G75*
G02*
X248174999Y-110699999I500001J-1D01*
G01*
X248174999Y-113500001D02*
G75*
G02*
X247674999Y-113000001I1J500001D01*
G01*
X248575000Y-109500000D02*
G75*
G02*
X248575000Y-108500000I0J500000D01*
G01*
X248575000Y-120800000D02*
G75*
G02*
X248575000Y-119800000I0J500000D01*
G01*
X250875000Y-122000000D02*
G75*
G02*
X250375000Y-121500000I0J500000D01*
G01*
X253375001Y-121500001D02*
G75*
G02*
X252875001Y-122000001I-500001J1D01*
G01*
X255175000Y-108500000D02*
G75*
G02*
X255175000Y-109500000I0J-500000D01*
G01*
X255175000Y-119800000D02*
G75*
G02*
X255175000Y-120800000I0J-500000D01*
G01*
X255575001Y-110699999D02*
G75*
G02*
X256075001Y-111199999I-1J-500001D01*
G01*
X256075001Y-113000001D02*
G75*
G02*
X255575001Y-113500001I-500001J1D01*
G01*
%TO.C,A2*%
X56099998Y-69725000D02*
X56099998Y-71925001D01*
X56599999Y-69225000D02*
X58800000Y-69225000D01*
X58799998Y-72425000D02*
X56599997Y-72425000D01*
X59300000Y-69725000D02*
X59299998Y-71925000D01*
X56099998Y-69725000D02*
G75*
G02*
X56599998Y-69225000I500001J-1D01*
G01*
X56599996Y-72425001D02*
G75*
G02*
X56099996Y-71925001I1J500001D01*
G01*
X58800000Y-69225000D02*
G75*
G02*
X59300000Y-69725000I0J-500000D01*
G01*
X59299998Y-71925000D02*
G75*
G02*
X58799998Y-72424998I-499998J0D01*
G01*
%TO.C,A35*%
X56099998Y-126725000D02*
X56099998Y-128925001D01*
X56599999Y-126225000D02*
X58800000Y-126225000D01*
X58799998Y-129425000D02*
X56599997Y-129425000D01*
X59300000Y-126725000D02*
X59299998Y-128925000D01*
X56099998Y-126725000D02*
G75*
G02*
X56599998Y-126225000I500001J-1D01*
G01*
X56599996Y-129425001D02*
G75*
G02*
X56099996Y-128925001I1J500001D01*
G01*
X58800000Y-126225000D02*
G75*
G02*
X59300000Y-126725000I0J-500000D01*
G01*
X59299998Y-128925000D02*
G75*
G02*
X58799998Y-129424998I-499998J0D01*
G01*
%TO.C,A34*%
X37099998Y-126725000D02*
X37099998Y-128925001D01*
X37599999Y-126225000D02*
X39800000Y-126225000D01*
X39799998Y-129425000D02*
X37599997Y-129425000D01*
X40300000Y-126725000D02*
X40299998Y-128925000D01*
X37099998Y-126725000D02*
G75*
G02*
X37599998Y-126225000I500001J-1D01*
G01*
X37599996Y-129425001D02*
G75*
G02*
X37099996Y-128925001I1J500001D01*
G01*
X39800000Y-126225000D02*
G75*
G02*
X40300000Y-126725000I0J-500000D01*
G01*
X40299998Y-128925000D02*
G75*
G02*
X39799998Y-129424998I-499998J0D01*
G01*
%TO.C,A29*%
X146349998Y-107725000D02*
X146349998Y-109925001D01*
X146849999Y-107225000D02*
X149050000Y-107225000D01*
X149049998Y-110425000D02*
X146849997Y-110425000D01*
X149550000Y-107725000D02*
X149549998Y-109925000D01*
X146349998Y-107725000D02*
G75*
G02*
X146849998Y-107225000I500001J-1D01*
G01*
X146849996Y-110425001D02*
G75*
G02*
X146349996Y-109925001I1J500001D01*
G01*
X149050000Y-107225000D02*
G75*
G02*
X149550000Y-107725000I0J-500000D01*
G01*
X149549998Y-109925000D02*
G75*
G02*
X149049998Y-110424998I-499998J0D01*
G01*
%TO.C,A31*%
X184349998Y-107725000D02*
X184349998Y-109925001D01*
X184849999Y-107225000D02*
X187050000Y-107225000D01*
X187049998Y-110425000D02*
X184849997Y-110425000D01*
X187550000Y-107725000D02*
X187549998Y-109925000D01*
X184349998Y-107725000D02*
G75*
G02*
X184849998Y-107225000I500001J-1D01*
G01*
X184849996Y-110425001D02*
G75*
G02*
X184349996Y-109925001I1J500001D01*
G01*
X187050000Y-107225000D02*
G75*
G02*
X187550000Y-107725000I0J-500000D01*
G01*
X187549998Y-109925000D02*
G75*
G02*
X187049998Y-110424998I-499998J0D01*
G01*
%TO.C,A7*%
X151099998Y-69725000D02*
X151099998Y-71925001D01*
X151599999Y-69225000D02*
X153800000Y-69225000D01*
X153799998Y-72425000D02*
X151599997Y-72425000D01*
X154300000Y-69725000D02*
X154299998Y-71925000D01*
X151099998Y-69725000D02*
G75*
G02*
X151599998Y-69225000I500001J-1D01*
G01*
X151599996Y-72425001D02*
G75*
G02*
X151099996Y-71925001I1J500001D01*
G01*
X153800000Y-69225000D02*
G75*
G02*
X154300000Y-69725000I0J-500000D01*
G01*
X154299998Y-71925000D02*
G75*
G02*
X153799998Y-72424998I-499998J0D01*
G01*
%TO.C,A1*%
X37099998Y-69725000D02*
X37099998Y-71925001D01*
X37599999Y-69225000D02*
X39800000Y-69225000D01*
X39799998Y-72425000D02*
X37599997Y-72425000D01*
X40300000Y-69725000D02*
X40299998Y-71925000D01*
X37099998Y-69725000D02*
G75*
G02*
X37599998Y-69225000I500001J-1D01*
G01*
X37599996Y-72425001D02*
G75*
G02*
X37099996Y-71925001I1J500001D01*
G01*
X39800000Y-69225000D02*
G75*
G02*
X40300000Y-69725000I0J-500000D01*
G01*
X40299998Y-71925000D02*
G75*
G02*
X39799998Y-72424998I-499998J0D01*
G01*
%TO.C,A27*%
X108349998Y-107725000D02*
X108349998Y-109925001D01*
X108849999Y-107225000D02*
X111050000Y-107225000D01*
X111049998Y-110425000D02*
X108849997Y-110425000D01*
X111550000Y-107725000D02*
X111549998Y-109925000D01*
X108349998Y-107725000D02*
G75*
G02*
X108849998Y-107225000I500001J-1D01*
G01*
X108849996Y-110425001D02*
G75*
G02*
X108349996Y-109925001I1J500001D01*
G01*
X111050000Y-107225000D02*
G75*
G02*
X111550000Y-107725000I0J-500000D01*
G01*
X111549998Y-109925000D02*
G75*
G02*
X111049998Y-110424998I-499998J0D01*
G01*
%TO.C,A4*%
X94099998Y-69725000D02*
X94099998Y-71925001D01*
X94599999Y-69225000D02*
X96800000Y-69225000D01*
X96799998Y-72425000D02*
X94599997Y-72425000D01*
X97300000Y-69725000D02*
X97299998Y-71925000D01*
X94099998Y-69725000D02*
G75*
G02*
X94599998Y-69225000I500001J-1D01*
G01*
X94599996Y-72425001D02*
G75*
G02*
X94099996Y-71925001I1J500001D01*
G01*
X96800000Y-69225000D02*
G75*
G02*
X97300000Y-69725000I0J-500000D01*
G01*
X97299998Y-71925000D02*
G75*
G02*
X96799998Y-72424998I-499998J0D01*
G01*
%TO.C,A23*%
X228425000Y-92199999D02*
X228424999Y-94000001D01*
X228924999Y-94500000D02*
X229325000Y-94500000D01*
X229325000Y-89500000D02*
X235925000Y-89500000D01*
X229325000Y-91700000D02*
X228925000Y-91700000D01*
X229325000Y-91700000D02*
X229325000Y-90500000D01*
X229325000Y-100800000D02*
X229325000Y-94500000D01*
X229325000Y-101800000D02*
X231125000Y-101800000D01*
X231125000Y-101800000D02*
X231125000Y-102500000D01*
X231625000Y-103000000D02*
X233625001Y-103000000D01*
X234125000Y-101800000D02*
X234125001Y-102500000D01*
X235925000Y-91700000D02*
X235925000Y-90500000D01*
X235925000Y-94500000D02*
X236325000Y-94500000D01*
X235925000Y-100800000D02*
X235925000Y-94500000D01*
X235925000Y-101800000D02*
X234125000Y-101800000D01*
X236325001Y-91700000D02*
X235925000Y-91700000D01*
X236825000Y-94000001D02*
X236825001Y-92199999D01*
X243724998Y-88725000D02*
X243724998Y-90925001D01*
X244224999Y-88225000D02*
X246425000Y-88225000D01*
X246424998Y-91425000D02*
X244224997Y-91425000D01*
X246925000Y-88725000D02*
X246924998Y-90925000D01*
X252425000Y-92199999D02*
X252424999Y-94000001D01*
X252924999Y-94500000D02*
X253325000Y-94500000D01*
X253325000Y-89500000D02*
X259925000Y-89500000D01*
X253325000Y-91700000D02*
X252925000Y-91700000D01*
X253325000Y-91700000D02*
X253325000Y-90500000D01*
X253325000Y-100800000D02*
X253325000Y-94500000D01*
X253325000Y-101800000D02*
X255125000Y-101800000D01*
X255125000Y-101800000D02*
X255125000Y-102500000D01*
X255625000Y-103000000D02*
X257625001Y-103000000D01*
X258125000Y-101800000D02*
X258125001Y-102500000D01*
X259925000Y-91700000D02*
X259925000Y-90500000D01*
X259925000Y-94500000D02*
X260325000Y-94500000D01*
X259925000Y-100800000D02*
X259925000Y-94500000D01*
X259925000Y-101800000D02*
X258125000Y-101800000D01*
X260325001Y-91700000D02*
X259925000Y-91700000D01*
X260825000Y-94000001D02*
X260825001Y-92199999D01*
X228424999Y-92199999D02*
G75*
G02*
X228924999Y-91699999I500001J-1D01*
G01*
X228924999Y-94500001D02*
G75*
G02*
X228424999Y-94000001I1J500001D01*
G01*
X229325000Y-90500000D02*
G75*
G02*
X229325000Y-89500000I0J500000D01*
G01*
X229325000Y-101800000D02*
G75*
G02*
X229325000Y-100800000I0J500000D01*
G01*
X231625000Y-103000000D02*
G75*
G02*
X231125000Y-102500000I1J500001D01*
G01*
X234125001Y-102500001D02*
G75*
G02*
X233625001Y-103000001I-500001J1D01*
G01*
X235925000Y-89500000D02*
G75*
G02*
X235925000Y-90500000I0J-500000D01*
G01*
X235925000Y-100800000D02*
G75*
G02*
X235925000Y-101800000I0J-500000D01*
G01*
X236325001Y-91699999D02*
G75*
G02*
X236825001Y-92199999I-1J-500001D01*
G01*
X236825001Y-94000001D02*
G75*
G02*
X236325001Y-94500001I-500001J1D01*
G01*
X243724998Y-88725000D02*
G75*
G02*
X244224998Y-88225000I500001J-1D01*
G01*
X244224996Y-91425001D02*
G75*
G02*
X243724996Y-90925001I1J500001D01*
G01*
X246425000Y-88225000D02*
G75*
G02*
X246925000Y-88725000I0J-500000D01*
G01*
X246924998Y-90925000D02*
G75*
G02*
X246424998Y-91424998I-499998J0D01*
G01*
X252424999Y-92199999D02*
G75*
G02*
X252924999Y-91699999I500001J-1D01*
G01*
X252924999Y-94500001D02*
G75*
G02*
X252424999Y-94000001I1J500001D01*
G01*
X253325000Y-90500000D02*
G75*
G02*
X253325000Y-89500000I0J500000D01*
G01*
X253325000Y-101800000D02*
G75*
G02*
X253325000Y-100800000I0J500000D01*
G01*
X255625000Y-103000000D02*
G75*
G02*
X255125000Y-102500000I0J500000D01*
G01*
X258125001Y-102500001D02*
G75*
G02*
X257625001Y-103000001I-500001J1D01*
G01*
X259925000Y-89500000D02*
G75*
G02*
X259925000Y-90500000I0J-500000D01*
G01*
X259925000Y-100800000D02*
G75*
G02*
X259925000Y-101800000I0J-500000D01*
G01*
X260325001Y-91699999D02*
G75*
G02*
X260825001Y-92199999I-1J-500001D01*
G01*
X260825001Y-94000001D02*
G75*
G02*
X260325001Y-94500001I-500001J1D01*
G01*
%TO.C,A26*%
X89349998Y-107725000D02*
X89349998Y-109925001D01*
X89849999Y-107225000D02*
X92050000Y-107225000D01*
X92049998Y-110425000D02*
X89849997Y-110425000D01*
X92550000Y-107725000D02*
X92549998Y-109925000D01*
X89349998Y-107725000D02*
G75*
G02*
X89849998Y-107225000I500001J-1D01*
G01*
X89849996Y-110425001D02*
G75*
G02*
X89349996Y-109925001I1J500001D01*
G01*
X92050000Y-107225000D02*
G75*
G02*
X92550000Y-107725000I0J-500000D01*
G01*
X92549998Y-109925000D02*
G75*
G02*
X92049998Y-110424998I-499998J0D01*
G01*
%TO.C,A40*%
X253224998Y-126725000D02*
X253224998Y-128925001D01*
X253724999Y-126225000D02*
X255925000Y-126225000D01*
X255924998Y-129425000D02*
X253724997Y-129425000D01*
X256425000Y-126725000D02*
X256424998Y-128925000D01*
X253224998Y-126725000D02*
G75*
G02*
X253724998Y-126225000I500001J-1D01*
G01*
X253724996Y-129425001D02*
G75*
G02*
X253224996Y-128925001I1J500001D01*
G01*
X255925000Y-126225000D02*
G75*
G02*
X256425000Y-126725000I0J-500000D01*
G01*
X256424998Y-128925000D02*
G75*
G02*
X255924998Y-129424998I-499998J0D01*
G01*
%TO.C,A11*%
X227099998Y-69725000D02*
X227099998Y-71925001D01*
X227599999Y-69225000D02*
X229800000Y-69225000D01*
X229799998Y-72425000D02*
X227599997Y-72425000D01*
X230300000Y-69725000D02*
X230299998Y-71925000D01*
X227099998Y-69725000D02*
G75*
G02*
X227599998Y-69225000I500001J-1D01*
G01*
X227599996Y-72425001D02*
G75*
G02*
X227099996Y-71925001I1J500001D01*
G01*
X229800000Y-69225000D02*
G75*
G02*
X230300000Y-69725000I0J-500000D01*
G01*
X230299998Y-71925000D02*
G75*
G02*
X229799998Y-72424998I-499998J0D01*
G01*
%TO.C,A24*%
X44224998Y-107725000D02*
X44224998Y-109925001D01*
X44724999Y-107225000D02*
X46925000Y-107225000D01*
X46924998Y-110425000D02*
X44724997Y-110425000D01*
X47425000Y-107725000D02*
X47424998Y-109925000D01*
X44224998Y-107725000D02*
G75*
G02*
X44724998Y-107225000I500001J-1D01*
G01*
X44724996Y-110425001D02*
G75*
G02*
X44224996Y-109925001I1J500001D01*
G01*
X46925000Y-107225000D02*
G75*
G02*
X47425000Y-107725000I0J-500000D01*
G01*
X47424998Y-109925000D02*
G75*
G02*
X46924998Y-110424998I-499998J0D01*
G01*
%TO.C,A37*%
X90675000Y-133999999D02*
X90674999Y-135800001D01*
X91174999Y-136300000D02*
X91575000Y-136300000D01*
X91575000Y-126200000D02*
X93375000Y-126200000D01*
X91575000Y-127200000D02*
X91575000Y-133500000D01*
X91575000Y-133500000D02*
X91175000Y-133500000D01*
X91575000Y-136300000D02*
X91575000Y-137500000D01*
X93375000Y-126200000D02*
X93374999Y-125500000D01*
X95875000Y-125000000D02*
X93874999Y-125000000D01*
X96375000Y-126200000D02*
X96375000Y-125500000D01*
X98175000Y-126200000D02*
X96375000Y-126200000D01*
X98175000Y-127200000D02*
X98175000Y-133500000D01*
X98175000Y-136300000D02*
X98175000Y-137500000D01*
X98175000Y-136300000D02*
X98575000Y-136300000D01*
X98175000Y-138500000D02*
X91575000Y-138500000D01*
X98575001Y-133500000D02*
X98175000Y-133500000D01*
X99075000Y-135800001D02*
X99075001Y-133999999D01*
X143974998Y-126725000D02*
X143974998Y-128925001D01*
X144474999Y-126225000D02*
X146675000Y-126225000D01*
X146674998Y-129425000D02*
X144474997Y-129425000D01*
X147175000Y-126725000D02*
X147174998Y-128925000D01*
X190675000Y-133999999D02*
X190674999Y-135800001D01*
X191174999Y-136300000D02*
X191575000Y-136300000D01*
X191575000Y-126200000D02*
X193375000Y-126200000D01*
X191575000Y-127200000D02*
X191575000Y-133500000D01*
X191575000Y-133500000D02*
X191175000Y-133500000D01*
X191575000Y-136300000D02*
X191575000Y-137500000D01*
X193375000Y-126200000D02*
X193374999Y-125500000D01*
X195875000Y-125000000D02*
X193874999Y-125000000D01*
X196375000Y-126200000D02*
X196375000Y-125500000D01*
X198175000Y-126200000D02*
X196375000Y-126200000D01*
X198175000Y-127200000D02*
X198175000Y-133500000D01*
X198175000Y-136300000D02*
X198175000Y-137500000D01*
X198175000Y-136300000D02*
X198575000Y-136300000D01*
X198175000Y-138500000D02*
X191575000Y-138500000D01*
X198575001Y-133500000D02*
X198175000Y-133500000D01*
X199075000Y-135800001D02*
X199075001Y-133999999D01*
X90674999Y-133999999D02*
G75*
G02*
X91174999Y-133499999I500001J-1D01*
G01*
X91174999Y-136300001D02*
G75*
G02*
X90674999Y-135800001I1J500001D01*
G01*
X91575000Y-127200000D02*
G75*
G02*
X91575000Y-126200000I0J500000D01*
G01*
X91575000Y-138500000D02*
G75*
G02*
X91575000Y-137500000I0J500000D01*
G01*
X93374999Y-125499999D02*
G75*
G02*
X93874999Y-124999999I500001J-1D01*
G01*
X95875000Y-125000000D02*
G75*
G02*
X96375000Y-125500000I-1J-500001D01*
G01*
X98175000Y-126200000D02*
G75*
G02*
X98175000Y-127200000I0J-500000D01*
G01*
X98175000Y-137500000D02*
G75*
G02*
X98175000Y-138500000I0J-500000D01*
G01*
X98575001Y-133499999D02*
G75*
G02*
X99075001Y-133999999I-1J-500001D01*
G01*
X99075001Y-135800001D02*
G75*
G02*
X98575001Y-136300001I-500001J1D01*
G01*
X143974998Y-126725000D02*
G75*
G02*
X144474998Y-126225000I500001J-1D01*
G01*
X144474996Y-129425001D02*
G75*
G02*
X143974996Y-128925001I1J500001D01*
G01*
X146675000Y-126225000D02*
G75*
G02*
X147175000Y-126725000I0J-500000D01*
G01*
X147174998Y-128925000D02*
G75*
G02*
X146674998Y-129424998I-499998J0D01*
G01*
X190674999Y-133999999D02*
G75*
G02*
X191174999Y-133499999I500001J-1D01*
G01*
X191174999Y-136300001D02*
G75*
G02*
X190674999Y-135800001I1J500001D01*
G01*
X191575000Y-127200000D02*
G75*
G02*
X191575000Y-126200000I0J500000D01*
G01*
X191575000Y-138500000D02*
G75*
G02*
X191575000Y-137500000I0J500000D01*
G01*
X193374999Y-125499999D02*
G75*
G02*
X193874999Y-124999999I500001J-1D01*
G01*
X195875000Y-125000000D02*
G75*
G02*
X196375000Y-125500000I0J-500000D01*
G01*
X198175000Y-126200000D02*
G75*
G02*
X198175000Y-127200000I0J-500000D01*
G01*
X198175000Y-137500000D02*
G75*
G02*
X198175000Y-138500000I0J-500000D01*
G01*
X198575001Y-133499999D02*
G75*
G02*
X199075001Y-133999999I-1J-500001D01*
G01*
X199075001Y-135800001D02*
G75*
G02*
X198575001Y-136300001I-500001J1D01*
G01*
%TO.C,A12*%
X250849998Y-69725000D02*
X250849998Y-71925001D01*
X251349999Y-69225000D02*
X253550000Y-69225000D01*
X253549998Y-72425000D02*
X251349997Y-72425000D01*
X254050000Y-69725000D02*
X254049998Y-71925000D01*
X250849998Y-69725000D02*
G75*
G02*
X251349998Y-69225000I500001J-1D01*
G01*
X251349996Y-72425001D02*
G75*
G02*
X250849996Y-71925001I1J500001D01*
G01*
X253550000Y-69225000D02*
G75*
G02*
X254050000Y-69725000I0J-500000D01*
G01*
X254049998Y-71925000D02*
G75*
G02*
X253549998Y-72424998I-499998J0D01*
G01*
%TO.C,A10*%
X208099998Y-69725000D02*
X208099998Y-71925001D01*
X208599999Y-69225000D02*
X210800000Y-69225000D01*
X210799998Y-72425000D02*
X208599997Y-72425000D01*
X211300000Y-69725000D02*
X211299998Y-71925000D01*
X208099998Y-69725000D02*
G75*
G02*
X208599998Y-69225000I500001J-1D01*
G01*
X208599996Y-72425001D02*
G75*
G02*
X208099996Y-71925001I1J500001D01*
G01*
X210800000Y-69225000D02*
G75*
G02*
X211300000Y-69725000I0J-500000D01*
G01*
X211299998Y-71925000D02*
G75*
G02*
X210799998Y-72424998I-499998J0D01*
G01*
%TO.C,A38*%
X212849998Y-126725000D02*
X212849998Y-128925001D01*
X213349999Y-126225000D02*
X215550000Y-126225000D01*
X215549998Y-129425000D02*
X213349997Y-129425000D01*
X216050000Y-126725000D02*
X216049998Y-128925000D01*
X212849998Y-126725000D02*
G75*
G02*
X213349998Y-126225000I500001J-1D01*
G01*
X213349996Y-129425001D02*
G75*
G02*
X212849996Y-128925001I1J500001D01*
G01*
X215550000Y-126225000D02*
G75*
G02*
X216050000Y-126725000I0J-500000D01*
G01*
X216049998Y-128925000D02*
G75*
G02*
X215549998Y-129424998I-499998J0D01*
G01*
%TO.C,A19*%
X155849998Y-88725000D02*
X155849998Y-90925001D01*
X156349999Y-88225000D02*
X158550000Y-88225000D01*
X158549998Y-91425000D02*
X156349997Y-91425000D01*
X159050000Y-88725000D02*
X159049998Y-90925000D01*
X155849998Y-88725000D02*
G75*
G02*
X156349998Y-88225000I500001J-1D01*
G01*
X156349996Y-91425001D02*
G75*
G02*
X155849996Y-90925001I1J500001D01*
G01*
X158550000Y-88225000D02*
G75*
G02*
X159050000Y-88725000I0J-500000D01*
G01*
X159049998Y-90925000D02*
G75*
G02*
X158549998Y-91424998I-499998J0D01*
G01*
%TO.C,A25*%
X70349998Y-107725000D02*
X70349998Y-109925001D01*
X70849999Y-107225000D02*
X73050000Y-107225000D01*
X73049998Y-110425000D02*
X70849997Y-110425000D01*
X73550000Y-107725000D02*
X73549998Y-109925000D01*
X70349998Y-107725000D02*
G75*
G02*
X70849998Y-107225000I500001J-1D01*
G01*
X70849996Y-110425001D02*
G75*
G02*
X70349996Y-109925001I1J500001D01*
G01*
X73050000Y-107225000D02*
G75*
G02*
X73550000Y-107725000I0J-500000D01*
G01*
X73549998Y-109925000D02*
G75*
G02*
X73049998Y-110424998I-499998J0D01*
G01*
%TO.C,A8*%
X170099998Y-69725000D02*
X170099998Y-71925001D01*
X170599999Y-69225000D02*
X172800000Y-69225000D01*
X172799998Y-72425000D02*
X170599997Y-72425000D01*
X173300000Y-69725000D02*
X173299998Y-71925000D01*
X170099998Y-69725000D02*
G75*
G02*
X170599998Y-69225000I500001J-1D01*
G01*
X170599996Y-72425001D02*
G75*
G02*
X170099996Y-71925001I1J500001D01*
G01*
X172800000Y-69225000D02*
G75*
G02*
X173300000Y-69725000I0J-500000D01*
G01*
X173299998Y-71925000D02*
G75*
G02*
X172799998Y-72424998I-499998J0D01*
G01*
%TO.C,A14*%
X60849998Y-88725000D02*
X60849998Y-90925001D01*
X61349999Y-88225000D02*
X63550000Y-88225000D01*
X63549998Y-91425000D02*
X61349997Y-91425000D01*
X64050000Y-88725000D02*
X64049998Y-90925000D01*
X60849998Y-88725000D02*
G75*
G02*
X61349998Y-88225000I500001J-1D01*
G01*
X61349996Y-91425001D02*
G75*
G02*
X60849996Y-90925001I1J500001D01*
G01*
X63550000Y-88225000D02*
G75*
G02*
X64050000Y-88725000I0J-500000D01*
G01*
X64049998Y-90925000D02*
G75*
G02*
X63549998Y-91424998I-499998J0D01*
G01*
%TO.C,A13*%
X39474998Y-88725000D02*
X39474998Y-90925001D01*
X39974999Y-88225000D02*
X42175000Y-88225000D01*
X42174998Y-91425000D02*
X39974997Y-91425000D01*
X42675000Y-88725000D02*
X42674998Y-90925000D01*
X39474998Y-88725000D02*
G75*
G02*
X39974998Y-88225000I500001J-1D01*
G01*
X39974996Y-91425001D02*
G75*
G02*
X39474996Y-90925001I1J500001D01*
G01*
X42175000Y-88225000D02*
G75*
G02*
X42675000Y-88725000I0J-500000D01*
G01*
X42674998Y-90925000D02*
G75*
G02*
X42174998Y-91424998I-499998J0D01*
G01*
%TO.C,A5*%
X113099998Y-69725000D02*
X113099998Y-71925001D01*
X113599999Y-69225000D02*
X115800000Y-69225000D01*
X115799998Y-72425000D02*
X113599997Y-72425000D01*
X116300000Y-69725000D02*
X116299998Y-71925000D01*
X113099998Y-69725000D02*
G75*
G02*
X113599998Y-69225000I500001J-1D01*
G01*
X113599996Y-72425001D02*
G75*
G02*
X113099996Y-71925001I1J500001D01*
G01*
X115800000Y-69225000D02*
G75*
G02*
X116300000Y-69725000I0J-500000D01*
G01*
X116299998Y-71925000D02*
G75*
G02*
X115799998Y-72424998I-499998J0D01*
G01*
%TO.C,A15*%
X79849998Y-88725000D02*
X79849998Y-90925001D01*
X80349999Y-88225000D02*
X82550000Y-88225000D01*
X82549998Y-91425000D02*
X80349997Y-91425000D01*
X83050000Y-88725000D02*
X83049998Y-90925000D01*
X79849998Y-88725000D02*
G75*
G02*
X80349998Y-88225000I500001J-1D01*
G01*
X80349996Y-91425001D02*
G75*
G02*
X79849996Y-90925001I1J500001D01*
G01*
X82550000Y-88225000D02*
G75*
G02*
X83050000Y-88725000I0J-500000D01*
G01*
X83049998Y-90925000D02*
G75*
G02*
X82549998Y-91424998I-499998J0D01*
G01*
%TO.C,A3*%
X75099998Y-69725000D02*
X75099998Y-71925001D01*
X75599999Y-69225000D02*
X77800000Y-69225000D01*
X77799998Y-72425000D02*
X75599997Y-72425000D01*
X78300000Y-69725000D02*
X78299998Y-71925000D01*
X75099998Y-69725000D02*
G75*
G02*
X75599998Y-69225000I500001J-1D01*
G01*
X75599996Y-72425001D02*
G75*
G02*
X75099996Y-71925001I1J500001D01*
G01*
X77800000Y-69225000D02*
G75*
G02*
X78300000Y-69725000I0J-500000D01*
G01*
X78299998Y-71925000D02*
G75*
G02*
X77799998Y-72424998I-499998J0D01*
G01*
%TO.C,A16*%
X98849998Y-88725000D02*
X98849998Y-90925001D01*
X99349999Y-88225000D02*
X101550000Y-88225000D01*
X101549998Y-91425000D02*
X99349997Y-91425000D01*
X102050000Y-88725000D02*
X102049998Y-90925000D01*
X98849998Y-88725000D02*
G75*
G02*
X99349998Y-88225000I500001J-1D01*
G01*
X99349996Y-91425001D02*
G75*
G02*
X98849996Y-90925001I1J500001D01*
G01*
X101550000Y-88225000D02*
G75*
G02*
X102050000Y-88725000I0J-500000D01*
G01*
X102049998Y-90925000D02*
G75*
G02*
X101549998Y-91424998I-499998J0D01*
G01*
%TO.C,A30*%
X165349998Y-107725000D02*
X165349998Y-109925001D01*
X165849999Y-107225000D02*
X168050000Y-107225000D01*
X168049998Y-110425000D02*
X165849997Y-110425000D01*
X168550000Y-107725000D02*
X168549998Y-109925000D01*
X165349998Y-107725000D02*
G75*
G02*
X165849998Y-107225000I500001J-1D01*
G01*
X165849996Y-110425001D02*
G75*
G02*
X165349996Y-109925001I1J500001D01*
G01*
X168050000Y-107225000D02*
G75*
G02*
X168550000Y-107725000I0J-500000D01*
G01*
X168549998Y-109925000D02*
G75*
G02*
X168049998Y-110424998I-499998J0D01*
G01*
%TO.C,A6*%
X132099998Y-69725000D02*
X132099998Y-71925001D01*
X132599999Y-69225000D02*
X134800000Y-69225000D01*
X134799998Y-72425000D02*
X132599997Y-72425000D01*
X135300000Y-69725000D02*
X135299998Y-71925000D01*
X132099998Y-69725000D02*
G75*
G02*
X132599998Y-69225000I500001J-1D01*
G01*
X132599996Y-72425001D02*
G75*
G02*
X132099996Y-71925001I1J500001D01*
G01*
X134800000Y-69225000D02*
G75*
G02*
X135300000Y-69725000I0J-500000D01*
G01*
X135299998Y-71925000D02*
G75*
G02*
X134799998Y-72424998I-499998J0D01*
G01*
%TO.C,A20*%
X174849998Y-88725000D02*
X174849998Y-90925001D01*
X175349999Y-88225000D02*
X177550000Y-88225000D01*
X177549998Y-91425000D02*
X175349997Y-91425000D01*
X178050000Y-88725000D02*
X178049998Y-90925000D01*
X174849998Y-88725000D02*
G75*
G02*
X175349998Y-88225000I500001J-1D01*
G01*
X175349996Y-91425001D02*
G75*
G02*
X174849996Y-90925001I1J500001D01*
G01*
X177550000Y-88225000D02*
G75*
G02*
X178050000Y-88725000I0J-500000D01*
G01*
X178049998Y-90925000D02*
G75*
G02*
X177549998Y-91424998I-499998J0D01*
G01*
%TO.C,A39*%
X231849998Y-126725000D02*
X231849998Y-128925001D01*
X232349999Y-126225000D02*
X234550000Y-126225000D01*
X234549998Y-129425000D02*
X232349997Y-129425000D01*
X235050000Y-126725000D02*
X235049998Y-128925000D01*
X231849998Y-126725000D02*
G75*
G02*
X232349998Y-126225000I500001J-1D01*
G01*
X232349996Y-129425001D02*
G75*
G02*
X231849996Y-128925001I1J500001D01*
G01*
X234550000Y-126225000D02*
G75*
G02*
X235050000Y-126725000I0J-500000D01*
G01*
X235049998Y-128925000D02*
G75*
G02*
X234549998Y-129424998I-499998J0D01*
G01*
%TO.C,A32*%
X203349998Y-107725000D02*
X203349998Y-109925001D01*
X203849999Y-107225000D02*
X206050000Y-107225000D01*
X206049998Y-110425000D02*
X203849997Y-110425000D01*
X206550000Y-107725000D02*
X206549998Y-109925000D01*
X203349998Y-107725000D02*
G75*
G02*
X203849998Y-107225000I500001J-1D01*
G01*
X203849996Y-110425001D02*
G75*
G02*
X203349996Y-109925001I1J500001D01*
G01*
X206050000Y-107225000D02*
G75*
G02*
X206550000Y-107725000I0J-500000D01*
G01*
X206549998Y-109925000D02*
G75*
G02*
X206049998Y-110424998I-499998J0D01*
G01*
%TO.C,A41*%
X100750000Y-130500000D02*
X100750000Y-135500000D01*
X107750000Y-130000000D02*
X101250000Y-130000000D01*
X107750000Y-135999999D02*
X101250000Y-135999999D01*
X108250000Y-135500000D02*
X108250000Y-130500000D01*
X100750000Y-130500000D02*
G75*
G02*
X101250000Y-130000000I500001J-1D01*
G01*
X101250000Y-136000000D02*
G75*
G02*
X100750000Y-135500000I1J500001D01*
G01*
X107750000Y-130000000D02*
G75*
G02*
X108250000Y-130500000I-1J-500001D01*
G01*
X108250000Y-135500000D02*
G75*
G02*
X107750000Y-136000000I-500001J1D01*
G01*
%TD*%
M02*
