M48
; DRILL file {KiCad 9.0.2} date 2025-06-22T14:38:35+0100
; FORMAT={-:-/ absolute / metric / decimal}
; #@! TF.CreationDate,2025-06-22T14:38:35+01:00
; #@! TF.GenerationSoftware,Kicad,Pcbnew,9.0.2
; #@! TF.FileFunction,NonPlated,1,2,NPTH
FMAT,2
METRIC
; #@! TA.AperFunction,NonPlated,NPTH,ComponentDrill
T1C2.000
; #@! TA.AperFunction,NonPlated,NPTH,ComponentDrill
T2C5.250
%
G90
G05
T1
X29.5Y-67.5
X29.5Y-141.5
X104.5Y-67.5
X104.5Y-141.5
X180.5Y-67.5
X180.5Y-141.5
X265.0Y-67.5
X265.0Y-141.5
T2
X38.0Y-76.0
X38.0Y-133.0
X40.375Y-95.0
X45.125Y-114.0
X57.0Y-76.0
X57.0Y-133.0
X61.75Y-95.0
X71.25Y-114.0
X76.0Y-76.0
X76.0Y-133.0
X80.75Y-95.0
X90.25Y-114.0
X95.0Y-76.0
X99.75Y-95.0
X109.25Y-114.0
X114.0Y-76.0
X118.75Y-95.0
X128.25Y-114.0
X133.0Y-76.0
X137.75Y-95.0
X144.875Y-133.0
X147.25Y-114.0
X152.0Y-76.0
X156.75Y-95.0
X166.25Y-114.0
X171.0Y-76.0
X175.75Y-95.0
X185.25Y-114.0
X190.0Y-76.0
X194.75Y-95.0
X204.25Y-114.0
X209.0Y-76.0
X213.75Y-95.0
X213.75Y-133.0
X228.0Y-76.0
X232.75Y-133.0
X239.875Y-114.0
X244.625Y-95.0
X251.75Y-76.0
X254.125Y-133.0
M30
