%TF.GenerationSoftware,KiCad,Pcbnew,9.0.2*%
%TF.CreationDate,2025-06-22T14:38:31+01:00*%
%TF.ProjectId,just-40-top,6a757374-2d34-4302-9d74-6f702e6b6963,rev?*%
%TF.SameCoordinates,Original*%
%TF.FileFunction,Legend,Top*%
%TF.FilePolarity,Positive*%
%FSLAX46Y46*%
G04 Gerber Fmt 4.6, Leading zero omitted, Abs format (unit mm)*
G04 Created by KiCad (PCBNEW 9.0.2) date 2025-06-22 14:38:31*
%MOMM*%
%LPD*%
G01*
G04 APERTURE LIST*
%ADD10C,0.150000*%
%ADD11C,0.100000*%
%ADD12C,2.000000*%
%ADD13C,5.250000*%
%ADD14C,3.000000*%
%ADD15O,1.600000X3.200000*%
%ADD16O,3.200000X1.600000*%
G04 APERTURE END LIST*
D10*
X135104819Y-137166666D02*
X134628628Y-137499999D01*
X135104819Y-137738094D02*
X134104819Y-137738094D01*
X134104819Y-137738094D02*
X134104819Y-137357142D01*
X134104819Y-137357142D02*
X134152438Y-137261904D01*
X134152438Y-137261904D02*
X134200057Y-137214285D01*
X134200057Y-137214285D02*
X134295295Y-137166666D01*
X134295295Y-137166666D02*
X134438152Y-137166666D01*
X134438152Y-137166666D02*
X134533390Y-137214285D01*
X134533390Y-137214285D02*
X134581009Y-137261904D01*
X134581009Y-137261904D02*
X134628628Y-137357142D01*
X134628628Y-137357142D02*
X134628628Y-137738094D01*
X135104819Y-136738094D02*
X134104819Y-136738094D01*
X134104819Y-136738094D02*
X134104819Y-136357142D01*
X134104819Y-136357142D02*
X134152438Y-136261904D01*
X134152438Y-136261904D02*
X134200057Y-136214285D01*
X134200057Y-136214285D02*
X134295295Y-136166666D01*
X134295295Y-136166666D02*
X134438152Y-136166666D01*
X134438152Y-136166666D02*
X134533390Y-136214285D01*
X134533390Y-136214285D02*
X134581009Y-136261904D01*
X134581009Y-136261904D02*
X134628628Y-136357142D01*
X134628628Y-136357142D02*
X134628628Y-136738094D01*
X134200057Y-135785713D02*
X134152438Y-135738094D01*
X134152438Y-135738094D02*
X134104819Y-135642856D01*
X134104819Y-135642856D02*
X134104819Y-135404761D01*
X134104819Y-135404761D02*
X134152438Y-135309523D01*
X134152438Y-135309523D02*
X134200057Y-135261904D01*
X134200057Y-135261904D02*
X134295295Y-135214285D01*
X134295295Y-135214285D02*
X134390533Y-135214285D01*
X134390533Y-135214285D02*
X134533390Y-135261904D01*
X134533390Y-135261904D02*
X135104819Y-135833332D01*
X135104819Y-135833332D02*
X135104819Y-135214285D01*
X134104819Y-134880951D02*
X134104819Y-134261904D01*
X134104819Y-134261904D02*
X134485771Y-134595237D01*
X134485771Y-134595237D02*
X134485771Y-134452380D01*
X134485771Y-134452380D02*
X134533390Y-134357142D01*
X134533390Y-134357142D02*
X134581009Y-134309523D01*
X134581009Y-134309523D02*
X134676247Y-134261904D01*
X134676247Y-134261904D02*
X134914342Y-134261904D01*
X134914342Y-134261904D02*
X135009580Y-134309523D01*
X135009580Y-134309523D02*
X135057200Y-134357142D01*
X135057200Y-134357142D02*
X135104819Y-134452380D01*
X135104819Y-134452380D02*
X135104819Y-134738094D01*
X135104819Y-134738094D02*
X135057200Y-134833332D01*
X135057200Y-134833332D02*
X135009580Y-134880951D01*
X134104819Y-133357142D02*
X134104819Y-133833332D01*
X134104819Y-133833332D02*
X134581009Y-133880951D01*
X134581009Y-133880951D02*
X134533390Y-133833332D01*
X134533390Y-133833332D02*
X134485771Y-133738094D01*
X134485771Y-133738094D02*
X134485771Y-133499999D01*
X134485771Y-133499999D02*
X134533390Y-133404761D01*
X134533390Y-133404761D02*
X134581009Y-133357142D01*
X134581009Y-133357142D02*
X134676247Y-133309523D01*
X134676247Y-133309523D02*
X134914342Y-133309523D01*
X134914342Y-133309523D02*
X135009580Y-133357142D01*
X135009580Y-133357142D02*
X135057200Y-133404761D01*
X135057200Y-133404761D02*
X135104819Y-133499999D01*
X135104819Y-133499999D02*
X135104819Y-133738094D01*
X135104819Y-133738094D02*
X135057200Y-133833332D01*
X135057200Y-133833332D02*
X135009580Y-133880951D01*
X134104819Y-132690475D02*
X134104819Y-132595237D01*
X134104819Y-132595237D02*
X134152438Y-132499999D01*
X134152438Y-132499999D02*
X134200057Y-132452380D01*
X134200057Y-132452380D02*
X134295295Y-132404761D01*
X134295295Y-132404761D02*
X134485771Y-132357142D01*
X134485771Y-132357142D02*
X134723866Y-132357142D01*
X134723866Y-132357142D02*
X134914342Y-132404761D01*
X134914342Y-132404761D02*
X135009580Y-132452380D01*
X135009580Y-132452380D02*
X135057200Y-132499999D01*
X135057200Y-132499999D02*
X135104819Y-132595237D01*
X135104819Y-132595237D02*
X135104819Y-132690475D01*
X135104819Y-132690475D02*
X135057200Y-132785713D01*
X135057200Y-132785713D02*
X135009580Y-132833332D01*
X135009580Y-132833332D02*
X134914342Y-132880951D01*
X134914342Y-132880951D02*
X134723866Y-132928570D01*
X134723866Y-132928570D02*
X134485771Y-132928570D01*
X134485771Y-132928570D02*
X134295295Y-132880951D01*
X134295295Y-132880951D02*
X134200057Y-132833332D01*
X134200057Y-132833332D02*
X134152438Y-132785713D01*
X134152438Y-132785713D02*
X134104819Y-132690475D01*
X134723866Y-131928570D02*
X134723866Y-131166666D01*
X134104819Y-130833332D02*
X134104819Y-130261904D01*
X135104819Y-130547618D02*
X134104819Y-130547618D01*
X135104819Y-129928570D02*
X134438152Y-129928570D01*
X134104819Y-129928570D02*
X134152438Y-129976189D01*
X134152438Y-129976189D02*
X134200057Y-129928570D01*
X134200057Y-129928570D02*
X134152438Y-129880951D01*
X134152438Y-129880951D02*
X134104819Y-129928570D01*
X134104819Y-129928570D02*
X134200057Y-129928570D01*
X134438152Y-129452380D02*
X135104819Y-129452380D01*
X134533390Y-129452380D02*
X134485771Y-129404761D01*
X134485771Y-129404761D02*
X134438152Y-129309523D01*
X134438152Y-129309523D02*
X134438152Y-129166666D01*
X134438152Y-129166666D02*
X134485771Y-129071428D01*
X134485771Y-129071428D02*
X134581009Y-129023809D01*
X134581009Y-129023809D02*
X135104819Y-129023809D01*
X134438152Y-128642856D02*
X135104819Y-128404761D01*
X134438152Y-128166666D02*
X135104819Y-128404761D01*
X135104819Y-128404761D02*
X135342914Y-128499999D01*
X135342914Y-128499999D02*
X135390533Y-128547618D01*
X135390533Y-128547618D02*
X135438152Y-128642856D01*
D11*
%TO.C,A9*%
X183000000Y-69000000D02*
X183000000Y-83000000D01*
X183000000Y-69000000D02*
X188500000Y-69000000D01*
X183000000Y-83000000D02*
X187000000Y-83000000D01*
X197000000Y-69000000D02*
X193000000Y-69000000D01*
X197000000Y-69000000D02*
X197000000Y-83000000D01*
X197000000Y-83000000D02*
X194000000Y-83000000D01*
%TO.C,A21*%
X187750000Y-88000000D02*
X187750000Y-102000000D01*
X187750000Y-88000000D02*
X193250000Y-88000000D01*
X187750000Y-102000000D02*
X191750000Y-102000000D01*
X201750000Y-88000000D02*
X197750000Y-88000000D01*
X201750000Y-88000000D02*
X201750000Y-102000000D01*
X201750000Y-102000000D02*
X198750000Y-102000000D01*
%TO.C,A22*%
X206750000Y-88000000D02*
X206750000Y-102000000D01*
X206750000Y-88000000D02*
X212250000Y-88000000D01*
X206750000Y-102000000D02*
X210750000Y-102000000D01*
X220750000Y-88000000D02*
X216750000Y-88000000D01*
X220750000Y-88000000D02*
X220750000Y-102000000D01*
X220750000Y-102000000D02*
X217750000Y-102000000D01*
%TO.C,A17*%
X111750000Y-88000000D02*
X111750000Y-102000000D01*
X111750000Y-88000000D02*
X117250000Y-88000000D01*
X111750000Y-102000000D02*
X115750000Y-102000000D01*
X125750000Y-88000000D02*
X121750000Y-88000000D01*
X125750000Y-88000000D02*
X125750000Y-102000000D01*
X125750000Y-102000000D02*
X122750000Y-102000000D01*
%TO.C,A36*%
X69000000Y-126000000D02*
X69000000Y-140000000D01*
X69000000Y-126000000D02*
X74500000Y-126000000D01*
X69000000Y-140000000D02*
X73000000Y-140000000D01*
X83000000Y-126000000D02*
X79000000Y-126000000D01*
X83000000Y-126000000D02*
X83000000Y-140000000D01*
X83000000Y-140000000D02*
X80000000Y-140000000D01*
%TO.C,A18*%
X130750000Y-88000000D02*
X130750000Y-102000000D01*
X130750000Y-88000000D02*
X136250000Y-88000000D01*
X130750000Y-102000000D02*
X134750000Y-102000000D01*
X144750000Y-88000000D02*
X140750000Y-88000000D01*
X144750000Y-88000000D02*
X144750000Y-102000000D01*
X144750000Y-102000000D02*
X141750000Y-102000000D01*
%TO.C,A28*%
X121250000Y-107000000D02*
X121250000Y-121000000D01*
X121250000Y-107000000D02*
X126750000Y-107000000D01*
X121250000Y-121000000D02*
X125250000Y-121000000D01*
X135250000Y-107000000D02*
X131250000Y-107000000D01*
X135250000Y-107000000D02*
X135250000Y-121000000D01*
X135250000Y-121000000D02*
X132250000Y-121000000D01*
%TO.C,A33*%
X232875000Y-107000000D02*
X232875000Y-121000000D01*
X232875000Y-107000000D02*
X238375000Y-107000000D01*
X232875000Y-121000000D02*
X236875000Y-121000000D01*
X246875000Y-107000000D02*
X242875000Y-107000000D01*
X246875000Y-107000000D02*
X246875000Y-121000000D01*
X246875000Y-121000000D02*
X243875000Y-121000000D01*
%TO.C,A2*%
X50000000Y-69000000D02*
X50000000Y-83000000D01*
X50000000Y-69000000D02*
X55500000Y-69000000D01*
X50000000Y-83000000D02*
X54000000Y-83000000D01*
X64000000Y-69000000D02*
X60000000Y-69000000D01*
X64000000Y-69000000D02*
X64000000Y-83000000D01*
X64000000Y-83000000D02*
X61000000Y-83000000D01*
%TO.C,A35*%
X50000000Y-126000000D02*
X50000000Y-140000000D01*
X50000000Y-126000000D02*
X55500000Y-126000000D01*
X50000000Y-140000000D02*
X54000000Y-140000000D01*
X64000000Y-126000000D02*
X60000000Y-126000000D01*
X64000000Y-126000000D02*
X64000000Y-140000000D01*
X64000000Y-140000000D02*
X61000000Y-140000000D01*
%TO.C,A34*%
X31000000Y-126000000D02*
X31000000Y-140000000D01*
X31000000Y-126000000D02*
X36500000Y-126000000D01*
X31000000Y-140000000D02*
X35000000Y-140000000D01*
X45000000Y-126000000D02*
X41000000Y-126000000D01*
X45000000Y-126000000D02*
X45000000Y-140000000D01*
X45000000Y-140000000D02*
X42000000Y-140000000D01*
%TO.C,A29*%
X140250000Y-107000000D02*
X140250000Y-121000000D01*
X140250000Y-107000000D02*
X145750000Y-107000000D01*
X140250000Y-121000000D02*
X144250000Y-121000000D01*
X154250000Y-107000000D02*
X150250000Y-107000000D01*
X154250000Y-107000000D02*
X154250000Y-121000000D01*
X154250000Y-121000000D02*
X151250000Y-121000000D01*
%TO.C,A31*%
X178250000Y-107000000D02*
X178250000Y-121000000D01*
X178250000Y-107000000D02*
X183750000Y-107000000D01*
X178250000Y-121000000D02*
X182250000Y-121000000D01*
X192250000Y-107000000D02*
X188250000Y-107000000D01*
X192250000Y-107000000D02*
X192250000Y-121000000D01*
X192250000Y-121000000D02*
X189250000Y-121000000D01*
%TO.C,A7*%
X145000000Y-69000000D02*
X145000000Y-83000000D01*
X145000000Y-69000000D02*
X150500000Y-69000000D01*
X145000000Y-83000000D02*
X149000000Y-83000000D01*
X159000000Y-69000000D02*
X155000000Y-69000000D01*
X159000000Y-69000000D02*
X159000000Y-83000000D01*
X159000000Y-83000000D02*
X156000000Y-83000000D01*
%TO.C,A1*%
X31000000Y-69000000D02*
X31000000Y-83000000D01*
X31000000Y-69000000D02*
X36500000Y-69000000D01*
X31000000Y-83000000D02*
X35000000Y-83000000D01*
X45000000Y-69000000D02*
X41000000Y-69000000D01*
X45000000Y-69000000D02*
X45000000Y-83000000D01*
X45000000Y-83000000D02*
X42000000Y-83000000D01*
%TO.C,A27*%
X102250000Y-107000000D02*
X102250000Y-121000000D01*
X102250000Y-107000000D02*
X107750000Y-107000000D01*
X102250000Y-121000000D02*
X106250000Y-121000000D01*
X116250000Y-107000000D02*
X112250000Y-107000000D01*
X116250000Y-107000000D02*
X116250000Y-121000000D01*
X116250000Y-121000000D02*
X113250000Y-121000000D01*
%TO.C,A4*%
X88000000Y-69000000D02*
X88000000Y-83000000D01*
X88000000Y-69000000D02*
X93500000Y-69000000D01*
X88000000Y-83000000D02*
X92000000Y-83000000D01*
X102000000Y-69000000D02*
X98000000Y-69000000D01*
X102000000Y-69000000D02*
X102000000Y-83000000D01*
X102000000Y-83000000D02*
X99000000Y-83000000D01*
%TO.C,A23*%
X237625000Y-88000000D02*
X237625000Y-102000000D01*
X237625000Y-88000000D02*
X243125000Y-88000000D01*
X237625000Y-102000000D02*
X241625000Y-102000000D01*
X251625000Y-88000000D02*
X247625000Y-88000000D01*
X251625000Y-88000000D02*
X251625000Y-102000000D01*
X251625000Y-102000000D02*
X248625000Y-102000000D01*
%TO.C,A26*%
X83250000Y-107000000D02*
X83250000Y-121000000D01*
X83250000Y-107000000D02*
X88750000Y-107000000D01*
X83250000Y-121000000D02*
X87250000Y-121000000D01*
X97250000Y-107000000D02*
X93250000Y-107000000D01*
X97250000Y-107000000D02*
X97250000Y-121000000D01*
X97250000Y-121000000D02*
X94250000Y-121000000D01*
%TO.C,A40*%
X247125000Y-126000000D02*
X247125000Y-140000000D01*
X247125000Y-126000000D02*
X252625000Y-126000000D01*
X247125000Y-140000000D02*
X251125000Y-140000000D01*
X261125000Y-126000000D02*
X257125000Y-126000000D01*
X261125000Y-126000000D02*
X261125000Y-140000000D01*
X261125000Y-140000000D02*
X258125000Y-140000000D01*
%TO.C,A11*%
X221000000Y-69000000D02*
X221000000Y-83000000D01*
X221000000Y-69000000D02*
X226500000Y-69000000D01*
X221000000Y-83000000D02*
X225000000Y-83000000D01*
X235000000Y-69000000D02*
X231000000Y-69000000D01*
X235000000Y-69000000D02*
X235000000Y-83000000D01*
X235000000Y-83000000D02*
X232000000Y-83000000D01*
%TO.C,A24*%
X38125000Y-107000000D02*
X38125000Y-121000000D01*
X38125000Y-107000000D02*
X43625000Y-107000000D01*
X38125000Y-121000000D02*
X42125000Y-121000000D01*
X52125000Y-107000000D02*
X48125000Y-107000000D01*
X52125000Y-107000000D02*
X52125000Y-121000000D01*
X52125000Y-121000000D02*
X49125000Y-121000000D01*
%TO.C,A37*%
X137875000Y-126000000D02*
X137875000Y-140000000D01*
X137875000Y-126000000D02*
X143375000Y-126000000D01*
X137875000Y-140000000D02*
X141875000Y-140000000D01*
X151875000Y-126000000D02*
X147875000Y-126000000D01*
X151875000Y-126000000D02*
X151875000Y-140000000D01*
X151875000Y-140000000D02*
X148875000Y-140000000D01*
%TO.C,A12*%
X244750000Y-69000000D02*
X244750000Y-83000000D01*
X244750000Y-69000000D02*
X250250000Y-69000000D01*
X244750000Y-83000000D02*
X248750000Y-83000000D01*
X258750000Y-69000000D02*
X254750000Y-69000000D01*
X258750000Y-69000000D02*
X258750000Y-83000000D01*
X258750000Y-83000000D02*
X255750000Y-83000000D01*
%TO.C,A10*%
X202000000Y-69000000D02*
X202000000Y-83000000D01*
X202000000Y-69000000D02*
X207500000Y-69000000D01*
X202000000Y-83000000D02*
X206000000Y-83000000D01*
X216000000Y-69000000D02*
X212000000Y-69000000D01*
X216000000Y-69000000D02*
X216000000Y-83000000D01*
X216000000Y-83000000D02*
X213000000Y-83000000D01*
%TO.C,A38*%
X206750000Y-126000000D02*
X206750000Y-140000000D01*
X206750000Y-126000000D02*
X212250000Y-126000000D01*
X206750000Y-140000000D02*
X210750000Y-140000000D01*
X220750000Y-126000000D02*
X216750000Y-126000000D01*
X220750000Y-126000000D02*
X220750000Y-140000000D01*
X220750000Y-140000000D02*
X217750000Y-140000000D01*
%TO.C,A19*%
X149750000Y-88000000D02*
X149750000Y-102000000D01*
X149750000Y-88000000D02*
X155250000Y-88000000D01*
X149750000Y-102000000D02*
X153750000Y-102000000D01*
X163750000Y-88000000D02*
X159750000Y-88000000D01*
X163750000Y-88000000D02*
X163750000Y-102000000D01*
X163750000Y-102000000D02*
X160750000Y-102000000D01*
%TO.C,A25*%
X64250000Y-107000000D02*
X64250000Y-121000000D01*
X64250000Y-107000000D02*
X69750000Y-107000000D01*
X64250000Y-121000000D02*
X68250000Y-121000000D01*
X78250000Y-107000000D02*
X74250000Y-107000000D01*
X78250000Y-107000000D02*
X78250000Y-121000000D01*
X78250000Y-121000000D02*
X75250000Y-121000000D01*
%TO.C,A8*%
X164000000Y-69000000D02*
X164000000Y-83000000D01*
X164000000Y-69000000D02*
X169500000Y-69000000D01*
X164000000Y-83000000D02*
X168000000Y-83000000D01*
X178000000Y-69000000D02*
X174000000Y-69000000D01*
X178000000Y-69000000D02*
X178000000Y-83000000D01*
X178000000Y-83000000D02*
X175000000Y-83000000D01*
%TO.C,A14*%
X54750000Y-88000000D02*
X54750000Y-102000000D01*
X54750000Y-88000000D02*
X60250000Y-88000000D01*
X54750000Y-102000000D02*
X58750000Y-102000000D01*
X68750000Y-88000000D02*
X64750000Y-88000000D01*
X68750000Y-88000000D02*
X68750000Y-102000000D01*
X68750000Y-102000000D02*
X65750000Y-102000000D01*
%TO.C,A13*%
X33375000Y-88000000D02*
X33375000Y-102000000D01*
X33375000Y-88000000D02*
X38875000Y-88000000D01*
X33375000Y-102000000D02*
X37375000Y-102000000D01*
X47375000Y-88000000D02*
X43375000Y-88000000D01*
X47375000Y-88000000D02*
X47375000Y-102000000D01*
X47375000Y-102000000D02*
X44375000Y-102000000D01*
%TO.C,A5*%
X107000000Y-69000000D02*
X107000000Y-83000000D01*
X107000000Y-69000000D02*
X112500000Y-69000000D01*
X107000000Y-83000000D02*
X111000000Y-83000000D01*
X121000000Y-69000000D02*
X117000000Y-69000000D01*
X121000000Y-69000000D02*
X121000000Y-83000000D01*
X121000000Y-83000000D02*
X118000000Y-83000000D01*
%TO.C,A15*%
X73750000Y-88000000D02*
X73750000Y-102000000D01*
X73750000Y-88000000D02*
X79250000Y-88000000D01*
X73750000Y-102000000D02*
X77750000Y-102000000D01*
X87750000Y-88000000D02*
X83750000Y-88000000D01*
X87750000Y-88000000D02*
X87750000Y-102000000D01*
X87750000Y-102000000D02*
X84750000Y-102000000D01*
%TO.C,A3*%
X69000000Y-69000000D02*
X69000000Y-83000000D01*
X69000000Y-69000000D02*
X74500000Y-69000000D01*
X69000000Y-83000000D02*
X73000000Y-83000000D01*
X83000000Y-69000000D02*
X79000000Y-69000000D01*
X83000000Y-69000000D02*
X83000000Y-83000000D01*
X83000000Y-83000000D02*
X80000000Y-83000000D01*
%TO.C,A16*%
X92750000Y-88000000D02*
X92750000Y-102000000D01*
X92750000Y-88000000D02*
X98250000Y-88000000D01*
X92750000Y-102000000D02*
X96750000Y-102000000D01*
X106750000Y-88000000D02*
X102750000Y-88000000D01*
X106750000Y-88000000D02*
X106750000Y-102000000D01*
X106750000Y-102000000D02*
X103750000Y-102000000D01*
%TO.C,A30*%
X159250000Y-107000000D02*
X159250000Y-121000000D01*
X159250000Y-107000000D02*
X164750000Y-107000000D01*
X159250000Y-121000000D02*
X163250000Y-121000000D01*
X173250000Y-107000000D02*
X169250000Y-107000000D01*
X173250000Y-107000000D02*
X173250000Y-121000000D01*
X173250000Y-121000000D02*
X170250000Y-121000000D01*
%TO.C,A6*%
X126000000Y-69000000D02*
X126000000Y-83000000D01*
X126000000Y-69000000D02*
X131500000Y-69000000D01*
X126000000Y-83000000D02*
X130000000Y-83000000D01*
X140000000Y-69000000D02*
X136000000Y-69000000D01*
X140000000Y-69000000D02*
X140000000Y-83000000D01*
X140000000Y-83000000D02*
X137000000Y-83000000D01*
%TO.C,A20*%
X168750000Y-88000000D02*
X168750000Y-102000000D01*
X168750000Y-88000000D02*
X174250000Y-88000000D01*
X168750000Y-102000000D02*
X172750000Y-102000000D01*
X182750000Y-88000000D02*
X178750000Y-88000000D01*
X182750000Y-88000000D02*
X182750000Y-102000000D01*
X182750000Y-102000000D02*
X179750000Y-102000000D01*
%TO.C,A39*%
X225750000Y-126000000D02*
X225750000Y-140000000D01*
X225750000Y-126000000D02*
X231250000Y-126000000D01*
X225750000Y-140000000D02*
X229750000Y-140000000D01*
X239750000Y-126000000D02*
X235750000Y-126000000D01*
X239750000Y-126000000D02*
X239750000Y-140000000D01*
X239750000Y-140000000D02*
X236750000Y-140000000D01*
%TO.C,A32*%
X197250000Y-107000000D02*
X197250000Y-121000000D01*
X197250000Y-107000000D02*
X202750000Y-107000000D01*
X197250000Y-121000000D02*
X201250000Y-121000000D01*
X211250000Y-107000000D02*
X207250000Y-107000000D01*
X211250000Y-107000000D02*
X211250000Y-121000000D01*
X211250000Y-121000000D02*
X208250000Y-121000000D01*
%TO.C,A41*%
X109250000Y-141000000D02*
X109250000Y-125000000D01*
X132750000Y-125000000D02*
X132750000Y-126750000D01*
X132750000Y-139250000D02*
X132750000Y-141000000D01*
%TD*%
%LPC*%
D12*
%TO.C,H4*%
X265000000Y-67500000D03*
%TD*%
%TO.C,H1*%
X29500000Y-67500000D03*
%TD*%
D13*
%TO.C,A9*%
X190000000Y-76000000D03*
D14*
X185600000Y-80700000D03*
X192600000Y-81750000D03*
%TD*%
D12*
%TO.C,H5*%
X29500000Y-141500000D03*
%TD*%
D13*
%TO.C,A21*%
X194750000Y-95000000D03*
D14*
X190350000Y-99700000D03*
X197350000Y-100750000D03*
%TD*%
D12*
%TO.C,H7*%
X180500000Y-141500000D03*
%TD*%
D13*
%TO.C,A22*%
X213750000Y-95000000D03*
D14*
X209350000Y-99700000D03*
X216350000Y-100750000D03*
%TD*%
D13*
%TO.C,A17*%
X118750000Y-95000000D03*
D14*
X114350000Y-99700000D03*
X121350000Y-100750000D03*
%TD*%
D13*
%TO.C,A36*%
X76000000Y-133000000D03*
D14*
X71600000Y-137700000D03*
X78600000Y-138750000D03*
%TD*%
D13*
%TO.C,A18*%
X137750000Y-95000000D03*
D14*
X133350000Y-99700000D03*
X140350000Y-100750000D03*
%TD*%
D13*
%TO.C,A28*%
X128250000Y-114000000D03*
D14*
X123850000Y-118700000D03*
X130850000Y-119750000D03*
%TD*%
D13*
%TO.C,A33*%
X239875000Y-114000000D03*
D14*
X235475000Y-118700000D03*
X242475000Y-119750000D03*
%TD*%
D13*
%TO.C,A2*%
X57000000Y-76000000D03*
D14*
X52600000Y-80700000D03*
X59600000Y-81750000D03*
%TD*%
D13*
%TO.C,A35*%
X57000000Y-133000000D03*
D14*
X52600000Y-137700000D03*
X59600000Y-138750000D03*
%TD*%
D12*
%TO.C,H8*%
X265000000Y-141500000D03*
%TD*%
D13*
%TO.C,A34*%
X38000000Y-133000000D03*
D14*
X33600000Y-137700000D03*
X40600000Y-138750000D03*
%TD*%
D13*
%TO.C,A29*%
X147250000Y-114000000D03*
D14*
X142850000Y-118700000D03*
X149850000Y-119750000D03*
%TD*%
D12*
%TO.C,H6*%
X104500000Y-141500000D03*
%TD*%
D13*
%TO.C,A31*%
X185250000Y-114000000D03*
D14*
X180850000Y-118700000D03*
X187850000Y-119750000D03*
%TD*%
D13*
%TO.C,A7*%
X152000000Y-76000000D03*
D14*
X147600000Y-80700000D03*
X154600000Y-81750000D03*
%TD*%
D13*
%TO.C,A1*%
X38000000Y-76000000D03*
D14*
X33600000Y-80700000D03*
X40600000Y-81750000D03*
%TD*%
D13*
%TO.C,A27*%
X109250000Y-114000000D03*
D14*
X104850000Y-118700000D03*
X111850000Y-119750000D03*
%TD*%
D13*
%TO.C,A4*%
X95000000Y-76000000D03*
D14*
X90600000Y-80700000D03*
X97600000Y-81750000D03*
%TD*%
D13*
%TO.C,A23*%
X244625000Y-95000000D03*
D14*
X240225000Y-99700000D03*
X247225000Y-100750000D03*
%TD*%
D13*
%TO.C,A26*%
X90250000Y-114000000D03*
D14*
X85850000Y-118700000D03*
X92850000Y-119750000D03*
%TD*%
D13*
%TO.C,A40*%
X254125000Y-133000000D03*
D14*
X249725000Y-137700000D03*
X256725000Y-138750000D03*
%TD*%
D13*
%TO.C,A11*%
X228000000Y-76000000D03*
D14*
X223600000Y-80700000D03*
X230600000Y-81750000D03*
%TD*%
D13*
%TO.C,A24*%
X45125000Y-114000000D03*
D14*
X40725000Y-118700000D03*
X47725000Y-119750000D03*
%TD*%
D13*
%TO.C,A37*%
X144875000Y-133000000D03*
D14*
X140475000Y-137700000D03*
X147475000Y-138750000D03*
%TD*%
D13*
%TO.C,A12*%
X251750000Y-76000000D03*
D14*
X247350000Y-80700000D03*
X254350000Y-81750000D03*
%TD*%
D13*
%TO.C,A10*%
X209000000Y-76000000D03*
D14*
X204600000Y-80700000D03*
X211600000Y-81750000D03*
%TD*%
D13*
%TO.C,A38*%
X213750000Y-133000000D03*
D14*
X209350000Y-137700000D03*
X216350000Y-138750000D03*
%TD*%
D13*
%TO.C,A19*%
X156750000Y-95000000D03*
D14*
X152350000Y-99700000D03*
X159350000Y-100750000D03*
%TD*%
D13*
%TO.C,A25*%
X71250000Y-114000000D03*
D14*
X66850000Y-118700000D03*
X73850000Y-119750000D03*
%TD*%
D13*
%TO.C,A8*%
X171000000Y-76000000D03*
D14*
X166600000Y-80700000D03*
X173600000Y-81750000D03*
%TD*%
D12*
%TO.C,H3*%
X180500000Y-67500000D03*
%TD*%
D13*
%TO.C,A14*%
X61750000Y-95000000D03*
D14*
X57350000Y-99700000D03*
X64350000Y-100750000D03*
%TD*%
D13*
%TO.C,A13*%
X40375000Y-95000000D03*
D14*
X35975000Y-99700000D03*
X42975000Y-100750000D03*
%TD*%
D13*
%TO.C,A5*%
X114000000Y-76000000D03*
D14*
X109600000Y-80700000D03*
X116600000Y-81750000D03*
%TD*%
D13*
%TO.C,A15*%
X80750000Y-95000000D03*
D14*
X76350000Y-99700000D03*
X83350000Y-100750000D03*
%TD*%
D13*
%TO.C,A3*%
X76000000Y-76000000D03*
D14*
X71600000Y-80700000D03*
X78600000Y-81750000D03*
%TD*%
D13*
%TO.C,A16*%
X99750000Y-95000000D03*
D14*
X95350000Y-99700000D03*
X102350000Y-100750000D03*
%TD*%
D13*
%TO.C,A30*%
X166250000Y-114000000D03*
D14*
X161850000Y-118700000D03*
X168850000Y-119750000D03*
%TD*%
D13*
%TO.C,A6*%
X133000000Y-76000000D03*
D14*
X128600000Y-80700000D03*
X135600000Y-81750000D03*
%TD*%
D13*
%TO.C,A20*%
X175750000Y-95000000D03*
D14*
X171350000Y-99700000D03*
X178350000Y-100750000D03*
%TD*%
D13*
%TO.C,A39*%
X232750000Y-133000000D03*
D14*
X228350000Y-137700000D03*
X235350000Y-138750000D03*
%TD*%
D13*
%TO.C,A32*%
X204250000Y-114000000D03*
D14*
X199850000Y-118700000D03*
X206850000Y-119750000D03*
%TD*%
D12*
%TO.C,H2*%
X104500000Y-67500000D03*
%TD*%
D15*
%TO.C,A41*%
X110840000Y-124790000D03*
X113380000Y-124790000D03*
X115920000Y-124790000D03*
X118460000Y-124790000D03*
X115920000Y-141210000D03*
X121000000Y-124790000D03*
X123540000Y-124790000D03*
X110840000Y-141210000D03*
X126080000Y-124790000D03*
X128620000Y-124790000D03*
X131160000Y-124790000D03*
D16*
X131960000Y-127920000D03*
X131960000Y-130460000D03*
X131960000Y-133000000D03*
X131960000Y-135540000D03*
X131960000Y-138080000D03*
D15*
X131160000Y-141210000D03*
X128620000Y-141210000D03*
X126080000Y-141210000D03*
X123540000Y-141210000D03*
X121000000Y-141210000D03*
X118460000Y-141210000D03*
X113380000Y-141210000D03*
%TD*%
%LPD*%
M02*
