%TF.GenerationSoftware,KiCad,Pcbnew,9.0.2*%
%TF.CreationDate,2025-07-17T20:40:52+01:00*%
%TF.ProjectId,just-40-middle,6a757374-2d34-4302-9d6d-6964646c652e,rev?*%
%TF.SameCoordinates,Original*%
%TF.FileFunction,Drillmap*%
%TF.FilePolarity,Positive*%
%FSLAX45Y45*%
G04 Gerber Fmt 4.5, Leading zero omitted, Abs format (unit mm)*
G04 Created by KiCad (PCBNEW 9.0.2) date 2025-07-17 20:40:52*
%MOMM*%
%LPD*%
G01*
G04 APERTURE LIST*
%ADD10C,0.050000*%
%ADD11C,0.200000*%
%ADD12C,0.100000*%
%ADD13C,0.150000*%
G04 APERTURE END LIST*
D10*
X25175000Y-6550000D02*
G75*
G02*
X25275000Y-6650000I0J-100000D01*
G01*
X25275000Y-14250000D02*
G75*
G02*
X25175000Y-14350000I-100000J0D01*
G01*
X2375000Y-14350000D02*
G75*
G02*
X2275000Y-14250000I0J100000D01*
G01*
X25175000Y-6550000D02*
X2375000Y-6550000D01*
X2275000Y-6650000D02*
G75*
G02*
X2375000Y-6550000I100000J0D01*
G01*
X25175000Y-14350000D02*
X2375000Y-14350000D01*
X25275000Y-6650000D02*
X25275000Y-14250000D01*
X2275000Y-14250000D02*
X2275000Y-6650000D01*
X11630000Y-13195000D02*
X11630000Y-13475000D01*
X11680000Y-13525000D02*
X11720000Y-13525000D01*
X11720000Y-12620000D02*
X11900000Y-12620000D01*
X11720000Y-12720000D02*
X11720000Y-13145000D01*
X11720000Y-13145000D02*
X11680000Y-13145000D01*
X11720000Y-13525000D02*
X11720000Y-13750000D01*
X11900000Y-12620000D02*
X11900000Y-12550000D01*
X12150000Y-12500000D02*
X11950000Y-12500000D01*
X12200000Y-12620000D02*
X12200000Y-12550000D01*
X12380000Y-12620000D02*
X12200000Y-12620000D01*
X12380000Y-12720000D02*
X12380000Y-13145000D01*
X12380000Y-13525000D02*
X12380000Y-13750000D01*
X12380000Y-13525000D02*
X12420000Y-13525000D01*
X12380000Y-13850000D02*
X11720000Y-13850000D01*
X12420000Y-13145000D02*
X12380000Y-13145000D01*
X12470000Y-13475000D02*
X12470000Y-13195000D01*
X13020000Y-12892500D02*
X13020000Y-12672500D01*
X13070000Y-12622500D02*
X13290000Y-12622500D01*
X13290000Y-12942500D02*
X13070000Y-12942500D01*
X13340000Y-12892500D02*
X13340000Y-12672500D01*
X14030000Y-13195000D02*
X14030000Y-13475000D01*
X14080000Y-13525000D02*
X14120000Y-13525000D01*
X14120000Y-12620000D02*
X14300000Y-12620000D01*
X14120000Y-12720000D02*
X14120000Y-13145000D01*
X14120000Y-13145000D02*
X14080000Y-13145000D01*
X14120000Y-13525000D02*
X14120000Y-13750000D01*
X14300000Y-12620000D02*
X14300000Y-12550000D01*
X14550000Y-12500000D02*
X14350000Y-12500000D01*
X14600000Y-12620000D02*
X14600000Y-12550000D01*
X14780000Y-12620000D02*
X14600000Y-12620000D01*
X14780000Y-12720000D02*
X14780000Y-13145000D01*
X14780000Y-13525000D02*
X14780000Y-13750000D01*
X14780000Y-13525000D02*
X14820000Y-13525000D01*
X14780000Y-13850000D02*
X14120000Y-13850000D01*
X14820000Y-13145000D02*
X14780000Y-13145000D01*
X14870000Y-13475000D02*
X14870000Y-13195000D01*
X11630000Y-13195000D02*
G75*
G02*
X11680000Y-13145000I50000J0D01*
G01*
X11680000Y-13525000D02*
G75*
G02*
X11630000Y-13475000I0J50000D01*
G01*
X11720000Y-12720000D02*
G75*
G02*
X11720000Y-12620000I0J50000D01*
G01*
X11720000Y-13850000D02*
G75*
G02*
X11720000Y-13750000I0J50000D01*
G01*
X11900000Y-12550000D02*
G75*
G02*
X11950000Y-12500000I50000J0D01*
G01*
X12150000Y-12500000D02*
G75*
G02*
X12200000Y-12550000I0J-50000D01*
G01*
X12380000Y-12620000D02*
G75*
G02*
X12380000Y-12720000I0J-50000D01*
G01*
X12380000Y-13750000D02*
G75*
G02*
X12380000Y-13850000I0J-50000D01*
G01*
X12420000Y-13145000D02*
G75*
G02*
X12470000Y-13195000I0J-50000D01*
G01*
X12470000Y-13475000D02*
G75*
G02*
X12420000Y-13525000I-50000J0D01*
G01*
X13020000Y-12672500D02*
G75*
G02*
X13070000Y-12622500I50000J0D01*
G01*
X13070000Y-12942500D02*
G75*
G02*
X13020000Y-12892500I0J50000D01*
G01*
X13290000Y-12622500D02*
G75*
G02*
X13340000Y-12672500I0J-50000D01*
G01*
X13340000Y-12892500D02*
G75*
G02*
X13290000Y-12942500I-50000J0D01*
G01*
X14030000Y-13195000D02*
G75*
G02*
X14080000Y-13145000I50000J0D01*
G01*
X14080000Y-13525000D02*
G75*
G02*
X14030000Y-13475000I0J50000D01*
G01*
X14120000Y-12720000D02*
G75*
G02*
X14120000Y-12620000I0J50000D01*
G01*
X14120000Y-13850000D02*
G75*
G02*
X14120000Y-13750000I0J50000D01*
G01*
X14300000Y-12550000D02*
G75*
G02*
X14350000Y-12500000I50000J0D01*
G01*
X14550000Y-12500000D02*
G75*
G02*
X14600000Y-12550000I0J-50000D01*
G01*
X14780000Y-12620000D02*
G75*
G02*
X14780000Y-12720000I0J-50000D01*
G01*
X14780000Y-13750000D02*
G75*
G02*
X14780000Y-13850000I0J-50000D01*
G01*
X14820000Y-13145000D02*
G75*
G02*
X14870000Y-13195000I0J-50000D01*
G01*
X14870000Y-13475000D02*
G75*
G02*
X14820000Y-13525000I-50000J0D01*
G01*
X18295000Y-6972500D02*
X18295000Y-7192500D01*
X18345000Y-6922500D02*
X18565000Y-6922500D01*
X18565000Y-7242500D02*
X18345000Y-7242500D01*
X18615000Y-6972500D02*
X18615000Y-7192500D01*
X18295000Y-6972500D02*
G75*
G02*
X18345000Y-6922500I50000J0D01*
G01*
X18345000Y-7242500D02*
G75*
G02*
X18295000Y-7192500I0J50000D01*
G01*
X18565000Y-6922500D02*
G75*
G02*
X18615000Y-6972500I0J-50000D01*
G01*
X18615000Y-7192500D02*
G75*
G02*
X18565000Y-7242500I-50000J0D01*
G01*
X18720000Y-9092500D02*
X18720000Y-8872500D01*
X18770000Y-8822500D02*
X18990000Y-8822500D01*
X18990000Y-9142500D02*
X18770000Y-9142500D01*
X19040000Y-9092500D02*
X19040000Y-8872500D01*
X18720000Y-8872500D02*
G75*
G02*
X18770000Y-8822500I50000J0D01*
G01*
X18770000Y-9142500D02*
G75*
G02*
X18720000Y-9092500I0J50000D01*
G01*
X18990000Y-8822500D02*
G75*
G02*
X19040000Y-8872500I0J-50000D01*
G01*
X19040000Y-9092500D02*
G75*
G02*
X18990000Y-9142500I-50000J0D01*
G01*
X20620000Y-9092500D02*
X20620000Y-8872500D01*
X20670000Y-8822500D02*
X20890000Y-8822500D01*
X20890000Y-9142500D02*
X20670000Y-9142500D01*
X20940000Y-9092500D02*
X20940000Y-8872500D01*
X20620000Y-8872500D02*
G75*
G02*
X20670000Y-8822500I50000J0D01*
G01*
X20670000Y-9142500D02*
G75*
G02*
X20620000Y-9092500I0J50000D01*
G01*
X20890000Y-8822500D02*
G75*
G02*
X20940000Y-8872500I0J-50000D01*
G01*
X20940000Y-9092500D02*
G75*
G02*
X20890000Y-9142500I-50000J0D01*
G01*
X11120000Y-9092500D02*
X11120000Y-8872500D01*
X11170000Y-8822500D02*
X11390000Y-8822500D01*
X11390000Y-9142500D02*
X11170000Y-9142500D01*
X11440000Y-9092500D02*
X11440000Y-8872500D01*
X11120000Y-8872500D02*
G75*
G02*
X11170000Y-8822500I50000J0D01*
G01*
X11170000Y-9142500D02*
G75*
G02*
X11120000Y-9092500I0J50000D01*
G01*
X11390000Y-8822500D02*
G75*
G02*
X11440000Y-8872500I0J-50000D01*
G01*
X11440000Y-9092500D02*
G75*
G02*
X11390000Y-9142500I-50000J0D01*
G01*
X9745000Y-12892500D02*
X9745000Y-12672500D01*
X9795000Y-12622500D02*
X10015000Y-12622500D01*
X10015000Y-12942500D02*
X9795000Y-12942500D01*
X10065000Y-12892500D02*
X10065000Y-12672500D01*
X9745000Y-12672500D02*
G75*
G02*
X9795000Y-12622500I50000J0D01*
G01*
X9795000Y-12942500D02*
G75*
G02*
X9745000Y-12892500I0J50000D01*
G01*
X10015000Y-12622500D02*
G75*
G02*
X10065000Y-12672500I0J-50000D01*
G01*
X10065000Y-12892500D02*
G75*
G02*
X10015000Y-12942500I-50000J0D01*
G01*
X13020000Y-9092500D02*
X13020000Y-8872500D01*
X13070000Y-8822500D02*
X13290000Y-8822500D01*
X13290000Y-9142500D02*
X13070000Y-9142500D01*
X13340000Y-9092500D02*
X13340000Y-8872500D01*
X13020000Y-8872500D02*
G75*
G02*
X13070000Y-8822500I50000J0D01*
G01*
X13070000Y-9142500D02*
G75*
G02*
X13020000Y-9092500I0J50000D01*
G01*
X13290000Y-8822500D02*
G75*
G02*
X13340000Y-8872500I0J-50000D01*
G01*
X13340000Y-9092500D02*
G75*
G02*
X13290000Y-9142500I-50000J0D01*
G01*
X12070000Y-10772500D02*
X12070000Y-10992500D01*
X12120000Y-10722500D02*
X12340000Y-10722500D01*
X12340000Y-11042500D02*
X12120000Y-11042500D01*
X12390000Y-10772500D02*
X12390000Y-10992500D01*
X12070000Y-10772500D02*
G75*
G02*
X12120000Y-10722500I50000J0D01*
G01*
X12120000Y-11042500D02*
G75*
G02*
X12070000Y-10992500I0J50000D01*
G01*
X12340000Y-10722500D02*
G75*
G02*
X12390000Y-10772500I0J-50000D01*
G01*
X12390000Y-10992500D02*
G75*
G02*
X12340000Y-11042500I-50000J0D01*
G01*
X21570000Y-10772500D02*
X21570000Y-10992500D01*
X21620000Y-10722500D02*
X21840000Y-10722500D01*
X21840000Y-11042500D02*
X21620000Y-11042500D01*
X21890000Y-10772500D02*
X21890000Y-10992500D01*
X21570000Y-10772500D02*
G75*
G02*
X21620000Y-10722500I50000J0D01*
G01*
X21620000Y-11042500D02*
G75*
G02*
X21570000Y-10992500I0J50000D01*
G01*
X21840000Y-10722500D02*
G75*
G02*
X21890000Y-10772500I0J-50000D01*
G01*
X21890000Y-10992500D02*
G75*
G02*
X21840000Y-11042500I-50000J0D01*
G01*
X4995000Y-6972500D02*
X4995000Y-7192500D01*
X5045000Y-6922500D02*
X5265000Y-6922500D01*
X5265000Y-7242500D02*
X5045000Y-7242500D01*
X5315000Y-6972500D02*
X5315000Y-7192500D01*
X4995000Y-6972500D02*
G75*
G02*
X5045000Y-6922500I50000J0D01*
G01*
X5045000Y-7242500D02*
G75*
G02*
X4995000Y-7192500I0J50000D01*
G01*
X5265000Y-6922500D02*
G75*
G02*
X5315000Y-6972500I0J-50000D01*
G01*
X5315000Y-7192500D02*
G75*
G02*
X5265000Y-7242500I-50000J0D01*
G01*
X7845000Y-12892500D02*
X7845000Y-12672500D01*
X7895000Y-12622500D02*
X8115000Y-12622500D01*
X8115000Y-12942500D02*
X7895000Y-12942500D01*
X8165000Y-12892500D02*
X8165000Y-12672500D01*
X7845000Y-12672500D02*
G75*
G02*
X7895000Y-12622500I50000J0D01*
G01*
X7895000Y-12942500D02*
G75*
G02*
X7845000Y-12892500I0J50000D01*
G01*
X8115000Y-12622500D02*
G75*
G02*
X8165000Y-12672500I0J-50000D01*
G01*
X8165000Y-12892500D02*
G75*
G02*
X8115000Y-12942500I-50000J0D01*
G01*
X5945000Y-12892500D02*
X5945000Y-12672500D01*
X5995000Y-12622500D02*
X6215000Y-12622500D01*
X6215000Y-12942500D02*
X5995000Y-12942500D01*
X6265000Y-12892500D02*
X6265000Y-12672500D01*
X5945000Y-12672500D02*
G75*
G02*
X5995000Y-12622500I50000J0D01*
G01*
X5995000Y-12942500D02*
G75*
G02*
X5945000Y-12892500I0J50000D01*
G01*
X6215000Y-12622500D02*
G75*
G02*
X6265000Y-12672500I0J-50000D01*
G01*
X6265000Y-12892500D02*
G75*
G02*
X6215000Y-12942500I-50000J0D01*
G01*
X13970000Y-10772500D02*
X13970000Y-10992500D01*
X14020000Y-10722500D02*
X14240000Y-10722500D01*
X14240000Y-11042500D02*
X14020000Y-11042500D01*
X14290000Y-10772500D02*
X14290000Y-10992500D01*
X13970000Y-10772500D02*
G75*
G02*
X14020000Y-10722500I50000J0D01*
G01*
X14020000Y-11042500D02*
G75*
G02*
X13970000Y-10992500I0J50000D01*
G01*
X14240000Y-10722500D02*
G75*
G02*
X14290000Y-10772500I0J-50000D01*
G01*
X14290000Y-10992500D02*
G75*
G02*
X14240000Y-11042500I-50000J0D01*
G01*
X17770000Y-10772500D02*
X17770000Y-10992500D01*
X17820000Y-10722500D02*
X18040000Y-10722500D01*
X18040000Y-11042500D02*
X17820000Y-11042500D01*
X18090000Y-10772500D02*
X18090000Y-10992500D01*
X17770000Y-10772500D02*
G75*
G02*
X17820000Y-10722500I50000J0D01*
G01*
X17820000Y-11042500D02*
G75*
G02*
X17770000Y-10992500I0J50000D01*
G01*
X18040000Y-10722500D02*
G75*
G02*
X18090000Y-10772500I0J-50000D01*
G01*
X18090000Y-10992500D02*
G75*
G02*
X18040000Y-11042500I-50000J0D01*
G01*
X14495000Y-6972500D02*
X14495000Y-7192500D01*
X14545000Y-6922500D02*
X14765000Y-6922500D01*
X14765000Y-7242500D02*
X14545000Y-7242500D01*
X14815000Y-6972500D02*
X14815000Y-7192500D01*
X14495000Y-6972500D02*
G75*
G02*
X14545000Y-6922500I50000J0D01*
G01*
X14545000Y-7242500D02*
G75*
G02*
X14495000Y-7192500I0J50000D01*
G01*
X14765000Y-6922500D02*
G75*
G02*
X14815000Y-6972500I0J-50000D01*
G01*
X14815000Y-7192500D02*
G75*
G02*
X14765000Y-7242500I-50000J0D01*
G01*
X3095000Y-6972500D02*
X3095000Y-7192500D01*
X3145000Y-6922500D02*
X3365000Y-6922500D01*
X3365000Y-7242500D02*
X3145000Y-7242500D01*
X3415000Y-6972500D02*
X3415000Y-7192500D01*
X3095000Y-6972500D02*
G75*
G02*
X3145000Y-6922500I50000J0D01*
G01*
X3145000Y-7242500D02*
G75*
G02*
X3095000Y-7192500I0J50000D01*
G01*
X3365000Y-6922500D02*
G75*
G02*
X3415000Y-6972500I0J-50000D01*
G01*
X3415000Y-7192500D02*
G75*
G02*
X3365000Y-7242500I-50000J0D01*
G01*
X10170000Y-10772500D02*
X10170000Y-10992500D01*
X10220000Y-10722500D02*
X10440000Y-10722500D01*
X10440000Y-11042500D02*
X10220000Y-11042500D01*
X10490000Y-10772500D02*
X10490000Y-10992500D01*
X10170000Y-10772500D02*
G75*
G02*
X10220000Y-10722500I50000J0D01*
G01*
X10220000Y-11042500D02*
G75*
G02*
X10170000Y-10992500I0J50000D01*
G01*
X10440000Y-10722500D02*
G75*
G02*
X10490000Y-10772500I0J-50000D01*
G01*
X10490000Y-10992500D02*
G75*
G02*
X10440000Y-11042500I-50000J0D01*
G01*
X8795000Y-6972500D02*
X8795000Y-7192500D01*
X8845000Y-6922500D02*
X9065000Y-6922500D01*
X9065000Y-7242500D02*
X8845000Y-7242500D01*
X9115000Y-6972500D02*
X9115000Y-7192500D01*
X8795000Y-6972500D02*
G75*
G02*
X8845000Y-6922500I50000J0D01*
G01*
X8845000Y-7242500D02*
G75*
G02*
X8795000Y-7192500I0J50000D01*
G01*
X9065000Y-6922500D02*
G75*
G02*
X9115000Y-6972500I0J-50000D01*
G01*
X9115000Y-7192500D02*
G75*
G02*
X9065000Y-7242500I-50000J0D01*
G01*
X22520000Y-9092500D02*
X22520000Y-8872500D01*
X22570000Y-8822500D02*
X22790000Y-8822500D01*
X22790000Y-9142500D02*
X22570000Y-9142500D01*
X22840000Y-9092500D02*
X22840000Y-8872500D01*
X22520000Y-8872500D02*
G75*
G02*
X22570000Y-8822500I50000J0D01*
G01*
X22570000Y-9142500D02*
G75*
G02*
X22520000Y-9092500I0J50000D01*
G01*
X22790000Y-8822500D02*
G75*
G02*
X22840000Y-8872500I0J-50000D01*
G01*
X22840000Y-9092500D02*
G75*
G02*
X22790000Y-9142500I-50000J0D01*
G01*
X8270000Y-10772500D02*
X8270000Y-10992500D01*
X8320000Y-10722500D02*
X8540000Y-10722500D01*
X8540000Y-11042500D02*
X8320000Y-11042500D01*
X8590000Y-10772500D02*
X8590000Y-10992500D01*
X8270000Y-10772500D02*
G75*
G02*
X8320000Y-10722500I50000J0D01*
G01*
X8320000Y-11042500D02*
G75*
G02*
X8270000Y-10992500I0J50000D01*
G01*
X8540000Y-10722500D02*
G75*
G02*
X8590000Y-10772500I0J-50000D01*
G01*
X8590000Y-10992500D02*
G75*
G02*
X8540000Y-11042500I-50000J0D01*
G01*
X20095000Y-12892500D02*
X20095000Y-12672500D01*
X20145000Y-12622500D02*
X20365000Y-12622500D01*
X20365000Y-12942500D02*
X20145000Y-12942500D01*
X20415000Y-12892500D02*
X20415000Y-12672500D01*
X20095000Y-12672500D02*
G75*
G02*
X20145000Y-12622500I50000J0D01*
G01*
X20145000Y-12942500D02*
G75*
G02*
X20095000Y-12892500I0J50000D01*
G01*
X20365000Y-12622500D02*
G75*
G02*
X20415000Y-12672500I0J-50000D01*
G01*
X20415000Y-12892500D02*
G75*
G02*
X20365000Y-12942500I-50000J0D01*
G01*
X22095000Y-6972500D02*
X22095000Y-7192500D01*
X22145000Y-6922500D02*
X22365000Y-6922500D01*
X22365000Y-7242500D02*
X22145000Y-7242500D01*
X22415000Y-6972500D02*
X22415000Y-7192500D01*
X22095000Y-6972500D02*
G75*
G02*
X22145000Y-6922500I50000J0D01*
G01*
X22145000Y-7242500D02*
G75*
G02*
X22095000Y-7192500I0J50000D01*
G01*
X22365000Y-6922500D02*
G75*
G02*
X22415000Y-6972500I0J-50000D01*
G01*
X22415000Y-7192500D02*
G75*
G02*
X22365000Y-7242500I-50000J0D01*
G01*
X4470000Y-10772500D02*
X4470000Y-10992500D01*
X4520000Y-10722500D02*
X4740000Y-10722500D01*
X4740000Y-11042500D02*
X4520000Y-11042500D01*
X4790000Y-10772500D02*
X4790000Y-10992500D01*
X4470000Y-10772500D02*
G75*
G02*
X4520000Y-10722500I50000J0D01*
G01*
X4520000Y-11042500D02*
G75*
G02*
X4470000Y-10992500I0J50000D01*
G01*
X4740000Y-10722500D02*
G75*
G02*
X4790000Y-10772500I0J-50000D01*
G01*
X4790000Y-10992500D02*
G75*
G02*
X4740000Y-11042500I-50000J0D01*
G01*
X23995000Y-6972500D02*
X23995000Y-7192500D01*
X24045000Y-6922500D02*
X24265000Y-6922500D01*
X24265000Y-7242500D02*
X24045000Y-7242500D01*
X24315000Y-6972500D02*
X24315000Y-7192500D01*
X23995000Y-6972500D02*
G75*
G02*
X24045000Y-6922500I50000J0D01*
G01*
X24045000Y-7242500D02*
G75*
G02*
X23995000Y-7192500I0J50000D01*
G01*
X24265000Y-6922500D02*
G75*
G02*
X24315000Y-6972500I0J-50000D01*
G01*
X24315000Y-7192500D02*
G75*
G02*
X24265000Y-7242500I-50000J0D01*
G01*
X20195000Y-6972500D02*
X20195000Y-7192500D01*
X20245000Y-6922500D02*
X20465000Y-6922500D01*
X20465000Y-7242500D02*
X20245000Y-7242500D01*
X20515000Y-6972500D02*
X20515000Y-7192500D01*
X20195000Y-6972500D02*
G75*
G02*
X20245000Y-6922500I50000J0D01*
G01*
X20245000Y-7242500D02*
G75*
G02*
X20195000Y-7192500I0J50000D01*
G01*
X20465000Y-6922500D02*
G75*
G02*
X20515000Y-6972500I0J-50000D01*
G01*
X20515000Y-7192500D02*
G75*
G02*
X20465000Y-7242500I-50000J0D01*
G01*
X16295000Y-12892500D02*
X16295000Y-12672500D01*
X16345000Y-12622500D02*
X16565000Y-12622500D01*
X16565000Y-12942500D02*
X16345000Y-12942500D01*
X16615000Y-12892500D02*
X16615000Y-12672500D01*
X16295000Y-12672500D02*
G75*
G02*
X16345000Y-12622500I50000J0D01*
G01*
X16345000Y-12942500D02*
G75*
G02*
X16295000Y-12892500I0J50000D01*
G01*
X16565000Y-12622500D02*
G75*
G02*
X16615000Y-12672500I0J-50000D01*
G01*
X16615000Y-12892500D02*
G75*
G02*
X16565000Y-12942500I-50000J0D01*
G01*
X14920000Y-9092500D02*
X14920000Y-8872500D01*
X14970000Y-8822500D02*
X15190000Y-8822500D01*
X15190000Y-9142500D02*
X14970000Y-9142500D01*
X15240000Y-9092500D02*
X15240000Y-8872500D01*
X14920000Y-8872500D02*
G75*
G02*
X14970000Y-8822500I50000J0D01*
G01*
X14970000Y-9142500D02*
G75*
G02*
X14920000Y-9092500I0J50000D01*
G01*
X15190000Y-8822500D02*
G75*
G02*
X15240000Y-8872500I0J-50000D01*
G01*
X15240000Y-9092500D02*
G75*
G02*
X15190000Y-9142500I-50000J0D01*
G01*
X6370000Y-10772500D02*
X6370000Y-10992500D01*
X6420000Y-10722500D02*
X6640000Y-10722500D01*
X6640000Y-11042500D02*
X6420000Y-11042500D01*
X6690000Y-10772500D02*
X6690000Y-10992500D01*
X6370000Y-10772500D02*
G75*
G02*
X6420000Y-10722500I50000J0D01*
G01*
X6420000Y-11042500D02*
G75*
G02*
X6370000Y-10992500I0J50000D01*
G01*
X6640000Y-10722500D02*
G75*
G02*
X6690000Y-10772500I0J-50000D01*
G01*
X6690000Y-10992500D02*
G75*
G02*
X6640000Y-11042500I-50000J0D01*
G01*
X16395000Y-6972500D02*
X16395000Y-7192500D01*
X16445000Y-6922500D02*
X16665000Y-6922500D01*
X16665000Y-7242500D02*
X16445000Y-7242500D01*
X16715000Y-6972500D02*
X16715000Y-7192500D01*
X16395000Y-6972500D02*
G75*
G02*
X16445000Y-6922500I50000J0D01*
G01*
X16445000Y-7242500D02*
G75*
G02*
X16395000Y-7192500I0J50000D01*
G01*
X16665000Y-6922500D02*
G75*
G02*
X16715000Y-6972500I0J-50000D01*
G01*
X16715000Y-7192500D02*
G75*
G02*
X16665000Y-7242500I-50000J0D01*
G01*
X5420000Y-9092500D02*
X5420000Y-8872500D01*
X5470000Y-8822500D02*
X5690000Y-8822500D01*
X5690000Y-9142500D02*
X5470000Y-9142500D01*
X5740000Y-9092500D02*
X5740000Y-8872500D01*
X5420000Y-8872500D02*
G75*
G02*
X5470000Y-8822500I50000J0D01*
G01*
X5470000Y-9142500D02*
G75*
G02*
X5420000Y-9092500I0J50000D01*
G01*
X5690000Y-8822500D02*
G75*
G02*
X5740000Y-8872500I0J-50000D01*
G01*
X5740000Y-9092500D02*
G75*
G02*
X5690000Y-9142500I-50000J0D01*
G01*
X3520000Y-9092500D02*
X3520000Y-8872500D01*
X3570000Y-8822500D02*
X3790000Y-8822500D01*
X3790000Y-9142500D02*
X3570000Y-9142500D01*
X3840000Y-9092500D02*
X3840000Y-8872500D01*
X3520000Y-8872500D02*
G75*
G02*
X3570000Y-8822500I50000J0D01*
G01*
X3570000Y-9142500D02*
G75*
G02*
X3520000Y-9092500I0J50000D01*
G01*
X3790000Y-8822500D02*
G75*
G02*
X3840000Y-8872500I0J-50000D01*
G01*
X3840000Y-9092500D02*
G75*
G02*
X3790000Y-9142500I-50000J0D01*
G01*
X10695000Y-6972500D02*
X10695000Y-7192500D01*
X10745000Y-6922500D02*
X10965000Y-6922500D01*
X10965000Y-7242500D02*
X10745000Y-7242500D01*
X11015000Y-6972500D02*
X11015000Y-7192500D01*
X10695000Y-6972500D02*
G75*
G02*
X10745000Y-6922500I50000J0D01*
G01*
X10745000Y-7242500D02*
G75*
G02*
X10695000Y-7192500I0J50000D01*
G01*
X10965000Y-6922500D02*
G75*
G02*
X11015000Y-6972500I0J-50000D01*
G01*
X11015000Y-7192500D02*
G75*
G02*
X10965000Y-7242500I-50000J0D01*
G01*
X7320000Y-9092500D02*
X7320000Y-8872500D01*
X7370000Y-8822500D02*
X7590000Y-8822500D01*
X7590000Y-9142500D02*
X7370000Y-9142500D01*
X7640000Y-9092500D02*
X7640000Y-8872500D01*
X7320000Y-8872500D02*
G75*
G02*
X7370000Y-8822500I50000J0D01*
G01*
X7370000Y-9142500D02*
G75*
G02*
X7320000Y-9092500I0J50000D01*
G01*
X7590000Y-8822500D02*
G75*
G02*
X7640000Y-8872500I0J-50000D01*
G01*
X7640000Y-9092500D02*
G75*
G02*
X7590000Y-9142500I-50000J0D01*
G01*
X6895000Y-6972500D02*
X6895000Y-7192500D01*
X6945000Y-6922500D02*
X7165000Y-6922500D01*
X7165000Y-7242500D02*
X6945000Y-7242500D01*
X7215000Y-6972500D02*
X7215000Y-7192500D01*
X6895000Y-6972500D02*
G75*
G02*
X6945000Y-6922500I50000J0D01*
G01*
X6945000Y-7242500D02*
G75*
G02*
X6895000Y-7192500I0J50000D01*
G01*
X7165000Y-6922500D02*
G75*
G02*
X7215000Y-6972500I0J-50000D01*
G01*
X7215000Y-7192500D02*
G75*
G02*
X7165000Y-7242500I-50000J0D01*
G01*
X9220000Y-9092500D02*
X9220000Y-8872500D01*
X9270000Y-8822500D02*
X9490000Y-8822500D01*
X9490000Y-9142500D02*
X9270000Y-9142500D01*
X9540000Y-9092500D02*
X9540000Y-8872500D01*
X9220000Y-8872500D02*
G75*
G02*
X9270000Y-8822500I50000J0D01*
G01*
X9270000Y-9142500D02*
G75*
G02*
X9220000Y-9092500I0J50000D01*
G01*
X9490000Y-8822500D02*
G75*
G02*
X9540000Y-8872500I0J-50000D01*
G01*
X9540000Y-9092500D02*
G75*
G02*
X9490000Y-9142500I-50000J0D01*
G01*
X15870000Y-10772500D02*
X15870000Y-10992500D01*
X15920000Y-10722500D02*
X16140000Y-10722500D01*
X16140000Y-11042500D02*
X15920000Y-11042500D01*
X16190000Y-10772500D02*
X16190000Y-10992500D01*
X15870000Y-10772500D02*
G75*
G02*
X15920000Y-10722500I50000J0D01*
G01*
X15920000Y-11042500D02*
G75*
G02*
X15870000Y-10992500I0J50000D01*
G01*
X16140000Y-10722500D02*
G75*
G02*
X16190000Y-10772500I0J-50000D01*
G01*
X16190000Y-10992500D02*
G75*
G02*
X16140000Y-11042500I-50000J0D01*
G01*
X12595000Y-6972500D02*
X12595000Y-7192500D01*
X12645000Y-6922500D02*
X12865000Y-6922500D01*
X12865000Y-7242500D02*
X12645000Y-7242500D01*
X12915000Y-6972500D02*
X12915000Y-7192500D01*
X12595000Y-6972500D02*
G75*
G02*
X12645000Y-6922500I50000J0D01*
G01*
X12645000Y-7242500D02*
G75*
G02*
X12595000Y-7192500I0J50000D01*
G01*
X12865000Y-6922500D02*
G75*
G02*
X12915000Y-6972500I0J-50000D01*
G01*
X12915000Y-7192500D02*
G75*
G02*
X12865000Y-7242500I-50000J0D01*
G01*
X16820000Y-9092500D02*
X16820000Y-8872500D01*
X16870000Y-8822500D02*
X17090000Y-8822500D01*
X17090000Y-9142500D02*
X16870000Y-9142500D01*
X17140000Y-9092500D02*
X17140000Y-8872500D01*
X16820000Y-8872500D02*
G75*
G02*
X16870000Y-8822500I50000J0D01*
G01*
X16870000Y-9142500D02*
G75*
G02*
X16820000Y-9092500I0J50000D01*
G01*
X17090000Y-8822500D02*
G75*
G02*
X17140000Y-8872500I0J-50000D01*
G01*
X17140000Y-9092500D02*
G75*
G02*
X17090000Y-9142500I-50000J0D01*
G01*
X18195000Y-12892500D02*
X18195000Y-12672500D01*
X18245000Y-12622500D02*
X18465000Y-12622500D01*
X18465000Y-12942500D02*
X18245000Y-12942500D01*
X18515000Y-12892500D02*
X18515000Y-12672500D01*
X18195000Y-12672500D02*
G75*
G02*
X18245000Y-12622500I50000J0D01*
G01*
X18245000Y-12942500D02*
G75*
G02*
X18195000Y-12892500I0J50000D01*
G01*
X18465000Y-12622500D02*
G75*
G02*
X18515000Y-12672500I0J-50000D01*
G01*
X18515000Y-12892500D02*
G75*
G02*
X18465000Y-12942500I-50000J0D01*
G01*
X19670000Y-10772500D02*
X19670000Y-10992500D01*
X19720000Y-10722500D02*
X19940000Y-10722500D01*
X19940000Y-11042500D02*
X19720000Y-11042500D01*
X19990000Y-10772500D02*
X19990000Y-10992500D01*
X19670000Y-10772500D02*
G75*
G02*
X19720000Y-10722500I50000J0D01*
G01*
X19720000Y-11042500D02*
G75*
G02*
X19670000Y-10992500I0J50000D01*
G01*
X19940000Y-10722500D02*
G75*
G02*
X19990000Y-10772500I0J-50000D01*
G01*
X19990000Y-10992500D02*
G75*
G02*
X19940000Y-11042500I-50000J0D01*
G01*
D11*
D12*
X2435000Y-8629900D02*
X2465000Y-8659900D01*
X2465000Y-8629900D02*
X2435000Y-8659900D01*
X2435000Y-9252500D02*
X2465000Y-9282500D01*
X2465000Y-9252500D02*
X2435000Y-9282500D01*
X2435000Y-12185000D02*
X2465000Y-12215000D01*
X2465000Y-12185000D02*
X2435000Y-12215000D01*
X2610000Y-6992500D02*
X2640000Y-7022500D01*
X2640000Y-6992500D02*
X2610000Y-7022500D01*
X2610000Y-9035000D02*
X2640000Y-9065000D01*
X2640000Y-9035000D02*
X2610000Y-9065000D01*
X3295000Y-11855000D02*
X3325000Y-11885000D01*
X3325000Y-11855000D02*
X3295000Y-11885000D01*
X3985000Y-10792500D02*
X4015000Y-10822500D01*
X4015000Y-10792500D02*
X3985000Y-10822500D01*
X3985000Y-12835000D02*
X4015000Y-12865000D01*
X4015000Y-12835000D02*
X3985000Y-12865000D01*
X4260000Y-6992500D02*
X4290000Y-7022500D01*
X4290000Y-6992500D02*
X4260000Y-7022500D01*
X4260000Y-8629900D02*
X4290000Y-8659900D01*
X4290000Y-8629900D02*
X4260000Y-8659900D01*
X4260000Y-9252500D02*
X4290000Y-9282500D01*
X4290000Y-9252500D02*
X4260000Y-9282500D01*
X5210000Y-12185000D02*
X5240000Y-12215000D01*
X5240000Y-12185000D02*
X5210000Y-12215000D01*
X5210000Y-13052500D02*
X5240000Y-13082500D01*
X5240000Y-13052500D02*
X5210000Y-13082500D01*
X5635000Y-10792500D02*
X5665000Y-10822500D01*
X5665000Y-10792500D02*
X5635000Y-10822500D01*
X5635000Y-12185000D02*
X5665000Y-12215000D01*
X5665000Y-12185000D02*
X5635000Y-12215000D01*
X6160000Y-6992500D02*
X6190000Y-7022500D01*
X6190000Y-6992500D02*
X6160000Y-7022500D01*
X6160000Y-8629900D02*
X6190000Y-8659900D01*
X6190000Y-8629900D02*
X6160000Y-8659900D01*
X6160000Y-9252500D02*
X6190000Y-9282500D01*
X6190000Y-9252500D02*
X6160000Y-9282500D01*
X7110000Y-12185000D02*
X7140000Y-12215000D01*
X7140000Y-12185000D02*
X7110000Y-12215000D01*
X7110000Y-13052500D02*
X7140000Y-13082500D01*
X7140000Y-13052500D02*
X7110000Y-13082500D01*
X7535000Y-10792500D02*
X7565000Y-10822500D01*
X7565000Y-10792500D02*
X7535000Y-10822500D01*
X7535000Y-12185000D02*
X7565000Y-12215000D01*
X7565000Y-12185000D02*
X7535000Y-12215000D01*
X8060000Y-6992500D02*
X8090000Y-7022500D01*
X8090000Y-6992500D02*
X8060000Y-7022500D01*
X8060000Y-8629900D02*
X8090000Y-8659900D01*
X8090000Y-8629900D02*
X8060000Y-8659900D01*
X8060000Y-9252500D02*
X8090000Y-9282500D01*
X8090000Y-9252500D02*
X8060000Y-9282500D01*
X9010000Y-12185000D02*
X9040000Y-12215000D01*
X9040000Y-12185000D02*
X9010000Y-12215000D01*
X9010000Y-13052500D02*
X9040000Y-13082500D01*
X9040000Y-13052500D02*
X9010000Y-13082500D01*
X9435000Y-10792500D02*
X9465000Y-10822500D01*
X9465000Y-10792500D02*
X9435000Y-10822500D01*
X9435000Y-12185000D02*
X9465000Y-12215000D01*
X9465000Y-12185000D02*
X9435000Y-12215000D01*
X9960000Y-6992500D02*
X9990000Y-7022500D01*
X9990000Y-6992500D02*
X9960000Y-7022500D01*
X9960000Y-8629900D02*
X9990000Y-8659900D01*
X9990000Y-8629900D02*
X9960000Y-8659900D01*
X9960000Y-9252500D02*
X9990000Y-9282500D01*
X9990000Y-9252500D02*
X9960000Y-9282500D01*
X11335000Y-10792500D02*
X11365000Y-10822500D01*
X11365000Y-10792500D02*
X11335000Y-10822500D01*
X11335000Y-12185000D02*
X11365000Y-12215000D01*
X11365000Y-12185000D02*
X11335000Y-12215000D01*
X11860000Y-6992500D02*
X11890000Y-7022500D01*
X11890000Y-6992500D02*
X11860000Y-7022500D01*
X11860000Y-8629900D02*
X11890000Y-8659900D01*
X11890000Y-8629900D02*
X11860000Y-8659900D01*
X11860000Y-9252500D02*
X11890000Y-9282500D01*
X11890000Y-9252500D02*
X11860000Y-9282500D01*
X12635000Y-12185000D02*
X12665000Y-12215000D01*
X12665000Y-12185000D02*
X12635000Y-12215000D01*
X12635000Y-13285000D02*
X12665000Y-13315000D01*
X12665000Y-13285000D02*
X12635000Y-13315000D01*
X13235000Y-10792500D02*
X13265000Y-10822500D01*
X13265000Y-10792500D02*
X13235000Y-10822500D01*
X13235000Y-12185000D02*
X13265000Y-12215000D01*
X13265000Y-12185000D02*
X13235000Y-12215000D01*
X13335000Y-11152500D02*
X13365000Y-11182500D01*
X13365000Y-11152500D02*
X13335000Y-11182500D01*
X13335000Y-12335000D02*
X13365000Y-12365000D01*
X13365000Y-12335000D02*
X13335000Y-12365000D01*
X13760000Y-6992500D02*
X13790000Y-7022500D01*
X13790000Y-6992500D02*
X13760000Y-7022500D01*
X13760000Y-8629900D02*
X13790000Y-8659900D01*
X13790000Y-8629900D02*
X13760000Y-8659900D01*
X13760000Y-9252500D02*
X13790000Y-9282500D01*
X13790000Y-9252500D02*
X13760000Y-9282500D01*
X14270000Y-9955000D02*
X14300000Y-9985000D01*
X14300000Y-9955000D02*
X14270000Y-9985000D01*
X15135000Y-10792500D02*
X15165000Y-10822500D01*
X15165000Y-10792500D02*
X15135000Y-10822500D01*
X15135000Y-12185000D02*
X15165000Y-12215000D01*
X15165000Y-12185000D02*
X15135000Y-12215000D01*
X15135000Y-13052500D02*
X15165000Y-13082500D01*
X15165000Y-13052500D02*
X15135000Y-13082500D01*
X15660000Y-6992500D02*
X15690000Y-7022500D01*
X15690000Y-6992500D02*
X15660000Y-7022500D01*
X15660000Y-8629900D02*
X15690000Y-8659900D01*
X15690000Y-8629900D02*
X15660000Y-8659900D01*
X15660000Y-9252500D02*
X15690000Y-9282500D01*
X15690000Y-9252500D02*
X15660000Y-9282500D01*
X16170000Y-9955000D02*
X16200000Y-9985000D01*
X16200000Y-9955000D02*
X16170000Y-9985000D01*
X17035000Y-10792500D02*
X17065000Y-10822500D01*
X17065000Y-10792500D02*
X17035000Y-10822500D01*
X17035000Y-12185000D02*
X17065000Y-12215000D01*
X17065000Y-12185000D02*
X17035000Y-12215000D01*
X17035000Y-13052500D02*
X17065000Y-13082500D01*
X17065000Y-13052500D02*
X17035000Y-13082500D01*
X17560000Y-6992500D02*
X17590000Y-7022500D01*
X17590000Y-6992500D02*
X17560000Y-7022500D01*
X17560000Y-8629900D02*
X17590000Y-8659900D01*
X17590000Y-8629900D02*
X17560000Y-8659900D01*
X17560000Y-9252500D02*
X17590000Y-9282500D01*
X17590000Y-9252500D02*
X17560000Y-9282500D01*
X18070000Y-9955000D02*
X18100000Y-9985000D01*
X18100000Y-9955000D02*
X18070000Y-9985000D01*
X18935000Y-10792500D02*
X18965000Y-10822500D01*
X18965000Y-10792500D02*
X18935000Y-10822500D01*
X18935000Y-12185000D02*
X18965000Y-12215000D01*
X18965000Y-12185000D02*
X18935000Y-12215000D01*
X18935000Y-12395000D02*
X18965000Y-12425000D01*
X18965000Y-12395000D02*
X18935000Y-12425000D01*
X18935000Y-13052500D02*
X18965000Y-13082500D01*
X18965000Y-13052500D02*
X18935000Y-13082500D01*
X19460000Y-6992500D02*
X19490000Y-7022500D01*
X19490000Y-6992500D02*
X19460000Y-7022500D01*
X19460000Y-8629900D02*
X19490000Y-8659900D01*
X19490000Y-8629900D02*
X19460000Y-8659900D01*
X19460000Y-9252500D02*
X19490000Y-9282500D01*
X19490000Y-9252500D02*
X19460000Y-9282500D01*
X19970000Y-9955000D02*
X20000000Y-9985000D01*
X20000000Y-9955000D02*
X19970000Y-9985000D01*
X20835000Y-10792500D02*
X20865000Y-10822500D01*
X20865000Y-10792500D02*
X20835000Y-10822500D01*
X20835000Y-12395000D02*
X20865000Y-12425000D01*
X20865000Y-12395000D02*
X20835000Y-12425000D01*
X21360000Y-6992500D02*
X21390000Y-7022500D01*
X21390000Y-6992500D02*
X21360000Y-7022500D01*
X21360000Y-8629900D02*
X21390000Y-8659900D01*
X21390000Y-8629900D02*
X21360000Y-8659900D01*
X21360000Y-9252500D02*
X21390000Y-9282500D01*
X21390000Y-9252500D02*
X21360000Y-9282500D01*
X21870000Y-9955000D02*
X21900000Y-9985000D01*
X21900000Y-9955000D02*
X21870000Y-9985000D01*
X22655000Y-11640000D02*
X22685000Y-11670000D01*
X22685000Y-11640000D02*
X22655000Y-11670000D01*
X22655000Y-12589000D02*
X22685000Y-12619000D01*
X22685000Y-12589000D02*
X22655000Y-12619000D01*
X22735000Y-10792500D02*
X22765000Y-10822500D01*
X22765000Y-10792500D02*
X22735000Y-10822500D01*
X22735000Y-12395000D02*
X22765000Y-12425000D01*
X22765000Y-12395000D02*
X22735000Y-12425000D01*
X22735000Y-13885000D02*
X22765000Y-13915000D01*
X22765000Y-13885000D02*
X22735000Y-13915000D01*
X23260000Y-6992500D02*
X23290000Y-7022500D01*
X23290000Y-6992500D02*
X23260000Y-7022500D01*
X23260000Y-8629900D02*
X23290000Y-8659900D01*
X23290000Y-8629900D02*
X23260000Y-8659900D01*
X23435000Y-9042500D02*
X23465000Y-9072500D01*
X23465000Y-9042500D02*
X23435000Y-9072500D01*
X23435000Y-10935000D02*
X23465000Y-10965000D01*
X23465000Y-10935000D02*
X23435000Y-10965000D01*
X23510000Y-10585597D02*
X23540000Y-10615597D01*
X23540000Y-10585597D02*
X23510000Y-10615597D01*
X23610000Y-10585000D02*
X23640000Y-10615000D01*
X23640000Y-10585000D02*
X23610000Y-10615000D01*
X23710000Y-10585000D02*
X23740000Y-10615000D01*
X23740000Y-10585000D02*
X23710000Y-10615000D01*
X23835000Y-10585000D02*
X23865000Y-10615000D01*
X23865000Y-10585000D02*
X23835000Y-10615000D01*
X23910000Y-9740000D02*
X23940000Y-9770000D01*
X23940000Y-9740000D02*
X23910000Y-9770000D01*
X23985000Y-10585000D02*
X24015000Y-10615000D01*
X24015000Y-10585000D02*
X23985000Y-10615000D01*
X24085000Y-8010000D02*
X24115000Y-8040000D01*
X24115000Y-8010000D02*
X24085000Y-8040000D01*
X24135000Y-8610000D02*
X24165000Y-8640000D01*
X24165000Y-8610000D02*
X24135000Y-8640000D01*
X24185000Y-8010000D02*
X24215000Y-8040000D01*
X24215000Y-8010000D02*
X24185000Y-8040000D01*
X24285000Y-8610000D02*
X24315000Y-8640000D01*
X24315000Y-8610000D02*
X24285000Y-8640000D01*
X24385000Y-8610000D02*
X24415000Y-8640000D01*
X24415000Y-8610000D02*
X24385000Y-8640000D01*
X24485000Y-8610000D02*
X24515000Y-8640000D01*
X24515000Y-8610000D02*
X24485000Y-8640000D01*
X25085000Y-6992500D02*
X25115000Y-7022500D01*
X25115000Y-6992500D02*
X25085000Y-7022500D01*
X25085000Y-9035000D02*
X25115000Y-9065000D01*
X25115000Y-9035000D02*
X25085000Y-9065000D01*
X25085000Y-13885000D02*
X25115000Y-13915000D01*
X25115000Y-13885000D02*
X25085000Y-13915000D01*
X23288000Y-11334000D02*
G75*
G02*
X23188000Y-11334000I-50000J0D01*
G01*
X23188000Y-11334000D02*
G75*
G02*
X23288000Y-11334000I50000J0D01*
G01*
X23288000Y-11588000D02*
G75*
G02*
X23188000Y-11588000I-50000J0D01*
G01*
X23188000Y-11588000D02*
G75*
G02*
X23288000Y-11588000I50000J0D01*
G01*
X23288000Y-11842000D02*
G75*
G02*
X23188000Y-11842000I-50000J0D01*
G01*
X23188000Y-11842000D02*
G75*
G02*
X23288000Y-11842000I50000J0D01*
G01*
X23288000Y-12096000D02*
G75*
G02*
X23188000Y-12096000I-50000J0D01*
G01*
X23188000Y-12096000D02*
G75*
G02*
X23288000Y-12096000I50000J0D01*
G01*
X23288000Y-12350000D02*
G75*
G02*
X23188000Y-12350000I-50000J0D01*
G01*
X23188000Y-12350000D02*
G75*
G02*
X23288000Y-12350000I50000J0D01*
G01*
X23288000Y-12604000D02*
G75*
G02*
X23188000Y-12604000I-50000J0D01*
G01*
X23188000Y-12604000D02*
G75*
G02*
X23288000Y-12604000I50000J0D01*
G01*
X23288000Y-12858000D02*
G75*
G02*
X23188000Y-12858000I-50000J0D01*
G01*
X23188000Y-12858000D02*
G75*
G02*
X23288000Y-12858000I50000J0D01*
G01*
X23288000Y-13112000D02*
G75*
G02*
X23188000Y-13112000I-50000J0D01*
G01*
X23188000Y-13112000D02*
G75*
G02*
X23288000Y-13112000I50000J0D01*
G01*
X23288000Y-13366000D02*
G75*
G02*
X23188000Y-13366000I-50000J0D01*
G01*
X23188000Y-13366000D02*
G75*
G02*
X23288000Y-13366000I50000J0D01*
G01*
X23542000Y-13387000D02*
G75*
G02*
X23442000Y-13387000I-50000J0D01*
G01*
X23442000Y-13387000D02*
G75*
G02*
X23542000Y-13387000I50000J0D01*
G01*
X23796000Y-13387000D02*
G75*
G02*
X23696000Y-13387000I-50000J0D01*
G01*
X23696000Y-13387000D02*
G75*
G02*
X23796000Y-13387000I50000J0D01*
G01*
X24050000Y-13387000D02*
G75*
G02*
X23950000Y-13387000I-50000J0D01*
G01*
X23950000Y-13387000D02*
G75*
G02*
X24050000Y-13387000I50000J0D01*
G01*
X24304000Y-13387000D02*
G75*
G02*
X24204000Y-13387000I-50000J0D01*
G01*
X24204000Y-13387000D02*
G75*
G02*
X24304000Y-13387000I50000J0D01*
G01*
X24558000Y-13387000D02*
G75*
G02*
X24458000Y-13387000I-50000J0D01*
G01*
X24458000Y-13387000D02*
G75*
G02*
X24558000Y-13387000I50000J0D01*
G01*
X24812000Y-11334000D02*
G75*
G02*
X24712000Y-11334000I-50000J0D01*
G01*
X24712000Y-11334000D02*
G75*
G02*
X24812000Y-11334000I50000J0D01*
G01*
X24812000Y-11588000D02*
G75*
G02*
X24712000Y-11588000I-50000J0D01*
G01*
X24712000Y-11588000D02*
G75*
G02*
X24812000Y-11588000I50000J0D01*
G01*
X24812000Y-11842000D02*
G75*
G02*
X24712000Y-11842000I-50000J0D01*
G01*
X24712000Y-11842000D02*
G75*
G02*
X24812000Y-11842000I50000J0D01*
G01*
X24812000Y-12096000D02*
G75*
G02*
X24712000Y-12096000I-50000J0D01*
G01*
X24712000Y-12096000D02*
G75*
G02*
X24812000Y-12096000I50000J0D01*
G01*
X24812000Y-12350000D02*
G75*
G02*
X24712000Y-12350000I-50000J0D01*
G01*
X24712000Y-12350000D02*
G75*
G02*
X24812000Y-12350000I50000J0D01*
G01*
X24812000Y-12604000D02*
G75*
G02*
X24712000Y-12604000I-50000J0D01*
G01*
X24712000Y-12604000D02*
G75*
G02*
X24812000Y-12604000I50000J0D01*
G01*
X24812000Y-12858000D02*
G75*
G02*
X24712000Y-12858000I-50000J0D01*
G01*
X24712000Y-12858000D02*
G75*
G02*
X24812000Y-12858000I50000J0D01*
G01*
X24812000Y-13112000D02*
G75*
G02*
X24712000Y-13112000I-50000J0D01*
G01*
X24712000Y-13112000D02*
G75*
G02*
X24812000Y-13112000I50000J0D01*
G01*
X24812000Y-13366000D02*
G75*
G02*
X24712000Y-13366000I-50000J0D01*
G01*
X24712000Y-13366000D02*
G75*
G02*
X24812000Y-13366000I50000J0D01*
G01*
D13*
X2885000Y-7995000D02*
X2885000Y-8145000D01*
X2810000Y-8070000D02*
X2960000Y-8070000D01*
X3310000Y-9895000D02*
X3310000Y-10045000D01*
X3235000Y-9970000D02*
X3385000Y-9970000D01*
X3585000Y-8100000D02*
X3585000Y-8250000D01*
X3510000Y-8175000D02*
X3660000Y-8175000D01*
X4010000Y-10000000D02*
X4010000Y-10150000D01*
X3935000Y-10075000D02*
X4085000Y-10075000D01*
X4260000Y-11795000D02*
X4260000Y-11945000D01*
X4185000Y-11870000D02*
X4335000Y-11870000D01*
X4785000Y-7995000D02*
X4785000Y-8145000D01*
X4710000Y-8070000D02*
X4860000Y-8070000D01*
X4960000Y-11900000D02*
X4960000Y-12050000D01*
X4885000Y-11975000D02*
X5035000Y-11975000D01*
X5210000Y-9895000D02*
X5210000Y-10045000D01*
X5135000Y-9970000D02*
X5285000Y-9970000D01*
X5485000Y-8100000D02*
X5485000Y-8250000D01*
X5410000Y-8175000D02*
X5560000Y-8175000D01*
X5735000Y-13695000D02*
X5735000Y-13845000D01*
X5660000Y-13770000D02*
X5810000Y-13770000D01*
X5910000Y-10000000D02*
X5910000Y-10150000D01*
X5835000Y-10075000D02*
X5985000Y-10075000D01*
X6160000Y-11795000D02*
X6160000Y-11945000D01*
X6085000Y-11870000D02*
X6235000Y-11870000D01*
X6435000Y-13800000D02*
X6435000Y-13950000D01*
X6360000Y-13875000D02*
X6510000Y-13875000D01*
X6685000Y-7995000D02*
X6685000Y-8145000D01*
X6610000Y-8070000D02*
X6760000Y-8070000D01*
X6860000Y-11900000D02*
X6860000Y-12050000D01*
X6785000Y-11975000D02*
X6935000Y-11975000D01*
X7110000Y-9895000D02*
X7110000Y-10045000D01*
X7035000Y-9970000D02*
X7185000Y-9970000D01*
X7385000Y-8100000D02*
X7385000Y-8250000D01*
X7310000Y-8175000D02*
X7460000Y-8175000D01*
X7635000Y-13695000D02*
X7635000Y-13845000D01*
X7560000Y-13770000D02*
X7710000Y-13770000D01*
X7810000Y-10000000D02*
X7810000Y-10150000D01*
X7735000Y-10075000D02*
X7885000Y-10075000D01*
X8060000Y-11795000D02*
X8060000Y-11945000D01*
X7985000Y-11870000D02*
X8135000Y-11870000D01*
X8335000Y-13800000D02*
X8335000Y-13950000D01*
X8260000Y-13875000D02*
X8410000Y-13875000D01*
X8585000Y-7995000D02*
X8585000Y-8145000D01*
X8510000Y-8070000D02*
X8660000Y-8070000D01*
X8760000Y-11900000D02*
X8760000Y-12050000D01*
X8685000Y-11975000D02*
X8835000Y-11975000D01*
X9010000Y-9895000D02*
X9010000Y-10045000D01*
X8935000Y-9970000D02*
X9085000Y-9970000D01*
X9285000Y-8100000D02*
X9285000Y-8250000D01*
X9210000Y-8175000D02*
X9360000Y-8175000D01*
X9535000Y-13695000D02*
X9535000Y-13845000D01*
X9460000Y-13770000D02*
X9610000Y-13770000D01*
X9710000Y-10000000D02*
X9710000Y-10150000D01*
X9635000Y-10075000D02*
X9785000Y-10075000D01*
X9960000Y-11795000D02*
X9960000Y-11945000D01*
X9885000Y-11870000D02*
X10035000Y-11870000D01*
X10235000Y-13800000D02*
X10235000Y-13950000D01*
X10160000Y-13875000D02*
X10310000Y-13875000D01*
X10485000Y-7995000D02*
X10485000Y-8145000D01*
X10410000Y-8070000D02*
X10560000Y-8070000D01*
X10660000Y-11900000D02*
X10660000Y-12050000D01*
X10585000Y-11975000D02*
X10735000Y-11975000D01*
X10910000Y-9895000D02*
X10910000Y-10045000D01*
X10835000Y-9970000D02*
X10985000Y-9970000D01*
X11185000Y-8100000D02*
X11185000Y-8250000D01*
X11110000Y-8175000D02*
X11260000Y-8175000D01*
X11610000Y-10000000D02*
X11610000Y-10150000D01*
X11535000Y-10075000D02*
X11685000Y-10075000D01*
X11860000Y-11795000D02*
X11860000Y-11945000D01*
X11785000Y-11870000D02*
X11935000Y-11870000D01*
X12385000Y-7995000D02*
X12385000Y-8145000D01*
X12310000Y-8070000D02*
X12460000Y-8070000D01*
X12560000Y-11900000D02*
X12560000Y-12050000D01*
X12485000Y-11975000D02*
X12635000Y-11975000D01*
X12810000Y-9895000D02*
X12810000Y-10045000D01*
X12735000Y-9970000D02*
X12885000Y-9970000D01*
X12810000Y-13695000D02*
X12810000Y-13845000D01*
X12735000Y-13770000D02*
X12885000Y-13770000D01*
X13085000Y-8100000D02*
X13085000Y-8250000D01*
X13010000Y-8175000D02*
X13160000Y-8175000D01*
X13510000Y-10000000D02*
X13510000Y-10150000D01*
X13435000Y-10075000D02*
X13585000Y-10075000D01*
X13510000Y-13800000D02*
X13510000Y-13950000D01*
X13435000Y-13875000D02*
X13585000Y-13875000D01*
X13760000Y-11795000D02*
X13760000Y-11945000D01*
X13685000Y-11870000D02*
X13835000Y-11870000D01*
X14285000Y-7995000D02*
X14285000Y-8145000D01*
X14210000Y-8070000D02*
X14360000Y-8070000D01*
X14460000Y-11900000D02*
X14460000Y-12050000D01*
X14385000Y-11975000D02*
X14535000Y-11975000D01*
X14710000Y-9895000D02*
X14710000Y-10045000D01*
X14635000Y-9970000D02*
X14785000Y-9970000D01*
X14985000Y-8100000D02*
X14985000Y-8250000D01*
X14910000Y-8175000D02*
X15060000Y-8175000D01*
X15410000Y-10000000D02*
X15410000Y-10150000D01*
X15335000Y-10075000D02*
X15485000Y-10075000D01*
X15660000Y-11795000D02*
X15660000Y-11945000D01*
X15585000Y-11870000D02*
X15735000Y-11870000D01*
X16085000Y-13695000D02*
X16085000Y-13845000D01*
X16010000Y-13770000D02*
X16160000Y-13770000D01*
X16185000Y-7995000D02*
X16185000Y-8145000D01*
X16110000Y-8070000D02*
X16260000Y-8070000D01*
X16360000Y-11900000D02*
X16360000Y-12050000D01*
X16285000Y-11975000D02*
X16435000Y-11975000D01*
X16610000Y-9895000D02*
X16610000Y-10045000D01*
X16535000Y-9970000D02*
X16685000Y-9970000D01*
X16785000Y-13800000D02*
X16785000Y-13950000D01*
X16710000Y-13875000D02*
X16860000Y-13875000D01*
X16885000Y-8100000D02*
X16885000Y-8250000D01*
X16810000Y-8175000D02*
X16960000Y-8175000D01*
X17310000Y-10000000D02*
X17310000Y-10150000D01*
X17235000Y-10075000D02*
X17385000Y-10075000D01*
X17560000Y-11795000D02*
X17560000Y-11945000D01*
X17485000Y-11870000D02*
X17635000Y-11870000D01*
X17985000Y-13695000D02*
X17985000Y-13845000D01*
X17910000Y-13770000D02*
X18060000Y-13770000D01*
X18085000Y-7995000D02*
X18085000Y-8145000D01*
X18010000Y-8070000D02*
X18160000Y-8070000D01*
X18260000Y-11900000D02*
X18260000Y-12050000D01*
X18185000Y-11975000D02*
X18335000Y-11975000D01*
X18510000Y-9895000D02*
X18510000Y-10045000D01*
X18435000Y-9970000D02*
X18585000Y-9970000D01*
X18685000Y-13800000D02*
X18685000Y-13950000D01*
X18610000Y-13875000D02*
X18760000Y-13875000D01*
X18785000Y-8100000D02*
X18785000Y-8250000D01*
X18710000Y-8175000D02*
X18860000Y-8175000D01*
X19210000Y-10000000D02*
X19210000Y-10150000D01*
X19135000Y-10075000D02*
X19285000Y-10075000D01*
X19460000Y-11795000D02*
X19460000Y-11945000D01*
X19385000Y-11870000D02*
X19535000Y-11870000D01*
X19885000Y-13695000D02*
X19885000Y-13845000D01*
X19810000Y-13770000D02*
X19960000Y-13770000D01*
X19985000Y-7995000D02*
X19985000Y-8145000D01*
X19910000Y-8070000D02*
X20060000Y-8070000D01*
X20160000Y-11900000D02*
X20160000Y-12050000D01*
X20085000Y-11975000D02*
X20235000Y-11975000D01*
X20410000Y-9895000D02*
X20410000Y-10045000D01*
X20335000Y-9970000D02*
X20485000Y-9970000D01*
X20585000Y-13800000D02*
X20585000Y-13950000D01*
X20510000Y-13875000D02*
X20660000Y-13875000D01*
X20685000Y-8100000D02*
X20685000Y-8250000D01*
X20610000Y-8175000D02*
X20760000Y-8175000D01*
X21110000Y-10000000D02*
X21110000Y-10150000D01*
X21035000Y-10075000D02*
X21185000Y-10075000D01*
X21360000Y-11795000D02*
X21360000Y-11945000D01*
X21285000Y-11870000D02*
X21435000Y-11870000D01*
X21885000Y-7995000D02*
X21885000Y-8145000D01*
X21810000Y-8070000D02*
X21960000Y-8070000D01*
X22060000Y-11900000D02*
X22060000Y-12050000D01*
X21985000Y-11975000D02*
X22135000Y-11975000D01*
X22310000Y-9895000D02*
X22310000Y-10045000D01*
X22235000Y-9970000D02*
X22385000Y-9970000D01*
X22585000Y-8100000D02*
X22585000Y-8250000D01*
X22510000Y-8175000D02*
X22660000Y-8175000D01*
X23010000Y-10000000D02*
X23010000Y-10150000D01*
X22935000Y-10075000D02*
X23085000Y-10075000D01*
X23785000Y-7995000D02*
X23785000Y-8145000D01*
X23710000Y-8070000D02*
X23860000Y-8070000D01*
X24485000Y-8100000D02*
X24485000Y-8250000D01*
X24410000Y-8175000D02*
X24560000Y-8175000D01*
D11*
X2533277Y-14663984D02*
X2533277Y-14463984D01*
X2533277Y-14463984D02*
X2580896Y-14463984D01*
X2580896Y-14463984D02*
X2609467Y-14473508D01*
X2609467Y-14473508D02*
X2628515Y-14492555D01*
X2628515Y-14492555D02*
X2638039Y-14511603D01*
X2638039Y-14511603D02*
X2647563Y-14549698D01*
X2647563Y-14549698D02*
X2647563Y-14578269D01*
X2647563Y-14578269D02*
X2638039Y-14616365D01*
X2638039Y-14616365D02*
X2628515Y-14635412D01*
X2628515Y-14635412D02*
X2609467Y-14654460D01*
X2609467Y-14654460D02*
X2580896Y-14663984D01*
X2580896Y-14663984D02*
X2533277Y-14663984D01*
X2733277Y-14663984D02*
X2733277Y-14530650D01*
X2733277Y-14568746D02*
X2742801Y-14549698D01*
X2742801Y-14549698D02*
X2752324Y-14540174D01*
X2752324Y-14540174D02*
X2771372Y-14530650D01*
X2771372Y-14530650D02*
X2790420Y-14530650D01*
X2857086Y-14663984D02*
X2857086Y-14530650D01*
X2857086Y-14463984D02*
X2847562Y-14473508D01*
X2847562Y-14473508D02*
X2857086Y-14483031D01*
X2857086Y-14483031D02*
X2866610Y-14473508D01*
X2866610Y-14473508D02*
X2857086Y-14463984D01*
X2857086Y-14463984D02*
X2857086Y-14483031D01*
X2980896Y-14663984D02*
X2961848Y-14654460D01*
X2961848Y-14654460D02*
X2952324Y-14635412D01*
X2952324Y-14635412D02*
X2952324Y-14463984D01*
X3085658Y-14663984D02*
X3066610Y-14654460D01*
X3066610Y-14654460D02*
X3057086Y-14635412D01*
X3057086Y-14635412D02*
X3057086Y-14463984D01*
X3314229Y-14663984D02*
X3314229Y-14463984D01*
X3314229Y-14463984D02*
X3380896Y-14606841D01*
X3380896Y-14606841D02*
X3447562Y-14463984D01*
X3447562Y-14463984D02*
X3447562Y-14663984D01*
X3628515Y-14663984D02*
X3628515Y-14559222D01*
X3628515Y-14559222D02*
X3618991Y-14540174D01*
X3618991Y-14540174D02*
X3599943Y-14530650D01*
X3599943Y-14530650D02*
X3561848Y-14530650D01*
X3561848Y-14530650D02*
X3542801Y-14540174D01*
X3628515Y-14654460D02*
X3609467Y-14663984D01*
X3609467Y-14663984D02*
X3561848Y-14663984D01*
X3561848Y-14663984D02*
X3542801Y-14654460D01*
X3542801Y-14654460D02*
X3533277Y-14635412D01*
X3533277Y-14635412D02*
X3533277Y-14616365D01*
X3533277Y-14616365D02*
X3542801Y-14597317D01*
X3542801Y-14597317D02*
X3561848Y-14587793D01*
X3561848Y-14587793D02*
X3609467Y-14587793D01*
X3609467Y-14587793D02*
X3628515Y-14578269D01*
X3723753Y-14530650D02*
X3723753Y-14730650D01*
X3723753Y-14540174D02*
X3742801Y-14530650D01*
X3742801Y-14530650D02*
X3780896Y-14530650D01*
X3780896Y-14530650D02*
X3799943Y-14540174D01*
X3799943Y-14540174D02*
X3809467Y-14549698D01*
X3809467Y-14549698D02*
X3818991Y-14568746D01*
X3818991Y-14568746D02*
X3818991Y-14625888D01*
X3818991Y-14625888D02*
X3809467Y-14644936D01*
X3809467Y-14644936D02*
X3799943Y-14654460D01*
X3799943Y-14654460D02*
X3780896Y-14663984D01*
X3780896Y-14663984D02*
X3742801Y-14663984D01*
X3742801Y-14663984D02*
X3723753Y-14654460D01*
X3904705Y-14644936D02*
X3914229Y-14654460D01*
X3914229Y-14654460D02*
X3904705Y-14663984D01*
X3904705Y-14663984D02*
X3895182Y-14654460D01*
X3895182Y-14654460D02*
X3904705Y-14644936D01*
X3904705Y-14644936D02*
X3904705Y-14663984D01*
X3904705Y-14540174D02*
X3914229Y-14549698D01*
X3914229Y-14549698D02*
X3904705Y-14559222D01*
X3904705Y-14559222D02*
X3895182Y-14549698D01*
X3895182Y-14549698D02*
X3904705Y-14540174D01*
X3904705Y-14540174D02*
X3904705Y-14559222D01*
D12*
X2242500Y-14977500D02*
X2272500Y-15007500D01*
X2272500Y-14977500D02*
X2242500Y-15007500D01*
D11*
X2571372Y-14883984D02*
X2590420Y-14883984D01*
X2590420Y-14883984D02*
X2609467Y-14893508D01*
X2609467Y-14893508D02*
X2618991Y-14903031D01*
X2618991Y-14903031D02*
X2628515Y-14922079D01*
X2628515Y-14922079D02*
X2638039Y-14960174D01*
X2638039Y-14960174D02*
X2638039Y-15007793D01*
X2638039Y-15007793D02*
X2628515Y-15045888D01*
X2628515Y-15045888D02*
X2618991Y-15064936D01*
X2618991Y-15064936D02*
X2609467Y-15074460D01*
X2609467Y-15074460D02*
X2590420Y-15083984D01*
X2590420Y-15083984D02*
X2571372Y-15083984D01*
X2571372Y-15083984D02*
X2552324Y-15074460D01*
X2552324Y-15074460D02*
X2542801Y-15064936D01*
X2542801Y-15064936D02*
X2533277Y-15045888D01*
X2533277Y-15045888D02*
X2523753Y-15007793D01*
X2523753Y-15007793D02*
X2523753Y-14960174D01*
X2523753Y-14960174D02*
X2533277Y-14922079D01*
X2533277Y-14922079D02*
X2542801Y-14903031D01*
X2542801Y-14903031D02*
X2552324Y-14893508D01*
X2552324Y-14893508D02*
X2571372Y-14883984D01*
X2723753Y-15064936D02*
X2733277Y-15074460D01*
X2733277Y-15074460D02*
X2723753Y-15083984D01*
X2723753Y-15083984D02*
X2714229Y-15074460D01*
X2714229Y-15074460D02*
X2723753Y-15064936D01*
X2723753Y-15064936D02*
X2723753Y-15083984D01*
X2799943Y-14883984D02*
X2923753Y-14883984D01*
X2923753Y-14883984D02*
X2857086Y-14960174D01*
X2857086Y-14960174D02*
X2885658Y-14960174D01*
X2885658Y-14960174D02*
X2904705Y-14969698D01*
X2904705Y-14969698D02*
X2914229Y-14979222D01*
X2914229Y-14979222D02*
X2923753Y-14998269D01*
X2923753Y-14998269D02*
X2923753Y-15045888D01*
X2923753Y-15045888D02*
X2914229Y-15064936D01*
X2914229Y-15064936D02*
X2904705Y-15074460D01*
X2904705Y-15074460D02*
X2885658Y-15083984D01*
X2885658Y-15083984D02*
X2828515Y-15083984D01*
X2828515Y-15083984D02*
X2809467Y-15074460D01*
X2809467Y-15074460D02*
X2799943Y-15064936D01*
X3047562Y-14883984D02*
X3066610Y-14883984D01*
X3066610Y-14883984D02*
X3085658Y-14893508D01*
X3085658Y-14893508D02*
X3095182Y-14903031D01*
X3095182Y-14903031D02*
X3104705Y-14922079D01*
X3104705Y-14922079D02*
X3114229Y-14960174D01*
X3114229Y-14960174D02*
X3114229Y-15007793D01*
X3114229Y-15007793D02*
X3104705Y-15045888D01*
X3104705Y-15045888D02*
X3095182Y-15064936D01*
X3095182Y-15064936D02*
X3085658Y-15074460D01*
X3085658Y-15074460D02*
X3066610Y-15083984D01*
X3066610Y-15083984D02*
X3047562Y-15083984D01*
X3047562Y-15083984D02*
X3028515Y-15074460D01*
X3028515Y-15074460D02*
X3018991Y-15064936D01*
X3018991Y-15064936D02*
X3009467Y-15045888D01*
X3009467Y-15045888D02*
X2999943Y-15007793D01*
X2999943Y-15007793D02*
X2999943Y-14960174D01*
X2999943Y-14960174D02*
X3009467Y-14922079D01*
X3009467Y-14922079D02*
X3018991Y-14903031D01*
X3018991Y-14903031D02*
X3028515Y-14893508D01*
X3028515Y-14893508D02*
X3047562Y-14883984D01*
X3238039Y-14883984D02*
X3257086Y-14883984D01*
X3257086Y-14883984D02*
X3276134Y-14893508D01*
X3276134Y-14893508D02*
X3285658Y-14903031D01*
X3285658Y-14903031D02*
X3295182Y-14922079D01*
X3295182Y-14922079D02*
X3304705Y-14960174D01*
X3304705Y-14960174D02*
X3304705Y-15007793D01*
X3304705Y-15007793D02*
X3295182Y-15045888D01*
X3295182Y-15045888D02*
X3285658Y-15064936D01*
X3285658Y-15064936D02*
X3276134Y-15074460D01*
X3276134Y-15074460D02*
X3257086Y-15083984D01*
X3257086Y-15083984D02*
X3238039Y-15083984D01*
X3238039Y-15083984D02*
X3218991Y-15074460D01*
X3218991Y-15074460D02*
X3209467Y-15064936D01*
X3209467Y-15064936D02*
X3199943Y-15045888D01*
X3199943Y-15045888D02*
X3190420Y-15007793D01*
X3190420Y-15007793D02*
X3190420Y-14960174D01*
X3190420Y-14960174D02*
X3199943Y-14922079D01*
X3199943Y-14922079D02*
X3209467Y-14903031D01*
X3209467Y-14903031D02*
X3218991Y-14893508D01*
X3218991Y-14893508D02*
X3238039Y-14883984D01*
X3390420Y-15083984D02*
X3390420Y-14950650D01*
X3390420Y-14969698D02*
X3399943Y-14960174D01*
X3399943Y-14960174D02*
X3418991Y-14950650D01*
X3418991Y-14950650D02*
X3447563Y-14950650D01*
X3447563Y-14950650D02*
X3466610Y-14960174D01*
X3466610Y-14960174D02*
X3476134Y-14979222D01*
X3476134Y-14979222D02*
X3476134Y-15083984D01*
X3476134Y-14979222D02*
X3485658Y-14960174D01*
X3485658Y-14960174D02*
X3504705Y-14950650D01*
X3504705Y-14950650D02*
X3533277Y-14950650D01*
X3533277Y-14950650D02*
X3552324Y-14960174D01*
X3552324Y-14960174D02*
X3561848Y-14979222D01*
X3561848Y-14979222D02*
X3561848Y-15083984D01*
X3657086Y-15083984D02*
X3657086Y-14950650D01*
X3657086Y-14969698D02*
X3666610Y-14960174D01*
X3666610Y-14960174D02*
X3685658Y-14950650D01*
X3685658Y-14950650D02*
X3714229Y-14950650D01*
X3714229Y-14950650D02*
X3733277Y-14960174D01*
X3733277Y-14960174D02*
X3742801Y-14979222D01*
X3742801Y-14979222D02*
X3742801Y-15083984D01*
X3742801Y-14979222D02*
X3752324Y-14960174D01*
X3752324Y-14960174D02*
X3771372Y-14950650D01*
X3771372Y-14950650D02*
X3799943Y-14950650D01*
X3799943Y-14950650D02*
X3818991Y-14960174D01*
X3818991Y-14960174D02*
X3828515Y-14979222D01*
X3828515Y-14979222D02*
X3828515Y-15083984D01*
X4218991Y-14874460D02*
X4047563Y-15131603D01*
X4476134Y-14883984D02*
X4495182Y-14883984D01*
X4495182Y-14883984D02*
X4514229Y-14893508D01*
X4514229Y-14893508D02*
X4523753Y-14903031D01*
X4523753Y-14903031D02*
X4533277Y-14922079D01*
X4533277Y-14922079D02*
X4542801Y-14960174D01*
X4542801Y-14960174D02*
X4542801Y-15007793D01*
X4542801Y-15007793D02*
X4533277Y-15045888D01*
X4533277Y-15045888D02*
X4523753Y-15064936D01*
X4523753Y-15064936D02*
X4514229Y-15074460D01*
X4514229Y-15074460D02*
X4495182Y-15083984D01*
X4495182Y-15083984D02*
X4476134Y-15083984D01*
X4476134Y-15083984D02*
X4457087Y-15074460D01*
X4457087Y-15074460D02*
X4447563Y-15064936D01*
X4447563Y-15064936D02*
X4438039Y-15045888D01*
X4438039Y-15045888D02*
X4428515Y-15007793D01*
X4428515Y-15007793D02*
X4428515Y-14960174D01*
X4428515Y-14960174D02*
X4438039Y-14922079D01*
X4438039Y-14922079D02*
X4447563Y-14903031D01*
X4447563Y-14903031D02*
X4457087Y-14893508D01*
X4457087Y-14893508D02*
X4476134Y-14883984D01*
X4628515Y-15064936D02*
X4638039Y-15074460D01*
X4638039Y-15074460D02*
X4628515Y-15083984D01*
X4628515Y-15083984D02*
X4618991Y-15074460D01*
X4618991Y-15074460D02*
X4628515Y-15064936D01*
X4628515Y-15064936D02*
X4628515Y-15083984D01*
X4761848Y-14883984D02*
X4780896Y-14883984D01*
X4780896Y-14883984D02*
X4799944Y-14893508D01*
X4799944Y-14893508D02*
X4809468Y-14903031D01*
X4809468Y-14903031D02*
X4818991Y-14922079D01*
X4818991Y-14922079D02*
X4828515Y-14960174D01*
X4828515Y-14960174D02*
X4828515Y-15007793D01*
X4828515Y-15007793D02*
X4818991Y-15045888D01*
X4818991Y-15045888D02*
X4809468Y-15064936D01*
X4809468Y-15064936D02*
X4799944Y-15074460D01*
X4799944Y-15074460D02*
X4780896Y-15083984D01*
X4780896Y-15083984D02*
X4761848Y-15083984D01*
X4761848Y-15083984D02*
X4742801Y-15074460D01*
X4742801Y-15074460D02*
X4733277Y-15064936D01*
X4733277Y-15064936D02*
X4723753Y-15045888D01*
X4723753Y-15045888D02*
X4714229Y-15007793D01*
X4714229Y-15007793D02*
X4714229Y-14960174D01*
X4714229Y-14960174D02*
X4723753Y-14922079D01*
X4723753Y-14922079D02*
X4733277Y-14903031D01*
X4733277Y-14903031D02*
X4742801Y-14893508D01*
X4742801Y-14893508D02*
X4761848Y-14883984D01*
X5018991Y-15083984D02*
X4904706Y-15083984D01*
X4961848Y-15083984D02*
X4961848Y-14883984D01*
X4961848Y-14883984D02*
X4942801Y-14912555D01*
X4942801Y-14912555D02*
X4923753Y-14931603D01*
X4923753Y-14931603D02*
X4904706Y-14941127D01*
X5209468Y-15083984D02*
X5095182Y-15083984D01*
X5152325Y-15083984D02*
X5152325Y-14883984D01*
X5152325Y-14883984D02*
X5133277Y-14912555D01*
X5133277Y-14912555D02*
X5114229Y-14931603D01*
X5114229Y-14931603D02*
X5095182Y-14941127D01*
X5323753Y-14969698D02*
X5304706Y-14960174D01*
X5304706Y-14960174D02*
X5295182Y-14950650D01*
X5295182Y-14950650D02*
X5285658Y-14931603D01*
X5285658Y-14931603D02*
X5285658Y-14922079D01*
X5285658Y-14922079D02*
X5295182Y-14903031D01*
X5295182Y-14903031D02*
X5304706Y-14893508D01*
X5304706Y-14893508D02*
X5323753Y-14883984D01*
X5323753Y-14883984D02*
X5361849Y-14883984D01*
X5361849Y-14883984D02*
X5380896Y-14893508D01*
X5380896Y-14893508D02*
X5390420Y-14903031D01*
X5390420Y-14903031D02*
X5399944Y-14922079D01*
X5399944Y-14922079D02*
X5399944Y-14931603D01*
X5399944Y-14931603D02*
X5390420Y-14950650D01*
X5390420Y-14950650D02*
X5380896Y-14960174D01*
X5380896Y-14960174D02*
X5361849Y-14969698D01*
X5361849Y-14969698D02*
X5323753Y-14969698D01*
X5323753Y-14969698D02*
X5304706Y-14979222D01*
X5304706Y-14979222D02*
X5295182Y-14988746D01*
X5295182Y-14988746D02*
X5285658Y-15007793D01*
X5285658Y-15007793D02*
X5285658Y-15045888D01*
X5285658Y-15045888D02*
X5295182Y-15064936D01*
X5295182Y-15064936D02*
X5304706Y-15074460D01*
X5304706Y-15074460D02*
X5323753Y-15083984D01*
X5323753Y-15083984D02*
X5361849Y-15083984D01*
X5361849Y-15083984D02*
X5380896Y-15074460D01*
X5380896Y-15074460D02*
X5390420Y-15064936D01*
X5390420Y-15064936D02*
X5399944Y-15045888D01*
X5399944Y-15045888D02*
X5399944Y-15007793D01*
X5399944Y-15007793D02*
X5390420Y-14988746D01*
X5390420Y-14988746D02*
X5380896Y-14979222D01*
X5380896Y-14979222D02*
X5361849Y-14969698D01*
X5476134Y-14883984D02*
X5476134Y-14922079D01*
X5552325Y-14883984D02*
X5552325Y-14922079D01*
X5847563Y-15160174D02*
X5838039Y-15150650D01*
X5838039Y-15150650D02*
X5818991Y-15122079D01*
X5818991Y-15122079D02*
X5809468Y-15103031D01*
X5809468Y-15103031D02*
X5799944Y-15074460D01*
X5799944Y-15074460D02*
X5790420Y-15026841D01*
X5790420Y-15026841D02*
X5790420Y-14988746D01*
X5790420Y-14988746D02*
X5799944Y-14941127D01*
X5799944Y-14941127D02*
X5809468Y-14912555D01*
X5809468Y-14912555D02*
X5818991Y-14893508D01*
X5818991Y-14893508D02*
X5838039Y-14864936D01*
X5838039Y-14864936D02*
X5847563Y-14855412D01*
X5933277Y-15083984D02*
X5971372Y-15083984D01*
X5971372Y-15083984D02*
X5990420Y-15074460D01*
X5990420Y-15074460D02*
X5999944Y-15064936D01*
X5999944Y-15064936D02*
X6018991Y-15036365D01*
X6018991Y-15036365D02*
X6028515Y-14998269D01*
X6028515Y-14998269D02*
X6028515Y-14922079D01*
X6028515Y-14922079D02*
X6018991Y-14903031D01*
X6018991Y-14903031D02*
X6009468Y-14893508D01*
X6009468Y-14893508D02*
X5990420Y-14883984D01*
X5990420Y-14883984D02*
X5952325Y-14883984D01*
X5952325Y-14883984D02*
X5933277Y-14893508D01*
X5933277Y-14893508D02*
X5923753Y-14903031D01*
X5923753Y-14903031D02*
X5914229Y-14922079D01*
X5914229Y-14922079D02*
X5914229Y-14969698D01*
X5914229Y-14969698D02*
X5923753Y-14988746D01*
X5923753Y-14988746D02*
X5933277Y-14998269D01*
X5933277Y-14998269D02*
X5952325Y-15007793D01*
X5952325Y-15007793D02*
X5990420Y-15007793D01*
X5990420Y-15007793D02*
X6009468Y-14998269D01*
X6009468Y-14998269D02*
X6018991Y-14988746D01*
X6018991Y-14988746D02*
X6028515Y-14969698D01*
X6123753Y-15083984D02*
X6161848Y-15083984D01*
X6161848Y-15083984D02*
X6180896Y-15074460D01*
X6180896Y-15074460D02*
X6190420Y-15064936D01*
X6190420Y-15064936D02*
X6209468Y-15036365D01*
X6209468Y-15036365D02*
X6218991Y-14998269D01*
X6218991Y-14998269D02*
X6218991Y-14922079D01*
X6218991Y-14922079D02*
X6209468Y-14903031D01*
X6209468Y-14903031D02*
X6199944Y-14893508D01*
X6199944Y-14893508D02*
X6180896Y-14883984D01*
X6180896Y-14883984D02*
X6142801Y-14883984D01*
X6142801Y-14883984D02*
X6123753Y-14893508D01*
X6123753Y-14893508D02*
X6114229Y-14903031D01*
X6114229Y-14903031D02*
X6104706Y-14922079D01*
X6104706Y-14922079D02*
X6104706Y-14969698D01*
X6104706Y-14969698D02*
X6114229Y-14988746D01*
X6114229Y-14988746D02*
X6123753Y-14998269D01*
X6123753Y-14998269D02*
X6142801Y-15007793D01*
X6142801Y-15007793D02*
X6180896Y-15007793D01*
X6180896Y-15007793D02*
X6199944Y-14998269D01*
X6199944Y-14998269D02*
X6209468Y-14988746D01*
X6209468Y-14988746D02*
X6218991Y-14969698D01*
X6457087Y-15083984D02*
X6457087Y-14883984D01*
X6542801Y-15083984D02*
X6542801Y-14979222D01*
X6542801Y-14979222D02*
X6533277Y-14960174D01*
X6533277Y-14960174D02*
X6514230Y-14950650D01*
X6514230Y-14950650D02*
X6485658Y-14950650D01*
X6485658Y-14950650D02*
X6466610Y-14960174D01*
X6466610Y-14960174D02*
X6457087Y-14969698D01*
X6666610Y-15083984D02*
X6647563Y-15074460D01*
X6647563Y-15074460D02*
X6638039Y-15064936D01*
X6638039Y-15064936D02*
X6628515Y-15045888D01*
X6628515Y-15045888D02*
X6628515Y-14988746D01*
X6628515Y-14988746D02*
X6638039Y-14969698D01*
X6638039Y-14969698D02*
X6647563Y-14960174D01*
X6647563Y-14960174D02*
X6666610Y-14950650D01*
X6666610Y-14950650D02*
X6695182Y-14950650D01*
X6695182Y-14950650D02*
X6714230Y-14960174D01*
X6714230Y-14960174D02*
X6723753Y-14969698D01*
X6723753Y-14969698D02*
X6733277Y-14988746D01*
X6733277Y-14988746D02*
X6733277Y-15045888D01*
X6733277Y-15045888D02*
X6723753Y-15064936D01*
X6723753Y-15064936D02*
X6714230Y-15074460D01*
X6714230Y-15074460D02*
X6695182Y-15083984D01*
X6695182Y-15083984D02*
X6666610Y-15083984D01*
X6847563Y-15083984D02*
X6828515Y-15074460D01*
X6828515Y-15074460D02*
X6818991Y-15055412D01*
X6818991Y-15055412D02*
X6818991Y-14883984D01*
X6999944Y-15074460D02*
X6980896Y-15083984D01*
X6980896Y-15083984D02*
X6942801Y-15083984D01*
X6942801Y-15083984D02*
X6923753Y-15074460D01*
X6923753Y-15074460D02*
X6914230Y-15055412D01*
X6914230Y-15055412D02*
X6914230Y-14979222D01*
X6914230Y-14979222D02*
X6923753Y-14960174D01*
X6923753Y-14960174D02*
X6942801Y-14950650D01*
X6942801Y-14950650D02*
X6980896Y-14950650D01*
X6980896Y-14950650D02*
X6999944Y-14960174D01*
X6999944Y-14960174D02*
X7009468Y-14979222D01*
X7009468Y-14979222D02*
X7009468Y-14998269D01*
X7009468Y-14998269D02*
X6914230Y-15017317D01*
X7085658Y-15074460D02*
X7104706Y-15083984D01*
X7104706Y-15083984D02*
X7142801Y-15083984D01*
X7142801Y-15083984D02*
X7161849Y-15074460D01*
X7161849Y-15074460D02*
X7171372Y-15055412D01*
X7171372Y-15055412D02*
X7171372Y-15045888D01*
X7171372Y-15045888D02*
X7161849Y-15026841D01*
X7161849Y-15026841D02*
X7142801Y-15017317D01*
X7142801Y-15017317D02*
X7114230Y-15017317D01*
X7114230Y-15017317D02*
X7095182Y-15007793D01*
X7095182Y-15007793D02*
X7085658Y-14988746D01*
X7085658Y-14988746D02*
X7085658Y-14979222D01*
X7085658Y-14979222D02*
X7095182Y-14960174D01*
X7095182Y-14960174D02*
X7114230Y-14950650D01*
X7114230Y-14950650D02*
X7142801Y-14950650D01*
X7142801Y-14950650D02*
X7161849Y-14960174D01*
X7238039Y-15160174D02*
X7247563Y-15150650D01*
X7247563Y-15150650D02*
X7266611Y-15122079D01*
X7266611Y-15122079D02*
X7276134Y-15103031D01*
X7276134Y-15103031D02*
X7285658Y-15074460D01*
X7285658Y-15074460D02*
X7295182Y-15026841D01*
X7295182Y-15026841D02*
X7295182Y-14988746D01*
X7295182Y-14988746D02*
X7285658Y-14941127D01*
X7285658Y-14941127D02*
X7276134Y-14912555D01*
X7276134Y-14912555D02*
X7266611Y-14893508D01*
X7266611Y-14893508D02*
X7247563Y-14864936D01*
X7247563Y-14864936D02*
X7238039Y-14855412D01*
D12*
X2272500Y-15256500D02*
G75*
G02*
X2172500Y-15256500I-50000J0D01*
G01*
X2172500Y-15256500D02*
G75*
G02*
X2272500Y-15256500I50000J0D01*
G01*
D11*
X2638039Y-15347984D02*
X2523753Y-15347984D01*
X2580896Y-15347984D02*
X2580896Y-15147984D01*
X2580896Y-15147984D02*
X2561848Y-15176555D01*
X2561848Y-15176555D02*
X2542801Y-15195603D01*
X2542801Y-15195603D02*
X2523753Y-15205127D01*
X2723753Y-15328936D02*
X2733277Y-15338460D01*
X2733277Y-15338460D02*
X2723753Y-15347984D01*
X2723753Y-15347984D02*
X2714229Y-15338460D01*
X2714229Y-15338460D02*
X2723753Y-15328936D01*
X2723753Y-15328936D02*
X2723753Y-15347984D01*
X2857086Y-15147984D02*
X2876134Y-15147984D01*
X2876134Y-15147984D02*
X2895182Y-15157508D01*
X2895182Y-15157508D02*
X2904705Y-15167031D01*
X2904705Y-15167031D02*
X2914229Y-15186079D01*
X2914229Y-15186079D02*
X2923753Y-15224174D01*
X2923753Y-15224174D02*
X2923753Y-15271793D01*
X2923753Y-15271793D02*
X2914229Y-15309888D01*
X2914229Y-15309888D02*
X2904705Y-15328936D01*
X2904705Y-15328936D02*
X2895182Y-15338460D01*
X2895182Y-15338460D02*
X2876134Y-15347984D01*
X2876134Y-15347984D02*
X2857086Y-15347984D01*
X2857086Y-15347984D02*
X2838039Y-15338460D01*
X2838039Y-15338460D02*
X2828515Y-15328936D01*
X2828515Y-15328936D02*
X2818991Y-15309888D01*
X2818991Y-15309888D02*
X2809467Y-15271793D01*
X2809467Y-15271793D02*
X2809467Y-15224174D01*
X2809467Y-15224174D02*
X2818991Y-15186079D01*
X2818991Y-15186079D02*
X2828515Y-15167031D01*
X2828515Y-15167031D02*
X2838039Y-15157508D01*
X2838039Y-15157508D02*
X2857086Y-15147984D01*
X3047562Y-15147984D02*
X3066610Y-15147984D01*
X3066610Y-15147984D02*
X3085658Y-15157508D01*
X3085658Y-15157508D02*
X3095182Y-15167031D01*
X3095182Y-15167031D02*
X3104705Y-15186079D01*
X3104705Y-15186079D02*
X3114229Y-15224174D01*
X3114229Y-15224174D02*
X3114229Y-15271793D01*
X3114229Y-15271793D02*
X3104705Y-15309888D01*
X3104705Y-15309888D02*
X3095182Y-15328936D01*
X3095182Y-15328936D02*
X3085658Y-15338460D01*
X3085658Y-15338460D02*
X3066610Y-15347984D01*
X3066610Y-15347984D02*
X3047562Y-15347984D01*
X3047562Y-15347984D02*
X3028515Y-15338460D01*
X3028515Y-15338460D02*
X3018991Y-15328936D01*
X3018991Y-15328936D02*
X3009467Y-15309888D01*
X3009467Y-15309888D02*
X2999943Y-15271793D01*
X2999943Y-15271793D02*
X2999943Y-15224174D01*
X2999943Y-15224174D02*
X3009467Y-15186079D01*
X3009467Y-15186079D02*
X3018991Y-15167031D01*
X3018991Y-15167031D02*
X3028515Y-15157508D01*
X3028515Y-15157508D02*
X3047562Y-15147984D01*
X3238039Y-15147984D02*
X3257086Y-15147984D01*
X3257086Y-15147984D02*
X3276134Y-15157508D01*
X3276134Y-15157508D02*
X3285658Y-15167031D01*
X3285658Y-15167031D02*
X3295182Y-15186079D01*
X3295182Y-15186079D02*
X3304705Y-15224174D01*
X3304705Y-15224174D02*
X3304705Y-15271793D01*
X3304705Y-15271793D02*
X3295182Y-15309888D01*
X3295182Y-15309888D02*
X3285658Y-15328936D01*
X3285658Y-15328936D02*
X3276134Y-15338460D01*
X3276134Y-15338460D02*
X3257086Y-15347984D01*
X3257086Y-15347984D02*
X3238039Y-15347984D01*
X3238039Y-15347984D02*
X3218991Y-15338460D01*
X3218991Y-15338460D02*
X3209467Y-15328936D01*
X3209467Y-15328936D02*
X3199943Y-15309888D01*
X3199943Y-15309888D02*
X3190420Y-15271793D01*
X3190420Y-15271793D02*
X3190420Y-15224174D01*
X3190420Y-15224174D02*
X3199943Y-15186079D01*
X3199943Y-15186079D02*
X3209467Y-15167031D01*
X3209467Y-15167031D02*
X3218991Y-15157508D01*
X3218991Y-15157508D02*
X3238039Y-15147984D01*
X3390420Y-15347984D02*
X3390420Y-15214650D01*
X3390420Y-15233698D02*
X3399943Y-15224174D01*
X3399943Y-15224174D02*
X3418991Y-15214650D01*
X3418991Y-15214650D02*
X3447563Y-15214650D01*
X3447563Y-15214650D02*
X3466610Y-15224174D01*
X3466610Y-15224174D02*
X3476134Y-15243222D01*
X3476134Y-15243222D02*
X3476134Y-15347984D01*
X3476134Y-15243222D02*
X3485658Y-15224174D01*
X3485658Y-15224174D02*
X3504705Y-15214650D01*
X3504705Y-15214650D02*
X3533277Y-15214650D01*
X3533277Y-15214650D02*
X3552324Y-15224174D01*
X3552324Y-15224174D02*
X3561848Y-15243222D01*
X3561848Y-15243222D02*
X3561848Y-15347984D01*
X3657086Y-15347984D02*
X3657086Y-15214650D01*
X3657086Y-15233698D02*
X3666610Y-15224174D01*
X3666610Y-15224174D02*
X3685658Y-15214650D01*
X3685658Y-15214650D02*
X3714229Y-15214650D01*
X3714229Y-15214650D02*
X3733277Y-15224174D01*
X3733277Y-15224174D02*
X3742801Y-15243222D01*
X3742801Y-15243222D02*
X3742801Y-15347984D01*
X3742801Y-15243222D02*
X3752324Y-15224174D01*
X3752324Y-15224174D02*
X3771372Y-15214650D01*
X3771372Y-15214650D02*
X3799943Y-15214650D01*
X3799943Y-15214650D02*
X3818991Y-15224174D01*
X3818991Y-15224174D02*
X3828515Y-15243222D01*
X3828515Y-15243222D02*
X3828515Y-15347984D01*
X4218991Y-15138460D02*
X4047563Y-15395603D01*
X4476134Y-15147984D02*
X4495182Y-15147984D01*
X4495182Y-15147984D02*
X4514229Y-15157508D01*
X4514229Y-15157508D02*
X4523753Y-15167031D01*
X4523753Y-15167031D02*
X4533277Y-15186079D01*
X4533277Y-15186079D02*
X4542801Y-15224174D01*
X4542801Y-15224174D02*
X4542801Y-15271793D01*
X4542801Y-15271793D02*
X4533277Y-15309888D01*
X4533277Y-15309888D02*
X4523753Y-15328936D01*
X4523753Y-15328936D02*
X4514229Y-15338460D01*
X4514229Y-15338460D02*
X4495182Y-15347984D01*
X4495182Y-15347984D02*
X4476134Y-15347984D01*
X4476134Y-15347984D02*
X4457087Y-15338460D01*
X4457087Y-15338460D02*
X4447563Y-15328936D01*
X4447563Y-15328936D02*
X4438039Y-15309888D01*
X4438039Y-15309888D02*
X4428515Y-15271793D01*
X4428515Y-15271793D02*
X4428515Y-15224174D01*
X4428515Y-15224174D02*
X4438039Y-15186079D01*
X4438039Y-15186079D02*
X4447563Y-15167031D01*
X4447563Y-15167031D02*
X4457087Y-15157508D01*
X4457087Y-15157508D02*
X4476134Y-15147984D01*
X4628515Y-15328936D02*
X4638039Y-15338460D01*
X4638039Y-15338460D02*
X4628515Y-15347984D01*
X4628515Y-15347984D02*
X4618991Y-15338460D01*
X4618991Y-15338460D02*
X4628515Y-15328936D01*
X4628515Y-15328936D02*
X4628515Y-15347984D01*
X4761848Y-15147984D02*
X4780896Y-15147984D01*
X4780896Y-15147984D02*
X4799944Y-15157508D01*
X4799944Y-15157508D02*
X4809468Y-15167031D01*
X4809468Y-15167031D02*
X4818991Y-15186079D01*
X4818991Y-15186079D02*
X4828515Y-15224174D01*
X4828515Y-15224174D02*
X4828515Y-15271793D01*
X4828515Y-15271793D02*
X4818991Y-15309888D01*
X4818991Y-15309888D02*
X4809468Y-15328936D01*
X4809468Y-15328936D02*
X4799944Y-15338460D01*
X4799944Y-15338460D02*
X4780896Y-15347984D01*
X4780896Y-15347984D02*
X4761848Y-15347984D01*
X4761848Y-15347984D02*
X4742801Y-15338460D01*
X4742801Y-15338460D02*
X4733277Y-15328936D01*
X4733277Y-15328936D02*
X4723753Y-15309888D01*
X4723753Y-15309888D02*
X4714229Y-15271793D01*
X4714229Y-15271793D02*
X4714229Y-15224174D01*
X4714229Y-15224174D02*
X4723753Y-15186079D01*
X4723753Y-15186079D02*
X4733277Y-15167031D01*
X4733277Y-15167031D02*
X4742801Y-15157508D01*
X4742801Y-15157508D02*
X4761848Y-15147984D01*
X4895182Y-15147984D02*
X5018991Y-15147984D01*
X5018991Y-15147984D02*
X4952325Y-15224174D01*
X4952325Y-15224174D02*
X4980896Y-15224174D01*
X4980896Y-15224174D02*
X4999944Y-15233698D01*
X4999944Y-15233698D02*
X5009468Y-15243222D01*
X5009468Y-15243222D02*
X5018991Y-15262269D01*
X5018991Y-15262269D02*
X5018991Y-15309888D01*
X5018991Y-15309888D02*
X5009468Y-15328936D01*
X5009468Y-15328936D02*
X4999944Y-15338460D01*
X4999944Y-15338460D02*
X4980896Y-15347984D01*
X4980896Y-15347984D02*
X4923753Y-15347984D01*
X4923753Y-15347984D02*
X4904706Y-15338460D01*
X4904706Y-15338460D02*
X4895182Y-15328936D01*
X5114229Y-15347984D02*
X5152325Y-15347984D01*
X5152325Y-15347984D02*
X5171372Y-15338460D01*
X5171372Y-15338460D02*
X5180896Y-15328936D01*
X5180896Y-15328936D02*
X5199944Y-15300365D01*
X5199944Y-15300365D02*
X5209468Y-15262269D01*
X5209468Y-15262269D02*
X5209468Y-15186079D01*
X5209468Y-15186079D02*
X5199944Y-15167031D01*
X5199944Y-15167031D02*
X5190420Y-15157508D01*
X5190420Y-15157508D02*
X5171372Y-15147984D01*
X5171372Y-15147984D02*
X5133277Y-15147984D01*
X5133277Y-15147984D02*
X5114229Y-15157508D01*
X5114229Y-15157508D02*
X5104706Y-15167031D01*
X5104706Y-15167031D02*
X5095182Y-15186079D01*
X5095182Y-15186079D02*
X5095182Y-15233698D01*
X5095182Y-15233698D02*
X5104706Y-15252746D01*
X5104706Y-15252746D02*
X5114229Y-15262269D01*
X5114229Y-15262269D02*
X5133277Y-15271793D01*
X5133277Y-15271793D02*
X5171372Y-15271793D01*
X5171372Y-15271793D02*
X5190420Y-15262269D01*
X5190420Y-15262269D02*
X5199944Y-15252746D01*
X5199944Y-15252746D02*
X5209468Y-15233698D01*
X5380896Y-15214650D02*
X5380896Y-15347984D01*
X5333277Y-15138460D02*
X5285658Y-15281317D01*
X5285658Y-15281317D02*
X5409468Y-15281317D01*
X5476134Y-15147984D02*
X5476134Y-15186079D01*
X5552325Y-15147984D02*
X5552325Y-15186079D01*
X5847563Y-15424174D02*
X5838039Y-15414650D01*
X5838039Y-15414650D02*
X5818991Y-15386079D01*
X5818991Y-15386079D02*
X5809468Y-15367031D01*
X5809468Y-15367031D02*
X5799944Y-15338460D01*
X5799944Y-15338460D02*
X5790420Y-15290841D01*
X5790420Y-15290841D02*
X5790420Y-15252746D01*
X5790420Y-15252746D02*
X5799944Y-15205127D01*
X5799944Y-15205127D02*
X5809468Y-15176555D01*
X5809468Y-15176555D02*
X5818991Y-15157508D01*
X5818991Y-15157508D02*
X5838039Y-15128936D01*
X5838039Y-15128936D02*
X5847563Y-15119412D01*
X5914229Y-15167031D02*
X5923753Y-15157508D01*
X5923753Y-15157508D02*
X5942801Y-15147984D01*
X5942801Y-15147984D02*
X5990420Y-15147984D01*
X5990420Y-15147984D02*
X6009468Y-15157508D01*
X6009468Y-15157508D02*
X6018991Y-15167031D01*
X6018991Y-15167031D02*
X6028515Y-15186079D01*
X6028515Y-15186079D02*
X6028515Y-15205127D01*
X6028515Y-15205127D02*
X6018991Y-15233698D01*
X6018991Y-15233698D02*
X5904706Y-15347984D01*
X5904706Y-15347984D02*
X6028515Y-15347984D01*
X6095182Y-15147984D02*
X6218991Y-15147984D01*
X6218991Y-15147984D02*
X6152325Y-15224174D01*
X6152325Y-15224174D02*
X6180896Y-15224174D01*
X6180896Y-15224174D02*
X6199944Y-15233698D01*
X6199944Y-15233698D02*
X6209468Y-15243222D01*
X6209468Y-15243222D02*
X6218991Y-15262269D01*
X6218991Y-15262269D02*
X6218991Y-15309888D01*
X6218991Y-15309888D02*
X6209468Y-15328936D01*
X6209468Y-15328936D02*
X6199944Y-15338460D01*
X6199944Y-15338460D02*
X6180896Y-15347984D01*
X6180896Y-15347984D02*
X6123753Y-15347984D01*
X6123753Y-15347984D02*
X6104706Y-15338460D01*
X6104706Y-15338460D02*
X6095182Y-15328936D01*
X6457087Y-15347984D02*
X6457087Y-15147984D01*
X6542801Y-15347984D02*
X6542801Y-15243222D01*
X6542801Y-15243222D02*
X6533277Y-15224174D01*
X6533277Y-15224174D02*
X6514230Y-15214650D01*
X6514230Y-15214650D02*
X6485658Y-15214650D01*
X6485658Y-15214650D02*
X6466610Y-15224174D01*
X6466610Y-15224174D02*
X6457087Y-15233698D01*
X6666610Y-15347984D02*
X6647563Y-15338460D01*
X6647563Y-15338460D02*
X6638039Y-15328936D01*
X6638039Y-15328936D02*
X6628515Y-15309888D01*
X6628515Y-15309888D02*
X6628515Y-15252746D01*
X6628515Y-15252746D02*
X6638039Y-15233698D01*
X6638039Y-15233698D02*
X6647563Y-15224174D01*
X6647563Y-15224174D02*
X6666610Y-15214650D01*
X6666610Y-15214650D02*
X6695182Y-15214650D01*
X6695182Y-15214650D02*
X6714230Y-15224174D01*
X6714230Y-15224174D02*
X6723753Y-15233698D01*
X6723753Y-15233698D02*
X6733277Y-15252746D01*
X6733277Y-15252746D02*
X6733277Y-15309888D01*
X6733277Y-15309888D02*
X6723753Y-15328936D01*
X6723753Y-15328936D02*
X6714230Y-15338460D01*
X6714230Y-15338460D02*
X6695182Y-15347984D01*
X6695182Y-15347984D02*
X6666610Y-15347984D01*
X6847563Y-15347984D02*
X6828515Y-15338460D01*
X6828515Y-15338460D02*
X6818991Y-15319412D01*
X6818991Y-15319412D02*
X6818991Y-15147984D01*
X6999944Y-15338460D02*
X6980896Y-15347984D01*
X6980896Y-15347984D02*
X6942801Y-15347984D01*
X6942801Y-15347984D02*
X6923753Y-15338460D01*
X6923753Y-15338460D02*
X6914230Y-15319412D01*
X6914230Y-15319412D02*
X6914230Y-15243222D01*
X6914230Y-15243222D02*
X6923753Y-15224174D01*
X6923753Y-15224174D02*
X6942801Y-15214650D01*
X6942801Y-15214650D02*
X6980896Y-15214650D01*
X6980896Y-15214650D02*
X6999944Y-15224174D01*
X6999944Y-15224174D02*
X7009468Y-15243222D01*
X7009468Y-15243222D02*
X7009468Y-15262269D01*
X7009468Y-15262269D02*
X6914230Y-15281317D01*
X7085658Y-15338460D02*
X7104706Y-15347984D01*
X7104706Y-15347984D02*
X7142801Y-15347984D01*
X7142801Y-15347984D02*
X7161849Y-15338460D01*
X7161849Y-15338460D02*
X7171372Y-15319412D01*
X7171372Y-15319412D02*
X7171372Y-15309888D01*
X7171372Y-15309888D02*
X7161849Y-15290841D01*
X7161849Y-15290841D02*
X7142801Y-15281317D01*
X7142801Y-15281317D02*
X7114230Y-15281317D01*
X7114230Y-15281317D02*
X7095182Y-15271793D01*
X7095182Y-15271793D02*
X7085658Y-15252746D01*
X7085658Y-15252746D02*
X7085658Y-15243222D01*
X7085658Y-15243222D02*
X7095182Y-15224174D01*
X7095182Y-15224174D02*
X7114230Y-15214650D01*
X7114230Y-15214650D02*
X7142801Y-15214650D01*
X7142801Y-15214650D02*
X7161849Y-15224174D01*
X7238039Y-15424174D02*
X7247563Y-15414650D01*
X7247563Y-15414650D02*
X7266611Y-15386079D01*
X7266611Y-15386079D02*
X7276134Y-15367031D01*
X7276134Y-15367031D02*
X7285658Y-15338460D01*
X7285658Y-15338460D02*
X7295182Y-15290841D01*
X7295182Y-15290841D02*
X7295182Y-15252746D01*
X7295182Y-15252746D02*
X7285658Y-15205127D01*
X7285658Y-15205127D02*
X7276134Y-15176555D01*
X7276134Y-15176555D02*
X7266611Y-15157508D01*
X7266611Y-15157508D02*
X7247563Y-15128936D01*
X7247563Y-15128936D02*
X7238039Y-15119412D01*
D13*
X2197500Y-15445500D02*
X2197500Y-15595500D01*
X2122500Y-15520500D02*
X2272500Y-15520500D01*
D11*
X2638039Y-15611984D02*
X2523753Y-15611984D01*
X2580896Y-15611984D02*
X2580896Y-15411984D01*
X2580896Y-15411984D02*
X2561848Y-15440555D01*
X2561848Y-15440555D02*
X2542801Y-15459603D01*
X2542801Y-15459603D02*
X2523753Y-15469127D01*
X2723753Y-15592936D02*
X2733277Y-15602460D01*
X2733277Y-15602460D02*
X2723753Y-15611984D01*
X2723753Y-15611984D02*
X2714229Y-15602460D01*
X2714229Y-15602460D02*
X2723753Y-15592936D01*
X2723753Y-15592936D02*
X2723753Y-15611984D01*
X2914229Y-15411984D02*
X2818991Y-15411984D01*
X2818991Y-15411984D02*
X2809467Y-15507222D01*
X2809467Y-15507222D02*
X2818991Y-15497698D01*
X2818991Y-15497698D02*
X2838039Y-15488174D01*
X2838039Y-15488174D02*
X2885658Y-15488174D01*
X2885658Y-15488174D02*
X2904705Y-15497698D01*
X2904705Y-15497698D02*
X2914229Y-15507222D01*
X2914229Y-15507222D02*
X2923753Y-15526269D01*
X2923753Y-15526269D02*
X2923753Y-15573888D01*
X2923753Y-15573888D02*
X2914229Y-15592936D01*
X2914229Y-15592936D02*
X2904705Y-15602460D01*
X2904705Y-15602460D02*
X2885658Y-15611984D01*
X2885658Y-15611984D02*
X2838039Y-15611984D01*
X2838039Y-15611984D02*
X2818991Y-15602460D01*
X2818991Y-15602460D02*
X2809467Y-15592936D01*
X3047562Y-15411984D02*
X3066610Y-15411984D01*
X3066610Y-15411984D02*
X3085658Y-15421508D01*
X3085658Y-15421508D02*
X3095182Y-15431031D01*
X3095182Y-15431031D02*
X3104705Y-15450079D01*
X3104705Y-15450079D02*
X3114229Y-15488174D01*
X3114229Y-15488174D02*
X3114229Y-15535793D01*
X3114229Y-15535793D02*
X3104705Y-15573888D01*
X3104705Y-15573888D02*
X3095182Y-15592936D01*
X3095182Y-15592936D02*
X3085658Y-15602460D01*
X3085658Y-15602460D02*
X3066610Y-15611984D01*
X3066610Y-15611984D02*
X3047562Y-15611984D01*
X3047562Y-15611984D02*
X3028515Y-15602460D01*
X3028515Y-15602460D02*
X3018991Y-15592936D01*
X3018991Y-15592936D02*
X3009467Y-15573888D01*
X3009467Y-15573888D02*
X2999943Y-15535793D01*
X2999943Y-15535793D02*
X2999943Y-15488174D01*
X2999943Y-15488174D02*
X3009467Y-15450079D01*
X3009467Y-15450079D02*
X3018991Y-15431031D01*
X3018991Y-15431031D02*
X3028515Y-15421508D01*
X3028515Y-15421508D02*
X3047562Y-15411984D01*
X3238039Y-15411984D02*
X3257086Y-15411984D01*
X3257086Y-15411984D02*
X3276134Y-15421508D01*
X3276134Y-15421508D02*
X3285658Y-15431031D01*
X3285658Y-15431031D02*
X3295182Y-15450079D01*
X3295182Y-15450079D02*
X3304705Y-15488174D01*
X3304705Y-15488174D02*
X3304705Y-15535793D01*
X3304705Y-15535793D02*
X3295182Y-15573888D01*
X3295182Y-15573888D02*
X3285658Y-15592936D01*
X3285658Y-15592936D02*
X3276134Y-15602460D01*
X3276134Y-15602460D02*
X3257086Y-15611984D01*
X3257086Y-15611984D02*
X3238039Y-15611984D01*
X3238039Y-15611984D02*
X3218991Y-15602460D01*
X3218991Y-15602460D02*
X3209467Y-15592936D01*
X3209467Y-15592936D02*
X3199943Y-15573888D01*
X3199943Y-15573888D02*
X3190420Y-15535793D01*
X3190420Y-15535793D02*
X3190420Y-15488174D01*
X3190420Y-15488174D02*
X3199943Y-15450079D01*
X3199943Y-15450079D02*
X3209467Y-15431031D01*
X3209467Y-15431031D02*
X3218991Y-15421508D01*
X3218991Y-15421508D02*
X3238039Y-15411984D01*
X3390420Y-15611984D02*
X3390420Y-15478650D01*
X3390420Y-15497698D02*
X3399943Y-15488174D01*
X3399943Y-15488174D02*
X3418991Y-15478650D01*
X3418991Y-15478650D02*
X3447563Y-15478650D01*
X3447563Y-15478650D02*
X3466610Y-15488174D01*
X3466610Y-15488174D02*
X3476134Y-15507222D01*
X3476134Y-15507222D02*
X3476134Y-15611984D01*
X3476134Y-15507222D02*
X3485658Y-15488174D01*
X3485658Y-15488174D02*
X3504705Y-15478650D01*
X3504705Y-15478650D02*
X3533277Y-15478650D01*
X3533277Y-15478650D02*
X3552324Y-15488174D01*
X3552324Y-15488174D02*
X3561848Y-15507222D01*
X3561848Y-15507222D02*
X3561848Y-15611984D01*
X3657086Y-15611984D02*
X3657086Y-15478650D01*
X3657086Y-15497698D02*
X3666610Y-15488174D01*
X3666610Y-15488174D02*
X3685658Y-15478650D01*
X3685658Y-15478650D02*
X3714229Y-15478650D01*
X3714229Y-15478650D02*
X3733277Y-15488174D01*
X3733277Y-15488174D02*
X3742801Y-15507222D01*
X3742801Y-15507222D02*
X3742801Y-15611984D01*
X3742801Y-15507222D02*
X3752324Y-15488174D01*
X3752324Y-15488174D02*
X3771372Y-15478650D01*
X3771372Y-15478650D02*
X3799943Y-15478650D01*
X3799943Y-15478650D02*
X3818991Y-15488174D01*
X3818991Y-15488174D02*
X3828515Y-15507222D01*
X3828515Y-15507222D02*
X3828515Y-15611984D01*
X4218991Y-15402460D02*
X4047563Y-15659603D01*
X4476134Y-15411984D02*
X4495182Y-15411984D01*
X4495182Y-15411984D02*
X4514229Y-15421508D01*
X4514229Y-15421508D02*
X4523753Y-15431031D01*
X4523753Y-15431031D02*
X4533277Y-15450079D01*
X4533277Y-15450079D02*
X4542801Y-15488174D01*
X4542801Y-15488174D02*
X4542801Y-15535793D01*
X4542801Y-15535793D02*
X4533277Y-15573888D01*
X4533277Y-15573888D02*
X4523753Y-15592936D01*
X4523753Y-15592936D02*
X4514229Y-15602460D01*
X4514229Y-15602460D02*
X4495182Y-15611984D01*
X4495182Y-15611984D02*
X4476134Y-15611984D01*
X4476134Y-15611984D02*
X4457087Y-15602460D01*
X4457087Y-15602460D02*
X4447563Y-15592936D01*
X4447563Y-15592936D02*
X4438039Y-15573888D01*
X4438039Y-15573888D02*
X4428515Y-15535793D01*
X4428515Y-15535793D02*
X4428515Y-15488174D01*
X4428515Y-15488174D02*
X4438039Y-15450079D01*
X4438039Y-15450079D02*
X4447563Y-15431031D01*
X4447563Y-15431031D02*
X4457087Y-15421508D01*
X4457087Y-15421508D02*
X4476134Y-15411984D01*
X4628515Y-15592936D02*
X4638039Y-15602460D01*
X4638039Y-15602460D02*
X4628515Y-15611984D01*
X4628515Y-15611984D02*
X4618991Y-15602460D01*
X4618991Y-15602460D02*
X4628515Y-15592936D01*
X4628515Y-15592936D02*
X4628515Y-15611984D01*
X4761848Y-15411984D02*
X4780896Y-15411984D01*
X4780896Y-15411984D02*
X4799944Y-15421508D01*
X4799944Y-15421508D02*
X4809468Y-15431031D01*
X4809468Y-15431031D02*
X4818991Y-15450079D01*
X4818991Y-15450079D02*
X4828515Y-15488174D01*
X4828515Y-15488174D02*
X4828515Y-15535793D01*
X4828515Y-15535793D02*
X4818991Y-15573888D01*
X4818991Y-15573888D02*
X4809468Y-15592936D01*
X4809468Y-15592936D02*
X4799944Y-15602460D01*
X4799944Y-15602460D02*
X4780896Y-15611984D01*
X4780896Y-15611984D02*
X4761848Y-15611984D01*
X4761848Y-15611984D02*
X4742801Y-15602460D01*
X4742801Y-15602460D02*
X4733277Y-15592936D01*
X4733277Y-15592936D02*
X4723753Y-15573888D01*
X4723753Y-15573888D02*
X4714229Y-15535793D01*
X4714229Y-15535793D02*
X4714229Y-15488174D01*
X4714229Y-15488174D02*
X4723753Y-15450079D01*
X4723753Y-15450079D02*
X4733277Y-15431031D01*
X4733277Y-15431031D02*
X4742801Y-15421508D01*
X4742801Y-15421508D02*
X4761848Y-15411984D01*
X5009468Y-15411984D02*
X4914229Y-15411984D01*
X4914229Y-15411984D02*
X4904706Y-15507222D01*
X4904706Y-15507222D02*
X4914229Y-15497698D01*
X4914229Y-15497698D02*
X4933277Y-15488174D01*
X4933277Y-15488174D02*
X4980896Y-15488174D01*
X4980896Y-15488174D02*
X4999944Y-15497698D01*
X4999944Y-15497698D02*
X5009468Y-15507222D01*
X5009468Y-15507222D02*
X5018991Y-15526269D01*
X5018991Y-15526269D02*
X5018991Y-15573888D01*
X5018991Y-15573888D02*
X5009468Y-15592936D01*
X5009468Y-15592936D02*
X4999944Y-15602460D01*
X4999944Y-15602460D02*
X4980896Y-15611984D01*
X4980896Y-15611984D02*
X4933277Y-15611984D01*
X4933277Y-15611984D02*
X4914229Y-15602460D01*
X4914229Y-15602460D02*
X4904706Y-15592936D01*
X5114229Y-15611984D02*
X5152325Y-15611984D01*
X5152325Y-15611984D02*
X5171372Y-15602460D01*
X5171372Y-15602460D02*
X5180896Y-15592936D01*
X5180896Y-15592936D02*
X5199944Y-15564365D01*
X5199944Y-15564365D02*
X5209468Y-15526269D01*
X5209468Y-15526269D02*
X5209468Y-15450079D01*
X5209468Y-15450079D02*
X5199944Y-15431031D01*
X5199944Y-15431031D02*
X5190420Y-15421508D01*
X5190420Y-15421508D02*
X5171372Y-15411984D01*
X5171372Y-15411984D02*
X5133277Y-15411984D01*
X5133277Y-15411984D02*
X5114229Y-15421508D01*
X5114229Y-15421508D02*
X5104706Y-15431031D01*
X5104706Y-15431031D02*
X5095182Y-15450079D01*
X5095182Y-15450079D02*
X5095182Y-15497698D01*
X5095182Y-15497698D02*
X5104706Y-15516746D01*
X5104706Y-15516746D02*
X5114229Y-15526269D01*
X5114229Y-15526269D02*
X5133277Y-15535793D01*
X5133277Y-15535793D02*
X5171372Y-15535793D01*
X5171372Y-15535793D02*
X5190420Y-15526269D01*
X5190420Y-15526269D02*
X5199944Y-15516746D01*
X5199944Y-15516746D02*
X5209468Y-15497698D01*
X5399944Y-15611984D02*
X5285658Y-15611984D01*
X5342801Y-15611984D02*
X5342801Y-15411984D01*
X5342801Y-15411984D02*
X5323753Y-15440555D01*
X5323753Y-15440555D02*
X5304706Y-15459603D01*
X5304706Y-15459603D02*
X5285658Y-15469127D01*
X5476134Y-15411984D02*
X5476134Y-15450079D01*
X5552325Y-15411984D02*
X5552325Y-15450079D01*
X5847563Y-15688174D02*
X5838039Y-15678650D01*
X5838039Y-15678650D02*
X5818991Y-15650079D01*
X5818991Y-15650079D02*
X5809468Y-15631031D01*
X5809468Y-15631031D02*
X5799944Y-15602460D01*
X5799944Y-15602460D02*
X5790420Y-15554841D01*
X5790420Y-15554841D02*
X5790420Y-15516746D01*
X5790420Y-15516746D02*
X5799944Y-15469127D01*
X5799944Y-15469127D02*
X5809468Y-15440555D01*
X5809468Y-15440555D02*
X5818991Y-15421508D01*
X5818991Y-15421508D02*
X5838039Y-15392936D01*
X5838039Y-15392936D02*
X5847563Y-15383412D01*
X5952325Y-15497698D02*
X5933277Y-15488174D01*
X5933277Y-15488174D02*
X5923753Y-15478650D01*
X5923753Y-15478650D02*
X5914229Y-15459603D01*
X5914229Y-15459603D02*
X5914229Y-15450079D01*
X5914229Y-15450079D02*
X5923753Y-15431031D01*
X5923753Y-15431031D02*
X5933277Y-15421508D01*
X5933277Y-15421508D02*
X5952325Y-15411984D01*
X5952325Y-15411984D02*
X5990420Y-15411984D01*
X5990420Y-15411984D02*
X6009468Y-15421508D01*
X6009468Y-15421508D02*
X6018991Y-15431031D01*
X6018991Y-15431031D02*
X6028515Y-15450079D01*
X6028515Y-15450079D02*
X6028515Y-15459603D01*
X6028515Y-15459603D02*
X6018991Y-15478650D01*
X6018991Y-15478650D02*
X6009468Y-15488174D01*
X6009468Y-15488174D02*
X5990420Y-15497698D01*
X5990420Y-15497698D02*
X5952325Y-15497698D01*
X5952325Y-15497698D02*
X5933277Y-15507222D01*
X5933277Y-15507222D02*
X5923753Y-15516746D01*
X5923753Y-15516746D02*
X5914229Y-15535793D01*
X5914229Y-15535793D02*
X5914229Y-15573888D01*
X5914229Y-15573888D02*
X5923753Y-15592936D01*
X5923753Y-15592936D02*
X5933277Y-15602460D01*
X5933277Y-15602460D02*
X5952325Y-15611984D01*
X5952325Y-15611984D02*
X5990420Y-15611984D01*
X5990420Y-15611984D02*
X6009468Y-15602460D01*
X6009468Y-15602460D02*
X6018991Y-15592936D01*
X6018991Y-15592936D02*
X6028515Y-15573888D01*
X6028515Y-15573888D02*
X6028515Y-15535793D01*
X6028515Y-15535793D02*
X6018991Y-15516746D01*
X6018991Y-15516746D02*
X6009468Y-15507222D01*
X6009468Y-15507222D02*
X5990420Y-15497698D01*
X6152325Y-15411984D02*
X6171372Y-15411984D01*
X6171372Y-15411984D02*
X6190420Y-15421508D01*
X6190420Y-15421508D02*
X6199944Y-15431031D01*
X6199944Y-15431031D02*
X6209468Y-15450079D01*
X6209468Y-15450079D02*
X6218991Y-15488174D01*
X6218991Y-15488174D02*
X6218991Y-15535793D01*
X6218991Y-15535793D02*
X6209468Y-15573888D01*
X6209468Y-15573888D02*
X6199944Y-15592936D01*
X6199944Y-15592936D02*
X6190420Y-15602460D01*
X6190420Y-15602460D02*
X6171372Y-15611984D01*
X6171372Y-15611984D02*
X6152325Y-15611984D01*
X6152325Y-15611984D02*
X6133277Y-15602460D01*
X6133277Y-15602460D02*
X6123753Y-15592936D01*
X6123753Y-15592936D02*
X6114229Y-15573888D01*
X6114229Y-15573888D02*
X6104706Y-15535793D01*
X6104706Y-15535793D02*
X6104706Y-15488174D01*
X6104706Y-15488174D02*
X6114229Y-15450079D01*
X6114229Y-15450079D02*
X6123753Y-15431031D01*
X6123753Y-15431031D02*
X6133277Y-15421508D01*
X6133277Y-15421508D02*
X6152325Y-15411984D01*
X6457087Y-15611984D02*
X6457087Y-15411984D01*
X6542801Y-15611984D02*
X6542801Y-15507222D01*
X6542801Y-15507222D02*
X6533277Y-15488174D01*
X6533277Y-15488174D02*
X6514230Y-15478650D01*
X6514230Y-15478650D02*
X6485658Y-15478650D01*
X6485658Y-15478650D02*
X6466610Y-15488174D01*
X6466610Y-15488174D02*
X6457087Y-15497698D01*
X6666610Y-15611984D02*
X6647563Y-15602460D01*
X6647563Y-15602460D02*
X6638039Y-15592936D01*
X6638039Y-15592936D02*
X6628515Y-15573888D01*
X6628515Y-15573888D02*
X6628515Y-15516746D01*
X6628515Y-15516746D02*
X6638039Y-15497698D01*
X6638039Y-15497698D02*
X6647563Y-15488174D01*
X6647563Y-15488174D02*
X6666610Y-15478650D01*
X6666610Y-15478650D02*
X6695182Y-15478650D01*
X6695182Y-15478650D02*
X6714230Y-15488174D01*
X6714230Y-15488174D02*
X6723753Y-15497698D01*
X6723753Y-15497698D02*
X6733277Y-15516746D01*
X6733277Y-15516746D02*
X6733277Y-15573888D01*
X6733277Y-15573888D02*
X6723753Y-15592936D01*
X6723753Y-15592936D02*
X6714230Y-15602460D01*
X6714230Y-15602460D02*
X6695182Y-15611984D01*
X6695182Y-15611984D02*
X6666610Y-15611984D01*
X6847563Y-15611984D02*
X6828515Y-15602460D01*
X6828515Y-15602460D02*
X6818991Y-15583412D01*
X6818991Y-15583412D02*
X6818991Y-15411984D01*
X6999944Y-15602460D02*
X6980896Y-15611984D01*
X6980896Y-15611984D02*
X6942801Y-15611984D01*
X6942801Y-15611984D02*
X6923753Y-15602460D01*
X6923753Y-15602460D02*
X6914230Y-15583412D01*
X6914230Y-15583412D02*
X6914230Y-15507222D01*
X6914230Y-15507222D02*
X6923753Y-15488174D01*
X6923753Y-15488174D02*
X6942801Y-15478650D01*
X6942801Y-15478650D02*
X6980896Y-15478650D01*
X6980896Y-15478650D02*
X6999944Y-15488174D01*
X6999944Y-15488174D02*
X7009468Y-15507222D01*
X7009468Y-15507222D02*
X7009468Y-15526269D01*
X7009468Y-15526269D02*
X6914230Y-15545317D01*
X7085658Y-15602460D02*
X7104706Y-15611984D01*
X7104706Y-15611984D02*
X7142801Y-15611984D01*
X7142801Y-15611984D02*
X7161849Y-15602460D01*
X7161849Y-15602460D02*
X7171372Y-15583412D01*
X7171372Y-15583412D02*
X7171372Y-15573888D01*
X7171372Y-15573888D02*
X7161849Y-15554841D01*
X7161849Y-15554841D02*
X7142801Y-15545317D01*
X7142801Y-15545317D02*
X7114230Y-15545317D01*
X7114230Y-15545317D02*
X7095182Y-15535793D01*
X7095182Y-15535793D02*
X7085658Y-15516746D01*
X7085658Y-15516746D02*
X7085658Y-15507222D01*
X7085658Y-15507222D02*
X7095182Y-15488174D01*
X7095182Y-15488174D02*
X7114230Y-15478650D01*
X7114230Y-15478650D02*
X7142801Y-15478650D01*
X7142801Y-15478650D02*
X7161849Y-15488174D01*
X7238039Y-15688174D02*
X7247563Y-15678650D01*
X7247563Y-15678650D02*
X7266611Y-15650079D01*
X7266611Y-15650079D02*
X7276134Y-15631031D01*
X7276134Y-15631031D02*
X7285658Y-15602460D01*
X7285658Y-15602460D02*
X7295182Y-15554841D01*
X7295182Y-15554841D02*
X7295182Y-15516746D01*
X7295182Y-15516746D02*
X7285658Y-15469127D01*
X7285658Y-15469127D02*
X7276134Y-15440555D01*
X7276134Y-15440555D02*
X7266611Y-15421508D01*
X7266611Y-15421508D02*
X7247563Y-15392936D01*
X7247563Y-15392936D02*
X7238039Y-15383412D01*
M02*
