M48
; DRILL file {KiCad 9.0.2} date 2025-07-17T20:40:52+0100
; FORMAT={-:-/ absolute / metric / decimal}
; #@! TF.CreationDate,2025-07-17T20:40:52+01:00
; #@! TF.GenerationSoftware,Kicad,Pcbnew,9.0.2
; #@! TF.FileFunction,Plated,1,2,PTH
FMAT,2
METRIC
; #@! TA.AperFunction,Plated,PTH,ViaDrill
T1C0.300
; #@! TA.AperFunction,Plated,PTH,ComponentDrill
T2C1.000
; #@! TA.AperFunction,Plated,PTH,ComponentDrill
T3C1.500
%
G90
G05
T1
X24.5Y-86.449
X24.5Y-92.675
X24.5Y-122.0
X26.25Y-70.075
X26.25Y-90.5
X33.1Y-118.7
X40.0Y-108.075
X40.0Y-128.5
X42.75Y-70.075
X42.75Y-86.449
X42.75Y-92.675
X52.25Y-122.0
X52.25Y-130.675
X56.5Y-108.075
X56.5Y-122.0
X61.75Y-70.075
X61.75Y-86.449
X61.75Y-92.675
X71.25Y-122.0
X71.25Y-130.675
X75.5Y-108.075
X75.5Y-122.0
X80.75Y-70.075
X80.75Y-86.449
X80.75Y-92.675
X90.25Y-122.0
X90.25Y-130.675
X94.5Y-108.075
X94.5Y-122.0
X99.75Y-70.075
X99.75Y-86.449
X99.75Y-92.675
X113.5Y-108.075
X113.5Y-122.0
X118.75Y-70.075
X118.75Y-86.449
X118.75Y-92.675
X126.5Y-122.0
X126.5Y-133.0
X132.5Y-108.075
X132.5Y-122.0
X133.5Y-111.675
X133.5Y-123.5
X137.75Y-70.075
X137.75Y-86.449
X137.75Y-92.675
X142.85Y-99.7
X151.5Y-108.075
X151.5Y-122.0
X151.5Y-130.675
X156.75Y-70.075
X156.75Y-86.449
X156.75Y-92.675
X161.85Y-99.7
X170.5Y-108.075
X170.5Y-122.0
X170.5Y-130.675
X175.75Y-70.075
X175.75Y-86.449
X175.75Y-92.675
X180.85Y-99.7
X189.5Y-108.075
X189.5Y-122.0
X189.5Y-124.1
X189.5Y-130.675
X194.75Y-70.075
X194.75Y-86.449
X194.75Y-92.675
X199.85Y-99.7
X208.5Y-108.075
X208.5Y-124.1
X213.75Y-70.075
X213.75Y-86.449
X213.75Y-92.675
X218.85Y-99.7
X226.7Y-116.55
X226.7Y-126.04
X227.5Y-108.075
X227.5Y-124.1
X227.5Y-139.0
X232.75Y-70.075
X232.75Y-86.449
X234.5Y-90.575
X234.5Y-109.5
X235.25Y-106.006
X236.25Y-106.0
X237.25Y-106.0
X238.5Y-106.0
X239.25Y-97.55
X240.0Y-106.0
X241.0Y-80.25
X241.5Y-86.25
X242.0Y-80.25
X243.0Y-86.25
X244.0Y-86.25
X245.0Y-86.25
X251.0Y-70.075
X251.0Y-90.5
X251.0Y-139.0
T2
X232.38Y-113.34
X232.38Y-115.88
X232.38Y-118.42
X232.38Y-120.96
X232.38Y-123.5
X232.38Y-126.04
X232.38Y-128.58
X232.38Y-131.12
X232.38Y-133.66
X234.92Y-133.87
X237.46Y-133.87
X240.0Y-133.87
X242.54Y-133.87
X245.08Y-133.87
X247.62Y-113.34
X247.62Y-115.88
X247.62Y-118.42
X247.62Y-120.96
X247.62Y-123.5
X247.62Y-126.04
X247.62Y-128.58
X247.62Y-131.12
X247.62Y-133.66
T3
X28.85Y-80.7
X33.1Y-99.7
X35.85Y-81.75
X40.1Y-100.75
X42.6Y-118.7
X47.85Y-80.7
X49.6Y-119.75
X52.1Y-99.7
X54.85Y-81.75
X57.35Y-137.7
X59.1Y-100.75
X61.6Y-118.7
X64.35Y-138.75
X66.85Y-80.7
X68.6Y-119.75
X71.1Y-99.7
X73.85Y-81.75
X76.35Y-137.7
X78.1Y-100.75
X80.6Y-118.7
X83.35Y-138.75
X85.85Y-80.7
X87.6Y-119.75
X90.1Y-99.7
X92.85Y-81.75
X95.35Y-137.7
X97.1Y-100.75
X99.6Y-118.7
X102.35Y-138.75
X104.85Y-80.7
X106.6Y-119.75
X109.1Y-99.7
X111.85Y-81.75
X116.1Y-100.75
X118.6Y-118.7
X123.85Y-80.7
X125.6Y-119.75
X128.1Y-99.7
X128.1Y-137.7
X130.85Y-81.75
X135.1Y-100.75
X135.1Y-138.75
X137.6Y-118.7
X142.85Y-80.7
X144.6Y-119.75
X147.1Y-99.7
X149.85Y-81.75
X154.1Y-100.75
X156.6Y-118.7
X160.85Y-137.7
X161.85Y-80.7
X163.6Y-119.75
X166.1Y-99.7
X167.85Y-138.75
X168.85Y-81.75
X173.1Y-100.75
X175.6Y-118.7
X179.85Y-137.7
X180.85Y-80.7
X182.6Y-119.75
X185.1Y-99.7
X186.85Y-138.75
X187.85Y-81.75
X192.1Y-100.75
X194.6Y-118.7
X198.85Y-137.7
X199.85Y-80.7
X201.6Y-119.75
X204.1Y-99.7
X205.85Y-138.75
X206.85Y-81.75
X211.1Y-100.75
X213.6Y-118.7
X218.85Y-80.7
X220.6Y-119.75
X223.1Y-99.7
X225.85Y-81.75
X230.1Y-100.75
X237.85Y-80.7
X244.85Y-81.75
M30
