%TF.GenerationSoftware,KiCad,Pcbnew,9.0.2*%
%TF.CreationDate,2025-07-17T20:41:54+01:00*%
%TF.ProjectId,just-40-bottom,6a757374-2d34-4302-9d62-6f74746f6d2e,rev?*%
%TF.SameCoordinates,Original*%
%TF.FileFunction,Copper,L1,Top*%
%TF.FilePolarity,Positive*%
%FSLAX46Y46*%
G04 Gerber Fmt 4.6, Leading zero omitted, Abs format (unit mm)*
G04 Created by KiCad (PCBNEW 9.0.2) date 2025-07-17 20:41:54*
%MOMM*%
%LPD*%
G01*
G04 APERTURE LIST*
%TA.AperFunction,EtchedComponent*%
%ADD10C,0.000000*%
%TD*%
G04 APERTURE END LIST*
D10*
%TA.AperFunction,EtchedComponent*%
%TO.C,G\u002A\u002A\u002A*%
G36*
X207725971Y-192684575D02*
G01*
X207726790Y-193720210D01*
X207727382Y-194694011D01*
X207727748Y-195606849D01*
X207727883Y-196459592D01*
X207727787Y-197253107D01*
X207727458Y-197988264D01*
X207726892Y-198665930D01*
X207726089Y-199286975D01*
X207725046Y-199852266D01*
X207723761Y-200362672D01*
X207722232Y-200819062D01*
X207720456Y-201222303D01*
X207718433Y-201573264D01*
X207716159Y-201872814D01*
X207713633Y-202121821D01*
X207710853Y-202321153D01*
X207707816Y-202471679D01*
X207704521Y-202574267D01*
X207700965Y-202629785D01*
X207657070Y-202895617D01*
X207556198Y-203236059D01*
X207411231Y-203538115D01*
X207331946Y-203656793D01*
X207197927Y-203824403D01*
X207044140Y-203991057D01*
X206887453Y-204138751D01*
X206744735Y-204249481D01*
X206720214Y-204264523D01*
X206639217Y-204311831D01*
X206507732Y-204387356D01*
X206328268Y-204489692D01*
X206103335Y-204617432D01*
X205835444Y-204769167D01*
X205527104Y-204943490D01*
X205180826Y-205138995D01*
X204799120Y-205354273D01*
X204384496Y-205587916D01*
X203939463Y-205838519D01*
X203466533Y-206104672D01*
X202968215Y-206384969D01*
X202447020Y-206678003D01*
X201905457Y-206982365D01*
X201346036Y-207296648D01*
X200771269Y-207619445D01*
X200183664Y-207949349D01*
X199585732Y-208284951D01*
X198979983Y-208624845D01*
X198368928Y-208967624D01*
X197755075Y-209311878D01*
X197140936Y-209656202D01*
X196529021Y-209999188D01*
X195921839Y-210339428D01*
X195321901Y-210675515D01*
X194731717Y-211006041D01*
X194153797Y-211329599D01*
X193590651Y-211644781D01*
X193044789Y-211950181D01*
X192518722Y-212244390D01*
X192014959Y-212526002D01*
X191536010Y-212793608D01*
X191084387Y-213045801D01*
X190662598Y-213281174D01*
X190273154Y-213498319D01*
X189918565Y-213695830D01*
X189601341Y-213872298D01*
X189323992Y-214026315D01*
X189089029Y-214156476D01*
X188898961Y-214261371D01*
X188756299Y-214339595D01*
X188663553Y-214389738D01*
X188623232Y-214410394D01*
X188544752Y-214440267D01*
X188389216Y-214491311D01*
X188245068Y-214530267D01*
X188143762Y-214547807D01*
X187934232Y-214563584D01*
X187673578Y-214563502D01*
X187576230Y-214560164D01*
X187415647Y-214550021D01*
X187285287Y-214532446D01*
X187163228Y-214503963D01*
X187027549Y-214461098D01*
X187014795Y-214456292D01*
X186965485Y-214434278D01*
X186890402Y-214397443D01*
X186788160Y-214345016D01*
X186657372Y-214276230D01*
X186496652Y-214190313D01*
X186304614Y-214086498D01*
X186079871Y-213964015D01*
X185821036Y-213822094D01*
X185526724Y-213659965D01*
X185195546Y-213476860D01*
X184826119Y-213272009D01*
X184417053Y-213044643D01*
X183966964Y-212793992D01*
X183474465Y-212519286D01*
X182938168Y-212219758D01*
X182356689Y-211894636D01*
X181728639Y-211543152D01*
X181052634Y-211164536D01*
X180327286Y-210758019D01*
X179551208Y-210322831D01*
X178723015Y-209858203D01*
X177841320Y-209363366D01*
X177221036Y-209015142D01*
X176534234Y-208629482D01*
X175862637Y-208252263D01*
X175208340Y-207884664D01*
X174573434Y-207527863D01*
X173960013Y-207183039D01*
X173370170Y-206851371D01*
X172805996Y-206534036D01*
X172269586Y-206232215D01*
X171763033Y-205947084D01*
X171288428Y-205679824D01*
X170847864Y-205431611D01*
X170443435Y-205203626D01*
X170077234Y-204997046D01*
X169751353Y-204813049D01*
X169467885Y-204652816D01*
X169228923Y-204517523D01*
X169036559Y-204408350D01*
X168892887Y-204326475D01*
X168800000Y-204273078D01*
X168759990Y-204249335D01*
X168651309Y-204167543D01*
X168496432Y-204026801D01*
X168340609Y-203863002D01*
X168200684Y-203694119D01*
X168093500Y-203538125D01*
X168080012Y-203514926D01*
X167960561Y-203262496D01*
X167866633Y-202976061D01*
X167806359Y-202679919D01*
X167804016Y-202644386D01*
X167801092Y-202544623D01*
X167798306Y-202387033D01*
X167795659Y-202174554D01*
X167793151Y-201910127D01*
X167790782Y-201596690D01*
X167788554Y-201237185D01*
X167786465Y-200834550D01*
X167784517Y-200391725D01*
X167782710Y-199911649D01*
X167782351Y-199800883D01*
X174994357Y-199800883D01*
X175013496Y-199859657D01*
X175065517Y-199960777D01*
X175146133Y-200097978D01*
X175251059Y-200264993D01*
X175376008Y-200455557D01*
X175516696Y-200663406D01*
X175668836Y-200882272D01*
X175828143Y-201105891D01*
X175990331Y-201327996D01*
X176151114Y-201542324D01*
X176306206Y-201742607D01*
X176451322Y-201922580D01*
X176581210Y-202074087D01*
X176769732Y-202282324D01*
X176986778Y-202512762D01*
X177222378Y-202755422D01*
X177466563Y-203000326D01*
X177709364Y-203237496D01*
X177940814Y-203456954D01*
X178150943Y-203648721D01*
X178329782Y-203802820D01*
X178952285Y-204291493D01*
X179751509Y-204849467D01*
X180574485Y-205349128D01*
X181420787Y-205790309D01*
X182289987Y-206172841D01*
X183181659Y-206496557D01*
X184095375Y-206761289D01*
X185030709Y-206966869D01*
X185987233Y-207113128D01*
X186964521Y-207199899D01*
X187884840Y-207223014D01*
X188824135Y-207185340D01*
X189758276Y-207086696D01*
X190683909Y-206928110D01*
X191597678Y-206710614D01*
X192496230Y-206435239D01*
X193376211Y-206103015D01*
X194234265Y-205714972D01*
X195067038Y-205272142D01*
X195871176Y-204775554D01*
X196643324Y-204226240D01*
X196714536Y-204171580D01*
X197339629Y-203658097D01*
X197951396Y-203096491D01*
X198537420Y-202499339D01*
X199085287Y-201879218D01*
X199582580Y-201248706D01*
X199588088Y-201241266D01*
X200132925Y-200452640D01*
X200622283Y-199635762D01*
X201055555Y-198793372D01*
X201432134Y-197928212D01*
X201751413Y-197043020D01*
X202012784Y-196140538D01*
X202215641Y-195223507D01*
X202359377Y-194294665D01*
X202443384Y-193356755D01*
X202467055Y-192412516D01*
X202429784Y-191464688D01*
X202330963Y-190516013D01*
X202169985Y-189569230D01*
X202108381Y-189282537D01*
X201889797Y-188437793D01*
X201618310Y-187597013D01*
X201298510Y-186772387D01*
X200934988Y-185976102D01*
X200532332Y-185220347D01*
X200467954Y-185109577D01*
X199964831Y-184313132D01*
X199407704Y-183544053D01*
X198801728Y-182809063D01*
X198152055Y-182114887D01*
X197694590Y-181675010D01*
X196967684Y-181046967D01*
X196207473Y-180472062D01*
X195415201Y-179950879D01*
X194592109Y-179484001D01*
X193739441Y-179072011D01*
X192858439Y-178715491D01*
X191950345Y-178415025D01*
X191016401Y-178171196D01*
X190057851Y-177984587D01*
X189075936Y-177855781D01*
X189032063Y-177851728D01*
X188837341Y-177838973D01*
X188595212Y-177829182D01*
X188317854Y-177822349D01*
X188017447Y-177818470D01*
X187706171Y-177817538D01*
X187396205Y-177819549D01*
X187099729Y-177824498D01*
X186828921Y-177832379D01*
X186595963Y-177843187D01*
X186413033Y-177856917D01*
X186329903Y-177865335D01*
X185354325Y-177996692D01*
X184404242Y-178185606D01*
X183479379Y-178432203D01*
X182579459Y-178736606D01*
X181704205Y-179098941D01*
X180853341Y-179519332D01*
X180026590Y-179997902D01*
X179223675Y-180534778D01*
X178444321Y-181130082D01*
X177688252Y-181783940D01*
X177553599Y-181910378D01*
X177234622Y-182230020D01*
X176904121Y-182586329D01*
X176570838Y-182968526D01*
X176243516Y-183365831D01*
X175930898Y-183767464D01*
X175641726Y-184162645D01*
X175384745Y-184540594D01*
X175168696Y-184890531D01*
X175085858Y-185033421D01*
X178263041Y-186852256D01*
X178476705Y-186974535D01*
X178881872Y-187206201D01*
X179270153Y-187427943D01*
X179638114Y-187637813D01*
X179982320Y-187833861D01*
X180299336Y-188014139D01*
X180585726Y-188176698D01*
X180838055Y-188319588D01*
X181052889Y-188440863D01*
X181226791Y-188538571D01*
X181356328Y-188610765D01*
X181438064Y-188655497D01*
X181468564Y-188670816D01*
X181470876Y-188670311D01*
X181504125Y-188639270D01*
X181558326Y-188569634D01*
X181622958Y-188474762D01*
X181907863Y-188069660D01*
X182294093Y-187607104D01*
X182726505Y-187169073D01*
X183196277Y-186764397D01*
X183694585Y-186401903D01*
X184090084Y-186155702D01*
X184658897Y-185857846D01*
X185248946Y-185614073D01*
X185867875Y-185421341D01*
X186523330Y-185276609D01*
X186583774Y-185265848D01*
X186728710Y-185241717D01*
X186859564Y-185223659D01*
X186989185Y-185210813D01*
X187130426Y-185202318D01*
X187296135Y-185197316D01*
X187499164Y-185194945D01*
X187752363Y-185194346D01*
X187853757Y-185194417D01*
X188086686Y-185195578D01*
X188274252Y-185198833D01*
X188429304Y-185205041D01*
X188564694Y-185215062D01*
X188693272Y-185229757D01*
X188827889Y-185249986D01*
X188981395Y-185276609D01*
X189454015Y-185374631D01*
X189972524Y-185517478D01*
X190466861Y-185694790D01*
X190771495Y-185825099D01*
X191373456Y-186132088D01*
X191939901Y-186488966D01*
X192468271Y-186892785D01*
X192956010Y-187340600D01*
X193400560Y-187829461D01*
X193799362Y-188356423D01*
X194149859Y-188918539D01*
X194449493Y-189512861D01*
X194695706Y-190136443D01*
X194885941Y-190786337D01*
X194938142Y-191011614D01*
X194993658Y-191294999D01*
X195033377Y-191569167D01*
X195059286Y-191852057D01*
X195073373Y-192161608D01*
X195077627Y-192515756D01*
X195075363Y-192781868D01*
X195064053Y-193101404D01*
X195041444Y-193389563D01*
X195005548Y-193664286D01*
X194954376Y-193943511D01*
X194885941Y-194245176D01*
X194880773Y-194266201D01*
X194756518Y-194701022D01*
X194597921Y-195150012D01*
X194412990Y-195593881D01*
X194209727Y-196013342D01*
X193996140Y-196389106D01*
X193677570Y-196857906D01*
X193263472Y-197367938D01*
X192804597Y-197840813D01*
X192306124Y-198272469D01*
X191773236Y-198658847D01*
X191211113Y-198995886D01*
X190624937Y-199279523D01*
X190019887Y-199505700D01*
X189657631Y-199611660D01*
X189002750Y-199754213D01*
X188345871Y-199836378D01*
X187690628Y-199859425D01*
X187040654Y-199824623D01*
X186399585Y-199733242D01*
X185771052Y-199586551D01*
X185158691Y-199385821D01*
X184566135Y-199132321D01*
X183997017Y-198827320D01*
X183454972Y-198472089D01*
X182943634Y-198067897D01*
X182466635Y-197616014D01*
X182027611Y-197117709D01*
X181630194Y-196574253D01*
X181406086Y-196236595D01*
X181167872Y-196368136D01*
X181114338Y-196397647D01*
X181006905Y-196456810D01*
X180851873Y-196542152D01*
X180653203Y-196651493D01*
X180414860Y-196782653D01*
X180140805Y-196933451D01*
X179835002Y-197101708D01*
X179501414Y-197285242D01*
X179144002Y-197481873D01*
X178766730Y-197689421D01*
X178373560Y-197905706D01*
X177968455Y-198128546D01*
X177959805Y-198133305D01*
X177560290Y-198353348D01*
X177176514Y-198565251D01*
X176812072Y-198767001D01*
X176470558Y-198956585D01*
X176155565Y-199131990D01*
X175870689Y-199291203D01*
X175619523Y-199432211D01*
X175405662Y-199553001D01*
X175232700Y-199651561D01*
X175104231Y-199725876D01*
X175023849Y-199773936D01*
X174995149Y-199793725D01*
X174994357Y-199800883D01*
X167782351Y-199800883D01*
X167781043Y-199397262D01*
X167779518Y-198851505D01*
X167778135Y-198277315D01*
X167776894Y-197677634D01*
X167775795Y-197055400D01*
X167774839Y-196413553D01*
X167774026Y-195755033D01*
X167773356Y-195082780D01*
X167772830Y-194399732D01*
X167772448Y-193708831D01*
X167772210Y-193013014D01*
X167772117Y-192315222D01*
X167772168Y-191618395D01*
X167772365Y-190925472D01*
X167772708Y-190239392D01*
X167773196Y-189563096D01*
X167773831Y-188899523D01*
X167774612Y-188251612D01*
X167775540Y-187622303D01*
X167776616Y-187014536D01*
X167777839Y-186431250D01*
X167779209Y-185875386D01*
X167780728Y-185349881D01*
X167782396Y-184857677D01*
X167784212Y-184401713D01*
X167786177Y-183984928D01*
X167788292Y-183610262D01*
X167790556Y-183280655D01*
X167792971Y-182999046D01*
X167795536Y-182768375D01*
X167798252Y-182591581D01*
X167801119Y-182471604D01*
X167804137Y-182411384D01*
X167826124Y-182249201D01*
X167896570Y-181938258D01*
X167998379Y-181656112D01*
X168126610Y-181417993D01*
X168152927Y-181379276D01*
X168350466Y-181131860D01*
X168588482Y-180892260D01*
X168848498Y-180677595D01*
X169112040Y-180504981D01*
X169125872Y-180497196D01*
X169285950Y-180407256D01*
X169492448Y-180291462D01*
X169742831Y-180151228D01*
X170034562Y-179987969D01*
X170365105Y-179803098D01*
X170731923Y-179598031D01*
X171132480Y-179374182D01*
X171564240Y-179132966D01*
X172024667Y-178875796D01*
X172511224Y-178604088D01*
X173021375Y-178319255D01*
X173552583Y-178022712D01*
X174102313Y-177715874D01*
X174668027Y-177400155D01*
X175247191Y-177076969D01*
X175837266Y-176747732D01*
X176435718Y-176413856D01*
X177040009Y-176076758D01*
X177647604Y-175737851D01*
X178255965Y-175398549D01*
X178862558Y-175060268D01*
X179464845Y-174724421D01*
X180060290Y-174392423D01*
X180646357Y-174065689D01*
X181220509Y-173745633D01*
X181780211Y-173433669D01*
X182322925Y-173131212D01*
X182846116Y-172839676D01*
X183347247Y-172560476D01*
X183823782Y-172295026D01*
X184273185Y-172044741D01*
X184692919Y-171811035D01*
X185080448Y-171595322D01*
X185433236Y-171399018D01*
X185748746Y-171223535D01*
X186024442Y-171070290D01*
X186257788Y-170940696D01*
X186446247Y-170836167D01*
X186587283Y-170758119D01*
X186678360Y-170707965D01*
X186716942Y-170687121D01*
X186747896Y-170672095D01*
X187056362Y-170556922D01*
X187394126Y-170485164D01*
X187746531Y-170457167D01*
X188098923Y-170473277D01*
X188436645Y-170533841D01*
X188745042Y-170639205D01*
X188760745Y-170647278D01*
X188829584Y-170684615D01*
X188949397Y-170750509D01*
X189117660Y-170843548D01*
X189331852Y-170962322D01*
X189589450Y-171105422D01*
X189887931Y-171271435D01*
X190224774Y-171458953D01*
X190597454Y-171666565D01*
X191003451Y-171892861D01*
X191440241Y-172136430D01*
X191905302Y-172395861D01*
X192396111Y-172669746D01*
X192910146Y-172956673D01*
X193444885Y-173255232D01*
X193997804Y-173564012D01*
X194566382Y-173881604D01*
X195148096Y-174206597D01*
X195740423Y-174537581D01*
X196340841Y-174873145D01*
X196946827Y-175211880D01*
X197555859Y-175552374D01*
X198165415Y-175893218D01*
X198772971Y-176233000D01*
X199376006Y-176570312D01*
X199971996Y-176903743D01*
X200558420Y-177231881D01*
X201132755Y-177553318D01*
X201692478Y-177866642D01*
X202235066Y-178170443D01*
X202757998Y-178463311D01*
X203258751Y-178743836D01*
X203734802Y-179010608D01*
X204183629Y-179262215D01*
X204602709Y-179497248D01*
X204989520Y-179714296D01*
X205341539Y-179911950D01*
X205656244Y-180088798D01*
X205931112Y-180243431D01*
X206163621Y-180374438D01*
X206351248Y-180480408D01*
X206491471Y-180559932D01*
X206581767Y-180611600D01*
X206634113Y-180643557D01*
X206821055Y-180780753D01*
X207011944Y-180951207D01*
X207191725Y-181139508D01*
X207345341Y-181330250D01*
X207457735Y-181508024D01*
X207523710Y-181648349D01*
X207593282Y-181821897D01*
X207646235Y-181980729D01*
X207716258Y-182226551D01*
X207725606Y-192279404D01*
X207725726Y-192412516D01*
X207725971Y-192684575D01*
G37*
%TD.AperFunction*%
%TA.AperFunction,EtchedComponent*%
G36*
X101259898Y-177309213D02*
G01*
X101254509Y-177472365D01*
X101248961Y-177631457D01*
X101243367Y-177782628D01*
X101237845Y-177922016D01*
X101232508Y-178045760D01*
X101227473Y-178150000D01*
X101217506Y-178341666D01*
X101384050Y-178478081D01*
X101390625Y-178483462D01*
X101455743Y-178536246D01*
X101513235Y-178581996D01*
X101557084Y-178615972D01*
X101581271Y-178633434D01*
X101584002Y-178634665D01*
X101599756Y-178636355D01*
X101627954Y-178634284D01*
X101670811Y-178627989D01*
X101730540Y-178617005D01*
X101809357Y-178600866D01*
X101909475Y-178579110D01*
X102033109Y-178551270D01*
X102182473Y-178516883D01*
X102359782Y-178475484D01*
X102567251Y-178426609D01*
X102714523Y-178391902D01*
X102883810Y-178352250D01*
X103042712Y-178315291D01*
X103188080Y-178281744D01*
X103316765Y-178252327D01*
X103425619Y-178227760D01*
X103511493Y-178208761D01*
X103571239Y-178196050D01*
X103601707Y-178190346D01*
X103713060Y-178189812D01*
X103831557Y-178217930D01*
X103944482Y-178272243D01*
X104046247Y-178349286D01*
X104131264Y-178445592D01*
X104193946Y-178557696D01*
X104194935Y-178560066D01*
X104207954Y-178592239D01*
X104218462Y-178622723D01*
X104226064Y-178654144D01*
X104230364Y-178689127D01*
X104230965Y-178730297D01*
X104227470Y-178780279D01*
X104219483Y-178841700D01*
X104206609Y-178917184D01*
X104188450Y-179009357D01*
X104164611Y-179120844D01*
X104134695Y-179254270D01*
X104098305Y-179412260D01*
X104055046Y-179597441D01*
X104004520Y-179812437D01*
X103980835Y-179913211D01*
X103935229Y-180107994D01*
X103896729Y-180273789D01*
X103864851Y-180412931D01*
X103839110Y-180527754D01*
X103819023Y-180620595D01*
X103804105Y-180693786D01*
X103793874Y-180749663D01*
X103787844Y-180790561D01*
X103785533Y-180818814D01*
X103786455Y-180836757D01*
X103790127Y-180846724D01*
X103790587Y-180847355D01*
X103810150Y-180872614D01*
X103845726Y-180917214D01*
X103892407Y-180975040D01*
X103945282Y-181039979D01*
X104078616Y-181203053D01*
X104270282Y-181193079D01*
X104353750Y-181189018D01*
X104468910Y-181183993D01*
X104601210Y-181178687D01*
X104746768Y-181173217D01*
X104901705Y-181167704D01*
X105062140Y-181162267D01*
X105224192Y-181157024D01*
X105383980Y-181152096D01*
X105537624Y-181147602D01*
X105681242Y-181143661D01*
X105810955Y-181140392D01*
X105922882Y-181137914D01*
X106013141Y-181136347D01*
X106077853Y-181135810D01*
X106113136Y-181136423D01*
X106183686Y-181146063D01*
X106305869Y-181186815D01*
X106418197Y-181254047D01*
X106514054Y-181343373D01*
X106586826Y-181450409D01*
X106606111Y-181493776D01*
X106635382Y-181598308D01*
X106647392Y-181708133D01*
X106639877Y-181807990D01*
X106634768Y-181825522D01*
X106615908Y-181876260D01*
X106584780Y-181953070D01*
X106542484Y-182053414D01*
X106490120Y-182174755D01*
X106428785Y-182314556D01*
X106359578Y-182470278D01*
X106293807Y-182616666D01*
X106283599Y-182639385D01*
X106201945Y-182819339D01*
X105782220Y-183740030D01*
X105897085Y-183960056D01*
X106011949Y-184180082D01*
X106136949Y-184199748D01*
X106151788Y-184202101D01*
X106208083Y-184211140D01*
X106291239Y-184224580D01*
X106397026Y-184241735D01*
X106521218Y-184261919D01*
X106659587Y-184284443D01*
X106807907Y-184308623D01*
X106961949Y-184333770D01*
X107019437Y-184343156D01*
X107175150Y-184368522D01*
X107325548Y-184392945D01*
X107466036Y-184415682D01*
X107592017Y-184435993D01*
X107698894Y-184453136D01*
X107782070Y-184466369D01*
X107836949Y-184474950D01*
X107854387Y-184477731D01*
X108016448Y-184516050D01*
X108151517Y-184573125D01*
X108260532Y-184649597D01*
X108344433Y-184746109D01*
X108404159Y-184863306D01*
X108429655Y-184962284D01*
X108436828Y-185085520D01*
X108420976Y-185207654D01*
X108382668Y-185316666D01*
X108369218Y-185339515D01*
X108336484Y-185389746D01*
X108287600Y-185461983D01*
X108224466Y-185553506D01*
X108148984Y-185661595D01*
X108063056Y-185783529D01*
X107968581Y-185916589D01*
X107867463Y-186058054D01*
X107761602Y-186205205D01*
X107186483Y-187002077D01*
X107257183Y-187240270D01*
X107327883Y-187478462D01*
X108211583Y-187808309D01*
X108316110Y-187847377D01*
X108479280Y-187908578D01*
X108633855Y-187966807D01*
X108699534Y-187991666D01*
X108776597Y-188020834D01*
X108904272Y-188069423D01*
X109013642Y-188111342D01*
X109101471Y-188145359D01*
X109164524Y-188170239D01*
X109199564Y-188184751D01*
X109261990Y-188217566D01*
X109364187Y-188295062D01*
X109447636Y-188390205D01*
X109505111Y-188495640D01*
X109527077Y-188565466D01*
X109544370Y-188694565D01*
X109534451Y-188823116D01*
X109497484Y-188941540D01*
X109473694Y-188990228D01*
X109445525Y-189040980D01*
X109423671Y-189073028D01*
X109423664Y-189073036D01*
X109406612Y-189090005D01*
X109367399Y-189127636D01*
X109308233Y-189183851D01*
X109231317Y-189256570D01*
X109138857Y-189343715D01*
X109033059Y-189443208D01*
X108916129Y-189552968D01*
X108790271Y-189670918D01*
X108657692Y-189794979D01*
X107920102Y-190484665D01*
X107928725Y-190546499D01*
X107931690Y-190569825D01*
X107938278Y-190628134D01*
X107946097Y-190702670D01*
X107954022Y-190782944D01*
X107960094Y-190837139D01*
X107970325Y-190903843D01*
X107981242Y-190953167D01*
X107991322Y-190977177D01*
X108006601Y-190987760D01*
X108048122Y-191014573D01*
X108113128Y-191055795D01*
X108199071Y-191109831D01*
X108303401Y-191175087D01*
X108423569Y-191249970D01*
X108557027Y-191332885D01*
X108701225Y-191422238D01*
X108853616Y-191516436D01*
X108988600Y-191600014D01*
X109136186Y-191691961D01*
X109274200Y-191778535D01*
X109399948Y-191858017D01*
X109510737Y-191928687D01*
X109603872Y-191988827D01*
X109676661Y-192036717D01*
X109726410Y-192070637D01*
X109750426Y-192088870D01*
X109783142Y-192127122D01*
X109823241Y-192186129D01*
X109858759Y-192249649D01*
X109872196Y-192277508D01*
X109893393Y-192328416D01*
X109905365Y-192375563D01*
X109906152Y-192383870D01*
X109910647Y-192431302D01*
X109911773Y-192507982D01*
X109911490Y-192549321D01*
X109908605Y-192613258D01*
X109900551Y-192661665D01*
X109884835Y-192706402D01*
X109858965Y-192759333D01*
X109829606Y-192809141D01*
X109785003Y-192871160D01*
X109742475Y-192917930D01*
X109723357Y-192932469D01*
X109676381Y-192964631D01*
X109605976Y-193011012D01*
X109514887Y-193069864D01*
X109405860Y-193139435D01*
X109281641Y-193217976D01*
X109144974Y-193303736D01*
X108998606Y-193394964D01*
X108845282Y-193489911D01*
X108711713Y-193572440D01*
X108567149Y-193661956D01*
X108433032Y-193745205D01*
X108311925Y-193820587D01*
X108206391Y-193886501D01*
X108118993Y-193941345D01*
X108052293Y-193983519D01*
X108008854Y-194011421D01*
X107991239Y-194023452D01*
X107989915Y-194025020D01*
X107979964Y-194053321D01*
X107968846Y-194108701D01*
X107957495Y-194185778D01*
X107946845Y-194279175D01*
X107923160Y-194515741D01*
X108050888Y-194638468D01*
X108054883Y-194642299D01*
X108095752Y-194681117D01*
X108157656Y-194739499D01*
X108237659Y-194814693D01*
X108332823Y-194903947D01*
X108440214Y-195004509D01*
X108556892Y-195113626D01*
X108679924Y-195228546D01*
X108806371Y-195346517D01*
X108880430Y-195415599D01*
X109009729Y-195536449D01*
X109117793Y-195637975D01*
X109206773Y-195722374D01*
X109278820Y-195791845D01*
X109336085Y-195848584D01*
X109380719Y-195894789D01*
X109414872Y-195932659D01*
X109440697Y-195964392D01*
X109460343Y-195992184D01*
X109475962Y-196018234D01*
X109489704Y-196044740D01*
X109492163Y-196049748D01*
X109520336Y-196111708D01*
X109536247Y-196162828D01*
X109543149Y-196217801D01*
X109544294Y-196291320D01*
X109543850Y-196319594D01*
X109538539Y-196394717D01*
X109525165Y-196455817D01*
X109500943Y-196517427D01*
X109460605Y-196592648D01*
X109382438Y-196694255D01*
X109290884Y-196770194D01*
X109290877Y-196770199D01*
X109264655Y-196782838D01*
X109210120Y-196805994D01*
X109130181Y-196838526D01*
X109027749Y-196879292D01*
X108905737Y-196927150D01*
X108767054Y-196980959D01*
X108614613Y-197039575D01*
X108451323Y-197101858D01*
X108280097Y-197166666D01*
X107329711Y-197525000D01*
X107257627Y-197761427D01*
X107185544Y-197997854D01*
X107777785Y-198819760D01*
X107887946Y-198973091D01*
X108014118Y-199150055D01*
X108123757Y-199305481D01*
X108216277Y-199438518D01*
X108291094Y-199548318D01*
X108347625Y-199634030D01*
X108385284Y-199694804D01*
X108403488Y-199729791D01*
X108430641Y-199828259D01*
X108438457Y-199959892D01*
X108416253Y-200090069D01*
X108365199Y-200212865D01*
X108286464Y-200322357D01*
X108279837Y-200329599D01*
X108252463Y-200358746D01*
X108225805Y-200384277D01*
X108197277Y-200406878D01*
X108164291Y-200427237D01*
X108124261Y-200446039D01*
X108074602Y-200463972D01*
X108012726Y-200481722D01*
X107936048Y-200499976D01*
X107841981Y-200519421D01*
X107727938Y-200540743D01*
X107591333Y-200564629D01*
X107429580Y-200591766D01*
X107240092Y-200622841D01*
X107020282Y-200658539D01*
X106842424Y-200687646D01*
X106674086Y-200715710D01*
X106518295Y-200742195D01*
X106377961Y-200766580D01*
X106255997Y-200788347D01*
X106155312Y-200806975D01*
X106078818Y-200821945D01*
X106029424Y-200832738D01*
X106010043Y-200838835D01*
X106007979Y-200841357D01*
X105990672Y-200868727D01*
X105962353Y-200918227D01*
X105926454Y-200983745D01*
X105886404Y-201059168D01*
X105885437Y-201061016D01*
X105781339Y-201260004D01*
X106201338Y-202181642D01*
X106275192Y-202344387D01*
X106347244Y-202504531D01*
X106414254Y-202654836D01*
X106474950Y-202792384D01*
X106528060Y-202914253D01*
X106572312Y-203017525D01*
X106606434Y-203099280D01*
X106629154Y-203156599D01*
X106639199Y-203186562D01*
X106649911Y-203288702D01*
X106635212Y-203413201D01*
X106592809Y-203533026D01*
X106525527Y-203642540D01*
X106436192Y-203736108D01*
X106327629Y-203808094D01*
X106267023Y-203834720D01*
X106194736Y-203853703D01*
X106106066Y-203863053D01*
X106101471Y-203863270D01*
X106056595Y-203863806D01*
X105983091Y-203863220D01*
X105884949Y-203861631D01*
X105766155Y-203859159D01*
X105630698Y-203855920D01*
X105482565Y-203852035D01*
X105325744Y-203847620D01*
X105164223Y-203842796D01*
X105001990Y-203837680D01*
X104843032Y-203832391D01*
X104691337Y-203827048D01*
X104550894Y-203821769D01*
X104425690Y-203816672D01*
X104319712Y-203811876D01*
X104236949Y-203807500D01*
X104078616Y-203798142D01*
X103945282Y-203960807D01*
X103942854Y-203963770D01*
X103890070Y-204028454D01*
X103843674Y-204085799D01*
X103808601Y-204129675D01*
X103789786Y-204153952D01*
X103787327Y-204158763D01*
X103785004Y-204172595D01*
X103785624Y-204195321D01*
X103789674Y-204229294D01*
X103797641Y-204276864D01*
X103810012Y-204340381D01*
X103827274Y-204422198D01*
X103849915Y-204524664D01*
X103878420Y-204650132D01*
X103903721Y-204759603D01*
X103913277Y-204800951D01*
X103954974Y-204979473D01*
X104003996Y-205188049D01*
X104007391Y-205202464D01*
X104055822Y-205408509D01*
X104097044Y-205584914D01*
X104131591Y-205734282D01*
X104159996Y-205859219D01*
X104182794Y-205962328D01*
X104200517Y-206046213D01*
X104213700Y-206113479D01*
X104222876Y-206166729D01*
X104228579Y-206208569D01*
X104231344Y-206241602D01*
X104231703Y-206268433D01*
X104230190Y-206291666D01*
X104217404Y-206365068D01*
X104171246Y-206488543D01*
X104098510Y-206599975D01*
X104003426Y-206693498D01*
X103890224Y-206763245D01*
X103858342Y-206777432D01*
X103822892Y-206790877D01*
X103786340Y-206800857D01*
X103746079Y-206807006D01*
X103699502Y-206808958D01*
X103644001Y-206806346D01*
X103576968Y-206798805D01*
X103495795Y-206785968D01*
X103397876Y-206767468D01*
X103280601Y-206742939D01*
X103141364Y-206712016D01*
X102977556Y-206674332D01*
X102786570Y-206629520D01*
X102565799Y-206577214D01*
X102538756Y-206570793D01*
X102337905Y-206523239D01*
X102166776Y-206483030D01*
X102023001Y-206449671D01*
X101904212Y-206422668D01*
X101808041Y-206401527D01*
X101732120Y-206385754D01*
X101674080Y-206374855D01*
X101631553Y-206368335D01*
X101602171Y-206365700D01*
X101583565Y-206366457D01*
X101573369Y-206370110D01*
X101572733Y-206370576D01*
X101547675Y-206390052D01*
X101503257Y-206425545D01*
X101445567Y-206472160D01*
X101380697Y-206525000D01*
X101217638Y-206658333D01*
X101227407Y-206850000D01*
X101230326Y-206909647D01*
X101235668Y-207029466D01*
X101241224Y-207165880D01*
X101246879Y-207315051D01*
X101252518Y-207473141D01*
X101258026Y-207636310D01*
X101263288Y-207800719D01*
X101268189Y-207962531D01*
X101272615Y-208117905D01*
X101276450Y-208263004D01*
X101279581Y-208393987D01*
X101281891Y-208507018D01*
X101283266Y-208598256D01*
X101283592Y-208663863D01*
X101282753Y-208700000D01*
X101270864Y-208780008D01*
X101228596Y-208899982D01*
X101161537Y-209006305D01*
X101073976Y-209095698D01*
X100970201Y-209164883D01*
X100854502Y-209210582D01*
X100731167Y-209229517D01*
X100604485Y-209218410D01*
X100575658Y-209208862D01*
X100518833Y-209186486D01*
X100437490Y-209152671D01*
X100334562Y-209108692D01*
X100212981Y-209055824D01*
X100075678Y-208995343D01*
X99925586Y-208928524D01*
X99765637Y-208856642D01*
X99598764Y-208780972D01*
X98678685Y-208361902D01*
X98478651Y-208466544D01*
X98461443Y-208475576D01*
X98387833Y-208514927D01*
X98325488Y-208549368D01*
X98280536Y-208575459D01*
X98259106Y-208589760D01*
X98253019Y-208609113D01*
X98242238Y-208658485D01*
X98227286Y-208734962D01*
X98208682Y-208835632D01*
X98186945Y-208957584D01*
X98162594Y-209097908D01*
X98136146Y-209253692D01*
X98108122Y-209422027D01*
X98079040Y-209600000D01*
X98052465Y-209763812D01*
X98022220Y-209948950D01*
X97996235Y-210105921D01*
X97973993Y-210237413D01*
X97954978Y-210346116D01*
X97938674Y-210434718D01*
X97924564Y-210505906D01*
X97912133Y-210562370D01*
X97900865Y-210606798D01*
X97890243Y-210641877D01*
X97879751Y-210670297D01*
X97868873Y-210694746D01*
X97845114Y-210738619D01*
X97766396Y-210841427D01*
X97667753Y-210925642D01*
X97556976Y-210984036D01*
X97503471Y-210999920D01*
X97400814Y-211014269D01*
X97292405Y-211013562D01*
X97190270Y-210998211D01*
X97106440Y-210968628D01*
X97083518Y-210954522D01*
X97034865Y-210921968D01*
X96964220Y-210873367D01*
X96874202Y-210810562D01*
X96767428Y-210735397D01*
X96646519Y-210649716D01*
X96514091Y-210555363D01*
X96372764Y-210454182D01*
X96225156Y-210348017D01*
X95416048Y-209764749D01*
X95183756Y-209835480D01*
X95099896Y-209862062D01*
X95015174Y-209892302D01*
X94960016Y-209916889D01*
X94935946Y-209935207D01*
X94930487Y-209948072D01*
X94913869Y-209990393D01*
X94887547Y-210058887D01*
X94852613Y-210150669D01*
X94810158Y-210262851D01*
X94761274Y-210392550D01*
X94707053Y-210536878D01*
X94648586Y-210692949D01*
X94586964Y-210857879D01*
X94542544Y-210976711D01*
X94481955Y-211138107D01*
X94424755Y-211289691D01*
X94372116Y-211428400D01*
X94325209Y-211551170D01*
X94285207Y-211654940D01*
X94253280Y-211736645D01*
X94230600Y-211793223D01*
X94218339Y-211821611D01*
X94172551Y-211891931D01*
X94098651Y-211970651D01*
X94012057Y-212038277D01*
X93923420Y-212085285D01*
X93886314Y-212098266D01*
X93753254Y-212123095D01*
X93618473Y-212117059D01*
X93488202Y-212080940D01*
X93368676Y-212015522D01*
X93368642Y-212015498D01*
X93348384Y-211997032D01*
X93307581Y-211956390D01*
X93248369Y-211895808D01*
X93172884Y-211817519D01*
X93083262Y-211723760D01*
X92981641Y-211616766D01*
X92870155Y-211498770D01*
X92750942Y-211372008D01*
X92626139Y-211238715D01*
X91933741Y-210497612D01*
X91872845Y-210506864D01*
X91849455Y-210510088D01*
X91791427Y-210517175D01*
X91717126Y-210525585D01*
X91636949Y-210534117D01*
X91582254Y-210540610D01*
X91515735Y-210551127D01*
X91466686Y-210562067D01*
X91442985Y-210571893D01*
X91434872Y-210583447D01*
X91410210Y-210621498D01*
X91370976Y-210683313D01*
X91318787Y-210766303D01*
X91255260Y-210867881D01*
X91182014Y-210985460D01*
X91100664Y-211116454D01*
X91012828Y-211258273D01*
X90920125Y-211408333D01*
X90849863Y-211522096D01*
X90759385Y-211668265D01*
X90674424Y-211805153D01*
X90596689Y-211930029D01*
X90527884Y-212040164D01*
X90469717Y-212132827D01*
X90423894Y-212205289D01*
X90392122Y-212254818D01*
X90376108Y-212278685D01*
X90344084Y-212316782D01*
X90249177Y-212395434D01*
X90124779Y-212460669D01*
X90081548Y-212477538D01*
X90029004Y-212491485D01*
X89971612Y-212496663D01*
X89895282Y-212495190D01*
X89840584Y-212490726D01*
X89709123Y-212460167D01*
X89595382Y-212401846D01*
X89497865Y-212315085D01*
X89481481Y-212293710D01*
X89447170Y-212244067D01*
X89398739Y-212171087D01*
X89337979Y-212077566D01*
X89266682Y-211966303D01*
X89186639Y-211840098D01*
X89099642Y-211701747D01*
X89007481Y-211554050D01*
X88911949Y-211399804D01*
X88826205Y-211261131D01*
X88736918Y-211117366D01*
X88653993Y-210984500D01*
X88579012Y-210865034D01*
X88513555Y-210761472D01*
X88459206Y-210676313D01*
X88417545Y-210612060D01*
X88390154Y-210571215D01*
X88378616Y-210556279D01*
X88355759Y-210551230D01*
X88306997Y-210544297D01*
X88240985Y-210536726D01*
X88164918Y-210529148D01*
X88085991Y-210522192D01*
X88011402Y-210516487D01*
X87948345Y-210512662D01*
X87904016Y-210511346D01*
X87885612Y-210513169D01*
X87885501Y-210513297D01*
X87871626Y-210528380D01*
X87837100Y-210565605D01*
X87783914Y-210622836D01*
X87714057Y-210697935D01*
X87629516Y-210788766D01*
X87532282Y-210893192D01*
X87424343Y-211009075D01*
X87307688Y-211134279D01*
X87184305Y-211266666D01*
X87054224Y-211405991D01*
X86919431Y-211549674D01*
X86804109Y-211671671D01*
X86706661Y-211773601D01*
X86625491Y-211857085D01*
X86559004Y-211923741D01*
X86505604Y-211975190D01*
X86463694Y-212013051D01*
X86431678Y-212038944D01*
X86407960Y-212054488D01*
X86312001Y-212095995D01*
X86184190Y-212122835D01*
X86056081Y-212121064D01*
X85932744Y-212092005D01*
X85819250Y-212036983D01*
X85720668Y-211957324D01*
X85642069Y-211854353D01*
X85630038Y-211829217D01*
X85606776Y-211774468D01*
X85574131Y-211694205D01*
X85533274Y-211591425D01*
X85485379Y-211469124D01*
X85431619Y-211330300D01*
X85373165Y-211177949D01*
X85311192Y-211015067D01*
X85246873Y-210844651D01*
X84895282Y-209909358D01*
X84658320Y-209837762D01*
X84421357Y-209766167D01*
X83599987Y-210358071D01*
X83453120Y-210463613D01*
X83274255Y-210591197D01*
X83117420Y-210701877D01*
X82983381Y-210795129D01*
X82872904Y-210870425D01*
X82786753Y-210927239D01*
X82725693Y-210965047D01*
X82690491Y-210983321D01*
X82592462Y-211010308D01*
X82460663Y-211018179D01*
X82330362Y-210996002D01*
X82207477Y-210944946D01*
X82097925Y-210866181D01*
X82090708Y-210859577D01*
X82061560Y-210832203D01*
X82036028Y-210805544D01*
X82013424Y-210777013D01*
X81993061Y-210744025D01*
X81974251Y-210703993D01*
X81956308Y-210654331D01*
X81938544Y-210592453D01*
X81920273Y-210515771D01*
X81900806Y-210421701D01*
X81879458Y-210307656D01*
X81855540Y-210171050D01*
X81828365Y-210009296D01*
X81797247Y-209819808D01*
X81761498Y-209600000D01*
X81752021Y-209541676D01*
X81719223Y-209340753D01*
X81691004Y-209169747D01*
X81666909Y-209026273D01*
X81646485Y-208907945D01*
X81629277Y-208812377D01*
X81614834Y-208737184D01*
X81602700Y-208679979D01*
X81592423Y-208638377D01*
X81583548Y-208609993D01*
X81575622Y-208592440D01*
X81568191Y-208583333D01*
X81567316Y-208582670D01*
X81538897Y-208564748D01*
X81488153Y-208535748D01*
X81422001Y-208499533D01*
X81347358Y-208459968D01*
X81158807Y-208361603D01*
X80237534Y-208781409D01*
X80075077Y-208855129D01*
X79914975Y-208927161D01*
X79764717Y-208994152D01*
X79627222Y-209054830D01*
X79505408Y-209107922D01*
X79402196Y-209152156D01*
X79320502Y-209186261D01*
X79263247Y-209208965D01*
X79233350Y-209218995D01*
X79218675Y-209221885D01*
X79096817Y-209227826D01*
X78974390Y-209204800D01*
X78857414Y-209155970D01*
X78751914Y-209084496D01*
X78663911Y-208993539D01*
X78599427Y-208886261D01*
X78585286Y-208846930D01*
X78567411Y-208771030D01*
X78557365Y-208691666D01*
X78557114Y-208686727D01*
X78556568Y-208642978D01*
X78557139Y-208570649D01*
X78558711Y-208473685D01*
X78561166Y-208356034D01*
X78564387Y-208221640D01*
X78568256Y-208074449D01*
X78572655Y-207918409D01*
X78577469Y-207757464D01*
X78582578Y-207595561D01*
X78587866Y-207436646D01*
X78593216Y-207284665D01*
X78598509Y-207143563D01*
X78603630Y-207017288D01*
X78608459Y-206909785D01*
X78612881Y-206825000D01*
X78622539Y-206658333D01*
X78459675Y-206525000D01*
X78456591Y-206522475D01*
X78391873Y-206469726D01*
X78334521Y-206423373D01*
X78290662Y-206388344D01*
X78266419Y-206369565D01*
X78261813Y-206367191D01*
X78248072Y-206364843D01*
X78225403Y-206365446D01*
X78191461Y-206369486D01*
X78143896Y-206377449D01*
X78080362Y-206389823D01*
X77998511Y-206407093D01*
X77895994Y-206429748D01*
X77770464Y-206458273D01*
X77619574Y-206493155D01*
X77440976Y-206534882D01*
X77232322Y-206583938D01*
X77228586Y-206584818D01*
X77020912Y-206633657D01*
X76843009Y-206675253D01*
X76692281Y-206710140D01*
X76566130Y-206738851D01*
X76461959Y-206761920D01*
X76377171Y-206779879D01*
X76309168Y-206793261D01*
X76255355Y-206802599D01*
X76213133Y-206808427D01*
X76179906Y-206811277D01*
X76153077Y-206811682D01*
X76130048Y-206810176D01*
X76001983Y-206781872D01*
X75882585Y-206724814D01*
X75779843Y-206643268D01*
X75697611Y-206541088D01*
X75639741Y-206422126D01*
X75610087Y-206290234D01*
X75610047Y-206289847D01*
X75608565Y-206266775D01*
X75609004Y-206239852D01*
X75611894Y-206206481D01*
X75617769Y-206164067D01*
X75627159Y-206110011D01*
X75640598Y-206041719D01*
X75658618Y-205956592D01*
X75681750Y-205852034D01*
X75710526Y-205725449D01*
X75745479Y-205574240D01*
X75787142Y-205395809D01*
X75836045Y-205187562D01*
X75859207Y-205089018D01*
X75904898Y-204893879D01*
X75943477Y-204727755D01*
X75943496Y-204727672D01*
X80005142Y-204727672D01*
X80007771Y-204823962D01*
X80018068Y-204945927D01*
X80056678Y-205133004D01*
X80123278Y-205303917D01*
X80219148Y-205461647D01*
X80345572Y-205609173D01*
X80385962Y-205648148D01*
X80542182Y-205770054D01*
X80717203Y-205864737D01*
X80911949Y-205932725D01*
X80988110Y-205947031D01*
X81089657Y-205956208D01*
X81199724Y-205958795D01*
X81305777Y-205954524D01*
X81395282Y-205943125D01*
X81526393Y-205910503D01*
X81710834Y-205837688D01*
X81876733Y-205737997D01*
X82022466Y-205612907D01*
X82146411Y-205463894D01*
X82246945Y-205292433D01*
X82322446Y-205100000D01*
X82322735Y-205099062D01*
X82341603Y-205029308D01*
X82353342Y-204961175D01*
X82359368Y-204883053D01*
X82361101Y-204783333D01*
X82360090Y-204712266D01*
X82350472Y-204585524D01*
X82328274Y-204472079D01*
X82290553Y-204359185D01*
X82234370Y-204234095D01*
X82230669Y-204226592D01*
X82191244Y-204153631D01*
X82148336Y-204090035D01*
X82094417Y-204025760D01*
X82021955Y-203950762D01*
X82015598Y-203944467D01*
X81905482Y-203843563D01*
X81801395Y-203766105D01*
X81694476Y-203706282D01*
X81575859Y-203658284D01*
X81476525Y-203628533D01*
X81286237Y-203596042D01*
X81098369Y-203594385D01*
X80915856Y-203621959D01*
X80741633Y-203677164D01*
X80578637Y-203758398D01*
X80429801Y-203864060D01*
X80298063Y-203992548D01*
X80186356Y-204142262D01*
X80097617Y-204311601D01*
X80034780Y-204498962D01*
X80032768Y-204507087D01*
X80016558Y-204582252D01*
X80007710Y-204651441D01*
X80005142Y-204727672D01*
X75943496Y-204727672D01*
X75975428Y-204588315D01*
X76001234Y-204473224D01*
X76021378Y-204380152D01*
X76036345Y-204306764D01*
X76046617Y-204250729D01*
X76052679Y-204209714D01*
X76055014Y-204181387D01*
X76054106Y-204163415D01*
X76050438Y-204153464D01*
X76050006Y-204152875D01*
X76030475Y-204127760D01*
X75994897Y-204083305D01*
X75948194Y-204025618D01*
X75895282Y-203960807D01*
X75761949Y-203798142D01*
X75603616Y-203807500D01*
X75589887Y-203808292D01*
X75502639Y-203812745D01*
X75392952Y-203817596D01*
X75264810Y-203822727D01*
X75122192Y-203828020D01*
X74969083Y-203833356D01*
X74809463Y-203838616D01*
X74647315Y-203843683D01*
X74486621Y-203848437D01*
X74331362Y-203852761D01*
X74185521Y-203856535D01*
X74053080Y-203859642D01*
X73938020Y-203861963D01*
X73844323Y-203863379D01*
X73775972Y-203863772D01*
X73736949Y-203863024D01*
X73698400Y-203859778D01*
X73607247Y-203844379D01*
X73534021Y-203820978D01*
X73520848Y-203814881D01*
X73415045Y-203747079D01*
X73326077Y-203656504D01*
X73257088Y-203549151D01*
X73211218Y-203431016D01*
X73191610Y-203308093D01*
X73201406Y-203186377D01*
X73211028Y-203157525D01*
X73233437Y-203100849D01*
X73267281Y-203019662D01*
X73311286Y-202916884D01*
X73364180Y-202795436D01*
X73424692Y-202658238D01*
X73491549Y-202508210D01*
X73563479Y-202348274D01*
X73639209Y-202181349D01*
X74059112Y-201259788D01*
X73954104Y-201059060D01*
X73947761Y-201046979D01*
X78153615Y-201046979D01*
X78155090Y-201050180D01*
X78172028Y-201074889D01*
X78205340Y-201119917D01*
X78251807Y-201181120D01*
X78308210Y-201254355D01*
X78371332Y-201335479D01*
X78437956Y-201420348D01*
X78504862Y-201504821D01*
X78568833Y-201584753D01*
X78626652Y-201656002D01*
X78691474Y-201733951D01*
X78778403Y-201836023D01*
X78874495Y-201946826D01*
X78975380Y-202061466D01*
X79076687Y-202175047D01*
X79174048Y-202282675D01*
X79263091Y-202379453D01*
X79339448Y-202460488D01*
X79398747Y-202520884D01*
X79496353Y-202616769D01*
X80776900Y-202341656D01*
X80818924Y-202332635D01*
X81022033Y-202289252D01*
X81217321Y-202247885D01*
X81402037Y-202209099D01*
X81573431Y-202173455D01*
X81728754Y-202141515D01*
X81865254Y-202113843D01*
X81980182Y-202091001D01*
X82070788Y-202073552D01*
X82134321Y-202062058D01*
X82168031Y-202057082D01*
X82198034Y-202055028D01*
X82369236Y-202062208D01*
X82538011Y-202099665D01*
X82700039Y-202164888D01*
X82850999Y-202255370D01*
X82986571Y-202368598D01*
X83102435Y-202502065D01*
X83194270Y-202653260D01*
X83206678Y-202678783D01*
X83219077Y-202705735D01*
X83230927Y-202734152D01*
X83242763Y-202766256D01*
X83255122Y-202804273D01*
X83268539Y-202850426D01*
X83283551Y-202906940D01*
X83300694Y-202976037D01*
X83320504Y-203059942D01*
X83343516Y-203160879D01*
X83370268Y-203281072D01*
X83401296Y-203422744D01*
X83437134Y-203588121D01*
X83478320Y-203779425D01*
X83525390Y-203998880D01*
X83578880Y-204248711D01*
X83621004Y-204445386D01*
X83664997Y-204650459D01*
X83693551Y-204783333D01*
X83706568Y-204843909D01*
X83745214Y-205023405D01*
X83780430Y-205186617D01*
X83811711Y-205331213D01*
X83838554Y-205454863D01*
X83860455Y-205555237D01*
X83876908Y-205630004D01*
X83887410Y-205676834D01*
X83891456Y-205693396D01*
X83894689Y-205695560D01*
X83922951Y-205709488D01*
X83975415Y-205733149D01*
X84047118Y-205764440D01*
X84133096Y-205801261D01*
X84228386Y-205841511D01*
X84328023Y-205883087D01*
X84427044Y-205923889D01*
X84520484Y-205961816D01*
X84603380Y-205994766D01*
X84665378Y-206018873D01*
X85225273Y-206220982D01*
X85800060Y-206401431D01*
X86385119Y-206559256D01*
X86975830Y-206693494D01*
X87567576Y-206803182D01*
X88155738Y-206887354D01*
X88735695Y-206945048D01*
X89302830Y-206975300D01*
X89358295Y-206976901D01*
X89476381Y-206980279D01*
X89594625Y-206983623D01*
X89701867Y-206986620D01*
X89786949Y-206988955D01*
X89791647Y-206989080D01*
X90006758Y-206991355D01*
X90247119Y-206987948D01*
X90505376Y-206979229D01*
X90774175Y-206965572D01*
X91046162Y-206947349D01*
X91313982Y-206924932D01*
X91570282Y-206898692D01*
X91612463Y-206893862D01*
X92255932Y-206804234D01*
X92899045Y-206685163D01*
X93537815Y-206537749D01*
X94168260Y-206363088D01*
X94786394Y-206162279D01*
X95388233Y-205936418D01*
X95969793Y-205686605D01*
X96077637Y-205637152D01*
X96290578Y-204644225D01*
X97605190Y-204644225D01*
X97607247Y-204801167D01*
X97625944Y-204954615D01*
X97660606Y-205091506D01*
X97663684Y-205100418D01*
X97744962Y-205284995D01*
X97851847Y-205449223D01*
X97982426Y-205591327D01*
X98134784Y-205709533D01*
X98307007Y-205802066D01*
X98497183Y-205867152D01*
X98511214Y-205870598D01*
X98648945Y-205892696D01*
X98799621Y-205899353D01*
X98949071Y-205890587D01*
X99083124Y-205866415D01*
X99116966Y-205857014D01*
X99296724Y-205787274D01*
X99461465Y-205687941D01*
X99611949Y-205558572D01*
X99694778Y-205469820D01*
X99779193Y-205360282D01*
X99844118Y-205247457D01*
X99895725Y-205121852D01*
X99942076Y-204951811D01*
X99964997Y-204759603D01*
X99957034Y-204570221D01*
X99918051Y-204388175D01*
X99861146Y-204235581D01*
X99766210Y-204060545D01*
X99646654Y-203907886D01*
X99502981Y-203778122D01*
X99335690Y-203671769D01*
X99145282Y-203589345D01*
X99112901Y-203578319D01*
X99059699Y-203562434D01*
X99009611Y-203552155D01*
X98953530Y-203546312D01*
X98882345Y-203543732D01*
X98786949Y-203543242D01*
X98762146Y-203543312D01*
X98670820Y-203544648D01*
X98601539Y-203548490D01*
X98545124Y-203555957D01*
X98492395Y-203568169D01*
X98434172Y-203586245D01*
X98354799Y-203615723D01*
X98178717Y-203704536D01*
X98021050Y-203817893D01*
X97884468Y-203952902D01*
X97771643Y-204106671D01*
X97685246Y-204276308D01*
X97627949Y-204458922D01*
X97620447Y-204496850D01*
X97605190Y-204644225D01*
X96290578Y-204644225D01*
X96388646Y-204186942D01*
X96405102Y-204110230D01*
X96457795Y-203865011D01*
X96504254Y-203649646D01*
X96544984Y-203461993D01*
X96580491Y-203299910D01*
X96611279Y-203161255D01*
X96637853Y-203043886D01*
X96660719Y-202945661D01*
X96680379Y-202864439D01*
X96697341Y-202798076D01*
X96712107Y-202744432D01*
X96725184Y-202701364D01*
X96737076Y-202666731D01*
X96748288Y-202638390D01*
X96759324Y-202614199D01*
X96809652Y-202521702D01*
X96920136Y-202369493D01*
X97051907Y-202241133D01*
X97202219Y-202138345D01*
X97368327Y-202062853D01*
X97547486Y-202016380D01*
X97736949Y-202000649D01*
X97755369Y-202000982D01*
X97789384Y-202003047D01*
X97830591Y-202007391D01*
X97881295Y-202014461D01*
X97943802Y-202024706D01*
X98020416Y-202038576D01*
X98113440Y-202056519D01*
X98225181Y-202078982D01*
X98357942Y-202106416D01*
X98514028Y-202139269D01*
X98695744Y-202177989D01*
X98905394Y-202223025D01*
X99145282Y-202274826D01*
X100411949Y-202548847D01*
X100560413Y-202395256D01*
X100565384Y-202390108D01*
X100697676Y-202249418D01*
X100842400Y-202089264D01*
X100993021Y-201917112D01*
X101143005Y-201740424D01*
X101285817Y-201566666D01*
X101365343Y-201467550D01*
X101449686Y-201361007D01*
X101523447Y-201266261D01*
X101584508Y-201186101D01*
X101630747Y-201123314D01*
X101660045Y-201080690D01*
X101670282Y-201061016D01*
X101670099Y-201060930D01*
X101650201Y-201060116D01*
X101598265Y-201059318D01*
X101515464Y-201058539D01*
X101402972Y-201057779D01*
X101261961Y-201057042D01*
X101093603Y-201056329D01*
X100899073Y-201055643D01*
X100679542Y-201054985D01*
X100436184Y-201054359D01*
X100170171Y-201053765D01*
X99882676Y-201053207D01*
X99574873Y-201052686D01*
X99247933Y-201052205D01*
X98903030Y-201051765D01*
X98541337Y-201051368D01*
X98164027Y-201051018D01*
X97772272Y-201050716D01*
X97367245Y-201050464D01*
X96950120Y-201050264D01*
X96522068Y-201050118D01*
X96084263Y-201050030D01*
X95637879Y-201050000D01*
X89605475Y-201050000D01*
X89558712Y-201009776D01*
X89511949Y-200969552D01*
X89511949Y-198793572D01*
X89511949Y-196617592D01*
X89549909Y-196579629D01*
X89587870Y-196541666D01*
X91408243Y-196533333D01*
X93228616Y-196525000D01*
X93232882Y-195186815D01*
X93237148Y-193848631D01*
X91207882Y-193854355D01*
X89178616Y-193860078D01*
X89011949Y-193897799D01*
X88940572Y-193914662D01*
X88730063Y-193974615D01*
X88540239Y-194046513D01*
X88362026Y-194134133D01*
X88186350Y-194241248D01*
X88032603Y-194353559D01*
X87832340Y-194534935D01*
X87652690Y-194742216D01*
X87493881Y-194975053D01*
X87356142Y-195233098D01*
X87239705Y-195516001D01*
X87144797Y-195823415D01*
X87143052Y-195830124D01*
X87127141Y-195895383D01*
X87105704Y-195988547D01*
X87079648Y-196105429D01*
X87049879Y-196241842D01*
X87017305Y-196393600D01*
X86982831Y-196556515D01*
X86947366Y-196726401D01*
X86911815Y-196899070D01*
X86890467Y-197003415D01*
X86830469Y-197295191D01*
X86775999Y-197557228D01*
X86726466Y-197791767D01*
X86681276Y-198001048D01*
X86639839Y-198187315D01*
X86601562Y-198352808D01*
X86565853Y-198499769D01*
X86532120Y-198630440D01*
X86499772Y-198747061D01*
X86468216Y-198851875D01*
X86436860Y-198947124D01*
X86405113Y-199035048D01*
X86372383Y-199117889D01*
X86338077Y-199197889D01*
X86301604Y-199277290D01*
X86262372Y-199358333D01*
X86133407Y-199599752D01*
X85976757Y-199851509D01*
X85806750Y-200086756D01*
X85625928Y-200302697D01*
X85436830Y-200496539D01*
X85241996Y-200665486D01*
X85043967Y-200806742D01*
X84845282Y-200917514D01*
X84833751Y-200923082D01*
X84802880Y-200938547D01*
X84775335Y-200952728D01*
X84749650Y-200965678D01*
X84724357Y-200977450D01*
X84697992Y-200988099D01*
X84669086Y-200997676D01*
X84636175Y-201006236D01*
X84597791Y-201013832D01*
X84552468Y-201020517D01*
X84498740Y-201026345D01*
X84435141Y-201031368D01*
X84360204Y-201035641D01*
X84272463Y-201039216D01*
X84170451Y-201042148D01*
X84052702Y-201044488D01*
X83917750Y-201046291D01*
X83764129Y-201047611D01*
X83590371Y-201048499D01*
X83395011Y-201049010D01*
X83176582Y-201049197D01*
X82933618Y-201049113D01*
X82664653Y-201048812D01*
X82368219Y-201048347D01*
X82042852Y-201047772D01*
X81687084Y-201047139D01*
X81299449Y-201046502D01*
X80990031Y-201046052D01*
X80677503Y-201045651D01*
X80375571Y-201045317D01*
X80085859Y-201045050D01*
X79809990Y-201044850D01*
X79549589Y-201044716D01*
X79306280Y-201044648D01*
X79081687Y-201044647D01*
X78877434Y-201044711D01*
X78695145Y-201044840D01*
X78536445Y-201045035D01*
X78402957Y-201045295D01*
X78296306Y-201045619D01*
X78218116Y-201046008D01*
X78170011Y-201046462D01*
X78153615Y-201046979D01*
X73947761Y-201046979D01*
X73944734Y-201041213D01*
X73905347Y-200967570D01*
X73870895Y-200905258D01*
X73844810Y-200860383D01*
X73830522Y-200839053D01*
X73811329Y-200833045D01*
X73762090Y-200822324D01*
X73685737Y-200807428D01*
X73585181Y-200788875D01*
X73463336Y-200767185D01*
X73323113Y-200742875D01*
X73167426Y-200716463D01*
X72999186Y-200688469D01*
X72821307Y-200659411D01*
X72768719Y-200650897D01*
X72556005Y-200616363D01*
X72373024Y-200586285D01*
X72217188Y-200559976D01*
X72085908Y-200536747D01*
X71976594Y-200515910D01*
X71886659Y-200496774D01*
X71813512Y-200478654D01*
X71754565Y-200460858D01*
X71707229Y-200442699D01*
X71668915Y-200423489D01*
X71637034Y-200402538D01*
X71608997Y-200379158D01*
X71582216Y-200352661D01*
X71554101Y-200322357D01*
X71491155Y-200239584D01*
X71433596Y-200119337D01*
X71404617Y-199990341D01*
X71405387Y-199858517D01*
X71437077Y-199729791D01*
X71449691Y-199704557D01*
X71483205Y-199649271D01*
X71535716Y-199568864D01*
X71606640Y-199464186D01*
X71695393Y-199336087D01*
X71801390Y-199185417D01*
X71924047Y-199013024D01*
X72062780Y-198819760D01*
X72655021Y-197997854D01*
X72582988Y-197761427D01*
X72510954Y-197525000D01*
X71556691Y-197166666D01*
X71388597Y-197103488D01*
X71203658Y-197033677D01*
X71045619Y-196973412D01*
X70912065Y-196921541D01*
X70800578Y-196876909D01*
X70708740Y-196838365D01*
X70634134Y-196804754D01*
X70574343Y-196774925D01*
X70526950Y-196747722D01*
X70489537Y-196721995D01*
X70459687Y-196696589D01*
X70434983Y-196670352D01*
X70413007Y-196642129D01*
X70391342Y-196610769D01*
X70359465Y-196557069D01*
X70311772Y-196431862D01*
X70294453Y-196300398D01*
X70307896Y-196168360D01*
X70352487Y-196041432D01*
X70359199Y-196028197D01*
X70372583Y-196004541D01*
X70389234Y-195979547D01*
X70411078Y-195951278D01*
X70440041Y-195917797D01*
X70478048Y-195877164D01*
X70527026Y-195827442D01*
X70588900Y-195766694D01*
X70665596Y-195692981D01*
X70759040Y-195604364D01*
X70871158Y-195498907D01*
X71003876Y-195374671D01*
X71159119Y-195229718D01*
X71176642Y-195213368D01*
X71308863Y-195090027D01*
X71433411Y-194973887D01*
X71548199Y-194866892D01*
X71651139Y-194770984D01*
X71740146Y-194688108D01*
X71813132Y-194620205D01*
X71868012Y-194569218D01*
X71902697Y-194537092D01*
X71915103Y-194525768D01*
X71915464Y-194524448D01*
X71914622Y-194500767D01*
X71910786Y-194452894D01*
X71904707Y-194387912D01*
X71897135Y-194312902D01*
X71888820Y-194234943D01*
X71880511Y-194161117D01*
X71872961Y-194098505D01*
X71866917Y-194054188D01*
X71863132Y-194035246D01*
X71850517Y-194026250D01*
X71811780Y-194001084D01*
X71749430Y-193961445D01*
X71665974Y-193908902D01*
X71563916Y-193845023D01*
X71445764Y-193771375D01*
X71314023Y-193689527D01*
X71171198Y-193601047D01*
X71019797Y-193507503D01*
X70892247Y-193428593D01*
X70743825Y-193336241D01*
X70604455Y-193248955D01*
X70476905Y-193168499D01*
X70363942Y-193096635D01*
X70268336Y-193035125D01*
X70192854Y-192985732D01*
X70140265Y-192950219D01*
X70113336Y-192930348D01*
X70074676Y-192890496D01*
X70026392Y-192828329D01*
X69985735Y-192763682D01*
X69965683Y-192725672D01*
X69945513Y-192679928D01*
X69934369Y-192636264D01*
X69929615Y-192582882D01*
X69928616Y-192507982D01*
X69928839Y-192468084D01*
X69931697Y-192402982D01*
X69939026Y-192358333D01*
X75312385Y-192358333D01*
X75312472Y-192471899D01*
X75313101Y-192632689D01*
X75314270Y-192785864D01*
X75315915Y-192927138D01*
X75317974Y-193052225D01*
X75320384Y-193156839D01*
X75323081Y-193236692D01*
X75326005Y-193287500D01*
X75340060Y-193450000D01*
X76105707Y-193450000D01*
X76166121Y-193450002D01*
X76347100Y-193450143D01*
X76498473Y-193450735D01*
X76623110Y-193452103D01*
X76723878Y-193454570D01*
X76803647Y-193458463D01*
X76865285Y-193464104D01*
X76911661Y-193471819D01*
X76945644Y-193481932D01*
X76970101Y-193494767D01*
X76987902Y-193510650D01*
X77001915Y-193529903D01*
X77015009Y-193552853D01*
X77016502Y-193555657D01*
X77024323Y-193573758D01*
X77030767Y-193597341D01*
X77036048Y-193629887D01*
X77040381Y-193674877D01*
X77043979Y-193735792D01*
X77047057Y-193816114D01*
X77049828Y-193919324D01*
X77052507Y-194048903D01*
X77055308Y-194208333D01*
X77058077Y-194358276D01*
X77062083Y-194519857D01*
X77067144Y-194656214D01*
X77073761Y-194771856D01*
X77082430Y-194871296D01*
X77093649Y-194959043D01*
X77107918Y-195039610D01*
X77125733Y-195117506D01*
X77147593Y-195197244D01*
X77173996Y-195283333D01*
X77230463Y-195439428D01*
X77329800Y-195643975D01*
X77450939Y-195824796D01*
X77594580Y-195982432D01*
X77761426Y-196117427D01*
X77952182Y-196230322D01*
X78167548Y-196321661D01*
X78408228Y-196391985D01*
X78674925Y-196441837D01*
X78686930Y-196443505D01*
X78912113Y-196461144D01*
X79139238Y-196454476D01*
X79363791Y-196424799D01*
X79581256Y-196373415D01*
X79787119Y-196301623D01*
X79976864Y-196210723D01*
X80145977Y-196102016D01*
X80289943Y-195976801D01*
X80291658Y-195975042D01*
X80341821Y-195919847D01*
X80382713Y-195864758D01*
X80416598Y-195804247D01*
X80445741Y-195732789D01*
X80472407Y-195644856D01*
X80498861Y-195534924D01*
X80527368Y-195397465D01*
X80533002Y-195369145D01*
X80617910Y-194977353D01*
X80710262Y-194615729D01*
X80811164Y-194281866D01*
X80921722Y-193973359D01*
X81043041Y-193687802D01*
X81176227Y-193422790D01*
X81322386Y-193175916D01*
X81482623Y-192944775D01*
X81658045Y-192726962D01*
X81849755Y-192520069D01*
X81875232Y-192494546D01*
X81987719Y-192386324D01*
X82114806Y-192270998D01*
X82259773Y-192145715D01*
X82425901Y-192007627D01*
X82616470Y-191853881D01*
X82788604Y-191716666D01*
X99803616Y-191716666D01*
X99803616Y-196383333D01*
X101894159Y-196383333D01*
X101991942Y-196383331D01*
X102289571Y-196383300D01*
X102556111Y-196383208D01*
X102793278Y-196383033D01*
X103002789Y-196382751D01*
X103186363Y-196382337D01*
X103345715Y-196381769D01*
X103482563Y-196381021D01*
X103598624Y-196380071D01*
X103695616Y-196378894D01*
X103775254Y-196377466D01*
X103839257Y-196375765D01*
X103889341Y-196373765D01*
X103927224Y-196371442D01*
X103954622Y-196368774D01*
X103973253Y-196365737D01*
X103984834Y-196362305D01*
X103991081Y-196358456D01*
X103993713Y-196354166D01*
X103999449Y-196333537D01*
X104012409Y-196284794D01*
X104030779Y-196214655D01*
X104053044Y-196128905D01*
X104077690Y-196033333D01*
X104166816Y-195668161D01*
X104301237Y-195020224D01*
X104404916Y-194372032D01*
X104478382Y-193719379D01*
X104522163Y-193058061D01*
X104536788Y-192383870D01*
X104536663Y-192323133D01*
X104534996Y-192157136D01*
X104531546Y-191986872D01*
X104526517Y-191815759D01*
X104520108Y-191647214D01*
X104512523Y-191484656D01*
X104503963Y-191331503D01*
X104494629Y-191191172D01*
X104484723Y-191067082D01*
X104474448Y-190962651D01*
X104464003Y-190881296D01*
X104453592Y-190826435D01*
X104443416Y-190801487D01*
X104439517Y-190799310D01*
X104409721Y-190785111D01*
X104352748Y-190758924D01*
X104270905Y-190721783D01*
X104166496Y-190674722D01*
X104041828Y-190618773D01*
X103899205Y-190554971D01*
X103740934Y-190484350D01*
X103569319Y-190407942D01*
X103386667Y-190326782D01*
X103195282Y-190241904D01*
X103125345Y-190210906D01*
X102933679Y-190125864D01*
X102749838Y-190044160D01*
X102576342Y-189966922D01*
X102415707Y-189895276D01*
X102270451Y-189830348D01*
X102143094Y-189773264D01*
X102036152Y-189725151D01*
X101952143Y-189687136D01*
X101893586Y-189660345D01*
X101862999Y-189645903D01*
X101775687Y-189597144D01*
X101628383Y-189487865D01*
X101503437Y-189358140D01*
X101402373Y-189211535D01*
X101326715Y-189051610D01*
X101277988Y-188881931D01*
X101257717Y-188706061D01*
X101267426Y-188527563D01*
X101308638Y-188350000D01*
X101318989Y-188321114D01*
X101344068Y-188257306D01*
X101379564Y-188170939D01*
X101423538Y-188066601D01*
X101466952Y-187965424D01*
X102971079Y-187965424D01*
X102983069Y-188153749D01*
X103026587Y-188342018D01*
X103065253Y-188445904D01*
X103155581Y-188617085D01*
X103271345Y-188769662D01*
X103409648Y-188901069D01*
X103567592Y-189008739D01*
X103742279Y-189090108D01*
X103930811Y-189142609D01*
X104119529Y-189163708D01*
X104310349Y-189154446D01*
X104493710Y-189115161D01*
X104666824Y-189047509D01*
X104826900Y-188953146D01*
X104971149Y-188833725D01*
X105096781Y-188690901D01*
X105201006Y-188526330D01*
X105281034Y-188341666D01*
X105286350Y-188326099D01*
X105304400Y-188268017D01*
X105316285Y-188215171D01*
X105323292Y-188157923D01*
X105326711Y-188086634D01*
X105327830Y-187991666D01*
X105327514Y-187911225D01*
X105324691Y-187831713D01*
X105318152Y-187768135D01*
X105306812Y-187710796D01*
X105289585Y-187650000D01*
X105227173Y-187486527D01*
X105135158Y-187322731D01*
X105016978Y-187174913D01*
X104901518Y-187066030D01*
X104740051Y-186953231D01*
X104563541Y-186869385D01*
X104374565Y-186815933D01*
X104306146Y-186806045D01*
X104174070Y-186800237D01*
X104033209Y-186807399D01*
X103896935Y-186826608D01*
X103778616Y-186856947D01*
X103632068Y-186917867D01*
X103469318Y-187015823D01*
X103326607Y-187136414D01*
X103205576Y-187276396D01*
X103107866Y-187432530D01*
X103035119Y-187601573D01*
X102988976Y-187780285D01*
X102971079Y-187965424D01*
X101466952Y-187965424D01*
X101474049Y-187948883D01*
X101529156Y-187822375D01*
X101586920Y-187691666D01*
X101632265Y-187589776D01*
X101686101Y-187468705D01*
X101735077Y-187358455D01*
X101777450Y-187262950D01*
X101811481Y-187186117D01*
X101835426Y-187131881D01*
X101847546Y-187104166D01*
X101870730Y-187050000D01*
X100837173Y-187050000D01*
X99803616Y-187050000D01*
X99803616Y-188517128D01*
X99803616Y-191716666D01*
X82788604Y-191716666D01*
X82855817Y-191663088D01*
X82617216Y-191504434D01*
X82539208Y-191451810D01*
X82372788Y-191335524D01*
X82197470Y-191208437D01*
X82022637Y-191077518D01*
X81857669Y-190949733D01*
X81711949Y-190832053D01*
X81697890Y-190820284D01*
X81608297Y-190741667D01*
X81504068Y-190645266D01*
X81390146Y-190536072D01*
X81271477Y-190419073D01*
X81153006Y-190299261D01*
X81039678Y-190181624D01*
X80936438Y-190071153D01*
X80848232Y-189972837D01*
X80780003Y-189891666D01*
X80731819Y-189830396D01*
X80508633Y-189519586D01*
X80318572Y-189205719D01*
X80161559Y-188888571D01*
X80075886Y-188667104D01*
X86505211Y-188667104D01*
X86526557Y-188820563D01*
X86557592Y-188926414D01*
X86633241Y-189090772D01*
X86738899Y-189240936D01*
X86874428Y-189376808D01*
X87039689Y-189498294D01*
X87234544Y-189605296D01*
X87458853Y-189697719D01*
X87712479Y-189775467D01*
X87995282Y-189838443D01*
X88015522Y-189842150D01*
X88040767Y-189846410D01*
X88067454Y-189850263D01*
X88097261Y-189853736D01*
X88131866Y-189856853D01*
X88172947Y-189859637D01*
X88222184Y-189862116D01*
X88281255Y-189864312D01*
X88351838Y-189866251D01*
X88435611Y-189867958D01*
X88534255Y-189869457D01*
X88649446Y-189870773D01*
X88782864Y-189871931D01*
X88936186Y-189872956D01*
X89111093Y-189873872D01*
X89309261Y-189874704D01*
X89532370Y-189875478D01*
X89782098Y-189876217D01*
X90060124Y-189876947D01*
X90368126Y-189877692D01*
X90707782Y-189878478D01*
X93236949Y-189884257D01*
X93236949Y-188517128D01*
X93236949Y-187150000D01*
X90703325Y-187150000D01*
X90667971Y-187150000D01*
X90331514Y-187150008D01*
X90026565Y-187150044D01*
X89751460Y-187150132D01*
X89504541Y-187150291D01*
X89284144Y-187150543D01*
X89088610Y-187150909D01*
X88916277Y-187151412D01*
X88765485Y-187152071D01*
X88634571Y-187152910D01*
X88521876Y-187153948D01*
X88425738Y-187155208D01*
X88344495Y-187156711D01*
X88276488Y-187158478D01*
X88220055Y-187160531D01*
X88173534Y-187162891D01*
X88135265Y-187165579D01*
X88103586Y-187168617D01*
X88076838Y-187172026D01*
X88053358Y-187175828D01*
X88031485Y-187180044D01*
X88009559Y-187184696D01*
X87954542Y-187197149D01*
X87710022Y-187265999D01*
X87480850Y-187352754D01*
X87269878Y-187455695D01*
X87079955Y-187573106D01*
X86913935Y-187703267D01*
X86774669Y-187844459D01*
X86665007Y-187994965D01*
X86649012Y-188022432D01*
X86581683Y-188170346D01*
X86534274Y-188333056D01*
X86508284Y-188501622D01*
X86505211Y-188667104D01*
X80075886Y-188667104D01*
X80037519Y-188567923D01*
X79946374Y-188243550D01*
X79888048Y-187915233D01*
X79862465Y-187582748D01*
X79869549Y-187245874D01*
X79869611Y-187244973D01*
X79911088Y-186873306D01*
X79983493Y-186512690D01*
X80087115Y-186162398D01*
X80222240Y-185821708D01*
X80389156Y-185489894D01*
X80588150Y-185166233D01*
X80819508Y-184850000D01*
X80823147Y-184845427D01*
X80880731Y-184776649D01*
X80955434Y-184692276D01*
X81040866Y-184599274D01*
X81130632Y-184504613D01*
X81218343Y-184415258D01*
X81328380Y-184308183D01*
X81663826Y-184012731D01*
X82019331Y-183743694D01*
X82394303Y-183501376D01*
X82788147Y-183286084D01*
X83200269Y-183098124D01*
X83630077Y-182937803D01*
X84076976Y-182805427D01*
X84540373Y-182701302D01*
X84549410Y-182699567D01*
X84582042Y-182693133D01*
X84612145Y-182687039D01*
X84640639Y-182681277D01*
X84668444Y-182675837D01*
X84696478Y-182670709D01*
X84725661Y-182665886D01*
X84756913Y-182661357D01*
X84791154Y-182657113D01*
X84829302Y-182653146D01*
X84872278Y-182649445D01*
X84921001Y-182646002D01*
X84976391Y-182642807D01*
X85039366Y-182639851D01*
X85110848Y-182637124D01*
X85191754Y-182634619D01*
X85283005Y-182632325D01*
X85385521Y-182630233D01*
X85500220Y-182628334D01*
X85628023Y-182626618D01*
X85769848Y-182625077D01*
X85926616Y-182623702D01*
X86099246Y-182622482D01*
X86288658Y-182621409D01*
X86495770Y-182620473D01*
X86721504Y-182619666D01*
X86966777Y-182618978D01*
X87232510Y-182618399D01*
X87519622Y-182617921D01*
X87829034Y-182617534D01*
X88161663Y-182617230D01*
X88518431Y-182616998D01*
X88900256Y-182616830D01*
X89308057Y-182616716D01*
X89742756Y-182616647D01*
X90205270Y-182616615D01*
X90696520Y-182616609D01*
X91217425Y-182616620D01*
X91768905Y-182616639D01*
X92351879Y-182616658D01*
X92967267Y-182616666D01*
X100806914Y-182616666D01*
X100717765Y-182513112D01*
X100665366Y-182454822D01*
X100592230Y-182377233D01*
X100502675Y-182284680D01*
X100400670Y-182181094D01*
X100290185Y-182070405D01*
X100175189Y-181956543D01*
X100059651Y-181843438D01*
X99947542Y-181735020D01*
X99842831Y-181635219D01*
X99749487Y-181547966D01*
X99671479Y-181477191D01*
X99415541Y-181255064D01*
X98866722Y-180810375D01*
X98301500Y-180394127D01*
X97720569Y-180006746D01*
X97124622Y-179648660D01*
X96514352Y-179320295D01*
X95890452Y-179022080D01*
X95253616Y-178754440D01*
X95236530Y-178747769D01*
X95081846Y-178689462D01*
X94904167Y-178625572D01*
X94711201Y-178558655D01*
X94510660Y-178491269D01*
X94310254Y-178425970D01*
X94117694Y-178365314D01*
X93940689Y-178311857D01*
X93786949Y-178268156D01*
X93725750Y-178251825D01*
X93617929Y-178224137D01*
X93497473Y-178194225D01*
X93369378Y-178163241D01*
X93238638Y-178132334D01*
X93110251Y-178102654D01*
X92989211Y-178075352D01*
X92880515Y-178051579D01*
X92789158Y-178032484D01*
X92720136Y-178019217D01*
X92678446Y-178012929D01*
X92676164Y-178012784D01*
X92665354Y-178013983D01*
X92651893Y-178019298D01*
X92634222Y-178030276D01*
X92610783Y-178048462D01*
X92580015Y-178075400D01*
X92540361Y-178112637D01*
X92490260Y-178161716D01*
X92428155Y-178224183D01*
X92352484Y-178301584D01*
X92261691Y-178395463D01*
X92154215Y-178507365D01*
X92028498Y-178638837D01*
X91882980Y-178791422D01*
X91716102Y-178966666D01*
X91679922Y-179004661D01*
X91535773Y-179155727D01*
X91396888Y-179300790D01*
X91265228Y-179437828D01*
X91142756Y-179564819D01*
X91031434Y-179679742D01*
X90933225Y-179780575D01*
X90850089Y-179865295D01*
X90783991Y-179931882D01*
X90736892Y-179978312D01*
X90710754Y-180002565D01*
X90558386Y-180109267D01*
X90390795Y-180187267D01*
X90211168Y-180234270D01*
X90020282Y-180250000D01*
X89886007Y-180242545D01*
X89703741Y-180205689D01*
X89533933Y-180137943D01*
X89376384Y-180039242D01*
X89352863Y-180019379D01*
X89306435Y-179977645D01*
X89240048Y-179916643D01*
X89155806Y-179838347D01*
X89055812Y-179744734D01*
X88942172Y-179637779D01*
X88816989Y-179519459D01*
X88682367Y-179391748D01*
X88540411Y-179256624D01*
X88393225Y-179116061D01*
X88264604Y-178993034D01*
X88118951Y-178853735D01*
X87979265Y-178720161D01*
X87847811Y-178594478D01*
X87726855Y-178478851D01*
X87618660Y-178375444D01*
X87525491Y-178286422D01*
X87449613Y-178213949D01*
X87393291Y-178160191D01*
X87358790Y-178127312D01*
X87222297Y-177997501D01*
X87042123Y-178033483D01*
X86851498Y-178072890D01*
X86178296Y-178233745D01*
X85514584Y-178426293D01*
X84861384Y-178650052D01*
X84219722Y-178904535D01*
X83590619Y-179189259D01*
X82975100Y-179503739D01*
X82374189Y-179847492D01*
X81788907Y-180220032D01*
X81220280Y-180620876D01*
X80669331Y-181049538D01*
X80485274Y-181202416D01*
X79967816Y-181661201D01*
X79471833Y-182144914D01*
X78998640Y-182652103D01*
X78549551Y-183181315D01*
X78125879Y-183731098D01*
X77728939Y-184300000D01*
X77709122Y-184330021D01*
X77649662Y-184421315D01*
X77585951Y-184520640D01*
X77520464Y-184623989D01*
X77455678Y-184727354D01*
X77394066Y-184826728D01*
X77338105Y-184918103D01*
X77290271Y-184997471D01*
X77253039Y-185060825D01*
X77228884Y-185104157D01*
X77220282Y-185123460D01*
X77226572Y-185138782D01*
X77245513Y-185182653D01*
X77276231Y-185253062D01*
X77317848Y-185348018D01*
X77369489Y-185465528D01*
X77430274Y-185603601D01*
X77499327Y-185760245D01*
X77575769Y-185933468D01*
X77658724Y-186121278D01*
X77747314Y-186321684D01*
X77840662Y-186532693D01*
X77937889Y-186752314D01*
X77963044Y-186809141D01*
X78072436Y-187056861D01*
X78175080Y-187290289D01*
X78270285Y-187507814D01*
X78357359Y-187707825D01*
X78435609Y-187888711D01*
X78497679Y-188033333D01*
X78504343Y-188048861D01*
X78562870Y-188186664D01*
X78610497Y-188300508D01*
X78646532Y-188388784D01*
X78670283Y-188449879D01*
X78681058Y-188482183D01*
X78683264Y-188492090D01*
X78697515Y-188597158D01*
X78701454Y-188719558D01*
X78695602Y-188846881D01*
X78680476Y-188966720D01*
X78656597Y-189066666D01*
X78634462Y-189127000D01*
X78559385Y-189276512D01*
X78461343Y-189416512D01*
X78346315Y-189539187D01*
X78220282Y-189636723D01*
X78193275Y-189651217D01*
X78137514Y-189678474D01*
X78055852Y-189717095D01*
X77950632Y-189766012D01*
X77824196Y-189824155D01*
X77678887Y-189890458D01*
X77517048Y-189963849D01*
X77341020Y-190043262D01*
X77153146Y-190127627D01*
X76955769Y-190215875D01*
X76751232Y-190306938D01*
X75373847Y-190918874D01*
X75363958Y-191005270D01*
X75363658Y-191007896D01*
X75350446Y-191134490D01*
X75339501Y-191264643D01*
X75330662Y-191402605D01*
X75323768Y-191552628D01*
X75318654Y-191718961D01*
X75315161Y-191905855D01*
X75313125Y-192117562D01*
X75312385Y-192358333D01*
X69939026Y-192358333D01*
X69939937Y-192352784D01*
X69956154Y-192305034D01*
X69982944Y-192247276D01*
X70016911Y-192187085D01*
X70059755Y-192125538D01*
X70099611Y-192080897D01*
X70118582Y-192066535D01*
X70165336Y-192034614D01*
X70235519Y-191988457D01*
X70326393Y-191929811D01*
X70435219Y-191860418D01*
X70559260Y-191782024D01*
X70695776Y-191696372D01*
X70842030Y-191605209D01*
X70995282Y-191510278D01*
X71129042Y-191427597D01*
X71273533Y-191338088D01*
X71407553Y-191254861D01*
X71528544Y-191179517D01*
X71633945Y-191113654D01*
X71721199Y-191058873D01*
X71787746Y-191016771D01*
X71831027Y-190988950D01*
X71848485Y-190977007D01*
X71856202Y-190960068D01*
X71866826Y-190915203D01*
X71877379Y-190850967D01*
X71886426Y-190775000D01*
X71892462Y-190715368D01*
X71900628Y-190639205D01*
X71907788Y-190577223D01*
X71912878Y-190538926D01*
X71913892Y-190527801D01*
X71912137Y-190515374D01*
X71905738Y-190500329D01*
X71892899Y-190480839D01*
X71871827Y-190455074D01*
X71840729Y-190421206D01*
X71797810Y-190377405D01*
X71741276Y-190321843D01*
X71669334Y-190252691D01*
X71580190Y-190168121D01*
X71472049Y-190066303D01*
X71343118Y-189945409D01*
X71191604Y-189803610D01*
X71066950Y-189686918D01*
X70940866Y-189568716D01*
X70823393Y-189458415D01*
X70716782Y-189358134D01*
X70623283Y-189269996D01*
X70545146Y-189196123D01*
X70484622Y-189138635D01*
X70443961Y-189099654D01*
X70425412Y-189081301D01*
X70404073Y-189052777D01*
X70372777Y-189000722D01*
X70342668Y-188941617D01*
X70307693Y-188837977D01*
X70294786Y-188712451D01*
X70309969Y-188587042D01*
X70351259Y-188467237D01*
X70416674Y-188358522D01*
X70504231Y-188266386D01*
X70611949Y-188196314D01*
X70632993Y-188187103D01*
X70685710Y-188165767D01*
X70764223Y-188134950D01*
X70865441Y-188095832D01*
X70986276Y-188049595D01*
X71007151Y-188041666D01*
X74637442Y-188041666D01*
X74637443Y-188043751D01*
X74652194Y-188241660D01*
X74696557Y-188425522D01*
X74771565Y-188598433D01*
X74878249Y-188763486D01*
X74939078Y-188835844D01*
X75067631Y-188954755D01*
X75215614Y-189057099D01*
X75374797Y-189137536D01*
X75536949Y-189190729D01*
X75623415Y-189205506D01*
X75748202Y-189214586D01*
X75880780Y-189213759D01*
X76007935Y-189203199D01*
X76116457Y-189183081D01*
X76155461Y-189172109D01*
X76332534Y-189102422D01*
X76495414Y-189005467D01*
X76640143Y-188884441D01*
X76762764Y-188742543D01*
X76859318Y-188582971D01*
X76893580Y-188510356D01*
X76941174Y-188391075D01*
X76971657Y-188279496D01*
X76987822Y-188164091D01*
X76992460Y-188033333D01*
X76992233Y-188005150D01*
X76984187Y-187871127D01*
X76962433Y-187750700D01*
X76923963Y-187631211D01*
X76865770Y-187500000D01*
X76853039Y-187474512D01*
X76815310Y-187407208D01*
X76772858Y-187346424D01*
X76718713Y-187282883D01*
X76645906Y-187207306D01*
X76630646Y-187192186D01*
X76485899Y-187067177D01*
X76337120Y-186973325D01*
X76179678Y-186908677D01*
X76008942Y-186871280D01*
X75820282Y-186859181D01*
X75685060Y-186865103D01*
X75496926Y-186896948D01*
X75324262Y-186957243D01*
X75164435Y-187046997D01*
X75014812Y-187167216D01*
X75009586Y-187172120D01*
X74874236Y-187320029D01*
X74769864Y-187479741D01*
X74695952Y-187652452D01*
X74651983Y-187839362D01*
X74637442Y-188041666D01*
X71007151Y-188041666D01*
X71123636Y-187997421D01*
X71274432Y-187940490D01*
X71435573Y-187879983D01*
X71603969Y-187817083D01*
X72512655Y-187478554D01*
X72583266Y-187240661D01*
X72653877Y-187002769D01*
X72071127Y-186193787D01*
X71974793Y-186059780D01*
X71873158Y-185917785D01*
X71778183Y-185784464D01*
X71691709Y-185662432D01*
X71615579Y-185554308D01*
X71551635Y-185462709D01*
X71501720Y-185390252D01*
X71467676Y-185339555D01*
X71451345Y-185313235D01*
X71431737Y-185265115D01*
X71410983Y-185169216D01*
X71404549Y-185062276D01*
X71412835Y-184956303D01*
X71436246Y-184863306D01*
X71455651Y-184818829D01*
X71525040Y-184711913D01*
X71617412Y-184620159D01*
X71725536Y-184551366D01*
X71745800Y-184542213D01*
X71773255Y-184531735D01*
X71806894Y-184521208D01*
X71849392Y-184510120D01*
X71903424Y-184497959D01*
X71971664Y-184484210D01*
X72056786Y-184468362D01*
X72161464Y-184449900D01*
X72288374Y-184428313D01*
X72440189Y-184403087D01*
X72619584Y-184373709D01*
X72829233Y-184339666D01*
X73829850Y-184177619D01*
X73943912Y-183959180D01*
X74057974Y-183740740D01*
X73639233Y-182821680D01*
X73566641Y-182661667D01*
X73494588Y-182501430D01*
X73427544Y-182350915D01*
X73366787Y-182213056D01*
X73313594Y-182090791D01*
X73269241Y-181987055D01*
X73235007Y-181904785D01*
X73212167Y-181846917D01*
X73201999Y-181816387D01*
X73190863Y-181703060D01*
X73207632Y-181577517D01*
X73252783Y-181457682D01*
X73323797Y-181348387D01*
X73418157Y-181254462D01*
X73533343Y-181180738D01*
X73555389Y-181170168D01*
X73581273Y-181159999D01*
X73610296Y-181152679D01*
X73647490Y-181147796D01*
X73697887Y-181144942D01*
X73766519Y-181143706D01*
X73858418Y-181143678D01*
X73978616Y-181144448D01*
X73989553Y-181144539D01*
X74093817Y-181145990D01*
X74224365Y-181148605D01*
X74374963Y-181152216D01*
X74539373Y-181156657D01*
X74711360Y-181161760D01*
X74884685Y-181167357D01*
X75053115Y-181173282D01*
X75138689Y-181176340D01*
X75283701Y-181181084D01*
X75416360Y-181184874D01*
X75533175Y-181187644D01*
X75630652Y-181189326D01*
X75705300Y-181189852D01*
X75753627Y-181189155D01*
X75772140Y-181187167D01*
X75775373Y-181183601D01*
X75802552Y-181151991D01*
X75841787Y-181104803D01*
X75888326Y-181047935D01*
X75937414Y-180987286D01*
X75984297Y-180928752D01*
X76024222Y-180878232D01*
X76052436Y-180841624D01*
X76064185Y-180824825D01*
X76062144Y-180808764D01*
X76053090Y-180762777D01*
X76037543Y-180689903D01*
X76016155Y-180593030D01*
X75989575Y-180475049D01*
X75958457Y-180338848D01*
X75923451Y-180187317D01*
X75885209Y-180023346D01*
X75844383Y-179849825D01*
X75808960Y-179699458D01*
X75769371Y-179530284D01*
X75732522Y-179371637D01*
X75699127Y-179226645D01*
X75669897Y-179098435D01*
X75645546Y-178990137D01*
X75626787Y-178904879D01*
X75614331Y-178845789D01*
X75608891Y-178815996D01*
X75608376Y-178715200D01*
X75634730Y-178595142D01*
X75686903Y-178480383D01*
X75761410Y-178378291D01*
X75854763Y-178296236D01*
X75928808Y-178253610D01*
X76034469Y-178212797D01*
X76141317Y-178190590D01*
X76237751Y-178190199D01*
X76261222Y-178194498D01*
X76316360Y-178206125D01*
X76398134Y-178224153D01*
X76503404Y-178247866D01*
X76629026Y-178276544D01*
X76771859Y-178309471D01*
X76928761Y-178345928D01*
X77096591Y-178385198D01*
X77272207Y-178426562D01*
X77275174Y-178427263D01*
X77484172Y-178476475D01*
X77662942Y-178518165D01*
X77813596Y-178552778D01*
X77938243Y-178580756D01*
X78038995Y-178602546D01*
X78117962Y-178618592D01*
X78177255Y-178629338D01*
X78218983Y-178635228D01*
X78245259Y-178636708D01*
X78258192Y-178634221D01*
X78259658Y-178633280D01*
X78285847Y-178614009D01*
X78331102Y-178578700D01*
X78389472Y-178532053D01*
X78455006Y-178478769D01*
X78622243Y-178341666D01*
X78612787Y-178175000D01*
X78608390Y-178089859D01*
X78603422Y-177979176D01*
X78598180Y-177850100D01*
X78592783Y-177706608D01*
X78587352Y-177552679D01*
X78582003Y-177392287D01*
X78576857Y-177229412D01*
X78576197Y-177207357D01*
X88805516Y-177207357D01*
X88810518Y-177344374D01*
X88826739Y-177473708D01*
X88853668Y-177583333D01*
X88863264Y-177610916D01*
X88945570Y-177793125D01*
X89053215Y-177956617D01*
X89183640Y-178098960D01*
X89334286Y-178217720D01*
X89502593Y-178310463D01*
X89686004Y-178374757D01*
X89699756Y-178378217D01*
X89878568Y-178406441D01*
X90063846Y-178407260D01*
X90246347Y-178381252D01*
X90416826Y-178328996D01*
X90550507Y-178264823D01*
X90711903Y-178156330D01*
X90853798Y-178023786D01*
X90973126Y-177870674D01*
X91066825Y-177700473D01*
X91131829Y-177516666D01*
X91136557Y-177497025D01*
X91152455Y-177393503D01*
X91159878Y-177273087D01*
X91158833Y-177148064D01*
X91149332Y-177030717D01*
X91131382Y-176933333D01*
X91126564Y-176916453D01*
X91101683Y-176844156D01*
X91068496Y-176761531D01*
X91032819Y-176683333D01*
X91031965Y-176681601D01*
X90991561Y-176606225D01*
X90948028Y-176541012D01*
X90893685Y-176475692D01*
X90820851Y-176400000D01*
X90809398Y-176388663D01*
X90700604Y-176289519D01*
X90597350Y-176213527D01*
X90490671Y-176154853D01*
X90371601Y-176107664D01*
X90236995Y-176070471D01*
X90047438Y-176045133D01*
X89860724Y-176049954D01*
X89679841Y-176083258D01*
X89507774Y-176143373D01*
X89347512Y-176228622D01*
X89202039Y-176337331D01*
X89074344Y-176467826D01*
X88967412Y-176618431D01*
X88884230Y-176787473D01*
X88827785Y-176973277D01*
X88812243Y-177074680D01*
X88805516Y-177207357D01*
X78576197Y-177207357D01*
X78572031Y-177068029D01*
X78567645Y-176912116D01*
X78563818Y-176765649D01*
X78560667Y-176632607D01*
X78558313Y-176516965D01*
X78556873Y-176422701D01*
X78556467Y-176353793D01*
X78557213Y-176314216D01*
X78568410Y-176226393D01*
X78610345Y-176098263D01*
X78680645Y-175986512D01*
X78777899Y-175893170D01*
X78900697Y-175820265D01*
X78929658Y-175807635D01*
X78987165Y-175788694D01*
X79048630Y-175779382D01*
X79128616Y-175776932D01*
X79145010Y-175776760D01*
X79167247Y-175776148D01*
X79187074Y-175775901D01*
X79206678Y-175776909D01*
X79228244Y-175780063D01*
X79253959Y-175786253D01*
X79286007Y-175796368D01*
X79326576Y-175811300D01*
X79377850Y-175831939D01*
X79442016Y-175859175D01*
X79521260Y-175893898D01*
X79617767Y-175936999D01*
X79733724Y-175989368D01*
X79871316Y-176051896D01*
X80032729Y-176125472D01*
X80220150Y-176210987D01*
X80435764Y-176309331D01*
X81159579Y-176639313D01*
X81360764Y-176534063D01*
X81379036Y-176524469D01*
X81452699Y-176485058D01*
X81514988Y-176450600D01*
X81559810Y-176424519D01*
X81581072Y-176410239D01*
X81587101Y-176390873D01*
X81597839Y-176341494D01*
X81612765Y-176265014D01*
X81631361Y-176164343D01*
X81653108Y-176042392D01*
X81677486Y-175902072D01*
X81703977Y-175746293D01*
X81732061Y-175577965D01*
X81761219Y-175400000D01*
X81769886Y-175346632D01*
X81804503Y-175134063D01*
X81834647Y-174951217D01*
X81861006Y-174795508D01*
X81884269Y-174664348D01*
X81905122Y-174555152D01*
X81924255Y-174465330D01*
X81942355Y-174392297D01*
X81960110Y-174333466D01*
X81978208Y-174286248D01*
X81997338Y-174248057D01*
X82018186Y-174216305D01*
X82041441Y-174188407D01*
X82067791Y-174161773D01*
X82097925Y-174133818D01*
X82180804Y-174070806D01*
X82301045Y-174013276D01*
X82430023Y-173984322D01*
X82561813Y-173985113D01*
X82690491Y-174016819D01*
X82716308Y-174029771D01*
X82771886Y-174063518D01*
X82852524Y-174116201D01*
X82957340Y-174187215D01*
X83085451Y-174275953D01*
X83235976Y-174381810D01*
X83408034Y-174504179D01*
X83600741Y-174642454D01*
X84422867Y-175234604D01*
X84659075Y-175162619D01*
X84895282Y-175090635D01*
X85253616Y-174140017D01*
X85253737Y-174139697D01*
X85318533Y-173968466D01*
X85380803Y-173805183D01*
X85439405Y-173652759D01*
X85493199Y-173514103D01*
X85541043Y-173392125D01*
X85581795Y-173289736D01*
X85614314Y-173209845D01*
X85637459Y-173155362D01*
X85650088Y-173129198D01*
X85695190Y-173069707D01*
X85788390Y-172986023D01*
X85902855Y-172919339D01*
X85922798Y-172910539D01*
X85982700Y-172889962D01*
X86046577Y-172879373D01*
X86128962Y-172875988D01*
X86134869Y-172875949D01*
X86206657Y-172877385D01*
X86260901Y-172884798D01*
X86312292Y-172901442D01*
X86375524Y-172930570D01*
X86391743Y-172938794D01*
X86415771Y-172952356D01*
X86440863Y-172968960D01*
X86468981Y-172990552D01*
X86502087Y-173019080D01*
X86542144Y-173056489D01*
X86591114Y-173104727D01*
X86650959Y-173165740D01*
X86723643Y-173241476D01*
X86811128Y-173333879D01*
X86915376Y-173444899D01*
X87038349Y-173576480D01*
X87182010Y-173730570D01*
X87189988Y-173739132D01*
X87313192Y-173871383D01*
X87429543Y-173996309D01*
X87537057Y-174111778D01*
X87633750Y-174215657D01*
X87717638Y-174305814D01*
X87786735Y-174380117D01*
X87839059Y-174436432D01*
X87872625Y-174472628D01*
X87885448Y-174486572D01*
X87885932Y-174486929D01*
X87907410Y-174488559D01*
X87954118Y-174487092D01*
X88018881Y-174483156D01*
X88094530Y-174477379D01*
X88173892Y-174470389D01*
X88249795Y-174462814D01*
X88315068Y-174455280D01*
X88362539Y-174448416D01*
X88385036Y-174442849D01*
X88394049Y-174430204D01*
X88419226Y-174391436D01*
X88458871Y-174329055D01*
X88511416Y-174245567D01*
X88575294Y-174143478D01*
X88648936Y-174025293D01*
X88730776Y-173893519D01*
X88819246Y-173750662D01*
X88912779Y-173599227D01*
X88990953Y-173472879D01*
X89083782Y-173323860D01*
X89171777Y-173183675D01*
X89253146Y-173055126D01*
X89326097Y-172941014D01*
X89388837Y-172844141D01*
X89439573Y-172767307D01*
X89476513Y-172713313D01*
X89497865Y-172684962D01*
X89530849Y-172652172D01*
X89597231Y-172599263D01*
X89664531Y-172557737D01*
X89684631Y-172547781D01*
X89733184Y-172527058D01*
X89779395Y-172515167D01*
X89835141Y-172509744D01*
X89912300Y-172508424D01*
X89950323Y-172508602D01*
X90016066Y-172511339D01*
X90066457Y-172519377D01*
X90113859Y-172535258D01*
X90170633Y-172561523D01*
X90228462Y-172593560D01*
X90288352Y-172633619D01*
X90331236Y-172669856D01*
X90346304Y-172689453D01*
X90378355Y-172736162D01*
X90424596Y-172806239D01*
X90483307Y-172896994D01*
X90552770Y-173005732D01*
X90631264Y-173129761D01*
X90717072Y-173266388D01*
X90808474Y-173412921D01*
X90903750Y-173566666D01*
X90990944Y-173707670D01*
X91080758Y-173852574D01*
X91164250Y-173986934D01*
X91239828Y-174108202D01*
X91305895Y-174213828D01*
X91360859Y-174301265D01*
X91403125Y-174367965D01*
X91431098Y-174411379D01*
X91443186Y-174428960D01*
X91457512Y-174436069D01*
X91500479Y-174446976D01*
X91563064Y-174457668D01*
X91637338Y-174466610D01*
X91687156Y-174471597D01*
X91764827Y-174479858D01*
X91830138Y-174487376D01*
X91872673Y-174492981D01*
X91933397Y-174502329D01*
X92616273Y-173771998D01*
X92733358Y-173646865D01*
X92851554Y-173520729D01*
X92961848Y-173403213D01*
X93062119Y-173296567D01*
X93150247Y-173203040D01*
X93224113Y-173124884D01*
X93281596Y-173064346D01*
X93320575Y-173023678D01*
X93338932Y-173005129D01*
X93348000Y-172997351D01*
X93407122Y-172959021D01*
X93483800Y-172922114D01*
X93565361Y-172892141D01*
X93639128Y-172874611D01*
X93701527Y-172871685D01*
X93795215Y-172881092D01*
X93889957Y-172902721D01*
X93970282Y-172933807D01*
X94047645Y-172982649D01*
X94142498Y-173071932D01*
X94214579Y-173177899D01*
X94224856Y-173200218D01*
X94247761Y-173255033D01*
X94280070Y-173335606D01*
X94320566Y-173438783D01*
X94368030Y-173561414D01*
X94421245Y-173700346D01*
X94478992Y-173852429D01*
X94540054Y-174014509D01*
X94603211Y-174183436D01*
X94941551Y-175091872D01*
X95178673Y-175163259D01*
X95415794Y-175234647D01*
X96226886Y-174650733D01*
X96362826Y-174553066D01*
X96504855Y-174451460D01*
X96638146Y-174356545D01*
X96760090Y-174270159D01*
X96868079Y-174194138D01*
X96959504Y-174130317D01*
X97031754Y-174080534D01*
X97082221Y-174046624D01*
X97108297Y-174030424D01*
X97158510Y-174010264D01*
X97253822Y-173990310D01*
X97359979Y-173984351D01*
X97465018Y-173992774D01*
X97556976Y-174015963D01*
X97601417Y-174035348D01*
X97708360Y-174104742D01*
X97800109Y-174197120D01*
X97868871Y-174305253D01*
X97877336Y-174323911D01*
X97887867Y-174351187D01*
X97898410Y-174384508D01*
X97909481Y-174426561D01*
X97921594Y-174480036D01*
X97935268Y-174547621D01*
X97951017Y-174632005D01*
X97969357Y-174735875D01*
X97990804Y-174861922D01*
X98015874Y-175012832D01*
X98045084Y-175191295D01*
X98078948Y-175400000D01*
X98107990Y-175577820D01*
X98136005Y-175746165D01*
X98162447Y-175901963D01*
X98186798Y-176042303D01*
X98208538Y-176164273D01*
X98227149Y-176264963D01*
X98242111Y-176341461D01*
X98252907Y-176390857D01*
X98259016Y-176410239D01*
X98261561Y-176412313D01*
X98288991Y-176429632D01*
X98338543Y-176457961D01*
X98404103Y-176493872D01*
X98479557Y-176533934D01*
X98680497Y-176639054D01*
X99601247Y-176218803D01*
X99755101Y-176148793D01*
X99958753Y-176056911D01*
X100136741Y-175977626D01*
X100288337Y-175911251D01*
X100412816Y-175858100D01*
X100509450Y-175818485D01*
X100577512Y-175792722D01*
X100616276Y-175781122D01*
X100632391Y-175778396D01*
X100763389Y-175774572D01*
X100891063Y-175802419D01*
X101011044Y-175860494D01*
X101118960Y-175947351D01*
X101203061Y-176051783D01*
X101257980Y-176169304D01*
X101282712Y-176300000D01*
X101283414Y-176321173D01*
X101283456Y-176377804D01*
X101282415Y-176461263D01*
X101280407Y-176567691D01*
X101277547Y-176693226D01*
X101273951Y-176834007D01*
X101269734Y-176986172D01*
X101265011Y-177145861D01*
X101261029Y-177273087D01*
X101259898Y-177309213D01*
G37*
%TD.AperFunction*%
%TD*%
M02*
