%TF.GenerationSoftware,KiCad,Pcbnew,9.0.2*%
%TF.CreationDate,2025-07-17T20:41:54+01:00*%
%TF.ProjectId,just-40-bottom,6a757374-2d34-4302-9d62-6f74746f6d2e,rev?*%
%TF.SameCoordinates,Original*%
%TF.FileFunction,Legend,Bot*%
%TF.FilePolarity,Positive*%
%FSLAX46Y46*%
G04 Gerber Fmt 4.6, Leading zero omitted, Abs format (unit mm)*
G04 Created by KiCad (PCBNEW 9.0.2) date 2025-07-17 20:41:54*
%MOMM*%
%LPD*%
G01*
G04 APERTURE LIST*
%ADD10C,0.300000*%
%ADD11C,1.000000*%
%ADD12C,2.000000*%
%ADD13C,3.300000*%
G04 APERTURE END LIST*
D10*
G36*
X235132397Y-166608740D02*
G01*
X234651116Y-166608740D01*
X234407850Y-167504256D01*
X234165806Y-166608740D01*
X233681838Y-166608740D01*
X233681838Y-168650000D01*
X234029152Y-168650000D01*
X234029152Y-167014794D01*
X234245062Y-167907623D01*
X234566364Y-167907623D01*
X234785205Y-167014794D01*
X234785205Y-168650000D01*
X235132397Y-168650000D01*
X235132397Y-166608740D01*
G37*
G36*
X232860847Y-167086826D02*
G01*
X233001744Y-167105774D01*
X233141072Y-167138704D01*
X233284089Y-167188450D01*
X233284089Y-167530268D01*
X233149951Y-167465459D01*
X233018230Y-167418161D01*
X232882660Y-167388492D01*
X232739916Y-167378471D01*
X232601186Y-167393614D01*
X232538722Y-167415967D01*
X232490422Y-167451011D01*
X232458973Y-167500800D01*
X232447313Y-167575331D01*
X232447313Y-167642376D01*
X232724895Y-167642376D01*
X232862575Y-167647792D01*
X232991486Y-167663625D01*
X233113543Y-167694023D01*
X233219120Y-167740806D01*
X233308847Y-167808124D01*
X233377756Y-167898709D01*
X233408613Y-167968981D01*
X233428553Y-168055516D01*
X233435764Y-168161880D01*
X233425468Y-168288888D01*
X233396629Y-168393968D01*
X233351072Y-168481209D01*
X233288852Y-168553646D01*
X233211711Y-168611922D01*
X233123363Y-168654152D01*
X233021692Y-168680459D01*
X232903925Y-168689689D01*
X232765816Y-168676617D01*
X232640875Y-168638398D01*
X232564788Y-168597984D01*
X232497841Y-168545220D01*
X232439131Y-168479152D01*
X232421423Y-168568056D01*
X232383077Y-168650000D01*
X231986549Y-168650000D01*
X232013275Y-168602352D01*
X232033077Y-168540701D01*
X232052250Y-168411496D01*
X232056280Y-168308182D01*
X232054937Y-168197540D01*
X232053593Y-168057955D01*
X232052350Y-167958182D01*
X232447313Y-167958182D01*
X232454636Y-168064057D01*
X232476744Y-168169452D01*
X232517026Y-168266160D01*
X232576639Y-168343108D01*
X232627530Y-168380306D01*
X232691639Y-168403684D01*
X232772766Y-168412107D01*
X232845060Y-168404585D01*
X232902046Y-168383725D01*
X232947156Y-168350558D01*
X232980650Y-168305847D01*
X233001713Y-168249132D01*
X233009316Y-168176901D01*
X233001476Y-168101072D01*
X232980575Y-168046658D01*
X232948499Y-168008129D01*
X232881143Y-167967091D01*
X232794626Y-167943893D01*
X232607292Y-167930826D01*
X232447313Y-167930826D01*
X232447313Y-167958182D01*
X232052350Y-167958182D01*
X232051517Y-167891259D01*
X232049441Y-167754483D01*
X232057268Y-167600886D01*
X232078817Y-167475481D01*
X232111723Y-167373709D01*
X232162751Y-167282239D01*
X232231554Y-167209131D01*
X232320184Y-167152302D01*
X232420494Y-167114825D01*
X232550774Y-167089776D01*
X232718056Y-167080495D01*
X232860847Y-167086826D01*
G37*
G36*
X231551919Y-167118719D02*
G01*
X231190928Y-167118719D01*
X231151360Y-167356612D01*
X231104949Y-167276061D01*
X231045402Y-167209123D01*
X230971598Y-167154378D01*
X230888172Y-167114762D01*
X230794299Y-167090331D01*
X230687787Y-167081838D01*
X230577670Y-167090618D01*
X230474275Y-167116556D01*
X230376133Y-167159752D01*
X230376133Y-167541259D01*
X230470906Y-167475761D01*
X230584933Y-167435212D01*
X230723447Y-167420847D01*
X230836697Y-167430533D01*
X230929211Y-167457563D01*
X231005059Y-167500226D01*
X231067095Y-167559763D01*
X231111638Y-167634693D01*
X231139026Y-167728471D01*
X231148674Y-167814689D01*
X231151360Y-167944504D01*
X231151360Y-168650000D01*
X231551919Y-168650000D01*
X231551919Y-167118719D01*
G37*
G36*
X229959211Y-166522644D02*
G01*
X229558653Y-166522644D01*
X229558653Y-167639689D01*
X229077372Y-167118719D01*
X228592062Y-167118719D01*
X229171772Y-167690247D01*
X228559211Y-168650000D01*
X229002145Y-168650000D01*
X229421877Y-167933635D01*
X229558653Y-168064794D01*
X229558653Y-168650000D01*
X229959211Y-168650000D01*
X229959211Y-166522644D01*
G37*
G36*
X226593300Y-168294504D02*
G01*
X226187247Y-168294504D01*
X226187247Y-166964235D01*
X226593300Y-166964235D01*
X226593300Y-166608740D01*
X225377948Y-166608740D01*
X225377948Y-166964235D01*
X225784002Y-166964235D01*
X225784002Y-168294504D01*
X225377948Y-168294504D01*
X225377948Y-168650000D01*
X226593300Y-168650000D01*
X226593300Y-168294504D01*
G37*
G36*
X224909002Y-168294504D02*
G01*
X224502948Y-168294504D01*
X224502948Y-166964235D01*
X224909002Y-166964235D01*
X224909002Y-166608740D01*
X223693649Y-166608740D01*
X223693649Y-166964235D01*
X224099703Y-166964235D01*
X224099703Y-168294504D01*
X223693649Y-168294504D01*
X223693649Y-168650000D01*
X224909002Y-168650000D01*
X224909002Y-168294504D01*
G37*
D11*
G36*
X232939253Y-164163602D02*
G01*
X233576346Y-164128408D01*
X234138913Y-164027864D01*
X234724511Y-163859602D01*
X235357257Y-163609659D01*
X235357257Y-162157758D01*
X234777281Y-162600053D01*
X234200462Y-162902393D01*
X233577622Y-163092477D01*
X232957937Y-163154635D01*
X232559634Y-163125539D01*
X232228689Y-163044176D01*
X231942745Y-162898306D01*
X231733548Y-162693016D01*
X231563635Y-162364993D01*
X231439084Y-161826040D01*
X231388982Y-160988872D01*
X231388982Y-155845668D01*
X233732798Y-155845668D01*
X233732798Y-154799331D01*
X230145908Y-154799331D01*
X230145908Y-160988872D01*
X230182395Y-161760488D01*
X230281189Y-162369348D01*
X230428925Y-162844141D01*
X230659735Y-163273898D01*
X230957473Y-163605739D01*
X231327433Y-163853108D01*
X231749198Y-164016882D01*
X232278652Y-164124350D01*
X232939253Y-164163602D01*
G37*
G36*
X225150531Y-164163602D02*
G01*
X225706329Y-164106908D01*
X226154535Y-163948405D01*
X226518731Y-163694684D01*
X226813134Y-163337600D01*
X227040609Y-162855443D01*
X227192286Y-162215447D01*
X227248700Y-161376303D01*
X227248700Y-157106877D01*
X226116634Y-157106877D01*
X226116634Y-161376303D01*
X226067853Y-161996966D01*
X225938794Y-162448075D01*
X225746879Y-162770126D01*
X225496395Y-162992444D01*
X225177717Y-163129587D01*
X224769146Y-163178815D01*
X224386116Y-163140858D01*
X224062917Y-163032837D01*
X223787280Y-162857606D01*
X223551351Y-162610034D01*
X223323945Y-162207773D01*
X223175287Y-161682640D01*
X223120507Y-161000963D01*
X223120507Y-157106877D01*
X221982396Y-157106877D01*
X221982396Y-163985000D01*
X223009499Y-163985000D01*
X223120507Y-162951303D01*
X223403710Y-163394239D01*
X223740298Y-163727030D01*
X224134951Y-163964482D01*
X224599266Y-164111715D01*
X225150531Y-164163602D01*
G37*
G36*
X217245306Y-164163602D02*
G01*
X217895458Y-164121360D01*
X218660189Y-163983930D01*
X219558347Y-163732758D01*
X219558347Y-162563872D01*
X218676685Y-162944814D01*
X217917016Y-163152226D01*
X217257396Y-163216184D01*
X216785669Y-163178665D01*
X216408526Y-163075215D01*
X216107196Y-162914483D01*
X215864734Y-162686805D01*
X215724357Y-162422495D01*
X215676351Y-162108299D01*
X215716618Y-161835292D01*
X215834232Y-161604339D01*
X216036304Y-161404330D01*
X216459187Y-161179008D01*
X217183757Y-160970188D01*
X217657466Y-160871819D01*
X218290313Y-160696949D01*
X218753015Y-160477749D01*
X219081891Y-160222805D01*
X219327313Y-159895492D01*
X219479757Y-159491564D01*
X219534167Y-158989073D01*
X219488410Y-158504757D01*
X219358784Y-158098596D01*
X219150026Y-157754993D01*
X218857676Y-157463532D01*
X218509898Y-157242543D01*
X218084009Y-157075390D01*
X217564214Y-156967278D01*
X216931515Y-156928274D01*
X216233782Y-156973357D01*
X215552695Y-157108201D01*
X214882806Y-157334389D01*
X214882806Y-158441725D01*
X215544913Y-158124044D01*
X216214327Y-157937615D01*
X216900741Y-157875692D01*
X217508268Y-157929686D01*
X217915550Y-158068455D01*
X218179038Y-158270965D01*
X218334365Y-158537737D01*
X218389462Y-158890704D01*
X218354114Y-159200685D01*
X218260319Y-159417170D01*
X218089123Y-159584290D01*
X217768475Y-159743051D01*
X217360097Y-159867121D01*
X216697958Y-160016725D01*
X216242384Y-160103004D01*
X215681491Y-160263419D01*
X215257188Y-160483478D01*
X214942549Y-160757060D01*
X214719614Y-161086869D01*
X214581274Y-161484113D01*
X214532196Y-161967065D01*
X214580343Y-162464253D01*
X214717976Y-162889305D01*
X214941859Y-163256745D01*
X215258147Y-163576137D01*
X215632836Y-163821873D01*
X216079290Y-164005033D01*
X216611199Y-164121893D01*
X217245306Y-164163602D01*
G37*
G36*
X208324520Y-164009729D02*
G01*
X208976006Y-163969488D01*
X209471748Y-163861702D01*
X209843798Y-163701239D01*
X210118239Y-163495903D01*
X210329340Y-163226020D01*
X210493394Y-162861181D01*
X210603218Y-162376153D01*
X210644155Y-161739553D01*
X210644155Y-157974061D01*
X212483487Y-157974061D01*
X212483487Y-157094237D01*
X210644155Y-157094237D01*
X210644155Y-155291725D01*
X209512089Y-154799331D01*
X209512089Y-157094237D01*
X206940212Y-157094237D01*
X206940212Y-157974061D01*
X209512089Y-157974061D01*
X209512089Y-161739553D01*
X209472411Y-162238196D01*
X209370443Y-162577366D01*
X209223028Y-162800727D01*
X209008146Y-162957350D01*
X208685363Y-163063986D01*
X208214061Y-163105176D01*
X206940212Y-163105176D01*
X206940212Y-164009729D01*
X208324520Y-164009729D01*
G37*
G36*
X197503401Y-160619577D02*
G01*
X197503401Y-161794508D01*
X193608766Y-161794508D01*
X193608766Y-163985000D01*
X192372287Y-163985000D01*
X192372287Y-161794508D01*
X191147897Y-161794508D01*
X191147897Y-160785540D01*
X192372287Y-160785540D01*
X193608766Y-160785540D01*
X196506524Y-160785540D01*
X193608766Y-155931397D01*
X193608766Y-160785540D01*
X192372287Y-160785540D01*
X192372287Y-154799331D01*
X193812098Y-154799331D01*
X197503401Y-160619577D01*
G37*
G36*
X186926630Y-157305032D02*
G01*
X187086725Y-157547656D01*
X187253811Y-158121889D01*
X187352730Y-158841795D01*
X187376910Y-159371008D01*
X187337342Y-159979905D01*
X187235676Y-160662991D01*
X187054326Y-161284528D01*
X186916032Y-161489632D01*
X186749328Y-161548860D01*
X186613879Y-161511120D01*
X186485509Y-161384649D01*
X186359601Y-161122375D01*
X186244844Y-160650352D01*
X186161863Y-159906266D01*
X186140430Y-159419918D01*
X186177250Y-158829155D01*
X186275619Y-158140024D01*
X186377419Y-157736761D01*
X186482248Y-157476172D01*
X186623905Y-157293777D01*
X186774057Y-157242065D01*
X186926630Y-157305032D01*
G37*
G36*
X187339472Y-154684575D02*
G01*
X187837592Y-154831014D01*
X188271306Y-155068188D01*
X188651232Y-155400141D01*
X188982684Y-155839073D01*
X189284254Y-156446663D01*
X189519952Y-157218787D01*
X189676138Y-158190348D01*
X189733365Y-159401233D01*
X189676181Y-160609041D01*
X189520064Y-161578739D01*
X189284376Y-162349952D01*
X188982684Y-162957348D01*
X188651203Y-163396511D01*
X188271260Y-163728616D01*
X187837544Y-163965886D01*
X187339440Y-164112378D01*
X186761967Y-164163602D01*
X186187385Y-164112602D01*
X185689677Y-163966487D01*
X185254331Y-163729404D01*
X184871050Y-163397108D01*
X184534656Y-162957348D01*
X184317228Y-162551337D01*
X184129263Y-162065347D01*
X183974668Y-161487311D01*
X183835415Y-160566176D01*
X183783975Y-159401233D01*
X185033094Y-159401233D01*
X185066813Y-160401930D01*
X185157563Y-161185391D01*
X185291470Y-161788421D01*
X185457344Y-162244036D01*
X185712873Y-162671845D01*
X186010235Y-162955241D01*
X186354486Y-163121602D01*
X186761967Y-163178815D01*
X187159759Y-163122200D01*
X187499148Y-162956777D01*
X187795657Y-162673483D01*
X188053951Y-162244036D01*
X188221700Y-161794409D01*
X188357525Y-161194497D01*
X188449852Y-160409674D01*
X188484246Y-159401233D01*
X188455045Y-158447032D01*
X188377084Y-157713026D01*
X188235403Y-157048777D01*
X188053951Y-156552934D01*
X187798443Y-156123785D01*
X187502972Y-155840338D01*
X187162783Y-155674492D01*
X186761967Y-155617606D01*
X186354920Y-155675091D01*
X186010792Y-155842367D01*
X185713245Y-156127679D01*
X185457344Y-156558979D01*
X185291732Y-157011591D01*
X185157811Y-157613017D01*
X185066912Y-158397010D01*
X185033094Y-159401233D01*
X183783975Y-159401233D01*
X183835370Y-158236446D01*
X183974668Y-157312957D01*
X184129354Y-156732676D01*
X184317338Y-156245472D01*
X184534656Y-155839073D01*
X184868635Y-155400006D01*
X185250550Y-155067980D01*
X185685690Y-154830837D01*
X186184562Y-154684504D01*
X186761967Y-154633368D01*
X187339472Y-154684575D01*
G37*
%LPC*%
D12*
%TO.C,H11*%
X175750000Y-154500000D03*
%TD*%
D13*
%TO.C,H21*%
X32750000Y-225500000D03*
%TD*%
D12*
%TO.C,H14*%
X90250000Y-228500000D03*
%TD*%
D13*
%TO.C,H20*%
X242750000Y-157500000D03*
%TD*%
D12*
%TO.C,H16*%
X250750000Y-228500000D03*
%TD*%
%TO.C,H10*%
X99750000Y-154500000D03*
%TD*%
D13*
%TO.C,H22*%
X242750000Y-225500000D03*
%TD*%
D12*
%TO.C,H9*%
X24750000Y-154500000D03*
%TD*%
%TO.C,H13*%
X24750000Y-228500000D03*
%TD*%
D13*
%TO.C,H19*%
X32750000Y-157500000D03*
%TD*%
D12*
%TO.C,H12*%
X250750000Y-154500000D03*
%TD*%
%TO.C,H17*%
X144750000Y-154500000D03*
X130750000Y-154500000D03*
X144750000Y-168500000D03*
X130750000Y-168500000D03*
%TD*%
%TO.C,H15*%
X174750000Y-228500000D03*
%TD*%
%LPD*%
M02*
