%TF.GenerationSoftware,KiCad,Pcbnew,9.0.2*%
%TF.CreationDate,2025-06-04T21:45:47+01:00*%
%TF.ProjectId,just-40-tiny,6a757374-2d34-4302-9d74-696e792e6b69,rev?*%
%TF.SameCoordinates,Original*%
%TF.FileFunction,Profile,NP*%
%FSLAX46Y46*%
G04 Gerber Fmt 4.6, Leading zero omitted, Abs format (unit mm)*
G04 Created by KiCad (PCBNEW 9.0.2) date 2025-06-04 21:45:47*
%MOMM*%
%LPD*%
G01*
G04 APERTURE LIST*
%TA.AperFunction,Profile*%
%ADD10C,0.050000*%
%TD*%
G04 APERTURE END LIST*
D10*
X256500000Y-23000000D02*
X28500000Y-23000000D01*
X256500000Y-110000000D02*
G75*
G02*
X257500000Y-111000000I0J-1000000D01*
G01*
X257500000Y-111000000D02*
X257500000Y-187000000D01*
X28500000Y-188000000D02*
G75*
G02*
X27500000Y-187000000I0J1000000D01*
G01*
X28500000Y-101000000D02*
X256500000Y-101000000D01*
X27500000Y-111000000D02*
G75*
G02*
X28500000Y-110000000I1000000J0D01*
G01*
X27500000Y-24000000D02*
G75*
G02*
X28500000Y-23000000I1000000J0D01*
G01*
X27500000Y-111000000D02*
X27500000Y-187000000D01*
X256500000Y-23000000D02*
G75*
G02*
X257500000Y-24000000I0J-1000000D01*
G01*
X257500000Y-187000000D02*
G75*
G02*
X256500000Y-188000000I-1000000J0D01*
G01*
X28500000Y-101000000D02*
G75*
G02*
X27500000Y-100000000I0J1000000D01*
G01*
X27500000Y-24000000D02*
X27500000Y-100000000D01*
X256500000Y-110000000D02*
X28500000Y-110000000D01*
X28500000Y-188000000D02*
X256500000Y-188000000D01*
X257500000Y-24000000D02*
X257500000Y-100000000D01*
X257500000Y-100000000D02*
G75*
G02*
X256500000Y-101000000I-1000000J0D01*
G01*
%TO.C,A17*%
X117849998Y-46225000D02*
X117849998Y-48425001D01*
X118349999Y-45725000D02*
X120550000Y-45725000D01*
X120549998Y-48925000D02*
X118349997Y-48925000D01*
X121050000Y-46225000D02*
X121049998Y-48425000D01*
X117849998Y-46225000D02*
G75*
G02*
X118349998Y-45725000I500001J-1D01*
G01*
X118349996Y-48925001D02*
G75*
G02*
X117849996Y-48425001I1J500001D01*
G01*
X120550000Y-45725000D02*
G75*
G02*
X121050000Y-46225000I0J-500000D01*
G01*
X121049998Y-48425000D02*
G75*
G02*
X120549998Y-48924998I-499998J0D01*
G01*
%TO.C,A2*%
X56099998Y-27225000D02*
X56099998Y-29425001D01*
X56599999Y-26725000D02*
X58800000Y-26725000D01*
X58799998Y-29925000D02*
X56599997Y-29925000D01*
X59300000Y-27225000D02*
X59299998Y-29425000D01*
X56099998Y-27225000D02*
G75*
G02*
X56599998Y-26725000I500001J-1D01*
G01*
X56599996Y-29925001D02*
G75*
G02*
X56099996Y-29425001I1J500001D01*
G01*
X58800000Y-26725000D02*
G75*
G02*
X59300000Y-27225000I0J-500000D01*
G01*
X59299998Y-29425000D02*
G75*
G02*
X58799998Y-29924998I-499998J0D01*
G01*
%TO.C,A29*%
X146349998Y-65225000D02*
X146349998Y-67425001D01*
X146849999Y-64725000D02*
X149050000Y-64725000D01*
X149049998Y-67925000D02*
X146849997Y-67925000D01*
X149550000Y-65225000D02*
X149549998Y-67425000D01*
X146349998Y-65225000D02*
G75*
G02*
X146849998Y-64725000I500001J-1D01*
G01*
X146849996Y-67925001D02*
G75*
G02*
X146349996Y-67425001I1J500001D01*
G01*
X149050000Y-64725000D02*
G75*
G02*
X149550000Y-65225000I0J-500000D01*
G01*
X149549998Y-67425000D02*
G75*
G02*
X149049998Y-67924998I-499998J0D01*
G01*
%TO.C,A15*%
X79849998Y-46225000D02*
X79849998Y-48425001D01*
X80349999Y-45725000D02*
X82550000Y-45725000D01*
X82549998Y-48925000D02*
X80349997Y-48925000D01*
X83050000Y-46225000D02*
X83049998Y-48425000D01*
X79849998Y-46225000D02*
G75*
G02*
X80349998Y-45725000I500001J-1D01*
G01*
X80349996Y-48925001D02*
G75*
G02*
X79849996Y-48425001I1J500001D01*
G01*
X82550000Y-45725000D02*
G75*
G02*
X83050000Y-46225000I0J-500000D01*
G01*
X83049998Y-48425000D02*
G75*
G02*
X82549998Y-48924998I-499998J0D01*
G01*
%TO.C,A38*%
X170099998Y-84225000D02*
X170099998Y-86425001D01*
X170599999Y-83725000D02*
X172800000Y-83725000D01*
X172799998Y-86925000D02*
X170599997Y-86925000D01*
X173300000Y-84225000D02*
X173299998Y-86425000D01*
X170099998Y-84225000D02*
G75*
G02*
X170599998Y-83725000I500001J-1D01*
G01*
X170599996Y-86925001D02*
G75*
G02*
X170099996Y-86425001I1J500001D01*
G01*
X172800000Y-83725000D02*
G75*
G02*
X173300000Y-84225000I0J-500000D01*
G01*
X173299998Y-86425000D02*
G75*
G02*
X172799998Y-86924998I-499998J0D01*
G01*
%TO.C,A33*%
X231849998Y-65225000D02*
X231849998Y-67425001D01*
X232349999Y-64725000D02*
X234550000Y-64725000D01*
X234549998Y-67925000D02*
X232349997Y-67925000D01*
X235050000Y-65225000D02*
X235049998Y-67425000D01*
X231849998Y-65225000D02*
G75*
G02*
X232349998Y-64725000I500001J-1D01*
G01*
X232349996Y-67925001D02*
G75*
G02*
X231849996Y-67425001I1J500001D01*
G01*
X234550000Y-64725000D02*
G75*
G02*
X235050000Y-65225000I0J-500000D01*
G01*
X235049998Y-67425000D02*
G75*
G02*
X234549998Y-67924998I-499998J0D01*
G01*
%TO.C,A13*%
X41849998Y-46225000D02*
X41849998Y-48425001D01*
X42349999Y-45725000D02*
X44550000Y-45725000D01*
X44549998Y-48925000D02*
X42349997Y-48925000D01*
X45050000Y-46225000D02*
X45049998Y-48425000D01*
X41849998Y-46225000D02*
G75*
G02*
X42349998Y-45725000I500001J-1D01*
G01*
X42349996Y-48925001D02*
G75*
G02*
X41849996Y-48425001I1J500001D01*
G01*
X44550000Y-45725000D02*
G75*
G02*
X45050000Y-46225000I0J-500000D01*
G01*
X45049998Y-48425000D02*
G75*
G02*
X44549998Y-48924998I-499998J0D01*
G01*
%TO.C,A28*%
X127349998Y-65225000D02*
X127349998Y-67425001D01*
X127849999Y-64725000D02*
X130050000Y-64725000D01*
X130049998Y-67925000D02*
X127849997Y-67925000D01*
X130550000Y-65225000D02*
X130549998Y-67425000D01*
X127349998Y-65225000D02*
G75*
G02*
X127849998Y-64725000I500001J-1D01*
G01*
X127849996Y-67925001D02*
G75*
G02*
X127349996Y-67425001I1J500001D01*
G01*
X130050000Y-64725000D02*
G75*
G02*
X130550000Y-65225000I0J-500000D01*
G01*
X130549998Y-67425000D02*
G75*
G02*
X130049998Y-67924998I-499998J0D01*
G01*
%TO.C,A4*%
X94099998Y-27225000D02*
X94099998Y-29425001D01*
X94599999Y-26725000D02*
X96800000Y-26725000D01*
X96799998Y-29925000D02*
X94599997Y-29925000D01*
X97300000Y-27225000D02*
X97299998Y-29425000D01*
X94099998Y-27225000D02*
G75*
G02*
X94599998Y-26725000I500001J-1D01*
G01*
X94599996Y-29925001D02*
G75*
G02*
X94099996Y-29425001I1J500001D01*
G01*
X96800000Y-26725000D02*
G75*
G02*
X97300000Y-27225000I0J-500000D01*
G01*
X97299998Y-29425000D02*
G75*
G02*
X96799998Y-29924998I-499998J0D01*
G01*
%TO.C,A22*%
X212849998Y-46225000D02*
X212849998Y-48425001D01*
X213349999Y-45725000D02*
X215550000Y-45725000D01*
X215549998Y-48925000D02*
X213349997Y-48925000D01*
X216050000Y-46225000D02*
X216049998Y-48425000D01*
X212849998Y-46225000D02*
G75*
G02*
X213349998Y-45725000I500001J-1D01*
G01*
X213349996Y-48925001D02*
G75*
G02*
X212849996Y-48425001I1J500001D01*
G01*
X215550000Y-45725000D02*
G75*
G02*
X216050000Y-46225000I0J-500000D01*
G01*
X216049998Y-48425000D02*
G75*
G02*
X215549998Y-48924998I-499998J0D01*
G01*
%TO.C,A30*%
X165349998Y-65225000D02*
X165349998Y-67425001D01*
X165849999Y-64725000D02*
X168050000Y-64725000D01*
X168049998Y-67925000D02*
X165849997Y-67925000D01*
X168550000Y-65225000D02*
X168549998Y-67425000D01*
X165349998Y-65225000D02*
G75*
G02*
X165849998Y-64725000I500001J-1D01*
G01*
X165849996Y-67925001D02*
G75*
G02*
X165349996Y-67425001I1J500001D01*
G01*
X168050000Y-64725000D02*
G75*
G02*
X168550000Y-65225000I0J-500000D01*
G01*
X168549998Y-67425000D02*
G75*
G02*
X168049998Y-67924998I-499998J0D01*
G01*
%TO.C,A7*%
X151099998Y-27225000D02*
X151099998Y-29425001D01*
X151599999Y-26725000D02*
X153800000Y-26725000D01*
X153799998Y-29925000D02*
X151599997Y-29925000D01*
X154300000Y-27225000D02*
X154299998Y-29425000D01*
X151099998Y-27225000D02*
G75*
G02*
X151599998Y-26725000I500001J-1D01*
G01*
X151599996Y-29925001D02*
G75*
G02*
X151099996Y-29425001I1J500001D01*
G01*
X153800000Y-26725000D02*
G75*
G02*
X154300000Y-27225000I0J-500000D01*
G01*
X154299998Y-29425000D02*
G75*
G02*
X153799998Y-29924998I-499998J0D01*
G01*
%TO.C,A14*%
X60849998Y-46225000D02*
X60849998Y-48425001D01*
X61349999Y-45725000D02*
X63550000Y-45725000D01*
X63549998Y-48925000D02*
X61349997Y-48925000D01*
X64050000Y-46225000D02*
X64049998Y-48425000D01*
X60849998Y-46225000D02*
G75*
G02*
X61349998Y-45725000I500001J-1D01*
G01*
X61349996Y-48925001D02*
G75*
G02*
X60849996Y-48425001I1J500001D01*
G01*
X63550000Y-45725000D02*
G75*
G02*
X64050000Y-46225000I0J-500000D01*
G01*
X64049998Y-48425000D02*
G75*
G02*
X63549998Y-48924998I-499998J0D01*
G01*
%TO.C,A16*%
X98849998Y-46225000D02*
X98849998Y-48425001D01*
X99349999Y-45725000D02*
X101550000Y-45725000D01*
X101549998Y-48925000D02*
X99349997Y-48925000D01*
X102050000Y-46225000D02*
X102049998Y-48425000D01*
X98849998Y-46225000D02*
G75*
G02*
X99349998Y-45725000I500001J-1D01*
G01*
X99349996Y-48925001D02*
G75*
G02*
X98849996Y-48425001I1J500001D01*
G01*
X101550000Y-45725000D02*
G75*
G02*
X102050000Y-46225000I0J-500000D01*
G01*
X102049998Y-48425000D02*
G75*
G02*
X101549998Y-48924998I-499998J0D01*
G01*
%TO.C,A36*%
X113099998Y-84225000D02*
X113099998Y-86425001D01*
X113599999Y-83725000D02*
X115800000Y-83725000D01*
X115799998Y-86925000D02*
X113599997Y-86925000D01*
X116300000Y-84225000D02*
X116299998Y-86425000D01*
X113099998Y-84225000D02*
G75*
G02*
X113599998Y-83725000I500001J-1D01*
G01*
X113599996Y-86925001D02*
G75*
G02*
X113099996Y-86425001I1J500001D01*
G01*
X115800000Y-83725000D02*
G75*
G02*
X116300000Y-84225000I0J-500000D01*
G01*
X116299998Y-86425000D02*
G75*
G02*
X115799998Y-86924998I-499998J0D01*
G01*
%TO.C,A11*%
X227099998Y-27225000D02*
X227099998Y-29425001D01*
X227599999Y-26725000D02*
X229800000Y-26725000D01*
X229799998Y-29925000D02*
X227599997Y-29925000D01*
X230300000Y-27225000D02*
X230299998Y-29425000D01*
X227099998Y-27225000D02*
G75*
G02*
X227599998Y-26725000I500001J-1D01*
G01*
X227599996Y-29925001D02*
G75*
G02*
X227099996Y-29425001I1J500001D01*
G01*
X229800000Y-26725000D02*
G75*
G02*
X230300000Y-27225000I0J-500000D01*
G01*
X230299998Y-29425000D02*
G75*
G02*
X229799998Y-29924998I-499998J0D01*
G01*
%TO.C,A21*%
X193849998Y-46225000D02*
X193849998Y-48425001D01*
X194349999Y-45725000D02*
X196550000Y-45725000D01*
X196549998Y-48925000D02*
X194349997Y-48925000D01*
X197050000Y-46225000D02*
X197049998Y-48425000D01*
X193849998Y-46225000D02*
G75*
G02*
X194349998Y-45725000I500001J-1D01*
G01*
X194349996Y-48925001D02*
G75*
G02*
X193849996Y-48425001I1J500001D01*
G01*
X196550000Y-45725000D02*
G75*
G02*
X197050000Y-46225000I0J-500000D01*
G01*
X197049998Y-48425000D02*
G75*
G02*
X196549998Y-48924998I-499998J0D01*
G01*
%TO.C,A23*%
X241349998Y-46225000D02*
X241349998Y-48425001D01*
X241849999Y-45725000D02*
X244050000Y-45725000D01*
X244049998Y-48925000D02*
X241849997Y-48925000D01*
X244550000Y-46225000D02*
X244549998Y-48425000D01*
X241349998Y-46225000D02*
G75*
G02*
X241849998Y-45725000I500001J-1D01*
G01*
X241849996Y-48925001D02*
G75*
G02*
X241349996Y-48425001I1J500001D01*
G01*
X244050000Y-45725000D02*
G75*
G02*
X244550000Y-46225000I0J-500000D01*
G01*
X244549998Y-48425000D02*
G75*
G02*
X244049998Y-48924998I-499998J0D01*
G01*
%TO.C,A10*%
X208099998Y-27225000D02*
X208099998Y-29425001D01*
X208599999Y-26725000D02*
X210800000Y-26725000D01*
X210799998Y-29925000D02*
X208599997Y-29925000D01*
X211300000Y-27225000D02*
X211299998Y-29425000D01*
X208099998Y-27225000D02*
G75*
G02*
X208599998Y-26725000I500001J-1D01*
G01*
X208599996Y-29925001D02*
G75*
G02*
X208099996Y-29425001I1J500001D01*
G01*
X210800000Y-26725000D02*
G75*
G02*
X211300000Y-27225000I0J-500000D01*
G01*
X211299998Y-29425000D02*
G75*
G02*
X210799998Y-29924998I-499998J0D01*
G01*
%TO.C,A12*%
X246099998Y-27225000D02*
X246099998Y-29425001D01*
X246599999Y-26725000D02*
X248800000Y-26725000D01*
X248799998Y-29925000D02*
X246599997Y-29925000D01*
X249300000Y-27225000D02*
X249299998Y-29425000D01*
X246099998Y-27225000D02*
G75*
G02*
X246599998Y-26725000I500001J-1D01*
G01*
X246599996Y-29925001D02*
G75*
G02*
X246099996Y-29425001I1J500001D01*
G01*
X248800000Y-26725000D02*
G75*
G02*
X249300000Y-27225000I0J-500000D01*
G01*
X249299998Y-29425000D02*
G75*
G02*
X248799998Y-29924998I-499998J0D01*
G01*
%TO.C,A40*%
X217599998Y-84225000D02*
X217599998Y-86425001D01*
X218099999Y-83725000D02*
X220300000Y-83725000D01*
X220299998Y-86925000D02*
X218099997Y-86925000D01*
X220800000Y-84225000D02*
X220799998Y-86425000D01*
X217599998Y-84225000D02*
G75*
G02*
X218099998Y-83725000I500001J-1D01*
G01*
X218099996Y-86925001D02*
G75*
G02*
X217599996Y-86425001I1J500001D01*
G01*
X220300000Y-83725000D02*
G75*
G02*
X220800000Y-84225000I0J-500000D01*
G01*
X220799998Y-86425000D02*
G75*
G02*
X220299998Y-86924998I-499998J0D01*
G01*
%TO.C,A34*%
X65599998Y-84225000D02*
X65599998Y-86425001D01*
X66099999Y-83725000D02*
X68300000Y-83725000D01*
X68299998Y-86925000D02*
X66099997Y-86925000D01*
X68800000Y-84225000D02*
X68799998Y-86425000D01*
X65599998Y-84225000D02*
G75*
G02*
X66099998Y-83725000I500001J-1D01*
G01*
X66099996Y-86925001D02*
G75*
G02*
X65599996Y-86425001I1J500001D01*
G01*
X68300000Y-83725000D02*
G75*
G02*
X68800000Y-84225000I0J-500000D01*
G01*
X68799998Y-86425000D02*
G75*
G02*
X68299998Y-86924998I-499998J0D01*
G01*
%TO.C,A26*%
X89349998Y-65225000D02*
X89349998Y-67425001D01*
X89849999Y-64725000D02*
X92050000Y-64725000D01*
X92049998Y-67925000D02*
X89849997Y-67925000D01*
X92550000Y-65225000D02*
X92549998Y-67425000D01*
X89349998Y-65225000D02*
G75*
G02*
X89849998Y-64725000I500001J-1D01*
G01*
X89849996Y-67925001D02*
G75*
G02*
X89349996Y-67425001I1J500001D01*
G01*
X92050000Y-64725000D02*
G75*
G02*
X92550000Y-65225000I0J-500000D01*
G01*
X92549998Y-67425000D02*
G75*
G02*
X92049998Y-67924998I-499998J0D01*
G01*
%TO.C,A9*%
X189099998Y-27225000D02*
X189099998Y-29425001D01*
X189599999Y-26725000D02*
X191800000Y-26725000D01*
X191799998Y-29925000D02*
X189599997Y-29925000D01*
X192300000Y-27225000D02*
X192299998Y-29425000D01*
X189099998Y-27225000D02*
G75*
G02*
X189599998Y-26725000I500001J-1D01*
G01*
X189599996Y-29925001D02*
G75*
G02*
X189099996Y-29425001I1J500001D01*
G01*
X191800000Y-26725000D02*
G75*
G02*
X192300000Y-27225000I0J-500000D01*
G01*
X192299998Y-29425000D02*
G75*
G02*
X191799998Y-29924998I-499998J0D01*
G01*
%TO.C,A6*%
X132099998Y-27225000D02*
X132099998Y-29425001D01*
X132599999Y-26725000D02*
X134800000Y-26725000D01*
X134799998Y-29925000D02*
X132599997Y-29925000D01*
X135300000Y-27225000D02*
X135299998Y-29425000D01*
X132099998Y-27225000D02*
G75*
G02*
X132599998Y-26725000I500001J-1D01*
G01*
X132599996Y-29925001D02*
G75*
G02*
X132099996Y-29425001I1J500001D01*
G01*
X134800000Y-26725000D02*
G75*
G02*
X135300000Y-27225000I0J-500000D01*
G01*
X135299998Y-29425000D02*
G75*
G02*
X134799998Y-29924998I-499998J0D01*
G01*
%TO.C,A18*%
X136849998Y-46225000D02*
X136849998Y-48425001D01*
X137349999Y-45725000D02*
X139550000Y-45725000D01*
X139549998Y-48925000D02*
X137349997Y-48925000D01*
X140050000Y-46225000D02*
X140049998Y-48425000D01*
X136849998Y-46225000D02*
G75*
G02*
X137349998Y-45725000I500001J-1D01*
G01*
X137349996Y-48925001D02*
G75*
G02*
X136849996Y-48425001I1J500001D01*
G01*
X139550000Y-45725000D02*
G75*
G02*
X140050000Y-46225000I0J-500000D01*
G01*
X140049998Y-48425000D02*
G75*
G02*
X139549998Y-48924998I-499998J0D01*
G01*
%TO.C,A27*%
X108349998Y-65225000D02*
X108349998Y-67425001D01*
X108849999Y-64725000D02*
X111050000Y-64725000D01*
X111049998Y-67925000D02*
X108849997Y-67925000D01*
X111550000Y-65225000D02*
X111549998Y-67425000D01*
X108349998Y-65225000D02*
G75*
G02*
X108849998Y-64725000I500001J-1D01*
G01*
X108849996Y-67925001D02*
G75*
G02*
X108349996Y-67425001I1J500001D01*
G01*
X111050000Y-64725000D02*
G75*
G02*
X111550000Y-65225000I0J-500000D01*
G01*
X111549998Y-67425000D02*
G75*
G02*
X111049998Y-67924998I-499998J0D01*
G01*
%TO.C,A1*%
X37099998Y-27225000D02*
X37099998Y-29425001D01*
X37599999Y-26725000D02*
X39800000Y-26725000D01*
X39799998Y-29925000D02*
X37599997Y-29925000D01*
X40300000Y-27225000D02*
X40299998Y-29425000D01*
X37099998Y-27225000D02*
G75*
G02*
X37599998Y-26725000I500001J-1D01*
G01*
X37599996Y-29925001D02*
G75*
G02*
X37099996Y-29425001I1J500001D01*
G01*
X39800000Y-26725000D02*
G75*
G02*
X40300000Y-27225000I0J-500000D01*
G01*
X40299998Y-29425000D02*
G75*
G02*
X39799998Y-29924998I-499998J0D01*
G01*
%TO.C,A37*%
X141599998Y-84225000D02*
X141599998Y-86425001D01*
X142099999Y-83725000D02*
X144300000Y-83725000D01*
X144299998Y-86925000D02*
X142099997Y-86925000D01*
X144800000Y-84225000D02*
X144799998Y-86425000D01*
X141599998Y-84225000D02*
G75*
G02*
X142099998Y-83725000I500001J-1D01*
G01*
X142099996Y-86925001D02*
G75*
G02*
X141599996Y-86425001I1J500001D01*
G01*
X144300000Y-83725000D02*
G75*
G02*
X144800000Y-84225000I0J-500000D01*
G01*
X144799998Y-86425000D02*
G75*
G02*
X144299998Y-86924998I-499998J0D01*
G01*
%TO.C,A20*%
X174849998Y-46225000D02*
X174849998Y-48425001D01*
X175349999Y-45725000D02*
X177550000Y-45725000D01*
X177549998Y-48925000D02*
X175349997Y-48925000D01*
X178050000Y-46225000D02*
X178049998Y-48425000D01*
X174849998Y-46225000D02*
G75*
G02*
X175349998Y-45725000I500001J-1D01*
G01*
X175349996Y-48925001D02*
G75*
G02*
X174849996Y-48425001I1J500001D01*
G01*
X177550000Y-45725000D02*
G75*
G02*
X178050000Y-46225000I0J-500000D01*
G01*
X178049998Y-48425000D02*
G75*
G02*
X177549998Y-48924998I-499998J0D01*
G01*
%TO.C,A19*%
X155849998Y-46225000D02*
X155849998Y-48425001D01*
X156349999Y-45725000D02*
X158550000Y-45725000D01*
X158549998Y-48925000D02*
X156349997Y-48925000D01*
X159050000Y-46225000D02*
X159049998Y-48425000D01*
X155849998Y-46225000D02*
G75*
G02*
X156349998Y-45725000I500001J-1D01*
G01*
X156349996Y-48925001D02*
G75*
G02*
X155849996Y-48425001I1J500001D01*
G01*
X158550000Y-45725000D02*
G75*
G02*
X159050000Y-46225000I0J-500000D01*
G01*
X159049998Y-48425000D02*
G75*
G02*
X158549998Y-48924998I-499998J0D01*
G01*
%TO.C,A31*%
X184349998Y-65225000D02*
X184349998Y-67425001D01*
X184849999Y-64725000D02*
X187050000Y-64725000D01*
X187049998Y-67925000D02*
X184849997Y-67925000D01*
X187550000Y-65225000D02*
X187549998Y-67425000D01*
X184349998Y-65225000D02*
G75*
G02*
X184849998Y-64725000I500001J-1D01*
G01*
X184849996Y-67925001D02*
G75*
G02*
X184349996Y-67425001I1J500001D01*
G01*
X187050000Y-64725000D02*
G75*
G02*
X187550000Y-65225000I0J-500000D01*
G01*
X187549998Y-67425000D02*
G75*
G02*
X187049998Y-67924998I-499998J0D01*
G01*
%TO.C,A24*%
X51349998Y-65225000D02*
X51349998Y-67425001D01*
X51849999Y-64725000D02*
X54050000Y-64725000D01*
X54049998Y-67925000D02*
X51849997Y-67925000D01*
X54550000Y-65225000D02*
X54549998Y-67425000D01*
X51349998Y-65225000D02*
G75*
G02*
X51849998Y-64725000I500001J-1D01*
G01*
X51849996Y-67925001D02*
G75*
G02*
X51349996Y-67425001I1J500001D01*
G01*
X54050000Y-64725000D02*
G75*
G02*
X54550000Y-65225000I0J-500000D01*
G01*
X54549998Y-67425000D02*
G75*
G02*
X54049998Y-67924998I-499998J0D01*
G01*
%TO.C,A32*%
X208099998Y-65225000D02*
X208099998Y-67425001D01*
X208599999Y-64725000D02*
X210800000Y-64725000D01*
X210799998Y-67925000D02*
X208599997Y-67925000D01*
X211300000Y-65225000D02*
X211299998Y-67425000D01*
X208099998Y-65225000D02*
G75*
G02*
X208599998Y-64725000I500001J-1D01*
G01*
X208599996Y-67925001D02*
G75*
G02*
X208099996Y-67425001I1J500001D01*
G01*
X210800000Y-64725000D02*
G75*
G02*
X211300000Y-65225000I0J-500000D01*
G01*
X211299998Y-67425000D02*
G75*
G02*
X210799998Y-67924998I-499998J0D01*
G01*
%TO.C,A8*%
X170099998Y-27225000D02*
X170099998Y-29425001D01*
X170599999Y-26725000D02*
X172800000Y-26725000D01*
X172799998Y-29925000D02*
X170599997Y-29925000D01*
X173300000Y-27225000D02*
X173299998Y-29425000D01*
X170099998Y-27225000D02*
G75*
G02*
X170599998Y-26725000I500001J-1D01*
G01*
X170599996Y-29925001D02*
G75*
G02*
X170099996Y-29425001I1J500001D01*
G01*
X172800000Y-26725000D02*
G75*
G02*
X173300000Y-27225000I0J-500000D01*
G01*
X173299998Y-29425000D02*
G75*
G02*
X172799998Y-29924998I-499998J0D01*
G01*
%TO.C,A25*%
X70349998Y-65225000D02*
X70349998Y-67425001D01*
X70849999Y-64725000D02*
X73050000Y-64725000D01*
X73049998Y-67925000D02*
X70849997Y-67925000D01*
X73550000Y-65225000D02*
X73549998Y-67425000D01*
X70349998Y-65225000D02*
G75*
G02*
X70849998Y-64725000I500001J-1D01*
G01*
X70849996Y-67925001D02*
G75*
G02*
X70349996Y-67425001I1J500001D01*
G01*
X73050000Y-64725000D02*
G75*
G02*
X73550000Y-65225000I0J-500000D01*
G01*
X73549998Y-67425000D02*
G75*
G02*
X73049998Y-67924998I-499998J0D01*
G01*
%TO.C,A3*%
X75099998Y-27225000D02*
X75099998Y-29425001D01*
X75599999Y-26725000D02*
X77800000Y-26725000D01*
X77799998Y-29925000D02*
X75599997Y-29925000D01*
X78300000Y-27225000D02*
X78299998Y-29425000D01*
X75099998Y-27225000D02*
G75*
G02*
X75599998Y-26725000I500001J-1D01*
G01*
X75599996Y-29925001D02*
G75*
G02*
X75099996Y-29425001I1J500001D01*
G01*
X77800000Y-26725000D02*
G75*
G02*
X78300000Y-27225000I0J-500000D01*
G01*
X78299998Y-29425000D02*
G75*
G02*
X77799998Y-29924998I-499998J0D01*
G01*
%TO.C,A35*%
X89349998Y-84225000D02*
X89349998Y-86425001D01*
X89849999Y-83725000D02*
X92050000Y-83725000D01*
X92049998Y-86925000D02*
X89849997Y-86925000D01*
X92550000Y-84225000D02*
X92549998Y-86425000D01*
X89349998Y-84225000D02*
G75*
G02*
X89849998Y-83725000I500001J-1D01*
G01*
X89849996Y-86925001D02*
G75*
G02*
X89349996Y-86425001I1J500001D01*
G01*
X92050000Y-83725000D02*
G75*
G02*
X92550000Y-84225000I0J-500000D01*
G01*
X92549998Y-86425000D02*
G75*
G02*
X92049998Y-86924998I-499998J0D01*
G01*
%TO.C,A5*%
X113099998Y-27225000D02*
X113099998Y-29425001D01*
X113599999Y-26725000D02*
X115800000Y-26725000D01*
X115799998Y-29925000D02*
X113599997Y-29925000D01*
X116300000Y-27225000D02*
X116299998Y-29425000D01*
X113099998Y-27225000D02*
G75*
G02*
X113599998Y-26725000I500001J-1D01*
G01*
X113599996Y-29925001D02*
G75*
G02*
X113099996Y-29425001I1J500001D01*
G01*
X115800000Y-26725000D02*
G75*
G02*
X116300000Y-27225000I0J-500000D01*
G01*
X116299998Y-29425000D02*
G75*
G02*
X115799998Y-29924998I-499998J0D01*
G01*
%TO.C,A39*%
X193849998Y-84225000D02*
X193849998Y-86425001D01*
X194349999Y-83725000D02*
X196550000Y-83725000D01*
X196549998Y-86925000D02*
X194349997Y-86925000D01*
X197050000Y-84225000D02*
X197049998Y-86425000D01*
X193849998Y-84225000D02*
G75*
G02*
X194349998Y-83725000I500001J-1D01*
G01*
X194349996Y-86925001D02*
G75*
G02*
X193849996Y-86425001I1J500001D01*
G01*
X196550000Y-83725000D02*
G75*
G02*
X197050000Y-84225000I0J-500000D01*
G01*
X197049998Y-86425000D02*
G75*
G02*
X196549998Y-86924998I-499998J0D01*
G01*
%TD*%
M02*
