M48
; DRILL file {KiCad 9.0.2} date 2025-06-04T21:45:54+0100
; FORMAT={-:-/ absolute / metric / decimal}
; #@! TF.CreationDate,2025-06-04T21:45:54+01:00
; #@! TF.GenerationSoftware,Kicad,Pcbnew,9.0.2
; #@! TF.FileFunction,Plated,1,2,PTH
FMAT,2
METRIC
; #@! TA.AperFunction,Plated,PTH,ViaDrill
T1C0.300
; #@! TA.AperFunction,Plated,PTH,ComponentDrill
T2C1.500
%
G90
G05
T1
X29.5Y-27.575
X29.5Y-29.075
X29.5Y-48.075
X29.5Y-67.075
X29.5Y-95.5
X30.5Y-36.25
X30.5Y-78.25
X31.5Y-41.75
X31.5Y-78.25
X32.5Y-42.5
X32.5Y-78.25
X33.5Y-43.25
X33.5Y-78.25
X34.5Y-55.25
X34.5Y-78.25
X35.5Y-60.25
X35.5Y-78.25
X36.5Y-61.0
X36.5Y-78.25
X37.5Y-61.75
X37.5Y-78.25
X38.5Y-62.5
X38.5Y-78.25
X44.25Y-90.237
X44.25Y-91.25
X45.725Y-25.75
X50.475Y-44.75
X59.975Y-63.75
X59.975Y-82.75
X60.237Y-90.237
X60.25Y-91.25
X62.5Y-81.75
X62.5Y-84.575
X251.979Y-32.729
X254.0Y-50.175
X254.0Y-69.124
X254.0Y-88.175
X254.75Y-27.575
X254.75Y-29.075
X254.75Y-44.0
X254.75Y-48.075
X254.75Y-63.0
X254.75Y-67.075
X254.75Y-81.75
X255.5Y-36.05
X255.5Y-74.05
X256.599Y-46.575
X256.599Y-65.575
X256.599Y-84.5
T2
X33.6Y-38.2
X38.35Y-57.2
X40.6Y-39.25
X45.35Y-58.25
X47.85Y-76.2
X52.6Y-38.2
X54.85Y-77.25
X57.35Y-57.2
X59.6Y-39.25
X62.1Y-95.2
X64.35Y-58.25
X66.85Y-76.2
X69.1Y-96.25
X71.6Y-38.2
X73.85Y-77.25
X76.35Y-57.2
X78.6Y-39.25
X83.35Y-58.25
X85.85Y-76.2
X85.85Y-95.2
X90.6Y-38.2
X92.85Y-77.25
X92.85Y-96.25
X95.35Y-57.2
X97.6Y-39.25
X102.35Y-58.25
X104.85Y-76.2
X109.6Y-38.2
X109.6Y-95.2
X111.85Y-77.25
X114.35Y-57.2
X116.6Y-39.25
X116.6Y-96.25
X121.35Y-58.25
X123.85Y-76.2
X128.6Y-38.2
X130.85Y-77.25
X133.35Y-57.2
X135.6Y-39.25
X138.1Y-95.2
X140.35Y-58.25
X142.85Y-76.2
X145.1Y-96.25
X147.6Y-38.2
X149.85Y-77.25
X152.35Y-57.2
X154.6Y-39.25
X159.35Y-58.25
X161.85Y-76.2
X166.6Y-38.2
X166.6Y-95.2
X168.85Y-77.25
X171.35Y-57.2
X173.6Y-39.25
X173.6Y-96.25
X178.35Y-58.25
X180.85Y-76.2
X185.6Y-38.2
X187.85Y-77.25
X190.35Y-57.2
X190.35Y-95.2
X192.6Y-39.25
X197.35Y-58.25
X197.35Y-96.25
X204.6Y-38.2
X204.6Y-76.2
X209.35Y-57.2
X211.6Y-39.25
X211.6Y-77.25
X214.1Y-95.2
X216.35Y-58.25
X221.1Y-96.25
X223.6Y-38.2
X228.35Y-76.2
X230.6Y-39.25
X235.35Y-77.25
X237.85Y-57.2
X242.6Y-38.2
X244.85Y-58.25
X249.6Y-39.25
M30
