%TF.GenerationSoftware,KiCad,Pcbnew,9.0.2*%
%TF.CreationDate,2025-06-04T21:45:47+01:00*%
%TF.ProjectId,just-40-tiny,6a757374-2d34-4302-9d74-696e792e6b69,rev?*%
%TF.SameCoordinates,Original*%
%TF.FileFunction,Soldermask,Top*%
%TF.FilePolarity,Negative*%
%FSLAX46Y46*%
G04 Gerber Fmt 4.6, Leading zero omitted, Abs format (unit mm)*
G04 Created by KiCad (PCBNEW 9.0.2) date 2025-06-04 21:45:47*
%MOMM*%
%LPD*%
G01*
G04 APERTURE LIST*
%ADD10C,5.250000*%
%ADD11C,3.000000*%
%ADD12C,2.000000*%
G04 APERTURE END LIST*
D10*
%TO.C,A17*%
X118750000Y-52500000D03*
D11*
X114350000Y-57200000D03*
X121350000Y-58250000D03*
%TD*%
D10*
%TO.C,A2*%
X57000000Y-33500000D03*
D11*
X52600000Y-38200000D03*
X59600000Y-39250000D03*
%TD*%
D12*
%TO.C,H13*%
X104500000Y-112000000D03*
%TD*%
D10*
%TO.C,A29*%
X147250000Y-71500000D03*
D11*
X142850000Y-76200000D03*
X149850000Y-77250000D03*
%TD*%
D10*
%TO.C,A15*%
X80750000Y-52500000D03*
D11*
X76350000Y-57200000D03*
X83350000Y-58250000D03*
%TD*%
D10*
%TO.C,A38*%
X171000000Y-90500000D03*
D11*
X166600000Y-95200000D03*
X173600000Y-96250000D03*
%TD*%
D12*
%TO.C,H21*%
X255500000Y-186000000D03*
%TD*%
D10*
%TO.C,A33*%
X232750000Y-71500000D03*
D11*
X228350000Y-76200000D03*
X235350000Y-77250000D03*
%TD*%
D10*
%TO.C,A13*%
X42750000Y-52500000D03*
D11*
X38350000Y-57200000D03*
X45350000Y-58250000D03*
%TD*%
D10*
%TO.C,A28*%
X128250000Y-71500000D03*
D11*
X123850000Y-76200000D03*
X130850000Y-77250000D03*
%TD*%
D10*
%TO.C,A4*%
X95000000Y-33500000D03*
D11*
X90600000Y-38200000D03*
X97600000Y-39250000D03*
%TD*%
D12*
%TO.C,H10*%
X29500000Y-112000000D03*
%TD*%
%TO.C,H5*%
X255500000Y-25000000D03*
%TD*%
%TO.C,H14*%
X180500000Y-112000000D03*
%TD*%
%TO.C,H15*%
X255500000Y-112000000D03*
%TD*%
D10*
%TO.C,A22*%
X213750000Y-52500000D03*
D11*
X209350000Y-57200000D03*
X216350000Y-58250000D03*
%TD*%
D10*
%TO.C,A30*%
X166250000Y-71500000D03*
D11*
X161850000Y-76200000D03*
X168850000Y-77250000D03*
%TD*%
D12*
%TO.C,H8*%
X180500000Y-99000000D03*
%TD*%
D10*
%TO.C,A7*%
X152000000Y-33500000D03*
D11*
X147600000Y-38200000D03*
X154600000Y-39250000D03*
%TD*%
D10*
%TO.C,A14*%
X61750000Y-52500000D03*
D11*
X57350000Y-57200000D03*
X64350000Y-58250000D03*
%TD*%
D10*
%TO.C,A16*%
X99750000Y-52500000D03*
D11*
X95350000Y-57200000D03*
X102350000Y-58250000D03*
%TD*%
D10*
%TO.C,A36*%
X114000000Y-90500000D03*
D11*
X109600000Y-95200000D03*
X116600000Y-96250000D03*
%TD*%
D10*
%TO.C,A11*%
X228000000Y-33500000D03*
D11*
X223600000Y-38200000D03*
X230600000Y-39250000D03*
%TD*%
D12*
%TO.C,H17*%
X73500000Y-126000000D03*
%TD*%
D10*
%TO.C,A21*%
X194750000Y-52500000D03*
D11*
X190350000Y-57200000D03*
X197350000Y-58250000D03*
%TD*%
D10*
%TO.C,A23*%
X242250000Y-52500000D03*
D11*
X237850000Y-57200000D03*
X244850000Y-58250000D03*
%TD*%
D10*
%TO.C,A10*%
X209000000Y-33500000D03*
D11*
X204600000Y-38200000D03*
X211600000Y-39250000D03*
%TD*%
D10*
%TO.C,A12*%
X247000000Y-33500000D03*
D11*
X242600000Y-38200000D03*
X249600000Y-39250000D03*
%TD*%
D10*
%TO.C,A40*%
X218500000Y-90500000D03*
D11*
X214100000Y-95200000D03*
X221100000Y-96250000D03*
%TD*%
D12*
%TO.C,H7*%
X104500000Y-99000000D03*
%TD*%
D10*
%TO.C,A34*%
X66500000Y-90500000D03*
D11*
X62100000Y-95200000D03*
X69100000Y-96250000D03*
%TD*%
D10*
%TO.C,A26*%
X90250000Y-71500000D03*
D11*
X85850000Y-76200000D03*
X92850000Y-77250000D03*
%TD*%
D10*
%TO.C,A9*%
X190000000Y-33500000D03*
D11*
X185600000Y-38200000D03*
X192600000Y-39250000D03*
%TD*%
D12*
%TO.C,H12*%
X73500000Y-112000000D03*
%TD*%
D10*
%TO.C,A6*%
X133000000Y-33500000D03*
D11*
X128600000Y-38200000D03*
X135600000Y-39250000D03*
%TD*%
D10*
%TO.C,A18*%
X137750000Y-52500000D03*
D11*
X133350000Y-57200000D03*
X140350000Y-58250000D03*
%TD*%
D10*
%TO.C,A27*%
X109250000Y-71500000D03*
D11*
X104850000Y-76200000D03*
X111850000Y-77250000D03*
%TD*%
D10*
%TO.C,A1*%
X38000000Y-33500000D03*
D11*
X33600000Y-38200000D03*
X40600000Y-39250000D03*
%TD*%
D10*
%TO.C,A37*%
X142500000Y-90500000D03*
D11*
X138100000Y-95200000D03*
X145100000Y-96250000D03*
%TD*%
D10*
%TO.C,A20*%
X175750000Y-52500000D03*
D11*
X171350000Y-57200000D03*
X178350000Y-58250000D03*
%TD*%
D12*
%TO.C,H3*%
X104500000Y-25000000D03*
%TD*%
D10*
%TO.C,A19*%
X156750000Y-52500000D03*
D11*
X152350000Y-57200000D03*
X159350000Y-58250000D03*
%TD*%
D10*
%TO.C,A31*%
X185250000Y-71500000D03*
D11*
X180850000Y-76200000D03*
X187850000Y-77250000D03*
%TD*%
D10*
%TO.C,A24*%
X52250000Y-71500000D03*
D11*
X47850000Y-76200000D03*
X54850000Y-77250000D03*
%TD*%
D12*
%TO.C,H11*%
X59500000Y-112000000D03*
%TD*%
%TO.C,H9*%
X255500000Y-99000000D03*
%TD*%
D10*
%TO.C,A32*%
X209000000Y-71500000D03*
D11*
X204600000Y-76200000D03*
X211600000Y-77250000D03*
%TD*%
D10*
%TO.C,A8*%
X171000000Y-33500000D03*
D11*
X166600000Y-38200000D03*
X173600000Y-39250000D03*
%TD*%
D12*
%TO.C,H6*%
X29500000Y-99000000D03*
%TD*%
%TO.C,H19*%
X104500000Y-185750000D03*
%TD*%
D10*
%TO.C,A25*%
X71250000Y-71500000D03*
D11*
X66850000Y-76200000D03*
X73850000Y-77250000D03*
%TD*%
D10*
%TO.C,A3*%
X76000000Y-33500000D03*
D11*
X71600000Y-38200000D03*
X78600000Y-39250000D03*
%TD*%
D12*
%TO.C,H16*%
X59500000Y-126000000D03*
%TD*%
%TO.C,H1*%
X29500000Y-25000000D03*
%TD*%
D10*
%TO.C,A35*%
X90250000Y-90500000D03*
D11*
X85850000Y-95200000D03*
X92850000Y-96250000D03*
%TD*%
D10*
%TO.C,A5*%
X114000000Y-33500000D03*
D11*
X109600000Y-38200000D03*
X116600000Y-39250000D03*
%TD*%
D10*
%TO.C,A39*%
X194750000Y-90500000D03*
D11*
X190350000Y-95200000D03*
X197350000Y-96250000D03*
%TD*%
D12*
%TO.C,H4*%
X180500000Y-25000000D03*
%TD*%
%TO.C,H18*%
X29500000Y-186000000D03*
%TD*%
%TO.C,H20*%
X180500000Y-186000000D03*
%TD*%
M02*
