%TF.GenerationSoftware,KiCad,Pcbnew,9.0.2*%
%TF.CreationDate,2025-06-04T21:45:47+01:00*%
%TF.ProjectId,just-40-tiny,6a757374-2d34-4302-9d74-696e792e6b69,rev?*%
%TF.SameCoordinates,Original*%
%TF.FileFunction,Paste,Bot*%
%TF.FilePolarity,Positive*%
%FSLAX46Y46*%
G04 Gerber Fmt 4.6, Leading zero omitted, Abs format (unit mm)*
G04 Created by KiCad (PCBNEW 9.0.2) date 2025-06-04 21:45:47*
%MOMM*%
%LPD*%
G01*
G04 APERTURE LIST*
G04 Aperture macros list*
%AMRoundRect*
0 Rectangle with rounded corners*
0 $1 Rounding radius*
0 $2 $3 $4 $5 $6 $7 $8 $9 X,Y pos of 4 corners*
0 Add a 4 corners polygon primitive as box body*
4,1,4,$2,$3,$4,$5,$6,$7,$8,$9,$2,$3,0*
0 Add four circle primitives for the rounded corners*
1,1,$1+$1,$2,$3*
1,1,$1+$1,$4,$5*
1,1,$1+$1,$6,$7*
1,1,$1+$1,$8,$9*
0 Add four rect primitives between the rounded corners*
20,1,$1+$1,$2,$3,$4,$5,0*
20,1,$1+$1,$4,$5,$6,$7,0*
20,1,$1+$1,$6,$7,$8,$9,0*
20,1,$1+$1,$8,$9,$2,$3,0*%
G04 Aperture macros list end*
%ADD10R,1.300000X0.820000*%
%ADD11R,2.000000X1.400000*%
%ADD12RoundRect,0.180000X-0.420000X0.420000X-0.420000X-0.420000X0.420000X-0.420000X0.420000X0.420000X0*%
%ADD13R,1.200000X1.200000*%
%ADD14O,1.600000X3.000000*%
%ADD15O,3.000000X1.600000*%
G04 APERTURE END LIST*
D10*
%TO.C,A17*%
X122250000Y-46575000D03*
X122250000Y-48075000D03*
X116650000Y-48075000D03*
X116650000Y-46575000D03*
D11*
X124650000Y-50175000D03*
X124650000Y-46575000D03*
D12*
X125050000Y-58250000D03*
D13*
X125050000Y-55050000D03*
%TD*%
D10*
%TO.C,A2*%
X60500000Y-27575000D03*
X60500000Y-29075000D03*
X54900000Y-29075000D03*
X54900000Y-27575000D03*
D11*
X62900000Y-31175000D03*
X62900000Y-27575000D03*
D12*
X63300000Y-39250000D03*
D13*
X63300000Y-36050000D03*
%TD*%
D10*
%TO.C,A29*%
X150750000Y-65575000D03*
X150750000Y-67075000D03*
X145150000Y-67075000D03*
X145150000Y-65575000D03*
D11*
X153150000Y-69175000D03*
X153150000Y-65575000D03*
D12*
X153550000Y-77250000D03*
D13*
X153550000Y-74050000D03*
%TD*%
D10*
%TO.C,A15*%
X84250000Y-46575000D03*
X84250000Y-48075000D03*
X78650000Y-48075000D03*
X78650000Y-46575000D03*
D11*
X86650000Y-50175000D03*
X86650000Y-46575000D03*
D12*
X87050000Y-58250000D03*
D13*
X87050000Y-55050000D03*
%TD*%
D10*
%TO.C,A38*%
X174500000Y-84575000D03*
X174500000Y-86075000D03*
X168900000Y-86075000D03*
X168900000Y-84575000D03*
D11*
X176900000Y-88175000D03*
X176900000Y-84575000D03*
D12*
X177300000Y-96250000D03*
D13*
X177300000Y-93050000D03*
%TD*%
D10*
%TO.C,A33*%
X236250000Y-65575000D03*
X236250000Y-67075000D03*
X230650000Y-67075000D03*
X230650000Y-65575000D03*
D11*
X238650000Y-69175000D03*
X238650000Y-65575000D03*
D12*
X239050000Y-77250000D03*
D13*
X239050000Y-74050000D03*
%TD*%
D10*
%TO.C,A13*%
X46250000Y-46575000D03*
X46250000Y-48075000D03*
X40650000Y-48075000D03*
X40650000Y-46575000D03*
D11*
X48650000Y-50175000D03*
X48650000Y-46575000D03*
D12*
X49050000Y-58250000D03*
D13*
X49050000Y-55050000D03*
%TD*%
D10*
%TO.C,A28*%
X131750000Y-65575000D03*
X131750000Y-67075000D03*
X126150000Y-67075000D03*
X126150000Y-65575000D03*
D11*
X134150000Y-69175000D03*
X134150000Y-65575000D03*
D12*
X134550000Y-77250000D03*
D13*
X134550000Y-74050000D03*
%TD*%
D10*
%TO.C,A4*%
X98500000Y-27575000D03*
X98500000Y-29075000D03*
X92900000Y-29075000D03*
X92900000Y-27575000D03*
D11*
X100900000Y-31175000D03*
X100900000Y-27575000D03*
D12*
X101300000Y-39250000D03*
D13*
X101300000Y-36050000D03*
%TD*%
D10*
%TO.C,A22*%
X217250000Y-46575000D03*
X217250000Y-48075000D03*
X211650000Y-48075000D03*
X211650000Y-46575000D03*
D11*
X219650000Y-50175000D03*
X219650000Y-46575000D03*
D12*
X220050000Y-58250000D03*
D13*
X220050000Y-55050000D03*
%TD*%
D10*
%TO.C,A30*%
X169750000Y-65575000D03*
X169750000Y-67075000D03*
X164150000Y-67075000D03*
X164150000Y-65575000D03*
D11*
X172150000Y-69175000D03*
X172150000Y-65575000D03*
D12*
X172550000Y-77250000D03*
D13*
X172550000Y-74050000D03*
%TD*%
D10*
%TO.C,A7*%
X155500000Y-27575000D03*
X155500000Y-29075000D03*
X149900000Y-29075000D03*
X149900000Y-27575000D03*
D11*
X157900000Y-31175000D03*
X157900000Y-27575000D03*
D12*
X158300000Y-39250000D03*
D13*
X158300000Y-36050000D03*
%TD*%
D10*
%TO.C,A14*%
X65250000Y-46575000D03*
X65250000Y-48075000D03*
X59650000Y-48075000D03*
X59650000Y-46575000D03*
D11*
X67650000Y-50175000D03*
X67650000Y-46575000D03*
D12*
X68050000Y-58250000D03*
D13*
X68050000Y-55050000D03*
%TD*%
D10*
%TO.C,A16*%
X103250000Y-46575000D03*
X103250000Y-48075000D03*
X97650000Y-48075000D03*
X97650000Y-46575000D03*
D11*
X105650000Y-50175000D03*
X105650000Y-46575000D03*
D12*
X106050000Y-58250000D03*
D13*
X106050000Y-55050000D03*
%TD*%
D10*
%TO.C,A36*%
X117500000Y-84575000D03*
X117500000Y-86075000D03*
X111900000Y-86075000D03*
X111900000Y-84575000D03*
D11*
X119900000Y-88175000D03*
X119900000Y-84575000D03*
D12*
X120300000Y-96250000D03*
D13*
X120300000Y-93050000D03*
%TD*%
D10*
%TO.C,A11*%
X231500000Y-27575000D03*
X231500000Y-29075000D03*
X225900000Y-29075000D03*
X225900000Y-27575000D03*
D11*
X233900000Y-31175000D03*
X233900000Y-27575000D03*
D12*
X234300000Y-39250000D03*
D13*
X234300000Y-36050000D03*
%TD*%
D10*
%TO.C,A21*%
X198250000Y-46575000D03*
X198250000Y-48075000D03*
X192650000Y-48075000D03*
X192650000Y-46575000D03*
D11*
X200650000Y-50175000D03*
X200650000Y-46575000D03*
D12*
X201050000Y-58250000D03*
D13*
X201050000Y-55050000D03*
%TD*%
D10*
%TO.C,A23*%
X245750000Y-46575000D03*
X245750000Y-48075000D03*
X240150000Y-48075000D03*
X240150000Y-46575000D03*
D11*
X248150000Y-50175000D03*
X248150000Y-46575000D03*
D12*
X248550000Y-58250000D03*
D13*
X248550000Y-55050000D03*
%TD*%
D10*
%TO.C,A10*%
X212500000Y-27575000D03*
X212500000Y-29075000D03*
X206900000Y-29075000D03*
X206900000Y-27575000D03*
D11*
X214900000Y-31175000D03*
X214900000Y-27575000D03*
D12*
X215300000Y-39250000D03*
D13*
X215300000Y-36050000D03*
%TD*%
D10*
%TO.C,A12*%
X250500000Y-27575000D03*
X250500000Y-29075000D03*
X244900000Y-29075000D03*
X244900000Y-27575000D03*
D11*
X252900000Y-31175000D03*
X252900000Y-27575000D03*
D12*
X253300000Y-39250000D03*
D13*
X253300000Y-36050000D03*
%TD*%
D10*
%TO.C,A40*%
X222000000Y-84575000D03*
X222000000Y-86075000D03*
X216400000Y-86075000D03*
X216400000Y-84575000D03*
D11*
X224400000Y-88175000D03*
X224400000Y-84575000D03*
D12*
X224800000Y-96250000D03*
D13*
X224800000Y-93050000D03*
%TD*%
D10*
%TO.C,A34*%
X70000000Y-84575000D03*
X70000000Y-86075000D03*
X64400000Y-86075000D03*
X64400000Y-84575000D03*
D11*
X72400000Y-88175000D03*
X72400000Y-84575000D03*
D12*
X72800000Y-96250000D03*
D13*
X72800000Y-93050000D03*
%TD*%
D10*
%TO.C,A26*%
X93750000Y-65575000D03*
X93750000Y-67075000D03*
X88150000Y-67075000D03*
X88150000Y-65575000D03*
D11*
X96150000Y-69175000D03*
X96150000Y-65575000D03*
D12*
X96550000Y-77250000D03*
D13*
X96550000Y-74050000D03*
%TD*%
D10*
%TO.C,A9*%
X193500000Y-27575000D03*
X193500000Y-29075000D03*
X187900000Y-29075000D03*
X187900000Y-27575000D03*
D11*
X195900000Y-31175000D03*
X195900000Y-27575000D03*
D12*
X196300000Y-39250000D03*
D13*
X196300000Y-36050000D03*
%TD*%
D10*
%TO.C,A6*%
X136500000Y-27575000D03*
X136500000Y-29075000D03*
X130900000Y-29075000D03*
X130900000Y-27575000D03*
D11*
X138900000Y-31175000D03*
X138900000Y-27575000D03*
D12*
X139300000Y-39250000D03*
D13*
X139300000Y-36050000D03*
%TD*%
D10*
%TO.C,A18*%
X141250000Y-46575000D03*
X141250000Y-48075000D03*
X135650000Y-48075000D03*
X135650000Y-46575000D03*
D11*
X143650000Y-50175000D03*
X143650000Y-46575000D03*
D12*
X144050000Y-58250000D03*
D13*
X144050000Y-55050000D03*
%TD*%
D14*
%TO.C,A41*%
X54410000Y-82190000D03*
X51870000Y-82190000D03*
X49330000Y-82190000D03*
X46790000Y-82190000D03*
X49330000Y-98810000D03*
X44250000Y-82190000D03*
X41710000Y-82190000D03*
X54410000Y-98810000D03*
X39170000Y-82190000D03*
X36630000Y-82190000D03*
X34090000Y-82190000D03*
D15*
X33400000Y-85420000D03*
X33400000Y-87960000D03*
X33400000Y-90500000D03*
X33400000Y-93040000D03*
X33400000Y-95580000D03*
D14*
X34090000Y-98810000D03*
X36630000Y-98810000D03*
X39170000Y-98810000D03*
X41710000Y-98810000D03*
X44250000Y-98810000D03*
X46790000Y-98810000D03*
X51870000Y-98810000D03*
%TD*%
D10*
%TO.C,A27*%
X112750000Y-65575000D03*
X112750000Y-67075000D03*
X107150000Y-67075000D03*
X107150000Y-65575000D03*
D11*
X115150000Y-69175000D03*
X115150000Y-65575000D03*
D12*
X115550000Y-77250000D03*
D13*
X115550000Y-74050000D03*
%TD*%
D10*
%TO.C,A1*%
X41500000Y-27575000D03*
X41500000Y-29075000D03*
X35900000Y-29075000D03*
X35900000Y-27575000D03*
D11*
X43900000Y-31175000D03*
X43900000Y-27575000D03*
D12*
X44300000Y-39250000D03*
D13*
X44300000Y-36050000D03*
%TD*%
D10*
%TO.C,A37*%
X146000000Y-84575000D03*
X146000000Y-86075000D03*
X140400000Y-86075000D03*
X140400000Y-84575000D03*
D11*
X148400000Y-88175000D03*
X148400000Y-84575000D03*
D12*
X148800000Y-96250000D03*
D13*
X148800000Y-93050000D03*
%TD*%
D10*
%TO.C,A20*%
X179250000Y-46575000D03*
X179250000Y-48075000D03*
X173650000Y-48075000D03*
X173650000Y-46575000D03*
D11*
X181650000Y-50175000D03*
X181650000Y-46575000D03*
D12*
X182050000Y-58250000D03*
D13*
X182050000Y-55050000D03*
%TD*%
D10*
%TO.C,A19*%
X160250000Y-46575000D03*
X160250000Y-48075000D03*
X154650000Y-48075000D03*
X154650000Y-46575000D03*
D11*
X162650000Y-50175000D03*
X162650000Y-46575000D03*
D12*
X163050000Y-58250000D03*
D13*
X163050000Y-55050000D03*
%TD*%
D10*
%TO.C,A31*%
X188750000Y-65575000D03*
X188750000Y-67075000D03*
X183150000Y-67075000D03*
X183150000Y-65575000D03*
D11*
X191150000Y-69175000D03*
X191150000Y-65575000D03*
D12*
X191550000Y-77250000D03*
D13*
X191550000Y-74050000D03*
%TD*%
D10*
%TO.C,A24*%
X55750000Y-65575000D03*
X55750000Y-67075000D03*
X50150000Y-67075000D03*
X50150000Y-65575000D03*
D11*
X58150000Y-69175000D03*
X58150000Y-65575000D03*
D12*
X58550000Y-77250000D03*
D13*
X58550000Y-74050000D03*
%TD*%
D10*
%TO.C,A32*%
X212500000Y-65575000D03*
X212500000Y-67075000D03*
X206900000Y-67075000D03*
X206900000Y-65575000D03*
D11*
X214900000Y-69175000D03*
X214900000Y-65575000D03*
D12*
X215300000Y-77250000D03*
D13*
X215300000Y-74050000D03*
%TD*%
D10*
%TO.C,A8*%
X174500000Y-27575000D03*
X174500000Y-29075000D03*
X168900000Y-29075000D03*
X168900000Y-27575000D03*
D11*
X176900000Y-31175000D03*
X176900000Y-27575000D03*
D12*
X177300000Y-39250000D03*
D13*
X177300000Y-36050000D03*
%TD*%
D10*
%TO.C,A25*%
X74750000Y-65575000D03*
X74750000Y-67075000D03*
X69150000Y-67075000D03*
X69150000Y-65575000D03*
D11*
X77150000Y-69175000D03*
X77150000Y-65575000D03*
D12*
X77550000Y-77250000D03*
D13*
X77550000Y-74050000D03*
%TD*%
D10*
%TO.C,A3*%
X79500000Y-27575000D03*
X79500000Y-29075000D03*
X73900000Y-29075000D03*
X73900000Y-27575000D03*
D11*
X81900000Y-31175000D03*
X81900000Y-27575000D03*
D12*
X82300000Y-39250000D03*
D13*
X82300000Y-36050000D03*
%TD*%
D10*
%TO.C,A35*%
X93750000Y-84575000D03*
X93750000Y-86075000D03*
X88150000Y-86075000D03*
X88150000Y-84575000D03*
D11*
X96150000Y-88175000D03*
X96150000Y-84575000D03*
D12*
X96550000Y-96250000D03*
D13*
X96550000Y-93050000D03*
%TD*%
D10*
%TO.C,A5*%
X117500000Y-27575000D03*
X117500000Y-29075000D03*
X111900000Y-29075000D03*
X111900000Y-27575000D03*
D11*
X119900000Y-31175000D03*
X119900000Y-27575000D03*
D12*
X120300000Y-39250000D03*
D13*
X120300000Y-36050000D03*
%TD*%
D10*
%TO.C,A39*%
X198250000Y-84575000D03*
X198250000Y-86075000D03*
X192650000Y-86075000D03*
X192650000Y-84575000D03*
D11*
X200650000Y-88175000D03*
X200650000Y-84575000D03*
D12*
X201050000Y-96250000D03*
D13*
X201050000Y-93050000D03*
%TD*%
M02*
