%TF.GenerationSoftware,KiCad,Pcbnew,9.0.2*%
%TF.CreationDate,2025-06-04T21:45:47+01:00*%
%TF.ProjectId,just-40-tiny,6a757374-2d34-4302-9d74-696e792e6b69,rev?*%
%TF.SameCoordinates,Original*%
%TF.FileFunction,Copper,L1,Top*%
%TF.FilePolarity,Positive*%
%FSLAX46Y46*%
G04 Gerber Fmt 4.6, Leading zero omitted, Abs format (unit mm)*
G04 Created by KiCad (PCBNEW 9.0.2) date 2025-06-04 21:45:47*
%MOMM*%
%LPD*%
G01*
G04 APERTURE LIST*
%TA.AperFunction,ComponentPad*%
%ADD10C,3.000000*%
%TD*%
%TA.AperFunction,ViaPad*%
%ADD11C,0.600000*%
%TD*%
%TA.AperFunction,Conductor*%
%ADD12C,0.200000*%
%TD*%
%TA.AperFunction,Conductor*%
%ADD13C,0.800000*%
%TD*%
G04 APERTURE END LIST*
D10*
%TO.P,A17,A*%
%TO.N,COL_04*%
X114350000Y-57200000D03*
%TO.P,A17,B*%
%TO.N,Net-(A17-PadB)*%
X121350000Y-58250000D03*
%TD*%
%TO.P,A2,A*%
%TO.N,COL_01*%
X52600000Y-38200000D03*
%TO.P,A2,B*%
%TO.N,Net-(A2-PadB)*%
X59600000Y-39250000D03*
%TD*%
%TO.P,A29,A*%
%TO.N,COL_05*%
X142850000Y-76200000D03*
%TO.P,A29,B*%
%TO.N,Net-(A29-PadB)*%
X149850000Y-77250000D03*
%TD*%
%TO.P,A15,A*%
%TO.N,COL_02*%
X76350000Y-57200000D03*
%TO.P,A15,B*%
%TO.N,Net-(A15-PadB)*%
X83350000Y-58250000D03*
%TD*%
%TO.P,A38,A*%
%TO.N,COL_06*%
X166600000Y-95200000D03*
%TO.P,A38,B*%
%TO.N,Net-(A38-PadB)*%
X173600000Y-96250000D03*
%TD*%
%TO.P,A33,A*%
%TO.N,COL_09*%
X228350000Y-76200000D03*
%TO.P,A33,B*%
%TO.N,Net-(A33-PadB)*%
X235350000Y-77250000D03*
%TD*%
%TO.P,A13,A*%
%TO.N,COL_00*%
X38350000Y-57200000D03*
%TO.P,A13,B*%
%TO.N,Net-(A13-PadB)*%
X45350000Y-58250000D03*
%TD*%
%TO.P,A28,A*%
%TO.N,COL_04*%
X123850000Y-76200000D03*
%TO.P,A28,B*%
%TO.N,Net-(A28-PadB)*%
X130850000Y-77250000D03*
%TD*%
%TO.P,A4,A*%
%TO.N,COL_03*%
X90600000Y-38200000D03*
%TO.P,A4,B*%
%TO.N,Net-(A4-PadB)*%
X97600000Y-39250000D03*
%TD*%
%TO.P,A22,A*%
%TO.N,COL_09*%
X209350000Y-57200000D03*
%TO.P,A22,B*%
%TO.N,Net-(A22-PadB)*%
X216350000Y-58250000D03*
%TD*%
%TO.P,A30,A*%
%TO.N,COL_06*%
X161850000Y-76200000D03*
%TO.P,A30,B*%
%TO.N,Net-(A30-PadB)*%
X168850000Y-77250000D03*
%TD*%
%TO.P,A7,A*%
%TO.N,COL_06*%
X147600000Y-38200000D03*
%TO.P,A7,B*%
%TO.N,Net-(A7-PadB)*%
X154600000Y-39250000D03*
%TD*%
%TO.P,A14,A*%
%TO.N,COL_01*%
X57350000Y-57200000D03*
%TO.P,A14,B*%
%TO.N,Net-(A14-PadB)*%
X64350000Y-58250000D03*
%TD*%
%TO.P,A16,A*%
%TO.N,COL_03*%
X95350000Y-57200000D03*
%TO.P,A16,B*%
%TO.N,Net-(A16-PadB)*%
X102350000Y-58250000D03*
%TD*%
%TO.P,A36,A*%
%TO.N,COL_03*%
X109600000Y-95200000D03*
%TO.P,A36,B*%
%TO.N,Net-(A36-PadB)*%
X116600000Y-96250000D03*
%TD*%
%TO.P,A11,A*%
%TO.N,COL_10*%
X223600000Y-38200000D03*
%TO.P,A11,B*%
%TO.N,Net-(A11-PadB)*%
X230600000Y-39250000D03*
%TD*%
%TO.P,A21,A*%
%TO.N,COL_08*%
X190350000Y-57200000D03*
%TO.P,A21,B*%
%TO.N,Net-(A21-PadB)*%
X197350000Y-58250000D03*
%TD*%
%TO.P,A23,A*%
%TO.N,COL_10*%
X237850000Y-57200000D03*
%TO.P,A23,B*%
%TO.N,Net-(A23-PadB)*%
X244850000Y-58250000D03*
%TD*%
%TO.P,A10,A*%
%TO.N,COL_09*%
X204600000Y-38200000D03*
%TO.P,A10,B*%
%TO.N,Net-(A10-PadB)*%
X211600000Y-39250000D03*
%TD*%
%TO.P,A12,A*%
%TO.N,COL_10*%
X242600000Y-38200000D03*
%TO.P,A12,B*%
%TO.N,Net-(A12-PadB)*%
X249600000Y-39250000D03*
%TD*%
%TO.P,A40,A*%
%TO.N,COL_08*%
X214100000Y-95200000D03*
%TO.P,A40,B*%
%TO.N,Net-(A40-PadB)*%
X221100000Y-96250000D03*
%TD*%
%TO.P,A34,A*%
%TO.N,COL_00*%
X62100000Y-95200000D03*
%TO.P,A34,B*%
%TO.N,Net-(A34-PadB)*%
X69100000Y-96250000D03*
%TD*%
%TO.P,A26,A*%
%TO.N,COL_02*%
X85850000Y-76200000D03*
%TO.P,A26,B*%
%TO.N,Net-(A26-PadB)*%
X92850000Y-77250000D03*
%TD*%
%TO.P,A9,A*%
%TO.N,COL_08*%
X185600000Y-38200000D03*
%TO.P,A9,B*%
%TO.N,Net-(A9-PadB)*%
X192600000Y-39250000D03*
%TD*%
%TO.P,A6,A*%
%TO.N,COL_05*%
X128600000Y-38200000D03*
%TO.P,A6,B*%
%TO.N,Net-(A6-PadB)*%
X135600000Y-39250000D03*
%TD*%
%TO.P,A18,A*%
%TO.N,COL_05*%
X133350000Y-57200000D03*
%TO.P,A18,B*%
%TO.N,Net-(A18-PadB)*%
X140350000Y-58250000D03*
%TD*%
%TO.P,A27,A*%
%TO.N,COL_03*%
X104850000Y-76200000D03*
%TO.P,A27,B*%
%TO.N,Net-(A27-PadB)*%
X111850000Y-77250000D03*
%TD*%
%TO.P,A1,A*%
%TO.N,COL_00*%
X33600000Y-38200000D03*
%TO.P,A1,B*%
%TO.N,Net-(A1-PadB)*%
X40600000Y-39250000D03*
%TD*%
%TO.P,A37,A*%
%TO.N,COL_05*%
X138100000Y-95200000D03*
%TO.P,A37,B*%
%TO.N,Net-(A37-PadB)*%
X145100000Y-96250000D03*
%TD*%
%TO.P,A20,A*%
%TO.N,COL_07*%
X171350000Y-57200000D03*
%TO.P,A20,B*%
%TO.N,Net-(A20-PadB)*%
X178350000Y-58250000D03*
%TD*%
%TO.P,A19,A*%
%TO.N,COL_06*%
X152350000Y-57200000D03*
%TO.P,A19,B*%
%TO.N,Net-(A19-PadB)*%
X159350000Y-58250000D03*
%TD*%
%TO.P,A31,A*%
%TO.N,COL_07*%
X180850000Y-76200000D03*
%TO.P,A31,B*%
%TO.N,Net-(A31-PadB)*%
X187850000Y-77250000D03*
%TD*%
%TO.P,A24,A*%
%TO.N,COL_00*%
X47850000Y-76200000D03*
%TO.P,A24,B*%
%TO.N,Net-(A24-PadB)*%
X54850000Y-77250000D03*
%TD*%
%TO.P,A32,A*%
%TO.N,COL_08*%
X204600000Y-76200000D03*
%TO.P,A32,B*%
%TO.N,Net-(A32-PadB)*%
X211600000Y-77250000D03*
%TD*%
%TO.P,A8,A*%
%TO.N,COL_07*%
X166600000Y-38200000D03*
%TO.P,A8,B*%
%TO.N,Net-(A8-PadB)*%
X173600000Y-39250000D03*
%TD*%
%TO.P,A25,A*%
%TO.N,COL_01*%
X66850000Y-76200000D03*
%TO.P,A25,B*%
%TO.N,Net-(A25-PadB)*%
X73850000Y-77250000D03*
%TD*%
%TO.P,A3,A*%
%TO.N,COL_02*%
X71600000Y-38200000D03*
%TO.P,A3,B*%
%TO.N,Net-(A3-PadB)*%
X78600000Y-39250000D03*
%TD*%
%TO.P,A35,A*%
%TO.N,COL_02*%
X85850000Y-95200000D03*
%TO.P,A35,B*%
%TO.N,Net-(A35-PadB)*%
X92850000Y-96250000D03*
%TD*%
%TO.P,A5,A*%
%TO.N,COL_04*%
X109600000Y-38200000D03*
%TO.P,A5,B*%
%TO.N,Net-(A5-PadB)*%
X116600000Y-39250000D03*
%TD*%
%TO.P,A39,A*%
%TO.N,COL_07*%
X190350000Y-95200000D03*
%TO.P,A39,B*%
%TO.N,Net-(A39-PadB)*%
X197350000Y-96250000D03*
%TD*%
D11*
%TO.N,COL_06*%
X37500000Y-78250000D03*
%TO.N,COL_05*%
X36500000Y-78250000D03*
%TO.N,COL_04*%
X35500000Y-78250000D03*
%TO.N,ROW_1*%
X34500000Y-78250000D03*
%TO.N,COL_10*%
X33500000Y-78250000D03*
%TO.N,COL_09*%
X32500000Y-78250000D03*
%TO.N,COL_08*%
X31500000Y-78250000D03*
%TO.N,ROW_0*%
X30500000Y-78250000D03*
%TO.N,DIN*%
X29500000Y-95500000D03*
%TO.N,GND*%
X29500000Y-67075000D03*
X29500000Y-48075000D03*
X29500000Y-29075000D03*
%TO.N,COL_06*%
X37500000Y-61750000D03*
%TO.N,GND*%
X44250000Y-90237500D03*
X60237500Y-90237500D03*
%TO.N,ROW_3*%
X44250000Y-91250000D03*
X60250000Y-91250000D03*
%TO.N,GND*%
X251979350Y-32729350D03*
X254000000Y-88175000D03*
X254000000Y-69124412D03*
X254000000Y-50175000D03*
%TO.N,COL_07*%
X38500000Y-62500000D03*
X38500000Y-78250000D03*
%TO.N,Net-(A23-DOUT)*%
X254750000Y-48075000D03*
X254750000Y-63000000D03*
%TO.N,Net-(A12-DOUT)*%
X254750000Y-29075000D03*
X254750000Y-44000000D03*
%TO.N,Net-(A33-DOUT)*%
X254750000Y-81750000D03*
X254750000Y-67075000D03*
%TO.N,V_LED*%
X59975000Y-82750000D03*
X45725000Y-25750000D03*
X59975000Y-63750000D03*
X50475000Y-44750000D03*
%TO.N,ROW_2*%
X255500000Y-74050000D03*
%TO.N,V_LED*%
X256599000Y-84500000D03*
X256599000Y-46575000D03*
X256599000Y-65575000D03*
X254750000Y-27575000D03*
%TO.N,ROW_0*%
X30500000Y-36250000D03*
%TO.N,DIN*%
X29500000Y-27575000D03*
%TO.N,COL_08*%
X31500000Y-41750000D03*
%TO.N,COL_09*%
X32500000Y-42500000D03*
%TO.N,COL_10*%
X33500000Y-43250000D03*
%TO.N,COL_04*%
X35500000Y-60250000D03*
%TO.N,COL_05*%
X36500000Y-61000000D03*
%TO.N,ROW_2*%
X255500000Y-36050000D03*
%TO.N,Net-(A33-DOUT)*%
X62500000Y-81750000D03*
X62500000Y-84575000D03*
%TO.N,ROW_1*%
X34500000Y-55250000D03*
%TD*%
D12*
%TO.N,GND*%
X44250000Y-90237500D02*
X60237500Y-90237500D01*
%TO.N,DIN*%
X28500000Y-28575000D02*
X29500000Y-27575000D01*
X28500000Y-94500000D02*
X28500000Y-28575000D01*
X29500000Y-95500000D02*
X28500000Y-94500000D01*
%TO.N,COL_07*%
X38500000Y-62500000D02*
X38500000Y-78250000D01*
%TO.N,GND*%
X29500000Y-48075000D02*
X29500000Y-67075000D01*
X29500000Y-29075000D02*
X29500000Y-48075000D01*
%TO.N,COL_00*%
X38350000Y-57200000D02*
X47850000Y-66700000D01*
X47850000Y-66700000D02*
X47850000Y-76200000D01*
D13*
%TO.N,V_LED*%
X254750000Y-27575000D02*
X256599000Y-29424000D01*
X256599000Y-29424000D02*
X256599000Y-46575000D01*
D12*
%TO.N,ROW_3*%
X60250000Y-91250000D02*
X44250000Y-91250000D01*
%TO.N,COL_00*%
X47850000Y-76200000D02*
X62100000Y-90450000D01*
X62100000Y-90450000D02*
X62100000Y-95200000D01*
%TO.N,GND*%
X251979350Y-32729350D02*
X254000000Y-34750000D01*
X254000000Y-34750000D02*
X254000000Y-50175000D01*
X254000000Y-88175000D02*
X254000000Y-69124412D01*
X254000000Y-69124412D02*
X254000000Y-50175000D01*
%TO.N,COL_10*%
X223600000Y-38200000D02*
X223600000Y-42950000D01*
X223600000Y-42950000D02*
X237850000Y-57200000D01*
%TO.N,Net-(A33-DOUT)*%
X254750000Y-81750000D02*
X254750000Y-67075000D01*
%TO.N,Net-(A23-DOUT)*%
X254750000Y-63000000D02*
X254750000Y-48075000D01*
%TO.N,ROW_2*%
X255500000Y-74050000D02*
X255500000Y-36050000D01*
D13*
%TO.N,V_LED*%
X256599000Y-84500000D02*
X256599000Y-65575000D01*
D12*
%TO.N,Net-(A12-DOUT)*%
X254750000Y-44000000D02*
X254750000Y-29075000D01*
%TO.N,Net-(A33-DOUT)*%
X62500000Y-81750000D02*
X62500000Y-84575000D01*
D13*
%TO.N,V_LED*%
X59975000Y-82750000D02*
X59975000Y-63750000D01*
X45725000Y-25750000D02*
X45725000Y-40000000D01*
X45725000Y-40000000D02*
X50475000Y-44750000D01*
X50475000Y-44750000D02*
X50475000Y-54250000D01*
X50475000Y-54250000D02*
X59975000Y-63750000D01*
D12*
%TO.N,COL_02*%
X85850000Y-76200000D02*
X85850000Y-95200000D01*
%TO.N,COL_06*%
X161850000Y-76200000D02*
X161850000Y-90450000D01*
X161850000Y-90450000D02*
X166600000Y-95200000D01*
%TO.N,COL_07*%
X180850000Y-76200000D02*
X180850000Y-85700000D01*
X180850000Y-85700000D02*
X190350000Y-95200000D01*
%TO.N,COL_08*%
X204600000Y-76200000D02*
X204600000Y-85700000D01*
X204600000Y-85700000D02*
X214100000Y-95200000D01*
D13*
%TO.N,V_LED*%
X256599000Y-46575000D02*
X256599000Y-65575000D01*
D12*
%TO.N,COL_05*%
X138100000Y-80950000D02*
X138100000Y-95200000D01*
%TO.N,COL_00*%
X38350000Y-42950000D02*
X38350000Y-57200000D01*
X33600000Y-38200000D02*
X38350000Y-42950000D01*
%TO.N,COL_01*%
X66850000Y-66700000D02*
X66850000Y-76200000D01*
X52600000Y-38200000D02*
X52600000Y-52450000D01*
X52600000Y-52450000D02*
X57350000Y-57200000D01*
X57350000Y-57200000D02*
X66850000Y-66700000D01*
%TO.N,COL_02*%
X71600000Y-38200000D02*
X71600000Y-52450000D01*
X85850000Y-66700000D02*
X85850000Y-76200000D01*
X71600000Y-52450000D02*
X76350000Y-57200000D01*
X76350000Y-57200000D02*
X85850000Y-66700000D01*
%TO.N,COL_04*%
X109600000Y-38200000D02*
X109600000Y-52450000D01*
X114350000Y-57200000D02*
X114350000Y-66700000D01*
X109600000Y-52450000D02*
X114350000Y-57200000D01*
X114350000Y-66700000D02*
X123850000Y-76200000D01*
%TO.N,COL_05*%
X128600000Y-38200000D02*
X128600000Y-52450000D01*
X133350000Y-57200000D02*
X133350000Y-66700000D01*
X142850000Y-76200000D02*
X138100000Y-80950000D01*
X133350000Y-66700000D02*
X142850000Y-76200000D01*
X128600000Y-52450000D02*
X133350000Y-57200000D01*
%TO.N,COL_06*%
X147600000Y-52450000D02*
X152350000Y-57200000D01*
X152350000Y-57200000D02*
X152350000Y-66700000D01*
X152350000Y-66700000D02*
X161850000Y-76200000D01*
X147600000Y-38200000D02*
X147600000Y-52450000D01*
%TO.N,COL_07*%
X171350000Y-66700000D02*
X180850000Y-76200000D01*
X171350000Y-57200000D02*
X171350000Y-66700000D01*
X166600000Y-52450000D02*
X171350000Y-57200000D01*
X166600000Y-38200000D02*
X166600000Y-52450000D01*
%TO.N,COL_08*%
X185600000Y-52450000D02*
X190350000Y-57200000D01*
X190350000Y-57200000D02*
X190350000Y-61950000D01*
X185600000Y-38200000D02*
X185600000Y-52450000D01*
X190350000Y-61950000D02*
X204600000Y-76200000D01*
%TO.N,COL_09*%
X209350000Y-57200000D02*
X228350000Y-76200000D01*
X204600000Y-52450000D02*
X209350000Y-57200000D01*
X204600000Y-38200000D02*
X204600000Y-52450000D01*
%TO.N,COL_10*%
X242600000Y-38200000D02*
X237850000Y-42950000D01*
X237850000Y-42950000D02*
X237850000Y-57200000D01*
%TO.N,COL_03*%
X90600000Y-38200000D02*
X90600000Y-52450000D01*
X104850000Y-66700000D02*
X104850000Y-76200000D01*
X90600000Y-52450000D02*
X95350000Y-57200000D01*
X104850000Y-90450000D02*
X109600000Y-95200000D01*
X95350000Y-57200000D02*
X104850000Y-66700000D01*
X104850000Y-76200000D02*
X104850000Y-90450000D01*
%TO.N,GND*%
X44250000Y-90237500D02*
X41487500Y-90237500D01*
X29500000Y-78250000D02*
X29500000Y-67075000D01*
X41487500Y-90237500D02*
X29500000Y-78250000D01*
%TO.N,ROW_0*%
X30500000Y-78250000D02*
X30500000Y-36250000D01*
%TO.N,COL_08*%
X31500000Y-41750000D02*
X31500000Y-78250000D01*
%TO.N,COL_09*%
X32500000Y-42500000D02*
X32500000Y-78250000D01*
%TO.N,COL_10*%
X33500000Y-43250000D02*
X33500000Y-78250000D01*
%TO.N,ROW_1*%
X34500000Y-78250000D02*
X34500000Y-55250000D01*
%TO.N,COL_04*%
X35500000Y-78250000D02*
X35500000Y-60250000D01*
%TO.N,COL_05*%
X36500000Y-78250000D02*
X36500000Y-61000000D01*
%TO.N,COL_06*%
X37500000Y-61750000D02*
X37500000Y-78250000D01*
%TD*%
M02*
