%TF.GenerationSoftware,KiCad,Pcbnew,9.0.2*%
%TF.CreationDate,2025-06-04T21:45:47+01:00*%
%TF.ProjectId,just-40-tiny,6a757374-2d34-4302-9d74-696e792e6b69,rev?*%
%TF.SameCoordinates,Original*%
%TF.FileFunction,Legend,Top*%
%TF.FilePolarity,Positive*%
%FSLAX46Y46*%
G04 Gerber Fmt 4.6, Leading zero omitted, Abs format (unit mm)*
G04 Created by KiCad (PCBNEW 9.0.2) date 2025-06-04 21:45:47*
%MOMM*%
%LPD*%
G01*
G04 APERTURE LIST*
%ADD10C,0.500000*%
%ADD11C,0.100000*%
G04 APERTURE END LIST*
D10*
X236250000Y-88861857D02*
X236250000Y-91004714D01*
X236250000Y-91004714D02*
X236107143Y-91433285D01*
X236107143Y-91433285D02*
X235821429Y-91719000D01*
X235821429Y-91719000D02*
X235392857Y-91861857D01*
X235392857Y-91861857D02*
X235107143Y-91861857D01*
X238964286Y-89861857D02*
X238964286Y-91861857D01*
X237678571Y-89861857D02*
X237678571Y-91433285D01*
X237678571Y-91433285D02*
X237821428Y-91719000D01*
X237821428Y-91719000D02*
X238107143Y-91861857D01*
X238107143Y-91861857D02*
X238535714Y-91861857D01*
X238535714Y-91861857D02*
X238821428Y-91719000D01*
X238821428Y-91719000D02*
X238964286Y-91576142D01*
X240250000Y-91719000D02*
X240535714Y-91861857D01*
X240535714Y-91861857D02*
X241107143Y-91861857D01*
X241107143Y-91861857D02*
X241392857Y-91719000D01*
X241392857Y-91719000D02*
X241535714Y-91433285D01*
X241535714Y-91433285D02*
X241535714Y-91290428D01*
X241535714Y-91290428D02*
X241392857Y-91004714D01*
X241392857Y-91004714D02*
X241107143Y-90861857D01*
X241107143Y-90861857D02*
X240678572Y-90861857D01*
X240678572Y-90861857D02*
X240392857Y-90719000D01*
X240392857Y-90719000D02*
X240250000Y-90433285D01*
X240250000Y-90433285D02*
X240250000Y-90290428D01*
X240250000Y-90290428D02*
X240392857Y-90004714D01*
X240392857Y-90004714D02*
X240678572Y-89861857D01*
X240678572Y-89861857D02*
X241107143Y-89861857D01*
X241107143Y-89861857D02*
X241392857Y-90004714D01*
X242392857Y-89861857D02*
X243535714Y-89861857D01*
X242821428Y-88861857D02*
X242821428Y-91433285D01*
X242821428Y-91433285D02*
X242964285Y-91719000D01*
X242964285Y-91719000D02*
X243250000Y-91861857D01*
X243250000Y-91861857D02*
X243535714Y-91861857D01*
X248107143Y-89861857D02*
X248107143Y-91861857D01*
X247392857Y-88719000D02*
X246678571Y-90861857D01*
X246678571Y-90861857D02*
X248535714Y-90861857D01*
X250250000Y-88861857D02*
X250535714Y-88861857D01*
X250535714Y-88861857D02*
X250821428Y-89004714D01*
X250821428Y-89004714D02*
X250964286Y-89147571D01*
X250964286Y-89147571D02*
X251107143Y-89433285D01*
X251107143Y-89433285D02*
X251250000Y-90004714D01*
X251250000Y-90004714D02*
X251250000Y-90719000D01*
X251250000Y-90719000D02*
X251107143Y-91290428D01*
X251107143Y-91290428D02*
X250964286Y-91576142D01*
X250964286Y-91576142D02*
X250821428Y-91719000D01*
X250821428Y-91719000D02*
X250535714Y-91861857D01*
X250535714Y-91861857D02*
X250250000Y-91861857D01*
X250250000Y-91861857D02*
X249964286Y-91719000D01*
X249964286Y-91719000D02*
X249821428Y-91576142D01*
X249821428Y-91576142D02*
X249678571Y-91290428D01*
X249678571Y-91290428D02*
X249535714Y-90719000D01*
X249535714Y-90719000D02*
X249535714Y-90004714D01*
X249535714Y-90004714D02*
X249678571Y-89433285D01*
X249678571Y-89433285D02*
X249821428Y-89147571D01*
X249821428Y-89147571D02*
X249964286Y-89004714D01*
X249964286Y-89004714D02*
X250250000Y-88861857D01*
D11*
X114821429Y-45260419D02*
X114821429Y-44260419D01*
X115392857Y-45260419D02*
X114964286Y-44688990D01*
X115392857Y-44260419D02*
X114821429Y-44831847D01*
X115773810Y-45212800D02*
X115916667Y-45260419D01*
X115916667Y-45260419D02*
X116154762Y-45260419D01*
X116154762Y-45260419D02*
X116250000Y-45212800D01*
X116250000Y-45212800D02*
X116297619Y-45165180D01*
X116297619Y-45165180D02*
X116345238Y-45069942D01*
X116345238Y-45069942D02*
X116345238Y-44974704D01*
X116345238Y-44974704D02*
X116297619Y-44879466D01*
X116297619Y-44879466D02*
X116250000Y-44831847D01*
X116250000Y-44831847D02*
X116154762Y-44784228D01*
X116154762Y-44784228D02*
X115964286Y-44736609D01*
X115964286Y-44736609D02*
X115869048Y-44688990D01*
X115869048Y-44688990D02*
X115821429Y-44641371D01*
X115821429Y-44641371D02*
X115773810Y-44546133D01*
X115773810Y-44546133D02*
X115773810Y-44450895D01*
X115773810Y-44450895D02*
X115821429Y-44355657D01*
X115821429Y-44355657D02*
X115869048Y-44308038D01*
X115869048Y-44308038D02*
X115964286Y-44260419D01*
X115964286Y-44260419D02*
X116202381Y-44260419D01*
X116202381Y-44260419D02*
X116345238Y-44308038D01*
X116773810Y-44879466D02*
X117535715Y-44879466D01*
X117916667Y-44260419D02*
X118535714Y-44260419D01*
X118535714Y-44260419D02*
X118202381Y-44641371D01*
X118202381Y-44641371D02*
X118345238Y-44641371D01*
X118345238Y-44641371D02*
X118440476Y-44688990D01*
X118440476Y-44688990D02*
X118488095Y-44736609D01*
X118488095Y-44736609D02*
X118535714Y-44831847D01*
X118535714Y-44831847D02*
X118535714Y-45069942D01*
X118535714Y-45069942D02*
X118488095Y-45165180D01*
X118488095Y-45165180D02*
X118440476Y-45212800D01*
X118440476Y-45212800D02*
X118345238Y-45260419D01*
X118345238Y-45260419D02*
X118059524Y-45260419D01*
X118059524Y-45260419D02*
X117964286Y-45212800D01*
X117964286Y-45212800D02*
X117916667Y-45165180D01*
X118869048Y-44260419D02*
X119488095Y-44260419D01*
X119488095Y-44260419D02*
X119154762Y-44641371D01*
X119154762Y-44641371D02*
X119297619Y-44641371D01*
X119297619Y-44641371D02*
X119392857Y-44688990D01*
X119392857Y-44688990D02*
X119440476Y-44736609D01*
X119440476Y-44736609D02*
X119488095Y-44831847D01*
X119488095Y-44831847D02*
X119488095Y-45069942D01*
X119488095Y-45069942D02*
X119440476Y-45165180D01*
X119440476Y-45165180D02*
X119392857Y-45212800D01*
X119392857Y-45212800D02*
X119297619Y-45260419D01*
X119297619Y-45260419D02*
X119011905Y-45260419D01*
X119011905Y-45260419D02*
X118916667Y-45212800D01*
X118916667Y-45212800D02*
X118869048Y-45165180D01*
X119916667Y-44879466D02*
X120678572Y-44879466D01*
X121678571Y-45260419D02*
X121107143Y-45260419D01*
X121392857Y-45260419D02*
X121392857Y-44260419D01*
X121392857Y-44260419D02*
X121297619Y-44403276D01*
X121297619Y-44403276D02*
X121202381Y-44498514D01*
X121202381Y-44498514D02*
X121107143Y-44546133D01*
X122107143Y-44260419D02*
X122107143Y-45069942D01*
X122107143Y-45069942D02*
X122154762Y-45165180D01*
X122154762Y-45165180D02*
X122202381Y-45212800D01*
X122202381Y-45212800D02*
X122297619Y-45260419D01*
X122297619Y-45260419D02*
X122488095Y-45260419D01*
X122488095Y-45260419D02*
X122583333Y-45212800D01*
X122583333Y-45212800D02*
X122630952Y-45165180D01*
X122630952Y-45165180D02*
X122678571Y-45069942D01*
X122678571Y-45069942D02*
X122678571Y-44260419D01*
X53071429Y-26260419D02*
X53071429Y-25260419D01*
X53642857Y-26260419D02*
X53214286Y-25688990D01*
X53642857Y-25260419D02*
X53071429Y-25831847D01*
X54023810Y-26212800D02*
X54166667Y-26260419D01*
X54166667Y-26260419D02*
X54404762Y-26260419D01*
X54404762Y-26260419D02*
X54500000Y-26212800D01*
X54500000Y-26212800D02*
X54547619Y-26165180D01*
X54547619Y-26165180D02*
X54595238Y-26069942D01*
X54595238Y-26069942D02*
X54595238Y-25974704D01*
X54595238Y-25974704D02*
X54547619Y-25879466D01*
X54547619Y-25879466D02*
X54500000Y-25831847D01*
X54500000Y-25831847D02*
X54404762Y-25784228D01*
X54404762Y-25784228D02*
X54214286Y-25736609D01*
X54214286Y-25736609D02*
X54119048Y-25688990D01*
X54119048Y-25688990D02*
X54071429Y-25641371D01*
X54071429Y-25641371D02*
X54023810Y-25546133D01*
X54023810Y-25546133D02*
X54023810Y-25450895D01*
X54023810Y-25450895D02*
X54071429Y-25355657D01*
X54071429Y-25355657D02*
X54119048Y-25308038D01*
X54119048Y-25308038D02*
X54214286Y-25260419D01*
X54214286Y-25260419D02*
X54452381Y-25260419D01*
X54452381Y-25260419D02*
X54595238Y-25308038D01*
X55023810Y-25879466D02*
X55785715Y-25879466D01*
X56166667Y-25260419D02*
X56785714Y-25260419D01*
X56785714Y-25260419D02*
X56452381Y-25641371D01*
X56452381Y-25641371D02*
X56595238Y-25641371D01*
X56595238Y-25641371D02*
X56690476Y-25688990D01*
X56690476Y-25688990D02*
X56738095Y-25736609D01*
X56738095Y-25736609D02*
X56785714Y-25831847D01*
X56785714Y-25831847D02*
X56785714Y-26069942D01*
X56785714Y-26069942D02*
X56738095Y-26165180D01*
X56738095Y-26165180D02*
X56690476Y-26212800D01*
X56690476Y-26212800D02*
X56595238Y-26260419D01*
X56595238Y-26260419D02*
X56309524Y-26260419D01*
X56309524Y-26260419D02*
X56214286Y-26212800D01*
X56214286Y-26212800D02*
X56166667Y-26165180D01*
X57119048Y-25260419D02*
X57738095Y-25260419D01*
X57738095Y-25260419D02*
X57404762Y-25641371D01*
X57404762Y-25641371D02*
X57547619Y-25641371D01*
X57547619Y-25641371D02*
X57642857Y-25688990D01*
X57642857Y-25688990D02*
X57690476Y-25736609D01*
X57690476Y-25736609D02*
X57738095Y-25831847D01*
X57738095Y-25831847D02*
X57738095Y-26069942D01*
X57738095Y-26069942D02*
X57690476Y-26165180D01*
X57690476Y-26165180D02*
X57642857Y-26212800D01*
X57642857Y-26212800D02*
X57547619Y-26260419D01*
X57547619Y-26260419D02*
X57261905Y-26260419D01*
X57261905Y-26260419D02*
X57166667Y-26212800D01*
X57166667Y-26212800D02*
X57119048Y-26165180D01*
X58166667Y-25879466D02*
X58928572Y-25879466D01*
X59928571Y-26260419D02*
X59357143Y-26260419D01*
X59642857Y-26260419D02*
X59642857Y-25260419D01*
X59642857Y-25260419D02*
X59547619Y-25403276D01*
X59547619Y-25403276D02*
X59452381Y-25498514D01*
X59452381Y-25498514D02*
X59357143Y-25546133D01*
X60357143Y-25260419D02*
X60357143Y-26069942D01*
X60357143Y-26069942D02*
X60404762Y-26165180D01*
X60404762Y-26165180D02*
X60452381Y-26212800D01*
X60452381Y-26212800D02*
X60547619Y-26260419D01*
X60547619Y-26260419D02*
X60738095Y-26260419D01*
X60738095Y-26260419D02*
X60833333Y-26212800D01*
X60833333Y-26212800D02*
X60880952Y-26165180D01*
X60880952Y-26165180D02*
X60928571Y-26069942D01*
X60928571Y-26069942D02*
X60928571Y-25260419D01*
X143321429Y-64260419D02*
X143321429Y-63260419D01*
X143892857Y-64260419D02*
X143464286Y-63688990D01*
X143892857Y-63260419D02*
X143321429Y-63831847D01*
X144273810Y-64212800D02*
X144416667Y-64260419D01*
X144416667Y-64260419D02*
X144654762Y-64260419D01*
X144654762Y-64260419D02*
X144750000Y-64212800D01*
X144750000Y-64212800D02*
X144797619Y-64165180D01*
X144797619Y-64165180D02*
X144845238Y-64069942D01*
X144845238Y-64069942D02*
X144845238Y-63974704D01*
X144845238Y-63974704D02*
X144797619Y-63879466D01*
X144797619Y-63879466D02*
X144750000Y-63831847D01*
X144750000Y-63831847D02*
X144654762Y-63784228D01*
X144654762Y-63784228D02*
X144464286Y-63736609D01*
X144464286Y-63736609D02*
X144369048Y-63688990D01*
X144369048Y-63688990D02*
X144321429Y-63641371D01*
X144321429Y-63641371D02*
X144273810Y-63546133D01*
X144273810Y-63546133D02*
X144273810Y-63450895D01*
X144273810Y-63450895D02*
X144321429Y-63355657D01*
X144321429Y-63355657D02*
X144369048Y-63308038D01*
X144369048Y-63308038D02*
X144464286Y-63260419D01*
X144464286Y-63260419D02*
X144702381Y-63260419D01*
X144702381Y-63260419D02*
X144845238Y-63308038D01*
X145273810Y-63879466D02*
X146035715Y-63879466D01*
X146416667Y-63260419D02*
X147035714Y-63260419D01*
X147035714Y-63260419D02*
X146702381Y-63641371D01*
X146702381Y-63641371D02*
X146845238Y-63641371D01*
X146845238Y-63641371D02*
X146940476Y-63688990D01*
X146940476Y-63688990D02*
X146988095Y-63736609D01*
X146988095Y-63736609D02*
X147035714Y-63831847D01*
X147035714Y-63831847D02*
X147035714Y-64069942D01*
X147035714Y-64069942D02*
X146988095Y-64165180D01*
X146988095Y-64165180D02*
X146940476Y-64212800D01*
X146940476Y-64212800D02*
X146845238Y-64260419D01*
X146845238Y-64260419D02*
X146559524Y-64260419D01*
X146559524Y-64260419D02*
X146464286Y-64212800D01*
X146464286Y-64212800D02*
X146416667Y-64165180D01*
X147369048Y-63260419D02*
X147988095Y-63260419D01*
X147988095Y-63260419D02*
X147654762Y-63641371D01*
X147654762Y-63641371D02*
X147797619Y-63641371D01*
X147797619Y-63641371D02*
X147892857Y-63688990D01*
X147892857Y-63688990D02*
X147940476Y-63736609D01*
X147940476Y-63736609D02*
X147988095Y-63831847D01*
X147988095Y-63831847D02*
X147988095Y-64069942D01*
X147988095Y-64069942D02*
X147940476Y-64165180D01*
X147940476Y-64165180D02*
X147892857Y-64212800D01*
X147892857Y-64212800D02*
X147797619Y-64260419D01*
X147797619Y-64260419D02*
X147511905Y-64260419D01*
X147511905Y-64260419D02*
X147416667Y-64212800D01*
X147416667Y-64212800D02*
X147369048Y-64165180D01*
X148416667Y-63879466D02*
X149178572Y-63879466D01*
X150178571Y-64260419D02*
X149607143Y-64260419D01*
X149892857Y-64260419D02*
X149892857Y-63260419D01*
X149892857Y-63260419D02*
X149797619Y-63403276D01*
X149797619Y-63403276D02*
X149702381Y-63498514D01*
X149702381Y-63498514D02*
X149607143Y-63546133D01*
X150607143Y-63260419D02*
X150607143Y-64069942D01*
X150607143Y-64069942D02*
X150654762Y-64165180D01*
X150654762Y-64165180D02*
X150702381Y-64212800D01*
X150702381Y-64212800D02*
X150797619Y-64260419D01*
X150797619Y-64260419D02*
X150988095Y-64260419D01*
X150988095Y-64260419D02*
X151083333Y-64212800D01*
X151083333Y-64212800D02*
X151130952Y-64165180D01*
X151130952Y-64165180D02*
X151178571Y-64069942D01*
X151178571Y-64069942D02*
X151178571Y-63260419D01*
X76821429Y-45260419D02*
X76821429Y-44260419D01*
X77392857Y-45260419D02*
X76964286Y-44688990D01*
X77392857Y-44260419D02*
X76821429Y-44831847D01*
X77773810Y-45212800D02*
X77916667Y-45260419D01*
X77916667Y-45260419D02*
X78154762Y-45260419D01*
X78154762Y-45260419D02*
X78250000Y-45212800D01*
X78250000Y-45212800D02*
X78297619Y-45165180D01*
X78297619Y-45165180D02*
X78345238Y-45069942D01*
X78345238Y-45069942D02*
X78345238Y-44974704D01*
X78345238Y-44974704D02*
X78297619Y-44879466D01*
X78297619Y-44879466D02*
X78250000Y-44831847D01*
X78250000Y-44831847D02*
X78154762Y-44784228D01*
X78154762Y-44784228D02*
X77964286Y-44736609D01*
X77964286Y-44736609D02*
X77869048Y-44688990D01*
X77869048Y-44688990D02*
X77821429Y-44641371D01*
X77821429Y-44641371D02*
X77773810Y-44546133D01*
X77773810Y-44546133D02*
X77773810Y-44450895D01*
X77773810Y-44450895D02*
X77821429Y-44355657D01*
X77821429Y-44355657D02*
X77869048Y-44308038D01*
X77869048Y-44308038D02*
X77964286Y-44260419D01*
X77964286Y-44260419D02*
X78202381Y-44260419D01*
X78202381Y-44260419D02*
X78345238Y-44308038D01*
X78773810Y-44879466D02*
X79535715Y-44879466D01*
X79916667Y-44260419D02*
X80535714Y-44260419D01*
X80535714Y-44260419D02*
X80202381Y-44641371D01*
X80202381Y-44641371D02*
X80345238Y-44641371D01*
X80345238Y-44641371D02*
X80440476Y-44688990D01*
X80440476Y-44688990D02*
X80488095Y-44736609D01*
X80488095Y-44736609D02*
X80535714Y-44831847D01*
X80535714Y-44831847D02*
X80535714Y-45069942D01*
X80535714Y-45069942D02*
X80488095Y-45165180D01*
X80488095Y-45165180D02*
X80440476Y-45212800D01*
X80440476Y-45212800D02*
X80345238Y-45260419D01*
X80345238Y-45260419D02*
X80059524Y-45260419D01*
X80059524Y-45260419D02*
X79964286Y-45212800D01*
X79964286Y-45212800D02*
X79916667Y-45165180D01*
X80869048Y-44260419D02*
X81488095Y-44260419D01*
X81488095Y-44260419D02*
X81154762Y-44641371D01*
X81154762Y-44641371D02*
X81297619Y-44641371D01*
X81297619Y-44641371D02*
X81392857Y-44688990D01*
X81392857Y-44688990D02*
X81440476Y-44736609D01*
X81440476Y-44736609D02*
X81488095Y-44831847D01*
X81488095Y-44831847D02*
X81488095Y-45069942D01*
X81488095Y-45069942D02*
X81440476Y-45165180D01*
X81440476Y-45165180D02*
X81392857Y-45212800D01*
X81392857Y-45212800D02*
X81297619Y-45260419D01*
X81297619Y-45260419D02*
X81011905Y-45260419D01*
X81011905Y-45260419D02*
X80916667Y-45212800D01*
X80916667Y-45212800D02*
X80869048Y-45165180D01*
X81916667Y-44879466D02*
X82678572Y-44879466D01*
X83678571Y-45260419D02*
X83107143Y-45260419D01*
X83392857Y-45260419D02*
X83392857Y-44260419D01*
X83392857Y-44260419D02*
X83297619Y-44403276D01*
X83297619Y-44403276D02*
X83202381Y-44498514D01*
X83202381Y-44498514D02*
X83107143Y-44546133D01*
X84107143Y-44260419D02*
X84107143Y-45069942D01*
X84107143Y-45069942D02*
X84154762Y-45165180D01*
X84154762Y-45165180D02*
X84202381Y-45212800D01*
X84202381Y-45212800D02*
X84297619Y-45260419D01*
X84297619Y-45260419D02*
X84488095Y-45260419D01*
X84488095Y-45260419D02*
X84583333Y-45212800D01*
X84583333Y-45212800D02*
X84630952Y-45165180D01*
X84630952Y-45165180D02*
X84678571Y-45069942D01*
X84678571Y-45069942D02*
X84678571Y-44260419D01*
X167071429Y-83260419D02*
X167071429Y-82260419D01*
X167642857Y-83260419D02*
X167214286Y-82688990D01*
X167642857Y-82260419D02*
X167071429Y-82831847D01*
X168023810Y-83212800D02*
X168166667Y-83260419D01*
X168166667Y-83260419D02*
X168404762Y-83260419D01*
X168404762Y-83260419D02*
X168500000Y-83212800D01*
X168500000Y-83212800D02*
X168547619Y-83165180D01*
X168547619Y-83165180D02*
X168595238Y-83069942D01*
X168595238Y-83069942D02*
X168595238Y-82974704D01*
X168595238Y-82974704D02*
X168547619Y-82879466D01*
X168547619Y-82879466D02*
X168500000Y-82831847D01*
X168500000Y-82831847D02*
X168404762Y-82784228D01*
X168404762Y-82784228D02*
X168214286Y-82736609D01*
X168214286Y-82736609D02*
X168119048Y-82688990D01*
X168119048Y-82688990D02*
X168071429Y-82641371D01*
X168071429Y-82641371D02*
X168023810Y-82546133D01*
X168023810Y-82546133D02*
X168023810Y-82450895D01*
X168023810Y-82450895D02*
X168071429Y-82355657D01*
X168071429Y-82355657D02*
X168119048Y-82308038D01*
X168119048Y-82308038D02*
X168214286Y-82260419D01*
X168214286Y-82260419D02*
X168452381Y-82260419D01*
X168452381Y-82260419D02*
X168595238Y-82308038D01*
X169023810Y-82879466D02*
X169785715Y-82879466D01*
X170166667Y-82260419D02*
X170785714Y-82260419D01*
X170785714Y-82260419D02*
X170452381Y-82641371D01*
X170452381Y-82641371D02*
X170595238Y-82641371D01*
X170595238Y-82641371D02*
X170690476Y-82688990D01*
X170690476Y-82688990D02*
X170738095Y-82736609D01*
X170738095Y-82736609D02*
X170785714Y-82831847D01*
X170785714Y-82831847D02*
X170785714Y-83069942D01*
X170785714Y-83069942D02*
X170738095Y-83165180D01*
X170738095Y-83165180D02*
X170690476Y-83212800D01*
X170690476Y-83212800D02*
X170595238Y-83260419D01*
X170595238Y-83260419D02*
X170309524Y-83260419D01*
X170309524Y-83260419D02*
X170214286Y-83212800D01*
X170214286Y-83212800D02*
X170166667Y-83165180D01*
X171119048Y-82260419D02*
X171738095Y-82260419D01*
X171738095Y-82260419D02*
X171404762Y-82641371D01*
X171404762Y-82641371D02*
X171547619Y-82641371D01*
X171547619Y-82641371D02*
X171642857Y-82688990D01*
X171642857Y-82688990D02*
X171690476Y-82736609D01*
X171690476Y-82736609D02*
X171738095Y-82831847D01*
X171738095Y-82831847D02*
X171738095Y-83069942D01*
X171738095Y-83069942D02*
X171690476Y-83165180D01*
X171690476Y-83165180D02*
X171642857Y-83212800D01*
X171642857Y-83212800D02*
X171547619Y-83260419D01*
X171547619Y-83260419D02*
X171261905Y-83260419D01*
X171261905Y-83260419D02*
X171166667Y-83212800D01*
X171166667Y-83212800D02*
X171119048Y-83165180D01*
X172166667Y-82879466D02*
X172928572Y-82879466D01*
X173928571Y-83260419D02*
X173357143Y-83260419D01*
X173642857Y-83260419D02*
X173642857Y-82260419D01*
X173642857Y-82260419D02*
X173547619Y-82403276D01*
X173547619Y-82403276D02*
X173452381Y-82498514D01*
X173452381Y-82498514D02*
X173357143Y-82546133D01*
X174357143Y-82260419D02*
X174357143Y-83069942D01*
X174357143Y-83069942D02*
X174404762Y-83165180D01*
X174404762Y-83165180D02*
X174452381Y-83212800D01*
X174452381Y-83212800D02*
X174547619Y-83260419D01*
X174547619Y-83260419D02*
X174738095Y-83260419D01*
X174738095Y-83260419D02*
X174833333Y-83212800D01*
X174833333Y-83212800D02*
X174880952Y-83165180D01*
X174880952Y-83165180D02*
X174928571Y-83069942D01*
X174928571Y-83069942D02*
X174928571Y-82260419D01*
X228821429Y-64260419D02*
X228821429Y-63260419D01*
X229392857Y-64260419D02*
X228964286Y-63688990D01*
X229392857Y-63260419D02*
X228821429Y-63831847D01*
X229773810Y-64212800D02*
X229916667Y-64260419D01*
X229916667Y-64260419D02*
X230154762Y-64260419D01*
X230154762Y-64260419D02*
X230250000Y-64212800D01*
X230250000Y-64212800D02*
X230297619Y-64165180D01*
X230297619Y-64165180D02*
X230345238Y-64069942D01*
X230345238Y-64069942D02*
X230345238Y-63974704D01*
X230345238Y-63974704D02*
X230297619Y-63879466D01*
X230297619Y-63879466D02*
X230250000Y-63831847D01*
X230250000Y-63831847D02*
X230154762Y-63784228D01*
X230154762Y-63784228D02*
X229964286Y-63736609D01*
X229964286Y-63736609D02*
X229869048Y-63688990D01*
X229869048Y-63688990D02*
X229821429Y-63641371D01*
X229821429Y-63641371D02*
X229773810Y-63546133D01*
X229773810Y-63546133D02*
X229773810Y-63450895D01*
X229773810Y-63450895D02*
X229821429Y-63355657D01*
X229821429Y-63355657D02*
X229869048Y-63308038D01*
X229869048Y-63308038D02*
X229964286Y-63260419D01*
X229964286Y-63260419D02*
X230202381Y-63260419D01*
X230202381Y-63260419D02*
X230345238Y-63308038D01*
X230773810Y-63879466D02*
X231535715Y-63879466D01*
X231916667Y-63260419D02*
X232535714Y-63260419D01*
X232535714Y-63260419D02*
X232202381Y-63641371D01*
X232202381Y-63641371D02*
X232345238Y-63641371D01*
X232345238Y-63641371D02*
X232440476Y-63688990D01*
X232440476Y-63688990D02*
X232488095Y-63736609D01*
X232488095Y-63736609D02*
X232535714Y-63831847D01*
X232535714Y-63831847D02*
X232535714Y-64069942D01*
X232535714Y-64069942D02*
X232488095Y-64165180D01*
X232488095Y-64165180D02*
X232440476Y-64212800D01*
X232440476Y-64212800D02*
X232345238Y-64260419D01*
X232345238Y-64260419D02*
X232059524Y-64260419D01*
X232059524Y-64260419D02*
X231964286Y-64212800D01*
X231964286Y-64212800D02*
X231916667Y-64165180D01*
X232869048Y-63260419D02*
X233488095Y-63260419D01*
X233488095Y-63260419D02*
X233154762Y-63641371D01*
X233154762Y-63641371D02*
X233297619Y-63641371D01*
X233297619Y-63641371D02*
X233392857Y-63688990D01*
X233392857Y-63688990D02*
X233440476Y-63736609D01*
X233440476Y-63736609D02*
X233488095Y-63831847D01*
X233488095Y-63831847D02*
X233488095Y-64069942D01*
X233488095Y-64069942D02*
X233440476Y-64165180D01*
X233440476Y-64165180D02*
X233392857Y-64212800D01*
X233392857Y-64212800D02*
X233297619Y-64260419D01*
X233297619Y-64260419D02*
X233011905Y-64260419D01*
X233011905Y-64260419D02*
X232916667Y-64212800D01*
X232916667Y-64212800D02*
X232869048Y-64165180D01*
X233916667Y-63879466D02*
X234678572Y-63879466D01*
X235678571Y-64260419D02*
X235107143Y-64260419D01*
X235392857Y-64260419D02*
X235392857Y-63260419D01*
X235392857Y-63260419D02*
X235297619Y-63403276D01*
X235297619Y-63403276D02*
X235202381Y-63498514D01*
X235202381Y-63498514D02*
X235107143Y-63546133D01*
X236107143Y-63260419D02*
X236107143Y-64069942D01*
X236107143Y-64069942D02*
X236154762Y-64165180D01*
X236154762Y-64165180D02*
X236202381Y-64212800D01*
X236202381Y-64212800D02*
X236297619Y-64260419D01*
X236297619Y-64260419D02*
X236488095Y-64260419D01*
X236488095Y-64260419D02*
X236583333Y-64212800D01*
X236583333Y-64212800D02*
X236630952Y-64165180D01*
X236630952Y-64165180D02*
X236678571Y-64069942D01*
X236678571Y-64069942D02*
X236678571Y-63260419D01*
X38821429Y-45260419D02*
X38821429Y-44260419D01*
X39392857Y-45260419D02*
X38964286Y-44688990D01*
X39392857Y-44260419D02*
X38821429Y-44831847D01*
X39773810Y-45212800D02*
X39916667Y-45260419D01*
X39916667Y-45260419D02*
X40154762Y-45260419D01*
X40154762Y-45260419D02*
X40250000Y-45212800D01*
X40250000Y-45212800D02*
X40297619Y-45165180D01*
X40297619Y-45165180D02*
X40345238Y-45069942D01*
X40345238Y-45069942D02*
X40345238Y-44974704D01*
X40345238Y-44974704D02*
X40297619Y-44879466D01*
X40297619Y-44879466D02*
X40250000Y-44831847D01*
X40250000Y-44831847D02*
X40154762Y-44784228D01*
X40154762Y-44784228D02*
X39964286Y-44736609D01*
X39964286Y-44736609D02*
X39869048Y-44688990D01*
X39869048Y-44688990D02*
X39821429Y-44641371D01*
X39821429Y-44641371D02*
X39773810Y-44546133D01*
X39773810Y-44546133D02*
X39773810Y-44450895D01*
X39773810Y-44450895D02*
X39821429Y-44355657D01*
X39821429Y-44355657D02*
X39869048Y-44308038D01*
X39869048Y-44308038D02*
X39964286Y-44260419D01*
X39964286Y-44260419D02*
X40202381Y-44260419D01*
X40202381Y-44260419D02*
X40345238Y-44308038D01*
X40773810Y-44879466D02*
X41535715Y-44879466D01*
X41916667Y-44260419D02*
X42535714Y-44260419D01*
X42535714Y-44260419D02*
X42202381Y-44641371D01*
X42202381Y-44641371D02*
X42345238Y-44641371D01*
X42345238Y-44641371D02*
X42440476Y-44688990D01*
X42440476Y-44688990D02*
X42488095Y-44736609D01*
X42488095Y-44736609D02*
X42535714Y-44831847D01*
X42535714Y-44831847D02*
X42535714Y-45069942D01*
X42535714Y-45069942D02*
X42488095Y-45165180D01*
X42488095Y-45165180D02*
X42440476Y-45212800D01*
X42440476Y-45212800D02*
X42345238Y-45260419D01*
X42345238Y-45260419D02*
X42059524Y-45260419D01*
X42059524Y-45260419D02*
X41964286Y-45212800D01*
X41964286Y-45212800D02*
X41916667Y-45165180D01*
X42869048Y-44260419D02*
X43488095Y-44260419D01*
X43488095Y-44260419D02*
X43154762Y-44641371D01*
X43154762Y-44641371D02*
X43297619Y-44641371D01*
X43297619Y-44641371D02*
X43392857Y-44688990D01*
X43392857Y-44688990D02*
X43440476Y-44736609D01*
X43440476Y-44736609D02*
X43488095Y-44831847D01*
X43488095Y-44831847D02*
X43488095Y-45069942D01*
X43488095Y-45069942D02*
X43440476Y-45165180D01*
X43440476Y-45165180D02*
X43392857Y-45212800D01*
X43392857Y-45212800D02*
X43297619Y-45260419D01*
X43297619Y-45260419D02*
X43011905Y-45260419D01*
X43011905Y-45260419D02*
X42916667Y-45212800D01*
X42916667Y-45212800D02*
X42869048Y-45165180D01*
X43916667Y-44879466D02*
X44678572Y-44879466D01*
X45678571Y-45260419D02*
X45107143Y-45260419D01*
X45392857Y-45260419D02*
X45392857Y-44260419D01*
X45392857Y-44260419D02*
X45297619Y-44403276D01*
X45297619Y-44403276D02*
X45202381Y-44498514D01*
X45202381Y-44498514D02*
X45107143Y-44546133D01*
X46107143Y-44260419D02*
X46107143Y-45069942D01*
X46107143Y-45069942D02*
X46154762Y-45165180D01*
X46154762Y-45165180D02*
X46202381Y-45212800D01*
X46202381Y-45212800D02*
X46297619Y-45260419D01*
X46297619Y-45260419D02*
X46488095Y-45260419D01*
X46488095Y-45260419D02*
X46583333Y-45212800D01*
X46583333Y-45212800D02*
X46630952Y-45165180D01*
X46630952Y-45165180D02*
X46678571Y-45069942D01*
X46678571Y-45069942D02*
X46678571Y-44260419D01*
X124321429Y-64260419D02*
X124321429Y-63260419D01*
X124892857Y-64260419D02*
X124464286Y-63688990D01*
X124892857Y-63260419D02*
X124321429Y-63831847D01*
X125273810Y-64212800D02*
X125416667Y-64260419D01*
X125416667Y-64260419D02*
X125654762Y-64260419D01*
X125654762Y-64260419D02*
X125750000Y-64212800D01*
X125750000Y-64212800D02*
X125797619Y-64165180D01*
X125797619Y-64165180D02*
X125845238Y-64069942D01*
X125845238Y-64069942D02*
X125845238Y-63974704D01*
X125845238Y-63974704D02*
X125797619Y-63879466D01*
X125797619Y-63879466D02*
X125750000Y-63831847D01*
X125750000Y-63831847D02*
X125654762Y-63784228D01*
X125654762Y-63784228D02*
X125464286Y-63736609D01*
X125464286Y-63736609D02*
X125369048Y-63688990D01*
X125369048Y-63688990D02*
X125321429Y-63641371D01*
X125321429Y-63641371D02*
X125273810Y-63546133D01*
X125273810Y-63546133D02*
X125273810Y-63450895D01*
X125273810Y-63450895D02*
X125321429Y-63355657D01*
X125321429Y-63355657D02*
X125369048Y-63308038D01*
X125369048Y-63308038D02*
X125464286Y-63260419D01*
X125464286Y-63260419D02*
X125702381Y-63260419D01*
X125702381Y-63260419D02*
X125845238Y-63308038D01*
X126273810Y-63879466D02*
X127035715Y-63879466D01*
X127416667Y-63260419D02*
X128035714Y-63260419D01*
X128035714Y-63260419D02*
X127702381Y-63641371D01*
X127702381Y-63641371D02*
X127845238Y-63641371D01*
X127845238Y-63641371D02*
X127940476Y-63688990D01*
X127940476Y-63688990D02*
X127988095Y-63736609D01*
X127988095Y-63736609D02*
X128035714Y-63831847D01*
X128035714Y-63831847D02*
X128035714Y-64069942D01*
X128035714Y-64069942D02*
X127988095Y-64165180D01*
X127988095Y-64165180D02*
X127940476Y-64212800D01*
X127940476Y-64212800D02*
X127845238Y-64260419D01*
X127845238Y-64260419D02*
X127559524Y-64260419D01*
X127559524Y-64260419D02*
X127464286Y-64212800D01*
X127464286Y-64212800D02*
X127416667Y-64165180D01*
X128369048Y-63260419D02*
X128988095Y-63260419D01*
X128988095Y-63260419D02*
X128654762Y-63641371D01*
X128654762Y-63641371D02*
X128797619Y-63641371D01*
X128797619Y-63641371D02*
X128892857Y-63688990D01*
X128892857Y-63688990D02*
X128940476Y-63736609D01*
X128940476Y-63736609D02*
X128988095Y-63831847D01*
X128988095Y-63831847D02*
X128988095Y-64069942D01*
X128988095Y-64069942D02*
X128940476Y-64165180D01*
X128940476Y-64165180D02*
X128892857Y-64212800D01*
X128892857Y-64212800D02*
X128797619Y-64260419D01*
X128797619Y-64260419D02*
X128511905Y-64260419D01*
X128511905Y-64260419D02*
X128416667Y-64212800D01*
X128416667Y-64212800D02*
X128369048Y-64165180D01*
X129416667Y-63879466D02*
X130178572Y-63879466D01*
X131178571Y-64260419D02*
X130607143Y-64260419D01*
X130892857Y-64260419D02*
X130892857Y-63260419D01*
X130892857Y-63260419D02*
X130797619Y-63403276D01*
X130797619Y-63403276D02*
X130702381Y-63498514D01*
X130702381Y-63498514D02*
X130607143Y-63546133D01*
X131607143Y-63260419D02*
X131607143Y-64069942D01*
X131607143Y-64069942D02*
X131654762Y-64165180D01*
X131654762Y-64165180D02*
X131702381Y-64212800D01*
X131702381Y-64212800D02*
X131797619Y-64260419D01*
X131797619Y-64260419D02*
X131988095Y-64260419D01*
X131988095Y-64260419D02*
X132083333Y-64212800D01*
X132083333Y-64212800D02*
X132130952Y-64165180D01*
X132130952Y-64165180D02*
X132178571Y-64069942D01*
X132178571Y-64069942D02*
X132178571Y-63260419D01*
X91071429Y-26260419D02*
X91071429Y-25260419D01*
X91642857Y-26260419D02*
X91214286Y-25688990D01*
X91642857Y-25260419D02*
X91071429Y-25831847D01*
X92023810Y-26212800D02*
X92166667Y-26260419D01*
X92166667Y-26260419D02*
X92404762Y-26260419D01*
X92404762Y-26260419D02*
X92500000Y-26212800D01*
X92500000Y-26212800D02*
X92547619Y-26165180D01*
X92547619Y-26165180D02*
X92595238Y-26069942D01*
X92595238Y-26069942D02*
X92595238Y-25974704D01*
X92595238Y-25974704D02*
X92547619Y-25879466D01*
X92547619Y-25879466D02*
X92500000Y-25831847D01*
X92500000Y-25831847D02*
X92404762Y-25784228D01*
X92404762Y-25784228D02*
X92214286Y-25736609D01*
X92214286Y-25736609D02*
X92119048Y-25688990D01*
X92119048Y-25688990D02*
X92071429Y-25641371D01*
X92071429Y-25641371D02*
X92023810Y-25546133D01*
X92023810Y-25546133D02*
X92023810Y-25450895D01*
X92023810Y-25450895D02*
X92071429Y-25355657D01*
X92071429Y-25355657D02*
X92119048Y-25308038D01*
X92119048Y-25308038D02*
X92214286Y-25260419D01*
X92214286Y-25260419D02*
X92452381Y-25260419D01*
X92452381Y-25260419D02*
X92595238Y-25308038D01*
X93023810Y-25879466D02*
X93785715Y-25879466D01*
X94166667Y-25260419D02*
X94785714Y-25260419D01*
X94785714Y-25260419D02*
X94452381Y-25641371D01*
X94452381Y-25641371D02*
X94595238Y-25641371D01*
X94595238Y-25641371D02*
X94690476Y-25688990D01*
X94690476Y-25688990D02*
X94738095Y-25736609D01*
X94738095Y-25736609D02*
X94785714Y-25831847D01*
X94785714Y-25831847D02*
X94785714Y-26069942D01*
X94785714Y-26069942D02*
X94738095Y-26165180D01*
X94738095Y-26165180D02*
X94690476Y-26212800D01*
X94690476Y-26212800D02*
X94595238Y-26260419D01*
X94595238Y-26260419D02*
X94309524Y-26260419D01*
X94309524Y-26260419D02*
X94214286Y-26212800D01*
X94214286Y-26212800D02*
X94166667Y-26165180D01*
X95119048Y-25260419D02*
X95738095Y-25260419D01*
X95738095Y-25260419D02*
X95404762Y-25641371D01*
X95404762Y-25641371D02*
X95547619Y-25641371D01*
X95547619Y-25641371D02*
X95642857Y-25688990D01*
X95642857Y-25688990D02*
X95690476Y-25736609D01*
X95690476Y-25736609D02*
X95738095Y-25831847D01*
X95738095Y-25831847D02*
X95738095Y-26069942D01*
X95738095Y-26069942D02*
X95690476Y-26165180D01*
X95690476Y-26165180D02*
X95642857Y-26212800D01*
X95642857Y-26212800D02*
X95547619Y-26260419D01*
X95547619Y-26260419D02*
X95261905Y-26260419D01*
X95261905Y-26260419D02*
X95166667Y-26212800D01*
X95166667Y-26212800D02*
X95119048Y-26165180D01*
X96166667Y-25879466D02*
X96928572Y-25879466D01*
X97928571Y-26260419D02*
X97357143Y-26260419D01*
X97642857Y-26260419D02*
X97642857Y-25260419D01*
X97642857Y-25260419D02*
X97547619Y-25403276D01*
X97547619Y-25403276D02*
X97452381Y-25498514D01*
X97452381Y-25498514D02*
X97357143Y-25546133D01*
X98357143Y-25260419D02*
X98357143Y-26069942D01*
X98357143Y-26069942D02*
X98404762Y-26165180D01*
X98404762Y-26165180D02*
X98452381Y-26212800D01*
X98452381Y-26212800D02*
X98547619Y-26260419D01*
X98547619Y-26260419D02*
X98738095Y-26260419D01*
X98738095Y-26260419D02*
X98833333Y-26212800D01*
X98833333Y-26212800D02*
X98880952Y-26165180D01*
X98880952Y-26165180D02*
X98928571Y-26069942D01*
X98928571Y-26069942D02*
X98928571Y-25260419D01*
X209821429Y-45260419D02*
X209821429Y-44260419D01*
X210392857Y-45260419D02*
X209964286Y-44688990D01*
X210392857Y-44260419D02*
X209821429Y-44831847D01*
X210773810Y-45212800D02*
X210916667Y-45260419D01*
X210916667Y-45260419D02*
X211154762Y-45260419D01*
X211154762Y-45260419D02*
X211250000Y-45212800D01*
X211250000Y-45212800D02*
X211297619Y-45165180D01*
X211297619Y-45165180D02*
X211345238Y-45069942D01*
X211345238Y-45069942D02*
X211345238Y-44974704D01*
X211345238Y-44974704D02*
X211297619Y-44879466D01*
X211297619Y-44879466D02*
X211250000Y-44831847D01*
X211250000Y-44831847D02*
X211154762Y-44784228D01*
X211154762Y-44784228D02*
X210964286Y-44736609D01*
X210964286Y-44736609D02*
X210869048Y-44688990D01*
X210869048Y-44688990D02*
X210821429Y-44641371D01*
X210821429Y-44641371D02*
X210773810Y-44546133D01*
X210773810Y-44546133D02*
X210773810Y-44450895D01*
X210773810Y-44450895D02*
X210821429Y-44355657D01*
X210821429Y-44355657D02*
X210869048Y-44308038D01*
X210869048Y-44308038D02*
X210964286Y-44260419D01*
X210964286Y-44260419D02*
X211202381Y-44260419D01*
X211202381Y-44260419D02*
X211345238Y-44308038D01*
X211773810Y-44879466D02*
X212535715Y-44879466D01*
X212916667Y-44260419D02*
X213535714Y-44260419D01*
X213535714Y-44260419D02*
X213202381Y-44641371D01*
X213202381Y-44641371D02*
X213345238Y-44641371D01*
X213345238Y-44641371D02*
X213440476Y-44688990D01*
X213440476Y-44688990D02*
X213488095Y-44736609D01*
X213488095Y-44736609D02*
X213535714Y-44831847D01*
X213535714Y-44831847D02*
X213535714Y-45069942D01*
X213535714Y-45069942D02*
X213488095Y-45165180D01*
X213488095Y-45165180D02*
X213440476Y-45212800D01*
X213440476Y-45212800D02*
X213345238Y-45260419D01*
X213345238Y-45260419D02*
X213059524Y-45260419D01*
X213059524Y-45260419D02*
X212964286Y-45212800D01*
X212964286Y-45212800D02*
X212916667Y-45165180D01*
X213869048Y-44260419D02*
X214488095Y-44260419D01*
X214488095Y-44260419D02*
X214154762Y-44641371D01*
X214154762Y-44641371D02*
X214297619Y-44641371D01*
X214297619Y-44641371D02*
X214392857Y-44688990D01*
X214392857Y-44688990D02*
X214440476Y-44736609D01*
X214440476Y-44736609D02*
X214488095Y-44831847D01*
X214488095Y-44831847D02*
X214488095Y-45069942D01*
X214488095Y-45069942D02*
X214440476Y-45165180D01*
X214440476Y-45165180D02*
X214392857Y-45212800D01*
X214392857Y-45212800D02*
X214297619Y-45260419D01*
X214297619Y-45260419D02*
X214011905Y-45260419D01*
X214011905Y-45260419D02*
X213916667Y-45212800D01*
X213916667Y-45212800D02*
X213869048Y-45165180D01*
X214916667Y-44879466D02*
X215678572Y-44879466D01*
X216678571Y-45260419D02*
X216107143Y-45260419D01*
X216392857Y-45260419D02*
X216392857Y-44260419D01*
X216392857Y-44260419D02*
X216297619Y-44403276D01*
X216297619Y-44403276D02*
X216202381Y-44498514D01*
X216202381Y-44498514D02*
X216107143Y-44546133D01*
X217107143Y-44260419D02*
X217107143Y-45069942D01*
X217107143Y-45069942D02*
X217154762Y-45165180D01*
X217154762Y-45165180D02*
X217202381Y-45212800D01*
X217202381Y-45212800D02*
X217297619Y-45260419D01*
X217297619Y-45260419D02*
X217488095Y-45260419D01*
X217488095Y-45260419D02*
X217583333Y-45212800D01*
X217583333Y-45212800D02*
X217630952Y-45165180D01*
X217630952Y-45165180D02*
X217678571Y-45069942D01*
X217678571Y-45069942D02*
X217678571Y-44260419D01*
X162321429Y-64260419D02*
X162321429Y-63260419D01*
X162892857Y-64260419D02*
X162464286Y-63688990D01*
X162892857Y-63260419D02*
X162321429Y-63831847D01*
X163273810Y-64212800D02*
X163416667Y-64260419D01*
X163416667Y-64260419D02*
X163654762Y-64260419D01*
X163654762Y-64260419D02*
X163750000Y-64212800D01*
X163750000Y-64212800D02*
X163797619Y-64165180D01*
X163797619Y-64165180D02*
X163845238Y-64069942D01*
X163845238Y-64069942D02*
X163845238Y-63974704D01*
X163845238Y-63974704D02*
X163797619Y-63879466D01*
X163797619Y-63879466D02*
X163750000Y-63831847D01*
X163750000Y-63831847D02*
X163654762Y-63784228D01*
X163654762Y-63784228D02*
X163464286Y-63736609D01*
X163464286Y-63736609D02*
X163369048Y-63688990D01*
X163369048Y-63688990D02*
X163321429Y-63641371D01*
X163321429Y-63641371D02*
X163273810Y-63546133D01*
X163273810Y-63546133D02*
X163273810Y-63450895D01*
X163273810Y-63450895D02*
X163321429Y-63355657D01*
X163321429Y-63355657D02*
X163369048Y-63308038D01*
X163369048Y-63308038D02*
X163464286Y-63260419D01*
X163464286Y-63260419D02*
X163702381Y-63260419D01*
X163702381Y-63260419D02*
X163845238Y-63308038D01*
X164273810Y-63879466D02*
X165035715Y-63879466D01*
X165416667Y-63260419D02*
X166035714Y-63260419D01*
X166035714Y-63260419D02*
X165702381Y-63641371D01*
X165702381Y-63641371D02*
X165845238Y-63641371D01*
X165845238Y-63641371D02*
X165940476Y-63688990D01*
X165940476Y-63688990D02*
X165988095Y-63736609D01*
X165988095Y-63736609D02*
X166035714Y-63831847D01*
X166035714Y-63831847D02*
X166035714Y-64069942D01*
X166035714Y-64069942D02*
X165988095Y-64165180D01*
X165988095Y-64165180D02*
X165940476Y-64212800D01*
X165940476Y-64212800D02*
X165845238Y-64260419D01*
X165845238Y-64260419D02*
X165559524Y-64260419D01*
X165559524Y-64260419D02*
X165464286Y-64212800D01*
X165464286Y-64212800D02*
X165416667Y-64165180D01*
X166369048Y-63260419D02*
X166988095Y-63260419D01*
X166988095Y-63260419D02*
X166654762Y-63641371D01*
X166654762Y-63641371D02*
X166797619Y-63641371D01*
X166797619Y-63641371D02*
X166892857Y-63688990D01*
X166892857Y-63688990D02*
X166940476Y-63736609D01*
X166940476Y-63736609D02*
X166988095Y-63831847D01*
X166988095Y-63831847D02*
X166988095Y-64069942D01*
X166988095Y-64069942D02*
X166940476Y-64165180D01*
X166940476Y-64165180D02*
X166892857Y-64212800D01*
X166892857Y-64212800D02*
X166797619Y-64260419D01*
X166797619Y-64260419D02*
X166511905Y-64260419D01*
X166511905Y-64260419D02*
X166416667Y-64212800D01*
X166416667Y-64212800D02*
X166369048Y-64165180D01*
X167416667Y-63879466D02*
X168178572Y-63879466D01*
X169178571Y-64260419D02*
X168607143Y-64260419D01*
X168892857Y-64260419D02*
X168892857Y-63260419D01*
X168892857Y-63260419D02*
X168797619Y-63403276D01*
X168797619Y-63403276D02*
X168702381Y-63498514D01*
X168702381Y-63498514D02*
X168607143Y-63546133D01*
X169607143Y-63260419D02*
X169607143Y-64069942D01*
X169607143Y-64069942D02*
X169654762Y-64165180D01*
X169654762Y-64165180D02*
X169702381Y-64212800D01*
X169702381Y-64212800D02*
X169797619Y-64260419D01*
X169797619Y-64260419D02*
X169988095Y-64260419D01*
X169988095Y-64260419D02*
X170083333Y-64212800D01*
X170083333Y-64212800D02*
X170130952Y-64165180D01*
X170130952Y-64165180D02*
X170178571Y-64069942D01*
X170178571Y-64069942D02*
X170178571Y-63260419D01*
X148071429Y-26260419D02*
X148071429Y-25260419D01*
X148642857Y-26260419D02*
X148214286Y-25688990D01*
X148642857Y-25260419D02*
X148071429Y-25831847D01*
X149023810Y-26212800D02*
X149166667Y-26260419D01*
X149166667Y-26260419D02*
X149404762Y-26260419D01*
X149404762Y-26260419D02*
X149500000Y-26212800D01*
X149500000Y-26212800D02*
X149547619Y-26165180D01*
X149547619Y-26165180D02*
X149595238Y-26069942D01*
X149595238Y-26069942D02*
X149595238Y-25974704D01*
X149595238Y-25974704D02*
X149547619Y-25879466D01*
X149547619Y-25879466D02*
X149500000Y-25831847D01*
X149500000Y-25831847D02*
X149404762Y-25784228D01*
X149404762Y-25784228D02*
X149214286Y-25736609D01*
X149214286Y-25736609D02*
X149119048Y-25688990D01*
X149119048Y-25688990D02*
X149071429Y-25641371D01*
X149071429Y-25641371D02*
X149023810Y-25546133D01*
X149023810Y-25546133D02*
X149023810Y-25450895D01*
X149023810Y-25450895D02*
X149071429Y-25355657D01*
X149071429Y-25355657D02*
X149119048Y-25308038D01*
X149119048Y-25308038D02*
X149214286Y-25260419D01*
X149214286Y-25260419D02*
X149452381Y-25260419D01*
X149452381Y-25260419D02*
X149595238Y-25308038D01*
X150023810Y-25879466D02*
X150785715Y-25879466D01*
X151166667Y-25260419D02*
X151785714Y-25260419D01*
X151785714Y-25260419D02*
X151452381Y-25641371D01*
X151452381Y-25641371D02*
X151595238Y-25641371D01*
X151595238Y-25641371D02*
X151690476Y-25688990D01*
X151690476Y-25688990D02*
X151738095Y-25736609D01*
X151738095Y-25736609D02*
X151785714Y-25831847D01*
X151785714Y-25831847D02*
X151785714Y-26069942D01*
X151785714Y-26069942D02*
X151738095Y-26165180D01*
X151738095Y-26165180D02*
X151690476Y-26212800D01*
X151690476Y-26212800D02*
X151595238Y-26260419D01*
X151595238Y-26260419D02*
X151309524Y-26260419D01*
X151309524Y-26260419D02*
X151214286Y-26212800D01*
X151214286Y-26212800D02*
X151166667Y-26165180D01*
X152119048Y-25260419D02*
X152738095Y-25260419D01*
X152738095Y-25260419D02*
X152404762Y-25641371D01*
X152404762Y-25641371D02*
X152547619Y-25641371D01*
X152547619Y-25641371D02*
X152642857Y-25688990D01*
X152642857Y-25688990D02*
X152690476Y-25736609D01*
X152690476Y-25736609D02*
X152738095Y-25831847D01*
X152738095Y-25831847D02*
X152738095Y-26069942D01*
X152738095Y-26069942D02*
X152690476Y-26165180D01*
X152690476Y-26165180D02*
X152642857Y-26212800D01*
X152642857Y-26212800D02*
X152547619Y-26260419D01*
X152547619Y-26260419D02*
X152261905Y-26260419D01*
X152261905Y-26260419D02*
X152166667Y-26212800D01*
X152166667Y-26212800D02*
X152119048Y-26165180D01*
X153166667Y-25879466D02*
X153928572Y-25879466D01*
X154928571Y-26260419D02*
X154357143Y-26260419D01*
X154642857Y-26260419D02*
X154642857Y-25260419D01*
X154642857Y-25260419D02*
X154547619Y-25403276D01*
X154547619Y-25403276D02*
X154452381Y-25498514D01*
X154452381Y-25498514D02*
X154357143Y-25546133D01*
X155357143Y-25260419D02*
X155357143Y-26069942D01*
X155357143Y-26069942D02*
X155404762Y-26165180D01*
X155404762Y-26165180D02*
X155452381Y-26212800D01*
X155452381Y-26212800D02*
X155547619Y-26260419D01*
X155547619Y-26260419D02*
X155738095Y-26260419D01*
X155738095Y-26260419D02*
X155833333Y-26212800D01*
X155833333Y-26212800D02*
X155880952Y-26165180D01*
X155880952Y-26165180D02*
X155928571Y-26069942D01*
X155928571Y-26069942D02*
X155928571Y-25260419D01*
X57821429Y-45260419D02*
X57821429Y-44260419D01*
X58392857Y-45260419D02*
X57964286Y-44688990D01*
X58392857Y-44260419D02*
X57821429Y-44831847D01*
X58773810Y-45212800D02*
X58916667Y-45260419D01*
X58916667Y-45260419D02*
X59154762Y-45260419D01*
X59154762Y-45260419D02*
X59250000Y-45212800D01*
X59250000Y-45212800D02*
X59297619Y-45165180D01*
X59297619Y-45165180D02*
X59345238Y-45069942D01*
X59345238Y-45069942D02*
X59345238Y-44974704D01*
X59345238Y-44974704D02*
X59297619Y-44879466D01*
X59297619Y-44879466D02*
X59250000Y-44831847D01*
X59250000Y-44831847D02*
X59154762Y-44784228D01*
X59154762Y-44784228D02*
X58964286Y-44736609D01*
X58964286Y-44736609D02*
X58869048Y-44688990D01*
X58869048Y-44688990D02*
X58821429Y-44641371D01*
X58821429Y-44641371D02*
X58773810Y-44546133D01*
X58773810Y-44546133D02*
X58773810Y-44450895D01*
X58773810Y-44450895D02*
X58821429Y-44355657D01*
X58821429Y-44355657D02*
X58869048Y-44308038D01*
X58869048Y-44308038D02*
X58964286Y-44260419D01*
X58964286Y-44260419D02*
X59202381Y-44260419D01*
X59202381Y-44260419D02*
X59345238Y-44308038D01*
X59773810Y-44879466D02*
X60535715Y-44879466D01*
X60916667Y-44260419D02*
X61535714Y-44260419D01*
X61535714Y-44260419D02*
X61202381Y-44641371D01*
X61202381Y-44641371D02*
X61345238Y-44641371D01*
X61345238Y-44641371D02*
X61440476Y-44688990D01*
X61440476Y-44688990D02*
X61488095Y-44736609D01*
X61488095Y-44736609D02*
X61535714Y-44831847D01*
X61535714Y-44831847D02*
X61535714Y-45069942D01*
X61535714Y-45069942D02*
X61488095Y-45165180D01*
X61488095Y-45165180D02*
X61440476Y-45212800D01*
X61440476Y-45212800D02*
X61345238Y-45260419D01*
X61345238Y-45260419D02*
X61059524Y-45260419D01*
X61059524Y-45260419D02*
X60964286Y-45212800D01*
X60964286Y-45212800D02*
X60916667Y-45165180D01*
X61869048Y-44260419D02*
X62488095Y-44260419D01*
X62488095Y-44260419D02*
X62154762Y-44641371D01*
X62154762Y-44641371D02*
X62297619Y-44641371D01*
X62297619Y-44641371D02*
X62392857Y-44688990D01*
X62392857Y-44688990D02*
X62440476Y-44736609D01*
X62440476Y-44736609D02*
X62488095Y-44831847D01*
X62488095Y-44831847D02*
X62488095Y-45069942D01*
X62488095Y-45069942D02*
X62440476Y-45165180D01*
X62440476Y-45165180D02*
X62392857Y-45212800D01*
X62392857Y-45212800D02*
X62297619Y-45260419D01*
X62297619Y-45260419D02*
X62011905Y-45260419D01*
X62011905Y-45260419D02*
X61916667Y-45212800D01*
X61916667Y-45212800D02*
X61869048Y-45165180D01*
X62916667Y-44879466D02*
X63678572Y-44879466D01*
X64678571Y-45260419D02*
X64107143Y-45260419D01*
X64392857Y-45260419D02*
X64392857Y-44260419D01*
X64392857Y-44260419D02*
X64297619Y-44403276D01*
X64297619Y-44403276D02*
X64202381Y-44498514D01*
X64202381Y-44498514D02*
X64107143Y-44546133D01*
X65107143Y-44260419D02*
X65107143Y-45069942D01*
X65107143Y-45069942D02*
X65154762Y-45165180D01*
X65154762Y-45165180D02*
X65202381Y-45212800D01*
X65202381Y-45212800D02*
X65297619Y-45260419D01*
X65297619Y-45260419D02*
X65488095Y-45260419D01*
X65488095Y-45260419D02*
X65583333Y-45212800D01*
X65583333Y-45212800D02*
X65630952Y-45165180D01*
X65630952Y-45165180D02*
X65678571Y-45069942D01*
X65678571Y-45069942D02*
X65678571Y-44260419D01*
X95821429Y-45260419D02*
X95821429Y-44260419D01*
X96392857Y-45260419D02*
X95964286Y-44688990D01*
X96392857Y-44260419D02*
X95821429Y-44831847D01*
X96773810Y-45212800D02*
X96916667Y-45260419D01*
X96916667Y-45260419D02*
X97154762Y-45260419D01*
X97154762Y-45260419D02*
X97250000Y-45212800D01*
X97250000Y-45212800D02*
X97297619Y-45165180D01*
X97297619Y-45165180D02*
X97345238Y-45069942D01*
X97345238Y-45069942D02*
X97345238Y-44974704D01*
X97345238Y-44974704D02*
X97297619Y-44879466D01*
X97297619Y-44879466D02*
X97250000Y-44831847D01*
X97250000Y-44831847D02*
X97154762Y-44784228D01*
X97154762Y-44784228D02*
X96964286Y-44736609D01*
X96964286Y-44736609D02*
X96869048Y-44688990D01*
X96869048Y-44688990D02*
X96821429Y-44641371D01*
X96821429Y-44641371D02*
X96773810Y-44546133D01*
X96773810Y-44546133D02*
X96773810Y-44450895D01*
X96773810Y-44450895D02*
X96821429Y-44355657D01*
X96821429Y-44355657D02*
X96869048Y-44308038D01*
X96869048Y-44308038D02*
X96964286Y-44260419D01*
X96964286Y-44260419D02*
X97202381Y-44260419D01*
X97202381Y-44260419D02*
X97345238Y-44308038D01*
X97773810Y-44879466D02*
X98535715Y-44879466D01*
X98916667Y-44260419D02*
X99535714Y-44260419D01*
X99535714Y-44260419D02*
X99202381Y-44641371D01*
X99202381Y-44641371D02*
X99345238Y-44641371D01*
X99345238Y-44641371D02*
X99440476Y-44688990D01*
X99440476Y-44688990D02*
X99488095Y-44736609D01*
X99488095Y-44736609D02*
X99535714Y-44831847D01*
X99535714Y-44831847D02*
X99535714Y-45069942D01*
X99535714Y-45069942D02*
X99488095Y-45165180D01*
X99488095Y-45165180D02*
X99440476Y-45212800D01*
X99440476Y-45212800D02*
X99345238Y-45260419D01*
X99345238Y-45260419D02*
X99059524Y-45260419D01*
X99059524Y-45260419D02*
X98964286Y-45212800D01*
X98964286Y-45212800D02*
X98916667Y-45165180D01*
X99869048Y-44260419D02*
X100488095Y-44260419D01*
X100488095Y-44260419D02*
X100154762Y-44641371D01*
X100154762Y-44641371D02*
X100297619Y-44641371D01*
X100297619Y-44641371D02*
X100392857Y-44688990D01*
X100392857Y-44688990D02*
X100440476Y-44736609D01*
X100440476Y-44736609D02*
X100488095Y-44831847D01*
X100488095Y-44831847D02*
X100488095Y-45069942D01*
X100488095Y-45069942D02*
X100440476Y-45165180D01*
X100440476Y-45165180D02*
X100392857Y-45212800D01*
X100392857Y-45212800D02*
X100297619Y-45260419D01*
X100297619Y-45260419D02*
X100011905Y-45260419D01*
X100011905Y-45260419D02*
X99916667Y-45212800D01*
X99916667Y-45212800D02*
X99869048Y-45165180D01*
X100916667Y-44879466D02*
X101678572Y-44879466D01*
X102678571Y-45260419D02*
X102107143Y-45260419D01*
X102392857Y-45260419D02*
X102392857Y-44260419D01*
X102392857Y-44260419D02*
X102297619Y-44403276D01*
X102297619Y-44403276D02*
X102202381Y-44498514D01*
X102202381Y-44498514D02*
X102107143Y-44546133D01*
X103107143Y-44260419D02*
X103107143Y-45069942D01*
X103107143Y-45069942D02*
X103154762Y-45165180D01*
X103154762Y-45165180D02*
X103202381Y-45212800D01*
X103202381Y-45212800D02*
X103297619Y-45260419D01*
X103297619Y-45260419D02*
X103488095Y-45260419D01*
X103488095Y-45260419D02*
X103583333Y-45212800D01*
X103583333Y-45212800D02*
X103630952Y-45165180D01*
X103630952Y-45165180D02*
X103678571Y-45069942D01*
X103678571Y-45069942D02*
X103678571Y-44260419D01*
X110071429Y-83260419D02*
X110071429Y-82260419D01*
X110642857Y-83260419D02*
X110214286Y-82688990D01*
X110642857Y-82260419D02*
X110071429Y-82831847D01*
X111023810Y-83212800D02*
X111166667Y-83260419D01*
X111166667Y-83260419D02*
X111404762Y-83260419D01*
X111404762Y-83260419D02*
X111500000Y-83212800D01*
X111500000Y-83212800D02*
X111547619Y-83165180D01*
X111547619Y-83165180D02*
X111595238Y-83069942D01*
X111595238Y-83069942D02*
X111595238Y-82974704D01*
X111595238Y-82974704D02*
X111547619Y-82879466D01*
X111547619Y-82879466D02*
X111500000Y-82831847D01*
X111500000Y-82831847D02*
X111404762Y-82784228D01*
X111404762Y-82784228D02*
X111214286Y-82736609D01*
X111214286Y-82736609D02*
X111119048Y-82688990D01*
X111119048Y-82688990D02*
X111071429Y-82641371D01*
X111071429Y-82641371D02*
X111023810Y-82546133D01*
X111023810Y-82546133D02*
X111023810Y-82450895D01*
X111023810Y-82450895D02*
X111071429Y-82355657D01*
X111071429Y-82355657D02*
X111119048Y-82308038D01*
X111119048Y-82308038D02*
X111214286Y-82260419D01*
X111214286Y-82260419D02*
X111452381Y-82260419D01*
X111452381Y-82260419D02*
X111595238Y-82308038D01*
X112023810Y-82879466D02*
X112785715Y-82879466D01*
X113166667Y-82260419D02*
X113785714Y-82260419D01*
X113785714Y-82260419D02*
X113452381Y-82641371D01*
X113452381Y-82641371D02*
X113595238Y-82641371D01*
X113595238Y-82641371D02*
X113690476Y-82688990D01*
X113690476Y-82688990D02*
X113738095Y-82736609D01*
X113738095Y-82736609D02*
X113785714Y-82831847D01*
X113785714Y-82831847D02*
X113785714Y-83069942D01*
X113785714Y-83069942D02*
X113738095Y-83165180D01*
X113738095Y-83165180D02*
X113690476Y-83212800D01*
X113690476Y-83212800D02*
X113595238Y-83260419D01*
X113595238Y-83260419D02*
X113309524Y-83260419D01*
X113309524Y-83260419D02*
X113214286Y-83212800D01*
X113214286Y-83212800D02*
X113166667Y-83165180D01*
X114119048Y-82260419D02*
X114738095Y-82260419D01*
X114738095Y-82260419D02*
X114404762Y-82641371D01*
X114404762Y-82641371D02*
X114547619Y-82641371D01*
X114547619Y-82641371D02*
X114642857Y-82688990D01*
X114642857Y-82688990D02*
X114690476Y-82736609D01*
X114690476Y-82736609D02*
X114738095Y-82831847D01*
X114738095Y-82831847D02*
X114738095Y-83069942D01*
X114738095Y-83069942D02*
X114690476Y-83165180D01*
X114690476Y-83165180D02*
X114642857Y-83212800D01*
X114642857Y-83212800D02*
X114547619Y-83260419D01*
X114547619Y-83260419D02*
X114261905Y-83260419D01*
X114261905Y-83260419D02*
X114166667Y-83212800D01*
X114166667Y-83212800D02*
X114119048Y-83165180D01*
X115166667Y-82879466D02*
X115928572Y-82879466D01*
X116928571Y-83260419D02*
X116357143Y-83260419D01*
X116642857Y-83260419D02*
X116642857Y-82260419D01*
X116642857Y-82260419D02*
X116547619Y-82403276D01*
X116547619Y-82403276D02*
X116452381Y-82498514D01*
X116452381Y-82498514D02*
X116357143Y-82546133D01*
X117357143Y-82260419D02*
X117357143Y-83069942D01*
X117357143Y-83069942D02*
X117404762Y-83165180D01*
X117404762Y-83165180D02*
X117452381Y-83212800D01*
X117452381Y-83212800D02*
X117547619Y-83260419D01*
X117547619Y-83260419D02*
X117738095Y-83260419D01*
X117738095Y-83260419D02*
X117833333Y-83212800D01*
X117833333Y-83212800D02*
X117880952Y-83165180D01*
X117880952Y-83165180D02*
X117928571Y-83069942D01*
X117928571Y-83069942D02*
X117928571Y-82260419D01*
X224071429Y-26260419D02*
X224071429Y-25260419D01*
X224642857Y-26260419D02*
X224214286Y-25688990D01*
X224642857Y-25260419D02*
X224071429Y-25831847D01*
X225023810Y-26212800D02*
X225166667Y-26260419D01*
X225166667Y-26260419D02*
X225404762Y-26260419D01*
X225404762Y-26260419D02*
X225500000Y-26212800D01*
X225500000Y-26212800D02*
X225547619Y-26165180D01*
X225547619Y-26165180D02*
X225595238Y-26069942D01*
X225595238Y-26069942D02*
X225595238Y-25974704D01*
X225595238Y-25974704D02*
X225547619Y-25879466D01*
X225547619Y-25879466D02*
X225500000Y-25831847D01*
X225500000Y-25831847D02*
X225404762Y-25784228D01*
X225404762Y-25784228D02*
X225214286Y-25736609D01*
X225214286Y-25736609D02*
X225119048Y-25688990D01*
X225119048Y-25688990D02*
X225071429Y-25641371D01*
X225071429Y-25641371D02*
X225023810Y-25546133D01*
X225023810Y-25546133D02*
X225023810Y-25450895D01*
X225023810Y-25450895D02*
X225071429Y-25355657D01*
X225071429Y-25355657D02*
X225119048Y-25308038D01*
X225119048Y-25308038D02*
X225214286Y-25260419D01*
X225214286Y-25260419D02*
X225452381Y-25260419D01*
X225452381Y-25260419D02*
X225595238Y-25308038D01*
X226023810Y-25879466D02*
X226785715Y-25879466D01*
X227166667Y-25260419D02*
X227785714Y-25260419D01*
X227785714Y-25260419D02*
X227452381Y-25641371D01*
X227452381Y-25641371D02*
X227595238Y-25641371D01*
X227595238Y-25641371D02*
X227690476Y-25688990D01*
X227690476Y-25688990D02*
X227738095Y-25736609D01*
X227738095Y-25736609D02*
X227785714Y-25831847D01*
X227785714Y-25831847D02*
X227785714Y-26069942D01*
X227785714Y-26069942D02*
X227738095Y-26165180D01*
X227738095Y-26165180D02*
X227690476Y-26212800D01*
X227690476Y-26212800D02*
X227595238Y-26260419D01*
X227595238Y-26260419D02*
X227309524Y-26260419D01*
X227309524Y-26260419D02*
X227214286Y-26212800D01*
X227214286Y-26212800D02*
X227166667Y-26165180D01*
X228119048Y-25260419D02*
X228738095Y-25260419D01*
X228738095Y-25260419D02*
X228404762Y-25641371D01*
X228404762Y-25641371D02*
X228547619Y-25641371D01*
X228547619Y-25641371D02*
X228642857Y-25688990D01*
X228642857Y-25688990D02*
X228690476Y-25736609D01*
X228690476Y-25736609D02*
X228738095Y-25831847D01*
X228738095Y-25831847D02*
X228738095Y-26069942D01*
X228738095Y-26069942D02*
X228690476Y-26165180D01*
X228690476Y-26165180D02*
X228642857Y-26212800D01*
X228642857Y-26212800D02*
X228547619Y-26260419D01*
X228547619Y-26260419D02*
X228261905Y-26260419D01*
X228261905Y-26260419D02*
X228166667Y-26212800D01*
X228166667Y-26212800D02*
X228119048Y-26165180D01*
X229166667Y-25879466D02*
X229928572Y-25879466D01*
X230928571Y-26260419D02*
X230357143Y-26260419D01*
X230642857Y-26260419D02*
X230642857Y-25260419D01*
X230642857Y-25260419D02*
X230547619Y-25403276D01*
X230547619Y-25403276D02*
X230452381Y-25498514D01*
X230452381Y-25498514D02*
X230357143Y-25546133D01*
X231357143Y-25260419D02*
X231357143Y-26069942D01*
X231357143Y-26069942D02*
X231404762Y-26165180D01*
X231404762Y-26165180D02*
X231452381Y-26212800D01*
X231452381Y-26212800D02*
X231547619Y-26260419D01*
X231547619Y-26260419D02*
X231738095Y-26260419D01*
X231738095Y-26260419D02*
X231833333Y-26212800D01*
X231833333Y-26212800D02*
X231880952Y-26165180D01*
X231880952Y-26165180D02*
X231928571Y-26069942D01*
X231928571Y-26069942D02*
X231928571Y-25260419D01*
X190821429Y-45260419D02*
X190821429Y-44260419D01*
X191392857Y-45260419D02*
X190964286Y-44688990D01*
X191392857Y-44260419D02*
X190821429Y-44831847D01*
X191773810Y-45212800D02*
X191916667Y-45260419D01*
X191916667Y-45260419D02*
X192154762Y-45260419D01*
X192154762Y-45260419D02*
X192250000Y-45212800D01*
X192250000Y-45212800D02*
X192297619Y-45165180D01*
X192297619Y-45165180D02*
X192345238Y-45069942D01*
X192345238Y-45069942D02*
X192345238Y-44974704D01*
X192345238Y-44974704D02*
X192297619Y-44879466D01*
X192297619Y-44879466D02*
X192250000Y-44831847D01*
X192250000Y-44831847D02*
X192154762Y-44784228D01*
X192154762Y-44784228D02*
X191964286Y-44736609D01*
X191964286Y-44736609D02*
X191869048Y-44688990D01*
X191869048Y-44688990D02*
X191821429Y-44641371D01*
X191821429Y-44641371D02*
X191773810Y-44546133D01*
X191773810Y-44546133D02*
X191773810Y-44450895D01*
X191773810Y-44450895D02*
X191821429Y-44355657D01*
X191821429Y-44355657D02*
X191869048Y-44308038D01*
X191869048Y-44308038D02*
X191964286Y-44260419D01*
X191964286Y-44260419D02*
X192202381Y-44260419D01*
X192202381Y-44260419D02*
X192345238Y-44308038D01*
X192773810Y-44879466D02*
X193535715Y-44879466D01*
X193916667Y-44260419D02*
X194535714Y-44260419D01*
X194535714Y-44260419D02*
X194202381Y-44641371D01*
X194202381Y-44641371D02*
X194345238Y-44641371D01*
X194345238Y-44641371D02*
X194440476Y-44688990D01*
X194440476Y-44688990D02*
X194488095Y-44736609D01*
X194488095Y-44736609D02*
X194535714Y-44831847D01*
X194535714Y-44831847D02*
X194535714Y-45069942D01*
X194535714Y-45069942D02*
X194488095Y-45165180D01*
X194488095Y-45165180D02*
X194440476Y-45212800D01*
X194440476Y-45212800D02*
X194345238Y-45260419D01*
X194345238Y-45260419D02*
X194059524Y-45260419D01*
X194059524Y-45260419D02*
X193964286Y-45212800D01*
X193964286Y-45212800D02*
X193916667Y-45165180D01*
X194869048Y-44260419D02*
X195488095Y-44260419D01*
X195488095Y-44260419D02*
X195154762Y-44641371D01*
X195154762Y-44641371D02*
X195297619Y-44641371D01*
X195297619Y-44641371D02*
X195392857Y-44688990D01*
X195392857Y-44688990D02*
X195440476Y-44736609D01*
X195440476Y-44736609D02*
X195488095Y-44831847D01*
X195488095Y-44831847D02*
X195488095Y-45069942D01*
X195488095Y-45069942D02*
X195440476Y-45165180D01*
X195440476Y-45165180D02*
X195392857Y-45212800D01*
X195392857Y-45212800D02*
X195297619Y-45260419D01*
X195297619Y-45260419D02*
X195011905Y-45260419D01*
X195011905Y-45260419D02*
X194916667Y-45212800D01*
X194916667Y-45212800D02*
X194869048Y-45165180D01*
X195916667Y-44879466D02*
X196678572Y-44879466D01*
X197678571Y-45260419D02*
X197107143Y-45260419D01*
X197392857Y-45260419D02*
X197392857Y-44260419D01*
X197392857Y-44260419D02*
X197297619Y-44403276D01*
X197297619Y-44403276D02*
X197202381Y-44498514D01*
X197202381Y-44498514D02*
X197107143Y-44546133D01*
X198107143Y-44260419D02*
X198107143Y-45069942D01*
X198107143Y-45069942D02*
X198154762Y-45165180D01*
X198154762Y-45165180D02*
X198202381Y-45212800D01*
X198202381Y-45212800D02*
X198297619Y-45260419D01*
X198297619Y-45260419D02*
X198488095Y-45260419D01*
X198488095Y-45260419D02*
X198583333Y-45212800D01*
X198583333Y-45212800D02*
X198630952Y-45165180D01*
X198630952Y-45165180D02*
X198678571Y-45069942D01*
X198678571Y-45069942D02*
X198678571Y-44260419D01*
X238321429Y-45260419D02*
X238321429Y-44260419D01*
X238892857Y-45260419D02*
X238464286Y-44688990D01*
X238892857Y-44260419D02*
X238321429Y-44831847D01*
X239273810Y-45212800D02*
X239416667Y-45260419D01*
X239416667Y-45260419D02*
X239654762Y-45260419D01*
X239654762Y-45260419D02*
X239750000Y-45212800D01*
X239750000Y-45212800D02*
X239797619Y-45165180D01*
X239797619Y-45165180D02*
X239845238Y-45069942D01*
X239845238Y-45069942D02*
X239845238Y-44974704D01*
X239845238Y-44974704D02*
X239797619Y-44879466D01*
X239797619Y-44879466D02*
X239750000Y-44831847D01*
X239750000Y-44831847D02*
X239654762Y-44784228D01*
X239654762Y-44784228D02*
X239464286Y-44736609D01*
X239464286Y-44736609D02*
X239369048Y-44688990D01*
X239369048Y-44688990D02*
X239321429Y-44641371D01*
X239321429Y-44641371D02*
X239273810Y-44546133D01*
X239273810Y-44546133D02*
X239273810Y-44450895D01*
X239273810Y-44450895D02*
X239321429Y-44355657D01*
X239321429Y-44355657D02*
X239369048Y-44308038D01*
X239369048Y-44308038D02*
X239464286Y-44260419D01*
X239464286Y-44260419D02*
X239702381Y-44260419D01*
X239702381Y-44260419D02*
X239845238Y-44308038D01*
X240273810Y-44879466D02*
X241035715Y-44879466D01*
X241416667Y-44260419D02*
X242035714Y-44260419D01*
X242035714Y-44260419D02*
X241702381Y-44641371D01*
X241702381Y-44641371D02*
X241845238Y-44641371D01*
X241845238Y-44641371D02*
X241940476Y-44688990D01*
X241940476Y-44688990D02*
X241988095Y-44736609D01*
X241988095Y-44736609D02*
X242035714Y-44831847D01*
X242035714Y-44831847D02*
X242035714Y-45069942D01*
X242035714Y-45069942D02*
X241988095Y-45165180D01*
X241988095Y-45165180D02*
X241940476Y-45212800D01*
X241940476Y-45212800D02*
X241845238Y-45260419D01*
X241845238Y-45260419D02*
X241559524Y-45260419D01*
X241559524Y-45260419D02*
X241464286Y-45212800D01*
X241464286Y-45212800D02*
X241416667Y-45165180D01*
X242369048Y-44260419D02*
X242988095Y-44260419D01*
X242988095Y-44260419D02*
X242654762Y-44641371D01*
X242654762Y-44641371D02*
X242797619Y-44641371D01*
X242797619Y-44641371D02*
X242892857Y-44688990D01*
X242892857Y-44688990D02*
X242940476Y-44736609D01*
X242940476Y-44736609D02*
X242988095Y-44831847D01*
X242988095Y-44831847D02*
X242988095Y-45069942D01*
X242988095Y-45069942D02*
X242940476Y-45165180D01*
X242940476Y-45165180D02*
X242892857Y-45212800D01*
X242892857Y-45212800D02*
X242797619Y-45260419D01*
X242797619Y-45260419D02*
X242511905Y-45260419D01*
X242511905Y-45260419D02*
X242416667Y-45212800D01*
X242416667Y-45212800D02*
X242369048Y-45165180D01*
X243416667Y-44879466D02*
X244178572Y-44879466D01*
X245178571Y-45260419D02*
X244607143Y-45260419D01*
X244892857Y-45260419D02*
X244892857Y-44260419D01*
X244892857Y-44260419D02*
X244797619Y-44403276D01*
X244797619Y-44403276D02*
X244702381Y-44498514D01*
X244702381Y-44498514D02*
X244607143Y-44546133D01*
X245607143Y-44260419D02*
X245607143Y-45069942D01*
X245607143Y-45069942D02*
X245654762Y-45165180D01*
X245654762Y-45165180D02*
X245702381Y-45212800D01*
X245702381Y-45212800D02*
X245797619Y-45260419D01*
X245797619Y-45260419D02*
X245988095Y-45260419D01*
X245988095Y-45260419D02*
X246083333Y-45212800D01*
X246083333Y-45212800D02*
X246130952Y-45165180D01*
X246130952Y-45165180D02*
X246178571Y-45069942D01*
X246178571Y-45069942D02*
X246178571Y-44260419D01*
X205071429Y-26260419D02*
X205071429Y-25260419D01*
X205642857Y-26260419D02*
X205214286Y-25688990D01*
X205642857Y-25260419D02*
X205071429Y-25831847D01*
X206023810Y-26212800D02*
X206166667Y-26260419D01*
X206166667Y-26260419D02*
X206404762Y-26260419D01*
X206404762Y-26260419D02*
X206500000Y-26212800D01*
X206500000Y-26212800D02*
X206547619Y-26165180D01*
X206547619Y-26165180D02*
X206595238Y-26069942D01*
X206595238Y-26069942D02*
X206595238Y-25974704D01*
X206595238Y-25974704D02*
X206547619Y-25879466D01*
X206547619Y-25879466D02*
X206500000Y-25831847D01*
X206500000Y-25831847D02*
X206404762Y-25784228D01*
X206404762Y-25784228D02*
X206214286Y-25736609D01*
X206214286Y-25736609D02*
X206119048Y-25688990D01*
X206119048Y-25688990D02*
X206071429Y-25641371D01*
X206071429Y-25641371D02*
X206023810Y-25546133D01*
X206023810Y-25546133D02*
X206023810Y-25450895D01*
X206023810Y-25450895D02*
X206071429Y-25355657D01*
X206071429Y-25355657D02*
X206119048Y-25308038D01*
X206119048Y-25308038D02*
X206214286Y-25260419D01*
X206214286Y-25260419D02*
X206452381Y-25260419D01*
X206452381Y-25260419D02*
X206595238Y-25308038D01*
X207023810Y-25879466D02*
X207785715Y-25879466D01*
X208166667Y-25260419D02*
X208785714Y-25260419D01*
X208785714Y-25260419D02*
X208452381Y-25641371D01*
X208452381Y-25641371D02*
X208595238Y-25641371D01*
X208595238Y-25641371D02*
X208690476Y-25688990D01*
X208690476Y-25688990D02*
X208738095Y-25736609D01*
X208738095Y-25736609D02*
X208785714Y-25831847D01*
X208785714Y-25831847D02*
X208785714Y-26069942D01*
X208785714Y-26069942D02*
X208738095Y-26165180D01*
X208738095Y-26165180D02*
X208690476Y-26212800D01*
X208690476Y-26212800D02*
X208595238Y-26260419D01*
X208595238Y-26260419D02*
X208309524Y-26260419D01*
X208309524Y-26260419D02*
X208214286Y-26212800D01*
X208214286Y-26212800D02*
X208166667Y-26165180D01*
X209119048Y-25260419D02*
X209738095Y-25260419D01*
X209738095Y-25260419D02*
X209404762Y-25641371D01*
X209404762Y-25641371D02*
X209547619Y-25641371D01*
X209547619Y-25641371D02*
X209642857Y-25688990D01*
X209642857Y-25688990D02*
X209690476Y-25736609D01*
X209690476Y-25736609D02*
X209738095Y-25831847D01*
X209738095Y-25831847D02*
X209738095Y-26069942D01*
X209738095Y-26069942D02*
X209690476Y-26165180D01*
X209690476Y-26165180D02*
X209642857Y-26212800D01*
X209642857Y-26212800D02*
X209547619Y-26260419D01*
X209547619Y-26260419D02*
X209261905Y-26260419D01*
X209261905Y-26260419D02*
X209166667Y-26212800D01*
X209166667Y-26212800D02*
X209119048Y-26165180D01*
X210166667Y-25879466D02*
X210928572Y-25879466D01*
X211928571Y-26260419D02*
X211357143Y-26260419D01*
X211642857Y-26260419D02*
X211642857Y-25260419D01*
X211642857Y-25260419D02*
X211547619Y-25403276D01*
X211547619Y-25403276D02*
X211452381Y-25498514D01*
X211452381Y-25498514D02*
X211357143Y-25546133D01*
X212357143Y-25260419D02*
X212357143Y-26069942D01*
X212357143Y-26069942D02*
X212404762Y-26165180D01*
X212404762Y-26165180D02*
X212452381Y-26212800D01*
X212452381Y-26212800D02*
X212547619Y-26260419D01*
X212547619Y-26260419D02*
X212738095Y-26260419D01*
X212738095Y-26260419D02*
X212833333Y-26212800D01*
X212833333Y-26212800D02*
X212880952Y-26165180D01*
X212880952Y-26165180D02*
X212928571Y-26069942D01*
X212928571Y-26069942D02*
X212928571Y-25260419D01*
X243071429Y-26260419D02*
X243071429Y-25260419D01*
X243642857Y-26260419D02*
X243214286Y-25688990D01*
X243642857Y-25260419D02*
X243071429Y-25831847D01*
X244023810Y-26212800D02*
X244166667Y-26260419D01*
X244166667Y-26260419D02*
X244404762Y-26260419D01*
X244404762Y-26260419D02*
X244500000Y-26212800D01*
X244500000Y-26212800D02*
X244547619Y-26165180D01*
X244547619Y-26165180D02*
X244595238Y-26069942D01*
X244595238Y-26069942D02*
X244595238Y-25974704D01*
X244595238Y-25974704D02*
X244547619Y-25879466D01*
X244547619Y-25879466D02*
X244500000Y-25831847D01*
X244500000Y-25831847D02*
X244404762Y-25784228D01*
X244404762Y-25784228D02*
X244214286Y-25736609D01*
X244214286Y-25736609D02*
X244119048Y-25688990D01*
X244119048Y-25688990D02*
X244071429Y-25641371D01*
X244071429Y-25641371D02*
X244023810Y-25546133D01*
X244023810Y-25546133D02*
X244023810Y-25450895D01*
X244023810Y-25450895D02*
X244071429Y-25355657D01*
X244071429Y-25355657D02*
X244119048Y-25308038D01*
X244119048Y-25308038D02*
X244214286Y-25260419D01*
X244214286Y-25260419D02*
X244452381Y-25260419D01*
X244452381Y-25260419D02*
X244595238Y-25308038D01*
X245023810Y-25879466D02*
X245785715Y-25879466D01*
X246166667Y-25260419D02*
X246785714Y-25260419D01*
X246785714Y-25260419D02*
X246452381Y-25641371D01*
X246452381Y-25641371D02*
X246595238Y-25641371D01*
X246595238Y-25641371D02*
X246690476Y-25688990D01*
X246690476Y-25688990D02*
X246738095Y-25736609D01*
X246738095Y-25736609D02*
X246785714Y-25831847D01*
X246785714Y-25831847D02*
X246785714Y-26069942D01*
X246785714Y-26069942D02*
X246738095Y-26165180D01*
X246738095Y-26165180D02*
X246690476Y-26212800D01*
X246690476Y-26212800D02*
X246595238Y-26260419D01*
X246595238Y-26260419D02*
X246309524Y-26260419D01*
X246309524Y-26260419D02*
X246214286Y-26212800D01*
X246214286Y-26212800D02*
X246166667Y-26165180D01*
X247119048Y-25260419D02*
X247738095Y-25260419D01*
X247738095Y-25260419D02*
X247404762Y-25641371D01*
X247404762Y-25641371D02*
X247547619Y-25641371D01*
X247547619Y-25641371D02*
X247642857Y-25688990D01*
X247642857Y-25688990D02*
X247690476Y-25736609D01*
X247690476Y-25736609D02*
X247738095Y-25831847D01*
X247738095Y-25831847D02*
X247738095Y-26069942D01*
X247738095Y-26069942D02*
X247690476Y-26165180D01*
X247690476Y-26165180D02*
X247642857Y-26212800D01*
X247642857Y-26212800D02*
X247547619Y-26260419D01*
X247547619Y-26260419D02*
X247261905Y-26260419D01*
X247261905Y-26260419D02*
X247166667Y-26212800D01*
X247166667Y-26212800D02*
X247119048Y-26165180D01*
X248166667Y-25879466D02*
X248928572Y-25879466D01*
X249928571Y-26260419D02*
X249357143Y-26260419D01*
X249642857Y-26260419D02*
X249642857Y-25260419D01*
X249642857Y-25260419D02*
X249547619Y-25403276D01*
X249547619Y-25403276D02*
X249452381Y-25498514D01*
X249452381Y-25498514D02*
X249357143Y-25546133D01*
X250357143Y-25260419D02*
X250357143Y-26069942D01*
X250357143Y-26069942D02*
X250404762Y-26165180D01*
X250404762Y-26165180D02*
X250452381Y-26212800D01*
X250452381Y-26212800D02*
X250547619Y-26260419D01*
X250547619Y-26260419D02*
X250738095Y-26260419D01*
X250738095Y-26260419D02*
X250833333Y-26212800D01*
X250833333Y-26212800D02*
X250880952Y-26165180D01*
X250880952Y-26165180D02*
X250928571Y-26069942D01*
X250928571Y-26069942D02*
X250928571Y-25260419D01*
X214571429Y-83260419D02*
X214571429Y-82260419D01*
X215142857Y-83260419D02*
X214714286Y-82688990D01*
X215142857Y-82260419D02*
X214571429Y-82831847D01*
X215523810Y-83212800D02*
X215666667Y-83260419D01*
X215666667Y-83260419D02*
X215904762Y-83260419D01*
X215904762Y-83260419D02*
X216000000Y-83212800D01*
X216000000Y-83212800D02*
X216047619Y-83165180D01*
X216047619Y-83165180D02*
X216095238Y-83069942D01*
X216095238Y-83069942D02*
X216095238Y-82974704D01*
X216095238Y-82974704D02*
X216047619Y-82879466D01*
X216047619Y-82879466D02*
X216000000Y-82831847D01*
X216000000Y-82831847D02*
X215904762Y-82784228D01*
X215904762Y-82784228D02*
X215714286Y-82736609D01*
X215714286Y-82736609D02*
X215619048Y-82688990D01*
X215619048Y-82688990D02*
X215571429Y-82641371D01*
X215571429Y-82641371D02*
X215523810Y-82546133D01*
X215523810Y-82546133D02*
X215523810Y-82450895D01*
X215523810Y-82450895D02*
X215571429Y-82355657D01*
X215571429Y-82355657D02*
X215619048Y-82308038D01*
X215619048Y-82308038D02*
X215714286Y-82260419D01*
X215714286Y-82260419D02*
X215952381Y-82260419D01*
X215952381Y-82260419D02*
X216095238Y-82308038D01*
X216523810Y-82879466D02*
X217285715Y-82879466D01*
X217666667Y-82260419D02*
X218285714Y-82260419D01*
X218285714Y-82260419D02*
X217952381Y-82641371D01*
X217952381Y-82641371D02*
X218095238Y-82641371D01*
X218095238Y-82641371D02*
X218190476Y-82688990D01*
X218190476Y-82688990D02*
X218238095Y-82736609D01*
X218238095Y-82736609D02*
X218285714Y-82831847D01*
X218285714Y-82831847D02*
X218285714Y-83069942D01*
X218285714Y-83069942D02*
X218238095Y-83165180D01*
X218238095Y-83165180D02*
X218190476Y-83212800D01*
X218190476Y-83212800D02*
X218095238Y-83260419D01*
X218095238Y-83260419D02*
X217809524Y-83260419D01*
X217809524Y-83260419D02*
X217714286Y-83212800D01*
X217714286Y-83212800D02*
X217666667Y-83165180D01*
X218619048Y-82260419D02*
X219238095Y-82260419D01*
X219238095Y-82260419D02*
X218904762Y-82641371D01*
X218904762Y-82641371D02*
X219047619Y-82641371D01*
X219047619Y-82641371D02*
X219142857Y-82688990D01*
X219142857Y-82688990D02*
X219190476Y-82736609D01*
X219190476Y-82736609D02*
X219238095Y-82831847D01*
X219238095Y-82831847D02*
X219238095Y-83069942D01*
X219238095Y-83069942D02*
X219190476Y-83165180D01*
X219190476Y-83165180D02*
X219142857Y-83212800D01*
X219142857Y-83212800D02*
X219047619Y-83260419D01*
X219047619Y-83260419D02*
X218761905Y-83260419D01*
X218761905Y-83260419D02*
X218666667Y-83212800D01*
X218666667Y-83212800D02*
X218619048Y-83165180D01*
X219666667Y-82879466D02*
X220428572Y-82879466D01*
X221428571Y-83260419D02*
X220857143Y-83260419D01*
X221142857Y-83260419D02*
X221142857Y-82260419D01*
X221142857Y-82260419D02*
X221047619Y-82403276D01*
X221047619Y-82403276D02*
X220952381Y-82498514D01*
X220952381Y-82498514D02*
X220857143Y-82546133D01*
X221857143Y-82260419D02*
X221857143Y-83069942D01*
X221857143Y-83069942D02*
X221904762Y-83165180D01*
X221904762Y-83165180D02*
X221952381Y-83212800D01*
X221952381Y-83212800D02*
X222047619Y-83260419D01*
X222047619Y-83260419D02*
X222238095Y-83260419D01*
X222238095Y-83260419D02*
X222333333Y-83212800D01*
X222333333Y-83212800D02*
X222380952Y-83165180D01*
X222380952Y-83165180D02*
X222428571Y-83069942D01*
X222428571Y-83069942D02*
X222428571Y-82260419D01*
X62571429Y-83260419D02*
X62571429Y-82260419D01*
X63142857Y-83260419D02*
X62714286Y-82688990D01*
X63142857Y-82260419D02*
X62571429Y-82831847D01*
X63523810Y-83212800D02*
X63666667Y-83260419D01*
X63666667Y-83260419D02*
X63904762Y-83260419D01*
X63904762Y-83260419D02*
X64000000Y-83212800D01*
X64000000Y-83212800D02*
X64047619Y-83165180D01*
X64047619Y-83165180D02*
X64095238Y-83069942D01*
X64095238Y-83069942D02*
X64095238Y-82974704D01*
X64095238Y-82974704D02*
X64047619Y-82879466D01*
X64047619Y-82879466D02*
X64000000Y-82831847D01*
X64000000Y-82831847D02*
X63904762Y-82784228D01*
X63904762Y-82784228D02*
X63714286Y-82736609D01*
X63714286Y-82736609D02*
X63619048Y-82688990D01*
X63619048Y-82688990D02*
X63571429Y-82641371D01*
X63571429Y-82641371D02*
X63523810Y-82546133D01*
X63523810Y-82546133D02*
X63523810Y-82450895D01*
X63523810Y-82450895D02*
X63571429Y-82355657D01*
X63571429Y-82355657D02*
X63619048Y-82308038D01*
X63619048Y-82308038D02*
X63714286Y-82260419D01*
X63714286Y-82260419D02*
X63952381Y-82260419D01*
X63952381Y-82260419D02*
X64095238Y-82308038D01*
X64523810Y-82879466D02*
X65285715Y-82879466D01*
X65666667Y-82260419D02*
X66285714Y-82260419D01*
X66285714Y-82260419D02*
X65952381Y-82641371D01*
X65952381Y-82641371D02*
X66095238Y-82641371D01*
X66095238Y-82641371D02*
X66190476Y-82688990D01*
X66190476Y-82688990D02*
X66238095Y-82736609D01*
X66238095Y-82736609D02*
X66285714Y-82831847D01*
X66285714Y-82831847D02*
X66285714Y-83069942D01*
X66285714Y-83069942D02*
X66238095Y-83165180D01*
X66238095Y-83165180D02*
X66190476Y-83212800D01*
X66190476Y-83212800D02*
X66095238Y-83260419D01*
X66095238Y-83260419D02*
X65809524Y-83260419D01*
X65809524Y-83260419D02*
X65714286Y-83212800D01*
X65714286Y-83212800D02*
X65666667Y-83165180D01*
X66619048Y-82260419D02*
X67238095Y-82260419D01*
X67238095Y-82260419D02*
X66904762Y-82641371D01*
X66904762Y-82641371D02*
X67047619Y-82641371D01*
X67047619Y-82641371D02*
X67142857Y-82688990D01*
X67142857Y-82688990D02*
X67190476Y-82736609D01*
X67190476Y-82736609D02*
X67238095Y-82831847D01*
X67238095Y-82831847D02*
X67238095Y-83069942D01*
X67238095Y-83069942D02*
X67190476Y-83165180D01*
X67190476Y-83165180D02*
X67142857Y-83212800D01*
X67142857Y-83212800D02*
X67047619Y-83260419D01*
X67047619Y-83260419D02*
X66761905Y-83260419D01*
X66761905Y-83260419D02*
X66666667Y-83212800D01*
X66666667Y-83212800D02*
X66619048Y-83165180D01*
X67666667Y-82879466D02*
X68428572Y-82879466D01*
X69428571Y-83260419D02*
X68857143Y-83260419D01*
X69142857Y-83260419D02*
X69142857Y-82260419D01*
X69142857Y-82260419D02*
X69047619Y-82403276D01*
X69047619Y-82403276D02*
X68952381Y-82498514D01*
X68952381Y-82498514D02*
X68857143Y-82546133D01*
X69857143Y-82260419D02*
X69857143Y-83069942D01*
X69857143Y-83069942D02*
X69904762Y-83165180D01*
X69904762Y-83165180D02*
X69952381Y-83212800D01*
X69952381Y-83212800D02*
X70047619Y-83260419D01*
X70047619Y-83260419D02*
X70238095Y-83260419D01*
X70238095Y-83260419D02*
X70333333Y-83212800D01*
X70333333Y-83212800D02*
X70380952Y-83165180D01*
X70380952Y-83165180D02*
X70428571Y-83069942D01*
X70428571Y-83069942D02*
X70428571Y-82260419D01*
X86321429Y-64260419D02*
X86321429Y-63260419D01*
X86892857Y-64260419D02*
X86464286Y-63688990D01*
X86892857Y-63260419D02*
X86321429Y-63831847D01*
X87273810Y-64212800D02*
X87416667Y-64260419D01*
X87416667Y-64260419D02*
X87654762Y-64260419D01*
X87654762Y-64260419D02*
X87750000Y-64212800D01*
X87750000Y-64212800D02*
X87797619Y-64165180D01*
X87797619Y-64165180D02*
X87845238Y-64069942D01*
X87845238Y-64069942D02*
X87845238Y-63974704D01*
X87845238Y-63974704D02*
X87797619Y-63879466D01*
X87797619Y-63879466D02*
X87750000Y-63831847D01*
X87750000Y-63831847D02*
X87654762Y-63784228D01*
X87654762Y-63784228D02*
X87464286Y-63736609D01*
X87464286Y-63736609D02*
X87369048Y-63688990D01*
X87369048Y-63688990D02*
X87321429Y-63641371D01*
X87321429Y-63641371D02*
X87273810Y-63546133D01*
X87273810Y-63546133D02*
X87273810Y-63450895D01*
X87273810Y-63450895D02*
X87321429Y-63355657D01*
X87321429Y-63355657D02*
X87369048Y-63308038D01*
X87369048Y-63308038D02*
X87464286Y-63260419D01*
X87464286Y-63260419D02*
X87702381Y-63260419D01*
X87702381Y-63260419D02*
X87845238Y-63308038D01*
X88273810Y-63879466D02*
X89035715Y-63879466D01*
X89416667Y-63260419D02*
X90035714Y-63260419D01*
X90035714Y-63260419D02*
X89702381Y-63641371D01*
X89702381Y-63641371D02*
X89845238Y-63641371D01*
X89845238Y-63641371D02*
X89940476Y-63688990D01*
X89940476Y-63688990D02*
X89988095Y-63736609D01*
X89988095Y-63736609D02*
X90035714Y-63831847D01*
X90035714Y-63831847D02*
X90035714Y-64069942D01*
X90035714Y-64069942D02*
X89988095Y-64165180D01*
X89988095Y-64165180D02*
X89940476Y-64212800D01*
X89940476Y-64212800D02*
X89845238Y-64260419D01*
X89845238Y-64260419D02*
X89559524Y-64260419D01*
X89559524Y-64260419D02*
X89464286Y-64212800D01*
X89464286Y-64212800D02*
X89416667Y-64165180D01*
X90369048Y-63260419D02*
X90988095Y-63260419D01*
X90988095Y-63260419D02*
X90654762Y-63641371D01*
X90654762Y-63641371D02*
X90797619Y-63641371D01*
X90797619Y-63641371D02*
X90892857Y-63688990D01*
X90892857Y-63688990D02*
X90940476Y-63736609D01*
X90940476Y-63736609D02*
X90988095Y-63831847D01*
X90988095Y-63831847D02*
X90988095Y-64069942D01*
X90988095Y-64069942D02*
X90940476Y-64165180D01*
X90940476Y-64165180D02*
X90892857Y-64212800D01*
X90892857Y-64212800D02*
X90797619Y-64260419D01*
X90797619Y-64260419D02*
X90511905Y-64260419D01*
X90511905Y-64260419D02*
X90416667Y-64212800D01*
X90416667Y-64212800D02*
X90369048Y-64165180D01*
X91416667Y-63879466D02*
X92178572Y-63879466D01*
X93178571Y-64260419D02*
X92607143Y-64260419D01*
X92892857Y-64260419D02*
X92892857Y-63260419D01*
X92892857Y-63260419D02*
X92797619Y-63403276D01*
X92797619Y-63403276D02*
X92702381Y-63498514D01*
X92702381Y-63498514D02*
X92607143Y-63546133D01*
X93607143Y-63260419D02*
X93607143Y-64069942D01*
X93607143Y-64069942D02*
X93654762Y-64165180D01*
X93654762Y-64165180D02*
X93702381Y-64212800D01*
X93702381Y-64212800D02*
X93797619Y-64260419D01*
X93797619Y-64260419D02*
X93988095Y-64260419D01*
X93988095Y-64260419D02*
X94083333Y-64212800D01*
X94083333Y-64212800D02*
X94130952Y-64165180D01*
X94130952Y-64165180D02*
X94178571Y-64069942D01*
X94178571Y-64069942D02*
X94178571Y-63260419D01*
X186071429Y-26260419D02*
X186071429Y-25260419D01*
X186642857Y-26260419D02*
X186214286Y-25688990D01*
X186642857Y-25260419D02*
X186071429Y-25831847D01*
X187023810Y-26212800D02*
X187166667Y-26260419D01*
X187166667Y-26260419D02*
X187404762Y-26260419D01*
X187404762Y-26260419D02*
X187500000Y-26212800D01*
X187500000Y-26212800D02*
X187547619Y-26165180D01*
X187547619Y-26165180D02*
X187595238Y-26069942D01*
X187595238Y-26069942D02*
X187595238Y-25974704D01*
X187595238Y-25974704D02*
X187547619Y-25879466D01*
X187547619Y-25879466D02*
X187500000Y-25831847D01*
X187500000Y-25831847D02*
X187404762Y-25784228D01*
X187404762Y-25784228D02*
X187214286Y-25736609D01*
X187214286Y-25736609D02*
X187119048Y-25688990D01*
X187119048Y-25688990D02*
X187071429Y-25641371D01*
X187071429Y-25641371D02*
X187023810Y-25546133D01*
X187023810Y-25546133D02*
X187023810Y-25450895D01*
X187023810Y-25450895D02*
X187071429Y-25355657D01*
X187071429Y-25355657D02*
X187119048Y-25308038D01*
X187119048Y-25308038D02*
X187214286Y-25260419D01*
X187214286Y-25260419D02*
X187452381Y-25260419D01*
X187452381Y-25260419D02*
X187595238Y-25308038D01*
X188023810Y-25879466D02*
X188785715Y-25879466D01*
X189166667Y-25260419D02*
X189785714Y-25260419D01*
X189785714Y-25260419D02*
X189452381Y-25641371D01*
X189452381Y-25641371D02*
X189595238Y-25641371D01*
X189595238Y-25641371D02*
X189690476Y-25688990D01*
X189690476Y-25688990D02*
X189738095Y-25736609D01*
X189738095Y-25736609D02*
X189785714Y-25831847D01*
X189785714Y-25831847D02*
X189785714Y-26069942D01*
X189785714Y-26069942D02*
X189738095Y-26165180D01*
X189738095Y-26165180D02*
X189690476Y-26212800D01*
X189690476Y-26212800D02*
X189595238Y-26260419D01*
X189595238Y-26260419D02*
X189309524Y-26260419D01*
X189309524Y-26260419D02*
X189214286Y-26212800D01*
X189214286Y-26212800D02*
X189166667Y-26165180D01*
X190119048Y-25260419D02*
X190738095Y-25260419D01*
X190738095Y-25260419D02*
X190404762Y-25641371D01*
X190404762Y-25641371D02*
X190547619Y-25641371D01*
X190547619Y-25641371D02*
X190642857Y-25688990D01*
X190642857Y-25688990D02*
X190690476Y-25736609D01*
X190690476Y-25736609D02*
X190738095Y-25831847D01*
X190738095Y-25831847D02*
X190738095Y-26069942D01*
X190738095Y-26069942D02*
X190690476Y-26165180D01*
X190690476Y-26165180D02*
X190642857Y-26212800D01*
X190642857Y-26212800D02*
X190547619Y-26260419D01*
X190547619Y-26260419D02*
X190261905Y-26260419D01*
X190261905Y-26260419D02*
X190166667Y-26212800D01*
X190166667Y-26212800D02*
X190119048Y-26165180D01*
X191166667Y-25879466D02*
X191928572Y-25879466D01*
X192928571Y-26260419D02*
X192357143Y-26260419D01*
X192642857Y-26260419D02*
X192642857Y-25260419D01*
X192642857Y-25260419D02*
X192547619Y-25403276D01*
X192547619Y-25403276D02*
X192452381Y-25498514D01*
X192452381Y-25498514D02*
X192357143Y-25546133D01*
X193357143Y-25260419D02*
X193357143Y-26069942D01*
X193357143Y-26069942D02*
X193404762Y-26165180D01*
X193404762Y-26165180D02*
X193452381Y-26212800D01*
X193452381Y-26212800D02*
X193547619Y-26260419D01*
X193547619Y-26260419D02*
X193738095Y-26260419D01*
X193738095Y-26260419D02*
X193833333Y-26212800D01*
X193833333Y-26212800D02*
X193880952Y-26165180D01*
X193880952Y-26165180D02*
X193928571Y-26069942D01*
X193928571Y-26069942D02*
X193928571Y-25260419D01*
X129071429Y-26260419D02*
X129071429Y-25260419D01*
X129642857Y-26260419D02*
X129214286Y-25688990D01*
X129642857Y-25260419D02*
X129071429Y-25831847D01*
X130023810Y-26212800D02*
X130166667Y-26260419D01*
X130166667Y-26260419D02*
X130404762Y-26260419D01*
X130404762Y-26260419D02*
X130500000Y-26212800D01*
X130500000Y-26212800D02*
X130547619Y-26165180D01*
X130547619Y-26165180D02*
X130595238Y-26069942D01*
X130595238Y-26069942D02*
X130595238Y-25974704D01*
X130595238Y-25974704D02*
X130547619Y-25879466D01*
X130547619Y-25879466D02*
X130500000Y-25831847D01*
X130500000Y-25831847D02*
X130404762Y-25784228D01*
X130404762Y-25784228D02*
X130214286Y-25736609D01*
X130214286Y-25736609D02*
X130119048Y-25688990D01*
X130119048Y-25688990D02*
X130071429Y-25641371D01*
X130071429Y-25641371D02*
X130023810Y-25546133D01*
X130023810Y-25546133D02*
X130023810Y-25450895D01*
X130023810Y-25450895D02*
X130071429Y-25355657D01*
X130071429Y-25355657D02*
X130119048Y-25308038D01*
X130119048Y-25308038D02*
X130214286Y-25260419D01*
X130214286Y-25260419D02*
X130452381Y-25260419D01*
X130452381Y-25260419D02*
X130595238Y-25308038D01*
X131023810Y-25879466D02*
X131785715Y-25879466D01*
X132166667Y-25260419D02*
X132785714Y-25260419D01*
X132785714Y-25260419D02*
X132452381Y-25641371D01*
X132452381Y-25641371D02*
X132595238Y-25641371D01*
X132595238Y-25641371D02*
X132690476Y-25688990D01*
X132690476Y-25688990D02*
X132738095Y-25736609D01*
X132738095Y-25736609D02*
X132785714Y-25831847D01*
X132785714Y-25831847D02*
X132785714Y-26069942D01*
X132785714Y-26069942D02*
X132738095Y-26165180D01*
X132738095Y-26165180D02*
X132690476Y-26212800D01*
X132690476Y-26212800D02*
X132595238Y-26260419D01*
X132595238Y-26260419D02*
X132309524Y-26260419D01*
X132309524Y-26260419D02*
X132214286Y-26212800D01*
X132214286Y-26212800D02*
X132166667Y-26165180D01*
X133119048Y-25260419D02*
X133738095Y-25260419D01*
X133738095Y-25260419D02*
X133404762Y-25641371D01*
X133404762Y-25641371D02*
X133547619Y-25641371D01*
X133547619Y-25641371D02*
X133642857Y-25688990D01*
X133642857Y-25688990D02*
X133690476Y-25736609D01*
X133690476Y-25736609D02*
X133738095Y-25831847D01*
X133738095Y-25831847D02*
X133738095Y-26069942D01*
X133738095Y-26069942D02*
X133690476Y-26165180D01*
X133690476Y-26165180D02*
X133642857Y-26212800D01*
X133642857Y-26212800D02*
X133547619Y-26260419D01*
X133547619Y-26260419D02*
X133261905Y-26260419D01*
X133261905Y-26260419D02*
X133166667Y-26212800D01*
X133166667Y-26212800D02*
X133119048Y-26165180D01*
X134166667Y-25879466D02*
X134928572Y-25879466D01*
X135928571Y-26260419D02*
X135357143Y-26260419D01*
X135642857Y-26260419D02*
X135642857Y-25260419D01*
X135642857Y-25260419D02*
X135547619Y-25403276D01*
X135547619Y-25403276D02*
X135452381Y-25498514D01*
X135452381Y-25498514D02*
X135357143Y-25546133D01*
X136357143Y-25260419D02*
X136357143Y-26069942D01*
X136357143Y-26069942D02*
X136404762Y-26165180D01*
X136404762Y-26165180D02*
X136452381Y-26212800D01*
X136452381Y-26212800D02*
X136547619Y-26260419D01*
X136547619Y-26260419D02*
X136738095Y-26260419D01*
X136738095Y-26260419D02*
X136833333Y-26212800D01*
X136833333Y-26212800D02*
X136880952Y-26165180D01*
X136880952Y-26165180D02*
X136928571Y-26069942D01*
X136928571Y-26069942D02*
X136928571Y-25260419D01*
X133821429Y-45260419D02*
X133821429Y-44260419D01*
X134392857Y-45260419D02*
X133964286Y-44688990D01*
X134392857Y-44260419D02*
X133821429Y-44831847D01*
X134773810Y-45212800D02*
X134916667Y-45260419D01*
X134916667Y-45260419D02*
X135154762Y-45260419D01*
X135154762Y-45260419D02*
X135250000Y-45212800D01*
X135250000Y-45212800D02*
X135297619Y-45165180D01*
X135297619Y-45165180D02*
X135345238Y-45069942D01*
X135345238Y-45069942D02*
X135345238Y-44974704D01*
X135345238Y-44974704D02*
X135297619Y-44879466D01*
X135297619Y-44879466D02*
X135250000Y-44831847D01*
X135250000Y-44831847D02*
X135154762Y-44784228D01*
X135154762Y-44784228D02*
X134964286Y-44736609D01*
X134964286Y-44736609D02*
X134869048Y-44688990D01*
X134869048Y-44688990D02*
X134821429Y-44641371D01*
X134821429Y-44641371D02*
X134773810Y-44546133D01*
X134773810Y-44546133D02*
X134773810Y-44450895D01*
X134773810Y-44450895D02*
X134821429Y-44355657D01*
X134821429Y-44355657D02*
X134869048Y-44308038D01*
X134869048Y-44308038D02*
X134964286Y-44260419D01*
X134964286Y-44260419D02*
X135202381Y-44260419D01*
X135202381Y-44260419D02*
X135345238Y-44308038D01*
X135773810Y-44879466D02*
X136535715Y-44879466D01*
X136916667Y-44260419D02*
X137535714Y-44260419D01*
X137535714Y-44260419D02*
X137202381Y-44641371D01*
X137202381Y-44641371D02*
X137345238Y-44641371D01*
X137345238Y-44641371D02*
X137440476Y-44688990D01*
X137440476Y-44688990D02*
X137488095Y-44736609D01*
X137488095Y-44736609D02*
X137535714Y-44831847D01*
X137535714Y-44831847D02*
X137535714Y-45069942D01*
X137535714Y-45069942D02*
X137488095Y-45165180D01*
X137488095Y-45165180D02*
X137440476Y-45212800D01*
X137440476Y-45212800D02*
X137345238Y-45260419D01*
X137345238Y-45260419D02*
X137059524Y-45260419D01*
X137059524Y-45260419D02*
X136964286Y-45212800D01*
X136964286Y-45212800D02*
X136916667Y-45165180D01*
X137869048Y-44260419D02*
X138488095Y-44260419D01*
X138488095Y-44260419D02*
X138154762Y-44641371D01*
X138154762Y-44641371D02*
X138297619Y-44641371D01*
X138297619Y-44641371D02*
X138392857Y-44688990D01*
X138392857Y-44688990D02*
X138440476Y-44736609D01*
X138440476Y-44736609D02*
X138488095Y-44831847D01*
X138488095Y-44831847D02*
X138488095Y-45069942D01*
X138488095Y-45069942D02*
X138440476Y-45165180D01*
X138440476Y-45165180D02*
X138392857Y-45212800D01*
X138392857Y-45212800D02*
X138297619Y-45260419D01*
X138297619Y-45260419D02*
X138011905Y-45260419D01*
X138011905Y-45260419D02*
X137916667Y-45212800D01*
X137916667Y-45212800D02*
X137869048Y-45165180D01*
X138916667Y-44879466D02*
X139678572Y-44879466D01*
X140678571Y-45260419D02*
X140107143Y-45260419D01*
X140392857Y-45260419D02*
X140392857Y-44260419D01*
X140392857Y-44260419D02*
X140297619Y-44403276D01*
X140297619Y-44403276D02*
X140202381Y-44498514D01*
X140202381Y-44498514D02*
X140107143Y-44546133D01*
X141107143Y-44260419D02*
X141107143Y-45069942D01*
X141107143Y-45069942D02*
X141154762Y-45165180D01*
X141154762Y-45165180D02*
X141202381Y-45212800D01*
X141202381Y-45212800D02*
X141297619Y-45260419D01*
X141297619Y-45260419D02*
X141488095Y-45260419D01*
X141488095Y-45260419D02*
X141583333Y-45212800D01*
X141583333Y-45212800D02*
X141630952Y-45165180D01*
X141630952Y-45165180D02*
X141678571Y-45069942D01*
X141678571Y-45069942D02*
X141678571Y-44260419D01*
X105321429Y-64260419D02*
X105321429Y-63260419D01*
X105892857Y-64260419D02*
X105464286Y-63688990D01*
X105892857Y-63260419D02*
X105321429Y-63831847D01*
X106273810Y-64212800D02*
X106416667Y-64260419D01*
X106416667Y-64260419D02*
X106654762Y-64260419D01*
X106654762Y-64260419D02*
X106750000Y-64212800D01*
X106750000Y-64212800D02*
X106797619Y-64165180D01*
X106797619Y-64165180D02*
X106845238Y-64069942D01*
X106845238Y-64069942D02*
X106845238Y-63974704D01*
X106845238Y-63974704D02*
X106797619Y-63879466D01*
X106797619Y-63879466D02*
X106750000Y-63831847D01*
X106750000Y-63831847D02*
X106654762Y-63784228D01*
X106654762Y-63784228D02*
X106464286Y-63736609D01*
X106464286Y-63736609D02*
X106369048Y-63688990D01*
X106369048Y-63688990D02*
X106321429Y-63641371D01*
X106321429Y-63641371D02*
X106273810Y-63546133D01*
X106273810Y-63546133D02*
X106273810Y-63450895D01*
X106273810Y-63450895D02*
X106321429Y-63355657D01*
X106321429Y-63355657D02*
X106369048Y-63308038D01*
X106369048Y-63308038D02*
X106464286Y-63260419D01*
X106464286Y-63260419D02*
X106702381Y-63260419D01*
X106702381Y-63260419D02*
X106845238Y-63308038D01*
X107273810Y-63879466D02*
X108035715Y-63879466D01*
X108416667Y-63260419D02*
X109035714Y-63260419D01*
X109035714Y-63260419D02*
X108702381Y-63641371D01*
X108702381Y-63641371D02*
X108845238Y-63641371D01*
X108845238Y-63641371D02*
X108940476Y-63688990D01*
X108940476Y-63688990D02*
X108988095Y-63736609D01*
X108988095Y-63736609D02*
X109035714Y-63831847D01*
X109035714Y-63831847D02*
X109035714Y-64069942D01*
X109035714Y-64069942D02*
X108988095Y-64165180D01*
X108988095Y-64165180D02*
X108940476Y-64212800D01*
X108940476Y-64212800D02*
X108845238Y-64260419D01*
X108845238Y-64260419D02*
X108559524Y-64260419D01*
X108559524Y-64260419D02*
X108464286Y-64212800D01*
X108464286Y-64212800D02*
X108416667Y-64165180D01*
X109369048Y-63260419D02*
X109988095Y-63260419D01*
X109988095Y-63260419D02*
X109654762Y-63641371D01*
X109654762Y-63641371D02*
X109797619Y-63641371D01*
X109797619Y-63641371D02*
X109892857Y-63688990D01*
X109892857Y-63688990D02*
X109940476Y-63736609D01*
X109940476Y-63736609D02*
X109988095Y-63831847D01*
X109988095Y-63831847D02*
X109988095Y-64069942D01*
X109988095Y-64069942D02*
X109940476Y-64165180D01*
X109940476Y-64165180D02*
X109892857Y-64212800D01*
X109892857Y-64212800D02*
X109797619Y-64260419D01*
X109797619Y-64260419D02*
X109511905Y-64260419D01*
X109511905Y-64260419D02*
X109416667Y-64212800D01*
X109416667Y-64212800D02*
X109369048Y-64165180D01*
X110416667Y-63879466D02*
X111178572Y-63879466D01*
X112178571Y-64260419D02*
X111607143Y-64260419D01*
X111892857Y-64260419D02*
X111892857Y-63260419D01*
X111892857Y-63260419D02*
X111797619Y-63403276D01*
X111797619Y-63403276D02*
X111702381Y-63498514D01*
X111702381Y-63498514D02*
X111607143Y-63546133D01*
X112607143Y-63260419D02*
X112607143Y-64069942D01*
X112607143Y-64069942D02*
X112654762Y-64165180D01*
X112654762Y-64165180D02*
X112702381Y-64212800D01*
X112702381Y-64212800D02*
X112797619Y-64260419D01*
X112797619Y-64260419D02*
X112988095Y-64260419D01*
X112988095Y-64260419D02*
X113083333Y-64212800D01*
X113083333Y-64212800D02*
X113130952Y-64165180D01*
X113130952Y-64165180D02*
X113178571Y-64069942D01*
X113178571Y-64069942D02*
X113178571Y-63260419D01*
X34071429Y-26260419D02*
X34071429Y-25260419D01*
X34642857Y-26260419D02*
X34214286Y-25688990D01*
X34642857Y-25260419D02*
X34071429Y-25831847D01*
X35023810Y-26212800D02*
X35166667Y-26260419D01*
X35166667Y-26260419D02*
X35404762Y-26260419D01*
X35404762Y-26260419D02*
X35500000Y-26212800D01*
X35500000Y-26212800D02*
X35547619Y-26165180D01*
X35547619Y-26165180D02*
X35595238Y-26069942D01*
X35595238Y-26069942D02*
X35595238Y-25974704D01*
X35595238Y-25974704D02*
X35547619Y-25879466D01*
X35547619Y-25879466D02*
X35500000Y-25831847D01*
X35500000Y-25831847D02*
X35404762Y-25784228D01*
X35404762Y-25784228D02*
X35214286Y-25736609D01*
X35214286Y-25736609D02*
X35119048Y-25688990D01*
X35119048Y-25688990D02*
X35071429Y-25641371D01*
X35071429Y-25641371D02*
X35023810Y-25546133D01*
X35023810Y-25546133D02*
X35023810Y-25450895D01*
X35023810Y-25450895D02*
X35071429Y-25355657D01*
X35071429Y-25355657D02*
X35119048Y-25308038D01*
X35119048Y-25308038D02*
X35214286Y-25260419D01*
X35214286Y-25260419D02*
X35452381Y-25260419D01*
X35452381Y-25260419D02*
X35595238Y-25308038D01*
X36023810Y-25879466D02*
X36785715Y-25879466D01*
X37166667Y-25260419D02*
X37785714Y-25260419D01*
X37785714Y-25260419D02*
X37452381Y-25641371D01*
X37452381Y-25641371D02*
X37595238Y-25641371D01*
X37595238Y-25641371D02*
X37690476Y-25688990D01*
X37690476Y-25688990D02*
X37738095Y-25736609D01*
X37738095Y-25736609D02*
X37785714Y-25831847D01*
X37785714Y-25831847D02*
X37785714Y-26069942D01*
X37785714Y-26069942D02*
X37738095Y-26165180D01*
X37738095Y-26165180D02*
X37690476Y-26212800D01*
X37690476Y-26212800D02*
X37595238Y-26260419D01*
X37595238Y-26260419D02*
X37309524Y-26260419D01*
X37309524Y-26260419D02*
X37214286Y-26212800D01*
X37214286Y-26212800D02*
X37166667Y-26165180D01*
X38119048Y-25260419D02*
X38738095Y-25260419D01*
X38738095Y-25260419D02*
X38404762Y-25641371D01*
X38404762Y-25641371D02*
X38547619Y-25641371D01*
X38547619Y-25641371D02*
X38642857Y-25688990D01*
X38642857Y-25688990D02*
X38690476Y-25736609D01*
X38690476Y-25736609D02*
X38738095Y-25831847D01*
X38738095Y-25831847D02*
X38738095Y-26069942D01*
X38738095Y-26069942D02*
X38690476Y-26165180D01*
X38690476Y-26165180D02*
X38642857Y-26212800D01*
X38642857Y-26212800D02*
X38547619Y-26260419D01*
X38547619Y-26260419D02*
X38261905Y-26260419D01*
X38261905Y-26260419D02*
X38166667Y-26212800D01*
X38166667Y-26212800D02*
X38119048Y-26165180D01*
X39166667Y-25879466D02*
X39928572Y-25879466D01*
X40928571Y-26260419D02*
X40357143Y-26260419D01*
X40642857Y-26260419D02*
X40642857Y-25260419D01*
X40642857Y-25260419D02*
X40547619Y-25403276D01*
X40547619Y-25403276D02*
X40452381Y-25498514D01*
X40452381Y-25498514D02*
X40357143Y-25546133D01*
X41357143Y-25260419D02*
X41357143Y-26069942D01*
X41357143Y-26069942D02*
X41404762Y-26165180D01*
X41404762Y-26165180D02*
X41452381Y-26212800D01*
X41452381Y-26212800D02*
X41547619Y-26260419D01*
X41547619Y-26260419D02*
X41738095Y-26260419D01*
X41738095Y-26260419D02*
X41833333Y-26212800D01*
X41833333Y-26212800D02*
X41880952Y-26165180D01*
X41880952Y-26165180D02*
X41928571Y-26069942D01*
X41928571Y-26069942D02*
X41928571Y-25260419D01*
X138571429Y-83260419D02*
X138571429Y-82260419D01*
X139142857Y-83260419D02*
X138714286Y-82688990D01*
X139142857Y-82260419D02*
X138571429Y-82831847D01*
X139523810Y-83212800D02*
X139666667Y-83260419D01*
X139666667Y-83260419D02*
X139904762Y-83260419D01*
X139904762Y-83260419D02*
X140000000Y-83212800D01*
X140000000Y-83212800D02*
X140047619Y-83165180D01*
X140047619Y-83165180D02*
X140095238Y-83069942D01*
X140095238Y-83069942D02*
X140095238Y-82974704D01*
X140095238Y-82974704D02*
X140047619Y-82879466D01*
X140047619Y-82879466D02*
X140000000Y-82831847D01*
X140000000Y-82831847D02*
X139904762Y-82784228D01*
X139904762Y-82784228D02*
X139714286Y-82736609D01*
X139714286Y-82736609D02*
X139619048Y-82688990D01*
X139619048Y-82688990D02*
X139571429Y-82641371D01*
X139571429Y-82641371D02*
X139523810Y-82546133D01*
X139523810Y-82546133D02*
X139523810Y-82450895D01*
X139523810Y-82450895D02*
X139571429Y-82355657D01*
X139571429Y-82355657D02*
X139619048Y-82308038D01*
X139619048Y-82308038D02*
X139714286Y-82260419D01*
X139714286Y-82260419D02*
X139952381Y-82260419D01*
X139952381Y-82260419D02*
X140095238Y-82308038D01*
X140523810Y-82879466D02*
X141285715Y-82879466D01*
X141666667Y-82260419D02*
X142285714Y-82260419D01*
X142285714Y-82260419D02*
X141952381Y-82641371D01*
X141952381Y-82641371D02*
X142095238Y-82641371D01*
X142095238Y-82641371D02*
X142190476Y-82688990D01*
X142190476Y-82688990D02*
X142238095Y-82736609D01*
X142238095Y-82736609D02*
X142285714Y-82831847D01*
X142285714Y-82831847D02*
X142285714Y-83069942D01*
X142285714Y-83069942D02*
X142238095Y-83165180D01*
X142238095Y-83165180D02*
X142190476Y-83212800D01*
X142190476Y-83212800D02*
X142095238Y-83260419D01*
X142095238Y-83260419D02*
X141809524Y-83260419D01*
X141809524Y-83260419D02*
X141714286Y-83212800D01*
X141714286Y-83212800D02*
X141666667Y-83165180D01*
X142619048Y-82260419D02*
X143238095Y-82260419D01*
X143238095Y-82260419D02*
X142904762Y-82641371D01*
X142904762Y-82641371D02*
X143047619Y-82641371D01*
X143047619Y-82641371D02*
X143142857Y-82688990D01*
X143142857Y-82688990D02*
X143190476Y-82736609D01*
X143190476Y-82736609D02*
X143238095Y-82831847D01*
X143238095Y-82831847D02*
X143238095Y-83069942D01*
X143238095Y-83069942D02*
X143190476Y-83165180D01*
X143190476Y-83165180D02*
X143142857Y-83212800D01*
X143142857Y-83212800D02*
X143047619Y-83260419D01*
X143047619Y-83260419D02*
X142761905Y-83260419D01*
X142761905Y-83260419D02*
X142666667Y-83212800D01*
X142666667Y-83212800D02*
X142619048Y-83165180D01*
X143666667Y-82879466D02*
X144428572Y-82879466D01*
X145428571Y-83260419D02*
X144857143Y-83260419D01*
X145142857Y-83260419D02*
X145142857Y-82260419D01*
X145142857Y-82260419D02*
X145047619Y-82403276D01*
X145047619Y-82403276D02*
X144952381Y-82498514D01*
X144952381Y-82498514D02*
X144857143Y-82546133D01*
X145857143Y-82260419D02*
X145857143Y-83069942D01*
X145857143Y-83069942D02*
X145904762Y-83165180D01*
X145904762Y-83165180D02*
X145952381Y-83212800D01*
X145952381Y-83212800D02*
X146047619Y-83260419D01*
X146047619Y-83260419D02*
X146238095Y-83260419D01*
X146238095Y-83260419D02*
X146333333Y-83212800D01*
X146333333Y-83212800D02*
X146380952Y-83165180D01*
X146380952Y-83165180D02*
X146428571Y-83069942D01*
X146428571Y-83069942D02*
X146428571Y-82260419D01*
X171821429Y-45260419D02*
X171821429Y-44260419D01*
X172392857Y-45260419D02*
X171964286Y-44688990D01*
X172392857Y-44260419D02*
X171821429Y-44831847D01*
X172773810Y-45212800D02*
X172916667Y-45260419D01*
X172916667Y-45260419D02*
X173154762Y-45260419D01*
X173154762Y-45260419D02*
X173250000Y-45212800D01*
X173250000Y-45212800D02*
X173297619Y-45165180D01*
X173297619Y-45165180D02*
X173345238Y-45069942D01*
X173345238Y-45069942D02*
X173345238Y-44974704D01*
X173345238Y-44974704D02*
X173297619Y-44879466D01*
X173297619Y-44879466D02*
X173250000Y-44831847D01*
X173250000Y-44831847D02*
X173154762Y-44784228D01*
X173154762Y-44784228D02*
X172964286Y-44736609D01*
X172964286Y-44736609D02*
X172869048Y-44688990D01*
X172869048Y-44688990D02*
X172821429Y-44641371D01*
X172821429Y-44641371D02*
X172773810Y-44546133D01*
X172773810Y-44546133D02*
X172773810Y-44450895D01*
X172773810Y-44450895D02*
X172821429Y-44355657D01*
X172821429Y-44355657D02*
X172869048Y-44308038D01*
X172869048Y-44308038D02*
X172964286Y-44260419D01*
X172964286Y-44260419D02*
X173202381Y-44260419D01*
X173202381Y-44260419D02*
X173345238Y-44308038D01*
X173773810Y-44879466D02*
X174535715Y-44879466D01*
X174916667Y-44260419D02*
X175535714Y-44260419D01*
X175535714Y-44260419D02*
X175202381Y-44641371D01*
X175202381Y-44641371D02*
X175345238Y-44641371D01*
X175345238Y-44641371D02*
X175440476Y-44688990D01*
X175440476Y-44688990D02*
X175488095Y-44736609D01*
X175488095Y-44736609D02*
X175535714Y-44831847D01*
X175535714Y-44831847D02*
X175535714Y-45069942D01*
X175535714Y-45069942D02*
X175488095Y-45165180D01*
X175488095Y-45165180D02*
X175440476Y-45212800D01*
X175440476Y-45212800D02*
X175345238Y-45260419D01*
X175345238Y-45260419D02*
X175059524Y-45260419D01*
X175059524Y-45260419D02*
X174964286Y-45212800D01*
X174964286Y-45212800D02*
X174916667Y-45165180D01*
X175869048Y-44260419D02*
X176488095Y-44260419D01*
X176488095Y-44260419D02*
X176154762Y-44641371D01*
X176154762Y-44641371D02*
X176297619Y-44641371D01*
X176297619Y-44641371D02*
X176392857Y-44688990D01*
X176392857Y-44688990D02*
X176440476Y-44736609D01*
X176440476Y-44736609D02*
X176488095Y-44831847D01*
X176488095Y-44831847D02*
X176488095Y-45069942D01*
X176488095Y-45069942D02*
X176440476Y-45165180D01*
X176440476Y-45165180D02*
X176392857Y-45212800D01*
X176392857Y-45212800D02*
X176297619Y-45260419D01*
X176297619Y-45260419D02*
X176011905Y-45260419D01*
X176011905Y-45260419D02*
X175916667Y-45212800D01*
X175916667Y-45212800D02*
X175869048Y-45165180D01*
X176916667Y-44879466D02*
X177678572Y-44879466D01*
X178678571Y-45260419D02*
X178107143Y-45260419D01*
X178392857Y-45260419D02*
X178392857Y-44260419D01*
X178392857Y-44260419D02*
X178297619Y-44403276D01*
X178297619Y-44403276D02*
X178202381Y-44498514D01*
X178202381Y-44498514D02*
X178107143Y-44546133D01*
X179107143Y-44260419D02*
X179107143Y-45069942D01*
X179107143Y-45069942D02*
X179154762Y-45165180D01*
X179154762Y-45165180D02*
X179202381Y-45212800D01*
X179202381Y-45212800D02*
X179297619Y-45260419D01*
X179297619Y-45260419D02*
X179488095Y-45260419D01*
X179488095Y-45260419D02*
X179583333Y-45212800D01*
X179583333Y-45212800D02*
X179630952Y-45165180D01*
X179630952Y-45165180D02*
X179678571Y-45069942D01*
X179678571Y-45069942D02*
X179678571Y-44260419D01*
X152821429Y-45260419D02*
X152821429Y-44260419D01*
X153392857Y-45260419D02*
X152964286Y-44688990D01*
X153392857Y-44260419D02*
X152821429Y-44831847D01*
X153773810Y-45212800D02*
X153916667Y-45260419D01*
X153916667Y-45260419D02*
X154154762Y-45260419D01*
X154154762Y-45260419D02*
X154250000Y-45212800D01*
X154250000Y-45212800D02*
X154297619Y-45165180D01*
X154297619Y-45165180D02*
X154345238Y-45069942D01*
X154345238Y-45069942D02*
X154345238Y-44974704D01*
X154345238Y-44974704D02*
X154297619Y-44879466D01*
X154297619Y-44879466D02*
X154250000Y-44831847D01*
X154250000Y-44831847D02*
X154154762Y-44784228D01*
X154154762Y-44784228D02*
X153964286Y-44736609D01*
X153964286Y-44736609D02*
X153869048Y-44688990D01*
X153869048Y-44688990D02*
X153821429Y-44641371D01*
X153821429Y-44641371D02*
X153773810Y-44546133D01*
X153773810Y-44546133D02*
X153773810Y-44450895D01*
X153773810Y-44450895D02*
X153821429Y-44355657D01*
X153821429Y-44355657D02*
X153869048Y-44308038D01*
X153869048Y-44308038D02*
X153964286Y-44260419D01*
X153964286Y-44260419D02*
X154202381Y-44260419D01*
X154202381Y-44260419D02*
X154345238Y-44308038D01*
X154773810Y-44879466D02*
X155535715Y-44879466D01*
X155916667Y-44260419D02*
X156535714Y-44260419D01*
X156535714Y-44260419D02*
X156202381Y-44641371D01*
X156202381Y-44641371D02*
X156345238Y-44641371D01*
X156345238Y-44641371D02*
X156440476Y-44688990D01*
X156440476Y-44688990D02*
X156488095Y-44736609D01*
X156488095Y-44736609D02*
X156535714Y-44831847D01*
X156535714Y-44831847D02*
X156535714Y-45069942D01*
X156535714Y-45069942D02*
X156488095Y-45165180D01*
X156488095Y-45165180D02*
X156440476Y-45212800D01*
X156440476Y-45212800D02*
X156345238Y-45260419D01*
X156345238Y-45260419D02*
X156059524Y-45260419D01*
X156059524Y-45260419D02*
X155964286Y-45212800D01*
X155964286Y-45212800D02*
X155916667Y-45165180D01*
X156869048Y-44260419D02*
X157488095Y-44260419D01*
X157488095Y-44260419D02*
X157154762Y-44641371D01*
X157154762Y-44641371D02*
X157297619Y-44641371D01*
X157297619Y-44641371D02*
X157392857Y-44688990D01*
X157392857Y-44688990D02*
X157440476Y-44736609D01*
X157440476Y-44736609D02*
X157488095Y-44831847D01*
X157488095Y-44831847D02*
X157488095Y-45069942D01*
X157488095Y-45069942D02*
X157440476Y-45165180D01*
X157440476Y-45165180D02*
X157392857Y-45212800D01*
X157392857Y-45212800D02*
X157297619Y-45260419D01*
X157297619Y-45260419D02*
X157011905Y-45260419D01*
X157011905Y-45260419D02*
X156916667Y-45212800D01*
X156916667Y-45212800D02*
X156869048Y-45165180D01*
X157916667Y-44879466D02*
X158678572Y-44879466D01*
X159678571Y-45260419D02*
X159107143Y-45260419D01*
X159392857Y-45260419D02*
X159392857Y-44260419D01*
X159392857Y-44260419D02*
X159297619Y-44403276D01*
X159297619Y-44403276D02*
X159202381Y-44498514D01*
X159202381Y-44498514D02*
X159107143Y-44546133D01*
X160107143Y-44260419D02*
X160107143Y-45069942D01*
X160107143Y-45069942D02*
X160154762Y-45165180D01*
X160154762Y-45165180D02*
X160202381Y-45212800D01*
X160202381Y-45212800D02*
X160297619Y-45260419D01*
X160297619Y-45260419D02*
X160488095Y-45260419D01*
X160488095Y-45260419D02*
X160583333Y-45212800D01*
X160583333Y-45212800D02*
X160630952Y-45165180D01*
X160630952Y-45165180D02*
X160678571Y-45069942D01*
X160678571Y-45069942D02*
X160678571Y-44260419D01*
X181321429Y-64260419D02*
X181321429Y-63260419D01*
X181892857Y-64260419D02*
X181464286Y-63688990D01*
X181892857Y-63260419D02*
X181321429Y-63831847D01*
X182273810Y-64212800D02*
X182416667Y-64260419D01*
X182416667Y-64260419D02*
X182654762Y-64260419D01*
X182654762Y-64260419D02*
X182750000Y-64212800D01*
X182750000Y-64212800D02*
X182797619Y-64165180D01*
X182797619Y-64165180D02*
X182845238Y-64069942D01*
X182845238Y-64069942D02*
X182845238Y-63974704D01*
X182845238Y-63974704D02*
X182797619Y-63879466D01*
X182797619Y-63879466D02*
X182750000Y-63831847D01*
X182750000Y-63831847D02*
X182654762Y-63784228D01*
X182654762Y-63784228D02*
X182464286Y-63736609D01*
X182464286Y-63736609D02*
X182369048Y-63688990D01*
X182369048Y-63688990D02*
X182321429Y-63641371D01*
X182321429Y-63641371D02*
X182273810Y-63546133D01*
X182273810Y-63546133D02*
X182273810Y-63450895D01*
X182273810Y-63450895D02*
X182321429Y-63355657D01*
X182321429Y-63355657D02*
X182369048Y-63308038D01*
X182369048Y-63308038D02*
X182464286Y-63260419D01*
X182464286Y-63260419D02*
X182702381Y-63260419D01*
X182702381Y-63260419D02*
X182845238Y-63308038D01*
X183273810Y-63879466D02*
X184035715Y-63879466D01*
X184416667Y-63260419D02*
X185035714Y-63260419D01*
X185035714Y-63260419D02*
X184702381Y-63641371D01*
X184702381Y-63641371D02*
X184845238Y-63641371D01*
X184845238Y-63641371D02*
X184940476Y-63688990D01*
X184940476Y-63688990D02*
X184988095Y-63736609D01*
X184988095Y-63736609D02*
X185035714Y-63831847D01*
X185035714Y-63831847D02*
X185035714Y-64069942D01*
X185035714Y-64069942D02*
X184988095Y-64165180D01*
X184988095Y-64165180D02*
X184940476Y-64212800D01*
X184940476Y-64212800D02*
X184845238Y-64260419D01*
X184845238Y-64260419D02*
X184559524Y-64260419D01*
X184559524Y-64260419D02*
X184464286Y-64212800D01*
X184464286Y-64212800D02*
X184416667Y-64165180D01*
X185369048Y-63260419D02*
X185988095Y-63260419D01*
X185988095Y-63260419D02*
X185654762Y-63641371D01*
X185654762Y-63641371D02*
X185797619Y-63641371D01*
X185797619Y-63641371D02*
X185892857Y-63688990D01*
X185892857Y-63688990D02*
X185940476Y-63736609D01*
X185940476Y-63736609D02*
X185988095Y-63831847D01*
X185988095Y-63831847D02*
X185988095Y-64069942D01*
X185988095Y-64069942D02*
X185940476Y-64165180D01*
X185940476Y-64165180D02*
X185892857Y-64212800D01*
X185892857Y-64212800D02*
X185797619Y-64260419D01*
X185797619Y-64260419D02*
X185511905Y-64260419D01*
X185511905Y-64260419D02*
X185416667Y-64212800D01*
X185416667Y-64212800D02*
X185369048Y-64165180D01*
X186416667Y-63879466D02*
X187178572Y-63879466D01*
X188178571Y-64260419D02*
X187607143Y-64260419D01*
X187892857Y-64260419D02*
X187892857Y-63260419D01*
X187892857Y-63260419D02*
X187797619Y-63403276D01*
X187797619Y-63403276D02*
X187702381Y-63498514D01*
X187702381Y-63498514D02*
X187607143Y-63546133D01*
X188607143Y-63260419D02*
X188607143Y-64069942D01*
X188607143Y-64069942D02*
X188654762Y-64165180D01*
X188654762Y-64165180D02*
X188702381Y-64212800D01*
X188702381Y-64212800D02*
X188797619Y-64260419D01*
X188797619Y-64260419D02*
X188988095Y-64260419D01*
X188988095Y-64260419D02*
X189083333Y-64212800D01*
X189083333Y-64212800D02*
X189130952Y-64165180D01*
X189130952Y-64165180D02*
X189178571Y-64069942D01*
X189178571Y-64069942D02*
X189178571Y-63260419D01*
X48321429Y-64260419D02*
X48321429Y-63260419D01*
X48892857Y-64260419D02*
X48464286Y-63688990D01*
X48892857Y-63260419D02*
X48321429Y-63831847D01*
X49273810Y-64212800D02*
X49416667Y-64260419D01*
X49416667Y-64260419D02*
X49654762Y-64260419D01*
X49654762Y-64260419D02*
X49750000Y-64212800D01*
X49750000Y-64212800D02*
X49797619Y-64165180D01*
X49797619Y-64165180D02*
X49845238Y-64069942D01*
X49845238Y-64069942D02*
X49845238Y-63974704D01*
X49845238Y-63974704D02*
X49797619Y-63879466D01*
X49797619Y-63879466D02*
X49750000Y-63831847D01*
X49750000Y-63831847D02*
X49654762Y-63784228D01*
X49654762Y-63784228D02*
X49464286Y-63736609D01*
X49464286Y-63736609D02*
X49369048Y-63688990D01*
X49369048Y-63688990D02*
X49321429Y-63641371D01*
X49321429Y-63641371D02*
X49273810Y-63546133D01*
X49273810Y-63546133D02*
X49273810Y-63450895D01*
X49273810Y-63450895D02*
X49321429Y-63355657D01*
X49321429Y-63355657D02*
X49369048Y-63308038D01*
X49369048Y-63308038D02*
X49464286Y-63260419D01*
X49464286Y-63260419D02*
X49702381Y-63260419D01*
X49702381Y-63260419D02*
X49845238Y-63308038D01*
X50273810Y-63879466D02*
X51035715Y-63879466D01*
X51416667Y-63260419D02*
X52035714Y-63260419D01*
X52035714Y-63260419D02*
X51702381Y-63641371D01*
X51702381Y-63641371D02*
X51845238Y-63641371D01*
X51845238Y-63641371D02*
X51940476Y-63688990D01*
X51940476Y-63688990D02*
X51988095Y-63736609D01*
X51988095Y-63736609D02*
X52035714Y-63831847D01*
X52035714Y-63831847D02*
X52035714Y-64069942D01*
X52035714Y-64069942D02*
X51988095Y-64165180D01*
X51988095Y-64165180D02*
X51940476Y-64212800D01*
X51940476Y-64212800D02*
X51845238Y-64260419D01*
X51845238Y-64260419D02*
X51559524Y-64260419D01*
X51559524Y-64260419D02*
X51464286Y-64212800D01*
X51464286Y-64212800D02*
X51416667Y-64165180D01*
X52369048Y-63260419D02*
X52988095Y-63260419D01*
X52988095Y-63260419D02*
X52654762Y-63641371D01*
X52654762Y-63641371D02*
X52797619Y-63641371D01*
X52797619Y-63641371D02*
X52892857Y-63688990D01*
X52892857Y-63688990D02*
X52940476Y-63736609D01*
X52940476Y-63736609D02*
X52988095Y-63831847D01*
X52988095Y-63831847D02*
X52988095Y-64069942D01*
X52988095Y-64069942D02*
X52940476Y-64165180D01*
X52940476Y-64165180D02*
X52892857Y-64212800D01*
X52892857Y-64212800D02*
X52797619Y-64260419D01*
X52797619Y-64260419D02*
X52511905Y-64260419D01*
X52511905Y-64260419D02*
X52416667Y-64212800D01*
X52416667Y-64212800D02*
X52369048Y-64165180D01*
X53416667Y-63879466D02*
X54178572Y-63879466D01*
X55178571Y-64260419D02*
X54607143Y-64260419D01*
X54892857Y-64260419D02*
X54892857Y-63260419D01*
X54892857Y-63260419D02*
X54797619Y-63403276D01*
X54797619Y-63403276D02*
X54702381Y-63498514D01*
X54702381Y-63498514D02*
X54607143Y-63546133D01*
X55607143Y-63260419D02*
X55607143Y-64069942D01*
X55607143Y-64069942D02*
X55654762Y-64165180D01*
X55654762Y-64165180D02*
X55702381Y-64212800D01*
X55702381Y-64212800D02*
X55797619Y-64260419D01*
X55797619Y-64260419D02*
X55988095Y-64260419D01*
X55988095Y-64260419D02*
X56083333Y-64212800D01*
X56083333Y-64212800D02*
X56130952Y-64165180D01*
X56130952Y-64165180D02*
X56178571Y-64069942D01*
X56178571Y-64069942D02*
X56178571Y-63260419D01*
X205071429Y-64260419D02*
X205071429Y-63260419D01*
X205642857Y-64260419D02*
X205214286Y-63688990D01*
X205642857Y-63260419D02*
X205071429Y-63831847D01*
X206023810Y-64212800D02*
X206166667Y-64260419D01*
X206166667Y-64260419D02*
X206404762Y-64260419D01*
X206404762Y-64260419D02*
X206500000Y-64212800D01*
X206500000Y-64212800D02*
X206547619Y-64165180D01*
X206547619Y-64165180D02*
X206595238Y-64069942D01*
X206595238Y-64069942D02*
X206595238Y-63974704D01*
X206595238Y-63974704D02*
X206547619Y-63879466D01*
X206547619Y-63879466D02*
X206500000Y-63831847D01*
X206500000Y-63831847D02*
X206404762Y-63784228D01*
X206404762Y-63784228D02*
X206214286Y-63736609D01*
X206214286Y-63736609D02*
X206119048Y-63688990D01*
X206119048Y-63688990D02*
X206071429Y-63641371D01*
X206071429Y-63641371D02*
X206023810Y-63546133D01*
X206023810Y-63546133D02*
X206023810Y-63450895D01*
X206023810Y-63450895D02*
X206071429Y-63355657D01*
X206071429Y-63355657D02*
X206119048Y-63308038D01*
X206119048Y-63308038D02*
X206214286Y-63260419D01*
X206214286Y-63260419D02*
X206452381Y-63260419D01*
X206452381Y-63260419D02*
X206595238Y-63308038D01*
X207023810Y-63879466D02*
X207785715Y-63879466D01*
X208166667Y-63260419D02*
X208785714Y-63260419D01*
X208785714Y-63260419D02*
X208452381Y-63641371D01*
X208452381Y-63641371D02*
X208595238Y-63641371D01*
X208595238Y-63641371D02*
X208690476Y-63688990D01*
X208690476Y-63688990D02*
X208738095Y-63736609D01*
X208738095Y-63736609D02*
X208785714Y-63831847D01*
X208785714Y-63831847D02*
X208785714Y-64069942D01*
X208785714Y-64069942D02*
X208738095Y-64165180D01*
X208738095Y-64165180D02*
X208690476Y-64212800D01*
X208690476Y-64212800D02*
X208595238Y-64260419D01*
X208595238Y-64260419D02*
X208309524Y-64260419D01*
X208309524Y-64260419D02*
X208214286Y-64212800D01*
X208214286Y-64212800D02*
X208166667Y-64165180D01*
X209119048Y-63260419D02*
X209738095Y-63260419D01*
X209738095Y-63260419D02*
X209404762Y-63641371D01*
X209404762Y-63641371D02*
X209547619Y-63641371D01*
X209547619Y-63641371D02*
X209642857Y-63688990D01*
X209642857Y-63688990D02*
X209690476Y-63736609D01*
X209690476Y-63736609D02*
X209738095Y-63831847D01*
X209738095Y-63831847D02*
X209738095Y-64069942D01*
X209738095Y-64069942D02*
X209690476Y-64165180D01*
X209690476Y-64165180D02*
X209642857Y-64212800D01*
X209642857Y-64212800D02*
X209547619Y-64260419D01*
X209547619Y-64260419D02*
X209261905Y-64260419D01*
X209261905Y-64260419D02*
X209166667Y-64212800D01*
X209166667Y-64212800D02*
X209119048Y-64165180D01*
X210166667Y-63879466D02*
X210928572Y-63879466D01*
X211928571Y-64260419D02*
X211357143Y-64260419D01*
X211642857Y-64260419D02*
X211642857Y-63260419D01*
X211642857Y-63260419D02*
X211547619Y-63403276D01*
X211547619Y-63403276D02*
X211452381Y-63498514D01*
X211452381Y-63498514D02*
X211357143Y-63546133D01*
X212357143Y-63260419D02*
X212357143Y-64069942D01*
X212357143Y-64069942D02*
X212404762Y-64165180D01*
X212404762Y-64165180D02*
X212452381Y-64212800D01*
X212452381Y-64212800D02*
X212547619Y-64260419D01*
X212547619Y-64260419D02*
X212738095Y-64260419D01*
X212738095Y-64260419D02*
X212833333Y-64212800D01*
X212833333Y-64212800D02*
X212880952Y-64165180D01*
X212880952Y-64165180D02*
X212928571Y-64069942D01*
X212928571Y-64069942D02*
X212928571Y-63260419D01*
X167071429Y-26260419D02*
X167071429Y-25260419D01*
X167642857Y-26260419D02*
X167214286Y-25688990D01*
X167642857Y-25260419D02*
X167071429Y-25831847D01*
X168023810Y-26212800D02*
X168166667Y-26260419D01*
X168166667Y-26260419D02*
X168404762Y-26260419D01*
X168404762Y-26260419D02*
X168500000Y-26212800D01*
X168500000Y-26212800D02*
X168547619Y-26165180D01*
X168547619Y-26165180D02*
X168595238Y-26069942D01*
X168595238Y-26069942D02*
X168595238Y-25974704D01*
X168595238Y-25974704D02*
X168547619Y-25879466D01*
X168547619Y-25879466D02*
X168500000Y-25831847D01*
X168500000Y-25831847D02*
X168404762Y-25784228D01*
X168404762Y-25784228D02*
X168214286Y-25736609D01*
X168214286Y-25736609D02*
X168119048Y-25688990D01*
X168119048Y-25688990D02*
X168071429Y-25641371D01*
X168071429Y-25641371D02*
X168023810Y-25546133D01*
X168023810Y-25546133D02*
X168023810Y-25450895D01*
X168023810Y-25450895D02*
X168071429Y-25355657D01*
X168071429Y-25355657D02*
X168119048Y-25308038D01*
X168119048Y-25308038D02*
X168214286Y-25260419D01*
X168214286Y-25260419D02*
X168452381Y-25260419D01*
X168452381Y-25260419D02*
X168595238Y-25308038D01*
X169023810Y-25879466D02*
X169785715Y-25879466D01*
X170166667Y-25260419D02*
X170785714Y-25260419D01*
X170785714Y-25260419D02*
X170452381Y-25641371D01*
X170452381Y-25641371D02*
X170595238Y-25641371D01*
X170595238Y-25641371D02*
X170690476Y-25688990D01*
X170690476Y-25688990D02*
X170738095Y-25736609D01*
X170738095Y-25736609D02*
X170785714Y-25831847D01*
X170785714Y-25831847D02*
X170785714Y-26069942D01*
X170785714Y-26069942D02*
X170738095Y-26165180D01*
X170738095Y-26165180D02*
X170690476Y-26212800D01*
X170690476Y-26212800D02*
X170595238Y-26260419D01*
X170595238Y-26260419D02*
X170309524Y-26260419D01*
X170309524Y-26260419D02*
X170214286Y-26212800D01*
X170214286Y-26212800D02*
X170166667Y-26165180D01*
X171119048Y-25260419D02*
X171738095Y-25260419D01*
X171738095Y-25260419D02*
X171404762Y-25641371D01*
X171404762Y-25641371D02*
X171547619Y-25641371D01*
X171547619Y-25641371D02*
X171642857Y-25688990D01*
X171642857Y-25688990D02*
X171690476Y-25736609D01*
X171690476Y-25736609D02*
X171738095Y-25831847D01*
X171738095Y-25831847D02*
X171738095Y-26069942D01*
X171738095Y-26069942D02*
X171690476Y-26165180D01*
X171690476Y-26165180D02*
X171642857Y-26212800D01*
X171642857Y-26212800D02*
X171547619Y-26260419D01*
X171547619Y-26260419D02*
X171261905Y-26260419D01*
X171261905Y-26260419D02*
X171166667Y-26212800D01*
X171166667Y-26212800D02*
X171119048Y-26165180D01*
X172166667Y-25879466D02*
X172928572Y-25879466D01*
X173928571Y-26260419D02*
X173357143Y-26260419D01*
X173642857Y-26260419D02*
X173642857Y-25260419D01*
X173642857Y-25260419D02*
X173547619Y-25403276D01*
X173547619Y-25403276D02*
X173452381Y-25498514D01*
X173452381Y-25498514D02*
X173357143Y-25546133D01*
X174357143Y-25260419D02*
X174357143Y-26069942D01*
X174357143Y-26069942D02*
X174404762Y-26165180D01*
X174404762Y-26165180D02*
X174452381Y-26212800D01*
X174452381Y-26212800D02*
X174547619Y-26260419D01*
X174547619Y-26260419D02*
X174738095Y-26260419D01*
X174738095Y-26260419D02*
X174833333Y-26212800D01*
X174833333Y-26212800D02*
X174880952Y-26165180D01*
X174880952Y-26165180D02*
X174928571Y-26069942D01*
X174928571Y-26069942D02*
X174928571Y-25260419D01*
X67321429Y-64260419D02*
X67321429Y-63260419D01*
X67892857Y-64260419D02*
X67464286Y-63688990D01*
X67892857Y-63260419D02*
X67321429Y-63831847D01*
X68273810Y-64212800D02*
X68416667Y-64260419D01*
X68416667Y-64260419D02*
X68654762Y-64260419D01*
X68654762Y-64260419D02*
X68750000Y-64212800D01*
X68750000Y-64212800D02*
X68797619Y-64165180D01*
X68797619Y-64165180D02*
X68845238Y-64069942D01*
X68845238Y-64069942D02*
X68845238Y-63974704D01*
X68845238Y-63974704D02*
X68797619Y-63879466D01*
X68797619Y-63879466D02*
X68750000Y-63831847D01*
X68750000Y-63831847D02*
X68654762Y-63784228D01*
X68654762Y-63784228D02*
X68464286Y-63736609D01*
X68464286Y-63736609D02*
X68369048Y-63688990D01*
X68369048Y-63688990D02*
X68321429Y-63641371D01*
X68321429Y-63641371D02*
X68273810Y-63546133D01*
X68273810Y-63546133D02*
X68273810Y-63450895D01*
X68273810Y-63450895D02*
X68321429Y-63355657D01*
X68321429Y-63355657D02*
X68369048Y-63308038D01*
X68369048Y-63308038D02*
X68464286Y-63260419D01*
X68464286Y-63260419D02*
X68702381Y-63260419D01*
X68702381Y-63260419D02*
X68845238Y-63308038D01*
X69273810Y-63879466D02*
X70035715Y-63879466D01*
X70416667Y-63260419D02*
X71035714Y-63260419D01*
X71035714Y-63260419D02*
X70702381Y-63641371D01*
X70702381Y-63641371D02*
X70845238Y-63641371D01*
X70845238Y-63641371D02*
X70940476Y-63688990D01*
X70940476Y-63688990D02*
X70988095Y-63736609D01*
X70988095Y-63736609D02*
X71035714Y-63831847D01*
X71035714Y-63831847D02*
X71035714Y-64069942D01*
X71035714Y-64069942D02*
X70988095Y-64165180D01*
X70988095Y-64165180D02*
X70940476Y-64212800D01*
X70940476Y-64212800D02*
X70845238Y-64260419D01*
X70845238Y-64260419D02*
X70559524Y-64260419D01*
X70559524Y-64260419D02*
X70464286Y-64212800D01*
X70464286Y-64212800D02*
X70416667Y-64165180D01*
X71369048Y-63260419D02*
X71988095Y-63260419D01*
X71988095Y-63260419D02*
X71654762Y-63641371D01*
X71654762Y-63641371D02*
X71797619Y-63641371D01*
X71797619Y-63641371D02*
X71892857Y-63688990D01*
X71892857Y-63688990D02*
X71940476Y-63736609D01*
X71940476Y-63736609D02*
X71988095Y-63831847D01*
X71988095Y-63831847D02*
X71988095Y-64069942D01*
X71988095Y-64069942D02*
X71940476Y-64165180D01*
X71940476Y-64165180D02*
X71892857Y-64212800D01*
X71892857Y-64212800D02*
X71797619Y-64260419D01*
X71797619Y-64260419D02*
X71511905Y-64260419D01*
X71511905Y-64260419D02*
X71416667Y-64212800D01*
X71416667Y-64212800D02*
X71369048Y-64165180D01*
X72416667Y-63879466D02*
X73178572Y-63879466D01*
X74178571Y-64260419D02*
X73607143Y-64260419D01*
X73892857Y-64260419D02*
X73892857Y-63260419D01*
X73892857Y-63260419D02*
X73797619Y-63403276D01*
X73797619Y-63403276D02*
X73702381Y-63498514D01*
X73702381Y-63498514D02*
X73607143Y-63546133D01*
X74607143Y-63260419D02*
X74607143Y-64069942D01*
X74607143Y-64069942D02*
X74654762Y-64165180D01*
X74654762Y-64165180D02*
X74702381Y-64212800D01*
X74702381Y-64212800D02*
X74797619Y-64260419D01*
X74797619Y-64260419D02*
X74988095Y-64260419D01*
X74988095Y-64260419D02*
X75083333Y-64212800D01*
X75083333Y-64212800D02*
X75130952Y-64165180D01*
X75130952Y-64165180D02*
X75178571Y-64069942D01*
X75178571Y-64069942D02*
X75178571Y-63260419D01*
X72071429Y-26260419D02*
X72071429Y-25260419D01*
X72642857Y-26260419D02*
X72214286Y-25688990D01*
X72642857Y-25260419D02*
X72071429Y-25831847D01*
X73023810Y-26212800D02*
X73166667Y-26260419D01*
X73166667Y-26260419D02*
X73404762Y-26260419D01*
X73404762Y-26260419D02*
X73500000Y-26212800D01*
X73500000Y-26212800D02*
X73547619Y-26165180D01*
X73547619Y-26165180D02*
X73595238Y-26069942D01*
X73595238Y-26069942D02*
X73595238Y-25974704D01*
X73595238Y-25974704D02*
X73547619Y-25879466D01*
X73547619Y-25879466D02*
X73500000Y-25831847D01*
X73500000Y-25831847D02*
X73404762Y-25784228D01*
X73404762Y-25784228D02*
X73214286Y-25736609D01*
X73214286Y-25736609D02*
X73119048Y-25688990D01*
X73119048Y-25688990D02*
X73071429Y-25641371D01*
X73071429Y-25641371D02*
X73023810Y-25546133D01*
X73023810Y-25546133D02*
X73023810Y-25450895D01*
X73023810Y-25450895D02*
X73071429Y-25355657D01*
X73071429Y-25355657D02*
X73119048Y-25308038D01*
X73119048Y-25308038D02*
X73214286Y-25260419D01*
X73214286Y-25260419D02*
X73452381Y-25260419D01*
X73452381Y-25260419D02*
X73595238Y-25308038D01*
X74023810Y-25879466D02*
X74785715Y-25879466D01*
X75166667Y-25260419D02*
X75785714Y-25260419D01*
X75785714Y-25260419D02*
X75452381Y-25641371D01*
X75452381Y-25641371D02*
X75595238Y-25641371D01*
X75595238Y-25641371D02*
X75690476Y-25688990D01*
X75690476Y-25688990D02*
X75738095Y-25736609D01*
X75738095Y-25736609D02*
X75785714Y-25831847D01*
X75785714Y-25831847D02*
X75785714Y-26069942D01*
X75785714Y-26069942D02*
X75738095Y-26165180D01*
X75738095Y-26165180D02*
X75690476Y-26212800D01*
X75690476Y-26212800D02*
X75595238Y-26260419D01*
X75595238Y-26260419D02*
X75309524Y-26260419D01*
X75309524Y-26260419D02*
X75214286Y-26212800D01*
X75214286Y-26212800D02*
X75166667Y-26165180D01*
X76119048Y-25260419D02*
X76738095Y-25260419D01*
X76738095Y-25260419D02*
X76404762Y-25641371D01*
X76404762Y-25641371D02*
X76547619Y-25641371D01*
X76547619Y-25641371D02*
X76642857Y-25688990D01*
X76642857Y-25688990D02*
X76690476Y-25736609D01*
X76690476Y-25736609D02*
X76738095Y-25831847D01*
X76738095Y-25831847D02*
X76738095Y-26069942D01*
X76738095Y-26069942D02*
X76690476Y-26165180D01*
X76690476Y-26165180D02*
X76642857Y-26212800D01*
X76642857Y-26212800D02*
X76547619Y-26260419D01*
X76547619Y-26260419D02*
X76261905Y-26260419D01*
X76261905Y-26260419D02*
X76166667Y-26212800D01*
X76166667Y-26212800D02*
X76119048Y-26165180D01*
X77166667Y-25879466D02*
X77928572Y-25879466D01*
X78928571Y-26260419D02*
X78357143Y-26260419D01*
X78642857Y-26260419D02*
X78642857Y-25260419D01*
X78642857Y-25260419D02*
X78547619Y-25403276D01*
X78547619Y-25403276D02*
X78452381Y-25498514D01*
X78452381Y-25498514D02*
X78357143Y-25546133D01*
X79357143Y-25260419D02*
X79357143Y-26069942D01*
X79357143Y-26069942D02*
X79404762Y-26165180D01*
X79404762Y-26165180D02*
X79452381Y-26212800D01*
X79452381Y-26212800D02*
X79547619Y-26260419D01*
X79547619Y-26260419D02*
X79738095Y-26260419D01*
X79738095Y-26260419D02*
X79833333Y-26212800D01*
X79833333Y-26212800D02*
X79880952Y-26165180D01*
X79880952Y-26165180D02*
X79928571Y-26069942D01*
X79928571Y-26069942D02*
X79928571Y-25260419D01*
X86321429Y-83260419D02*
X86321429Y-82260419D01*
X86892857Y-83260419D02*
X86464286Y-82688990D01*
X86892857Y-82260419D02*
X86321429Y-82831847D01*
X87273810Y-83212800D02*
X87416667Y-83260419D01*
X87416667Y-83260419D02*
X87654762Y-83260419D01*
X87654762Y-83260419D02*
X87750000Y-83212800D01*
X87750000Y-83212800D02*
X87797619Y-83165180D01*
X87797619Y-83165180D02*
X87845238Y-83069942D01*
X87845238Y-83069942D02*
X87845238Y-82974704D01*
X87845238Y-82974704D02*
X87797619Y-82879466D01*
X87797619Y-82879466D02*
X87750000Y-82831847D01*
X87750000Y-82831847D02*
X87654762Y-82784228D01*
X87654762Y-82784228D02*
X87464286Y-82736609D01*
X87464286Y-82736609D02*
X87369048Y-82688990D01*
X87369048Y-82688990D02*
X87321429Y-82641371D01*
X87321429Y-82641371D02*
X87273810Y-82546133D01*
X87273810Y-82546133D02*
X87273810Y-82450895D01*
X87273810Y-82450895D02*
X87321429Y-82355657D01*
X87321429Y-82355657D02*
X87369048Y-82308038D01*
X87369048Y-82308038D02*
X87464286Y-82260419D01*
X87464286Y-82260419D02*
X87702381Y-82260419D01*
X87702381Y-82260419D02*
X87845238Y-82308038D01*
X88273810Y-82879466D02*
X89035715Y-82879466D01*
X89416667Y-82260419D02*
X90035714Y-82260419D01*
X90035714Y-82260419D02*
X89702381Y-82641371D01*
X89702381Y-82641371D02*
X89845238Y-82641371D01*
X89845238Y-82641371D02*
X89940476Y-82688990D01*
X89940476Y-82688990D02*
X89988095Y-82736609D01*
X89988095Y-82736609D02*
X90035714Y-82831847D01*
X90035714Y-82831847D02*
X90035714Y-83069942D01*
X90035714Y-83069942D02*
X89988095Y-83165180D01*
X89988095Y-83165180D02*
X89940476Y-83212800D01*
X89940476Y-83212800D02*
X89845238Y-83260419D01*
X89845238Y-83260419D02*
X89559524Y-83260419D01*
X89559524Y-83260419D02*
X89464286Y-83212800D01*
X89464286Y-83212800D02*
X89416667Y-83165180D01*
X90369048Y-82260419D02*
X90988095Y-82260419D01*
X90988095Y-82260419D02*
X90654762Y-82641371D01*
X90654762Y-82641371D02*
X90797619Y-82641371D01*
X90797619Y-82641371D02*
X90892857Y-82688990D01*
X90892857Y-82688990D02*
X90940476Y-82736609D01*
X90940476Y-82736609D02*
X90988095Y-82831847D01*
X90988095Y-82831847D02*
X90988095Y-83069942D01*
X90988095Y-83069942D02*
X90940476Y-83165180D01*
X90940476Y-83165180D02*
X90892857Y-83212800D01*
X90892857Y-83212800D02*
X90797619Y-83260419D01*
X90797619Y-83260419D02*
X90511905Y-83260419D01*
X90511905Y-83260419D02*
X90416667Y-83212800D01*
X90416667Y-83212800D02*
X90369048Y-83165180D01*
X91416667Y-82879466D02*
X92178572Y-82879466D01*
X93178571Y-83260419D02*
X92607143Y-83260419D01*
X92892857Y-83260419D02*
X92892857Y-82260419D01*
X92892857Y-82260419D02*
X92797619Y-82403276D01*
X92797619Y-82403276D02*
X92702381Y-82498514D01*
X92702381Y-82498514D02*
X92607143Y-82546133D01*
X93607143Y-82260419D02*
X93607143Y-83069942D01*
X93607143Y-83069942D02*
X93654762Y-83165180D01*
X93654762Y-83165180D02*
X93702381Y-83212800D01*
X93702381Y-83212800D02*
X93797619Y-83260419D01*
X93797619Y-83260419D02*
X93988095Y-83260419D01*
X93988095Y-83260419D02*
X94083333Y-83212800D01*
X94083333Y-83212800D02*
X94130952Y-83165180D01*
X94130952Y-83165180D02*
X94178571Y-83069942D01*
X94178571Y-83069942D02*
X94178571Y-82260419D01*
X110071429Y-26260419D02*
X110071429Y-25260419D01*
X110642857Y-26260419D02*
X110214286Y-25688990D01*
X110642857Y-25260419D02*
X110071429Y-25831847D01*
X111023810Y-26212800D02*
X111166667Y-26260419D01*
X111166667Y-26260419D02*
X111404762Y-26260419D01*
X111404762Y-26260419D02*
X111500000Y-26212800D01*
X111500000Y-26212800D02*
X111547619Y-26165180D01*
X111547619Y-26165180D02*
X111595238Y-26069942D01*
X111595238Y-26069942D02*
X111595238Y-25974704D01*
X111595238Y-25974704D02*
X111547619Y-25879466D01*
X111547619Y-25879466D02*
X111500000Y-25831847D01*
X111500000Y-25831847D02*
X111404762Y-25784228D01*
X111404762Y-25784228D02*
X111214286Y-25736609D01*
X111214286Y-25736609D02*
X111119048Y-25688990D01*
X111119048Y-25688990D02*
X111071429Y-25641371D01*
X111071429Y-25641371D02*
X111023810Y-25546133D01*
X111023810Y-25546133D02*
X111023810Y-25450895D01*
X111023810Y-25450895D02*
X111071429Y-25355657D01*
X111071429Y-25355657D02*
X111119048Y-25308038D01*
X111119048Y-25308038D02*
X111214286Y-25260419D01*
X111214286Y-25260419D02*
X111452381Y-25260419D01*
X111452381Y-25260419D02*
X111595238Y-25308038D01*
X112023810Y-25879466D02*
X112785715Y-25879466D01*
X113166667Y-25260419D02*
X113785714Y-25260419D01*
X113785714Y-25260419D02*
X113452381Y-25641371D01*
X113452381Y-25641371D02*
X113595238Y-25641371D01*
X113595238Y-25641371D02*
X113690476Y-25688990D01*
X113690476Y-25688990D02*
X113738095Y-25736609D01*
X113738095Y-25736609D02*
X113785714Y-25831847D01*
X113785714Y-25831847D02*
X113785714Y-26069942D01*
X113785714Y-26069942D02*
X113738095Y-26165180D01*
X113738095Y-26165180D02*
X113690476Y-26212800D01*
X113690476Y-26212800D02*
X113595238Y-26260419D01*
X113595238Y-26260419D02*
X113309524Y-26260419D01*
X113309524Y-26260419D02*
X113214286Y-26212800D01*
X113214286Y-26212800D02*
X113166667Y-26165180D01*
X114119048Y-25260419D02*
X114738095Y-25260419D01*
X114738095Y-25260419D02*
X114404762Y-25641371D01*
X114404762Y-25641371D02*
X114547619Y-25641371D01*
X114547619Y-25641371D02*
X114642857Y-25688990D01*
X114642857Y-25688990D02*
X114690476Y-25736609D01*
X114690476Y-25736609D02*
X114738095Y-25831847D01*
X114738095Y-25831847D02*
X114738095Y-26069942D01*
X114738095Y-26069942D02*
X114690476Y-26165180D01*
X114690476Y-26165180D02*
X114642857Y-26212800D01*
X114642857Y-26212800D02*
X114547619Y-26260419D01*
X114547619Y-26260419D02*
X114261905Y-26260419D01*
X114261905Y-26260419D02*
X114166667Y-26212800D01*
X114166667Y-26212800D02*
X114119048Y-26165180D01*
X115166667Y-25879466D02*
X115928572Y-25879466D01*
X116928571Y-26260419D02*
X116357143Y-26260419D01*
X116642857Y-26260419D02*
X116642857Y-25260419D01*
X116642857Y-25260419D02*
X116547619Y-25403276D01*
X116547619Y-25403276D02*
X116452381Y-25498514D01*
X116452381Y-25498514D02*
X116357143Y-25546133D01*
X117357143Y-25260419D02*
X117357143Y-26069942D01*
X117357143Y-26069942D02*
X117404762Y-26165180D01*
X117404762Y-26165180D02*
X117452381Y-26212800D01*
X117452381Y-26212800D02*
X117547619Y-26260419D01*
X117547619Y-26260419D02*
X117738095Y-26260419D01*
X117738095Y-26260419D02*
X117833333Y-26212800D01*
X117833333Y-26212800D02*
X117880952Y-26165180D01*
X117880952Y-26165180D02*
X117928571Y-26069942D01*
X117928571Y-26069942D02*
X117928571Y-25260419D01*
X190821429Y-83260419D02*
X190821429Y-82260419D01*
X191392857Y-83260419D02*
X190964286Y-82688990D01*
X191392857Y-82260419D02*
X190821429Y-82831847D01*
X191773810Y-83212800D02*
X191916667Y-83260419D01*
X191916667Y-83260419D02*
X192154762Y-83260419D01*
X192154762Y-83260419D02*
X192250000Y-83212800D01*
X192250000Y-83212800D02*
X192297619Y-83165180D01*
X192297619Y-83165180D02*
X192345238Y-83069942D01*
X192345238Y-83069942D02*
X192345238Y-82974704D01*
X192345238Y-82974704D02*
X192297619Y-82879466D01*
X192297619Y-82879466D02*
X192250000Y-82831847D01*
X192250000Y-82831847D02*
X192154762Y-82784228D01*
X192154762Y-82784228D02*
X191964286Y-82736609D01*
X191964286Y-82736609D02*
X191869048Y-82688990D01*
X191869048Y-82688990D02*
X191821429Y-82641371D01*
X191821429Y-82641371D02*
X191773810Y-82546133D01*
X191773810Y-82546133D02*
X191773810Y-82450895D01*
X191773810Y-82450895D02*
X191821429Y-82355657D01*
X191821429Y-82355657D02*
X191869048Y-82308038D01*
X191869048Y-82308038D02*
X191964286Y-82260419D01*
X191964286Y-82260419D02*
X192202381Y-82260419D01*
X192202381Y-82260419D02*
X192345238Y-82308038D01*
X192773810Y-82879466D02*
X193535715Y-82879466D01*
X193916667Y-82260419D02*
X194535714Y-82260419D01*
X194535714Y-82260419D02*
X194202381Y-82641371D01*
X194202381Y-82641371D02*
X194345238Y-82641371D01*
X194345238Y-82641371D02*
X194440476Y-82688990D01*
X194440476Y-82688990D02*
X194488095Y-82736609D01*
X194488095Y-82736609D02*
X194535714Y-82831847D01*
X194535714Y-82831847D02*
X194535714Y-83069942D01*
X194535714Y-83069942D02*
X194488095Y-83165180D01*
X194488095Y-83165180D02*
X194440476Y-83212800D01*
X194440476Y-83212800D02*
X194345238Y-83260419D01*
X194345238Y-83260419D02*
X194059524Y-83260419D01*
X194059524Y-83260419D02*
X193964286Y-83212800D01*
X193964286Y-83212800D02*
X193916667Y-83165180D01*
X194869048Y-82260419D02*
X195488095Y-82260419D01*
X195488095Y-82260419D02*
X195154762Y-82641371D01*
X195154762Y-82641371D02*
X195297619Y-82641371D01*
X195297619Y-82641371D02*
X195392857Y-82688990D01*
X195392857Y-82688990D02*
X195440476Y-82736609D01*
X195440476Y-82736609D02*
X195488095Y-82831847D01*
X195488095Y-82831847D02*
X195488095Y-83069942D01*
X195488095Y-83069942D02*
X195440476Y-83165180D01*
X195440476Y-83165180D02*
X195392857Y-83212800D01*
X195392857Y-83212800D02*
X195297619Y-83260419D01*
X195297619Y-83260419D02*
X195011905Y-83260419D01*
X195011905Y-83260419D02*
X194916667Y-83212800D01*
X194916667Y-83212800D02*
X194869048Y-83165180D01*
X195916667Y-82879466D02*
X196678572Y-82879466D01*
X197678571Y-83260419D02*
X197107143Y-83260419D01*
X197392857Y-83260419D02*
X197392857Y-82260419D01*
X197392857Y-82260419D02*
X197297619Y-82403276D01*
X197297619Y-82403276D02*
X197202381Y-82498514D01*
X197202381Y-82498514D02*
X197107143Y-82546133D01*
X198107143Y-82260419D02*
X198107143Y-83069942D01*
X198107143Y-83069942D02*
X198154762Y-83165180D01*
X198154762Y-83165180D02*
X198202381Y-83212800D01*
X198202381Y-83212800D02*
X198297619Y-83260419D01*
X198297619Y-83260419D02*
X198488095Y-83260419D01*
X198488095Y-83260419D02*
X198583333Y-83212800D01*
X198583333Y-83212800D02*
X198630952Y-83165180D01*
X198630952Y-83165180D02*
X198678571Y-83069942D01*
X198678571Y-83069942D02*
X198678571Y-82260419D01*
%TO.C,A17*%
X111750000Y-45500000D02*
X111750000Y-59500000D01*
X111750000Y-45500000D02*
X117250000Y-45500000D01*
X111750000Y-59500000D02*
X115750000Y-59500000D01*
X125750000Y-45500000D02*
X121750000Y-45500000D01*
X125750000Y-45500000D02*
X125750000Y-59500000D01*
X125750000Y-59500000D02*
X122750000Y-59500000D01*
%TO.C,A2*%
X50000000Y-26500000D02*
X50000000Y-40500000D01*
X50000000Y-26500000D02*
X55500000Y-26500000D01*
X50000000Y-40500000D02*
X54000000Y-40500000D01*
X64000000Y-26500000D02*
X60000000Y-26500000D01*
X64000000Y-26500000D02*
X64000000Y-40500000D01*
X64000000Y-40500000D02*
X61000000Y-40500000D01*
%TO.C,A29*%
X140250000Y-64500000D02*
X140250000Y-78500000D01*
X140250000Y-64500000D02*
X145750000Y-64500000D01*
X140250000Y-78500000D02*
X144250000Y-78500000D01*
X154250000Y-64500000D02*
X150250000Y-64500000D01*
X154250000Y-64500000D02*
X154250000Y-78500000D01*
X154250000Y-78500000D02*
X151250000Y-78500000D01*
%TO.C,A15*%
X73750000Y-45500000D02*
X73750000Y-59500000D01*
X73750000Y-45500000D02*
X79250000Y-45500000D01*
X73750000Y-59500000D02*
X77750000Y-59500000D01*
X87750000Y-45500000D02*
X83750000Y-45500000D01*
X87750000Y-45500000D02*
X87750000Y-59500000D01*
X87750000Y-59500000D02*
X84750000Y-59500000D01*
%TO.C,A38*%
X164000000Y-83500000D02*
X164000000Y-97500000D01*
X164000000Y-83500000D02*
X169500000Y-83500000D01*
X164000000Y-97500000D02*
X168000000Y-97500000D01*
X178000000Y-83500000D02*
X174000000Y-83500000D01*
X178000000Y-83500000D02*
X178000000Y-97500000D01*
X178000000Y-97500000D02*
X175000000Y-97500000D01*
%TO.C,A33*%
X225750000Y-64500000D02*
X225750000Y-78500000D01*
X225750000Y-64500000D02*
X231250000Y-64500000D01*
X225750000Y-78500000D02*
X229750000Y-78500000D01*
X239750000Y-64500000D02*
X235750000Y-64500000D01*
X239750000Y-64500000D02*
X239750000Y-78500000D01*
X239750000Y-78500000D02*
X236750000Y-78500000D01*
%TO.C,A13*%
X35750000Y-45500000D02*
X35750000Y-59500000D01*
X35750000Y-45500000D02*
X41250000Y-45500000D01*
X35750000Y-59500000D02*
X39750000Y-59500000D01*
X49750000Y-45500000D02*
X45750000Y-45500000D01*
X49750000Y-45500000D02*
X49750000Y-59500000D01*
X49750000Y-59500000D02*
X46750000Y-59500000D01*
%TO.C,A28*%
X121250000Y-64500000D02*
X121250000Y-78500000D01*
X121250000Y-64500000D02*
X126750000Y-64500000D01*
X121250000Y-78500000D02*
X125250000Y-78500000D01*
X135250000Y-64500000D02*
X131250000Y-64500000D01*
X135250000Y-64500000D02*
X135250000Y-78500000D01*
X135250000Y-78500000D02*
X132250000Y-78500000D01*
%TO.C,A4*%
X88000000Y-26500000D02*
X88000000Y-40500000D01*
X88000000Y-26500000D02*
X93500000Y-26500000D01*
X88000000Y-40500000D02*
X92000000Y-40500000D01*
X102000000Y-26500000D02*
X98000000Y-26500000D01*
X102000000Y-26500000D02*
X102000000Y-40500000D01*
X102000000Y-40500000D02*
X99000000Y-40500000D01*
%TO.C,A22*%
X206750000Y-45500000D02*
X206750000Y-59500000D01*
X206750000Y-45500000D02*
X212250000Y-45500000D01*
X206750000Y-59500000D02*
X210750000Y-59500000D01*
X220750000Y-45500000D02*
X216750000Y-45500000D01*
X220750000Y-45500000D02*
X220750000Y-59500000D01*
X220750000Y-59500000D02*
X217750000Y-59500000D01*
%TO.C,A30*%
X159250000Y-64500000D02*
X159250000Y-78500000D01*
X159250000Y-64500000D02*
X164750000Y-64500000D01*
X159250000Y-78500000D02*
X163250000Y-78500000D01*
X173250000Y-64500000D02*
X169250000Y-64500000D01*
X173250000Y-64500000D02*
X173250000Y-78500000D01*
X173250000Y-78500000D02*
X170250000Y-78500000D01*
%TO.C,A7*%
X145000000Y-26500000D02*
X145000000Y-40500000D01*
X145000000Y-26500000D02*
X150500000Y-26500000D01*
X145000000Y-40500000D02*
X149000000Y-40500000D01*
X159000000Y-26500000D02*
X155000000Y-26500000D01*
X159000000Y-26500000D02*
X159000000Y-40500000D01*
X159000000Y-40500000D02*
X156000000Y-40500000D01*
%TO.C,A14*%
X54750000Y-45500000D02*
X54750000Y-59500000D01*
X54750000Y-45500000D02*
X60250000Y-45500000D01*
X54750000Y-59500000D02*
X58750000Y-59500000D01*
X68750000Y-45500000D02*
X64750000Y-45500000D01*
X68750000Y-45500000D02*
X68750000Y-59500000D01*
X68750000Y-59500000D02*
X65750000Y-59500000D01*
%TO.C,A16*%
X92750000Y-45500000D02*
X92750000Y-59500000D01*
X92750000Y-45500000D02*
X98250000Y-45500000D01*
X92750000Y-59500000D02*
X96750000Y-59500000D01*
X106750000Y-45500000D02*
X102750000Y-45500000D01*
X106750000Y-45500000D02*
X106750000Y-59500000D01*
X106750000Y-59500000D02*
X103750000Y-59500000D01*
%TO.C,A36*%
X107000000Y-83500000D02*
X107000000Y-97500000D01*
X107000000Y-83500000D02*
X112500000Y-83500000D01*
X107000000Y-97500000D02*
X111000000Y-97500000D01*
X121000000Y-83500000D02*
X117000000Y-83500000D01*
X121000000Y-83500000D02*
X121000000Y-97500000D01*
X121000000Y-97500000D02*
X118000000Y-97500000D01*
%TO.C,A11*%
X221000000Y-26500000D02*
X221000000Y-40500000D01*
X221000000Y-26500000D02*
X226500000Y-26500000D01*
X221000000Y-40500000D02*
X225000000Y-40500000D01*
X235000000Y-26500000D02*
X231000000Y-26500000D01*
X235000000Y-26500000D02*
X235000000Y-40500000D01*
X235000000Y-40500000D02*
X232000000Y-40500000D01*
%TO.C,A21*%
X187750000Y-45500000D02*
X187750000Y-59500000D01*
X187750000Y-45500000D02*
X193250000Y-45500000D01*
X187750000Y-59500000D02*
X191750000Y-59500000D01*
X201750000Y-45500000D02*
X197750000Y-45500000D01*
X201750000Y-45500000D02*
X201750000Y-59500000D01*
X201750000Y-59500000D02*
X198750000Y-59500000D01*
%TO.C,A23*%
X235250000Y-45500000D02*
X235250000Y-59500000D01*
X235250000Y-45500000D02*
X240750000Y-45500000D01*
X235250000Y-59500000D02*
X239250000Y-59500000D01*
X249250000Y-45500000D02*
X245250000Y-45500000D01*
X249250000Y-45500000D02*
X249250000Y-59500000D01*
X249250000Y-59500000D02*
X246250000Y-59500000D01*
%TO.C,A10*%
X202000000Y-26500000D02*
X202000000Y-40500000D01*
X202000000Y-26500000D02*
X207500000Y-26500000D01*
X202000000Y-40500000D02*
X206000000Y-40500000D01*
X216000000Y-26500000D02*
X212000000Y-26500000D01*
X216000000Y-26500000D02*
X216000000Y-40500000D01*
X216000000Y-40500000D02*
X213000000Y-40500000D01*
%TO.C,A12*%
X240000000Y-26500000D02*
X240000000Y-40500000D01*
X240000000Y-26500000D02*
X245500000Y-26500000D01*
X240000000Y-40500000D02*
X244000000Y-40500000D01*
X254000000Y-26500000D02*
X250000000Y-26500000D01*
X254000000Y-26500000D02*
X254000000Y-40500000D01*
X254000000Y-40500000D02*
X251000000Y-40500000D01*
%TO.C,A40*%
X211500000Y-83500000D02*
X211500000Y-97500000D01*
X211500000Y-83500000D02*
X217000000Y-83500000D01*
X211500000Y-97500000D02*
X215500000Y-97500000D01*
X225500000Y-83500000D02*
X221500000Y-83500000D01*
X225500000Y-83500000D02*
X225500000Y-97500000D01*
X225500000Y-97500000D02*
X222500000Y-97500000D01*
%TO.C,A34*%
X59500000Y-83500000D02*
X59500000Y-97500000D01*
X59500000Y-83500000D02*
X65000000Y-83500000D01*
X59500000Y-97500000D02*
X63500000Y-97500000D01*
X73500000Y-83500000D02*
X69500000Y-83500000D01*
X73500000Y-83500000D02*
X73500000Y-97500000D01*
X73500000Y-97500000D02*
X70500000Y-97500000D01*
%TO.C,A26*%
X83250000Y-64500000D02*
X83250000Y-78500000D01*
X83250000Y-64500000D02*
X88750000Y-64500000D01*
X83250000Y-78500000D02*
X87250000Y-78500000D01*
X97250000Y-64500000D02*
X93250000Y-64500000D01*
X97250000Y-64500000D02*
X97250000Y-78500000D01*
X97250000Y-78500000D02*
X94250000Y-78500000D01*
%TO.C,A9*%
X183000000Y-26500000D02*
X183000000Y-40500000D01*
X183000000Y-26500000D02*
X188500000Y-26500000D01*
X183000000Y-40500000D02*
X187000000Y-40500000D01*
X197000000Y-26500000D02*
X193000000Y-26500000D01*
X197000000Y-26500000D02*
X197000000Y-40500000D01*
X197000000Y-40500000D02*
X194000000Y-40500000D01*
%TO.C,A6*%
X126000000Y-26500000D02*
X126000000Y-40500000D01*
X126000000Y-26500000D02*
X131500000Y-26500000D01*
X126000000Y-40500000D02*
X130000000Y-40500000D01*
X140000000Y-26500000D02*
X136000000Y-26500000D01*
X140000000Y-26500000D02*
X140000000Y-40500000D01*
X140000000Y-40500000D02*
X137000000Y-40500000D01*
%TO.C,A18*%
X130750000Y-45500000D02*
X130750000Y-59500000D01*
X130750000Y-45500000D02*
X136250000Y-45500000D01*
X130750000Y-59500000D02*
X134750000Y-59500000D01*
X144750000Y-45500000D02*
X140750000Y-45500000D01*
X144750000Y-45500000D02*
X144750000Y-59500000D01*
X144750000Y-59500000D02*
X141750000Y-59500000D01*
%TO.C,A27*%
X102250000Y-64500000D02*
X102250000Y-78500000D01*
X102250000Y-64500000D02*
X107750000Y-64500000D01*
X102250000Y-78500000D02*
X106250000Y-78500000D01*
X116250000Y-64500000D02*
X112250000Y-64500000D01*
X116250000Y-64500000D02*
X116250000Y-78500000D01*
X116250000Y-78500000D02*
X113250000Y-78500000D01*
%TO.C,A1*%
X31000000Y-26500000D02*
X31000000Y-40500000D01*
X31000000Y-26500000D02*
X36500000Y-26500000D01*
X31000000Y-40500000D02*
X35000000Y-40500000D01*
X45000000Y-26500000D02*
X41000000Y-26500000D01*
X45000000Y-26500000D02*
X45000000Y-40500000D01*
X45000000Y-40500000D02*
X42000000Y-40500000D01*
%TO.C,A37*%
X135500000Y-83500000D02*
X135500000Y-97500000D01*
X135500000Y-83500000D02*
X141000000Y-83500000D01*
X135500000Y-97500000D02*
X139500000Y-97500000D01*
X149500000Y-83500000D02*
X145500000Y-83500000D01*
X149500000Y-83500000D02*
X149500000Y-97500000D01*
X149500000Y-97500000D02*
X146500000Y-97500000D01*
%TO.C,A20*%
X168750000Y-45500000D02*
X168750000Y-59500000D01*
X168750000Y-45500000D02*
X174250000Y-45500000D01*
X168750000Y-59500000D02*
X172750000Y-59500000D01*
X182750000Y-45500000D02*
X178750000Y-45500000D01*
X182750000Y-45500000D02*
X182750000Y-59500000D01*
X182750000Y-59500000D02*
X179750000Y-59500000D01*
%TO.C,A19*%
X149750000Y-45500000D02*
X149750000Y-59500000D01*
X149750000Y-45500000D02*
X155250000Y-45500000D01*
X149750000Y-59500000D02*
X153750000Y-59500000D01*
X163750000Y-45500000D02*
X159750000Y-45500000D01*
X163750000Y-45500000D02*
X163750000Y-59500000D01*
X163750000Y-59500000D02*
X160750000Y-59500000D01*
%TO.C,A31*%
X178250000Y-64500000D02*
X178250000Y-78500000D01*
X178250000Y-64500000D02*
X183750000Y-64500000D01*
X178250000Y-78500000D02*
X182250000Y-78500000D01*
X192250000Y-64500000D02*
X188250000Y-64500000D01*
X192250000Y-64500000D02*
X192250000Y-78500000D01*
X192250000Y-78500000D02*
X189250000Y-78500000D01*
%TO.C,A24*%
X45250000Y-64500000D02*
X45250000Y-78500000D01*
X45250000Y-64500000D02*
X50750000Y-64500000D01*
X45250000Y-78500000D02*
X49250000Y-78500000D01*
X59250000Y-64500000D02*
X55250000Y-64500000D01*
X59250000Y-64500000D02*
X59250000Y-78500000D01*
X59250000Y-78500000D02*
X56250000Y-78500000D01*
%TO.C,A32*%
X202000000Y-64500000D02*
X202000000Y-78500000D01*
X202000000Y-64500000D02*
X207500000Y-64500000D01*
X202000000Y-78500000D02*
X206000000Y-78500000D01*
X216000000Y-64500000D02*
X212000000Y-64500000D01*
X216000000Y-64500000D02*
X216000000Y-78500000D01*
X216000000Y-78500000D02*
X213000000Y-78500000D01*
%TO.C,A8*%
X164000000Y-26500000D02*
X164000000Y-40500000D01*
X164000000Y-26500000D02*
X169500000Y-26500000D01*
X164000000Y-40500000D02*
X168000000Y-40500000D01*
X178000000Y-26500000D02*
X174000000Y-26500000D01*
X178000000Y-26500000D02*
X178000000Y-40500000D01*
X178000000Y-40500000D02*
X175000000Y-40500000D01*
%TO.C,A25*%
X64250000Y-64500000D02*
X64250000Y-78500000D01*
X64250000Y-64500000D02*
X69750000Y-64500000D01*
X64250000Y-78500000D02*
X68250000Y-78500000D01*
X78250000Y-64500000D02*
X74250000Y-64500000D01*
X78250000Y-64500000D02*
X78250000Y-78500000D01*
X78250000Y-78500000D02*
X75250000Y-78500000D01*
%TO.C,A3*%
X69000000Y-26500000D02*
X69000000Y-40500000D01*
X69000000Y-26500000D02*
X74500000Y-26500000D01*
X69000000Y-40500000D02*
X73000000Y-40500000D01*
X83000000Y-26500000D02*
X79000000Y-26500000D01*
X83000000Y-26500000D02*
X83000000Y-40500000D01*
X83000000Y-40500000D02*
X80000000Y-40500000D01*
%TO.C,A35*%
X83250000Y-83500000D02*
X83250000Y-97500000D01*
X83250000Y-83500000D02*
X88750000Y-83500000D01*
X83250000Y-97500000D02*
X87250000Y-97500000D01*
X97250000Y-83500000D02*
X93250000Y-83500000D01*
X97250000Y-83500000D02*
X97250000Y-97500000D01*
X97250000Y-97500000D02*
X94250000Y-97500000D01*
%TO.C,A5*%
X107000000Y-26500000D02*
X107000000Y-40500000D01*
X107000000Y-26500000D02*
X112500000Y-26500000D01*
X107000000Y-40500000D02*
X111000000Y-40500000D01*
X121000000Y-26500000D02*
X117000000Y-26500000D01*
X121000000Y-26500000D02*
X121000000Y-40500000D01*
X121000000Y-40500000D02*
X118000000Y-40500000D01*
%TO.C,A39*%
X187750000Y-83500000D02*
X187750000Y-97500000D01*
X187750000Y-83500000D02*
X193250000Y-83500000D01*
X187750000Y-97500000D02*
X191750000Y-97500000D01*
X201750000Y-83500000D02*
X197750000Y-83500000D01*
X201750000Y-83500000D02*
X201750000Y-97500000D01*
X201750000Y-97500000D02*
X198750000Y-97500000D01*
%TD*%
M02*
