M48
; DRILL file {KiCad 9.0.2} date 2025-06-04T21:45:54+0100
; FORMAT={-:-/ absolute / metric / decimal}
; #@! TF.CreationDate,2025-06-04T21:45:54+01:00
; #@! TF.GenerationSoftware,Kicad,Pcbnew,9.0.2
; #@! TF.FileFunction,NonPlated,1,2,NPTH
FMAT,2
METRIC
; #@! TA.AperFunction,NonPlated,NPTH,ComponentDrill
T1C2.000
; #@! TA.AperFunction,NonPlated,NPTH,ComponentDrill
T2C5.250
%
G90
G05
T1
X29.5Y-25.0
X29.5Y-99.0
X29.5Y-112.0
X29.5Y-186.0
X59.5Y-112.0
X59.5Y-126.0
X73.5Y-112.0
X73.5Y-126.0
X104.5Y-25.0
X104.5Y-99.0
X104.5Y-112.0
X104.5Y-185.75
X180.5Y-25.0
X180.5Y-99.0
X180.5Y-112.0
X180.5Y-186.0
X255.5Y-25.0
X255.5Y-99.0
X255.5Y-112.0
X255.5Y-186.0
T2
X38.0Y-33.5
X42.75Y-52.5
X52.25Y-71.5
X57.0Y-33.5
X61.75Y-52.5
X66.5Y-90.5
X71.25Y-71.5
X76.0Y-33.5
X80.75Y-52.5
X90.25Y-71.5
X90.25Y-90.5
X95.0Y-33.5
X99.75Y-52.5
X109.25Y-71.5
X114.0Y-33.5
X114.0Y-90.5
X118.75Y-52.5
X128.25Y-71.5
X133.0Y-33.5
X137.75Y-52.5
X142.5Y-90.5
X147.25Y-71.5
X152.0Y-33.5
X156.75Y-52.5
X166.25Y-71.5
X171.0Y-33.5
X171.0Y-90.5
X175.75Y-52.5
X185.25Y-71.5
X190.0Y-33.5
X194.75Y-52.5
X194.75Y-90.5
X209.0Y-33.5
X209.0Y-71.5
X213.75Y-52.5
X218.5Y-90.5
X228.0Y-33.5
X232.75Y-71.5
X242.25Y-52.5
X247.0Y-33.5
M30
