%TF.GenerationSoftware,KiCad,Pcbnew,9.0.2*%
%TF.CreationDate,2025-06-04T21:45:47+01:00*%
%TF.ProjectId,just-40-tiny,6a757374-2d34-4302-9d74-696e792e6b69,rev?*%
%TF.SameCoordinates,Original*%
%TF.FileFunction,Soldermask,Bot*%
%TF.FilePolarity,Negative*%
%FSLAX46Y46*%
G04 Gerber Fmt 4.6, Leading zero omitted, Abs format (unit mm)*
G04 Created by KiCad (PCBNEW 9.0.2) date 2025-06-04 21:45:47*
%MOMM*%
%LPD*%
G01*
G04 APERTURE LIST*
G04 Aperture macros list*
%AMRoundRect*
0 Rectangle with rounded corners*
0 $1 Rounding radius*
0 $2 $3 $4 $5 $6 $7 $8 $9 X,Y pos of 4 corners*
0 Add a 4 corners polygon primitive as box body*
4,1,4,$2,$3,$4,$5,$6,$7,$8,$9,$2,$3,0*
0 Add four circle primitives for the rounded corners*
1,1,$1+$1,$2,$3*
1,1,$1+$1,$4,$5*
1,1,$1+$1,$6,$7*
1,1,$1+$1,$8,$9*
0 Add four rect primitives between the rounded corners*
20,1,$1+$1,$2,$3,$4,$5,0*
20,1,$1+$1,$4,$5,$6,$7,0*
20,1,$1+$1,$6,$7,$8,$9,0*
20,1,$1+$1,$8,$9,$2,$3,0*%
G04 Aperture macros list end*
%ADD10C,5.250000*%
%ADD11R,1.300000X0.820000*%
%ADD12C,3.000000*%
%ADD13R,2.000000X1.400000*%
%ADD14RoundRect,0.180000X-0.420000X0.420000X-0.420000X-0.420000X0.420000X-0.420000X0.420000X0.420000X0*%
%ADD15R,1.200000X1.200000*%
%ADD16C,2.000000*%
%ADD17O,1.600000X3.000000*%
%ADD18O,3.000000X1.600000*%
G04 APERTURE END LIST*
D10*
%TO.C,A17*%
X118750000Y-52500000D03*
D11*
X122250000Y-46575000D03*
X122250000Y-48075000D03*
X116650000Y-48075000D03*
X116650000Y-46575000D03*
D12*
X114350000Y-57200000D03*
X121350000Y-58250000D03*
D13*
X124650000Y-50175000D03*
X124650000Y-46575000D03*
D14*
X125050000Y-58250000D03*
D15*
X125050000Y-55050000D03*
%TD*%
D10*
%TO.C,A2*%
X57000000Y-33500000D03*
D11*
X60500000Y-27575000D03*
X60500000Y-29075000D03*
X54900000Y-29075000D03*
X54900000Y-27575000D03*
D12*
X52600000Y-38200000D03*
X59600000Y-39250000D03*
D13*
X62900000Y-31175000D03*
X62900000Y-27575000D03*
D14*
X63300000Y-39250000D03*
D15*
X63300000Y-36050000D03*
%TD*%
D16*
%TO.C,H13*%
X104500000Y-112000000D03*
%TD*%
D10*
%TO.C,A29*%
X147250000Y-71500000D03*
D11*
X150750000Y-65575000D03*
X150750000Y-67075000D03*
X145150000Y-67075000D03*
X145150000Y-65575000D03*
D12*
X142850000Y-76200000D03*
X149850000Y-77250000D03*
D13*
X153150000Y-69175000D03*
X153150000Y-65575000D03*
D14*
X153550000Y-77250000D03*
D15*
X153550000Y-74050000D03*
%TD*%
D10*
%TO.C,A15*%
X80750000Y-52500000D03*
D11*
X84250000Y-46575000D03*
X84250000Y-48075000D03*
X78650000Y-48075000D03*
X78650000Y-46575000D03*
D12*
X76350000Y-57200000D03*
X83350000Y-58250000D03*
D13*
X86650000Y-50175000D03*
X86650000Y-46575000D03*
D14*
X87050000Y-58250000D03*
D15*
X87050000Y-55050000D03*
%TD*%
D10*
%TO.C,A38*%
X171000000Y-90500000D03*
D11*
X174500000Y-84575000D03*
X174500000Y-86075000D03*
X168900000Y-86075000D03*
X168900000Y-84575000D03*
D12*
X166600000Y-95200000D03*
X173600000Y-96250000D03*
D13*
X176900000Y-88175000D03*
X176900000Y-84575000D03*
D14*
X177300000Y-96250000D03*
D15*
X177300000Y-93050000D03*
%TD*%
D16*
%TO.C,H21*%
X255500000Y-186000000D03*
%TD*%
D10*
%TO.C,A33*%
X232750000Y-71500000D03*
D11*
X236250000Y-65575000D03*
X236250000Y-67075000D03*
X230650000Y-67075000D03*
X230650000Y-65575000D03*
D12*
X228350000Y-76200000D03*
X235350000Y-77250000D03*
D13*
X238650000Y-69175000D03*
X238650000Y-65575000D03*
D14*
X239050000Y-77250000D03*
D15*
X239050000Y-74050000D03*
%TD*%
D10*
%TO.C,A13*%
X42750000Y-52500000D03*
D11*
X46250000Y-46575000D03*
X46250000Y-48075000D03*
X40650000Y-48075000D03*
X40650000Y-46575000D03*
D12*
X38350000Y-57200000D03*
X45350000Y-58250000D03*
D13*
X48650000Y-50175000D03*
X48650000Y-46575000D03*
D14*
X49050000Y-58250000D03*
D15*
X49050000Y-55050000D03*
%TD*%
D10*
%TO.C,A28*%
X128250000Y-71500000D03*
D11*
X131750000Y-65575000D03*
X131750000Y-67075000D03*
X126150000Y-67075000D03*
X126150000Y-65575000D03*
D12*
X123850000Y-76200000D03*
X130850000Y-77250000D03*
D13*
X134150000Y-69175000D03*
X134150000Y-65575000D03*
D14*
X134550000Y-77250000D03*
D15*
X134550000Y-74050000D03*
%TD*%
D10*
%TO.C,A4*%
X95000000Y-33500000D03*
D11*
X98500000Y-27575000D03*
X98500000Y-29075000D03*
X92900000Y-29075000D03*
X92900000Y-27575000D03*
D12*
X90600000Y-38200000D03*
X97600000Y-39250000D03*
D13*
X100900000Y-31175000D03*
X100900000Y-27575000D03*
D14*
X101300000Y-39250000D03*
D15*
X101300000Y-36050000D03*
%TD*%
D16*
%TO.C,H10*%
X29500000Y-112000000D03*
%TD*%
%TO.C,H5*%
X255500000Y-25000000D03*
%TD*%
%TO.C,H14*%
X180500000Y-112000000D03*
%TD*%
%TO.C,H15*%
X255500000Y-112000000D03*
%TD*%
D10*
%TO.C,A22*%
X213750000Y-52500000D03*
D11*
X217250000Y-46575000D03*
X217250000Y-48075000D03*
X211650000Y-48075000D03*
X211650000Y-46575000D03*
D12*
X209350000Y-57200000D03*
X216350000Y-58250000D03*
D13*
X219650000Y-50175000D03*
X219650000Y-46575000D03*
D14*
X220050000Y-58250000D03*
D15*
X220050000Y-55050000D03*
%TD*%
D10*
%TO.C,A30*%
X166250000Y-71500000D03*
D11*
X169750000Y-65575000D03*
X169750000Y-67075000D03*
X164150000Y-67075000D03*
X164150000Y-65575000D03*
D12*
X161850000Y-76200000D03*
X168850000Y-77250000D03*
D13*
X172150000Y-69175000D03*
X172150000Y-65575000D03*
D14*
X172550000Y-77250000D03*
D15*
X172550000Y-74050000D03*
%TD*%
D16*
%TO.C,H8*%
X180500000Y-99000000D03*
%TD*%
D10*
%TO.C,A7*%
X152000000Y-33500000D03*
D11*
X155500000Y-27575000D03*
X155500000Y-29075000D03*
X149900000Y-29075000D03*
X149900000Y-27575000D03*
D12*
X147600000Y-38200000D03*
X154600000Y-39250000D03*
D13*
X157900000Y-31175000D03*
X157900000Y-27575000D03*
D14*
X158300000Y-39250000D03*
D15*
X158300000Y-36050000D03*
%TD*%
D10*
%TO.C,A14*%
X61750000Y-52500000D03*
D11*
X65250000Y-46575000D03*
X65250000Y-48075000D03*
X59650000Y-48075000D03*
X59650000Y-46575000D03*
D12*
X57350000Y-57200000D03*
X64350000Y-58250000D03*
D13*
X67650000Y-50175000D03*
X67650000Y-46575000D03*
D14*
X68050000Y-58250000D03*
D15*
X68050000Y-55050000D03*
%TD*%
D10*
%TO.C,A16*%
X99750000Y-52500000D03*
D11*
X103250000Y-46575000D03*
X103250000Y-48075000D03*
X97650000Y-48075000D03*
X97650000Y-46575000D03*
D12*
X95350000Y-57200000D03*
X102350000Y-58250000D03*
D13*
X105650000Y-50175000D03*
X105650000Y-46575000D03*
D14*
X106050000Y-58250000D03*
D15*
X106050000Y-55050000D03*
%TD*%
D10*
%TO.C,A36*%
X114000000Y-90500000D03*
D11*
X117500000Y-84575000D03*
X117500000Y-86075000D03*
X111900000Y-86075000D03*
X111900000Y-84575000D03*
D12*
X109600000Y-95200000D03*
X116600000Y-96250000D03*
D13*
X119900000Y-88175000D03*
X119900000Y-84575000D03*
D14*
X120300000Y-96250000D03*
D15*
X120300000Y-93050000D03*
%TD*%
D10*
%TO.C,A11*%
X228000000Y-33500000D03*
D11*
X231500000Y-27575000D03*
X231500000Y-29075000D03*
X225900000Y-29075000D03*
X225900000Y-27575000D03*
D12*
X223600000Y-38200000D03*
X230600000Y-39250000D03*
D13*
X233900000Y-31175000D03*
X233900000Y-27575000D03*
D14*
X234300000Y-39250000D03*
D15*
X234300000Y-36050000D03*
%TD*%
D16*
%TO.C,H17*%
X73500000Y-126000000D03*
%TD*%
D10*
%TO.C,A21*%
X194750000Y-52500000D03*
D11*
X198250000Y-46575000D03*
X198250000Y-48075000D03*
X192650000Y-48075000D03*
X192650000Y-46575000D03*
D12*
X190350000Y-57200000D03*
X197350000Y-58250000D03*
D13*
X200650000Y-50175000D03*
X200650000Y-46575000D03*
D14*
X201050000Y-58250000D03*
D15*
X201050000Y-55050000D03*
%TD*%
D10*
%TO.C,A23*%
X242250000Y-52500000D03*
D11*
X245750000Y-46575000D03*
X245750000Y-48075000D03*
X240150000Y-48075000D03*
X240150000Y-46575000D03*
D12*
X237850000Y-57200000D03*
X244850000Y-58250000D03*
D13*
X248150000Y-50175000D03*
X248150000Y-46575000D03*
D14*
X248550000Y-58250000D03*
D15*
X248550000Y-55050000D03*
%TD*%
D10*
%TO.C,A10*%
X209000000Y-33500000D03*
D11*
X212500000Y-27575000D03*
X212500000Y-29075000D03*
X206900000Y-29075000D03*
X206900000Y-27575000D03*
D12*
X204600000Y-38200000D03*
X211600000Y-39250000D03*
D13*
X214900000Y-31175000D03*
X214900000Y-27575000D03*
D14*
X215300000Y-39250000D03*
D15*
X215300000Y-36050000D03*
%TD*%
D10*
%TO.C,A12*%
X247000000Y-33500000D03*
D11*
X250500000Y-27575000D03*
X250500000Y-29075000D03*
X244900000Y-29075000D03*
X244900000Y-27575000D03*
D12*
X242600000Y-38200000D03*
X249600000Y-39250000D03*
D13*
X252900000Y-31175000D03*
X252900000Y-27575000D03*
D14*
X253300000Y-39250000D03*
D15*
X253300000Y-36050000D03*
%TD*%
D10*
%TO.C,A40*%
X218500000Y-90500000D03*
D11*
X222000000Y-84575000D03*
X222000000Y-86075000D03*
X216400000Y-86075000D03*
X216400000Y-84575000D03*
D12*
X214100000Y-95200000D03*
X221100000Y-96250000D03*
D13*
X224400000Y-88175000D03*
X224400000Y-84575000D03*
D14*
X224800000Y-96250000D03*
D15*
X224800000Y-93050000D03*
%TD*%
D16*
%TO.C,H7*%
X104500000Y-99000000D03*
%TD*%
D10*
%TO.C,A34*%
X66500000Y-90500000D03*
D11*
X70000000Y-84575000D03*
X70000000Y-86075000D03*
X64400000Y-86075000D03*
X64400000Y-84575000D03*
D12*
X62100000Y-95200000D03*
X69100000Y-96250000D03*
D13*
X72400000Y-88175000D03*
X72400000Y-84575000D03*
D14*
X72800000Y-96250000D03*
D15*
X72800000Y-93050000D03*
%TD*%
D10*
%TO.C,A26*%
X90250000Y-71500000D03*
D11*
X93750000Y-65575000D03*
X93750000Y-67075000D03*
X88150000Y-67075000D03*
X88150000Y-65575000D03*
D12*
X85850000Y-76200000D03*
X92850000Y-77250000D03*
D13*
X96150000Y-69175000D03*
X96150000Y-65575000D03*
D14*
X96550000Y-77250000D03*
D15*
X96550000Y-74050000D03*
%TD*%
D10*
%TO.C,A9*%
X190000000Y-33500000D03*
D11*
X193500000Y-27575000D03*
X193500000Y-29075000D03*
X187900000Y-29075000D03*
X187900000Y-27575000D03*
D12*
X185600000Y-38200000D03*
X192600000Y-39250000D03*
D13*
X195900000Y-31175000D03*
X195900000Y-27575000D03*
D14*
X196300000Y-39250000D03*
D15*
X196300000Y-36050000D03*
%TD*%
D16*
%TO.C,H12*%
X73500000Y-112000000D03*
%TD*%
D10*
%TO.C,A6*%
X133000000Y-33500000D03*
D11*
X136500000Y-27575000D03*
X136500000Y-29075000D03*
X130900000Y-29075000D03*
X130900000Y-27575000D03*
D12*
X128600000Y-38200000D03*
X135600000Y-39250000D03*
D13*
X138900000Y-31175000D03*
X138900000Y-27575000D03*
D14*
X139300000Y-39250000D03*
D15*
X139300000Y-36050000D03*
%TD*%
D10*
%TO.C,A18*%
X137750000Y-52500000D03*
D11*
X141250000Y-46575000D03*
X141250000Y-48075000D03*
X135650000Y-48075000D03*
X135650000Y-46575000D03*
D12*
X133350000Y-57200000D03*
X140350000Y-58250000D03*
D13*
X143650000Y-50175000D03*
X143650000Y-46575000D03*
D14*
X144050000Y-58250000D03*
D15*
X144050000Y-55050000D03*
%TD*%
D17*
%TO.C,A41*%
X54410000Y-82190000D03*
X51870000Y-82190000D03*
X49330000Y-82190000D03*
X46790000Y-82190000D03*
X49330000Y-98810000D03*
X44250000Y-82190000D03*
X41710000Y-82190000D03*
X54410000Y-98810000D03*
X39170000Y-82190000D03*
X36630000Y-82190000D03*
X34090000Y-82190000D03*
D18*
X33400000Y-85420000D03*
X33400000Y-87960000D03*
X33400000Y-90500000D03*
X33400000Y-93040000D03*
X33400000Y-95580000D03*
D17*
X34090000Y-98810000D03*
X36630000Y-98810000D03*
X39170000Y-98810000D03*
X41710000Y-98810000D03*
X44250000Y-98810000D03*
X46790000Y-98810000D03*
X51870000Y-98810000D03*
%TD*%
D10*
%TO.C,A27*%
X109250000Y-71500000D03*
D11*
X112750000Y-65575000D03*
X112750000Y-67075000D03*
X107150000Y-67075000D03*
X107150000Y-65575000D03*
D12*
X104850000Y-76200000D03*
X111850000Y-77250000D03*
D13*
X115150000Y-69175000D03*
X115150000Y-65575000D03*
D14*
X115550000Y-77250000D03*
D15*
X115550000Y-74050000D03*
%TD*%
D10*
%TO.C,A1*%
X38000000Y-33500000D03*
D11*
X41500000Y-27575000D03*
X41500000Y-29075000D03*
X35900000Y-29075000D03*
X35900000Y-27575000D03*
D12*
X33600000Y-38200000D03*
X40600000Y-39250000D03*
D13*
X43900000Y-31175000D03*
X43900000Y-27575000D03*
D14*
X44300000Y-39250000D03*
D15*
X44300000Y-36050000D03*
%TD*%
D10*
%TO.C,A37*%
X142500000Y-90500000D03*
D11*
X146000000Y-84575000D03*
X146000000Y-86075000D03*
X140400000Y-86075000D03*
X140400000Y-84575000D03*
D12*
X138100000Y-95200000D03*
X145100000Y-96250000D03*
D13*
X148400000Y-88175000D03*
X148400000Y-84575000D03*
D14*
X148800000Y-96250000D03*
D15*
X148800000Y-93050000D03*
%TD*%
D10*
%TO.C,A20*%
X175750000Y-52500000D03*
D11*
X179250000Y-46575000D03*
X179250000Y-48075000D03*
X173650000Y-48075000D03*
X173650000Y-46575000D03*
D12*
X171350000Y-57200000D03*
X178350000Y-58250000D03*
D13*
X181650000Y-50175000D03*
X181650000Y-46575000D03*
D14*
X182050000Y-58250000D03*
D15*
X182050000Y-55050000D03*
%TD*%
D16*
%TO.C,H3*%
X104500000Y-25000000D03*
%TD*%
D10*
%TO.C,A19*%
X156750000Y-52500000D03*
D11*
X160250000Y-46575000D03*
X160250000Y-48075000D03*
X154650000Y-48075000D03*
X154650000Y-46575000D03*
D12*
X152350000Y-57200000D03*
X159350000Y-58250000D03*
D13*
X162650000Y-50175000D03*
X162650000Y-46575000D03*
D14*
X163050000Y-58250000D03*
D15*
X163050000Y-55050000D03*
%TD*%
D10*
%TO.C,A31*%
X185250000Y-71500000D03*
D11*
X188750000Y-65575000D03*
X188750000Y-67075000D03*
X183150000Y-67075000D03*
X183150000Y-65575000D03*
D12*
X180850000Y-76200000D03*
X187850000Y-77250000D03*
D13*
X191150000Y-69175000D03*
X191150000Y-65575000D03*
D14*
X191550000Y-77250000D03*
D15*
X191550000Y-74050000D03*
%TD*%
D10*
%TO.C,A24*%
X52250000Y-71500000D03*
D11*
X55750000Y-65575000D03*
X55750000Y-67075000D03*
X50150000Y-67075000D03*
X50150000Y-65575000D03*
D12*
X47850000Y-76200000D03*
X54850000Y-77250000D03*
D13*
X58150000Y-69175000D03*
X58150000Y-65575000D03*
D14*
X58550000Y-77250000D03*
D15*
X58550000Y-74050000D03*
%TD*%
D16*
%TO.C,H11*%
X59500000Y-112000000D03*
%TD*%
%TO.C,H9*%
X255500000Y-99000000D03*
%TD*%
D10*
%TO.C,A32*%
X209000000Y-71500000D03*
D11*
X212500000Y-65575000D03*
X212500000Y-67075000D03*
X206900000Y-67075000D03*
X206900000Y-65575000D03*
D12*
X204600000Y-76200000D03*
X211600000Y-77250000D03*
D13*
X214900000Y-69175000D03*
X214900000Y-65575000D03*
D14*
X215300000Y-77250000D03*
D15*
X215300000Y-74050000D03*
%TD*%
D10*
%TO.C,A8*%
X171000000Y-33500000D03*
D11*
X174500000Y-27575000D03*
X174500000Y-29075000D03*
X168900000Y-29075000D03*
X168900000Y-27575000D03*
D12*
X166600000Y-38200000D03*
X173600000Y-39250000D03*
D13*
X176900000Y-31175000D03*
X176900000Y-27575000D03*
D14*
X177300000Y-39250000D03*
D15*
X177300000Y-36050000D03*
%TD*%
D16*
%TO.C,H6*%
X29500000Y-99000000D03*
%TD*%
%TO.C,H19*%
X104500000Y-185750000D03*
%TD*%
D10*
%TO.C,A25*%
X71250000Y-71500000D03*
D11*
X74750000Y-65575000D03*
X74750000Y-67075000D03*
X69150000Y-67075000D03*
X69150000Y-65575000D03*
D12*
X66850000Y-76200000D03*
X73850000Y-77250000D03*
D13*
X77150000Y-69175000D03*
X77150000Y-65575000D03*
D14*
X77550000Y-77250000D03*
D15*
X77550000Y-74050000D03*
%TD*%
D10*
%TO.C,A3*%
X76000000Y-33500000D03*
D11*
X79500000Y-27575000D03*
X79500000Y-29075000D03*
X73900000Y-29075000D03*
X73900000Y-27575000D03*
D12*
X71600000Y-38200000D03*
X78600000Y-39250000D03*
D13*
X81900000Y-31175000D03*
X81900000Y-27575000D03*
D14*
X82300000Y-39250000D03*
D15*
X82300000Y-36050000D03*
%TD*%
D16*
%TO.C,H16*%
X59500000Y-126000000D03*
%TD*%
%TO.C,H1*%
X29500000Y-25000000D03*
%TD*%
D10*
%TO.C,A35*%
X90250000Y-90500000D03*
D11*
X93750000Y-84575000D03*
X93750000Y-86075000D03*
X88150000Y-86075000D03*
X88150000Y-84575000D03*
D12*
X85850000Y-95200000D03*
X92850000Y-96250000D03*
D13*
X96150000Y-88175000D03*
X96150000Y-84575000D03*
D14*
X96550000Y-96250000D03*
D15*
X96550000Y-93050000D03*
%TD*%
D10*
%TO.C,A5*%
X114000000Y-33500000D03*
D11*
X117500000Y-27575000D03*
X117500000Y-29075000D03*
X111900000Y-29075000D03*
X111900000Y-27575000D03*
D12*
X109600000Y-38200000D03*
X116600000Y-39250000D03*
D13*
X119900000Y-31175000D03*
X119900000Y-27575000D03*
D14*
X120300000Y-39250000D03*
D15*
X120300000Y-36050000D03*
%TD*%
D10*
%TO.C,A39*%
X194750000Y-90500000D03*
D11*
X198250000Y-84575000D03*
X198250000Y-86075000D03*
X192650000Y-86075000D03*
X192650000Y-84575000D03*
D12*
X190350000Y-95200000D03*
X197350000Y-96250000D03*
D13*
X200650000Y-88175000D03*
X200650000Y-84575000D03*
D14*
X201050000Y-96250000D03*
D15*
X201050000Y-93050000D03*
%TD*%
D16*
%TO.C,H4*%
X180500000Y-25000000D03*
%TD*%
%TO.C,H18*%
X29500000Y-186000000D03*
%TD*%
%TO.C,H20*%
X180500000Y-186000000D03*
%TD*%
M02*
