%TF.GenerationSoftware,KiCad,Pcbnew,9.0.2*%
%TF.CreationDate,2025-07-17T20:40:52+01:00*%
%TF.ProjectId,just-40-middle,6a757374-2d34-4302-9d6d-6964646c652e,rev?*%
%TF.SameCoordinates,Original*%
%TF.FileFunction,Drillmap*%
%TF.FilePolarity,Positive*%
%FSLAX45Y45*%
G04 Gerber Fmt 4.5, Leading zero omitted, Abs format (unit mm)*
G04 Created by KiCad (PCBNEW 9.0.2) date 2025-07-17 20:40:52*
%MOMM*%
%LPD*%
G01*
G04 APERTURE LIST*
%ADD10C,0.050000*%
%ADD11C,0.200000*%
%ADD12C,0.510000*%
G04 APERTURE END LIST*
D10*
X25175000Y-6550000D02*
G75*
G02*
X25275000Y-6650000I0J-100000D01*
G01*
X25275000Y-14250000D02*
G75*
G02*
X25175000Y-14350000I-100000J0D01*
G01*
X2375000Y-14350000D02*
G75*
G02*
X2275000Y-14250000I0J100000D01*
G01*
X25175000Y-6550000D02*
X2375000Y-6550000D01*
X2275000Y-6650000D02*
G75*
G02*
X2375000Y-6550000I100000J0D01*
G01*
X25175000Y-14350000D02*
X2375000Y-14350000D01*
X25275000Y-6650000D02*
X25275000Y-14250000D01*
X2275000Y-14250000D02*
X2275000Y-6650000D01*
X11630000Y-13195000D02*
X11630000Y-13475000D01*
X11680000Y-13525000D02*
X11720000Y-13525000D01*
X11720000Y-12620000D02*
X11900000Y-12620000D01*
X11720000Y-12720000D02*
X11720000Y-13145000D01*
X11720000Y-13145000D02*
X11680000Y-13145000D01*
X11720000Y-13525000D02*
X11720000Y-13750000D01*
X11900000Y-12620000D02*
X11900000Y-12550000D01*
X12150000Y-12500000D02*
X11950000Y-12500000D01*
X12200000Y-12620000D02*
X12200000Y-12550000D01*
X12380000Y-12620000D02*
X12200000Y-12620000D01*
X12380000Y-12720000D02*
X12380000Y-13145000D01*
X12380000Y-13525000D02*
X12380000Y-13750000D01*
X12380000Y-13525000D02*
X12420000Y-13525000D01*
X12380000Y-13850000D02*
X11720000Y-13850000D01*
X12420000Y-13145000D02*
X12380000Y-13145000D01*
X12470000Y-13475000D02*
X12470000Y-13195000D01*
X13020000Y-12892500D02*
X13020000Y-12672500D01*
X13070000Y-12622500D02*
X13290000Y-12622500D01*
X13290000Y-12942500D02*
X13070000Y-12942500D01*
X13340000Y-12892500D02*
X13340000Y-12672500D01*
X14030000Y-13195000D02*
X14030000Y-13475000D01*
X14080000Y-13525000D02*
X14120000Y-13525000D01*
X14120000Y-12620000D02*
X14300000Y-12620000D01*
X14120000Y-12720000D02*
X14120000Y-13145000D01*
X14120000Y-13145000D02*
X14080000Y-13145000D01*
X14120000Y-13525000D02*
X14120000Y-13750000D01*
X14300000Y-12620000D02*
X14300000Y-12550000D01*
X14550000Y-12500000D02*
X14350000Y-12500000D01*
X14600000Y-12620000D02*
X14600000Y-12550000D01*
X14780000Y-12620000D02*
X14600000Y-12620000D01*
X14780000Y-12720000D02*
X14780000Y-13145000D01*
X14780000Y-13525000D02*
X14780000Y-13750000D01*
X14780000Y-13525000D02*
X14820000Y-13525000D01*
X14780000Y-13850000D02*
X14120000Y-13850000D01*
X14820000Y-13145000D02*
X14780000Y-13145000D01*
X14870000Y-13475000D02*
X14870000Y-13195000D01*
X11630000Y-13195000D02*
G75*
G02*
X11680000Y-13145000I50000J0D01*
G01*
X11680000Y-13525000D02*
G75*
G02*
X11630000Y-13475000I0J50000D01*
G01*
X11720000Y-12720000D02*
G75*
G02*
X11720000Y-12620000I0J50000D01*
G01*
X11720000Y-13850000D02*
G75*
G02*
X11720000Y-13750000I0J50000D01*
G01*
X11900000Y-12550000D02*
G75*
G02*
X11950000Y-12500000I50000J0D01*
G01*
X12150000Y-12500000D02*
G75*
G02*
X12200000Y-12550000I0J-50000D01*
G01*
X12380000Y-12620000D02*
G75*
G02*
X12380000Y-12720000I0J-50000D01*
G01*
X12380000Y-13750000D02*
G75*
G02*
X12380000Y-13850000I0J-50000D01*
G01*
X12420000Y-13145000D02*
G75*
G02*
X12470000Y-13195000I0J-50000D01*
G01*
X12470000Y-13475000D02*
G75*
G02*
X12420000Y-13525000I-50000J0D01*
G01*
X13020000Y-12672500D02*
G75*
G02*
X13070000Y-12622500I50000J0D01*
G01*
X13070000Y-12942500D02*
G75*
G02*
X13020000Y-12892500I0J50000D01*
G01*
X13290000Y-12622500D02*
G75*
G02*
X13340000Y-12672500I0J-50000D01*
G01*
X13340000Y-12892500D02*
G75*
G02*
X13290000Y-12942500I-50000J0D01*
G01*
X14030000Y-13195000D02*
G75*
G02*
X14080000Y-13145000I50000J0D01*
G01*
X14080000Y-13525000D02*
G75*
G02*
X14030000Y-13475000I0J50000D01*
G01*
X14120000Y-12720000D02*
G75*
G02*
X14120000Y-12620000I0J50000D01*
G01*
X14120000Y-13850000D02*
G75*
G02*
X14120000Y-13750000I0J50000D01*
G01*
X14300000Y-12550000D02*
G75*
G02*
X14350000Y-12500000I50000J0D01*
G01*
X14550000Y-12500000D02*
G75*
G02*
X14600000Y-12550000I0J-50000D01*
G01*
X14780000Y-12620000D02*
G75*
G02*
X14780000Y-12720000I0J-50000D01*
G01*
X14780000Y-13750000D02*
G75*
G02*
X14780000Y-13850000I0J-50000D01*
G01*
X14820000Y-13145000D02*
G75*
G02*
X14870000Y-13195000I0J-50000D01*
G01*
X14870000Y-13475000D02*
G75*
G02*
X14820000Y-13525000I-50000J0D01*
G01*
X18295000Y-6972500D02*
X18295000Y-7192500D01*
X18345000Y-6922500D02*
X18565000Y-6922500D01*
X18565000Y-7242500D02*
X18345000Y-7242500D01*
X18615000Y-6972500D02*
X18615000Y-7192500D01*
X18295000Y-6972500D02*
G75*
G02*
X18345000Y-6922500I50000J0D01*
G01*
X18345000Y-7242500D02*
G75*
G02*
X18295000Y-7192500I0J50000D01*
G01*
X18565000Y-6922500D02*
G75*
G02*
X18615000Y-6972500I0J-50000D01*
G01*
X18615000Y-7192500D02*
G75*
G02*
X18565000Y-7242500I-50000J0D01*
G01*
X18720000Y-9092500D02*
X18720000Y-8872500D01*
X18770000Y-8822500D02*
X18990000Y-8822500D01*
X18990000Y-9142500D02*
X18770000Y-9142500D01*
X19040000Y-9092500D02*
X19040000Y-8872500D01*
X18720000Y-8872500D02*
G75*
G02*
X18770000Y-8822500I50000J0D01*
G01*
X18770000Y-9142500D02*
G75*
G02*
X18720000Y-9092500I0J50000D01*
G01*
X18990000Y-8822500D02*
G75*
G02*
X19040000Y-8872500I0J-50000D01*
G01*
X19040000Y-9092500D02*
G75*
G02*
X18990000Y-9142500I-50000J0D01*
G01*
X20620000Y-9092500D02*
X20620000Y-8872500D01*
X20670000Y-8822500D02*
X20890000Y-8822500D01*
X20890000Y-9142500D02*
X20670000Y-9142500D01*
X20940000Y-9092500D02*
X20940000Y-8872500D01*
X20620000Y-8872500D02*
G75*
G02*
X20670000Y-8822500I50000J0D01*
G01*
X20670000Y-9142500D02*
G75*
G02*
X20620000Y-9092500I0J50000D01*
G01*
X20890000Y-8822500D02*
G75*
G02*
X20940000Y-8872500I0J-50000D01*
G01*
X20940000Y-9092500D02*
G75*
G02*
X20890000Y-9142500I-50000J0D01*
G01*
X11120000Y-9092500D02*
X11120000Y-8872500D01*
X11170000Y-8822500D02*
X11390000Y-8822500D01*
X11390000Y-9142500D02*
X11170000Y-9142500D01*
X11440000Y-9092500D02*
X11440000Y-8872500D01*
X11120000Y-8872500D02*
G75*
G02*
X11170000Y-8822500I50000J0D01*
G01*
X11170000Y-9142500D02*
G75*
G02*
X11120000Y-9092500I0J50000D01*
G01*
X11390000Y-8822500D02*
G75*
G02*
X11440000Y-8872500I0J-50000D01*
G01*
X11440000Y-9092500D02*
G75*
G02*
X11390000Y-9142500I-50000J0D01*
G01*
X9745000Y-12892500D02*
X9745000Y-12672500D01*
X9795000Y-12622500D02*
X10015000Y-12622500D01*
X10015000Y-12942500D02*
X9795000Y-12942500D01*
X10065000Y-12892500D02*
X10065000Y-12672500D01*
X9745000Y-12672500D02*
G75*
G02*
X9795000Y-12622500I50000J0D01*
G01*
X9795000Y-12942500D02*
G75*
G02*
X9745000Y-12892500I0J50000D01*
G01*
X10015000Y-12622500D02*
G75*
G02*
X10065000Y-12672500I0J-50000D01*
G01*
X10065000Y-12892500D02*
G75*
G02*
X10015000Y-12942500I-50000J0D01*
G01*
X13020000Y-9092500D02*
X13020000Y-8872500D01*
X13070000Y-8822500D02*
X13290000Y-8822500D01*
X13290000Y-9142500D02*
X13070000Y-9142500D01*
X13340000Y-9092500D02*
X13340000Y-8872500D01*
X13020000Y-8872500D02*
G75*
G02*
X13070000Y-8822500I50000J0D01*
G01*
X13070000Y-9142500D02*
G75*
G02*
X13020000Y-9092500I0J50000D01*
G01*
X13290000Y-8822500D02*
G75*
G02*
X13340000Y-8872500I0J-50000D01*
G01*
X13340000Y-9092500D02*
G75*
G02*
X13290000Y-9142500I-50000J0D01*
G01*
X12070000Y-10772500D02*
X12070000Y-10992500D01*
X12120000Y-10722500D02*
X12340000Y-10722500D01*
X12340000Y-11042500D02*
X12120000Y-11042500D01*
X12390000Y-10772500D02*
X12390000Y-10992500D01*
X12070000Y-10772500D02*
G75*
G02*
X12120000Y-10722500I50000J0D01*
G01*
X12120000Y-11042500D02*
G75*
G02*
X12070000Y-10992500I0J50000D01*
G01*
X12340000Y-10722500D02*
G75*
G02*
X12390000Y-10772500I0J-50000D01*
G01*
X12390000Y-10992500D02*
G75*
G02*
X12340000Y-11042500I-50000J0D01*
G01*
X21570000Y-10772500D02*
X21570000Y-10992500D01*
X21620000Y-10722500D02*
X21840000Y-10722500D01*
X21840000Y-11042500D02*
X21620000Y-11042500D01*
X21890000Y-10772500D02*
X21890000Y-10992500D01*
X21570000Y-10772500D02*
G75*
G02*
X21620000Y-10722500I50000J0D01*
G01*
X21620000Y-11042500D02*
G75*
G02*
X21570000Y-10992500I0J50000D01*
G01*
X21840000Y-10722500D02*
G75*
G02*
X21890000Y-10772500I0J-50000D01*
G01*
X21890000Y-10992500D02*
G75*
G02*
X21840000Y-11042500I-50000J0D01*
G01*
X4995000Y-6972500D02*
X4995000Y-7192500D01*
X5045000Y-6922500D02*
X5265000Y-6922500D01*
X5265000Y-7242500D02*
X5045000Y-7242500D01*
X5315000Y-6972500D02*
X5315000Y-7192500D01*
X4995000Y-6972500D02*
G75*
G02*
X5045000Y-6922500I50000J0D01*
G01*
X5045000Y-7242500D02*
G75*
G02*
X4995000Y-7192500I0J50000D01*
G01*
X5265000Y-6922500D02*
G75*
G02*
X5315000Y-6972500I0J-50000D01*
G01*
X5315000Y-7192500D02*
G75*
G02*
X5265000Y-7242500I-50000J0D01*
G01*
X7845000Y-12892500D02*
X7845000Y-12672500D01*
X7895000Y-12622500D02*
X8115000Y-12622500D01*
X8115000Y-12942500D02*
X7895000Y-12942500D01*
X8165000Y-12892500D02*
X8165000Y-12672500D01*
X7845000Y-12672500D02*
G75*
G02*
X7895000Y-12622500I50000J0D01*
G01*
X7895000Y-12942500D02*
G75*
G02*
X7845000Y-12892500I0J50000D01*
G01*
X8115000Y-12622500D02*
G75*
G02*
X8165000Y-12672500I0J-50000D01*
G01*
X8165000Y-12892500D02*
G75*
G02*
X8115000Y-12942500I-50000J0D01*
G01*
X5945000Y-12892500D02*
X5945000Y-12672500D01*
X5995000Y-12622500D02*
X6215000Y-12622500D01*
X6215000Y-12942500D02*
X5995000Y-12942500D01*
X6265000Y-12892500D02*
X6265000Y-12672500D01*
X5945000Y-12672500D02*
G75*
G02*
X5995000Y-12622500I50000J0D01*
G01*
X5995000Y-12942500D02*
G75*
G02*
X5945000Y-12892500I0J50000D01*
G01*
X6215000Y-12622500D02*
G75*
G02*
X6265000Y-12672500I0J-50000D01*
G01*
X6265000Y-12892500D02*
G75*
G02*
X6215000Y-12942500I-50000J0D01*
G01*
X13970000Y-10772500D02*
X13970000Y-10992500D01*
X14020000Y-10722500D02*
X14240000Y-10722500D01*
X14240000Y-11042500D02*
X14020000Y-11042500D01*
X14290000Y-10772500D02*
X14290000Y-10992500D01*
X13970000Y-10772500D02*
G75*
G02*
X14020000Y-10722500I50000J0D01*
G01*
X14020000Y-11042500D02*
G75*
G02*
X13970000Y-10992500I0J50000D01*
G01*
X14240000Y-10722500D02*
G75*
G02*
X14290000Y-10772500I0J-50000D01*
G01*
X14290000Y-10992500D02*
G75*
G02*
X14240000Y-11042500I-50000J0D01*
G01*
X17770000Y-10772500D02*
X17770000Y-10992500D01*
X17820000Y-10722500D02*
X18040000Y-10722500D01*
X18040000Y-11042500D02*
X17820000Y-11042500D01*
X18090000Y-10772500D02*
X18090000Y-10992500D01*
X17770000Y-10772500D02*
G75*
G02*
X17820000Y-10722500I50000J0D01*
G01*
X17820000Y-11042500D02*
G75*
G02*
X17770000Y-10992500I0J50000D01*
G01*
X18040000Y-10722500D02*
G75*
G02*
X18090000Y-10772500I0J-50000D01*
G01*
X18090000Y-10992500D02*
G75*
G02*
X18040000Y-11042500I-50000J0D01*
G01*
X14495000Y-6972500D02*
X14495000Y-7192500D01*
X14545000Y-6922500D02*
X14765000Y-6922500D01*
X14765000Y-7242500D02*
X14545000Y-7242500D01*
X14815000Y-6972500D02*
X14815000Y-7192500D01*
X14495000Y-6972500D02*
G75*
G02*
X14545000Y-6922500I50000J0D01*
G01*
X14545000Y-7242500D02*
G75*
G02*
X14495000Y-7192500I0J50000D01*
G01*
X14765000Y-6922500D02*
G75*
G02*
X14815000Y-6972500I0J-50000D01*
G01*
X14815000Y-7192500D02*
G75*
G02*
X14765000Y-7242500I-50000J0D01*
G01*
X3095000Y-6972500D02*
X3095000Y-7192500D01*
X3145000Y-6922500D02*
X3365000Y-6922500D01*
X3365000Y-7242500D02*
X3145000Y-7242500D01*
X3415000Y-6972500D02*
X3415000Y-7192500D01*
X3095000Y-6972500D02*
G75*
G02*
X3145000Y-6922500I50000J0D01*
G01*
X3145000Y-7242500D02*
G75*
G02*
X3095000Y-7192500I0J50000D01*
G01*
X3365000Y-6922500D02*
G75*
G02*
X3415000Y-6972500I0J-50000D01*
G01*
X3415000Y-7192500D02*
G75*
G02*
X3365000Y-7242500I-50000J0D01*
G01*
X10170000Y-10772500D02*
X10170000Y-10992500D01*
X10220000Y-10722500D02*
X10440000Y-10722500D01*
X10440000Y-11042500D02*
X10220000Y-11042500D01*
X10490000Y-10772500D02*
X10490000Y-10992500D01*
X10170000Y-10772500D02*
G75*
G02*
X10220000Y-10722500I50000J0D01*
G01*
X10220000Y-11042500D02*
G75*
G02*
X10170000Y-10992500I0J50000D01*
G01*
X10440000Y-10722500D02*
G75*
G02*
X10490000Y-10772500I0J-50000D01*
G01*
X10490000Y-10992500D02*
G75*
G02*
X10440000Y-11042500I-50000J0D01*
G01*
X8795000Y-6972500D02*
X8795000Y-7192500D01*
X8845000Y-6922500D02*
X9065000Y-6922500D01*
X9065000Y-7242500D02*
X8845000Y-7242500D01*
X9115000Y-6972500D02*
X9115000Y-7192500D01*
X8795000Y-6972500D02*
G75*
G02*
X8845000Y-6922500I50000J0D01*
G01*
X8845000Y-7242500D02*
G75*
G02*
X8795000Y-7192500I0J50000D01*
G01*
X9065000Y-6922500D02*
G75*
G02*
X9115000Y-6972500I0J-50000D01*
G01*
X9115000Y-7192500D02*
G75*
G02*
X9065000Y-7242500I-50000J0D01*
G01*
X22520000Y-9092500D02*
X22520000Y-8872500D01*
X22570000Y-8822500D02*
X22790000Y-8822500D01*
X22790000Y-9142500D02*
X22570000Y-9142500D01*
X22840000Y-9092500D02*
X22840000Y-8872500D01*
X22520000Y-8872500D02*
G75*
G02*
X22570000Y-8822500I50000J0D01*
G01*
X22570000Y-9142500D02*
G75*
G02*
X22520000Y-9092500I0J50000D01*
G01*
X22790000Y-8822500D02*
G75*
G02*
X22840000Y-8872500I0J-50000D01*
G01*
X22840000Y-9092500D02*
G75*
G02*
X22790000Y-9142500I-50000J0D01*
G01*
X8270000Y-10772500D02*
X8270000Y-10992500D01*
X8320000Y-10722500D02*
X8540000Y-10722500D01*
X8540000Y-11042500D02*
X8320000Y-11042500D01*
X8590000Y-10772500D02*
X8590000Y-10992500D01*
X8270000Y-10772500D02*
G75*
G02*
X8320000Y-10722500I50000J0D01*
G01*
X8320000Y-11042500D02*
G75*
G02*
X8270000Y-10992500I0J50000D01*
G01*
X8540000Y-10722500D02*
G75*
G02*
X8590000Y-10772500I0J-50000D01*
G01*
X8590000Y-10992500D02*
G75*
G02*
X8540000Y-11042500I-50000J0D01*
G01*
X20095000Y-12892500D02*
X20095000Y-12672500D01*
X20145000Y-12622500D02*
X20365000Y-12622500D01*
X20365000Y-12942500D02*
X20145000Y-12942500D01*
X20415000Y-12892500D02*
X20415000Y-12672500D01*
X20095000Y-12672500D02*
G75*
G02*
X20145000Y-12622500I50000J0D01*
G01*
X20145000Y-12942500D02*
G75*
G02*
X20095000Y-12892500I0J50000D01*
G01*
X20365000Y-12622500D02*
G75*
G02*
X20415000Y-12672500I0J-50000D01*
G01*
X20415000Y-12892500D02*
G75*
G02*
X20365000Y-12942500I-50000J0D01*
G01*
X22095000Y-6972500D02*
X22095000Y-7192500D01*
X22145000Y-6922500D02*
X22365000Y-6922500D01*
X22365000Y-7242500D02*
X22145000Y-7242500D01*
X22415000Y-6972500D02*
X22415000Y-7192500D01*
X22095000Y-6972500D02*
G75*
G02*
X22145000Y-6922500I50000J0D01*
G01*
X22145000Y-7242500D02*
G75*
G02*
X22095000Y-7192500I0J50000D01*
G01*
X22365000Y-6922500D02*
G75*
G02*
X22415000Y-6972500I0J-50000D01*
G01*
X22415000Y-7192500D02*
G75*
G02*
X22365000Y-7242500I-50000J0D01*
G01*
X4470000Y-10772500D02*
X4470000Y-10992500D01*
X4520000Y-10722500D02*
X4740000Y-10722500D01*
X4740000Y-11042500D02*
X4520000Y-11042500D01*
X4790000Y-10772500D02*
X4790000Y-10992500D01*
X4470000Y-10772500D02*
G75*
G02*
X4520000Y-10722500I50000J0D01*
G01*
X4520000Y-11042500D02*
G75*
G02*
X4470000Y-10992500I0J50000D01*
G01*
X4740000Y-10722500D02*
G75*
G02*
X4790000Y-10772500I0J-50000D01*
G01*
X4790000Y-10992500D02*
G75*
G02*
X4740000Y-11042500I-50000J0D01*
G01*
X23995000Y-6972500D02*
X23995000Y-7192500D01*
X24045000Y-6922500D02*
X24265000Y-6922500D01*
X24265000Y-7242500D02*
X24045000Y-7242500D01*
X24315000Y-6972500D02*
X24315000Y-7192500D01*
X23995000Y-6972500D02*
G75*
G02*
X24045000Y-6922500I50000J0D01*
G01*
X24045000Y-7242500D02*
G75*
G02*
X23995000Y-7192500I0J50000D01*
G01*
X24265000Y-6922500D02*
G75*
G02*
X24315000Y-6972500I0J-50000D01*
G01*
X24315000Y-7192500D02*
G75*
G02*
X24265000Y-7242500I-50000J0D01*
G01*
X20195000Y-6972500D02*
X20195000Y-7192500D01*
X20245000Y-6922500D02*
X20465000Y-6922500D01*
X20465000Y-7242500D02*
X20245000Y-7242500D01*
X20515000Y-6972500D02*
X20515000Y-7192500D01*
X20195000Y-6972500D02*
G75*
G02*
X20245000Y-6922500I50000J0D01*
G01*
X20245000Y-7242500D02*
G75*
G02*
X20195000Y-7192500I0J50000D01*
G01*
X20465000Y-6922500D02*
G75*
G02*
X20515000Y-6972500I0J-50000D01*
G01*
X20515000Y-7192500D02*
G75*
G02*
X20465000Y-7242500I-50000J0D01*
G01*
X16295000Y-12892500D02*
X16295000Y-12672500D01*
X16345000Y-12622500D02*
X16565000Y-12622500D01*
X16565000Y-12942500D02*
X16345000Y-12942500D01*
X16615000Y-12892500D02*
X16615000Y-12672500D01*
X16295000Y-12672500D02*
G75*
G02*
X16345000Y-12622500I50000J0D01*
G01*
X16345000Y-12942500D02*
G75*
G02*
X16295000Y-12892500I0J50000D01*
G01*
X16565000Y-12622500D02*
G75*
G02*
X16615000Y-12672500I0J-50000D01*
G01*
X16615000Y-12892500D02*
G75*
G02*
X16565000Y-12942500I-50000J0D01*
G01*
X14920000Y-9092500D02*
X14920000Y-8872500D01*
X14970000Y-8822500D02*
X15190000Y-8822500D01*
X15190000Y-9142500D02*
X14970000Y-9142500D01*
X15240000Y-9092500D02*
X15240000Y-8872500D01*
X14920000Y-8872500D02*
G75*
G02*
X14970000Y-8822500I50000J0D01*
G01*
X14970000Y-9142500D02*
G75*
G02*
X14920000Y-9092500I0J50000D01*
G01*
X15190000Y-8822500D02*
G75*
G02*
X15240000Y-8872500I0J-50000D01*
G01*
X15240000Y-9092500D02*
G75*
G02*
X15190000Y-9142500I-50000J0D01*
G01*
X6370000Y-10772500D02*
X6370000Y-10992500D01*
X6420000Y-10722500D02*
X6640000Y-10722500D01*
X6640000Y-11042500D02*
X6420000Y-11042500D01*
X6690000Y-10772500D02*
X6690000Y-10992500D01*
X6370000Y-10772500D02*
G75*
G02*
X6420000Y-10722500I50000J0D01*
G01*
X6420000Y-11042500D02*
G75*
G02*
X6370000Y-10992500I0J50000D01*
G01*
X6640000Y-10722500D02*
G75*
G02*
X6690000Y-10772500I0J-50000D01*
G01*
X6690000Y-10992500D02*
G75*
G02*
X6640000Y-11042500I-50000J0D01*
G01*
X16395000Y-6972500D02*
X16395000Y-7192500D01*
X16445000Y-6922500D02*
X16665000Y-6922500D01*
X16665000Y-7242500D02*
X16445000Y-7242500D01*
X16715000Y-6972500D02*
X16715000Y-7192500D01*
X16395000Y-6972500D02*
G75*
G02*
X16445000Y-6922500I50000J0D01*
G01*
X16445000Y-7242500D02*
G75*
G02*
X16395000Y-7192500I0J50000D01*
G01*
X16665000Y-6922500D02*
G75*
G02*
X16715000Y-6972500I0J-50000D01*
G01*
X16715000Y-7192500D02*
G75*
G02*
X16665000Y-7242500I-50000J0D01*
G01*
X5420000Y-9092500D02*
X5420000Y-8872500D01*
X5470000Y-8822500D02*
X5690000Y-8822500D01*
X5690000Y-9142500D02*
X5470000Y-9142500D01*
X5740000Y-9092500D02*
X5740000Y-8872500D01*
X5420000Y-8872500D02*
G75*
G02*
X5470000Y-8822500I50000J0D01*
G01*
X5470000Y-9142500D02*
G75*
G02*
X5420000Y-9092500I0J50000D01*
G01*
X5690000Y-8822500D02*
G75*
G02*
X5740000Y-8872500I0J-50000D01*
G01*
X5740000Y-9092500D02*
G75*
G02*
X5690000Y-9142500I-50000J0D01*
G01*
X3520000Y-9092500D02*
X3520000Y-8872500D01*
X3570000Y-8822500D02*
X3790000Y-8822500D01*
X3790000Y-9142500D02*
X3570000Y-9142500D01*
X3840000Y-9092500D02*
X3840000Y-8872500D01*
X3520000Y-8872500D02*
G75*
G02*
X3570000Y-8822500I50000J0D01*
G01*
X3570000Y-9142500D02*
G75*
G02*
X3520000Y-9092500I0J50000D01*
G01*
X3790000Y-8822500D02*
G75*
G02*
X3840000Y-8872500I0J-50000D01*
G01*
X3840000Y-9092500D02*
G75*
G02*
X3790000Y-9142500I-50000J0D01*
G01*
X10695000Y-6972500D02*
X10695000Y-7192500D01*
X10745000Y-6922500D02*
X10965000Y-6922500D01*
X10965000Y-7242500D02*
X10745000Y-7242500D01*
X11015000Y-6972500D02*
X11015000Y-7192500D01*
X10695000Y-6972500D02*
G75*
G02*
X10745000Y-6922500I50000J0D01*
G01*
X10745000Y-7242500D02*
G75*
G02*
X10695000Y-7192500I0J50000D01*
G01*
X10965000Y-6922500D02*
G75*
G02*
X11015000Y-6972500I0J-50000D01*
G01*
X11015000Y-7192500D02*
G75*
G02*
X10965000Y-7242500I-50000J0D01*
G01*
X7320000Y-9092500D02*
X7320000Y-8872500D01*
X7370000Y-8822500D02*
X7590000Y-8822500D01*
X7590000Y-9142500D02*
X7370000Y-9142500D01*
X7640000Y-9092500D02*
X7640000Y-8872500D01*
X7320000Y-8872500D02*
G75*
G02*
X7370000Y-8822500I50000J0D01*
G01*
X7370000Y-9142500D02*
G75*
G02*
X7320000Y-9092500I0J50000D01*
G01*
X7590000Y-8822500D02*
G75*
G02*
X7640000Y-8872500I0J-50000D01*
G01*
X7640000Y-9092500D02*
G75*
G02*
X7590000Y-9142500I-50000J0D01*
G01*
X6895000Y-6972500D02*
X6895000Y-7192500D01*
X6945000Y-6922500D02*
X7165000Y-6922500D01*
X7165000Y-7242500D02*
X6945000Y-7242500D01*
X7215000Y-6972500D02*
X7215000Y-7192500D01*
X6895000Y-6972500D02*
G75*
G02*
X6945000Y-6922500I50000J0D01*
G01*
X6945000Y-7242500D02*
G75*
G02*
X6895000Y-7192500I0J50000D01*
G01*
X7165000Y-6922500D02*
G75*
G02*
X7215000Y-6972500I0J-50000D01*
G01*
X7215000Y-7192500D02*
G75*
G02*
X7165000Y-7242500I-50000J0D01*
G01*
X9220000Y-9092500D02*
X9220000Y-8872500D01*
X9270000Y-8822500D02*
X9490000Y-8822500D01*
X9490000Y-9142500D02*
X9270000Y-9142500D01*
X9540000Y-9092500D02*
X9540000Y-8872500D01*
X9220000Y-8872500D02*
G75*
G02*
X9270000Y-8822500I50000J0D01*
G01*
X9270000Y-9142500D02*
G75*
G02*
X9220000Y-9092500I0J50000D01*
G01*
X9490000Y-8822500D02*
G75*
G02*
X9540000Y-8872500I0J-50000D01*
G01*
X9540000Y-9092500D02*
G75*
G02*
X9490000Y-9142500I-50000J0D01*
G01*
X15870000Y-10772500D02*
X15870000Y-10992500D01*
X15920000Y-10722500D02*
X16140000Y-10722500D01*
X16140000Y-11042500D02*
X15920000Y-11042500D01*
X16190000Y-10772500D02*
X16190000Y-10992500D01*
X15870000Y-10772500D02*
G75*
G02*
X15920000Y-10722500I50000J0D01*
G01*
X15920000Y-11042500D02*
G75*
G02*
X15870000Y-10992500I0J50000D01*
G01*
X16140000Y-10722500D02*
G75*
G02*
X16190000Y-10772500I0J-50000D01*
G01*
X16190000Y-10992500D02*
G75*
G02*
X16140000Y-11042500I-50000J0D01*
G01*
X12595000Y-6972500D02*
X12595000Y-7192500D01*
X12645000Y-6922500D02*
X12865000Y-6922500D01*
X12865000Y-7242500D02*
X12645000Y-7242500D01*
X12915000Y-6972500D02*
X12915000Y-7192500D01*
X12595000Y-6972500D02*
G75*
G02*
X12645000Y-6922500I50000J0D01*
G01*
X12645000Y-7242500D02*
G75*
G02*
X12595000Y-7192500I0J50000D01*
G01*
X12865000Y-6922500D02*
G75*
G02*
X12915000Y-6972500I0J-50000D01*
G01*
X12915000Y-7192500D02*
G75*
G02*
X12865000Y-7242500I-50000J0D01*
G01*
X16820000Y-9092500D02*
X16820000Y-8872500D01*
X16870000Y-8822500D02*
X17090000Y-8822500D01*
X17090000Y-9142500D02*
X16870000Y-9142500D01*
X17140000Y-9092500D02*
X17140000Y-8872500D01*
X16820000Y-8872500D02*
G75*
G02*
X16870000Y-8822500I50000J0D01*
G01*
X16870000Y-9142500D02*
G75*
G02*
X16820000Y-9092500I0J50000D01*
G01*
X17090000Y-8822500D02*
G75*
G02*
X17140000Y-8872500I0J-50000D01*
G01*
X17140000Y-9092500D02*
G75*
G02*
X17090000Y-9142500I-50000J0D01*
G01*
X18195000Y-12892500D02*
X18195000Y-12672500D01*
X18245000Y-12622500D02*
X18465000Y-12622500D01*
X18465000Y-12942500D02*
X18245000Y-12942500D01*
X18515000Y-12892500D02*
X18515000Y-12672500D01*
X18195000Y-12672500D02*
G75*
G02*
X18245000Y-12622500I50000J0D01*
G01*
X18245000Y-12942500D02*
G75*
G02*
X18195000Y-12892500I0J50000D01*
G01*
X18465000Y-12622500D02*
G75*
G02*
X18515000Y-12672500I0J-50000D01*
G01*
X18515000Y-12892500D02*
G75*
G02*
X18465000Y-12942500I-50000J0D01*
G01*
X19670000Y-10772500D02*
X19670000Y-10992500D01*
X19720000Y-10722500D02*
X19940000Y-10722500D01*
X19940000Y-11042500D02*
X19720000Y-11042500D01*
X19990000Y-10772500D02*
X19990000Y-10992500D01*
X19670000Y-10772500D02*
G75*
G02*
X19720000Y-10722500I50000J0D01*
G01*
X19720000Y-11042500D02*
G75*
G02*
X19670000Y-10992500I0J50000D01*
G01*
X19940000Y-10722500D02*
G75*
G02*
X19990000Y-10772500I0J-50000D01*
G01*
X19990000Y-10992500D02*
G75*
G02*
X19940000Y-11042500I-50000J0D01*
G01*
D11*
X2375000Y-6650000D02*
X2575000Y-6850000D01*
X2575000Y-6650000D02*
X2375000Y-6850000D01*
X2375000Y-14050000D02*
X2575000Y-14250000D01*
X2575000Y-14050000D02*
X2375000Y-14250000D01*
X8925000Y-14050000D02*
X9125000Y-14250000D01*
X9125000Y-14050000D02*
X8925000Y-14250000D01*
X9875000Y-6650000D02*
X10075000Y-6850000D01*
X10075000Y-6650000D02*
X9875000Y-6850000D01*
X17375000Y-14050000D02*
X17575000Y-14250000D01*
X17575000Y-14050000D02*
X17375000Y-14250000D01*
X17475000Y-6650000D02*
X17675000Y-6850000D01*
X17675000Y-6650000D02*
X17475000Y-6850000D01*
X24975000Y-6650000D02*
X25175000Y-6850000D01*
X25175000Y-6650000D02*
X24975000Y-6850000D01*
X24975000Y-14050000D02*
X25175000Y-14250000D01*
X25175000Y-14050000D02*
X24975000Y-14250000D01*
D12*
X3580000Y-7600000D02*
G75*
G02*
X3070000Y-7600000I-255000J0D01*
G01*
X3070000Y-7600000D02*
G75*
G02*
X3580000Y-7600000I255000J0D01*
G01*
X4005000Y-9500000D02*
G75*
G02*
X3495000Y-9500000I-255000J0D01*
G01*
X3495000Y-9500000D02*
G75*
G02*
X4005000Y-9500000I255000J0D01*
G01*
X4955000Y-11400000D02*
G75*
G02*
X4445000Y-11400000I-255000J0D01*
G01*
X4445000Y-11400000D02*
G75*
G02*
X4955000Y-11400000I255000J0D01*
G01*
X5480000Y-7600000D02*
G75*
G02*
X4970000Y-7600000I-255000J0D01*
G01*
X4970000Y-7600000D02*
G75*
G02*
X5480000Y-7600000I255000J0D01*
G01*
X5905000Y-9500000D02*
G75*
G02*
X5395000Y-9500000I-255000J0D01*
G01*
X5395000Y-9500000D02*
G75*
G02*
X5905000Y-9500000I255000J0D01*
G01*
X6430000Y-13300000D02*
G75*
G02*
X5920000Y-13300000I-255000J0D01*
G01*
X5920000Y-13300000D02*
G75*
G02*
X6430000Y-13300000I255000J0D01*
G01*
X6855000Y-11400000D02*
G75*
G02*
X6345000Y-11400000I-255000J0D01*
G01*
X6345000Y-11400000D02*
G75*
G02*
X6855000Y-11400000I255000J0D01*
G01*
X7380000Y-7600000D02*
G75*
G02*
X6870000Y-7600000I-255000J0D01*
G01*
X6870000Y-7600000D02*
G75*
G02*
X7380000Y-7600000I255000J0D01*
G01*
X7805000Y-9500000D02*
G75*
G02*
X7295000Y-9500000I-255000J0D01*
G01*
X7295000Y-9500000D02*
G75*
G02*
X7805000Y-9500000I255000J0D01*
G01*
X8330000Y-13300000D02*
G75*
G02*
X7820000Y-13300000I-255000J0D01*
G01*
X7820000Y-13300000D02*
G75*
G02*
X8330000Y-13300000I255000J0D01*
G01*
X8755000Y-11400000D02*
G75*
G02*
X8245000Y-11400000I-255000J0D01*
G01*
X8245000Y-11400000D02*
G75*
G02*
X8755000Y-11400000I255000J0D01*
G01*
X9280000Y-7600000D02*
G75*
G02*
X8770000Y-7600000I-255000J0D01*
G01*
X8770000Y-7600000D02*
G75*
G02*
X9280000Y-7600000I255000J0D01*
G01*
X9705000Y-9500000D02*
G75*
G02*
X9195000Y-9500000I-255000J0D01*
G01*
X9195000Y-9500000D02*
G75*
G02*
X9705000Y-9500000I255000J0D01*
G01*
X10230000Y-13300000D02*
G75*
G02*
X9720000Y-13300000I-255000J0D01*
G01*
X9720000Y-13300000D02*
G75*
G02*
X10230000Y-13300000I255000J0D01*
G01*
X10655000Y-11400000D02*
G75*
G02*
X10145000Y-11400000I-255000J0D01*
G01*
X10145000Y-11400000D02*
G75*
G02*
X10655000Y-11400000I255000J0D01*
G01*
X11180000Y-7600000D02*
G75*
G02*
X10670000Y-7600000I-255000J0D01*
G01*
X10670000Y-7600000D02*
G75*
G02*
X11180000Y-7600000I255000J0D01*
G01*
X11605000Y-9500000D02*
G75*
G02*
X11095000Y-9500000I-255000J0D01*
G01*
X11095000Y-9500000D02*
G75*
G02*
X11605000Y-9500000I255000J0D01*
G01*
X12555000Y-11400000D02*
G75*
G02*
X12045000Y-11400000I-255000J0D01*
G01*
X12045000Y-11400000D02*
G75*
G02*
X12555000Y-11400000I255000J0D01*
G01*
X13080000Y-7600000D02*
G75*
G02*
X12570000Y-7600000I-255000J0D01*
G01*
X12570000Y-7600000D02*
G75*
G02*
X13080000Y-7600000I255000J0D01*
G01*
X13505000Y-9500000D02*
G75*
G02*
X12995000Y-9500000I-255000J0D01*
G01*
X12995000Y-9500000D02*
G75*
G02*
X13505000Y-9500000I255000J0D01*
G01*
X13505000Y-13300000D02*
G75*
G02*
X12995000Y-13300000I-255000J0D01*
G01*
X12995000Y-13300000D02*
G75*
G02*
X13505000Y-13300000I255000J0D01*
G01*
X14455000Y-11400000D02*
G75*
G02*
X13945000Y-11400000I-255000J0D01*
G01*
X13945000Y-11400000D02*
G75*
G02*
X14455000Y-11400000I255000J0D01*
G01*
X14980000Y-7600000D02*
G75*
G02*
X14470000Y-7600000I-255000J0D01*
G01*
X14470000Y-7600000D02*
G75*
G02*
X14980000Y-7600000I255000J0D01*
G01*
X15405000Y-9500000D02*
G75*
G02*
X14895000Y-9500000I-255000J0D01*
G01*
X14895000Y-9500000D02*
G75*
G02*
X15405000Y-9500000I255000J0D01*
G01*
X16355000Y-11400000D02*
G75*
G02*
X15845000Y-11400000I-255000J0D01*
G01*
X15845000Y-11400000D02*
G75*
G02*
X16355000Y-11400000I255000J0D01*
G01*
X16780000Y-13300000D02*
G75*
G02*
X16270000Y-13300000I-255000J0D01*
G01*
X16270000Y-13300000D02*
G75*
G02*
X16780000Y-13300000I255000J0D01*
G01*
X16880000Y-7600000D02*
G75*
G02*
X16370000Y-7600000I-255000J0D01*
G01*
X16370000Y-7600000D02*
G75*
G02*
X16880000Y-7600000I255000J0D01*
G01*
X17305000Y-9500000D02*
G75*
G02*
X16795000Y-9500000I-255000J0D01*
G01*
X16795000Y-9500000D02*
G75*
G02*
X17305000Y-9500000I255000J0D01*
G01*
X18255000Y-11400000D02*
G75*
G02*
X17745000Y-11400000I-255000J0D01*
G01*
X17745000Y-11400000D02*
G75*
G02*
X18255000Y-11400000I255000J0D01*
G01*
X18680000Y-13300000D02*
G75*
G02*
X18170000Y-13300000I-255000J0D01*
G01*
X18170000Y-13300000D02*
G75*
G02*
X18680000Y-13300000I255000J0D01*
G01*
X18780000Y-7600000D02*
G75*
G02*
X18270000Y-7600000I-255000J0D01*
G01*
X18270000Y-7600000D02*
G75*
G02*
X18780000Y-7600000I255000J0D01*
G01*
X19205000Y-9500000D02*
G75*
G02*
X18695000Y-9500000I-255000J0D01*
G01*
X18695000Y-9500000D02*
G75*
G02*
X19205000Y-9500000I255000J0D01*
G01*
X20155000Y-11400000D02*
G75*
G02*
X19645000Y-11400000I-255000J0D01*
G01*
X19645000Y-11400000D02*
G75*
G02*
X20155000Y-11400000I255000J0D01*
G01*
X20580000Y-13300000D02*
G75*
G02*
X20070000Y-13300000I-255000J0D01*
G01*
X20070000Y-13300000D02*
G75*
G02*
X20580000Y-13300000I255000J0D01*
G01*
X20680000Y-7600000D02*
G75*
G02*
X20170000Y-7600000I-255000J0D01*
G01*
X20170000Y-7600000D02*
G75*
G02*
X20680000Y-7600000I255000J0D01*
G01*
X21105000Y-9500000D02*
G75*
G02*
X20595000Y-9500000I-255000J0D01*
G01*
X20595000Y-9500000D02*
G75*
G02*
X21105000Y-9500000I255000J0D01*
G01*
X22055000Y-11400000D02*
G75*
G02*
X21545000Y-11400000I-255000J0D01*
G01*
X21545000Y-11400000D02*
G75*
G02*
X22055000Y-11400000I255000J0D01*
G01*
X22580000Y-7600000D02*
G75*
G02*
X22070000Y-7600000I-255000J0D01*
G01*
X22070000Y-7600000D02*
G75*
G02*
X22580000Y-7600000I255000J0D01*
G01*
X23005000Y-9500000D02*
G75*
G02*
X22495000Y-9500000I-255000J0D01*
G01*
X22495000Y-9500000D02*
G75*
G02*
X23005000Y-9500000I255000J0D01*
G01*
X24480000Y-7600000D02*
G75*
G02*
X23970000Y-7600000I-255000J0D01*
G01*
X23970000Y-7600000D02*
G75*
G02*
X24480000Y-7600000I255000J0D01*
G01*
D11*
X2533277Y-14663984D02*
X2533277Y-14463984D01*
X2533277Y-14463984D02*
X2580896Y-14463984D01*
X2580896Y-14463984D02*
X2609467Y-14473508D01*
X2609467Y-14473508D02*
X2628515Y-14492555D01*
X2628515Y-14492555D02*
X2638039Y-14511603D01*
X2638039Y-14511603D02*
X2647563Y-14549698D01*
X2647563Y-14549698D02*
X2647563Y-14578269D01*
X2647563Y-14578269D02*
X2638039Y-14616365D01*
X2638039Y-14616365D02*
X2628515Y-14635412D01*
X2628515Y-14635412D02*
X2609467Y-14654460D01*
X2609467Y-14654460D02*
X2580896Y-14663984D01*
X2580896Y-14663984D02*
X2533277Y-14663984D01*
X2733277Y-14663984D02*
X2733277Y-14530650D01*
X2733277Y-14568746D02*
X2742801Y-14549698D01*
X2742801Y-14549698D02*
X2752324Y-14540174D01*
X2752324Y-14540174D02*
X2771372Y-14530650D01*
X2771372Y-14530650D02*
X2790420Y-14530650D01*
X2857086Y-14663984D02*
X2857086Y-14530650D01*
X2857086Y-14463984D02*
X2847562Y-14473508D01*
X2847562Y-14473508D02*
X2857086Y-14483031D01*
X2857086Y-14483031D02*
X2866610Y-14473508D01*
X2866610Y-14473508D02*
X2857086Y-14463984D01*
X2857086Y-14463984D02*
X2857086Y-14483031D01*
X2980896Y-14663984D02*
X2961848Y-14654460D01*
X2961848Y-14654460D02*
X2952324Y-14635412D01*
X2952324Y-14635412D02*
X2952324Y-14463984D01*
X3085658Y-14663984D02*
X3066610Y-14654460D01*
X3066610Y-14654460D02*
X3057086Y-14635412D01*
X3057086Y-14635412D02*
X3057086Y-14463984D01*
X3314229Y-14663984D02*
X3314229Y-14463984D01*
X3314229Y-14463984D02*
X3380896Y-14606841D01*
X3380896Y-14606841D02*
X3447562Y-14463984D01*
X3447562Y-14463984D02*
X3447562Y-14663984D01*
X3628515Y-14663984D02*
X3628515Y-14559222D01*
X3628515Y-14559222D02*
X3618991Y-14540174D01*
X3618991Y-14540174D02*
X3599943Y-14530650D01*
X3599943Y-14530650D02*
X3561848Y-14530650D01*
X3561848Y-14530650D02*
X3542801Y-14540174D01*
X3628515Y-14654460D02*
X3609467Y-14663984D01*
X3609467Y-14663984D02*
X3561848Y-14663984D01*
X3561848Y-14663984D02*
X3542801Y-14654460D01*
X3542801Y-14654460D02*
X3533277Y-14635412D01*
X3533277Y-14635412D02*
X3533277Y-14616365D01*
X3533277Y-14616365D02*
X3542801Y-14597317D01*
X3542801Y-14597317D02*
X3561848Y-14587793D01*
X3561848Y-14587793D02*
X3609467Y-14587793D01*
X3609467Y-14587793D02*
X3628515Y-14578269D01*
X3723753Y-14530650D02*
X3723753Y-14730650D01*
X3723753Y-14540174D02*
X3742801Y-14530650D01*
X3742801Y-14530650D02*
X3780896Y-14530650D01*
X3780896Y-14530650D02*
X3799943Y-14540174D01*
X3799943Y-14540174D02*
X3809467Y-14549698D01*
X3809467Y-14549698D02*
X3818991Y-14568746D01*
X3818991Y-14568746D02*
X3818991Y-14625888D01*
X3818991Y-14625888D02*
X3809467Y-14644936D01*
X3809467Y-14644936D02*
X3799943Y-14654460D01*
X3799943Y-14654460D02*
X3780896Y-14663984D01*
X3780896Y-14663984D02*
X3742801Y-14663984D01*
X3742801Y-14663984D02*
X3723753Y-14654460D01*
X3904705Y-14644936D02*
X3914229Y-14654460D01*
X3914229Y-14654460D02*
X3904705Y-14663984D01*
X3904705Y-14663984D02*
X3895182Y-14654460D01*
X3895182Y-14654460D02*
X3904705Y-14644936D01*
X3904705Y-14644936D02*
X3904705Y-14663984D01*
X3904705Y-14540174D02*
X3914229Y-14549698D01*
X3914229Y-14549698D02*
X3904705Y-14559222D01*
X3904705Y-14559222D02*
X3895182Y-14549698D01*
X3895182Y-14549698D02*
X3904705Y-14540174D01*
X3904705Y-14540174D02*
X3904705Y-14559222D01*
X2072500Y-14892500D02*
X2272500Y-15092500D01*
X2272500Y-14892500D02*
X2072500Y-15092500D01*
X2523753Y-14903031D02*
X2533277Y-14893508D01*
X2533277Y-14893508D02*
X2552324Y-14883984D01*
X2552324Y-14883984D02*
X2599944Y-14883984D01*
X2599944Y-14883984D02*
X2618991Y-14893508D01*
X2618991Y-14893508D02*
X2628515Y-14903031D01*
X2628515Y-14903031D02*
X2638039Y-14922079D01*
X2638039Y-14922079D02*
X2638039Y-14941127D01*
X2638039Y-14941127D02*
X2628515Y-14969698D01*
X2628515Y-14969698D02*
X2514229Y-15083984D01*
X2514229Y-15083984D02*
X2638039Y-15083984D01*
X2723753Y-15064936D02*
X2733277Y-15074460D01*
X2733277Y-15074460D02*
X2723753Y-15083984D01*
X2723753Y-15083984D02*
X2714229Y-15074460D01*
X2714229Y-15074460D02*
X2723753Y-15064936D01*
X2723753Y-15064936D02*
X2723753Y-15083984D01*
X2857086Y-14883984D02*
X2876134Y-14883984D01*
X2876134Y-14883984D02*
X2895182Y-14893508D01*
X2895182Y-14893508D02*
X2904705Y-14903031D01*
X2904705Y-14903031D02*
X2914229Y-14922079D01*
X2914229Y-14922079D02*
X2923753Y-14960174D01*
X2923753Y-14960174D02*
X2923753Y-15007793D01*
X2923753Y-15007793D02*
X2914229Y-15045888D01*
X2914229Y-15045888D02*
X2904705Y-15064936D01*
X2904705Y-15064936D02*
X2895182Y-15074460D01*
X2895182Y-15074460D02*
X2876134Y-15083984D01*
X2876134Y-15083984D02*
X2857086Y-15083984D01*
X2857086Y-15083984D02*
X2838039Y-15074460D01*
X2838039Y-15074460D02*
X2828515Y-15064936D01*
X2828515Y-15064936D02*
X2818991Y-15045888D01*
X2818991Y-15045888D02*
X2809467Y-15007793D01*
X2809467Y-15007793D02*
X2809467Y-14960174D01*
X2809467Y-14960174D02*
X2818991Y-14922079D01*
X2818991Y-14922079D02*
X2828515Y-14903031D01*
X2828515Y-14903031D02*
X2838039Y-14893508D01*
X2838039Y-14893508D02*
X2857086Y-14883984D01*
X3047562Y-14883984D02*
X3066610Y-14883984D01*
X3066610Y-14883984D02*
X3085658Y-14893508D01*
X3085658Y-14893508D02*
X3095182Y-14903031D01*
X3095182Y-14903031D02*
X3104705Y-14922079D01*
X3104705Y-14922079D02*
X3114229Y-14960174D01*
X3114229Y-14960174D02*
X3114229Y-15007793D01*
X3114229Y-15007793D02*
X3104705Y-15045888D01*
X3104705Y-15045888D02*
X3095182Y-15064936D01*
X3095182Y-15064936D02*
X3085658Y-15074460D01*
X3085658Y-15074460D02*
X3066610Y-15083984D01*
X3066610Y-15083984D02*
X3047562Y-15083984D01*
X3047562Y-15083984D02*
X3028515Y-15074460D01*
X3028515Y-15074460D02*
X3018991Y-15064936D01*
X3018991Y-15064936D02*
X3009467Y-15045888D01*
X3009467Y-15045888D02*
X2999943Y-15007793D01*
X2999943Y-15007793D02*
X2999943Y-14960174D01*
X2999943Y-14960174D02*
X3009467Y-14922079D01*
X3009467Y-14922079D02*
X3018991Y-14903031D01*
X3018991Y-14903031D02*
X3028515Y-14893508D01*
X3028515Y-14893508D02*
X3047562Y-14883984D01*
X3238039Y-14883984D02*
X3257086Y-14883984D01*
X3257086Y-14883984D02*
X3276134Y-14893508D01*
X3276134Y-14893508D02*
X3285658Y-14903031D01*
X3285658Y-14903031D02*
X3295182Y-14922079D01*
X3295182Y-14922079D02*
X3304705Y-14960174D01*
X3304705Y-14960174D02*
X3304705Y-15007793D01*
X3304705Y-15007793D02*
X3295182Y-15045888D01*
X3295182Y-15045888D02*
X3285658Y-15064936D01*
X3285658Y-15064936D02*
X3276134Y-15074460D01*
X3276134Y-15074460D02*
X3257086Y-15083984D01*
X3257086Y-15083984D02*
X3238039Y-15083984D01*
X3238039Y-15083984D02*
X3218991Y-15074460D01*
X3218991Y-15074460D02*
X3209467Y-15064936D01*
X3209467Y-15064936D02*
X3199943Y-15045888D01*
X3199943Y-15045888D02*
X3190420Y-15007793D01*
X3190420Y-15007793D02*
X3190420Y-14960174D01*
X3190420Y-14960174D02*
X3199943Y-14922079D01*
X3199943Y-14922079D02*
X3209467Y-14903031D01*
X3209467Y-14903031D02*
X3218991Y-14893508D01*
X3218991Y-14893508D02*
X3238039Y-14883984D01*
X3390420Y-15083984D02*
X3390420Y-14950650D01*
X3390420Y-14969698D02*
X3399943Y-14960174D01*
X3399943Y-14960174D02*
X3418991Y-14950650D01*
X3418991Y-14950650D02*
X3447563Y-14950650D01*
X3447563Y-14950650D02*
X3466610Y-14960174D01*
X3466610Y-14960174D02*
X3476134Y-14979222D01*
X3476134Y-14979222D02*
X3476134Y-15083984D01*
X3476134Y-14979222D02*
X3485658Y-14960174D01*
X3485658Y-14960174D02*
X3504705Y-14950650D01*
X3504705Y-14950650D02*
X3533277Y-14950650D01*
X3533277Y-14950650D02*
X3552324Y-14960174D01*
X3552324Y-14960174D02*
X3561848Y-14979222D01*
X3561848Y-14979222D02*
X3561848Y-15083984D01*
X3657086Y-15083984D02*
X3657086Y-14950650D01*
X3657086Y-14969698D02*
X3666610Y-14960174D01*
X3666610Y-14960174D02*
X3685658Y-14950650D01*
X3685658Y-14950650D02*
X3714229Y-14950650D01*
X3714229Y-14950650D02*
X3733277Y-14960174D01*
X3733277Y-14960174D02*
X3742801Y-14979222D01*
X3742801Y-14979222D02*
X3742801Y-15083984D01*
X3742801Y-14979222D02*
X3752324Y-14960174D01*
X3752324Y-14960174D02*
X3771372Y-14950650D01*
X3771372Y-14950650D02*
X3799943Y-14950650D01*
X3799943Y-14950650D02*
X3818991Y-14960174D01*
X3818991Y-14960174D02*
X3828515Y-14979222D01*
X3828515Y-14979222D02*
X3828515Y-15083984D01*
X4218991Y-14874460D02*
X4047563Y-15131603D01*
X4476134Y-14883984D02*
X4495182Y-14883984D01*
X4495182Y-14883984D02*
X4514229Y-14893508D01*
X4514229Y-14893508D02*
X4523753Y-14903031D01*
X4523753Y-14903031D02*
X4533277Y-14922079D01*
X4533277Y-14922079D02*
X4542801Y-14960174D01*
X4542801Y-14960174D02*
X4542801Y-15007793D01*
X4542801Y-15007793D02*
X4533277Y-15045888D01*
X4533277Y-15045888D02*
X4523753Y-15064936D01*
X4523753Y-15064936D02*
X4514229Y-15074460D01*
X4514229Y-15074460D02*
X4495182Y-15083984D01*
X4495182Y-15083984D02*
X4476134Y-15083984D01*
X4476134Y-15083984D02*
X4457087Y-15074460D01*
X4457087Y-15074460D02*
X4447563Y-15064936D01*
X4447563Y-15064936D02*
X4438039Y-15045888D01*
X4438039Y-15045888D02*
X4428515Y-15007793D01*
X4428515Y-15007793D02*
X4428515Y-14960174D01*
X4428515Y-14960174D02*
X4438039Y-14922079D01*
X4438039Y-14922079D02*
X4447563Y-14903031D01*
X4447563Y-14903031D02*
X4457087Y-14893508D01*
X4457087Y-14893508D02*
X4476134Y-14883984D01*
X4628515Y-15064936D02*
X4638039Y-15074460D01*
X4638039Y-15074460D02*
X4628515Y-15083984D01*
X4628515Y-15083984D02*
X4618991Y-15074460D01*
X4618991Y-15074460D02*
X4628515Y-15064936D01*
X4628515Y-15064936D02*
X4628515Y-15083984D01*
X4761848Y-14883984D02*
X4780896Y-14883984D01*
X4780896Y-14883984D02*
X4799944Y-14893508D01*
X4799944Y-14893508D02*
X4809468Y-14903031D01*
X4809468Y-14903031D02*
X4818991Y-14922079D01*
X4818991Y-14922079D02*
X4828515Y-14960174D01*
X4828515Y-14960174D02*
X4828515Y-15007793D01*
X4828515Y-15007793D02*
X4818991Y-15045888D01*
X4818991Y-15045888D02*
X4809468Y-15064936D01*
X4809468Y-15064936D02*
X4799944Y-15074460D01*
X4799944Y-15074460D02*
X4780896Y-15083984D01*
X4780896Y-15083984D02*
X4761848Y-15083984D01*
X4761848Y-15083984D02*
X4742801Y-15074460D01*
X4742801Y-15074460D02*
X4733277Y-15064936D01*
X4733277Y-15064936D02*
X4723753Y-15045888D01*
X4723753Y-15045888D02*
X4714229Y-15007793D01*
X4714229Y-15007793D02*
X4714229Y-14960174D01*
X4714229Y-14960174D02*
X4723753Y-14922079D01*
X4723753Y-14922079D02*
X4733277Y-14903031D01*
X4733277Y-14903031D02*
X4742801Y-14893508D01*
X4742801Y-14893508D02*
X4761848Y-14883984D01*
X4895182Y-14883984D02*
X5028515Y-14883984D01*
X5028515Y-14883984D02*
X4942801Y-15083984D01*
X5133277Y-14969698D02*
X5114229Y-14960174D01*
X5114229Y-14960174D02*
X5104706Y-14950650D01*
X5104706Y-14950650D02*
X5095182Y-14931603D01*
X5095182Y-14931603D02*
X5095182Y-14922079D01*
X5095182Y-14922079D02*
X5104706Y-14903031D01*
X5104706Y-14903031D02*
X5114229Y-14893508D01*
X5114229Y-14893508D02*
X5133277Y-14883984D01*
X5133277Y-14883984D02*
X5171372Y-14883984D01*
X5171372Y-14883984D02*
X5190420Y-14893508D01*
X5190420Y-14893508D02*
X5199944Y-14903031D01*
X5199944Y-14903031D02*
X5209468Y-14922079D01*
X5209468Y-14922079D02*
X5209468Y-14931603D01*
X5209468Y-14931603D02*
X5199944Y-14950650D01*
X5199944Y-14950650D02*
X5190420Y-14960174D01*
X5190420Y-14960174D02*
X5171372Y-14969698D01*
X5171372Y-14969698D02*
X5133277Y-14969698D01*
X5133277Y-14969698D02*
X5114229Y-14979222D01*
X5114229Y-14979222D02*
X5104706Y-14988746D01*
X5104706Y-14988746D02*
X5095182Y-15007793D01*
X5095182Y-15007793D02*
X5095182Y-15045888D01*
X5095182Y-15045888D02*
X5104706Y-15064936D01*
X5104706Y-15064936D02*
X5114229Y-15074460D01*
X5114229Y-15074460D02*
X5133277Y-15083984D01*
X5133277Y-15083984D02*
X5171372Y-15083984D01*
X5171372Y-15083984D02*
X5190420Y-15074460D01*
X5190420Y-15074460D02*
X5199944Y-15064936D01*
X5199944Y-15064936D02*
X5209468Y-15045888D01*
X5209468Y-15045888D02*
X5209468Y-15007793D01*
X5209468Y-15007793D02*
X5199944Y-14988746D01*
X5199944Y-14988746D02*
X5190420Y-14979222D01*
X5190420Y-14979222D02*
X5171372Y-14969698D01*
X5276134Y-14883984D02*
X5409468Y-14883984D01*
X5409468Y-14883984D02*
X5323753Y-15083984D01*
X5476134Y-14883984D02*
X5476134Y-14922079D01*
X5552325Y-14883984D02*
X5552325Y-14922079D01*
X5847563Y-15160174D02*
X5838039Y-15150650D01*
X5838039Y-15150650D02*
X5818991Y-15122079D01*
X5818991Y-15122079D02*
X5809468Y-15103031D01*
X5809468Y-15103031D02*
X5799944Y-15074460D01*
X5799944Y-15074460D02*
X5790420Y-15026841D01*
X5790420Y-15026841D02*
X5790420Y-14988746D01*
X5790420Y-14988746D02*
X5799944Y-14941127D01*
X5799944Y-14941127D02*
X5809468Y-14912555D01*
X5809468Y-14912555D02*
X5818991Y-14893508D01*
X5818991Y-14893508D02*
X5838039Y-14864936D01*
X5838039Y-14864936D02*
X5847563Y-14855412D01*
X5952325Y-14969698D02*
X5933277Y-14960174D01*
X5933277Y-14960174D02*
X5923753Y-14950650D01*
X5923753Y-14950650D02*
X5914229Y-14931603D01*
X5914229Y-14931603D02*
X5914229Y-14922079D01*
X5914229Y-14922079D02*
X5923753Y-14903031D01*
X5923753Y-14903031D02*
X5933277Y-14893508D01*
X5933277Y-14893508D02*
X5952325Y-14883984D01*
X5952325Y-14883984D02*
X5990420Y-14883984D01*
X5990420Y-14883984D02*
X6009468Y-14893508D01*
X6009468Y-14893508D02*
X6018991Y-14903031D01*
X6018991Y-14903031D02*
X6028515Y-14922079D01*
X6028515Y-14922079D02*
X6028515Y-14931603D01*
X6028515Y-14931603D02*
X6018991Y-14950650D01*
X6018991Y-14950650D02*
X6009468Y-14960174D01*
X6009468Y-14960174D02*
X5990420Y-14969698D01*
X5990420Y-14969698D02*
X5952325Y-14969698D01*
X5952325Y-14969698D02*
X5933277Y-14979222D01*
X5933277Y-14979222D02*
X5923753Y-14988746D01*
X5923753Y-14988746D02*
X5914229Y-15007793D01*
X5914229Y-15007793D02*
X5914229Y-15045888D01*
X5914229Y-15045888D02*
X5923753Y-15064936D01*
X5923753Y-15064936D02*
X5933277Y-15074460D01*
X5933277Y-15074460D02*
X5952325Y-15083984D01*
X5952325Y-15083984D02*
X5990420Y-15083984D01*
X5990420Y-15083984D02*
X6009468Y-15074460D01*
X6009468Y-15074460D02*
X6018991Y-15064936D01*
X6018991Y-15064936D02*
X6028515Y-15045888D01*
X6028515Y-15045888D02*
X6028515Y-15007793D01*
X6028515Y-15007793D02*
X6018991Y-14988746D01*
X6018991Y-14988746D02*
X6009468Y-14979222D01*
X6009468Y-14979222D02*
X5990420Y-14969698D01*
X6266610Y-15083984D02*
X6266610Y-14883984D01*
X6352325Y-15083984D02*
X6352325Y-14979222D01*
X6352325Y-14979222D02*
X6342801Y-14960174D01*
X6342801Y-14960174D02*
X6323753Y-14950650D01*
X6323753Y-14950650D02*
X6295182Y-14950650D01*
X6295182Y-14950650D02*
X6276134Y-14960174D01*
X6276134Y-14960174D02*
X6266610Y-14969698D01*
X6476134Y-15083984D02*
X6457087Y-15074460D01*
X6457087Y-15074460D02*
X6447563Y-15064936D01*
X6447563Y-15064936D02*
X6438039Y-15045888D01*
X6438039Y-15045888D02*
X6438039Y-14988746D01*
X6438039Y-14988746D02*
X6447563Y-14969698D01*
X6447563Y-14969698D02*
X6457087Y-14960174D01*
X6457087Y-14960174D02*
X6476134Y-14950650D01*
X6476134Y-14950650D02*
X6504706Y-14950650D01*
X6504706Y-14950650D02*
X6523753Y-14960174D01*
X6523753Y-14960174D02*
X6533277Y-14969698D01*
X6533277Y-14969698D02*
X6542801Y-14988746D01*
X6542801Y-14988746D02*
X6542801Y-15045888D01*
X6542801Y-15045888D02*
X6533277Y-15064936D01*
X6533277Y-15064936D02*
X6523753Y-15074460D01*
X6523753Y-15074460D02*
X6504706Y-15083984D01*
X6504706Y-15083984D02*
X6476134Y-15083984D01*
X6657087Y-15083984D02*
X6638039Y-15074460D01*
X6638039Y-15074460D02*
X6628515Y-15055412D01*
X6628515Y-15055412D02*
X6628515Y-14883984D01*
X6809468Y-15074460D02*
X6790420Y-15083984D01*
X6790420Y-15083984D02*
X6752325Y-15083984D01*
X6752325Y-15083984D02*
X6733277Y-15074460D01*
X6733277Y-15074460D02*
X6723753Y-15055412D01*
X6723753Y-15055412D02*
X6723753Y-14979222D01*
X6723753Y-14979222D02*
X6733277Y-14960174D01*
X6733277Y-14960174D02*
X6752325Y-14950650D01*
X6752325Y-14950650D02*
X6790420Y-14950650D01*
X6790420Y-14950650D02*
X6809468Y-14960174D01*
X6809468Y-14960174D02*
X6818991Y-14979222D01*
X6818991Y-14979222D02*
X6818991Y-14998269D01*
X6818991Y-14998269D02*
X6723753Y-15017317D01*
X6895182Y-15074460D02*
X6914230Y-15083984D01*
X6914230Y-15083984D02*
X6952325Y-15083984D01*
X6952325Y-15083984D02*
X6971372Y-15074460D01*
X6971372Y-15074460D02*
X6980896Y-15055412D01*
X6980896Y-15055412D02*
X6980896Y-15045888D01*
X6980896Y-15045888D02*
X6971372Y-15026841D01*
X6971372Y-15026841D02*
X6952325Y-15017317D01*
X6952325Y-15017317D02*
X6923753Y-15017317D01*
X6923753Y-15017317D02*
X6904706Y-15007793D01*
X6904706Y-15007793D02*
X6895182Y-14988746D01*
X6895182Y-14988746D02*
X6895182Y-14979222D01*
X6895182Y-14979222D02*
X6904706Y-14960174D01*
X6904706Y-14960174D02*
X6923753Y-14950650D01*
X6923753Y-14950650D02*
X6952325Y-14950650D01*
X6952325Y-14950650D02*
X6971372Y-14960174D01*
X7047563Y-15160174D02*
X7057087Y-15150650D01*
X7057087Y-15150650D02*
X7076134Y-15122079D01*
X7076134Y-15122079D02*
X7085658Y-15103031D01*
X7085658Y-15103031D02*
X7095182Y-15074460D01*
X7095182Y-15074460D02*
X7104706Y-15026841D01*
X7104706Y-15026841D02*
X7104706Y-14988746D01*
X7104706Y-14988746D02*
X7095182Y-14941127D01*
X7095182Y-14941127D02*
X7085658Y-14912555D01*
X7085658Y-14912555D02*
X7076134Y-14893508D01*
X7076134Y-14893508D02*
X7057087Y-14864936D01*
X7057087Y-14864936D02*
X7047563Y-14855412D01*
X7409468Y-15160174D02*
X7399944Y-15150650D01*
X7399944Y-15150650D02*
X7380896Y-15122079D01*
X7380896Y-15122079D02*
X7371372Y-15103031D01*
X7371372Y-15103031D02*
X7361849Y-15074460D01*
X7361849Y-15074460D02*
X7352325Y-15026841D01*
X7352325Y-15026841D02*
X7352325Y-14988746D01*
X7352325Y-14988746D02*
X7361849Y-14941127D01*
X7361849Y-14941127D02*
X7371372Y-14912555D01*
X7371372Y-14912555D02*
X7380896Y-14893508D01*
X7380896Y-14893508D02*
X7399944Y-14864936D01*
X7399944Y-14864936D02*
X7409468Y-14855412D01*
X7485658Y-14950650D02*
X7485658Y-15083984D01*
X7485658Y-14969698D02*
X7495182Y-14960174D01*
X7495182Y-14960174D02*
X7514230Y-14950650D01*
X7514230Y-14950650D02*
X7542801Y-14950650D01*
X7542801Y-14950650D02*
X7561849Y-14960174D01*
X7561849Y-14960174D02*
X7571372Y-14979222D01*
X7571372Y-14979222D02*
X7571372Y-15083984D01*
X7695182Y-15083984D02*
X7676134Y-15074460D01*
X7676134Y-15074460D02*
X7666611Y-15064936D01*
X7666611Y-15064936D02*
X7657087Y-15045888D01*
X7657087Y-15045888D02*
X7657087Y-14988746D01*
X7657087Y-14988746D02*
X7666611Y-14969698D01*
X7666611Y-14969698D02*
X7676134Y-14960174D01*
X7676134Y-14960174D02*
X7695182Y-14950650D01*
X7695182Y-14950650D02*
X7723753Y-14950650D01*
X7723753Y-14950650D02*
X7742801Y-14960174D01*
X7742801Y-14960174D02*
X7752325Y-14969698D01*
X7752325Y-14969698D02*
X7761849Y-14988746D01*
X7761849Y-14988746D02*
X7761849Y-15045888D01*
X7761849Y-15045888D02*
X7752325Y-15064936D01*
X7752325Y-15064936D02*
X7742801Y-15074460D01*
X7742801Y-15074460D02*
X7723753Y-15083984D01*
X7723753Y-15083984D02*
X7695182Y-15083984D01*
X7818992Y-14950650D02*
X7895182Y-14950650D01*
X7847563Y-14883984D02*
X7847563Y-15055412D01*
X7847563Y-15055412D02*
X7857087Y-15074460D01*
X7857087Y-15074460D02*
X7876134Y-15083984D01*
X7876134Y-15083984D02*
X7895182Y-15083984D01*
X8114230Y-14950650D02*
X8114230Y-15150650D01*
X8114230Y-14960174D02*
X8133277Y-14950650D01*
X8133277Y-14950650D02*
X8171373Y-14950650D01*
X8171373Y-14950650D02*
X8190420Y-14960174D01*
X8190420Y-14960174D02*
X8199944Y-14969698D01*
X8199944Y-14969698D02*
X8209468Y-14988746D01*
X8209468Y-14988746D02*
X8209468Y-15045888D01*
X8209468Y-15045888D02*
X8199944Y-15064936D01*
X8199944Y-15064936D02*
X8190420Y-15074460D01*
X8190420Y-15074460D02*
X8171373Y-15083984D01*
X8171373Y-15083984D02*
X8133277Y-15083984D01*
X8133277Y-15083984D02*
X8114230Y-15074460D01*
X8323753Y-15083984D02*
X8304706Y-15074460D01*
X8304706Y-15074460D02*
X8295182Y-15055412D01*
X8295182Y-15055412D02*
X8295182Y-14883984D01*
X8485658Y-15083984D02*
X8485658Y-14979222D01*
X8485658Y-14979222D02*
X8476135Y-14960174D01*
X8476135Y-14960174D02*
X8457087Y-14950650D01*
X8457087Y-14950650D02*
X8418992Y-14950650D01*
X8418992Y-14950650D02*
X8399944Y-14960174D01*
X8485658Y-15074460D02*
X8466611Y-15083984D01*
X8466611Y-15083984D02*
X8418992Y-15083984D01*
X8418992Y-15083984D02*
X8399944Y-15074460D01*
X8399944Y-15074460D02*
X8390420Y-15055412D01*
X8390420Y-15055412D02*
X8390420Y-15036365D01*
X8390420Y-15036365D02*
X8399944Y-15017317D01*
X8399944Y-15017317D02*
X8418992Y-15007793D01*
X8418992Y-15007793D02*
X8466611Y-15007793D01*
X8466611Y-15007793D02*
X8485658Y-14998269D01*
X8552325Y-14950650D02*
X8628515Y-14950650D01*
X8580896Y-14883984D02*
X8580896Y-15055412D01*
X8580896Y-15055412D02*
X8590420Y-15074460D01*
X8590420Y-15074460D02*
X8609468Y-15083984D01*
X8609468Y-15083984D02*
X8628515Y-15083984D01*
X8771373Y-15074460D02*
X8752325Y-15083984D01*
X8752325Y-15083984D02*
X8714230Y-15083984D01*
X8714230Y-15083984D02*
X8695182Y-15074460D01*
X8695182Y-15074460D02*
X8685658Y-15055412D01*
X8685658Y-15055412D02*
X8685658Y-14979222D01*
X8685658Y-14979222D02*
X8695182Y-14960174D01*
X8695182Y-14960174D02*
X8714230Y-14950650D01*
X8714230Y-14950650D02*
X8752325Y-14950650D01*
X8752325Y-14950650D02*
X8771373Y-14960174D01*
X8771373Y-14960174D02*
X8780896Y-14979222D01*
X8780896Y-14979222D02*
X8780896Y-14998269D01*
X8780896Y-14998269D02*
X8685658Y-15017317D01*
X8952325Y-15083984D02*
X8952325Y-14883984D01*
X8952325Y-15074460D02*
X8933277Y-15083984D01*
X8933277Y-15083984D02*
X8895182Y-15083984D01*
X8895182Y-15083984D02*
X8876135Y-15074460D01*
X8876135Y-15074460D02*
X8866611Y-15064936D01*
X8866611Y-15064936D02*
X8857087Y-15045888D01*
X8857087Y-15045888D02*
X8857087Y-14988746D01*
X8857087Y-14988746D02*
X8866611Y-14969698D01*
X8866611Y-14969698D02*
X8876135Y-14960174D01*
X8876135Y-14960174D02*
X8895182Y-14950650D01*
X8895182Y-14950650D02*
X8933277Y-14950650D01*
X8933277Y-14950650D02*
X8952325Y-14960174D01*
X9028516Y-15160174D02*
X9038039Y-15150650D01*
X9038039Y-15150650D02*
X9057087Y-15122079D01*
X9057087Y-15122079D02*
X9066611Y-15103031D01*
X9066611Y-15103031D02*
X9076135Y-15074460D01*
X9076135Y-15074460D02*
X9085658Y-15026841D01*
X9085658Y-15026841D02*
X9085658Y-14988746D01*
X9085658Y-14988746D02*
X9076135Y-14941127D01*
X9076135Y-14941127D02*
X9066611Y-14912555D01*
X9066611Y-14912555D02*
X9057087Y-14893508D01*
X9057087Y-14893508D02*
X9038039Y-14864936D01*
X9038039Y-14864936D02*
X9028516Y-14855412D01*
X2272500Y-15312500D02*
G75*
G02*
X2072500Y-15312500I-100000J0D01*
G01*
X2072500Y-15312500D02*
G75*
G02*
X2272500Y-15312500I100000J0D01*
G01*
X2628515Y-15203984D02*
X2533277Y-15203984D01*
X2533277Y-15203984D02*
X2523753Y-15299222D01*
X2523753Y-15299222D02*
X2533277Y-15289698D01*
X2533277Y-15289698D02*
X2552324Y-15280174D01*
X2552324Y-15280174D02*
X2599944Y-15280174D01*
X2599944Y-15280174D02*
X2618991Y-15289698D01*
X2618991Y-15289698D02*
X2628515Y-15299222D01*
X2628515Y-15299222D02*
X2638039Y-15318269D01*
X2638039Y-15318269D02*
X2638039Y-15365888D01*
X2638039Y-15365888D02*
X2628515Y-15384936D01*
X2628515Y-15384936D02*
X2618991Y-15394460D01*
X2618991Y-15394460D02*
X2599944Y-15403984D01*
X2599944Y-15403984D02*
X2552324Y-15403984D01*
X2552324Y-15403984D02*
X2533277Y-15394460D01*
X2533277Y-15394460D02*
X2523753Y-15384936D01*
X2723753Y-15384936D02*
X2733277Y-15394460D01*
X2733277Y-15394460D02*
X2723753Y-15403984D01*
X2723753Y-15403984D02*
X2714229Y-15394460D01*
X2714229Y-15394460D02*
X2723753Y-15384936D01*
X2723753Y-15384936D02*
X2723753Y-15403984D01*
X2923753Y-15403984D02*
X2809467Y-15403984D01*
X2866610Y-15403984D02*
X2866610Y-15203984D01*
X2866610Y-15203984D02*
X2847562Y-15232555D01*
X2847562Y-15232555D02*
X2828515Y-15251603D01*
X2828515Y-15251603D02*
X2809467Y-15261127D01*
X3047562Y-15203984D02*
X3066610Y-15203984D01*
X3066610Y-15203984D02*
X3085658Y-15213508D01*
X3085658Y-15213508D02*
X3095182Y-15223031D01*
X3095182Y-15223031D02*
X3104705Y-15242079D01*
X3104705Y-15242079D02*
X3114229Y-15280174D01*
X3114229Y-15280174D02*
X3114229Y-15327793D01*
X3114229Y-15327793D02*
X3104705Y-15365888D01*
X3104705Y-15365888D02*
X3095182Y-15384936D01*
X3095182Y-15384936D02*
X3085658Y-15394460D01*
X3085658Y-15394460D02*
X3066610Y-15403984D01*
X3066610Y-15403984D02*
X3047562Y-15403984D01*
X3047562Y-15403984D02*
X3028515Y-15394460D01*
X3028515Y-15394460D02*
X3018991Y-15384936D01*
X3018991Y-15384936D02*
X3009467Y-15365888D01*
X3009467Y-15365888D02*
X2999943Y-15327793D01*
X2999943Y-15327793D02*
X2999943Y-15280174D01*
X2999943Y-15280174D02*
X3009467Y-15242079D01*
X3009467Y-15242079D02*
X3018991Y-15223031D01*
X3018991Y-15223031D02*
X3028515Y-15213508D01*
X3028515Y-15213508D02*
X3047562Y-15203984D01*
X3238039Y-15203984D02*
X3257086Y-15203984D01*
X3257086Y-15203984D02*
X3276134Y-15213508D01*
X3276134Y-15213508D02*
X3285658Y-15223031D01*
X3285658Y-15223031D02*
X3295182Y-15242079D01*
X3295182Y-15242079D02*
X3304705Y-15280174D01*
X3304705Y-15280174D02*
X3304705Y-15327793D01*
X3304705Y-15327793D02*
X3295182Y-15365888D01*
X3295182Y-15365888D02*
X3285658Y-15384936D01*
X3285658Y-15384936D02*
X3276134Y-15394460D01*
X3276134Y-15394460D02*
X3257086Y-15403984D01*
X3257086Y-15403984D02*
X3238039Y-15403984D01*
X3238039Y-15403984D02*
X3218991Y-15394460D01*
X3218991Y-15394460D02*
X3209467Y-15384936D01*
X3209467Y-15384936D02*
X3199943Y-15365888D01*
X3199943Y-15365888D02*
X3190420Y-15327793D01*
X3190420Y-15327793D02*
X3190420Y-15280174D01*
X3190420Y-15280174D02*
X3199943Y-15242079D01*
X3199943Y-15242079D02*
X3209467Y-15223031D01*
X3209467Y-15223031D02*
X3218991Y-15213508D01*
X3218991Y-15213508D02*
X3238039Y-15203984D01*
X3390420Y-15403984D02*
X3390420Y-15270650D01*
X3390420Y-15289698D02*
X3399943Y-15280174D01*
X3399943Y-15280174D02*
X3418991Y-15270650D01*
X3418991Y-15270650D02*
X3447563Y-15270650D01*
X3447563Y-15270650D02*
X3466610Y-15280174D01*
X3466610Y-15280174D02*
X3476134Y-15299222D01*
X3476134Y-15299222D02*
X3476134Y-15403984D01*
X3476134Y-15299222D02*
X3485658Y-15280174D01*
X3485658Y-15280174D02*
X3504705Y-15270650D01*
X3504705Y-15270650D02*
X3533277Y-15270650D01*
X3533277Y-15270650D02*
X3552324Y-15280174D01*
X3552324Y-15280174D02*
X3561848Y-15299222D01*
X3561848Y-15299222D02*
X3561848Y-15403984D01*
X3657086Y-15403984D02*
X3657086Y-15270650D01*
X3657086Y-15289698D02*
X3666610Y-15280174D01*
X3666610Y-15280174D02*
X3685658Y-15270650D01*
X3685658Y-15270650D02*
X3714229Y-15270650D01*
X3714229Y-15270650D02*
X3733277Y-15280174D01*
X3733277Y-15280174D02*
X3742801Y-15299222D01*
X3742801Y-15299222D02*
X3742801Y-15403984D01*
X3742801Y-15299222D02*
X3752324Y-15280174D01*
X3752324Y-15280174D02*
X3771372Y-15270650D01*
X3771372Y-15270650D02*
X3799943Y-15270650D01*
X3799943Y-15270650D02*
X3818991Y-15280174D01*
X3818991Y-15280174D02*
X3828515Y-15299222D01*
X3828515Y-15299222D02*
X3828515Y-15403984D01*
X4218991Y-15194460D02*
X4047563Y-15451603D01*
X4476134Y-15203984D02*
X4495182Y-15203984D01*
X4495182Y-15203984D02*
X4514229Y-15213508D01*
X4514229Y-15213508D02*
X4523753Y-15223031D01*
X4523753Y-15223031D02*
X4533277Y-15242079D01*
X4533277Y-15242079D02*
X4542801Y-15280174D01*
X4542801Y-15280174D02*
X4542801Y-15327793D01*
X4542801Y-15327793D02*
X4533277Y-15365888D01*
X4533277Y-15365888D02*
X4523753Y-15384936D01*
X4523753Y-15384936D02*
X4514229Y-15394460D01*
X4514229Y-15394460D02*
X4495182Y-15403984D01*
X4495182Y-15403984D02*
X4476134Y-15403984D01*
X4476134Y-15403984D02*
X4457087Y-15394460D01*
X4457087Y-15394460D02*
X4447563Y-15384936D01*
X4447563Y-15384936D02*
X4438039Y-15365888D01*
X4438039Y-15365888D02*
X4428515Y-15327793D01*
X4428515Y-15327793D02*
X4428515Y-15280174D01*
X4428515Y-15280174D02*
X4438039Y-15242079D01*
X4438039Y-15242079D02*
X4447563Y-15223031D01*
X4447563Y-15223031D02*
X4457087Y-15213508D01*
X4457087Y-15213508D02*
X4476134Y-15203984D01*
X4628515Y-15384936D02*
X4638039Y-15394460D01*
X4638039Y-15394460D02*
X4628515Y-15403984D01*
X4628515Y-15403984D02*
X4618991Y-15394460D01*
X4618991Y-15394460D02*
X4628515Y-15384936D01*
X4628515Y-15384936D02*
X4628515Y-15403984D01*
X4714229Y-15223031D02*
X4723753Y-15213508D01*
X4723753Y-15213508D02*
X4742801Y-15203984D01*
X4742801Y-15203984D02*
X4790420Y-15203984D01*
X4790420Y-15203984D02*
X4809468Y-15213508D01*
X4809468Y-15213508D02*
X4818991Y-15223031D01*
X4818991Y-15223031D02*
X4828515Y-15242079D01*
X4828515Y-15242079D02*
X4828515Y-15261127D01*
X4828515Y-15261127D02*
X4818991Y-15289698D01*
X4818991Y-15289698D02*
X4704706Y-15403984D01*
X4704706Y-15403984D02*
X4828515Y-15403984D01*
X4952325Y-15203984D02*
X4971372Y-15203984D01*
X4971372Y-15203984D02*
X4990420Y-15213508D01*
X4990420Y-15213508D02*
X4999944Y-15223031D01*
X4999944Y-15223031D02*
X5009468Y-15242079D01*
X5009468Y-15242079D02*
X5018991Y-15280174D01*
X5018991Y-15280174D02*
X5018991Y-15327793D01*
X5018991Y-15327793D02*
X5009468Y-15365888D01*
X5009468Y-15365888D02*
X4999944Y-15384936D01*
X4999944Y-15384936D02*
X4990420Y-15394460D01*
X4990420Y-15394460D02*
X4971372Y-15403984D01*
X4971372Y-15403984D02*
X4952325Y-15403984D01*
X4952325Y-15403984D02*
X4933277Y-15394460D01*
X4933277Y-15394460D02*
X4923753Y-15384936D01*
X4923753Y-15384936D02*
X4914229Y-15365888D01*
X4914229Y-15365888D02*
X4904706Y-15327793D01*
X4904706Y-15327793D02*
X4904706Y-15280174D01*
X4904706Y-15280174D02*
X4914229Y-15242079D01*
X4914229Y-15242079D02*
X4923753Y-15223031D01*
X4923753Y-15223031D02*
X4933277Y-15213508D01*
X4933277Y-15213508D02*
X4952325Y-15203984D01*
X5142801Y-15203984D02*
X5161849Y-15203984D01*
X5161849Y-15203984D02*
X5180896Y-15213508D01*
X5180896Y-15213508D02*
X5190420Y-15223031D01*
X5190420Y-15223031D02*
X5199944Y-15242079D01*
X5199944Y-15242079D02*
X5209468Y-15280174D01*
X5209468Y-15280174D02*
X5209468Y-15327793D01*
X5209468Y-15327793D02*
X5199944Y-15365888D01*
X5199944Y-15365888D02*
X5190420Y-15384936D01*
X5190420Y-15384936D02*
X5180896Y-15394460D01*
X5180896Y-15394460D02*
X5161849Y-15403984D01*
X5161849Y-15403984D02*
X5142801Y-15403984D01*
X5142801Y-15403984D02*
X5123753Y-15394460D01*
X5123753Y-15394460D02*
X5114229Y-15384936D01*
X5114229Y-15384936D02*
X5104706Y-15365888D01*
X5104706Y-15365888D02*
X5095182Y-15327793D01*
X5095182Y-15327793D02*
X5095182Y-15280174D01*
X5095182Y-15280174D02*
X5104706Y-15242079D01*
X5104706Y-15242079D02*
X5114229Y-15223031D01*
X5114229Y-15223031D02*
X5123753Y-15213508D01*
X5123753Y-15213508D02*
X5142801Y-15203984D01*
X5323753Y-15289698D02*
X5304706Y-15280174D01*
X5304706Y-15280174D02*
X5295182Y-15270650D01*
X5295182Y-15270650D02*
X5285658Y-15251603D01*
X5285658Y-15251603D02*
X5285658Y-15242079D01*
X5285658Y-15242079D02*
X5295182Y-15223031D01*
X5295182Y-15223031D02*
X5304706Y-15213508D01*
X5304706Y-15213508D02*
X5323753Y-15203984D01*
X5323753Y-15203984D02*
X5361849Y-15203984D01*
X5361849Y-15203984D02*
X5380896Y-15213508D01*
X5380896Y-15213508D02*
X5390420Y-15223031D01*
X5390420Y-15223031D02*
X5399944Y-15242079D01*
X5399944Y-15242079D02*
X5399944Y-15251603D01*
X5399944Y-15251603D02*
X5390420Y-15270650D01*
X5390420Y-15270650D02*
X5380896Y-15280174D01*
X5380896Y-15280174D02*
X5361849Y-15289698D01*
X5361849Y-15289698D02*
X5323753Y-15289698D01*
X5323753Y-15289698D02*
X5304706Y-15299222D01*
X5304706Y-15299222D02*
X5295182Y-15308746D01*
X5295182Y-15308746D02*
X5285658Y-15327793D01*
X5285658Y-15327793D02*
X5285658Y-15365888D01*
X5285658Y-15365888D02*
X5295182Y-15384936D01*
X5295182Y-15384936D02*
X5304706Y-15394460D01*
X5304706Y-15394460D02*
X5323753Y-15403984D01*
X5323753Y-15403984D02*
X5361849Y-15403984D01*
X5361849Y-15403984D02*
X5380896Y-15394460D01*
X5380896Y-15394460D02*
X5390420Y-15384936D01*
X5390420Y-15384936D02*
X5399944Y-15365888D01*
X5399944Y-15365888D02*
X5399944Y-15327793D01*
X5399944Y-15327793D02*
X5390420Y-15308746D01*
X5390420Y-15308746D02*
X5380896Y-15299222D01*
X5380896Y-15299222D02*
X5361849Y-15289698D01*
X5476134Y-15203984D02*
X5476134Y-15242079D01*
X5552325Y-15203984D02*
X5552325Y-15242079D01*
X5847563Y-15480174D02*
X5838039Y-15470650D01*
X5838039Y-15470650D02*
X5818991Y-15442079D01*
X5818991Y-15442079D02*
X5809468Y-15423031D01*
X5809468Y-15423031D02*
X5799944Y-15394460D01*
X5799944Y-15394460D02*
X5790420Y-15346841D01*
X5790420Y-15346841D02*
X5790420Y-15308746D01*
X5790420Y-15308746D02*
X5799944Y-15261127D01*
X5799944Y-15261127D02*
X5809468Y-15232555D01*
X5809468Y-15232555D02*
X5818991Y-15213508D01*
X5818991Y-15213508D02*
X5838039Y-15184936D01*
X5838039Y-15184936D02*
X5847563Y-15175412D01*
X6009468Y-15270650D02*
X6009468Y-15403984D01*
X5961848Y-15194460D02*
X5914229Y-15337317D01*
X5914229Y-15337317D02*
X6038039Y-15337317D01*
X6152325Y-15203984D02*
X6171372Y-15203984D01*
X6171372Y-15203984D02*
X6190420Y-15213508D01*
X6190420Y-15213508D02*
X6199944Y-15223031D01*
X6199944Y-15223031D02*
X6209468Y-15242079D01*
X6209468Y-15242079D02*
X6218991Y-15280174D01*
X6218991Y-15280174D02*
X6218991Y-15327793D01*
X6218991Y-15327793D02*
X6209468Y-15365888D01*
X6209468Y-15365888D02*
X6199944Y-15384936D01*
X6199944Y-15384936D02*
X6190420Y-15394460D01*
X6190420Y-15394460D02*
X6171372Y-15403984D01*
X6171372Y-15403984D02*
X6152325Y-15403984D01*
X6152325Y-15403984D02*
X6133277Y-15394460D01*
X6133277Y-15394460D02*
X6123753Y-15384936D01*
X6123753Y-15384936D02*
X6114229Y-15365888D01*
X6114229Y-15365888D02*
X6104706Y-15327793D01*
X6104706Y-15327793D02*
X6104706Y-15280174D01*
X6104706Y-15280174D02*
X6114229Y-15242079D01*
X6114229Y-15242079D02*
X6123753Y-15223031D01*
X6123753Y-15223031D02*
X6133277Y-15213508D01*
X6133277Y-15213508D02*
X6152325Y-15203984D01*
X6457087Y-15403984D02*
X6457087Y-15203984D01*
X6542801Y-15403984D02*
X6542801Y-15299222D01*
X6542801Y-15299222D02*
X6533277Y-15280174D01*
X6533277Y-15280174D02*
X6514230Y-15270650D01*
X6514230Y-15270650D02*
X6485658Y-15270650D01*
X6485658Y-15270650D02*
X6466610Y-15280174D01*
X6466610Y-15280174D02*
X6457087Y-15289698D01*
X6666610Y-15403984D02*
X6647563Y-15394460D01*
X6647563Y-15394460D02*
X6638039Y-15384936D01*
X6638039Y-15384936D02*
X6628515Y-15365888D01*
X6628515Y-15365888D02*
X6628515Y-15308746D01*
X6628515Y-15308746D02*
X6638039Y-15289698D01*
X6638039Y-15289698D02*
X6647563Y-15280174D01*
X6647563Y-15280174D02*
X6666610Y-15270650D01*
X6666610Y-15270650D02*
X6695182Y-15270650D01*
X6695182Y-15270650D02*
X6714230Y-15280174D01*
X6714230Y-15280174D02*
X6723753Y-15289698D01*
X6723753Y-15289698D02*
X6733277Y-15308746D01*
X6733277Y-15308746D02*
X6733277Y-15365888D01*
X6733277Y-15365888D02*
X6723753Y-15384936D01*
X6723753Y-15384936D02*
X6714230Y-15394460D01*
X6714230Y-15394460D02*
X6695182Y-15403984D01*
X6695182Y-15403984D02*
X6666610Y-15403984D01*
X6847563Y-15403984D02*
X6828515Y-15394460D01*
X6828515Y-15394460D02*
X6818991Y-15375412D01*
X6818991Y-15375412D02*
X6818991Y-15203984D01*
X6999944Y-15394460D02*
X6980896Y-15403984D01*
X6980896Y-15403984D02*
X6942801Y-15403984D01*
X6942801Y-15403984D02*
X6923753Y-15394460D01*
X6923753Y-15394460D02*
X6914230Y-15375412D01*
X6914230Y-15375412D02*
X6914230Y-15299222D01*
X6914230Y-15299222D02*
X6923753Y-15280174D01*
X6923753Y-15280174D02*
X6942801Y-15270650D01*
X6942801Y-15270650D02*
X6980896Y-15270650D01*
X6980896Y-15270650D02*
X6999944Y-15280174D01*
X6999944Y-15280174D02*
X7009468Y-15299222D01*
X7009468Y-15299222D02*
X7009468Y-15318269D01*
X7009468Y-15318269D02*
X6914230Y-15337317D01*
X7085658Y-15394460D02*
X7104706Y-15403984D01*
X7104706Y-15403984D02*
X7142801Y-15403984D01*
X7142801Y-15403984D02*
X7161849Y-15394460D01*
X7161849Y-15394460D02*
X7171372Y-15375412D01*
X7171372Y-15375412D02*
X7171372Y-15365888D01*
X7171372Y-15365888D02*
X7161849Y-15346841D01*
X7161849Y-15346841D02*
X7142801Y-15337317D01*
X7142801Y-15337317D02*
X7114230Y-15337317D01*
X7114230Y-15337317D02*
X7095182Y-15327793D01*
X7095182Y-15327793D02*
X7085658Y-15308746D01*
X7085658Y-15308746D02*
X7085658Y-15299222D01*
X7085658Y-15299222D02*
X7095182Y-15280174D01*
X7095182Y-15280174D02*
X7114230Y-15270650D01*
X7114230Y-15270650D02*
X7142801Y-15270650D01*
X7142801Y-15270650D02*
X7161849Y-15280174D01*
X7238039Y-15480174D02*
X7247563Y-15470650D01*
X7247563Y-15470650D02*
X7266611Y-15442079D01*
X7266611Y-15442079D02*
X7276134Y-15423031D01*
X7276134Y-15423031D02*
X7285658Y-15394460D01*
X7285658Y-15394460D02*
X7295182Y-15346841D01*
X7295182Y-15346841D02*
X7295182Y-15308746D01*
X7295182Y-15308746D02*
X7285658Y-15261127D01*
X7285658Y-15261127D02*
X7276134Y-15232555D01*
X7276134Y-15232555D02*
X7266611Y-15213508D01*
X7266611Y-15213508D02*
X7247563Y-15184936D01*
X7247563Y-15184936D02*
X7238039Y-15175412D01*
X7599944Y-15480174D02*
X7590420Y-15470650D01*
X7590420Y-15470650D02*
X7571372Y-15442079D01*
X7571372Y-15442079D02*
X7561849Y-15423031D01*
X7561849Y-15423031D02*
X7552325Y-15394460D01*
X7552325Y-15394460D02*
X7542801Y-15346841D01*
X7542801Y-15346841D02*
X7542801Y-15308746D01*
X7542801Y-15308746D02*
X7552325Y-15261127D01*
X7552325Y-15261127D02*
X7561849Y-15232555D01*
X7561849Y-15232555D02*
X7571372Y-15213508D01*
X7571372Y-15213508D02*
X7590420Y-15184936D01*
X7590420Y-15184936D02*
X7599944Y-15175412D01*
X7676134Y-15270650D02*
X7676134Y-15403984D01*
X7676134Y-15289698D02*
X7685658Y-15280174D01*
X7685658Y-15280174D02*
X7704706Y-15270650D01*
X7704706Y-15270650D02*
X7733277Y-15270650D01*
X7733277Y-15270650D02*
X7752325Y-15280174D01*
X7752325Y-15280174D02*
X7761849Y-15299222D01*
X7761849Y-15299222D02*
X7761849Y-15403984D01*
X7885658Y-15403984D02*
X7866611Y-15394460D01*
X7866611Y-15394460D02*
X7857087Y-15384936D01*
X7857087Y-15384936D02*
X7847563Y-15365888D01*
X7847563Y-15365888D02*
X7847563Y-15308746D01*
X7847563Y-15308746D02*
X7857087Y-15289698D01*
X7857087Y-15289698D02*
X7866611Y-15280174D01*
X7866611Y-15280174D02*
X7885658Y-15270650D01*
X7885658Y-15270650D02*
X7914230Y-15270650D01*
X7914230Y-15270650D02*
X7933277Y-15280174D01*
X7933277Y-15280174D02*
X7942801Y-15289698D01*
X7942801Y-15289698D02*
X7952325Y-15308746D01*
X7952325Y-15308746D02*
X7952325Y-15365888D01*
X7952325Y-15365888D02*
X7942801Y-15384936D01*
X7942801Y-15384936D02*
X7933277Y-15394460D01*
X7933277Y-15394460D02*
X7914230Y-15403984D01*
X7914230Y-15403984D02*
X7885658Y-15403984D01*
X8009468Y-15270650D02*
X8085658Y-15270650D01*
X8038039Y-15203984D02*
X8038039Y-15375412D01*
X8038039Y-15375412D02*
X8047563Y-15394460D01*
X8047563Y-15394460D02*
X8066611Y-15403984D01*
X8066611Y-15403984D02*
X8085658Y-15403984D01*
X8304706Y-15270650D02*
X8304706Y-15470650D01*
X8304706Y-15280174D02*
X8323753Y-15270650D01*
X8323753Y-15270650D02*
X8361849Y-15270650D01*
X8361849Y-15270650D02*
X8380896Y-15280174D01*
X8380896Y-15280174D02*
X8390420Y-15289698D01*
X8390420Y-15289698D02*
X8399944Y-15308746D01*
X8399944Y-15308746D02*
X8399944Y-15365888D01*
X8399944Y-15365888D02*
X8390420Y-15384936D01*
X8390420Y-15384936D02*
X8380896Y-15394460D01*
X8380896Y-15394460D02*
X8361849Y-15403984D01*
X8361849Y-15403984D02*
X8323753Y-15403984D01*
X8323753Y-15403984D02*
X8304706Y-15394460D01*
X8514230Y-15403984D02*
X8495182Y-15394460D01*
X8495182Y-15394460D02*
X8485658Y-15375412D01*
X8485658Y-15375412D02*
X8485658Y-15203984D01*
X8676135Y-15403984D02*
X8676135Y-15299222D01*
X8676135Y-15299222D02*
X8666611Y-15280174D01*
X8666611Y-15280174D02*
X8647563Y-15270650D01*
X8647563Y-15270650D02*
X8609468Y-15270650D01*
X8609468Y-15270650D02*
X8590420Y-15280174D01*
X8676135Y-15394460D02*
X8657087Y-15403984D01*
X8657087Y-15403984D02*
X8609468Y-15403984D01*
X8609468Y-15403984D02*
X8590420Y-15394460D01*
X8590420Y-15394460D02*
X8580896Y-15375412D01*
X8580896Y-15375412D02*
X8580896Y-15356365D01*
X8580896Y-15356365D02*
X8590420Y-15337317D01*
X8590420Y-15337317D02*
X8609468Y-15327793D01*
X8609468Y-15327793D02*
X8657087Y-15327793D01*
X8657087Y-15327793D02*
X8676135Y-15318269D01*
X8742801Y-15270650D02*
X8818992Y-15270650D01*
X8771373Y-15203984D02*
X8771373Y-15375412D01*
X8771373Y-15375412D02*
X8780896Y-15394460D01*
X8780896Y-15394460D02*
X8799944Y-15403984D01*
X8799944Y-15403984D02*
X8818992Y-15403984D01*
X8961849Y-15394460D02*
X8942801Y-15403984D01*
X8942801Y-15403984D02*
X8904706Y-15403984D01*
X8904706Y-15403984D02*
X8885658Y-15394460D01*
X8885658Y-15394460D02*
X8876135Y-15375412D01*
X8876135Y-15375412D02*
X8876135Y-15299222D01*
X8876135Y-15299222D02*
X8885658Y-15280174D01*
X8885658Y-15280174D02*
X8904706Y-15270650D01*
X8904706Y-15270650D02*
X8942801Y-15270650D01*
X8942801Y-15270650D02*
X8961849Y-15280174D01*
X8961849Y-15280174D02*
X8971373Y-15299222D01*
X8971373Y-15299222D02*
X8971373Y-15318269D01*
X8971373Y-15318269D02*
X8876135Y-15337317D01*
X9142801Y-15403984D02*
X9142801Y-15203984D01*
X9142801Y-15394460D02*
X9123754Y-15403984D01*
X9123754Y-15403984D02*
X9085658Y-15403984D01*
X9085658Y-15403984D02*
X9066611Y-15394460D01*
X9066611Y-15394460D02*
X9057087Y-15384936D01*
X9057087Y-15384936D02*
X9047563Y-15365888D01*
X9047563Y-15365888D02*
X9047563Y-15308746D01*
X9047563Y-15308746D02*
X9057087Y-15289698D01*
X9057087Y-15289698D02*
X9066611Y-15280174D01*
X9066611Y-15280174D02*
X9085658Y-15270650D01*
X9085658Y-15270650D02*
X9123754Y-15270650D01*
X9123754Y-15270650D02*
X9142801Y-15280174D01*
X9218992Y-15480174D02*
X9228516Y-15470650D01*
X9228516Y-15470650D02*
X9247563Y-15442079D01*
X9247563Y-15442079D02*
X9257087Y-15423031D01*
X9257087Y-15423031D02*
X9266611Y-15394460D01*
X9266611Y-15394460D02*
X9276135Y-15346841D01*
X9276135Y-15346841D02*
X9276135Y-15308746D01*
X9276135Y-15308746D02*
X9266611Y-15261127D01*
X9266611Y-15261127D02*
X9257087Y-15232555D01*
X9257087Y-15232555D02*
X9247563Y-15213508D01*
X9247563Y-15213508D02*
X9228516Y-15184936D01*
X9228516Y-15184936D02*
X9218992Y-15175412D01*
M02*
