%TF.GenerationSoftware,KiCad,Pcbnew,9.0.2*%
%TF.CreationDate,2025-07-17T20:40:45+01:00*%
%TF.ProjectId,just-40-middle,6a757374-2d34-4302-9d6d-6964646c652e,rev?*%
%TF.SameCoordinates,Original*%
%TF.FileFunction,Paste,Bot*%
%TF.FilePolarity,Positive*%
%FSLAX46Y46*%
G04 Gerber Fmt 4.6, Leading zero omitted, Abs format (unit mm)*
G04 Created by KiCad (PCBNEW 9.0.2) date 2025-07-17 20:40:45*
%MOMM*%
%LPD*%
G01*
G04 APERTURE LIST*
G04 Aperture macros list*
%AMRoundRect*
0 Rectangle with rounded corners*
0 $1 Rounding radius*
0 $2 $3 $4 $5 $6 $7 $8 $9 X,Y pos of 4 corners*
0 Add a 4 corners polygon primitive as box body*
4,1,4,$2,$3,$4,$5,$6,$7,$8,$9,$2,$3,0*
0 Add four circle primitives for the rounded corners*
1,1,$1+$1,$2,$3*
1,1,$1+$1,$4,$5*
1,1,$1+$1,$6,$7*
1,1,$1+$1,$8,$9*
0 Add four rect primitives between the rounded corners*
20,1,$1+$1,$2,$3,$4,$5,0*
20,1,$1+$1,$4,$5,$6,$7,0*
20,1,$1+$1,$6,$7,$8,$9,0*
20,1,$1+$1,$8,$9,$2,$3,0*%
G04 Aperture macros list end*
%ADD10R,1.300000X0.820000*%
%ADD11R,2.000000X1.400000*%
%ADD12RoundRect,0.180000X0.420000X-0.420000X0.420000X0.420000X-0.420000X0.420000X-0.420000X-0.420000X0*%
%ADD13R,1.200000X1.200000*%
%ADD14RoundRect,0.180000X-0.420000X0.420000X-0.420000X-0.420000X0.420000X-0.420000X0.420000X0.420000X0*%
G04 APERTURE END LIST*
D10*
%TO.C,A37*%
X129000000Y-128575000D03*
X129000000Y-127075000D03*
X134600000Y-127075000D03*
X134600000Y-128575000D03*
D11*
X126500000Y-130675000D03*
X126500000Y-127075000D03*
D12*
X138750000Y-135550000D03*
D13*
X138750000Y-138750000D03*
%TD*%
D10*
%TO.C,A9*%
X187350000Y-70075000D03*
X187350000Y-71575000D03*
X181750000Y-71575000D03*
X181750000Y-70075000D03*
D11*
X191250000Y-73675000D03*
X191250000Y-70075000D03*
D14*
X191500000Y-81750000D03*
D13*
X191500000Y-78550000D03*
%TD*%
D10*
%TO.C,A21*%
X186000000Y-90575000D03*
X186000000Y-89075000D03*
X191600000Y-89075000D03*
X191600000Y-90575000D03*
D11*
X183500000Y-92675000D03*
X183500000Y-89075000D03*
D14*
X195750000Y-100750000D03*
D13*
X195750000Y-97550000D03*
%TD*%
D10*
%TO.C,A22*%
X205000000Y-90575000D03*
X205000000Y-89075000D03*
X210600000Y-89075000D03*
X210600000Y-90575000D03*
D11*
X202500000Y-92675000D03*
X202500000Y-89075000D03*
D14*
X214750000Y-100750000D03*
D13*
X214750000Y-97550000D03*
%TD*%
D10*
%TO.C,A17*%
X110000000Y-90575000D03*
X110000000Y-89075000D03*
X115600000Y-89075000D03*
X115600000Y-90575000D03*
D11*
X107500000Y-92675000D03*
X107500000Y-89075000D03*
D14*
X119750000Y-100750000D03*
D13*
X119750000Y-97550000D03*
%TD*%
D10*
%TO.C,A36*%
X96250000Y-128575000D03*
X96250000Y-127075000D03*
X101850000Y-127075000D03*
X101850000Y-128575000D03*
D11*
X93750000Y-130675000D03*
X93750000Y-127075000D03*
D14*
X106000000Y-138750000D03*
D13*
X106000000Y-135550000D03*
%TD*%
D10*
%TO.C,A18*%
X129000000Y-90575000D03*
X129000000Y-89075000D03*
X134600000Y-89075000D03*
X134600000Y-90575000D03*
D11*
X126500000Y-92675000D03*
X126500000Y-89075000D03*
D14*
X138750000Y-100750000D03*
D13*
X138750000Y-97550000D03*
%TD*%
D10*
%TO.C,A28*%
X125100000Y-108075000D03*
X125100000Y-109575000D03*
X119500000Y-109575000D03*
X119500000Y-108075000D03*
D11*
X129000000Y-111675000D03*
X129000000Y-108075000D03*
D14*
X129250000Y-119750000D03*
D13*
X129250000Y-116550000D03*
%TD*%
D10*
%TO.C,A33*%
X220100000Y-108075000D03*
X220100000Y-109575000D03*
X214500000Y-109575000D03*
X214500000Y-108075000D03*
D11*
X224000000Y-111675000D03*
X224000000Y-108075000D03*
D14*
X224250000Y-119750000D03*
D13*
X224250000Y-116550000D03*
%TD*%
D10*
%TO.C,A2*%
X54350000Y-70075000D03*
X54350000Y-71575000D03*
X48750000Y-71575000D03*
X48750000Y-70075000D03*
D11*
X58250000Y-73675000D03*
X58250000Y-70075000D03*
D14*
X58500000Y-81750000D03*
D13*
X58500000Y-78550000D03*
%TD*%
D10*
%TO.C,A35*%
X77250000Y-128575000D03*
X77250000Y-127075000D03*
X82850000Y-127075000D03*
X82850000Y-128575000D03*
D11*
X74750000Y-130675000D03*
X74750000Y-127075000D03*
D14*
X87000000Y-138750000D03*
D13*
X87000000Y-135550000D03*
%TD*%
D10*
%TO.C,A34*%
X58250000Y-128575000D03*
X58250000Y-127075000D03*
X63850000Y-127075000D03*
X63850000Y-128575000D03*
D11*
X55750000Y-130675000D03*
X55750000Y-127075000D03*
D14*
X68000000Y-138750000D03*
D13*
X68000000Y-135550000D03*
%TD*%
D10*
%TO.C,A29*%
X144100000Y-108075000D03*
X144100000Y-109575000D03*
X138500000Y-109575000D03*
X138500000Y-108075000D03*
D11*
X148000000Y-111675000D03*
X148000000Y-108075000D03*
D14*
X148250000Y-119750000D03*
D13*
X148250000Y-116550000D03*
%TD*%
D10*
%TO.C,A31*%
X182100000Y-108075000D03*
X182100000Y-109575000D03*
X176500000Y-109575000D03*
X176500000Y-108075000D03*
D11*
X186000000Y-111675000D03*
X186000000Y-108075000D03*
D14*
X186250000Y-119750000D03*
D13*
X186250000Y-116550000D03*
%TD*%
D10*
%TO.C,A7*%
X149350000Y-70075000D03*
X149350000Y-71575000D03*
X143750000Y-71575000D03*
X143750000Y-70075000D03*
D11*
X153250000Y-73675000D03*
X153250000Y-70075000D03*
D14*
X153500000Y-81750000D03*
D13*
X153500000Y-78550000D03*
%TD*%
D10*
%TO.C,A1*%
X35350000Y-70075000D03*
X35350000Y-71575000D03*
X29750000Y-71575000D03*
X29750000Y-70075000D03*
D11*
X39250000Y-73675000D03*
X39250000Y-70075000D03*
D14*
X39500000Y-81750000D03*
D13*
X39500000Y-78550000D03*
%TD*%
D10*
%TO.C,A27*%
X106100000Y-108075000D03*
X106100000Y-109575000D03*
X100500000Y-109575000D03*
X100500000Y-108075000D03*
D11*
X110000000Y-111675000D03*
X110000000Y-108075000D03*
D14*
X110250000Y-119750000D03*
D13*
X110250000Y-116550000D03*
%TD*%
D10*
%TO.C,A4*%
X92350000Y-70075000D03*
X92350000Y-71575000D03*
X86750000Y-71575000D03*
X86750000Y-70075000D03*
D11*
X96250000Y-73675000D03*
X96250000Y-70075000D03*
D14*
X96500000Y-81750000D03*
D13*
X96500000Y-78550000D03*
%TD*%
D10*
%TO.C,A23*%
X224000000Y-90575000D03*
X224000000Y-89075000D03*
X229600000Y-89075000D03*
X229600000Y-90575000D03*
D11*
X221500000Y-92675000D03*
X221500000Y-89075000D03*
D14*
X233750000Y-100750000D03*
D13*
X233750000Y-97550000D03*
%TD*%
D10*
%TO.C,A26*%
X87100000Y-108075000D03*
X87100000Y-109575000D03*
X81500000Y-109575000D03*
X81500000Y-108075000D03*
D11*
X91000000Y-111675000D03*
X91000000Y-108075000D03*
D14*
X91250000Y-119750000D03*
D13*
X91250000Y-116550000D03*
%TD*%
D10*
%TO.C,A40*%
X199750000Y-128575000D03*
X199750000Y-127075000D03*
X205350000Y-127075000D03*
X205350000Y-128575000D03*
D11*
X197250000Y-130675000D03*
X197250000Y-127075000D03*
D14*
X209500000Y-138750000D03*
D13*
X209500000Y-135550000D03*
%TD*%
D10*
%TO.C,A11*%
X225350000Y-70075000D03*
X225350000Y-71575000D03*
X219750000Y-71575000D03*
X219750000Y-70075000D03*
D11*
X229250000Y-73675000D03*
X229250000Y-70075000D03*
D14*
X229500000Y-81750000D03*
D13*
X229500000Y-78550000D03*
%TD*%
D10*
%TO.C,A24*%
X49100000Y-108075000D03*
X49100000Y-109575000D03*
X43500000Y-109575000D03*
X43500000Y-108075000D03*
D11*
X53000000Y-111675000D03*
X53000000Y-108075000D03*
D14*
X53250000Y-119750000D03*
D13*
X53250000Y-116550000D03*
%TD*%
D10*
%TO.C,A12*%
X244350000Y-70075000D03*
X244350000Y-71575000D03*
X238750000Y-71575000D03*
X238750000Y-70075000D03*
D11*
X248250000Y-73675000D03*
X248250000Y-70075000D03*
D14*
X248500000Y-81750000D03*
D13*
X248500000Y-78550000D03*
%TD*%
D10*
%TO.C,A10*%
X206350000Y-70075000D03*
X206350000Y-71575000D03*
X200750000Y-71575000D03*
X200750000Y-70075000D03*
D11*
X210250000Y-73675000D03*
X210250000Y-70075000D03*
D14*
X210500000Y-81750000D03*
D13*
X210500000Y-78550000D03*
%TD*%
D10*
%TO.C,A38*%
X161750000Y-128575000D03*
X161750000Y-127075000D03*
X167350000Y-127075000D03*
X167350000Y-128575000D03*
D11*
X159250000Y-130675000D03*
X159250000Y-127075000D03*
D14*
X171500000Y-138750000D03*
D13*
X171500000Y-135550000D03*
%TD*%
D10*
%TO.C,A19*%
X148000000Y-90575000D03*
X148000000Y-89075000D03*
X153600000Y-89075000D03*
X153600000Y-90575000D03*
D11*
X145500000Y-92675000D03*
X145500000Y-89075000D03*
D14*
X157750000Y-100750000D03*
D13*
X157750000Y-97550000D03*
%TD*%
D10*
%TO.C,A25*%
X68100000Y-108075000D03*
X68100000Y-109575000D03*
X62500000Y-109575000D03*
X62500000Y-108075000D03*
D11*
X72000000Y-111675000D03*
X72000000Y-108075000D03*
D14*
X72250000Y-119750000D03*
D13*
X72250000Y-116550000D03*
%TD*%
D10*
%TO.C,A8*%
X168350000Y-70075000D03*
X168350000Y-71575000D03*
X162750000Y-71575000D03*
X162750000Y-70075000D03*
D11*
X172250000Y-73675000D03*
X172250000Y-70075000D03*
D14*
X172500000Y-81750000D03*
D13*
X172500000Y-78550000D03*
%TD*%
D10*
%TO.C,A14*%
X53000000Y-90575000D03*
X53000000Y-89075000D03*
X58600000Y-89075000D03*
X58600000Y-90575000D03*
D11*
X50500000Y-92675000D03*
X50500000Y-89075000D03*
D14*
X62750000Y-100750000D03*
D13*
X62750000Y-97550000D03*
%TD*%
D10*
%TO.C,A13*%
X34000000Y-90575000D03*
X34000000Y-89075000D03*
X39600000Y-89075000D03*
X39600000Y-90575000D03*
D11*
X31500000Y-92675000D03*
X31500000Y-89075000D03*
D14*
X43750000Y-100750000D03*
D13*
X43750000Y-97550000D03*
%TD*%
D10*
%TO.C,A5*%
X111350000Y-70075000D03*
X111350000Y-71575000D03*
X105750000Y-71575000D03*
X105750000Y-70075000D03*
D11*
X115250000Y-73675000D03*
X115250000Y-70075000D03*
D14*
X115500000Y-81750000D03*
D13*
X115500000Y-78550000D03*
%TD*%
D10*
%TO.C,A15*%
X72000000Y-90575000D03*
X72000000Y-89075000D03*
X77600000Y-89075000D03*
X77600000Y-90575000D03*
D11*
X69500000Y-92675000D03*
X69500000Y-89075000D03*
D14*
X81750000Y-100750000D03*
D13*
X81750000Y-97550000D03*
%TD*%
D10*
%TO.C,A3*%
X73350000Y-70075000D03*
X73350000Y-71575000D03*
X67750000Y-71575000D03*
X67750000Y-70075000D03*
D11*
X77250000Y-73675000D03*
X77250000Y-70075000D03*
D14*
X77500000Y-81750000D03*
D13*
X77500000Y-78550000D03*
%TD*%
D10*
%TO.C,A16*%
X91000000Y-90575000D03*
X91000000Y-89075000D03*
X96600000Y-89075000D03*
X96600000Y-90575000D03*
D11*
X88500000Y-92675000D03*
X88500000Y-89075000D03*
D14*
X100750000Y-100750000D03*
D13*
X100750000Y-97550000D03*
%TD*%
D10*
%TO.C,A30*%
X163100000Y-108075000D03*
X163100000Y-109575000D03*
X157500000Y-109575000D03*
X157500000Y-108075000D03*
D11*
X167000000Y-111675000D03*
X167000000Y-108075000D03*
D14*
X167250000Y-119750000D03*
D13*
X167250000Y-116550000D03*
%TD*%
D10*
%TO.C,A6*%
X130350000Y-70075000D03*
X130350000Y-71575000D03*
X124750000Y-71575000D03*
X124750000Y-70075000D03*
D11*
X134250000Y-73675000D03*
X134250000Y-70075000D03*
D14*
X134500000Y-81750000D03*
D13*
X134500000Y-78550000D03*
%TD*%
D10*
%TO.C,A20*%
X167000000Y-90575000D03*
X167000000Y-89075000D03*
X172600000Y-89075000D03*
X172600000Y-90575000D03*
D11*
X164500000Y-92675000D03*
X164500000Y-89075000D03*
D14*
X176750000Y-100750000D03*
D13*
X176750000Y-97550000D03*
%TD*%
D10*
%TO.C,A39*%
X180750000Y-128575000D03*
X180750000Y-127075000D03*
X186350000Y-127075000D03*
X186350000Y-128575000D03*
D11*
X178250000Y-130675000D03*
X178250000Y-127075000D03*
D14*
X190500000Y-138750000D03*
D13*
X190500000Y-135550000D03*
%TD*%
D10*
%TO.C,A32*%
X201100000Y-108075000D03*
X201100000Y-109575000D03*
X195500000Y-109575000D03*
X195500000Y-108075000D03*
D11*
X205000000Y-111675000D03*
X205000000Y-108075000D03*
D14*
X205250000Y-119750000D03*
D13*
X205250000Y-116550000D03*
%TD*%
M02*
