%TF.GenerationSoftware,KiCad,Pcbnew,9.0.2*%
%TF.CreationDate,2025-07-17T20:40:45+01:00*%
%TF.ProjectId,just-40-middle,6a757374-2d34-4302-9d6d-6964646c652e,rev?*%
%TF.SameCoordinates,Original*%
%TF.FileFunction,Legend,Bot*%
%TF.FilePolarity,Positive*%
%FSLAX46Y46*%
G04 Gerber Fmt 4.6, Leading zero omitted, Abs format (unit mm)*
G04 Created by KiCad (PCBNEW 9.0.2) date 2025-07-17 20:40:45*
%MOMM*%
%LPD*%
G01*
G04 APERTURE LIST*
G04 Aperture macros list*
%AMRoundRect*
0 Rectangle with rounded corners*
0 $1 Rounding radius*
0 $2 $3 $4 $5 $6 $7 $8 $9 X,Y pos of 4 corners*
0 Add a 4 corners polygon primitive as box body*
4,1,4,$2,$3,$4,$5,$6,$7,$8,$9,$2,$3,0*
0 Add four circle primitives for the rounded corners*
1,1,$1+$1,$2,$3*
1,1,$1+$1,$4,$5*
1,1,$1+$1,$6,$7*
1,1,$1+$1,$8,$9*
0 Add four rect primitives between the rounded corners*
20,1,$1+$1,$2,$3,$4,$5,0*
20,1,$1+$1,$4,$5,$6,$7,0*
20,1,$1+$1,$6,$7,$8,$9,0*
20,1,$1+$1,$8,$9,$2,$3,0*%
G04 Aperture macros list end*
%ADD10C,0.100000*%
%ADD11C,2.000000*%
%ADD12C,5.100000*%
%ADD13R,1.300000X0.820000*%
%ADD14C,3.000000*%
%ADD15R,2.000000X1.400000*%
%ADD16RoundRect,0.180000X0.420000X-0.420000X0.420000X0.420000X-0.420000X0.420000X-0.420000X-0.420000X0*%
%ADD17R,1.200000X1.200000*%
%ADD18RoundRect,0.180000X-0.420000X0.420000X-0.420000X-0.420000X0.420000X-0.420000X0.420000X0.420000X0*%
%ADD19R,3.200000X1.600000*%
%ADD20R,1.600000X3.200000*%
G04 APERTURE END LIST*
D10*
X134295238Y-126314866D02*
X134904762Y-126314866D01*
X182054761Y-72335133D02*
X181445238Y-72335133D01*
X191295238Y-88314866D02*
X191904762Y-88314866D01*
X210295238Y-88314866D02*
X210904762Y-88314866D01*
X115295238Y-88314866D02*
X115904762Y-88314866D01*
X101545238Y-126314866D02*
X102154762Y-126314866D01*
X134295238Y-88314866D02*
X134904762Y-88314866D01*
X119804761Y-110335133D02*
X119195238Y-110335133D01*
X214804761Y-110335133D02*
X214195238Y-110335133D01*
X49054761Y-72335133D02*
X48445238Y-72335133D01*
X82545238Y-126314866D02*
X83154762Y-126314866D01*
X63545238Y-126314866D02*
X64154762Y-126314866D01*
X138804761Y-110335133D02*
X138195238Y-110335133D01*
X176804761Y-110335133D02*
X176195238Y-110335133D01*
X144054761Y-72335133D02*
X143445238Y-72335133D01*
X30054761Y-72335133D02*
X29445238Y-72335133D01*
X100804761Y-110335133D02*
X100195238Y-110335133D01*
X87054761Y-72335133D02*
X86445238Y-72335133D01*
X229295238Y-88314866D02*
X229904762Y-88314866D01*
X81804761Y-110335133D02*
X81195238Y-110335133D01*
X205045238Y-126314866D02*
X205654762Y-126314866D01*
X220054761Y-72335133D02*
X219445238Y-72335133D01*
X43804761Y-110335133D02*
X43195238Y-110335133D01*
X239054761Y-72335133D02*
X238445238Y-72335133D01*
X201054761Y-72335133D02*
X200445238Y-72335133D01*
X167045238Y-126314866D02*
X167654762Y-126314866D01*
X153295238Y-88314866D02*
X153904762Y-88314866D01*
X62804761Y-110335133D02*
X62195238Y-110335133D01*
X163054761Y-72335133D02*
X162445238Y-72335133D01*
X58295238Y-88314866D02*
X58904762Y-88314866D01*
X39295238Y-88314866D02*
X39904762Y-88314866D01*
X106054761Y-72335133D02*
X105445238Y-72335133D01*
X77295238Y-88314866D02*
X77904762Y-88314866D01*
X68054761Y-72335133D02*
X67445238Y-72335133D01*
X96295238Y-88314866D02*
X96904762Y-88314866D01*
X157804761Y-110335133D02*
X157195238Y-110335133D01*
X125054761Y-72335133D02*
X124445238Y-72335133D01*
X172295238Y-88314866D02*
X172904762Y-88314866D01*
X186045238Y-126314866D02*
X186654762Y-126314866D01*
X195804761Y-110335133D02*
X195195238Y-110335133D01*
%TO.C,A41*%
X232000000Y-135250000D02*
X233750000Y-135250000D01*
X246250000Y-135250000D02*
X248000000Y-135250000D01*
X248000000Y-111750000D02*
X232000000Y-111750000D01*
%TD*%
%LPC*%
D11*
%TO.C,H4*%
X250750000Y-67500000D03*
%TD*%
%TO.C,H1*%
X24750000Y-67500000D03*
%TD*%
D12*
%TO.C,A37*%
X132500000Y-133000000D03*
D13*
X129000000Y-128575000D03*
X129000000Y-127075000D03*
X134600000Y-127075000D03*
X134600000Y-128575000D03*
D14*
X128100000Y-137700000D03*
X135100000Y-138750000D03*
D15*
X126500000Y-130675000D03*
X126500000Y-127075000D03*
D16*
X138750000Y-135550000D03*
D17*
X138750000Y-138750000D03*
%TD*%
D12*
%TO.C,A9*%
X185250000Y-76000000D03*
D13*
X187350000Y-70075000D03*
X187350000Y-71575000D03*
X181750000Y-71575000D03*
X181750000Y-70075000D03*
D14*
X180850000Y-80700000D03*
X187850000Y-81750000D03*
D15*
X191250000Y-73675000D03*
X191250000Y-70075000D03*
D18*
X191500000Y-81750000D03*
D17*
X191500000Y-78550000D03*
%TD*%
D11*
%TO.C,H5*%
X24750000Y-141500000D03*
%TD*%
D12*
%TO.C,A21*%
X189500000Y-95000000D03*
D13*
X186000000Y-90575000D03*
X186000000Y-89075000D03*
X191600000Y-89075000D03*
X191600000Y-90575000D03*
D14*
X185100000Y-99700000D03*
X192100000Y-100750000D03*
D15*
X183500000Y-92675000D03*
X183500000Y-89075000D03*
D18*
X195750000Y-100750000D03*
D17*
X195750000Y-97550000D03*
%TD*%
D11*
%TO.C,H7*%
X174750000Y-141500000D03*
%TD*%
D12*
%TO.C,A22*%
X208500000Y-95000000D03*
D13*
X205000000Y-90575000D03*
X205000000Y-89075000D03*
X210600000Y-89075000D03*
X210600000Y-90575000D03*
D14*
X204100000Y-99700000D03*
X211100000Y-100750000D03*
D15*
X202500000Y-92675000D03*
X202500000Y-89075000D03*
D18*
X214750000Y-100750000D03*
D17*
X214750000Y-97550000D03*
%TD*%
D12*
%TO.C,A17*%
X113500000Y-95000000D03*
D13*
X110000000Y-90575000D03*
X110000000Y-89075000D03*
X115600000Y-89075000D03*
X115600000Y-90575000D03*
D14*
X109100000Y-99700000D03*
X116100000Y-100750000D03*
D15*
X107500000Y-92675000D03*
X107500000Y-89075000D03*
D18*
X119750000Y-100750000D03*
D17*
X119750000Y-97550000D03*
%TD*%
D12*
%TO.C,A36*%
X99750000Y-133000000D03*
D13*
X96250000Y-128575000D03*
X96250000Y-127075000D03*
X101850000Y-127075000D03*
X101850000Y-128575000D03*
D14*
X95350000Y-137700000D03*
X102350000Y-138750000D03*
D15*
X93750000Y-130675000D03*
X93750000Y-127075000D03*
D18*
X106000000Y-138750000D03*
D17*
X106000000Y-135550000D03*
%TD*%
D12*
%TO.C,A18*%
X132500000Y-95000000D03*
D13*
X129000000Y-90575000D03*
X129000000Y-89075000D03*
X134600000Y-89075000D03*
X134600000Y-90575000D03*
D14*
X128100000Y-99700000D03*
X135100000Y-100750000D03*
D15*
X126500000Y-92675000D03*
X126500000Y-89075000D03*
D18*
X138750000Y-100750000D03*
D17*
X138750000Y-97550000D03*
%TD*%
D12*
%TO.C,A28*%
X123000000Y-114000000D03*
D13*
X125100000Y-108075000D03*
X125100000Y-109575000D03*
X119500000Y-109575000D03*
X119500000Y-108075000D03*
D14*
X118600000Y-118700000D03*
X125600000Y-119750000D03*
D15*
X129000000Y-111675000D03*
X129000000Y-108075000D03*
D18*
X129250000Y-119750000D03*
D17*
X129250000Y-116550000D03*
%TD*%
D12*
%TO.C,A33*%
X218000000Y-114000000D03*
D13*
X220100000Y-108075000D03*
X220100000Y-109575000D03*
X214500000Y-109575000D03*
X214500000Y-108075000D03*
D14*
X213600000Y-118700000D03*
X220600000Y-119750000D03*
D15*
X224000000Y-111675000D03*
X224000000Y-108075000D03*
D18*
X224250000Y-119750000D03*
D17*
X224250000Y-116550000D03*
%TD*%
D12*
%TO.C,A2*%
X52250000Y-76000000D03*
D13*
X54350000Y-70075000D03*
X54350000Y-71575000D03*
X48750000Y-71575000D03*
X48750000Y-70075000D03*
D14*
X47850000Y-80700000D03*
X54850000Y-81750000D03*
D15*
X58250000Y-73675000D03*
X58250000Y-70075000D03*
D18*
X58500000Y-81750000D03*
D17*
X58500000Y-78550000D03*
%TD*%
D12*
%TO.C,A35*%
X80750000Y-133000000D03*
D13*
X77250000Y-128575000D03*
X77250000Y-127075000D03*
X82850000Y-127075000D03*
X82850000Y-128575000D03*
D14*
X76350000Y-137700000D03*
X83350000Y-138750000D03*
D15*
X74750000Y-130675000D03*
X74750000Y-127075000D03*
D18*
X87000000Y-138750000D03*
D17*
X87000000Y-135550000D03*
%TD*%
D11*
%TO.C,H8*%
X250750000Y-141500000D03*
%TD*%
D12*
%TO.C,A34*%
X61750000Y-133000000D03*
D13*
X58250000Y-128575000D03*
X58250000Y-127075000D03*
X63850000Y-127075000D03*
X63850000Y-128575000D03*
D14*
X57350000Y-137700000D03*
X64350000Y-138750000D03*
D15*
X55750000Y-130675000D03*
X55750000Y-127075000D03*
D18*
X68000000Y-138750000D03*
D17*
X68000000Y-135550000D03*
%TD*%
D12*
%TO.C,A29*%
X142000000Y-114000000D03*
D13*
X144100000Y-108075000D03*
X144100000Y-109575000D03*
X138500000Y-109575000D03*
X138500000Y-108075000D03*
D14*
X137600000Y-118700000D03*
X144600000Y-119750000D03*
D15*
X148000000Y-111675000D03*
X148000000Y-108075000D03*
D18*
X148250000Y-119750000D03*
D17*
X148250000Y-116550000D03*
%TD*%
D11*
%TO.C,H6*%
X90250000Y-141500000D03*
%TD*%
D12*
%TO.C,A31*%
X180000000Y-114000000D03*
D13*
X182100000Y-108075000D03*
X182100000Y-109575000D03*
X176500000Y-109575000D03*
X176500000Y-108075000D03*
D14*
X175600000Y-118700000D03*
X182600000Y-119750000D03*
D15*
X186000000Y-111675000D03*
X186000000Y-108075000D03*
D18*
X186250000Y-119750000D03*
D17*
X186250000Y-116550000D03*
%TD*%
D12*
%TO.C,A7*%
X147250000Y-76000000D03*
D13*
X149350000Y-70075000D03*
X149350000Y-71575000D03*
X143750000Y-71575000D03*
X143750000Y-70075000D03*
D14*
X142850000Y-80700000D03*
X149850000Y-81750000D03*
D15*
X153250000Y-73675000D03*
X153250000Y-70075000D03*
D18*
X153500000Y-81750000D03*
D17*
X153500000Y-78550000D03*
%TD*%
D12*
%TO.C,A1*%
X33250000Y-76000000D03*
D13*
X35350000Y-70075000D03*
X35350000Y-71575000D03*
X29750000Y-71575000D03*
X29750000Y-70075000D03*
D14*
X28850000Y-80700000D03*
X35850000Y-81750000D03*
D15*
X39250000Y-73675000D03*
X39250000Y-70075000D03*
D18*
X39500000Y-81750000D03*
D17*
X39500000Y-78550000D03*
%TD*%
D12*
%TO.C,A27*%
X104000000Y-114000000D03*
D13*
X106100000Y-108075000D03*
X106100000Y-109575000D03*
X100500000Y-109575000D03*
X100500000Y-108075000D03*
D14*
X99600000Y-118700000D03*
X106600000Y-119750000D03*
D15*
X110000000Y-111675000D03*
X110000000Y-108075000D03*
D18*
X110250000Y-119750000D03*
D17*
X110250000Y-116550000D03*
%TD*%
D12*
%TO.C,A4*%
X90250000Y-76000000D03*
D13*
X92350000Y-70075000D03*
X92350000Y-71575000D03*
X86750000Y-71575000D03*
X86750000Y-70075000D03*
D14*
X85850000Y-80700000D03*
X92850000Y-81750000D03*
D15*
X96250000Y-73675000D03*
X96250000Y-70075000D03*
D18*
X96500000Y-81750000D03*
D17*
X96500000Y-78550000D03*
%TD*%
D12*
%TO.C,A23*%
X227500000Y-95000000D03*
D13*
X224000000Y-90575000D03*
X224000000Y-89075000D03*
X229600000Y-89075000D03*
X229600000Y-90575000D03*
D14*
X223100000Y-99700000D03*
X230100000Y-100750000D03*
D15*
X221500000Y-92675000D03*
X221500000Y-89075000D03*
D18*
X233750000Y-100750000D03*
D17*
X233750000Y-97550000D03*
%TD*%
D19*
%TO.C,A41*%
X231580000Y-113340000D03*
X231580000Y-115880000D03*
X231580000Y-118420000D03*
X231580000Y-120960000D03*
X248420000Y-118420000D03*
X231580000Y-123500000D03*
X231580000Y-126040000D03*
X248420000Y-113340000D03*
X231580000Y-128580000D03*
X231580000Y-131120000D03*
X231580000Y-133660000D03*
D20*
X234920000Y-134670000D03*
X237460000Y-134670000D03*
X240000000Y-134670000D03*
X242540000Y-134670000D03*
X245080000Y-134670000D03*
D19*
X248420000Y-133660000D03*
X248420000Y-131120000D03*
X248420000Y-128580000D03*
X248420000Y-126040000D03*
X248420000Y-123500000D03*
X248420000Y-120960000D03*
X248420000Y-115880000D03*
%TD*%
D12*
%TO.C,A26*%
X85000000Y-114000000D03*
D13*
X87100000Y-108075000D03*
X87100000Y-109575000D03*
X81500000Y-109575000D03*
X81500000Y-108075000D03*
D14*
X80600000Y-118700000D03*
X87600000Y-119750000D03*
D15*
X91000000Y-111675000D03*
X91000000Y-108075000D03*
D18*
X91250000Y-119750000D03*
D17*
X91250000Y-116550000D03*
%TD*%
D12*
%TO.C,A40*%
X203250000Y-133000000D03*
D13*
X199750000Y-128575000D03*
X199750000Y-127075000D03*
X205350000Y-127075000D03*
X205350000Y-128575000D03*
D14*
X198850000Y-137700000D03*
X205850000Y-138750000D03*
D15*
X197250000Y-130675000D03*
X197250000Y-127075000D03*
D18*
X209500000Y-138750000D03*
D17*
X209500000Y-135550000D03*
%TD*%
D12*
%TO.C,A11*%
X223250000Y-76000000D03*
D13*
X225350000Y-70075000D03*
X225350000Y-71575000D03*
X219750000Y-71575000D03*
X219750000Y-70075000D03*
D14*
X218850000Y-80700000D03*
X225850000Y-81750000D03*
D15*
X229250000Y-73675000D03*
X229250000Y-70075000D03*
D18*
X229500000Y-81750000D03*
D17*
X229500000Y-78550000D03*
%TD*%
D12*
%TO.C,A24*%
X47000000Y-114000000D03*
D13*
X49100000Y-108075000D03*
X49100000Y-109575000D03*
X43500000Y-109575000D03*
X43500000Y-108075000D03*
D14*
X42600000Y-118700000D03*
X49600000Y-119750000D03*
D15*
X53000000Y-111675000D03*
X53000000Y-108075000D03*
D18*
X53250000Y-119750000D03*
D17*
X53250000Y-116550000D03*
%TD*%
D12*
%TO.C,A12*%
X242250000Y-76000000D03*
D13*
X244350000Y-70075000D03*
X244350000Y-71575000D03*
X238750000Y-71575000D03*
X238750000Y-70075000D03*
D14*
X237850000Y-80700000D03*
X244850000Y-81750000D03*
D15*
X248250000Y-73675000D03*
X248250000Y-70075000D03*
D18*
X248500000Y-81750000D03*
D17*
X248500000Y-78550000D03*
%TD*%
D12*
%TO.C,A10*%
X204250000Y-76000000D03*
D13*
X206350000Y-70075000D03*
X206350000Y-71575000D03*
X200750000Y-71575000D03*
X200750000Y-70075000D03*
D14*
X199850000Y-80700000D03*
X206850000Y-81750000D03*
D15*
X210250000Y-73675000D03*
X210250000Y-70075000D03*
D18*
X210500000Y-81750000D03*
D17*
X210500000Y-78550000D03*
%TD*%
D12*
%TO.C,A38*%
X165250000Y-133000000D03*
D13*
X161750000Y-128575000D03*
X161750000Y-127075000D03*
X167350000Y-127075000D03*
X167350000Y-128575000D03*
D14*
X160850000Y-137700000D03*
X167850000Y-138750000D03*
D15*
X159250000Y-130675000D03*
X159250000Y-127075000D03*
D18*
X171500000Y-138750000D03*
D17*
X171500000Y-135550000D03*
%TD*%
D12*
%TO.C,A19*%
X151500000Y-95000000D03*
D13*
X148000000Y-90575000D03*
X148000000Y-89075000D03*
X153600000Y-89075000D03*
X153600000Y-90575000D03*
D14*
X147100000Y-99700000D03*
X154100000Y-100750000D03*
D15*
X145500000Y-92675000D03*
X145500000Y-89075000D03*
D18*
X157750000Y-100750000D03*
D17*
X157750000Y-97550000D03*
%TD*%
D12*
%TO.C,A25*%
X66000000Y-114000000D03*
D13*
X68100000Y-108075000D03*
X68100000Y-109575000D03*
X62500000Y-109575000D03*
X62500000Y-108075000D03*
D14*
X61600000Y-118700000D03*
X68600000Y-119750000D03*
D15*
X72000000Y-111675000D03*
X72000000Y-108075000D03*
D18*
X72250000Y-119750000D03*
D17*
X72250000Y-116550000D03*
%TD*%
D12*
%TO.C,A8*%
X166250000Y-76000000D03*
D13*
X168350000Y-70075000D03*
X168350000Y-71575000D03*
X162750000Y-71575000D03*
X162750000Y-70075000D03*
D14*
X161850000Y-80700000D03*
X168850000Y-81750000D03*
D15*
X172250000Y-73675000D03*
X172250000Y-70075000D03*
D18*
X172500000Y-81750000D03*
D17*
X172500000Y-78550000D03*
%TD*%
D11*
%TO.C,H3*%
X175750000Y-67500000D03*
%TD*%
D12*
%TO.C,A14*%
X56500000Y-95000000D03*
D13*
X53000000Y-90575000D03*
X53000000Y-89075000D03*
X58600000Y-89075000D03*
X58600000Y-90575000D03*
D14*
X52100000Y-99700000D03*
X59100000Y-100750000D03*
D15*
X50500000Y-92675000D03*
X50500000Y-89075000D03*
D18*
X62750000Y-100750000D03*
D17*
X62750000Y-97550000D03*
%TD*%
D12*
%TO.C,A13*%
X37500000Y-95000000D03*
D13*
X34000000Y-90575000D03*
X34000000Y-89075000D03*
X39600000Y-89075000D03*
X39600000Y-90575000D03*
D14*
X33100000Y-99700000D03*
X40100000Y-100750000D03*
D15*
X31500000Y-92675000D03*
X31500000Y-89075000D03*
D18*
X43750000Y-100750000D03*
D17*
X43750000Y-97550000D03*
%TD*%
D12*
%TO.C,A5*%
X109250000Y-76000000D03*
D13*
X111350000Y-70075000D03*
X111350000Y-71575000D03*
X105750000Y-71575000D03*
X105750000Y-70075000D03*
D14*
X104850000Y-80700000D03*
X111850000Y-81750000D03*
D15*
X115250000Y-73675000D03*
X115250000Y-70075000D03*
D18*
X115500000Y-81750000D03*
D17*
X115500000Y-78550000D03*
%TD*%
D12*
%TO.C,A15*%
X75500000Y-95000000D03*
D13*
X72000000Y-90575000D03*
X72000000Y-89075000D03*
X77600000Y-89075000D03*
X77600000Y-90575000D03*
D14*
X71100000Y-99700000D03*
X78100000Y-100750000D03*
D15*
X69500000Y-92675000D03*
X69500000Y-89075000D03*
D18*
X81750000Y-100750000D03*
D17*
X81750000Y-97550000D03*
%TD*%
D12*
%TO.C,A3*%
X71250000Y-76000000D03*
D13*
X73350000Y-70075000D03*
X73350000Y-71575000D03*
X67750000Y-71575000D03*
X67750000Y-70075000D03*
D14*
X66850000Y-80700000D03*
X73850000Y-81750000D03*
D15*
X77250000Y-73675000D03*
X77250000Y-70075000D03*
D18*
X77500000Y-81750000D03*
D17*
X77500000Y-78550000D03*
%TD*%
D12*
%TO.C,A16*%
X94500000Y-95000000D03*
D13*
X91000000Y-90575000D03*
X91000000Y-89075000D03*
X96600000Y-89075000D03*
X96600000Y-90575000D03*
D14*
X90100000Y-99700000D03*
X97100000Y-100750000D03*
D15*
X88500000Y-92675000D03*
X88500000Y-89075000D03*
D18*
X100750000Y-100750000D03*
D17*
X100750000Y-97550000D03*
%TD*%
D12*
%TO.C,A30*%
X161000000Y-114000000D03*
D13*
X163100000Y-108075000D03*
X163100000Y-109575000D03*
X157500000Y-109575000D03*
X157500000Y-108075000D03*
D14*
X156600000Y-118700000D03*
X163600000Y-119750000D03*
D15*
X167000000Y-111675000D03*
X167000000Y-108075000D03*
D18*
X167250000Y-119750000D03*
D17*
X167250000Y-116550000D03*
%TD*%
D12*
%TO.C,A6*%
X128250000Y-76000000D03*
D13*
X130350000Y-70075000D03*
X130350000Y-71575000D03*
X124750000Y-71575000D03*
X124750000Y-70075000D03*
D14*
X123850000Y-80700000D03*
X130850000Y-81750000D03*
D15*
X134250000Y-73675000D03*
X134250000Y-70075000D03*
D18*
X134500000Y-81750000D03*
D17*
X134500000Y-78550000D03*
%TD*%
D12*
%TO.C,A20*%
X170500000Y-95000000D03*
D13*
X167000000Y-90575000D03*
X167000000Y-89075000D03*
X172600000Y-89075000D03*
X172600000Y-90575000D03*
D14*
X166100000Y-99700000D03*
X173100000Y-100750000D03*
D15*
X164500000Y-92675000D03*
X164500000Y-89075000D03*
D18*
X176750000Y-100750000D03*
D17*
X176750000Y-97550000D03*
%TD*%
D12*
%TO.C,A39*%
X184250000Y-133000000D03*
D13*
X180750000Y-128575000D03*
X180750000Y-127075000D03*
X186350000Y-127075000D03*
X186350000Y-128575000D03*
D14*
X179850000Y-137700000D03*
X186850000Y-138750000D03*
D15*
X178250000Y-130675000D03*
X178250000Y-127075000D03*
D18*
X190500000Y-138750000D03*
D17*
X190500000Y-135550000D03*
%TD*%
D12*
%TO.C,A32*%
X199000000Y-114000000D03*
D13*
X201100000Y-108075000D03*
X201100000Y-109575000D03*
X195500000Y-109575000D03*
X195500000Y-108075000D03*
D14*
X194600000Y-118700000D03*
X201600000Y-119750000D03*
D15*
X205000000Y-111675000D03*
X205000000Y-108075000D03*
D18*
X205250000Y-119750000D03*
D17*
X205250000Y-116550000D03*
%TD*%
D11*
%TO.C,H2*%
X99750000Y-67500000D03*
%TD*%
%LPD*%
M02*
