%TF.GenerationSoftware,KiCad,Pcbnew,9.0.2*%
%TF.CreationDate,2025-07-17T20:40:45+01:00*%
%TF.ProjectId,just-40-middle,6a757374-2d34-4302-9d6d-6964646c652e,rev?*%
%TF.SameCoordinates,Original*%
%TF.FileFunction,Profile,NP*%
%FSLAX46Y46*%
G04 Gerber Fmt 4.6, Leading zero omitted, Abs format (unit mm)*
G04 Created by KiCad (PCBNEW 9.0.2) date 2025-07-17 20:40:45*
%MOMM*%
%LPD*%
G01*
G04 APERTURE LIST*
%TA.AperFunction,Profile*%
%ADD10C,0.050000*%
%TD*%
G04 APERTURE END LIST*
D10*
X251750000Y-65500000D02*
G75*
G02*
X252750000Y-66500000I0J-1000000D01*
G01*
X252750000Y-142500000D02*
G75*
G02*
X251750000Y-143500000I-1000000J0D01*
G01*
X23750000Y-143500000D02*
G75*
G02*
X22750000Y-142500000I0J1000000D01*
G01*
X251750000Y-65500000D02*
X23750000Y-65500000D01*
X22750000Y-66500000D02*
G75*
G02*
X23750000Y-65500000I1000000J0D01*
G01*
X251750000Y-143500000D02*
X23750000Y-143500000D01*
X252750000Y-66500000D02*
X252750000Y-142500000D01*
X22750000Y-142500000D02*
X22750000Y-66500000D01*
%TO.C,A37*%
X116300000Y-131950000D02*
X116300000Y-134750000D01*
X116800000Y-135250000D02*
X117200000Y-135250000D01*
X117200000Y-126200000D02*
X119000000Y-126200000D01*
X117200000Y-127200000D02*
X117200000Y-131450000D01*
X117200000Y-131450000D02*
X116800000Y-131450000D01*
X117200000Y-135250000D02*
X117200000Y-137500000D01*
X119000000Y-126200000D02*
X119000000Y-125500000D01*
X121500000Y-125000000D02*
X119500000Y-125000000D01*
X122000000Y-126200000D02*
X122000000Y-125500000D01*
X123800000Y-126200000D02*
X122000000Y-126200000D01*
X123800000Y-127200000D02*
X123800000Y-131450000D01*
X123800000Y-135250000D02*
X123800000Y-137500000D01*
X123800000Y-135250000D02*
X124200000Y-135250000D01*
X123800000Y-138500000D02*
X117200000Y-138500000D01*
X124200000Y-131450000D02*
X123800000Y-131450000D01*
X124700000Y-134750000D02*
X124700000Y-131950000D01*
X130200000Y-128925000D02*
X130200002Y-126725000D01*
X130700002Y-126225000D02*
X132900003Y-126225000D01*
X132900001Y-129425000D02*
X130700000Y-129425000D01*
X133400002Y-128925000D02*
X133400002Y-126724999D01*
X140300000Y-131950000D02*
X140300000Y-134750000D01*
X140800000Y-135250000D02*
X141200000Y-135250000D01*
X141200000Y-126200000D02*
X143000000Y-126200000D01*
X141200000Y-127200000D02*
X141200000Y-131450000D01*
X141200000Y-131450000D02*
X140800000Y-131450000D01*
X141200000Y-135250000D02*
X141200000Y-137500000D01*
X143000000Y-126200000D02*
X143000000Y-125500000D01*
X145500000Y-125000000D02*
X143500000Y-125000000D01*
X146000000Y-126200000D02*
X146000000Y-125500000D01*
X147800000Y-126200000D02*
X146000000Y-126200000D01*
X147800000Y-127200000D02*
X147800000Y-131450000D01*
X147800000Y-135250000D02*
X147800000Y-137500000D01*
X147800000Y-135250000D02*
X148200000Y-135250000D01*
X147800000Y-138500000D02*
X141200000Y-138500000D01*
X148200000Y-131450000D02*
X147800000Y-131450000D01*
X148700000Y-134750000D02*
X148700000Y-131950000D01*
X116300000Y-131950000D02*
G75*
G02*
X116800000Y-131450000I500001J-1D01*
G01*
X116800000Y-135250000D02*
G75*
G02*
X116300000Y-134750000I1J500001D01*
G01*
X117200000Y-127200000D02*
G75*
G02*
X117200000Y-126200000I0J500000D01*
G01*
X117200000Y-138500000D02*
G75*
G02*
X117200000Y-137500000I0J500000D01*
G01*
X119000000Y-125500000D02*
G75*
G02*
X119500000Y-125000000I500001J-1D01*
G01*
X121500000Y-125000000D02*
G75*
G02*
X122000000Y-125500000I-1J-500001D01*
G01*
X123800000Y-126200000D02*
G75*
G02*
X123800000Y-127200000I0J-500000D01*
G01*
X123800000Y-137500000D02*
G75*
G02*
X123800000Y-138500000I0J-500000D01*
G01*
X124200000Y-131450000D02*
G75*
G02*
X124700000Y-131950000I-1J-500001D01*
G01*
X124700000Y-134750000D02*
G75*
G02*
X124200000Y-135250000I-500001J1D01*
G01*
X130200002Y-126725000D02*
G75*
G02*
X130700002Y-126225000I500001J-1D01*
G01*
X130700000Y-129425000D02*
G75*
G02*
X130200000Y-128925000I1J500001D01*
G01*
X132900004Y-126224999D02*
G75*
G02*
X133400001Y-126724999I-4J-500001D01*
G01*
X133400002Y-128925000D02*
G75*
G02*
X132900002Y-129425002I-500002J0D01*
G01*
X140300000Y-131950000D02*
G75*
G02*
X140800000Y-131450000I500000J0D01*
G01*
X140800000Y-135250000D02*
G75*
G02*
X140300000Y-134750000I0J500000D01*
G01*
X141200000Y-127200000D02*
G75*
G02*
X141200000Y-126200000I0J500000D01*
G01*
X141200000Y-138500000D02*
G75*
G02*
X141200000Y-137500000I0J500000D01*
G01*
X143000000Y-125500000D02*
G75*
G02*
X143500000Y-125000000I500000J0D01*
G01*
X145500000Y-125000000D02*
G75*
G02*
X146000000Y-125500000I0J-500000D01*
G01*
X147800000Y-126200000D02*
G75*
G02*
X147800000Y-127200000I0J-500000D01*
G01*
X147800000Y-137500000D02*
G75*
G02*
X147800000Y-138500000I0J-500000D01*
G01*
X148200000Y-131450000D02*
G75*
G02*
X148700000Y-131950000I0J-500000D01*
G01*
X148700000Y-134750000D02*
G75*
G02*
X148200000Y-135250000I-500000J0D01*
G01*
%TO.C,A9*%
X182949998Y-69725000D02*
X182949998Y-71925001D01*
X183449999Y-69225000D02*
X185650000Y-69225000D01*
X185649998Y-72425000D02*
X183449997Y-72425000D01*
X186150000Y-69725000D02*
X186149998Y-71925000D01*
X182949998Y-69725000D02*
G75*
G02*
X183449998Y-69225000I500001J-1D01*
G01*
X183449996Y-72425001D02*
G75*
G02*
X182949996Y-71925001I1J500001D01*
G01*
X185650000Y-69225000D02*
G75*
G02*
X186150000Y-69725000I0J-500000D01*
G01*
X186149998Y-71925000D02*
G75*
G02*
X185649998Y-72425000I-500001J1D01*
G01*
%TO.C,A21*%
X187200000Y-90925000D02*
X187200002Y-88725000D01*
X187700002Y-88225000D02*
X189900003Y-88225000D01*
X189900001Y-91425000D02*
X187700000Y-91425000D01*
X190400002Y-90925000D02*
X190400002Y-88724999D01*
X187200002Y-88725000D02*
G75*
G02*
X187700002Y-88225000I500001J-1D01*
G01*
X187700000Y-91425000D02*
G75*
G02*
X187200000Y-90925000I1J500001D01*
G01*
X189900004Y-88224999D02*
G75*
G02*
X190400001Y-88724999I-4J-500001D01*
G01*
X190400002Y-90925000D02*
G75*
G02*
X189900002Y-91425002I-500002J0D01*
G01*
%TO.C,A22*%
X206200000Y-90925000D02*
X206200002Y-88725000D01*
X206700002Y-88225000D02*
X208900003Y-88225000D01*
X208900001Y-91425000D02*
X206700000Y-91425000D01*
X209400002Y-90925000D02*
X209400002Y-88724999D01*
X206200002Y-88725000D02*
G75*
G02*
X206700002Y-88225000I500001J-1D01*
G01*
X206700000Y-91425000D02*
G75*
G02*
X206200000Y-90925000I1J500001D01*
G01*
X208900004Y-88224999D02*
G75*
G02*
X209400001Y-88724999I-4J-500001D01*
G01*
X209400002Y-90925000D02*
G75*
G02*
X208900002Y-91425002I-500002J0D01*
G01*
%TO.C,A17*%
X111200000Y-90925000D02*
X111200002Y-88725000D01*
X111700002Y-88225000D02*
X113900003Y-88225000D01*
X113900001Y-91425000D02*
X111700000Y-91425000D01*
X114400002Y-90925000D02*
X114400002Y-88724999D01*
X111200002Y-88725000D02*
G75*
G02*
X111700002Y-88225000I500001J-1D01*
G01*
X111700000Y-91425000D02*
G75*
G02*
X111200000Y-90925000I1J500001D01*
G01*
X113900004Y-88224999D02*
G75*
G02*
X114400001Y-88724999I-4J-500001D01*
G01*
X114400002Y-90925000D02*
G75*
G02*
X113900002Y-91425002I-500002J0D01*
G01*
%TO.C,A36*%
X97450000Y-128925000D02*
X97450002Y-126725000D01*
X97950002Y-126225000D02*
X100150003Y-126225000D01*
X100150001Y-129425000D02*
X97950000Y-129425000D01*
X100650002Y-128925000D02*
X100650002Y-126724999D01*
X97450002Y-126725000D02*
G75*
G02*
X97950002Y-126225000I500001J-1D01*
G01*
X97950000Y-129425000D02*
G75*
G02*
X97450000Y-128925000I1J500001D01*
G01*
X100150004Y-126224999D02*
G75*
G02*
X100650001Y-126724999I-4J-500001D01*
G01*
X100650002Y-128925000D02*
G75*
G02*
X100150002Y-129425002I-500002J0D01*
G01*
%TO.C,A18*%
X130200000Y-90925000D02*
X130200002Y-88725000D01*
X130700002Y-88225000D02*
X132900003Y-88225000D01*
X132900001Y-91425000D02*
X130700000Y-91425000D01*
X133400002Y-90925000D02*
X133400002Y-88724999D01*
X130200002Y-88725000D02*
G75*
G02*
X130700002Y-88225000I500001J-1D01*
G01*
X130700000Y-91425000D02*
G75*
G02*
X130200000Y-90925000I1J500001D01*
G01*
X132900004Y-88224999D02*
G75*
G02*
X133400001Y-88724999I-4J-500001D01*
G01*
X133400002Y-90925000D02*
G75*
G02*
X132900002Y-91425002I-500002J0D01*
G01*
%TO.C,A28*%
X120699998Y-107725000D02*
X120699998Y-109925001D01*
X121199999Y-107225000D02*
X123400000Y-107225000D01*
X123399998Y-110425000D02*
X121199997Y-110425000D01*
X123900000Y-107725000D02*
X123899998Y-109925000D01*
X120699998Y-107725000D02*
G75*
G02*
X121199998Y-107225000I500001J-1D01*
G01*
X121199996Y-110425001D02*
G75*
G02*
X120699996Y-109925001I1J500001D01*
G01*
X123400000Y-107225000D02*
G75*
G02*
X123900000Y-107725000I0J-500000D01*
G01*
X123899998Y-109925000D02*
G75*
G02*
X123399998Y-110425000I-500001J1D01*
G01*
%TO.C,A33*%
X215699998Y-107725000D02*
X215699998Y-109925001D01*
X216199999Y-107225000D02*
X218400000Y-107225000D01*
X218399998Y-110425000D02*
X216199997Y-110425000D01*
X218900000Y-107725000D02*
X218899998Y-109925000D01*
X215699998Y-107725000D02*
G75*
G02*
X216199998Y-107225000I500001J-1D01*
G01*
X216199996Y-110425001D02*
G75*
G02*
X215699996Y-109925001I1J500001D01*
G01*
X218400000Y-107225000D02*
G75*
G02*
X218900000Y-107725000I0J-500000D01*
G01*
X218899998Y-109925000D02*
G75*
G02*
X218399998Y-110425000I-500001J1D01*
G01*
%TO.C,A2*%
X49949998Y-69725000D02*
X49949998Y-71925001D01*
X50449999Y-69225000D02*
X52650000Y-69225000D01*
X52649998Y-72425000D02*
X50449997Y-72425000D01*
X53150000Y-69725000D02*
X53149998Y-71925000D01*
X49949998Y-69725000D02*
G75*
G02*
X50449998Y-69225000I500001J-1D01*
G01*
X50449996Y-72425001D02*
G75*
G02*
X49949996Y-71925001I1J500001D01*
G01*
X52650000Y-69225000D02*
G75*
G02*
X53150000Y-69725000I0J-500000D01*
G01*
X53149998Y-71925000D02*
G75*
G02*
X52649998Y-72425000I-500001J1D01*
G01*
%TO.C,A35*%
X78450000Y-128925000D02*
X78450002Y-126725000D01*
X78950002Y-126225000D02*
X81150003Y-126225000D01*
X81150001Y-129425000D02*
X78950000Y-129425000D01*
X81650002Y-128925000D02*
X81650002Y-126724999D01*
X78450002Y-126725000D02*
G75*
G02*
X78950002Y-126225000I500001J-1D01*
G01*
X78950000Y-129425000D02*
G75*
G02*
X78450000Y-128925000I1J500001D01*
G01*
X81150004Y-126224999D02*
G75*
G02*
X81650001Y-126724999I-4J-500001D01*
G01*
X81650002Y-128925000D02*
G75*
G02*
X81150002Y-129425002I-500002J0D01*
G01*
%TO.C,A34*%
X59450000Y-128925000D02*
X59450002Y-126725000D01*
X59950002Y-126225000D02*
X62150003Y-126225000D01*
X62150001Y-129425000D02*
X59950000Y-129425000D01*
X62650002Y-128925000D02*
X62650002Y-126724999D01*
X59450002Y-126725000D02*
G75*
G02*
X59950002Y-126225000I500001J-1D01*
G01*
X59950000Y-129425000D02*
G75*
G02*
X59450000Y-128925000I1J500001D01*
G01*
X62150004Y-126224999D02*
G75*
G02*
X62650001Y-126724999I-4J-500001D01*
G01*
X62650002Y-128925000D02*
G75*
G02*
X62150002Y-129425002I-500002J0D01*
G01*
%TO.C,A29*%
X139699998Y-107725000D02*
X139699998Y-109925001D01*
X140199999Y-107225000D02*
X142400000Y-107225000D01*
X142399998Y-110425000D02*
X140199997Y-110425000D01*
X142900000Y-107725000D02*
X142899998Y-109925000D01*
X139699998Y-107725000D02*
G75*
G02*
X140199998Y-107225000I500001J-1D01*
G01*
X140199996Y-110425001D02*
G75*
G02*
X139699996Y-109925001I1J500001D01*
G01*
X142400000Y-107225000D02*
G75*
G02*
X142900000Y-107725000I0J-500000D01*
G01*
X142899998Y-109925000D02*
G75*
G02*
X142399998Y-110425000I-500001J1D01*
G01*
%TO.C,A31*%
X177699998Y-107725000D02*
X177699998Y-109925001D01*
X178199999Y-107225000D02*
X180400000Y-107225000D01*
X180399998Y-110425000D02*
X178199997Y-110425000D01*
X180900000Y-107725000D02*
X180899998Y-109925000D01*
X177699998Y-107725000D02*
G75*
G02*
X178199998Y-107225000I500001J-1D01*
G01*
X178199996Y-110425001D02*
G75*
G02*
X177699996Y-109925001I1J500001D01*
G01*
X180400000Y-107225000D02*
G75*
G02*
X180900000Y-107725000I0J-500000D01*
G01*
X180899998Y-109925000D02*
G75*
G02*
X180399998Y-110425000I-500001J1D01*
G01*
%TO.C,A7*%
X144949998Y-69725000D02*
X144949998Y-71925001D01*
X145449999Y-69225000D02*
X147650000Y-69225000D01*
X147649998Y-72425000D02*
X145449997Y-72425000D01*
X148150000Y-69725000D02*
X148149998Y-71925000D01*
X144949998Y-69725000D02*
G75*
G02*
X145449998Y-69225000I500001J-1D01*
G01*
X145449996Y-72425001D02*
G75*
G02*
X144949996Y-71925001I1J500001D01*
G01*
X147650000Y-69225000D02*
G75*
G02*
X148150000Y-69725000I0J-500000D01*
G01*
X148149998Y-71925000D02*
G75*
G02*
X147649998Y-72425000I-500001J1D01*
G01*
%TO.C,A1*%
X30949998Y-69725000D02*
X30949998Y-71925001D01*
X31449999Y-69225000D02*
X33650000Y-69225000D01*
X33649998Y-72425000D02*
X31449997Y-72425000D01*
X34150000Y-69725000D02*
X34149998Y-71925000D01*
X30949998Y-69725000D02*
G75*
G02*
X31449998Y-69225000I500001J-1D01*
G01*
X31449996Y-72425001D02*
G75*
G02*
X30949996Y-71925001I1J500001D01*
G01*
X33650000Y-69225000D02*
G75*
G02*
X34150000Y-69725000I0J-500000D01*
G01*
X34149998Y-71925000D02*
G75*
G02*
X33649998Y-72425000I-500001J1D01*
G01*
%TO.C,A27*%
X101699998Y-107725000D02*
X101699998Y-109925001D01*
X102199999Y-107225000D02*
X104400000Y-107225000D01*
X104399998Y-110425000D02*
X102199997Y-110425000D01*
X104900000Y-107725000D02*
X104899998Y-109925000D01*
X101699998Y-107725000D02*
G75*
G02*
X102199998Y-107225000I500001J-1D01*
G01*
X102199996Y-110425001D02*
G75*
G02*
X101699996Y-109925001I1J500001D01*
G01*
X104400000Y-107225000D02*
G75*
G02*
X104900000Y-107725000I0J-500000D01*
G01*
X104899998Y-109925000D02*
G75*
G02*
X104399998Y-110425000I-500001J1D01*
G01*
%TO.C,A4*%
X87949998Y-69725000D02*
X87949998Y-71925001D01*
X88449999Y-69225000D02*
X90650000Y-69225000D01*
X90649998Y-72425000D02*
X88449997Y-72425000D01*
X91150000Y-69725000D02*
X91149998Y-71925000D01*
X87949998Y-69725000D02*
G75*
G02*
X88449998Y-69225000I500001J-1D01*
G01*
X88449996Y-72425001D02*
G75*
G02*
X87949996Y-71925001I1J500001D01*
G01*
X90650000Y-69225000D02*
G75*
G02*
X91150000Y-69725000I0J-500000D01*
G01*
X91149998Y-71925000D02*
G75*
G02*
X90649998Y-72425000I-500001J1D01*
G01*
%TO.C,A23*%
X225200000Y-90925000D02*
X225200002Y-88725000D01*
X225700002Y-88225000D02*
X227900003Y-88225000D01*
X227900001Y-91425000D02*
X225700000Y-91425000D01*
X228400002Y-90925000D02*
X228400002Y-88724999D01*
X225200002Y-88725000D02*
G75*
G02*
X225700002Y-88225000I500001J-1D01*
G01*
X225700000Y-91425000D02*
G75*
G02*
X225200000Y-90925000I1J500001D01*
G01*
X227900004Y-88224999D02*
G75*
G02*
X228400001Y-88724999I-4J-500001D01*
G01*
X228400002Y-90925000D02*
G75*
G02*
X227900002Y-91425002I-500002J0D01*
G01*
%TO.C,A26*%
X82699998Y-107725000D02*
X82699998Y-109925001D01*
X83199999Y-107225000D02*
X85400000Y-107225000D01*
X85399998Y-110425000D02*
X83199997Y-110425000D01*
X85900000Y-107725000D02*
X85899998Y-109925000D01*
X82699998Y-107725000D02*
G75*
G02*
X83199998Y-107225000I500001J-1D01*
G01*
X83199996Y-110425001D02*
G75*
G02*
X82699996Y-109925001I1J500001D01*
G01*
X85400000Y-107225000D02*
G75*
G02*
X85900000Y-107725000I0J-500000D01*
G01*
X85899998Y-109925000D02*
G75*
G02*
X85399998Y-110425000I-500001J1D01*
G01*
%TO.C,A40*%
X200950000Y-128925000D02*
X200950002Y-126725000D01*
X201450002Y-126225000D02*
X203650003Y-126225000D01*
X203650001Y-129425000D02*
X201450000Y-129425000D01*
X204150002Y-128925000D02*
X204150002Y-126724999D01*
X200950002Y-126725000D02*
G75*
G02*
X201450002Y-126225000I500001J-1D01*
G01*
X201450000Y-129425000D02*
G75*
G02*
X200950000Y-128925000I1J500001D01*
G01*
X203650004Y-126224999D02*
G75*
G02*
X204150001Y-126724999I-4J-500001D01*
G01*
X204150002Y-128925000D02*
G75*
G02*
X203650002Y-129425002I-500002J0D01*
G01*
%TO.C,A11*%
X220949998Y-69725000D02*
X220949998Y-71925001D01*
X221449999Y-69225000D02*
X223650000Y-69225000D01*
X223649998Y-72425000D02*
X221449997Y-72425000D01*
X224150000Y-69725000D02*
X224149998Y-71925000D01*
X220949998Y-69725000D02*
G75*
G02*
X221449998Y-69225000I500001J-1D01*
G01*
X221449996Y-72425001D02*
G75*
G02*
X220949996Y-71925001I1J500001D01*
G01*
X223650000Y-69225000D02*
G75*
G02*
X224150000Y-69725000I0J-500000D01*
G01*
X224149998Y-71925000D02*
G75*
G02*
X223649998Y-72425000I-500001J1D01*
G01*
%TO.C,A24*%
X44699998Y-107725000D02*
X44699998Y-109925001D01*
X45199999Y-107225000D02*
X47400000Y-107225000D01*
X47399998Y-110425000D02*
X45199997Y-110425000D01*
X47900000Y-107725000D02*
X47899998Y-109925000D01*
X44699998Y-107725000D02*
G75*
G02*
X45199998Y-107225000I500001J-1D01*
G01*
X45199996Y-110425001D02*
G75*
G02*
X44699996Y-109925001I1J500001D01*
G01*
X47400000Y-107225000D02*
G75*
G02*
X47900000Y-107725000I0J-500000D01*
G01*
X47899998Y-109925000D02*
G75*
G02*
X47399998Y-110425000I-500001J1D01*
G01*
%TO.C,A12*%
X239949998Y-69725000D02*
X239949998Y-71925001D01*
X240449999Y-69225000D02*
X242650000Y-69225000D01*
X242649998Y-72425000D02*
X240449997Y-72425000D01*
X243150000Y-69725000D02*
X243149998Y-71925000D01*
X239949998Y-69725000D02*
G75*
G02*
X240449998Y-69225000I500001J-1D01*
G01*
X240449996Y-72425001D02*
G75*
G02*
X239949996Y-71925001I1J500001D01*
G01*
X242650000Y-69225000D02*
G75*
G02*
X243150000Y-69725000I0J-500000D01*
G01*
X243149998Y-71925000D02*
G75*
G02*
X242649998Y-72425000I-500001J1D01*
G01*
%TO.C,A10*%
X201949998Y-69725000D02*
X201949998Y-71925001D01*
X202449999Y-69225000D02*
X204650000Y-69225000D01*
X204649998Y-72425000D02*
X202449997Y-72425000D01*
X205150000Y-69725000D02*
X205149998Y-71925000D01*
X201949998Y-69725000D02*
G75*
G02*
X202449998Y-69225000I500001J-1D01*
G01*
X202449996Y-72425001D02*
G75*
G02*
X201949996Y-71925001I1J500001D01*
G01*
X204650000Y-69225000D02*
G75*
G02*
X205150000Y-69725000I0J-500000D01*
G01*
X205149998Y-71925000D02*
G75*
G02*
X204649998Y-72425000I-500001J1D01*
G01*
%TO.C,A38*%
X162950000Y-128925000D02*
X162950002Y-126725000D01*
X163450002Y-126225000D02*
X165650003Y-126225000D01*
X165650001Y-129425000D02*
X163450000Y-129425000D01*
X166150002Y-128925000D02*
X166150002Y-126724999D01*
X162950002Y-126725000D02*
G75*
G02*
X163450002Y-126225000I500001J-1D01*
G01*
X163450000Y-129425000D02*
G75*
G02*
X162950000Y-128925000I1J500001D01*
G01*
X165650004Y-126224999D02*
G75*
G02*
X166150001Y-126724999I-4J-500001D01*
G01*
X166150002Y-128925000D02*
G75*
G02*
X165650002Y-129425002I-500002J0D01*
G01*
%TO.C,A19*%
X149200000Y-90925000D02*
X149200002Y-88725000D01*
X149700002Y-88225000D02*
X151900003Y-88225000D01*
X151900001Y-91425000D02*
X149700000Y-91425000D01*
X152400002Y-90925000D02*
X152400002Y-88724999D01*
X149200002Y-88725000D02*
G75*
G02*
X149700002Y-88225000I500001J-1D01*
G01*
X149700000Y-91425000D02*
G75*
G02*
X149200000Y-90925000I1J500001D01*
G01*
X151900004Y-88224999D02*
G75*
G02*
X152400001Y-88724999I-4J-500001D01*
G01*
X152400002Y-90925000D02*
G75*
G02*
X151900002Y-91425002I-500002J0D01*
G01*
%TO.C,A25*%
X63699998Y-107725000D02*
X63699998Y-109925001D01*
X64199999Y-107225000D02*
X66400000Y-107225000D01*
X66399998Y-110425000D02*
X64199997Y-110425000D01*
X66900000Y-107725000D02*
X66899998Y-109925000D01*
X63699998Y-107725000D02*
G75*
G02*
X64199998Y-107225000I500001J-1D01*
G01*
X64199996Y-110425001D02*
G75*
G02*
X63699996Y-109925001I1J500001D01*
G01*
X66400000Y-107225000D02*
G75*
G02*
X66900000Y-107725000I0J-500000D01*
G01*
X66899998Y-109925000D02*
G75*
G02*
X66399998Y-110425000I-500001J1D01*
G01*
%TO.C,A8*%
X163949998Y-69725000D02*
X163949998Y-71925001D01*
X164449999Y-69225000D02*
X166650000Y-69225000D01*
X166649998Y-72425000D02*
X164449997Y-72425000D01*
X167150000Y-69725000D02*
X167149998Y-71925000D01*
X163949998Y-69725000D02*
G75*
G02*
X164449998Y-69225000I500001J-1D01*
G01*
X164449996Y-72425001D02*
G75*
G02*
X163949996Y-71925001I1J500001D01*
G01*
X166650000Y-69225000D02*
G75*
G02*
X167150000Y-69725000I0J-500000D01*
G01*
X167149998Y-71925000D02*
G75*
G02*
X166649998Y-72425000I-500001J1D01*
G01*
%TO.C,A14*%
X54200000Y-90925000D02*
X54200002Y-88725000D01*
X54700002Y-88225000D02*
X56900003Y-88225000D01*
X56900001Y-91425000D02*
X54700000Y-91425000D01*
X57400002Y-90925000D02*
X57400002Y-88724999D01*
X54200002Y-88725000D02*
G75*
G02*
X54700002Y-88225000I500001J-1D01*
G01*
X54700000Y-91425000D02*
G75*
G02*
X54200000Y-90925000I1J500001D01*
G01*
X56900004Y-88224999D02*
G75*
G02*
X57400001Y-88724999I-4J-500001D01*
G01*
X57400002Y-90925000D02*
G75*
G02*
X56900002Y-91425002I-500002J0D01*
G01*
%TO.C,A13*%
X35200000Y-90925000D02*
X35200002Y-88725000D01*
X35700002Y-88225000D02*
X37900003Y-88225000D01*
X37900001Y-91425000D02*
X35700000Y-91425000D01*
X38400002Y-90925000D02*
X38400002Y-88724999D01*
X35200002Y-88725000D02*
G75*
G02*
X35700002Y-88225000I500001J-1D01*
G01*
X35700000Y-91425000D02*
G75*
G02*
X35200000Y-90925000I1J500001D01*
G01*
X37900004Y-88224999D02*
G75*
G02*
X38400001Y-88724999I-4J-500001D01*
G01*
X38400002Y-90925000D02*
G75*
G02*
X37900002Y-91425002I-500002J0D01*
G01*
%TO.C,A5*%
X106949998Y-69725000D02*
X106949998Y-71925001D01*
X107449999Y-69225000D02*
X109650000Y-69225000D01*
X109649998Y-72425000D02*
X107449997Y-72425000D01*
X110150000Y-69725000D02*
X110149998Y-71925000D01*
X106949998Y-69725000D02*
G75*
G02*
X107449998Y-69225000I500001J-1D01*
G01*
X107449996Y-72425001D02*
G75*
G02*
X106949996Y-71925001I1J500001D01*
G01*
X109650000Y-69225000D02*
G75*
G02*
X110150000Y-69725000I0J-500000D01*
G01*
X110149998Y-71925000D02*
G75*
G02*
X109649998Y-72425000I-500001J1D01*
G01*
%TO.C,A15*%
X73200000Y-90925000D02*
X73200002Y-88725000D01*
X73700002Y-88225000D02*
X75900003Y-88225000D01*
X75900001Y-91425000D02*
X73700000Y-91425000D01*
X76400002Y-90925000D02*
X76400002Y-88724999D01*
X73200002Y-88725000D02*
G75*
G02*
X73700002Y-88225000I500001J-1D01*
G01*
X73700000Y-91425000D02*
G75*
G02*
X73200000Y-90925000I1J500001D01*
G01*
X75900004Y-88224999D02*
G75*
G02*
X76400001Y-88724999I-4J-500001D01*
G01*
X76400002Y-90925000D02*
G75*
G02*
X75900002Y-91425002I-500002J0D01*
G01*
%TO.C,A3*%
X68949998Y-69725000D02*
X68949998Y-71925001D01*
X69449999Y-69225000D02*
X71650000Y-69225000D01*
X71649998Y-72425000D02*
X69449997Y-72425000D01*
X72150000Y-69725000D02*
X72149998Y-71925000D01*
X68949998Y-69725000D02*
G75*
G02*
X69449998Y-69225000I500001J-1D01*
G01*
X69449996Y-72425001D02*
G75*
G02*
X68949996Y-71925001I1J500001D01*
G01*
X71650000Y-69225000D02*
G75*
G02*
X72150000Y-69725000I0J-500000D01*
G01*
X72149998Y-71925000D02*
G75*
G02*
X71649998Y-72425000I-500001J1D01*
G01*
%TO.C,A16*%
X92200000Y-90925000D02*
X92200002Y-88725000D01*
X92700002Y-88225000D02*
X94900003Y-88225000D01*
X94900001Y-91425000D02*
X92700000Y-91425000D01*
X95400002Y-90925000D02*
X95400002Y-88724999D01*
X92200002Y-88725000D02*
G75*
G02*
X92700002Y-88225000I500001J-1D01*
G01*
X92700000Y-91425000D02*
G75*
G02*
X92200000Y-90925000I1J500001D01*
G01*
X94900004Y-88224999D02*
G75*
G02*
X95400001Y-88724999I-4J-500001D01*
G01*
X95400002Y-90925000D02*
G75*
G02*
X94900002Y-91425002I-500002J0D01*
G01*
%TO.C,A30*%
X158699998Y-107725000D02*
X158699998Y-109925001D01*
X159199999Y-107225000D02*
X161400000Y-107225000D01*
X161399998Y-110425000D02*
X159199997Y-110425000D01*
X161900000Y-107725000D02*
X161899998Y-109925000D01*
X158699998Y-107725000D02*
G75*
G02*
X159199998Y-107225000I500001J-1D01*
G01*
X159199996Y-110425001D02*
G75*
G02*
X158699996Y-109925001I1J500001D01*
G01*
X161400000Y-107225000D02*
G75*
G02*
X161900000Y-107725000I0J-500000D01*
G01*
X161899998Y-109925000D02*
G75*
G02*
X161399998Y-110425000I-500001J1D01*
G01*
%TO.C,A6*%
X125949998Y-69725000D02*
X125949998Y-71925001D01*
X126449999Y-69225000D02*
X128650000Y-69225000D01*
X128649998Y-72425000D02*
X126449997Y-72425000D01*
X129150000Y-69725000D02*
X129149998Y-71925000D01*
X125949998Y-69725000D02*
G75*
G02*
X126449998Y-69225000I500001J-1D01*
G01*
X126449996Y-72425001D02*
G75*
G02*
X125949996Y-71925001I1J500001D01*
G01*
X128650000Y-69225000D02*
G75*
G02*
X129150000Y-69725000I0J-500000D01*
G01*
X129149998Y-71925000D02*
G75*
G02*
X128649998Y-72425000I-500001J1D01*
G01*
%TO.C,A20*%
X168200000Y-90925000D02*
X168200002Y-88725000D01*
X168700002Y-88225000D02*
X170900003Y-88225000D01*
X170900001Y-91425000D02*
X168700000Y-91425000D01*
X171400002Y-90925000D02*
X171400002Y-88724999D01*
X168200002Y-88725000D02*
G75*
G02*
X168700002Y-88225000I500001J-1D01*
G01*
X168700000Y-91425000D02*
G75*
G02*
X168200000Y-90925000I1J500001D01*
G01*
X170900004Y-88224999D02*
G75*
G02*
X171400001Y-88724999I-4J-500001D01*
G01*
X171400002Y-90925000D02*
G75*
G02*
X170900002Y-91425002I-500002J0D01*
G01*
%TO.C,A39*%
X181950000Y-128925000D02*
X181950002Y-126725000D01*
X182450002Y-126225000D02*
X184650003Y-126225000D01*
X184650001Y-129425000D02*
X182450000Y-129425000D01*
X185150002Y-128925000D02*
X185150002Y-126724999D01*
X181950002Y-126725000D02*
G75*
G02*
X182450002Y-126225000I500001J-1D01*
G01*
X182450000Y-129425000D02*
G75*
G02*
X181950000Y-128925000I1J500001D01*
G01*
X184650004Y-126224999D02*
G75*
G02*
X185150001Y-126724999I-4J-500001D01*
G01*
X185150002Y-128925000D02*
G75*
G02*
X184650002Y-129425002I-500002J0D01*
G01*
%TO.C,A32*%
X196699998Y-107725000D02*
X196699998Y-109925001D01*
X197199999Y-107225000D02*
X199400000Y-107225000D01*
X199399998Y-110425000D02*
X197199997Y-110425000D01*
X199900000Y-107725000D02*
X199899998Y-109925000D01*
X196699998Y-107725000D02*
G75*
G02*
X197199998Y-107225000I500001J-1D01*
G01*
X197199996Y-110425001D02*
G75*
G02*
X196699996Y-109925001I1J500001D01*
G01*
X199400000Y-107225000D02*
G75*
G02*
X199900000Y-107725000I0J-500000D01*
G01*
X199899998Y-109925000D02*
G75*
G02*
X199399998Y-110425000I-500001J1D01*
G01*
%TD*%
M02*
