M48
; DRILL file {KiCad 9.0.2} date 2025-07-17T20:40:52+0100
; FORMAT={-:-/ absolute / metric / decimal}
; #@! TF.CreationDate,2025-07-17T20:40:52+01:00
; #@! TF.GenerationSoftware,Kicad,Pcbnew,9.0.2
; #@! TF.FileFunction,NonPlated,1,2,NPTH
FMAT,2
METRIC
; #@! TA.AperFunction,NonPlated,NPTH,ComponentDrill
T1C2.000
; #@! TA.AperFunction,NonPlated,NPTH,ComponentDrill
T2C5.100
%
G90
G05
T1
X24.75Y-67.5
X24.75Y-141.5
X90.25Y-141.5
X99.75Y-67.5
X174.75Y-141.5
X175.75Y-67.5
X250.75Y-67.5
X250.75Y-141.5
T2
X33.25Y-76.0
X37.5Y-95.0
X47.0Y-114.0
X52.25Y-76.0
X56.5Y-95.0
X61.75Y-133.0
X66.0Y-114.0
X71.25Y-76.0
X75.5Y-95.0
X80.75Y-133.0
X85.0Y-114.0
X90.25Y-76.0
X94.5Y-95.0
X99.75Y-133.0
X104.0Y-114.0
X109.25Y-76.0
X113.5Y-95.0
X123.0Y-114.0
X128.25Y-76.0
X132.5Y-95.0
X132.5Y-133.0
X142.0Y-114.0
X147.25Y-76.0
X151.5Y-95.0
X161.0Y-114.0
X165.25Y-133.0
X166.25Y-76.0
X170.5Y-95.0
X180.0Y-114.0
X184.25Y-133.0
X185.25Y-76.0
X189.5Y-95.0
X199.0Y-114.0
X203.25Y-133.0
X204.25Y-76.0
X208.5Y-95.0
X218.0Y-114.0
X223.25Y-76.0
X227.5Y-95.0
X242.25Y-76.0
M30
