<?xml version="1.0" standalone="no"?>
 <!DOCTYPE svg PUBLIC "-//W3C//DTD SVG 1.1//EN" 
 "http://www.w3.org/Graphics/SVG/1.1/DTD/svg11.dtd"> 
<svg
  xmlns:svg="http://www.w3.org/2000/svg"
  xmlns="http://www.w3.org/2000/svg"
  xmlns:xlink="http://www.w3.org/1999/xlink"
  version="1.1"
  width="297.0022mm" height="210.0072mm" viewBox="0.0000 0.0000 297.0022 210.0072">
<title>SVG Image created as just-40-Edge_Cuts.svg date 2025/05/14 07:44:59 </title>
  <desc>Image generated by PCBNEW </desc>
<g style="fill:#000000; fill-opacity:1.0000;stroke:#000000; stroke-opacity:1.0000;
stroke-linecap:round; stroke-linejoin:round;"
 transform="translate(0 0) scale(1 1)">
</g>
<g style="fill:none; 
stroke:#000000; stroke-width:0.0500; stroke-opacity:1; 
stroke-linecap:round; stroke-linejoin:round;">
<path d="M28.0000 56.0000 A2.0000 2.0000 0.0 0 0 26.0000 58.0000" />
<path d="M28.0000 134.0000
L265.5000 134.0000
" />
<path d="M26.0000 132.0000 A2.0000 2.0000 0.0 0 0 28.0000 134.0000" />
<path d="M26.0000 58.0000
L26.0000 132.0000
" />
<path d="M267.5000 132.0000
L267.5000 58.0000
" />
<path d="M267.5000 58.0000 A2.0000 2.0000 0.0 0 0 265.5000 56.0000" />
<path d="M265.5000 134.0000 A2.0000 2.0000 0.0 0 0 267.5000 132.0000" />
<path d="M265.5000 56.0000
L28.0000 56.0000
" />
<path style="fill:none; 
stroke:#000000; stroke-width:0.0500; stroke-opacity:1; 
stroke-linecap:round; stroke-linejoin:round;fill:none"
d="M 238.4750,98.9250
241.6750,98.9250
241.6750,101.7250
238.4750,101.7250
Z" /> 
<path style="fill:none; 
stroke:#000000; stroke-width:0.0500; stroke-opacity:1; 
stroke-linecap:round; stroke-linejoin:round;fill:none"
d="M 43.7250,98.9250
46.9250,98.9250
46.9250,101.7250
43.7250,101.7250
Z" /> 
<path style="fill:none; 
stroke:#000000; stroke-width:0.0500; stroke-opacity:1; 
stroke-linecap:round; stroke-linejoin:round;fill:none"
d="M 262.6000,97.6000
265.4000,97.6000
265.4000,94.4000
262.6000,94.4000
Z" /> 
<path style="fill:none; 
stroke:#000000; stroke-width:0.0500; stroke-opacity:1; 
stroke-linecap:round; stroke-linejoin:round;fill:none"
d="M 126.8500,98.9250
130.0500,98.9250
130.0500,101.7250
126.8500,101.7250
Z" /> 
<path style="fill:none; 
stroke:#000000; stroke-width:0.0500; stroke-opacity:1; 
stroke-linecap:round; stroke-linejoin:round;fill:none"
d="M 174.3500,79.9250
177.5500,79.9250
177.5500,82.7250
174.3500,82.7250
Z" /> 
<path style="fill:none; 
stroke:#000000; stroke-width:0.0500; stroke-opacity:1; 
stroke-linecap:round; stroke-linejoin:round;fill:none"
d="M 231.3500,117.9250
234.5500,117.9250
234.5500,120.7250
231.3500,120.7250
Z" /> 
<path style="fill:none; 
stroke:#000000; stroke-width:0.0500; stroke-opacity:1; 
stroke-linecap:round; stroke-linejoin:round;fill:none"
d="M 145.8500,98.9250
149.0500,98.9250
149.0500,101.7250
145.8500,101.7250
Z" /> 
<path style="fill:none; 
stroke:#000000; stroke-width:0.0500; stroke-opacity:1; 
stroke-linecap:round; stroke-linejoin:round;fill:none"
d="M 155.3500,79.9250
158.5500,79.9250
158.5500,82.7250
155.3500,82.7250
Z" /> 
<path style="fill:none; 
stroke:#000000; stroke-width:0.0500; stroke-opacity:1; 
stroke-linecap:round; stroke-linejoin:round;fill:none"
d="M 88.8500,98.9250
92.0500,98.9250
92.0500,101.7250
88.8500,101.7250
Z" /> 
<path style="fill:none; 
stroke:#000000; stroke-width:0.0500; stroke-opacity:1; 
stroke-linecap:round; stroke-linejoin:round;fill:none"
d="M 262.6000,88.1000
265.4000,88.1000
265.4000,84.9000
262.6000,84.9000
Z" /> 
<path style="fill:none; 
stroke:#000000; stroke-width:0.0500; stroke-opacity:1; 
stroke-linecap:round; stroke-linejoin:round;fill:none"
d="M 143.4750,117.9250
146.6750,117.9250
146.6750,120.7250
143.4750,120.7250
Z" /> 
<path style="fill:none; 
stroke:#000000; stroke-width:0.0500; stroke-opacity:1; 
stroke-linecap:round; stroke-linejoin:round;fill:none"
d="M 207.6000,60.9250
210.8000,60.9250
210.8000,63.7250
207.6000,63.7250
Z" /> 
<path style="fill:none; 
stroke:#000000; stroke-width:0.0500; stroke-opacity:1; 
stroke-linecap:round; stroke-linejoin:round;fill:none"
d="M 112.6000,60.9250
115.8000,60.9250
115.8000,63.7250
112.6000,63.7250
Z" /> 
<path style="fill:none; 
stroke:#000000; stroke-width:0.0500; stroke-opacity:1; 
stroke-linecap:round; stroke-linejoin:round;fill:none"
d="M 55.6000,117.9250
58.8000,117.9250
58.8000,120.7250
55.6000,120.7250
Z" /> 
<path style="fill:none; 
stroke:#000000; stroke-width:0.0500; stroke-opacity:1; 
stroke-linecap:round; stroke-linejoin:round;fill:none"
d="M 226.6000,60.9250
229.8000,60.9250
229.8000,63.7250
226.6000,63.7250
Z" /> 
<path style="fill:none; 
stroke:#000000; stroke-width:0.0500; stroke-opacity:1; 
stroke-linecap:round; stroke-linejoin:round;fill:none"
d="M 36.6000,117.9250
39.8000,117.9250
39.8000,120.7250
36.6000,120.7250
Z" /> 
<path style="fill:none; 
stroke:#000000; stroke-width:0.0500; stroke-opacity:1; 
stroke-linecap:round; stroke-linejoin:round;fill:none"
d="M 250.3500,60.9250
253.5500,60.9250
253.5500,63.7250
250.3500,63.7250
Z" /> 
<path style="fill:none; 
stroke:#000000; stroke-width:0.0500; stroke-opacity:1; 
stroke-linecap:round; stroke-linejoin:round;fill:none"
d="M 98.3500,79.9250
101.5500,79.9250
101.5500,82.7250
98.3500,82.7250
Z" /> 
<path style="fill:none; 
stroke:#000000; stroke-width:0.0500; stroke-opacity:1; 
stroke-linecap:round; stroke-linejoin:round;fill:none"
d="M 117.3500,79.9250
120.5500,79.9250
120.5500,82.7250
117.3500,82.7250
Z" /> 
<path style="fill:none; 
stroke:#000000; stroke-width:0.0500; stroke-opacity:1; 
stroke-linecap:round; stroke-linejoin:round;fill:none"
d="M 252.7250,117.9250
255.9250,117.9250
255.9250,120.7250
252.7250,120.7250
Z" /> 
<path style="fill:none; 
stroke:#000000; stroke-width:0.0500; stroke-opacity:1; 
stroke-linecap:round; stroke-linejoin:round;fill:none"
d="M 107.8500,98.9250
111.0500,98.9250
111.0500,101.7250
107.8500,101.7250
Z" /> 
<path style="fill:none; 
stroke:#000000; stroke-width:0.0500; stroke-opacity:1; 
stroke-linecap:round; stroke-linejoin:round;fill:none"
d="M 150.6000,60.9250
153.8000,60.9250
153.8000,63.7250
150.6000,63.7250
Z" /> 
<path style="fill:none; 
stroke:#000000; stroke-width:0.0500; stroke-opacity:1; 
stroke-linecap:round; stroke-linejoin:round;fill:none"
d="M 38.9750,79.9250
42.1750,79.9250
42.1750,82.7250
38.9750,82.7250
Z" /> 
<path style="fill:none; 
stroke:#000000; stroke-width:0.0500; stroke-opacity:1; 
stroke-linecap:round; stroke-linejoin:round;fill:none"
d="M 93.6000,60.9250
96.8000,60.9250
96.8000,63.7250
93.6000,63.7250
Z" /> 
<path style="fill:none; 
stroke:#000000; stroke-width:0.0500; stroke-opacity:1; 
stroke-linecap:round; stroke-linejoin:round;fill:none"
d="M 69.8500,98.9250
73.0500,98.9250
73.0500,101.7250
69.8500,101.7250
Z" /> 
<path style="fill:none; 
stroke:#000000; stroke-width:0.0500; stroke-opacity:1; 
stroke-linecap:round; stroke-linejoin:round;fill:none"
d="M 193.3500,79.9250
196.5500,79.9250
196.5500,82.7250
193.3500,82.7250
Z" /> 
<path style="fill:none; 
stroke:#000000; stroke-width:0.0500; stroke-opacity:1; 
stroke-linecap:round; stroke-linejoin:round;fill:none"
d="M 183.8500,98.9250
187.0500,98.9250
187.0500,101.7250
183.8500,101.7250
Z" /> 
<path style="fill:none; 
stroke:#000000; stroke-width:0.0500; stroke-opacity:1; 
stroke-linecap:round; stroke-linejoin:round;fill:none"
d="M 74.6000,117.9250
77.8000,117.9250
77.8000,120.7250
74.6000,120.7250
Z" /> 
<path style="fill:none; 
stroke:#000000; stroke-width:0.0500; stroke-opacity:1; 
stroke-linecap:round; stroke-linejoin:round;fill:none"
d="M 60.3500,79.9250
63.5500,79.9250
63.5500,82.7250
60.3500,82.7250
Z" /> 
<path style="fill:none; 
stroke:#000000; stroke-width:0.0500; stroke-opacity:1; 
stroke-linecap:round; stroke-linejoin:round;fill:none"
d="M 36.6000,60.9250
39.8000,60.9250
39.8000,63.7250
36.6000,63.7250
Z" /> 
<path style="fill:none; 
stroke:#000000; stroke-width:0.0500; stroke-opacity:1; 
stroke-linecap:round; stroke-linejoin:round;fill:none"
d="M 212.3500,79.9250
215.5500,79.9250
215.5500,82.7250
212.3500,82.7250
Z" /> 
<path style="fill:none; 
stroke:#000000; stroke-width:0.0500; stroke-opacity:1; 
stroke-linecap:round; stroke-linejoin:round;fill:none"
d="M 74.6000,60.9250
77.8000,60.9250
77.8000,63.7250
74.6000,63.7250
Z" /> 
<path style="fill:none; 
stroke:#000000; stroke-width:0.0500; stroke-opacity:1; 
stroke-linecap:round; stroke-linejoin:round;fill:none"
d="M 164.8500,98.9250
168.0500,98.9250
168.0500,101.7250
164.8500,101.7250
Z" /> 
<path style="fill:none; 
stroke:#000000; stroke-width:0.0500; stroke-opacity:1; 
stroke-linecap:round; stroke-linejoin:round;fill:none"
d="M 131.6000,60.9250
134.8000,60.9250
134.8000,63.7250
131.6000,63.7250
Z" /> 
<path style="fill:none; 
stroke:#000000; stroke-width:0.0500; stroke-opacity:1; 
stroke-linecap:round; stroke-linejoin:round;fill:none"
d="M 169.6000,60.9250
172.8000,60.9250
172.8000,63.7250
169.6000,63.7250
Z" /> 
<path style="fill:none; 
stroke:#000000; stroke-width:0.0500; stroke-opacity:1; 
stroke-linecap:round; stroke-linejoin:round;fill:none"
d="M 243.2250,79.9250
246.4250,79.9250
246.4250,82.7250
243.2250,82.7250
Z" /> 
<path style="fill:none; 
stroke:#000000; stroke-width:0.0500; stroke-opacity:1; 
stroke-linecap:round; stroke-linejoin:round;fill:none"
d="M 136.3500,79.9250
139.5500,79.9250
139.5500,82.7250
136.3500,82.7250
Z" /> 
<path style="fill:none; 
stroke:#000000; stroke-width:0.0500; stroke-opacity:1; 
stroke-linecap:round; stroke-linejoin:round;fill:none"
d="M 202.8500,98.9250
206.0500,98.9250
206.0500,101.7250
202.8500,101.7250
Z" /> 
<path style="fill:none; 
stroke:#000000; stroke-width:0.0500; stroke-opacity:1; 
stroke-linecap:round; stroke-linejoin:round;fill:none"
d="M 79.3500,79.9250
82.5500,79.9250
82.5500,82.7250
79.3500,82.7250
Z" /> 
<path style="fill:none; 
stroke:#000000; stroke-width:0.0500; stroke-opacity:1; 
stroke-linecap:round; stroke-linejoin:round;fill:none"
d="M 55.6000,60.9250
58.8000,60.9250
58.8000,63.7250
55.6000,63.7250
Z" /> 
<path style="fill:none; 
stroke:#000000; stroke-width:0.0500; stroke-opacity:1; 
stroke-linecap:round; stroke-linejoin:round;fill:none"
d="M 188.6000,60.9250
191.8000,60.9250
191.8000,63.7250
188.6000,63.7250
Z" /> 
<path style="fill:none; 
stroke:#000000; stroke-width:0.0500; stroke-opacity:1; 
stroke-linecap:round; stroke-linejoin:round;fill:none"
d="M 212.3500,117.9250
215.5500,117.9250
215.5500,120.7250
212.3500,120.7250
Z" /> 
</g> 
</svg>
