%TF.GenerationSoftware,KiCad,Pcbnew,9.0.2*%
%TF.CreationDate,2025-07-17T20:42:00+01:00*%
%TF.ProjectId,just-40-bottom,6a757374-2d34-4302-9d62-6f74746f6d2e,rev?*%
%TF.SameCoordinates,Original*%
%TF.FileFunction,Drillmap*%
%TF.FilePolarity,Positive*%
%FSLAX45Y45*%
G04 Gerber Fmt 4.5, Leading zero omitted, Abs format (unit mm)*
G04 Created by KiCad (PCBNEW 9.0.2) date 2025-07-17 20:42:00*
%MOMM*%
%LPD*%
G01*
G04 APERTURE LIST*
%ADD10C,0.050000*%
%ADD11C,0.200000*%
G04 APERTURE END LIST*
D10*
X25175000Y-15250000D02*
X2375000Y-15250000D01*
X2375000Y-23050000D02*
G75*
G02*
X2275000Y-22950000I0J100000D01*
G01*
X25175000Y-15250000D02*
G75*
G02*
X25275000Y-15350000I0J-100000D01*
G01*
X2275000Y-22950000D02*
X2275000Y-15350000D01*
X2275000Y-15350000D02*
G75*
G02*
X2375000Y-15250000I100000J0D01*
G01*
X25175000Y-23050000D02*
X2375000Y-23050000D01*
X25275000Y-22950000D02*
G75*
G02*
X25175000Y-23050000I-100000J0D01*
G01*
X25275000Y-15350000D02*
X25275000Y-22950000D01*
D11*
X2533277Y-23363984D02*
X2533277Y-23163984D01*
X2533277Y-23163984D02*
X2580896Y-23163984D01*
X2580896Y-23163984D02*
X2609467Y-23173508D01*
X2609467Y-23173508D02*
X2628515Y-23192555D01*
X2628515Y-23192555D02*
X2638039Y-23211603D01*
X2638039Y-23211603D02*
X2647563Y-23249698D01*
X2647563Y-23249698D02*
X2647563Y-23278269D01*
X2647563Y-23278269D02*
X2638039Y-23316365D01*
X2638039Y-23316365D02*
X2628515Y-23335412D01*
X2628515Y-23335412D02*
X2609467Y-23354460D01*
X2609467Y-23354460D02*
X2580896Y-23363984D01*
X2580896Y-23363984D02*
X2533277Y-23363984D01*
X2733277Y-23363984D02*
X2733277Y-23230650D01*
X2733277Y-23268746D02*
X2742801Y-23249698D01*
X2742801Y-23249698D02*
X2752324Y-23240174D01*
X2752324Y-23240174D02*
X2771372Y-23230650D01*
X2771372Y-23230650D02*
X2790420Y-23230650D01*
X2857086Y-23363984D02*
X2857086Y-23230650D01*
X2857086Y-23163984D02*
X2847562Y-23173508D01*
X2847562Y-23173508D02*
X2857086Y-23183031D01*
X2857086Y-23183031D02*
X2866610Y-23173508D01*
X2866610Y-23173508D02*
X2857086Y-23163984D01*
X2857086Y-23163984D02*
X2857086Y-23183031D01*
X2980896Y-23363984D02*
X2961848Y-23354460D01*
X2961848Y-23354460D02*
X2952324Y-23335412D01*
X2952324Y-23335412D02*
X2952324Y-23163984D01*
X3085658Y-23363984D02*
X3066610Y-23354460D01*
X3066610Y-23354460D02*
X3057086Y-23335412D01*
X3057086Y-23335412D02*
X3057086Y-23163984D01*
X3314229Y-23363984D02*
X3314229Y-23163984D01*
X3314229Y-23163984D02*
X3380896Y-23306841D01*
X3380896Y-23306841D02*
X3447562Y-23163984D01*
X3447562Y-23163984D02*
X3447562Y-23363984D01*
X3628515Y-23363984D02*
X3628515Y-23259222D01*
X3628515Y-23259222D02*
X3618991Y-23240174D01*
X3618991Y-23240174D02*
X3599943Y-23230650D01*
X3599943Y-23230650D02*
X3561848Y-23230650D01*
X3561848Y-23230650D02*
X3542801Y-23240174D01*
X3628515Y-23354460D02*
X3609467Y-23363984D01*
X3609467Y-23363984D02*
X3561848Y-23363984D01*
X3561848Y-23363984D02*
X3542801Y-23354460D01*
X3542801Y-23354460D02*
X3533277Y-23335412D01*
X3533277Y-23335412D02*
X3533277Y-23316365D01*
X3533277Y-23316365D02*
X3542801Y-23297317D01*
X3542801Y-23297317D02*
X3561848Y-23287793D01*
X3561848Y-23287793D02*
X3609467Y-23287793D01*
X3609467Y-23287793D02*
X3628515Y-23278269D01*
X3723753Y-23230650D02*
X3723753Y-23430650D01*
X3723753Y-23240174D02*
X3742801Y-23230650D01*
X3742801Y-23230650D02*
X3780896Y-23230650D01*
X3780896Y-23230650D02*
X3799943Y-23240174D01*
X3799943Y-23240174D02*
X3809467Y-23249698D01*
X3809467Y-23249698D02*
X3818991Y-23268746D01*
X3818991Y-23268746D02*
X3818991Y-23325888D01*
X3818991Y-23325888D02*
X3809467Y-23344936D01*
X3809467Y-23344936D02*
X3799943Y-23354460D01*
X3799943Y-23354460D02*
X3780896Y-23363984D01*
X3780896Y-23363984D02*
X3742801Y-23363984D01*
X3742801Y-23363984D02*
X3723753Y-23354460D01*
X3904705Y-23344936D02*
X3914229Y-23354460D01*
X3914229Y-23354460D02*
X3904705Y-23363984D01*
X3904705Y-23363984D02*
X3895182Y-23354460D01*
X3895182Y-23354460D02*
X3904705Y-23344936D01*
X3904705Y-23344936D02*
X3904705Y-23363984D01*
X3904705Y-23240174D02*
X3914229Y-23249698D01*
X3914229Y-23249698D02*
X3904705Y-23259222D01*
X3904705Y-23259222D02*
X3895182Y-23249698D01*
X3895182Y-23249698D02*
X3904705Y-23240174D01*
X3904705Y-23240174D02*
X3904705Y-23259222D01*
M02*
