M48
; DRILL file KiCad 10.0.1 date 2026-04-26T20:16:18
; FORMAT={-:-/ absolute / metric / decimal}
; #@! TF.CreationDate,2026-04-26T20:16:18+01:00
; #@! TF.GenerationSoftware,Kicad,Pcbnew,10.0.1
; #@! TF.FileFunction,NonPlated,1,2,NPTH
FMAT,2
METRIC
; #@! TA.AperFunction,NonPlated,NPTH,ComponentDrill
T1C2.000
; #@! TA.AperFunction,NonPlated,NPTH,ComponentDrill
T2C3.300
; #@! TA.AperFunction,NonPlated,NPTH,ComponentDrill
T3C5.000
%
G90
G05
T1
X48.5Y-473.0
X48.5Y-496.5
X48.5Y-570.5
X91.25Y-570.5
X123.5Y-473.0
X123.5Y-496.5
X128.25Y-570.5
X194.75Y-570.5
X199.5Y-473.0
X199.5Y-496.5
X231.75Y-570.5
X274.5Y-473.0
X274.5Y-496.487
X274.5Y-570.5
T2
X53.0Y-501.0
X53.0Y-566.0
X161.5Y-533.5
X270.0Y-501.0
X270.0Y-566.0
T3
X57.0Y-505.0
X66.5Y-524.0
X76.0Y-505.0
X76.0Y-543.0
X85.5Y-524.0
X95.0Y-505.0
X95.0Y-543.0
X99.75Y-562.0
X104.5Y-524.0
X114.0Y-505.0
X114.0Y-543.0
X118.75Y-562.0
X123.5Y-524.0
X133.0Y-505.0
X133.0Y-543.0
X137.75Y-562.0
X142.5Y-524.0
X152.0Y-505.0
X152.0Y-543.0
X161.5Y-524.0
X161.5Y-562.0
X171.0Y-505.0
X171.0Y-543.0
X180.5Y-524.0
X185.25Y-562.0
X190.0Y-505.0
X190.0Y-543.0
X199.5Y-524.0
X204.25Y-562.0
X209.0Y-505.0
X209.0Y-543.0
X218.5Y-524.0
X223.25Y-562.0
X228.0Y-505.0
X228.0Y-543.0
X237.5Y-524.0
X247.0Y-505.0
X247.0Y-543.0
X256.5Y-524.0
X266.0Y-505.0
M30
