%TF.GenerationSoftware,KiCad,Pcbnew,10.0.1*%
%TF.CreationDate,2026-04-26T20:15:25+01:00*%
%TF.ProjectId,just-40-mark03-noled-topdiode-hotswap,6a757374-2d34-4302-9d6d-61726b30332d,rev?*%
%TF.SameCoordinates,Original*%
%TF.FileFunction,Legend,Top*%
%TF.FilePolarity,Positive*%
%FSLAX46Y46*%
G04 Gerber Fmt 4.6, Leading zero omitted, Abs format (unit mm)*
G04 Created by KiCad (PCBNEW 10.0.1) date 2026-04-26 20:15:25*
%MOMM*%
%LPD*%
G01*
G04 APERTURE LIST*
G04 Aperture macros list*
%AMRoundRect*
0 Rectangle with rounded corners*
0 $1 Rounding radius*
0 $2 $3 $4 $5 $6 $7 $8 $9 X,Y pos of 4 corners*
0 Add a 4 corners polygon primitive as box body*
4,1,4,$2,$3,$4,$5,$6,$7,$8,$9,$2,$3,0*
0 Add four circle primitives for the rounded corners*
1,1,$1+$1,$2,$3*
1,1,$1+$1,$4,$5*
1,1,$1+$1,$6,$7*
1,1,$1+$1,$8,$9*
0 Add four rect primitives between the rounded corners*
20,1,$1+$1,$2,$3,$4,$5,0*
20,1,$1+$1,$4,$5,$6,$7,0*
20,1,$1+$1,$6,$7,$8,$9,0*
20,1,$1+$1,$8,$9,$2,$3,0*%
G04 Aperture macros list end*
%ADD10C,0.500000*%
%ADD11C,0.000000*%
%ADD12C,4.500000*%
%ADD13C,3.000000*%
%ADD14C,1.600000*%
%ADD15RoundRect,0.250000X0.550000X0.550000X-0.550000X0.550000X-0.550000X-0.550000X0.550000X-0.550000X0*%
%ADD16C,3.300000*%
%ADD17RoundRect,0.250000X0.550000X-0.550000X0.550000X0.550000X-0.550000X0.550000X-0.550000X-0.550000X0*%
%ADD18C,2.000000*%
G04 APERTURE END LIST*
D10*
X67833333Y-558093167D02*
X67833333Y-560593167D01*
X67833333Y-560593167D02*
X67666666Y-561093167D01*
X67666666Y-561093167D02*
X67333333Y-561426501D01*
X67333333Y-561426501D02*
X66833333Y-561593167D01*
X66833333Y-561593167D02*
X66500000Y-561593167D01*
X71000000Y-559259834D02*
X71000000Y-561593167D01*
X69500000Y-559259834D02*
X69500000Y-561093167D01*
X69500000Y-561093167D02*
X69666667Y-561426501D01*
X69666667Y-561426501D02*
X70000000Y-561593167D01*
X70000000Y-561593167D02*
X70500000Y-561593167D01*
X70500000Y-561593167D02*
X70833333Y-561426501D01*
X70833333Y-561426501D02*
X71000000Y-561259834D01*
X72500000Y-561426501D02*
X72833334Y-561593167D01*
X72833334Y-561593167D02*
X73500000Y-561593167D01*
X73500000Y-561593167D02*
X73833334Y-561426501D01*
X73833334Y-561426501D02*
X74000000Y-561093167D01*
X74000000Y-561093167D02*
X74000000Y-560926501D01*
X74000000Y-560926501D02*
X73833334Y-560593167D01*
X73833334Y-560593167D02*
X73500000Y-560426501D01*
X73500000Y-560426501D02*
X73000000Y-560426501D01*
X73000000Y-560426501D02*
X72666667Y-560259834D01*
X72666667Y-560259834D02*
X72500000Y-559926501D01*
X72500000Y-559926501D02*
X72500000Y-559759834D01*
X72500000Y-559759834D02*
X72666667Y-559426501D01*
X72666667Y-559426501D02*
X73000000Y-559259834D01*
X73000000Y-559259834D02*
X73500000Y-559259834D01*
X73500000Y-559259834D02*
X73833334Y-559426501D01*
X75000000Y-559259834D02*
X76333333Y-559259834D01*
X75500000Y-558093167D02*
X75500000Y-561093167D01*
X75500000Y-561093167D02*
X75666667Y-561426501D01*
X75666667Y-561426501D02*
X76000000Y-561593167D01*
X76000000Y-561593167D02*
X76333333Y-561593167D01*
X81666667Y-559259834D02*
X81666667Y-561593167D01*
X80833334Y-557926501D02*
X80000000Y-560426501D01*
X80000000Y-560426501D02*
X82166667Y-560426501D01*
X84166667Y-558093167D02*
X84500000Y-558093167D01*
X84500000Y-558093167D02*
X84833333Y-558259834D01*
X84833333Y-558259834D02*
X85000000Y-558426501D01*
X85000000Y-558426501D02*
X85166667Y-558759834D01*
X85166667Y-558759834D02*
X85333333Y-559426501D01*
X85333333Y-559426501D02*
X85333333Y-560259834D01*
X85333333Y-560259834D02*
X85166667Y-560926501D01*
X85166667Y-560926501D02*
X85000000Y-561259834D01*
X85000000Y-561259834D02*
X84833333Y-561426501D01*
X84833333Y-561426501D02*
X84500000Y-561593167D01*
X84500000Y-561593167D02*
X84166667Y-561593167D01*
X84166667Y-561593167D02*
X83833333Y-561426501D01*
X83833333Y-561426501D02*
X83666667Y-561259834D01*
X83666667Y-561259834D02*
X83500000Y-560926501D01*
X83500000Y-560926501D02*
X83333333Y-560259834D01*
X83333333Y-560259834D02*
X83333333Y-559426501D01*
X83333333Y-559426501D02*
X83500000Y-558759834D01*
X83500000Y-558759834D02*
X83666667Y-558426501D01*
X83666667Y-558426501D02*
X83833333Y-558259834D01*
X83833333Y-558259834D02*
X84166667Y-558093167D01*
X264833333Y-542974295D02*
X267166667Y-542974295D01*
X265333333Y-541974295D02*
X265333333Y-544140961D01*
X267000000Y-541807628D02*
X267166667Y-542140961D01*
X267500000Y-541640961D02*
X267666667Y-541974295D01*
X266666667Y-541807628D02*
X266666667Y-542974295D01*
X266666667Y-542974295D02*
X266666667Y-543640961D01*
X266666667Y-543640961D02*
X266500000Y-544307628D01*
X266500000Y-544307628D02*
X266333333Y-544640961D01*
X266333333Y-544640961D02*
X266000000Y-545140961D01*
X266000000Y-545140961D02*
X265666667Y-545474295D01*
X265833333Y-549442432D02*
X266166667Y-549442432D01*
X266166667Y-549442432D02*
X266333333Y-549609099D01*
X266333333Y-549609099D02*
X266333333Y-549942432D01*
X266333333Y-549942432D02*
X266166667Y-550109099D01*
X266166667Y-550109099D02*
X265833333Y-550109099D01*
X265833333Y-550109099D02*
X265666667Y-549942432D01*
X265666667Y-549942432D02*
X265666667Y-549609099D01*
X265666667Y-549609099D02*
X265833333Y-549442432D01*
X263750000Y-554910569D02*
X266083333Y-554910569D01*
X264250000Y-553743903D02*
X265916667Y-553743903D01*
X264416667Y-552910569D02*
X263750000Y-554410569D01*
X264916667Y-555243903D02*
X265916667Y-556243903D01*
X266416667Y-556410569D02*
X268083333Y-556410569D01*
X266416667Y-553410569D02*
X266416667Y-556743903D01*
X266416667Y-553410569D02*
X268083333Y-553410569D01*
X268083333Y-553410569D02*
X268083333Y-556743903D01*
X264916667Y-553743903D02*
X264916667Y-554743903D01*
X264916667Y-554743903D02*
X264583333Y-555910569D01*
X264583333Y-555910569D02*
X263916667Y-556910569D01*
X264083333Y-560045373D02*
X265416667Y-560378707D01*
X264750000Y-558878707D02*
X265916667Y-559378707D01*
X266750000Y-558545373D02*
X266750000Y-562545373D01*
X268083333Y-561045373D02*
X263750000Y-561545373D01*
D11*
%TO.C,G\u002A\u002A\u002A*%
G36*
X48279174Y-551094183D02*
G01*
X48255347Y-551118010D01*
X48231520Y-551094183D01*
X48255347Y-551070356D01*
X48279174Y-551094183D01*
G37*
G36*
X49136960Y-551332457D02*
G01*
X49113133Y-551356284D01*
X49089306Y-551332457D01*
X49113133Y-551308630D01*
X49136960Y-551332457D01*
G37*
G36*
X49232270Y-551284802D02*
G01*
X49208443Y-551308630D01*
X49184615Y-551284802D01*
X49208443Y-551260975D01*
X49232270Y-551284802D01*
G37*
G36*
X51472045Y-547377110D02*
G01*
X51448218Y-547400937D01*
X51424390Y-547377110D01*
X51448218Y-547353282D01*
X51472045Y-547377110D01*
G37*
G36*
X52472795Y-557289305D02*
G01*
X52448968Y-557313132D01*
X52425141Y-557289305D01*
X52448968Y-557265478D01*
X52472795Y-557289305D01*
G37*
G36*
X53187617Y-546519324D02*
G01*
X53163790Y-546543151D01*
X53139962Y-546519324D01*
X53163790Y-546495496D01*
X53187617Y-546519324D01*
G37*
G36*
X55093809Y-544470168D02*
G01*
X55069981Y-544493995D01*
X55046154Y-544470168D01*
X55069981Y-544446341D01*
X55093809Y-544470168D01*
G37*
G36*
X55236773Y-544851406D02*
G01*
X55212945Y-544875234D01*
X55189118Y-544851406D01*
X55212945Y-544827579D01*
X55236773Y-544851406D01*
G37*
G36*
X55808630Y-553429267D02*
G01*
X55784803Y-553453095D01*
X55760975Y-553429267D01*
X55784803Y-553405440D01*
X55808630Y-553429267D01*
G37*
G36*
X56285178Y-544088930D02*
G01*
X56261351Y-544112757D01*
X56237523Y-544088930D01*
X56261351Y-544065102D01*
X56285178Y-544088930D01*
G37*
G36*
X56428142Y-543993620D02*
G01*
X56404315Y-544017448D01*
X56380488Y-543993620D01*
X56404315Y-543969793D01*
X56428142Y-543993620D01*
G37*
G36*
X56475797Y-543564727D02*
G01*
X56451970Y-543588554D01*
X56428142Y-543564727D01*
X56451970Y-543540900D01*
X56475797Y-543564727D01*
G37*
G36*
X56618762Y-543850656D02*
G01*
X56594934Y-543874483D01*
X56571107Y-543850656D01*
X56594934Y-543826828D01*
X56618762Y-543850656D01*
G37*
G36*
X56618762Y-552857410D02*
G01*
X56594934Y-552881237D01*
X56571107Y-552857410D01*
X56594934Y-552833583D01*
X56618762Y-552857410D01*
G37*
G36*
X56666416Y-552952720D02*
G01*
X56642589Y-552976547D01*
X56618762Y-552952720D01*
X56642589Y-552928892D01*
X56666416Y-552952720D01*
G37*
G36*
X56714071Y-543421763D02*
G01*
X56690244Y-543445590D01*
X56666416Y-543421763D01*
X56690244Y-543397935D01*
X56714071Y-543421763D01*
G37*
G36*
X56761726Y-543755346D02*
G01*
X56737899Y-543779174D01*
X56714071Y-543755346D01*
X56737899Y-543731519D01*
X56761726Y-543755346D01*
G37*
G36*
X56761726Y-553000374D02*
G01*
X56737899Y-553024202D01*
X56714071Y-553000374D01*
X56737899Y-552976547D01*
X56761726Y-553000374D01*
G37*
G36*
X56904690Y-543660037D02*
G01*
X56880863Y-543683864D01*
X56857036Y-543660037D01*
X56880863Y-543636209D01*
X56904690Y-543660037D01*
G37*
G36*
X56904690Y-550760600D02*
G01*
X56880863Y-550784427D01*
X56857036Y-550760600D01*
X56880863Y-550736772D01*
X56904690Y-550760600D01*
G37*
G36*
X57095309Y-557051031D02*
G01*
X57071482Y-557074858D01*
X57047655Y-557051031D01*
X57071482Y-557027204D01*
X57095309Y-557051031D01*
G37*
G36*
X57095309Y-557432269D02*
G01*
X57071482Y-557456097D01*
X57047655Y-557432269D01*
X57071482Y-557408442D01*
X57095309Y-557432269D01*
G37*
G36*
X57142964Y-557193995D02*
G01*
X57119137Y-557217823D01*
X57095309Y-557193995D01*
X57119137Y-557170168D01*
X57142964Y-557193995D01*
G37*
G36*
X57238274Y-557527579D02*
G01*
X57214446Y-557551406D01*
X57190619Y-557527579D01*
X57214446Y-557503751D01*
X57238274Y-557527579D01*
G37*
G36*
X57333583Y-557622888D02*
G01*
X57309756Y-557646716D01*
X57285929Y-557622888D01*
X57309756Y-557599061D01*
X57333583Y-557622888D01*
G37*
G36*
X57428893Y-553143339D02*
G01*
X57405066Y-553167166D01*
X57381238Y-553143339D01*
X57405066Y-553119511D01*
X57428893Y-553143339D01*
G37*
G36*
X57428893Y-554239399D02*
G01*
X57405066Y-554263226D01*
X57381238Y-554239399D01*
X57405066Y-554215571D01*
X57428893Y-554239399D01*
G37*
G36*
X57476548Y-554144089D02*
G01*
X57452720Y-554167917D01*
X57428893Y-554144089D01*
X57452720Y-554120262D01*
X57476548Y-554144089D01*
G37*
G36*
X57524203Y-554048780D02*
G01*
X57500375Y-554072607D01*
X57476548Y-554048780D01*
X57500375Y-554024952D01*
X57524203Y-554048780D01*
G37*
G36*
X57571857Y-553953470D02*
G01*
X57548030Y-553977297D01*
X57524203Y-553953470D01*
X57548030Y-553929643D01*
X57571857Y-553953470D01*
G37*
G36*
X57619512Y-543183489D02*
G01*
X57595685Y-543207316D01*
X57571857Y-543183489D01*
X57595685Y-543159661D01*
X57619512Y-543183489D01*
G37*
G36*
X58000750Y-561339962D02*
G01*
X57976923Y-561363789D01*
X57953096Y-561339962D01*
X57976923Y-561316134D01*
X58000750Y-561339962D01*
G37*
G36*
X58524953Y-550427016D02*
G01*
X58501126Y-550450843D01*
X58477298Y-550427016D01*
X58501126Y-550403189D01*
X58524953Y-550427016D01*
G37*
G36*
X59239775Y-553524577D02*
G01*
X59215947Y-553548404D01*
X59192120Y-553524577D01*
X59215947Y-553500750D01*
X59239775Y-553524577D01*
G37*
G36*
X60383490Y-561435271D02*
G01*
X60359662Y-561459099D01*
X60335835Y-561435271D01*
X60359662Y-561411444D01*
X60383490Y-561435271D01*
G37*
G36*
X60478799Y-558909568D02*
G01*
X60454972Y-558933395D01*
X60431144Y-558909568D01*
X60454972Y-558885740D01*
X60478799Y-558909568D01*
G37*
G36*
X63052157Y-552762100D02*
G01*
X63028330Y-552785928D01*
X63004503Y-552762100D01*
X63028330Y-552738273D01*
X63052157Y-552762100D01*
G37*
G36*
X63766979Y-551666040D02*
G01*
X63743152Y-551689868D01*
X63719324Y-551666040D01*
X63743152Y-551642213D01*
X63766979Y-551666040D01*
G37*
G36*
X64434146Y-550617635D02*
G01*
X64410319Y-550641463D01*
X64386491Y-550617635D01*
X64410319Y-550593808D01*
X64434146Y-550617635D01*
G37*
G36*
X64434146Y-553667541D02*
G01*
X64410319Y-553691369D01*
X64386491Y-553667541D01*
X64410319Y-553643714D01*
X64434146Y-553667541D01*
G37*
G36*
X64577111Y-553524577D02*
G01*
X64553283Y-553548404D01*
X64529456Y-553524577D01*
X64553283Y-553500750D01*
X64577111Y-553524577D01*
G37*
G36*
X64672420Y-553381613D02*
G01*
X64648593Y-553405440D01*
X64624765Y-553381613D01*
X64648593Y-553357785D01*
X64672420Y-553381613D01*
G37*
G36*
X64720075Y-550188742D02*
G01*
X64696248Y-550212570D01*
X64672420Y-550188742D01*
X64696248Y-550164915D01*
X64720075Y-550188742D01*
G37*
G36*
X64720075Y-553238648D02*
G01*
X64696248Y-553262476D01*
X64672420Y-553238648D01*
X64696248Y-553214821D01*
X64720075Y-553238648D01*
G37*
G36*
X65387242Y-550808254D02*
G01*
X65363415Y-550832082D01*
X65339587Y-550808254D01*
X65363415Y-550784427D01*
X65387242Y-550808254D01*
G37*
G36*
X65434897Y-550617635D02*
G01*
X65411069Y-550641463D01*
X65387242Y-550617635D01*
X65411069Y-550593808D01*
X65434897Y-550617635D01*
G37*
G36*
X65530206Y-548616134D02*
G01*
X65506379Y-548639962D01*
X65482551Y-548616134D01*
X65506379Y-548592307D01*
X65530206Y-548616134D01*
G37*
G36*
X65577861Y-548520825D02*
G01*
X65554034Y-548544652D01*
X65530206Y-548520825D01*
X65554034Y-548496997D01*
X65577861Y-548520825D01*
G37*
G36*
X65625516Y-548425515D02*
G01*
X65601688Y-548449342D01*
X65577861Y-548425515D01*
X65601688Y-548401688D01*
X65625516Y-548425515D01*
G37*
G36*
X65625516Y-549378611D02*
G01*
X65601688Y-549402438D01*
X65577861Y-549378611D01*
X65601688Y-549354783D01*
X65625516Y-549378611D01*
G37*
G36*
X65625516Y-549473920D02*
G01*
X65601688Y-549497748D01*
X65577861Y-549473920D01*
X65601688Y-549450093D01*
X65625516Y-549473920D01*
G37*
G36*
X65720825Y-548234896D02*
G01*
X65696998Y-548258723D01*
X65673171Y-548234896D01*
X65696998Y-548211069D01*
X65720825Y-548234896D01*
G37*
G36*
X65768480Y-548139586D02*
G01*
X65744653Y-548163414D01*
X65720825Y-548139586D01*
X65744653Y-548115759D01*
X65768480Y-548139586D01*
G37*
G36*
X48882802Y-551086241D02*
G01*
X48876260Y-551114571D01*
X48851032Y-551118010D01*
X48811806Y-551100574D01*
X48819262Y-551086241D01*
X48875817Y-551080537D01*
X48882802Y-551086241D01*
G37*
G36*
X56222422Y-553968362D02*
G01*
X56228103Y-554042841D01*
X56218660Y-554059701D01*
X56197000Y-554045488D01*
X56193631Y-553997154D01*
X56205269Y-553946304D01*
X56222422Y-553968362D01*
G37*
G36*
X56269293Y-553802563D02*
G01*
X56274997Y-553859118D01*
X56269293Y-553866103D01*
X56240962Y-553859561D01*
X56237523Y-553834333D01*
X56254959Y-553795108D01*
X56269293Y-553802563D01*
G37*
G36*
X56316948Y-553659599D02*
G01*
X56322651Y-553716154D01*
X56316948Y-553723139D01*
X56288617Y-553716597D01*
X56285178Y-553691369D01*
X56302614Y-553652143D01*
X56316948Y-553659599D01*
G37*
G36*
X56555222Y-551801062D02*
G01*
X56560925Y-551857617D01*
X56555222Y-551864602D01*
X56526891Y-551858060D01*
X56523452Y-551832832D01*
X56540888Y-551793607D01*
X56555222Y-551801062D01*
G37*
G36*
X56984115Y-555613445D02*
G01*
X56989818Y-555670000D01*
X56984115Y-555676985D01*
X56955784Y-555670443D01*
X56952345Y-555645215D01*
X56969781Y-555605990D01*
X56984115Y-555613445D01*
G37*
G36*
X57032554Y-555350351D02*
G01*
X57038235Y-555424830D01*
X57028791Y-555441689D01*
X57007132Y-555427477D01*
X57003762Y-555379142D01*
X57015400Y-555328293D01*
X57032554Y-555350351D01*
G37*
G36*
X57222389Y-553087741D02*
G01*
X57215847Y-553116072D01*
X57190619Y-553119511D01*
X57151394Y-553102075D01*
X57158849Y-553087741D01*
X57215404Y-553082038D01*
X57222389Y-553087741D01*
G37*
G36*
X57317489Y-559493339D02*
G01*
X57323784Y-559590905D01*
X57317489Y-559612476D01*
X57300096Y-559618462D01*
X57293453Y-559552907D01*
X57300942Y-559485255D01*
X57317489Y-559493339D01*
G37*
G36*
X57365353Y-543175546D02*
G01*
X57358812Y-543203877D01*
X57333583Y-543207316D01*
X57294358Y-543189880D01*
X57301814Y-543175546D01*
X57358369Y-543169843D01*
X57365353Y-543175546D01*
G37*
G36*
X58223139Y-550371419D02*
G01*
X58228843Y-550427974D01*
X58223139Y-550434958D01*
X58194809Y-550428417D01*
X58191369Y-550403189D01*
X58208806Y-550363963D01*
X58223139Y-550371419D01*
G37*
G36*
X58416737Y-550469707D02*
G01*
X58402524Y-550491366D01*
X58354190Y-550494736D01*
X58303341Y-550483098D01*
X58325399Y-550465945D01*
X58399877Y-550460263D01*
X58416737Y-550469707D01*
G37*
G36*
X58747342Y-552611194D02*
G01*
X58753045Y-552667749D01*
X58747342Y-552674733D01*
X58719011Y-552668192D01*
X58715572Y-552642964D01*
X58733008Y-552603738D01*
X58747342Y-552611194D01*
G37*
G36*
X58794997Y-552754158D02*
G01*
X58800700Y-552810713D01*
X58794997Y-552817698D01*
X58766666Y-552811156D01*
X58763227Y-552785928D01*
X58780663Y-552746703D01*
X58794997Y-552754158D01*
G37*
G36*
X60415259Y-558711006D02*
G01*
X60420963Y-558767561D01*
X60415259Y-558774546D01*
X60386929Y-558768004D01*
X60383490Y-558742776D01*
X60400926Y-558703551D01*
X60415259Y-558711006D01*
G37*
G36*
X60510569Y-559044590D02*
G01*
X60516272Y-559101145D01*
X60510569Y-559108129D01*
X60482238Y-559101588D01*
X60478799Y-559076359D01*
X60496235Y-559037134D01*
X60510569Y-559044590D01*
G37*
G36*
X60559008Y-559258043D02*
G01*
X60564689Y-559332522D01*
X60555245Y-559349382D01*
X60533586Y-559335169D01*
X60530216Y-559286835D01*
X60541854Y-559235985D01*
X60559008Y-559258043D01*
G37*
G36*
X60605670Y-559445684D02*
G01*
X60611964Y-559543250D01*
X60605670Y-559564821D01*
X60588276Y-559570807D01*
X60581633Y-559505252D01*
X60589122Y-559437600D01*
X60605670Y-559445684D01*
G37*
G36*
X64751845Y-553087741D02*
G01*
X64757548Y-553144297D01*
X64751845Y-553151281D01*
X64723514Y-553144740D01*
X64720075Y-553119511D01*
X64737511Y-553080286D01*
X64751845Y-553087741D01*
G37*
G36*
X64799500Y-552897122D02*
G01*
X64805203Y-552953677D01*
X64799500Y-552960662D01*
X64771169Y-552954121D01*
X64767730Y-552928892D01*
X64785166Y-552889667D01*
X64799500Y-552897122D01*
G37*
G36*
X64990119Y-552229955D02*
G01*
X64995822Y-552286510D01*
X64990119Y-552293495D01*
X64961788Y-552286954D01*
X64958349Y-552261725D01*
X64975785Y-552222500D01*
X64990119Y-552229955D01*
G37*
G36*
X65037773Y-552086991D02*
G01*
X65043477Y-552143546D01*
X65037773Y-552150531D01*
X65009443Y-552143989D01*
X65006004Y-552118761D01*
X65023440Y-552079536D01*
X65037773Y-552086991D01*
G37*
G36*
X65086212Y-551919206D02*
G01*
X65091893Y-551993685D01*
X65082450Y-552010545D01*
X65060790Y-551996332D01*
X65057421Y-551947998D01*
X65069059Y-551897149D01*
X65086212Y-551919206D01*
G37*
G36*
X65133083Y-551753408D02*
G01*
X65138786Y-551809963D01*
X65133083Y-551816947D01*
X65104752Y-551810406D01*
X65101313Y-551785177D01*
X65118749Y-551745952D01*
X65133083Y-551753408D01*
G37*
G36*
X65180738Y-551562788D02*
G01*
X65186441Y-551619343D01*
X65180738Y-551626328D01*
X65152407Y-551619787D01*
X65148968Y-551594558D01*
X65166404Y-551555333D01*
X65180738Y-551562788D01*
G37*
G36*
X65228393Y-551372169D02*
G01*
X65234096Y-551428724D01*
X65228393Y-551435709D01*
X65200062Y-551429167D01*
X65196623Y-551403939D01*
X65214059Y-551364714D01*
X65228393Y-551372169D01*
G37*
G36*
X65657077Y-549056941D02*
G01*
X65663371Y-549154507D01*
X65657077Y-549176078D01*
X65639683Y-549182065D01*
X65633040Y-549116509D01*
X65640529Y-549048857D01*
X65657077Y-549056941D01*
G37*
G36*
X48986633Y-551137287D02*
G01*
X49037793Y-551185270D01*
X49027298Y-551212856D01*
X49020636Y-551213320D01*
X48980329Y-551179472D01*
X48965618Y-551158302D01*
X48960001Y-551125692D01*
X48986633Y-551137287D01*
G37*
G36*
X52560742Y-557332409D02*
G01*
X52611500Y-557376708D01*
X52615760Y-557387427D01*
X52593144Y-557407014D01*
X52546058Y-557363125D01*
X52539727Y-557353424D01*
X52534110Y-557320814D01*
X52560742Y-557332409D01*
G37*
G36*
X56944982Y-556760552D02*
G01*
X56995740Y-556804851D01*
X57000000Y-556815570D01*
X56977384Y-556835156D01*
X56930298Y-556791267D01*
X56923967Y-556781567D01*
X56918350Y-556748957D01*
X56944982Y-556760552D01*
G37*
G36*
X57903989Y-561160196D02*
G01*
X57921885Y-561194942D01*
X57934079Y-561262090D01*
X57902067Y-561249057D01*
X57879654Y-561217654D01*
X57865006Y-561155283D01*
X57870954Y-561144117D01*
X57903989Y-561160196D01*
G37*
G36*
X58095697Y-561535543D02*
G01*
X58101973Y-561541700D01*
X58139615Y-561604181D01*
X58134511Y-561627151D01*
X58099062Y-561612850D01*
X58075296Y-561568377D01*
X58060787Y-561512703D01*
X58095697Y-561535543D01*
G37*
G36*
X60206497Y-561303156D02*
G01*
X60216698Y-561316134D01*
X60233471Y-561358995D01*
X60188385Y-561342853D01*
X60145216Y-561316134D01*
X60108580Y-561277878D01*
X60130490Y-561269209D01*
X60206497Y-561303156D01*
G37*
G36*
X48923173Y-550898542D02*
G01*
X48982082Y-550926439D01*
X49063314Y-550973536D01*
X49089306Y-551000550D01*
X49074333Y-551020439D01*
X49017122Y-550987215D01*
X48967363Y-550948590D01*
X48905967Y-550897289D01*
X48923173Y-550898542D01*
G37*
G36*
X48934428Y-551514054D02*
G01*
X48949259Y-551527866D01*
X48883365Y-551535387D01*
X48851032Y-551535847D01*
X48764333Y-551530879D01*
X48754115Y-551518509D01*
X48767636Y-551514054D01*
X48888499Y-551506643D01*
X48934428Y-551514054D01*
G37*
G36*
X51310348Y-547478355D02*
G01*
X51257598Y-547543902D01*
X51185987Y-547614380D01*
X51147517Y-547639211D01*
X51157194Y-547609448D01*
X51209944Y-547543902D01*
X51281555Y-547473423D01*
X51320025Y-547448592D01*
X51310348Y-547478355D01*
G37*
G36*
X51647709Y-547187703D02*
G01*
X51621088Y-547222232D01*
X51551531Y-547296320D01*
X51520482Y-547295997D01*
X51519700Y-547287635D01*
X51552266Y-547247856D01*
X51603096Y-547204239D01*
X51659542Y-547163025D01*
X51647709Y-547187703D01*
G37*
G36*
X51933638Y-546949429D02*
G01*
X51907017Y-546983958D01*
X51837459Y-547058046D01*
X51806411Y-547057724D01*
X51805628Y-547049361D01*
X51838194Y-547009582D01*
X51889024Y-546965966D01*
X51945471Y-546924751D01*
X51933638Y-546949429D01*
G37*
G36*
X52505499Y-546478624D02*
G01*
X52496623Y-546495496D01*
X52451722Y-546541007D01*
X52443343Y-546543151D01*
X52440092Y-546512369D01*
X52448968Y-546495496D01*
X52493869Y-546449986D01*
X52502248Y-546447842D01*
X52505499Y-546478624D01*
G37*
G36*
X52696118Y-546335660D02*
G01*
X52687242Y-546352532D01*
X52642341Y-546398042D01*
X52633962Y-546400187D01*
X52630711Y-546369404D01*
X52639587Y-546352532D01*
X52684488Y-546307022D01*
X52692867Y-546304877D01*
X52696118Y-546335660D01*
G37*
G36*
X52934388Y-546139298D02*
G01*
X52907767Y-546173827D01*
X52838210Y-546247914D01*
X52807161Y-546247592D01*
X52806379Y-546239230D01*
X52838945Y-546199451D01*
X52889775Y-546155834D01*
X52946222Y-546114620D01*
X52934388Y-546139298D01*
G37*
G36*
X53676079Y-553687762D02*
G01*
X53775662Y-553780899D01*
X53806581Y-553826123D01*
X53791609Y-553834333D01*
X53753297Y-553802365D01*
X53678526Y-553723454D01*
X53660558Y-553703282D01*
X53545028Y-553572232D01*
X53676079Y-553687762D01*
G37*
G36*
X53792174Y-545424476D02*
G01*
X53765553Y-545459005D01*
X53695996Y-545533093D01*
X53664947Y-545532770D01*
X53664165Y-545524408D01*
X53696731Y-545484629D01*
X53747561Y-545441012D01*
X53804008Y-545399798D01*
X53792174Y-545424476D01*
G37*
G36*
X53982797Y-545287254D02*
G01*
X53973921Y-545304127D01*
X53929020Y-545349637D01*
X53920641Y-545351782D01*
X53917390Y-545320999D01*
X53926266Y-545304127D01*
X53971167Y-545258616D01*
X53979546Y-545256472D01*
X53982797Y-545287254D01*
G37*
G36*
X54173416Y-545144290D02*
G01*
X54164540Y-545161162D01*
X54119639Y-545206673D01*
X54111261Y-545208817D01*
X54108009Y-545178035D01*
X54116885Y-545161162D01*
X54161786Y-545115652D01*
X54170165Y-545113508D01*
X54173416Y-545144290D01*
G37*
G36*
X55412441Y-544715397D02*
G01*
X55403565Y-544732269D01*
X55358664Y-544777780D01*
X55350285Y-544779924D01*
X55347034Y-544749142D01*
X55355910Y-544732269D01*
X55400811Y-544686759D01*
X55409189Y-544684615D01*
X55412441Y-544715397D01*
G37*
G36*
X55555405Y-544620087D02*
G01*
X55546529Y-544636960D01*
X55501628Y-544682470D01*
X55493249Y-544684615D01*
X55489998Y-544653832D01*
X55498874Y-544636960D01*
X55543775Y-544591449D01*
X55552154Y-544589305D01*
X55555405Y-544620087D01*
G37*
G36*
X55698370Y-544524778D02*
G01*
X55689493Y-544541650D01*
X55644592Y-544587161D01*
X55636214Y-544589305D01*
X55632962Y-544558522D01*
X55641839Y-544541650D01*
X55686740Y-544496140D01*
X55695118Y-544493995D01*
X55698370Y-544524778D01*
G37*
G36*
X55888989Y-544381814D02*
G01*
X55880112Y-544398686D01*
X55835211Y-544444196D01*
X55826833Y-544446341D01*
X55823581Y-544415558D01*
X55832458Y-544398686D01*
X55877359Y-544353175D01*
X55885737Y-544351031D01*
X55888989Y-544381814D01*
G37*
G36*
X56031953Y-560441476D02*
G01*
X56023077Y-560458348D01*
X55978176Y-560503859D01*
X55969797Y-560506003D01*
X55966546Y-560475220D01*
X55975422Y-560458348D01*
X56020323Y-560412838D01*
X56028702Y-560410693D01*
X56031953Y-560441476D01*
G37*
G36*
X56079604Y-544233106D02*
G01*
X56052983Y-544267635D01*
X55983426Y-544341723D01*
X55952377Y-544341401D01*
X55951595Y-544333039D01*
X55984161Y-544293259D01*
X56034991Y-544249643D01*
X56091437Y-544208429D01*
X56079604Y-544233106D01*
G37*
G36*
X56937042Y-543323750D02*
G01*
X56904690Y-543350281D01*
X56817815Y-543390605D01*
X56785553Y-543396476D01*
X56777029Y-543376811D01*
X56809381Y-543350281D01*
X56896256Y-543309956D01*
X56928518Y-543304085D01*
X56937042Y-543323750D01*
G37*
G36*
X57094763Y-556682835D02*
G01*
X57095309Y-556693620D01*
X57058675Y-556739444D01*
X57044842Y-556741275D01*
X57016381Y-556712080D01*
X57023827Y-556693620D01*
X57066650Y-556648158D01*
X57074294Y-556645965D01*
X57094763Y-556682835D01*
G37*
G36*
X57219117Y-543225002D02*
G01*
X57166792Y-543254971D01*
X57065757Y-543290708D01*
X57013628Y-543295220D01*
X57028380Y-543268507D01*
X57047655Y-543254971D01*
X57149385Y-543215459D01*
X57190619Y-543211395D01*
X57219117Y-543225002D01*
G37*
G36*
X57226916Y-561188082D02*
G01*
X57238055Y-561200963D01*
X57169620Y-561208191D01*
X57119137Y-561208807D01*
X57026849Y-561204115D01*
X57012848Y-561193352D01*
X57036297Y-561187120D01*
X57160467Y-561179448D01*
X57226916Y-561188082D01*
G37*
G36*
X57699871Y-550767555D02*
G01*
X57690994Y-550784427D01*
X57646093Y-550829937D01*
X57637715Y-550832082D01*
X57634463Y-550801299D01*
X57643339Y-550784427D01*
X57688240Y-550738916D01*
X57696619Y-550736772D01*
X57699871Y-550767555D01*
G37*
G36*
X57751118Y-561092772D02*
G01*
X57762258Y-561105654D01*
X57693823Y-561112882D01*
X57643339Y-561113497D01*
X57551052Y-561108805D01*
X57537051Y-561098042D01*
X57560499Y-561091811D01*
X57684670Y-561084138D01*
X57751118Y-561092772D01*
G37*
G36*
X59224824Y-561632845D02*
G01*
X59215947Y-561649718D01*
X59171046Y-561695228D01*
X59162668Y-561697373D01*
X59159416Y-561666590D01*
X59168293Y-561649718D01*
X59213194Y-561604207D01*
X59221572Y-561602063D01*
X59224824Y-561632845D01*
G37*
G36*
X60700084Y-559938773D02*
G01*
X60702443Y-559946966D01*
X60709419Y-560050773D01*
X60700677Y-560089930D01*
X60685032Y-560091515D01*
X60678643Y-560016913D01*
X60678709Y-560005628D01*
X60685580Y-559931717D01*
X60700084Y-559938773D01*
G37*
G36*
X62751278Y-553197949D02*
G01*
X62742401Y-553214821D01*
X62697500Y-553260331D01*
X62689122Y-553262476D01*
X62685870Y-553231693D01*
X62694747Y-553214821D01*
X62739648Y-553169310D01*
X62748026Y-553167166D01*
X62751278Y-553197949D01*
G37*
G36*
X62846587Y-553054984D02*
G01*
X62837711Y-553071857D01*
X62792810Y-553117367D01*
X62784431Y-553119511D01*
X62781180Y-553088729D01*
X62790056Y-553071857D01*
X62834957Y-553026346D01*
X62843336Y-553024202D01*
X62846587Y-553054984D01*
G37*
G36*
X62941897Y-552912020D02*
G01*
X62933021Y-552928892D01*
X62888120Y-552974403D01*
X62879741Y-552976547D01*
X62876489Y-552945764D01*
X62885366Y-552928892D01*
X62930267Y-552883382D01*
X62938645Y-552881237D01*
X62941897Y-552912020D01*
G37*
G36*
X63847338Y-551530031D02*
G01*
X63838461Y-551546903D01*
X63793560Y-551592414D01*
X63785182Y-551594558D01*
X63781930Y-551563776D01*
X63790807Y-551546903D01*
X63835708Y-551501393D01*
X63844086Y-551499249D01*
X63847338Y-551530031D01*
G37*
G36*
X63942647Y-551387067D02*
G01*
X63933771Y-551403939D01*
X63888870Y-551449450D01*
X63880491Y-551451594D01*
X63877240Y-551420811D01*
X63886116Y-551403939D01*
X63931017Y-551358429D01*
X63939396Y-551356284D01*
X63942647Y-551387067D01*
G37*
G36*
X64037957Y-551244102D02*
G01*
X64029081Y-551260975D01*
X63984180Y-551306485D01*
X63975801Y-551308630D01*
X63972550Y-551277847D01*
X63981426Y-551260975D01*
X64026327Y-551215464D01*
X64034705Y-551213320D01*
X64037957Y-551244102D01*
G37*
G36*
X64175074Y-551010069D02*
G01*
X64148218Y-551070356D01*
X64099004Y-551145248D01*
X64073382Y-551165665D01*
X64073706Y-551130642D01*
X64100563Y-551070356D01*
X64149776Y-550995464D01*
X64175398Y-550975046D01*
X64175074Y-551010069D01*
G37*
G36*
X64276231Y-550862864D02*
G01*
X64267354Y-550879736D01*
X64222453Y-550925247D01*
X64214075Y-550927391D01*
X64210823Y-550896609D01*
X64219700Y-550879736D01*
X64264601Y-550834226D01*
X64272979Y-550832082D01*
X64276231Y-550862864D01*
G37*
G36*
X64371540Y-550719900D02*
G01*
X64362664Y-550736772D01*
X64317763Y-550782283D01*
X64309384Y-550784427D01*
X64306133Y-550753644D01*
X64315009Y-550736772D01*
X64359910Y-550691262D01*
X64368289Y-550689117D01*
X64371540Y-550719900D01*
G37*
G36*
X65080515Y-549532771D02*
G01*
X65053658Y-549593057D01*
X65004445Y-549667949D01*
X64978823Y-549688367D01*
X64979147Y-549653344D01*
X65006004Y-549593057D01*
X65055217Y-549518165D01*
X65080839Y-549497748D01*
X65080515Y-549532771D01*
G37*
G36*
X65463052Y-548713727D02*
G01*
X65431071Y-548782926D01*
X65374201Y-548894223D01*
X65346003Y-548925209D01*
X65339587Y-548895286D01*
X65366830Y-548825339D01*
X65413698Y-548756293D01*
X65462967Y-548697709D01*
X65463052Y-548713727D01*
G37*
G36*
X65703837Y-548739898D02*
G01*
X65706195Y-548748092D01*
X65713171Y-548851899D01*
X65704429Y-548891056D01*
X65688785Y-548892640D01*
X65682395Y-548818039D01*
X65682461Y-548806753D01*
X65689333Y-548732843D01*
X65703837Y-548739898D01*
G37*
G36*
X65751492Y-548406315D02*
G01*
X65753850Y-548414508D01*
X65760826Y-548518315D01*
X65752084Y-548557473D01*
X65736440Y-548559057D01*
X65730050Y-548484455D01*
X65730116Y-548473170D01*
X65736987Y-548399259D01*
X65751492Y-548406315D01*
G37*
G36*
X53166788Y-545959380D02*
G01*
X53065150Y-546067650D01*
X53012337Y-546111364D01*
X52997001Y-546099879D01*
X52996998Y-546099346D01*
X53028902Y-546061476D01*
X53109294Y-545983527D01*
X53151876Y-545944468D01*
X53306754Y-545804502D01*
X53166788Y-545959380D01*
G37*
G36*
X54236022Y-545556306D02*
G01*
X54204107Y-545593358D01*
X54120635Y-545676713D01*
X54009662Y-545782666D01*
X53783302Y-545995121D01*
X53995757Y-545768761D01*
X54121059Y-545637215D01*
X54194793Y-545565986D01*
X54229006Y-545544417D01*
X54236022Y-545556306D01*
G37*
G36*
X56642246Y-561041866D02*
G01*
X56690244Y-561076289D01*
X56770581Y-561134828D01*
X56805410Y-561159685D01*
X56789747Y-561172523D01*
X56775504Y-561173170D01*
X56709103Y-561139408D01*
X56660338Y-561089774D01*
X56619731Y-561034038D01*
X56642246Y-561041866D01*
G37*
G36*
X57416121Y-559600562D02*
G01*
X57451918Y-559716621D01*
X57486949Y-559779267D01*
X57518979Y-559832310D01*
X57491263Y-559826996D01*
X57438424Y-559781650D01*
X57396575Y-559692682D01*
X57387728Y-559602945D01*
X57394218Y-559481425D01*
X57416121Y-559600562D01*
G37*
G36*
X57536116Y-557834770D02*
G01*
X57652536Y-557944618D01*
X57706617Y-558004650D01*
X57708561Y-558026868D01*
X57700343Y-558027954D01*
X57662808Y-557996066D01*
X57582575Y-557914467D01*
X57521637Y-557849249D01*
X57357411Y-557670543D01*
X57536116Y-557834770D01*
G37*
G36*
X58894278Y-554331710D02*
G01*
X58988152Y-554419619D01*
X59043166Y-554477076D01*
X59049156Y-554486588D01*
X59034284Y-554498813D01*
X58982103Y-554455976D01*
X58881263Y-554348721D01*
X58879366Y-554346622D01*
X58739400Y-554191744D01*
X58894278Y-554331710D01*
G37*
G36*
X48345845Y-551343611D02*
G01*
X48374484Y-551363820D01*
X48489421Y-551453862D01*
X48524567Y-551494168D01*
X48480147Y-551483588D01*
X48362570Y-551424337D01*
X48270802Y-551360864D01*
X48231541Y-551306553D01*
X48231520Y-551305681D01*
X48264296Y-551299697D01*
X48345845Y-551343611D01*
G37*
G36*
X56644788Y-551976495D02*
G01*
X56740992Y-552028464D01*
X56884870Y-552115422D01*
X56947167Y-552163666D01*
X56927056Y-552171412D01*
X56823712Y-552136875D01*
X56783899Y-552121071D01*
X56670723Y-552050248D01*
X56620201Y-552001358D01*
X56599284Y-551963638D01*
X56644788Y-551976495D01*
G37*
G36*
X58462537Y-551387066D02*
G01*
X58423140Y-551459302D01*
X58359549Y-551542828D01*
X58303056Y-551598478D01*
X58264103Y-551620742D01*
X58284222Y-551575619D01*
X58327527Y-551511162D01*
X58401262Y-551413213D01*
X58451384Y-551359677D01*
X58458392Y-551356284D01*
X58462537Y-551387066D01*
G37*
G36*
X55030402Y-553509608D02*
G01*
X55022549Y-553548404D01*
X54995663Y-553662518D01*
X54981602Y-553725731D01*
X54953230Y-553795040D01*
X54918580Y-553826445D01*
X54903189Y-553800092D01*
X54921855Y-553726524D01*
X54967735Y-553610702D01*
X54977286Y-553589617D01*
X55020228Y-553505284D01*
X55030402Y-553509608D01*
G37*
G36*
X55346698Y-553028500D02*
G01*
X55498874Y-553032798D01*
X55340771Y-553078353D01*
X55192410Y-553160806D01*
X55116276Y-553276588D01*
X55072080Y-553365012D01*
X55051416Y-553367334D01*
X55048019Y-553332648D01*
X55086135Y-553177842D01*
X55191757Y-553068646D01*
X55341960Y-553028404D01*
X55346698Y-553028500D01*
G37*
G36*
X55639314Y-553083151D02*
G01*
X55693390Y-553140608D01*
X55742453Y-553232267D01*
X55762712Y-553316792D01*
X55745855Y-553357517D01*
X55742629Y-553357785D01*
X55706687Y-553322495D01*
X55645352Y-553237316D01*
X55643512Y-553234514D01*
X55596161Y-553135344D01*
X55597929Y-553078927D01*
X55639314Y-553083151D01*
G37*
G36*
X58554830Y-552185444D02*
G01*
X58618378Y-552292096D01*
X58674657Y-552405871D01*
X58707244Y-552494497D01*
X58707119Y-552524337D01*
X58677948Y-552495406D01*
X58619646Y-552403399D01*
X58563781Y-552303256D01*
X58506557Y-552185918D01*
X58485560Y-552120485D01*
X58500435Y-552118188D01*
X58554830Y-552185444D01*
G37*
G36*
X59002977Y-561800956D02*
G01*
X58977673Y-561813641D01*
X58846488Y-561853278D01*
X58671100Y-561876397D01*
X58572608Y-561879076D01*
X58310506Y-561874460D01*
X58620263Y-561839836D01*
X58796935Y-561817074D01*
X58946169Y-561792551D01*
X59025328Y-561774401D01*
X59053006Y-561771003D01*
X59002977Y-561800956D01*
G37*
G36*
X59749569Y-561230080D02*
G01*
X59726810Y-561250043D01*
X59669648Y-561274009D01*
X59543383Y-561341012D01*
X59467115Y-561397511D01*
X59403427Y-561444995D01*
X59382739Y-561444513D01*
X59420833Y-561377824D01*
X59510818Y-561301558D01*
X59616250Y-561241925D01*
X59689567Y-561223845D01*
X59749569Y-561230080D01*
G37*
G36*
X53596935Y-545572323D02*
G01*
X53535686Y-545645899D01*
X53521201Y-545661538D01*
X53439667Y-545741687D01*
X53388331Y-545780100D01*
X53385450Y-545780675D01*
X53397811Y-545750753D01*
X53459060Y-545677176D01*
X53473546Y-545661538D01*
X53555079Y-545581388D01*
X53606416Y-545542975D01*
X53609297Y-545542401D01*
X53596935Y-545572323D01*
G37*
G36*
X56000027Y-560816239D02*
G01*
X56029150Y-560870790D01*
X56023557Y-560886464D01*
X56035519Y-560936849D01*
X56058521Y-560950891D01*
X56084235Y-560974024D01*
X56066760Y-560978789D01*
X55990646Y-560956973D01*
X55983364Y-560950781D01*
X55953615Y-560888586D01*
X55958990Y-560828521D01*
X55994215Y-560813162D01*
X56000027Y-560816239D01*
G37*
G36*
X56829897Y-560543819D02*
G01*
X56789923Y-560640136D01*
X56756837Y-560708536D01*
X56681327Y-560854493D01*
X56638497Y-560925677D01*
X56620683Y-560933667D01*
X56618762Y-560917113D01*
X56638786Y-560854303D01*
X56687502Y-560749416D01*
X56747870Y-560634824D01*
X56802851Y-560542900D01*
X56835145Y-560506003D01*
X56829897Y-560543819D01*
G37*
G36*
X58413001Y-560044583D02*
G01*
X58406247Y-560094771D01*
X58367622Y-560194309D01*
X58312961Y-560310038D01*
X58258101Y-560408797D01*
X58218878Y-560457426D01*
X58215408Y-560458348D01*
X58214202Y-560420281D01*
X58240244Y-560336003D01*
X58308097Y-560177094D01*
X58367444Y-560073606D01*
X58408632Y-560041819D01*
X58413001Y-560044583D01*
G37*
G36*
X59411260Y-552816785D02*
G01*
X59400523Y-552881237D01*
X59379767Y-553019646D01*
X59354974Y-553206608D01*
X59336659Y-553357785D01*
X59300961Y-553667541D01*
X59297858Y-553381613D01*
X59307884Y-553186621D01*
X59336943Y-552997028D01*
X59361722Y-552905065D01*
X59402941Y-552789823D01*
X59417763Y-552761434D01*
X59411260Y-552816785D01*
G37*
G36*
X65321942Y-549044053D02*
G01*
X65285789Y-549146140D01*
X65234278Y-549268361D01*
X65181397Y-549378337D01*
X65141134Y-549443691D01*
X65131920Y-549450093D01*
X65136236Y-549410696D01*
X65170993Y-549309166D01*
X65209730Y-549212884D01*
X65267962Y-549085557D01*
X65312401Y-549007439D01*
X65328749Y-548994477D01*
X65321942Y-549044053D01*
G37*
G36*
X48363918Y-550959582D02*
G01*
X48430681Y-550999824D01*
X48552282Y-551030187D01*
X48589549Y-551034967D01*
X48699118Y-551046769D01*
X48724460Y-551053533D01*
X48661573Y-551058273D01*
X48553189Y-551062345D01*
X48413567Y-551061282D01*
X48345877Y-551040114D01*
X48327576Y-550991307D01*
X48327559Y-550986960D01*
X48340117Y-550937409D01*
X48363918Y-550959582D01*
G37*
G36*
X58197675Y-553524825D02*
G01*
X58252969Y-553565419D01*
X58336583Y-553646274D01*
X58428613Y-553745208D01*
X58509156Y-553840041D01*
X58558306Y-553908593D01*
X58560948Y-553929643D01*
X58521999Y-553898345D01*
X58436231Y-553816644D01*
X58332342Y-553712497D01*
X58236331Y-553607570D01*
X58187803Y-553540141D01*
X58197089Y-553524606D01*
X58197675Y-553524825D01*
G37*
G36*
X58850010Y-552937010D02*
G01*
X58916897Y-553028861D01*
X59005546Y-553163179D01*
X59011900Y-553173191D01*
X59109056Y-553332307D01*
X59158035Y-553424798D01*
X59158186Y-553446948D01*
X59108859Y-553395038D01*
X59033733Y-553298217D01*
X58934842Y-553155447D01*
X58859070Y-553027168D01*
X58818972Y-552936249D01*
X58818934Y-552907009D01*
X58850010Y-552937010D01*
G37*
G36*
X56585217Y-553062691D02*
G01*
X56548037Y-553160031D01*
X56493597Y-553289032D01*
X56433762Y-553422504D01*
X56380401Y-553533257D01*
X56345381Y-553594099D01*
X56343668Y-553596059D01*
X56338480Y-553575864D01*
X56356855Y-553500750D01*
X56397960Y-553389621D01*
X56456872Y-553257654D01*
X56519195Y-553133866D01*
X56570532Y-553047277D01*
X56593266Y-553024202D01*
X56585217Y-553062691D01*
G37*
G36*
X57801119Y-552038143D02*
G01*
X57788505Y-552047944D01*
X57619921Y-552135148D01*
X57397857Y-552191849D01*
X57166792Y-552207994D01*
X57071032Y-552203631D01*
X57053396Y-552196105D01*
X57119623Y-552182162D01*
X57246520Y-552162776D01*
X57436658Y-552126223D01*
X57620463Y-552077198D01*
X57699240Y-552049674D01*
X57807071Y-552008231D01*
X57837631Y-552004453D01*
X57801119Y-552038143D01*
G37*
G36*
X58518736Y-550128798D02*
G01*
X58515111Y-550164428D01*
X58473732Y-550263348D01*
X58417730Y-550298973D01*
X58356091Y-550287405D01*
X58335446Y-550206917D01*
X58335064Y-550180323D01*
X58342080Y-550095021D01*
X58366407Y-550095145D01*
X58382718Y-550117260D01*
X58427721Y-550164747D01*
X58471839Y-550127904D01*
X58479370Y-550117260D01*
X58513524Y-550082204D01*
X58518736Y-550128798D01*
G37*
G36*
X52731304Y-546921853D02*
G01*
X52711069Y-546943448D01*
X52587934Y-547067629D01*
X52453340Y-547193821D01*
X52324456Y-547307249D01*
X52218449Y-547393140D01*
X52152485Y-547436722D01*
X52139212Y-547435559D01*
X52172643Y-547397410D01*
X52263277Y-547310101D01*
X52396621Y-547187275D01*
X52532364Y-547065454D01*
X52685501Y-546931538D01*
X52769594Y-546863040D01*
X52784807Y-546859849D01*
X52731304Y-546921853D01*
G37*
G36*
X60752747Y-560934896D02*
G01*
X60758351Y-561199527D01*
X60748732Y-561381546D01*
X60721597Y-561492771D01*
X60674651Y-561545020D01*
X60632769Y-561552959D01*
X60576049Y-561547307D01*
X60602540Y-561521443D01*
X60633677Y-561502936D01*
X60673712Y-561464334D01*
X60699995Y-561392106D01*
X60715909Y-561267683D01*
X60724839Y-561072494D01*
X60726773Y-560992096D01*
X60736473Y-560529830D01*
X60752747Y-560934896D01*
G37*
G36*
X63386199Y-554704033D02*
G01*
X63107611Y-554986132D01*
X62888737Y-555207136D01*
X62722499Y-555373939D01*
X62601820Y-555493435D01*
X62519619Y-555572521D01*
X62468821Y-555618089D01*
X62442345Y-555637035D01*
X62433114Y-555636253D01*
X62432645Y-555632843D01*
X62465174Y-555597522D01*
X62557001Y-555503995D01*
X62699485Y-555360901D01*
X62883988Y-555176881D01*
X63101870Y-554960573D01*
X63344490Y-554720618D01*
X63373827Y-554691661D01*
X64315009Y-553762851D01*
X63386199Y-554704033D01*
G37*
G36*
X55949661Y-553779474D02*
G01*
X55993787Y-553875411D01*
X56029540Y-553969520D01*
X56083076Y-554097872D01*
X56130723Y-554174416D01*
X56153329Y-554184874D01*
X56170180Y-554211434D01*
X56168217Y-554306216D01*
X56160534Y-554366942D01*
X56133037Y-554520247D01*
X56111769Y-554586360D01*
X56098420Y-554562664D01*
X56094559Y-554469248D01*
X56078932Y-554345411D01*
X56038605Y-554176096D01*
X55999126Y-554048421D01*
X55952182Y-553900074D01*
X55925563Y-553791726D01*
X55924116Y-553750617D01*
X55949661Y-553779474D01*
G37*
G36*
X52373724Y-553791956D02*
G01*
X52389646Y-553866351D01*
X52429934Y-554009278D01*
X52488206Y-554199056D01*
X52547067Y-554380879D01*
X52612749Y-554586236D01*
X52662747Y-554756209D01*
X52691795Y-554871907D01*
X52695685Y-554914008D01*
X52674109Y-554879783D01*
X52630570Y-554771155D01*
X52571275Y-554604775D01*
X52502429Y-554397293D01*
X52498339Y-554384550D01*
X52431868Y-554166561D01*
X52380989Y-553979024D01*
X52350669Y-553841829D01*
X52345879Y-553774866D01*
X52345959Y-553774663D01*
X52367254Y-553753511D01*
X52373724Y-553791956D01*
G37*
G36*
X56374427Y-543607796D02*
G01*
X56304031Y-543668173D01*
X56162320Y-543775922D01*
X56011163Y-543885776D01*
X55821784Y-544017993D01*
X55629154Y-544146364D01*
X55449088Y-544261110D01*
X55297402Y-544352449D01*
X55189912Y-544410602D01*
X55142434Y-544425786D01*
X55141463Y-544423606D01*
X55178252Y-544390157D01*
X55278097Y-544314757D01*
X55425216Y-544209014D01*
X55582270Y-544099377D01*
X55833611Y-543928386D01*
X56043966Y-543789662D01*
X56208279Y-543685724D01*
X56321497Y-543619089D01*
X56378564Y-543592274D01*
X56374427Y-543607796D01*
G37*
G36*
X52907561Y-555370727D02*
G01*
X52960164Y-555451764D01*
X53017279Y-555590980D01*
X53023452Y-555609474D01*
X53113506Y-555858946D01*
X53209843Y-556055926D01*
X53335565Y-556241737D01*
X53467750Y-556404162D01*
X53667995Y-556644871D01*
X53808318Y-556826183D01*
X53886279Y-556944815D01*
X53902439Y-556988807D01*
X53883448Y-557028112D01*
X53824350Y-556995704D01*
X53721959Y-556888695D01*
X53573091Y-556704195D01*
X53537564Y-556657879D01*
X53268177Y-556289205D01*
X53067797Y-555979939D01*
X52934233Y-555726126D01*
X52865291Y-555523814D01*
X52854034Y-555424777D01*
X52869005Y-555358266D01*
X52907561Y-555370727D01*
G37*
G36*
X55032337Y-554343259D02*
G01*
X55022096Y-554516040D01*
X54997737Y-554702670D01*
X54975473Y-554877799D01*
X54967793Y-555032534D01*
X54977529Y-555187812D01*
X55007516Y-555364570D01*
X55060588Y-555583745D01*
X55139579Y-555866274D01*
X55168861Y-555966885D01*
X55175843Y-556051258D01*
X55150445Y-556074108D01*
X55108716Y-556033030D01*
X55050749Y-555926340D01*
X54999990Y-555805054D01*
X54913760Y-555484679D01*
X54870411Y-555122486D01*
X54873688Y-554763562D01*
X54897963Y-554577137D01*
X54929606Y-554423526D01*
X54958266Y-554311713D01*
X54974488Y-554271352D01*
X55016471Y-554261770D01*
X55032337Y-554343259D01*
G37*
G36*
X53921487Y-554440519D02*
G01*
X54013003Y-554524047D01*
X54105298Y-554627589D01*
X54171654Y-554721961D01*
X54188368Y-554767619D01*
X54213169Y-554829645D01*
X54279421Y-554948987D01*
X54374897Y-555104207D01*
X54420135Y-555173978D01*
X54580614Y-555427406D01*
X54711258Y-555652888D01*
X54806087Y-555838526D01*
X54859123Y-555972417D01*
X54864385Y-556042663D01*
X54859277Y-556047967D01*
X54817177Y-556022799D01*
X54746145Y-555931754D01*
X54660715Y-555793777D01*
X54651021Y-555776472D01*
X54549661Y-555590979D01*
X54451085Y-555406137D01*
X54385681Y-555279707D01*
X54307212Y-555143843D01*
X54192319Y-554968423D01*
X54064030Y-554788386D01*
X54046382Y-554764894D01*
X53921487Y-554598415D01*
X53847450Y-554493340D01*
X53816879Y-554435634D01*
X53822382Y-554411263D01*
X53856568Y-554406191D01*
X53857470Y-554406191D01*
X53921487Y-554440519D01*
G37*
G36*
X56145686Y-555397925D02*
G01*
X56213058Y-555777609D01*
X56312042Y-556147269D01*
X56435325Y-556488175D01*
X56575593Y-556781599D01*
X56725536Y-557008814D01*
X56809925Y-557099179D01*
X56880920Y-557180187D01*
X56904690Y-557234317D01*
X56882231Y-557240281D01*
X56837104Y-557191265D01*
X56797776Y-557143478D01*
X56762714Y-557129746D01*
X56722110Y-557160981D01*
X56666150Y-557248098D01*
X56585026Y-557402009D01*
X56505758Y-557559845D01*
X56384513Y-557787985D01*
X56293530Y-557925977D01*
X56232560Y-557973970D01*
X56201352Y-557932109D01*
X56199657Y-557800541D01*
X56205675Y-557736165D01*
X56220079Y-557580691D01*
X56236701Y-557362510D01*
X56253191Y-557114116D01*
X56263822Y-556931894D01*
X56275025Y-556671016D01*
X56274027Y-556473998D01*
X56258444Y-556309899D01*
X56225891Y-556147777D01*
X56194114Y-556027411D01*
X56140030Y-555785553D01*
X56106962Y-555539507D01*
X56100602Y-555384071D01*
X56106645Y-555097185D01*
X56145686Y-555397925D01*
G37*
G36*
X52709789Y-557448951D02*
G01*
X52807437Y-557488367D01*
X52958584Y-557557841D01*
X53134985Y-557644218D01*
X53397571Y-557770928D01*
X53682980Y-557900175D01*
X53970918Y-558023584D01*
X54241089Y-558132781D01*
X54473198Y-558219391D01*
X54646950Y-558275042D01*
X54688743Y-558285340D01*
X54849082Y-558320569D01*
X54974672Y-558348966D01*
X55177533Y-558374981D01*
X55418958Y-558376588D01*
X55653133Y-558355401D01*
X55816361Y-558319337D01*
X55970899Y-558245320D01*
X56107823Y-558144513D01*
X56114203Y-558138278D01*
X56193015Y-558069977D01*
X56235263Y-558053838D01*
X56237523Y-558060195D01*
X56202635Y-558124313D01*
X56115569Y-558217635D01*
X56002724Y-558315420D01*
X55890497Y-558392930D01*
X55871332Y-558403370D01*
X55731730Y-558441440D01*
X55525873Y-558455932D01*
X55279512Y-558448142D01*
X55018397Y-558419367D01*
X54768280Y-558370902D01*
X54664915Y-558342630D01*
X54448122Y-558272809D01*
X54226528Y-558195631D01*
X54052232Y-558129428D01*
X53885920Y-558057833D01*
X53683156Y-557964870D01*
X53461448Y-557859264D01*
X53238306Y-557749736D01*
X53031237Y-557645011D01*
X52857751Y-557553811D01*
X52735357Y-557484859D01*
X52681564Y-557446879D01*
X52681249Y-557446399D01*
X52709789Y-557448951D01*
G37*
G36*
X52674543Y-552919262D02*
G01*
X52859359Y-553020390D01*
X53036914Y-553165204D01*
X53179734Y-553334288D01*
X53202547Y-553370729D01*
X53303754Y-553512011D01*
X53450084Y-553678200D01*
X53620015Y-553848676D01*
X53792019Y-554002815D01*
X53944574Y-554119997D01*
X54041708Y-554174691D01*
X54154137Y-554199960D01*
X54222888Y-554194235D01*
X54264853Y-554195682D01*
X54256357Y-554221223D01*
X54260988Y-554252657D01*
X54331332Y-554239399D01*
X54406285Y-554227657D01*
X54407862Y-554255058D01*
X54418322Y-554282287D01*
X54511583Y-554266169D01*
X54519479Y-554263935D01*
X54655277Y-554218745D01*
X54732687Y-554165330D01*
X54786413Y-554075016D01*
X54807456Y-554025975D01*
X54862272Y-553927773D01*
X54915393Y-553880496D01*
X54947861Y-553897758D01*
X54950844Y-553922993D01*
X54924411Y-553988781D01*
X54859183Y-554097671D01*
X54776269Y-554218631D01*
X54696778Y-554320632D01*
X54646956Y-554369720D01*
X54526130Y-554401230D01*
X54350883Y-554386685D01*
X54182891Y-554340445D01*
X53993746Y-554253637D01*
X53806066Y-554124565D01*
X53607941Y-553942437D01*
X53387459Y-553696459D01*
X53165318Y-553418397D01*
X52985820Y-553211841D01*
X52809161Y-553056587D01*
X52647040Y-552959155D01*
X52511155Y-552926065D01*
X52413205Y-552963836D01*
X52393883Y-552988461D01*
X52362752Y-553071696D01*
X52331812Y-553203383D01*
X52325553Y-553238648D01*
X52305646Y-553351436D01*
X52295265Y-553374895D01*
X52289683Y-553313934D01*
X52288141Y-553277492D01*
X52304696Y-553070069D01*
X52371772Y-552936844D01*
X52486831Y-552882348D01*
X52509941Y-552881237D01*
X52674543Y-552919262D01*
G37*
G36*
X59619193Y-558873753D02*
G01*
X59591731Y-559027275D01*
X59527586Y-559268314D01*
X59478049Y-559433770D01*
X59417238Y-559641669D01*
X59369288Y-559825293D01*
X59340518Y-559959322D01*
X59335084Y-560006492D01*
X59335084Y-560114770D01*
X59625812Y-560024286D01*
X59802572Y-559961562D01*
X59960007Y-559892609D01*
X60042791Y-559845953D01*
X60209483Y-559749384D01*
X60375441Y-559685308D01*
X60520617Y-559657387D01*
X60624967Y-559669282D01*
X60668443Y-559724655D01*
X60668689Y-559731613D01*
X60660089Y-559785562D01*
X60626669Y-559749751D01*
X60624912Y-559746989D01*
X60588352Y-559717872D01*
X60522455Y-559722977D01*
X60408052Y-559766916D01*
X60270368Y-559832319D01*
X60073493Y-559922499D01*
X59870899Y-560004673D01*
X59725014Y-560055116D01*
X59559847Y-560116359D01*
X59413459Y-560190640D01*
X59367361Y-560221942D01*
X59303171Y-560282153D01*
X59263804Y-560355367D01*
X59241409Y-560467399D01*
X59228135Y-560644065D01*
X59226015Y-560686676D01*
X59218970Y-560808319D01*
X59213996Y-560834860D01*
X59211088Y-560766244D01*
X59210241Y-560602416D01*
X59210433Y-560521853D01*
X59210149Y-560288781D01*
X59204840Y-560131260D01*
X59190899Y-560029544D01*
X59164719Y-559963884D01*
X59122691Y-559914533D01*
X59095037Y-559890167D01*
X58977673Y-559790661D01*
X59111826Y-559838576D01*
X59218300Y-559875396D01*
X59262794Y-559879578D01*
X59273590Y-559849103D01*
X59274799Y-559826922D01*
X59291007Y-559725289D01*
X59327644Y-559568522D01*
X59377512Y-559381464D01*
X59433412Y-559188957D01*
X59488145Y-559015842D01*
X59534512Y-558886963D01*
X59564224Y-558828158D01*
X59610010Y-558807473D01*
X59619193Y-558873753D01*
G37*
G36*
X52754875Y-555025703D02*
G01*
X52771736Y-555127841D01*
X52786689Y-555217694D01*
X52773349Y-555378409D01*
X52699464Y-555552586D01*
X52585640Y-555705782D01*
X52452481Y-555803552D01*
X52431446Y-555811527D01*
X52330477Y-555848447D01*
X52311122Y-555874953D01*
X52363347Y-555906789D01*
X52369039Y-555909445D01*
X52461834Y-555970996D01*
X52594936Y-556082713D01*
X52753623Y-556229514D01*
X52923171Y-556396317D01*
X53088859Y-556568040D01*
X53235962Y-556729600D01*
X53349759Y-556865915D01*
X53415526Y-556961903D01*
X53425891Y-556992098D01*
X53407847Y-557024759D01*
X53350651Y-556990440D01*
X53249705Y-556885073D01*
X53100414Y-556704589D01*
X53098787Y-556702548D01*
X52934578Y-556519263D01*
X52733143Y-556326143D01*
X52537656Y-556164534D01*
X52534832Y-556162445D01*
X52387039Y-556048502D01*
X52274564Y-555952568D01*
X52215444Y-555890388D01*
X52210694Y-555879419D01*
X52170756Y-555839059D01*
X52065574Y-555773710D01*
X51917099Y-555696868D01*
X51902435Y-555689883D01*
X51729819Y-555613268D01*
X51614484Y-555578076D01*
X51530845Y-555578644D01*
X51479552Y-555596325D01*
X51411416Y-555637685D01*
X51381931Y-555699368D01*
X51381314Y-555811790D01*
X51387430Y-555882713D01*
X51403821Y-555994014D01*
X51437013Y-556093125D01*
X51498838Y-556200428D01*
X51601123Y-556336310D01*
X51755699Y-556521155D01*
X51762657Y-556529294D01*
X51994088Y-556801912D01*
X52165187Y-557007881D01*
X52275545Y-557146495D01*
X52324749Y-557217048D01*
X52312391Y-557218834D01*
X52238058Y-557151145D01*
X52101342Y-557013275D01*
X51955472Y-556861132D01*
X51730865Y-556620257D01*
X51566370Y-556430301D01*
X51453006Y-556276533D01*
X51381791Y-556144224D01*
X51343743Y-556018641D01*
X51329881Y-555885055D01*
X51329081Y-555833783D01*
X51332913Y-555686896D01*
X51355541Y-555591286D01*
X51413656Y-555536460D01*
X51523953Y-555511930D01*
X51703123Y-555507206D01*
X51845267Y-555509408D01*
X52016760Y-555513895D01*
X52099176Y-555519793D01*
X52098750Y-555528575D01*
X52021714Y-555541714D01*
X51996507Y-555545149D01*
X51782320Y-555573733D01*
X51985001Y-555664550D01*
X52129079Y-555719270D01*
X52243796Y-555728708D01*
X52375892Y-555698977D01*
X52522313Y-555644291D01*
X52587192Y-555595873D01*
X52566998Y-555559995D01*
X52463694Y-555543143D01*
X52370411Y-555537933D01*
X52360802Y-555530559D01*
X52439299Y-555516211D01*
X52496623Y-555507402D01*
X52687242Y-555478423D01*
X52715215Y-555216322D01*
X52731939Y-555087679D01*
X52746784Y-555021332D01*
X52754875Y-555025703D01*
G37*
G36*
X62033789Y-556061965D02*
G01*
X62019897Y-556076727D01*
X61773940Y-556336209D01*
X61681413Y-556986486D01*
X61643604Y-557266407D01*
X61621368Y-557478974D01*
X61613855Y-557650715D01*
X61620213Y-557808161D01*
X61639592Y-557977840D01*
X61647788Y-558034891D01*
X61682354Y-558248124D01*
X61720262Y-558450343D01*
X61754265Y-558603409D01*
X61759645Y-558623639D01*
X61805694Y-558806288D01*
X61812454Y-558915142D01*
X61770467Y-558966924D01*
X61670279Y-558978359D01*
X61562945Y-558971526D01*
X61372508Y-558934914D01*
X61127690Y-558857059D01*
X60863514Y-558750104D01*
X60634776Y-558653507D01*
X60482035Y-558601988D01*
X60398447Y-558593496D01*
X60380232Y-558605082D01*
X60348562Y-558605920D01*
X60316799Y-558525484D01*
X60313401Y-558510847D01*
X60265342Y-558401734D01*
X60196641Y-558360419D01*
X60128780Y-558398268D01*
X60121372Y-558409219D01*
X60060473Y-558449001D01*
X59941704Y-558493195D01*
X59884010Y-558509248D01*
X59785503Y-558543118D01*
X59683311Y-558601291D01*
X59562605Y-558695369D01*
X59408555Y-558836952D01*
X59206333Y-559037641D01*
X59198733Y-559045338D01*
X59017379Y-559231018D01*
X58852557Y-559403271D01*
X58719819Y-559545598D01*
X58634717Y-559641500D01*
X58621896Y-559657329D01*
X58522443Y-559785578D01*
X58726231Y-559803882D01*
X58930019Y-559822185D01*
X58696053Y-559830510D01*
X58569315Y-559840950D01*
X58469604Y-559871564D01*
X58368558Y-559937281D01*
X58237817Y-560053026D01*
X58193553Y-560094975D01*
X57949625Y-560302852D01*
X57717649Y-560453485D01*
X57512657Y-560538137D01*
X57404239Y-560553658D01*
X57269060Y-560541841D01*
X57117737Y-560511829D01*
X56979511Y-560471780D01*
X56883624Y-560429851D01*
X56857036Y-560401006D01*
X56824498Y-560408889D01*
X56737598Y-560469316D01*
X56612406Y-560570618D01*
X56553908Y-560621110D01*
X56368296Y-560774546D01*
X56235432Y-560859311D01*
X56145735Y-560878839D01*
X56089627Y-560836566D01*
X56071421Y-560794104D01*
X56074727Y-560684931D01*
X56118227Y-560584416D01*
X56164763Y-560495809D01*
X56151588Y-560458348D01*
X56332833Y-560458348D01*
X56350269Y-560497573D01*
X56364603Y-560490118D01*
X56370306Y-560433563D01*
X56364603Y-560426578D01*
X56336272Y-560433120D01*
X56332833Y-560458348D01*
X56151588Y-560458348D01*
X56149454Y-560452281D01*
X56132663Y-560444049D01*
X56136331Y-560402895D01*
X56208548Y-560309101D01*
X56294667Y-560220074D01*
X56618762Y-560220074D01*
X56636198Y-560259299D01*
X56650531Y-560251844D01*
X56656235Y-560195289D01*
X56650531Y-560188304D01*
X56622201Y-560194846D01*
X56618762Y-560220074D01*
X56294667Y-560220074D01*
X56343476Y-560169617D01*
X56440056Y-560078023D01*
X56612424Y-559909232D01*
X56736678Y-559768703D01*
X56802046Y-559669177D01*
X56809381Y-559641228D01*
X56837274Y-559508428D01*
X56904321Y-559375816D01*
X56971393Y-559303449D01*
X57056067Y-559276612D01*
X57151667Y-559267708D01*
X57267813Y-559234939D01*
X57295464Y-559195496D01*
X57333583Y-559195496D01*
X57357411Y-559219324D01*
X57381238Y-559195496D01*
X57357411Y-559171669D01*
X57333583Y-559195496D01*
X57295464Y-559195496D01*
X57307761Y-559177954D01*
X57364552Y-559081280D01*
X57442023Y-558999248D01*
X57548030Y-558909568D01*
X57456984Y-559017083D01*
X57399592Y-559110218D01*
X57405419Y-559159540D01*
X57463984Y-559147609D01*
X57513020Y-559110306D01*
X57565070Y-559069524D01*
X57585317Y-559085410D01*
X57581674Y-559173670D01*
X57575192Y-559233707D01*
X57558391Y-559338415D01*
X57542499Y-559355145D01*
X57535113Y-559326547D01*
X57505656Y-559238175D01*
X57447345Y-559229888D01*
X57361681Y-559281790D01*
X57316229Y-559346385D01*
X57276839Y-559453709D01*
X57248288Y-559576939D01*
X57235349Y-559689250D01*
X57242798Y-559763818D01*
X57273933Y-559774768D01*
X57330710Y-559782954D01*
X57349728Y-559812171D01*
X57414620Y-559861837D01*
X57524374Y-559876046D01*
X57610964Y-559864967D01*
X57626249Y-559843461D01*
X57621968Y-559840354D01*
X57644511Y-559806036D01*
X57736214Y-559727725D01*
X57886379Y-559613451D01*
X58084308Y-559471248D01*
X58319304Y-559309146D01*
X58417325Y-559243180D01*
X58709683Y-559045286D01*
X58954334Y-558872432D01*
X59170673Y-558708761D01*
X59378096Y-558538419D01*
X59595997Y-558345553D01*
X59843773Y-558114308D01*
X60104226Y-557864253D01*
X60400085Y-557578925D01*
X60690526Y-557300473D01*
X60969324Y-557034704D01*
X61230256Y-556787425D01*
X61467099Y-556564442D01*
X61673630Y-556371563D01*
X61843626Y-556214594D01*
X61970862Y-556099344D01*
X62049117Y-556031617D01*
X62072167Y-556017222D01*
X62033789Y-556061965D01*
G37*
G36*
X61321822Y-544988863D02*
G01*
X61451363Y-545074540D01*
X61516243Y-545227483D01*
X61527204Y-545362939D01*
X61509937Y-545499246D01*
X61463565Y-545697907D01*
X61396232Y-545933549D01*
X61316081Y-546180798D01*
X61231258Y-546414277D01*
X61149906Y-546608615D01*
X61091171Y-546721496D01*
X61034926Y-546829166D01*
X61016536Y-546900436D01*
X61020213Y-546909831D01*
X61077736Y-546914753D01*
X61200270Y-546899960D01*
X61347319Y-546871583D01*
X61529854Y-546843384D01*
X61790143Y-546823137D01*
X62133563Y-546810571D01*
X62565490Y-546805418D01*
X62670919Y-546805252D01*
X63099988Y-546808430D01*
X63445004Y-546818975D01*
X63717044Y-546838412D01*
X63927184Y-546868261D01*
X64086502Y-546910045D01*
X64206074Y-546965286D01*
X64288599Y-547027521D01*
X64357133Y-547103427D01*
X64357734Y-547167663D01*
X64318187Y-547235984D01*
X64276052Y-547332381D01*
X64291712Y-547377437D01*
X64325343Y-547441445D01*
X64338837Y-547550042D01*
X64367627Y-547679887D01*
X64442424Y-547838559D01*
X64484282Y-547904918D01*
X64573910Y-548052487D01*
X64613106Y-548181049D01*
X64616429Y-548341309D01*
X64615332Y-548361317D01*
X64591252Y-548541250D01*
X64534528Y-548644133D01*
X64429322Y-548680392D01*
X64259791Y-548660455D01*
X64186958Y-548643302D01*
X63989710Y-548582485D01*
X63787545Y-548503590D01*
X63716096Y-548470331D01*
X63487291Y-548381807D01*
X63190057Y-548305102D01*
X62847831Y-548242671D01*
X62484048Y-548196969D01*
X62122146Y-548170451D01*
X61785562Y-548165572D01*
X61497731Y-548184786D01*
X61318287Y-548219165D01*
X61129406Y-548296168D01*
X60988049Y-548399290D01*
X60914038Y-548512382D01*
X60907692Y-548553659D01*
X60945552Y-548634039D01*
X61038980Y-548720387D01*
X61062570Y-548735794D01*
X61260238Y-548808952D01*
X61510924Y-548832401D01*
X61788172Y-548809040D01*
X62065527Y-548741767D01*
X62316532Y-548633484D01*
X62386993Y-548590628D01*
X62599437Y-548449632D01*
X62627869Y-548652020D01*
X62653376Y-548797065D01*
X62682002Y-548909816D01*
X62689606Y-548930169D01*
X62684810Y-549023033D01*
X62649261Y-549067055D01*
X62590951Y-549160685D01*
X62575610Y-549243913D01*
X62530649Y-549354168D01*
X62396472Y-549433475D01*
X62174135Y-549481460D01*
X61864696Y-549497746D01*
X61861261Y-549497748D01*
X61669890Y-549494491D01*
X61525948Y-549478633D01*
X61394680Y-549441042D01*
X61241328Y-549372587D01*
X61090373Y-549295215D01*
X60847086Y-549167839D01*
X60674292Y-549073032D01*
X60558842Y-548997669D01*
X60487590Y-548928619D01*
X60447387Y-548852754D01*
X60425088Y-548756947D01*
X60407544Y-548628070D01*
X60405320Y-548611158D01*
X60392057Y-548458106D01*
X60410117Y-548355235D01*
X60469702Y-548259787D01*
X60497172Y-548226242D01*
X60617138Y-548130880D01*
X60813141Y-548029483D01*
X61066770Y-547928796D01*
X61359612Y-547835567D01*
X61673257Y-547756542D01*
X61898600Y-547712734D01*
X62265854Y-547650830D01*
X61407986Y-547645020D01*
X60550118Y-547639211D01*
X60440619Y-547845618D01*
X60338454Y-548012078D01*
X60218133Y-548173771D01*
X60184692Y-548212343D01*
X60096795Y-548314669D01*
X60066003Y-548384768D01*
X60083606Y-548459347D01*
X60112102Y-548518225D01*
X60158743Y-548672739D01*
X60185873Y-548907555D01*
X60191819Y-549068855D01*
X60227872Y-549557771D01*
X60318055Y-550018439D01*
X60456923Y-550424589D01*
X60486027Y-550488526D01*
X60582330Y-550656961D01*
X60730162Y-550872578D01*
X60914427Y-551114402D01*
X61085173Y-551321100D01*
X61342471Y-551623875D01*
X61543854Y-551872129D01*
X61696634Y-552082657D01*
X61808121Y-552272256D01*
X61885629Y-552457719D01*
X61936470Y-552655845D01*
X61967955Y-552883427D01*
X61987397Y-553157263D01*
X61999179Y-553420569D01*
X62027580Y-554126692D01*
X62329697Y-553718411D01*
X62455188Y-553551498D01*
X62559655Y-553417557D01*
X62630498Y-553332438D01*
X62654328Y-553310130D01*
X62643228Y-553345115D01*
X62579822Y-553442620D01*
X62472247Y-553591475D01*
X62328639Y-553780507D01*
X62157135Y-553998546D01*
X62111127Y-554055939D01*
X61945559Y-554261790D01*
X61756528Y-554496931D01*
X61580236Y-554716326D01*
X61551032Y-554752685D01*
X61414636Y-554926389D01*
X61242748Y-555151030D01*
X61055431Y-555400101D01*
X60872746Y-555647095D01*
X60836210Y-555697094D01*
X60697521Y-555880945D01*
X60542789Y-556072453D01*
X60363801Y-556280611D01*
X60152345Y-556514411D01*
X59900209Y-556782845D01*
X59599182Y-557094905D01*
X59241052Y-557459584D01*
X59057152Y-557645189D01*
X58764691Y-557939058D01*
X58494992Y-558208793D01*
X58254981Y-558447560D01*
X58051584Y-558648528D01*
X57891727Y-558804864D01*
X57782335Y-558909737D01*
X57730335Y-558956314D01*
X57727098Y-558957222D01*
X57760046Y-558895256D01*
X57828249Y-558776113D01*
X57917702Y-558624210D01*
X57928752Y-558605689D01*
X58020546Y-558445279D01*
X58064553Y-558345845D01*
X58066525Y-558289511D01*
X58039319Y-558262091D01*
X57953137Y-558202780D01*
X57853497Y-558121925D01*
X57806673Y-558076421D01*
X57832989Y-558084905D01*
X57929268Y-558144532D01*
X58046565Y-558216067D01*
X58113357Y-558237663D01*
X58157391Y-558213784D01*
X58180455Y-558184949D01*
X58223527Y-558097602D01*
X58286705Y-557930773D01*
X58366236Y-557697255D01*
X58458366Y-557409839D01*
X58559341Y-557081319D01*
X58665410Y-556724488D01*
X58772817Y-556352137D01*
X58877810Y-555977060D01*
X58976635Y-555612049D01*
X59065538Y-555269897D01*
X59140766Y-554963395D01*
X59191300Y-554739774D01*
X59236508Y-554539181D01*
X59280701Y-554361824D01*
X59316171Y-554238123D01*
X59324134Y-554215571D01*
X59350550Y-554083837D01*
X59349714Y-553932134D01*
X59349406Y-553929643D01*
X59343060Y-553827194D01*
X59361928Y-553813666D01*
X59373785Y-553828121D01*
X59410626Y-553848554D01*
X59449481Y-553791690D01*
X59479899Y-553708984D01*
X59526257Y-553578198D01*
X59595940Y-553393330D01*
X59676030Y-553188448D01*
X59699628Y-553129483D01*
X59858698Y-552734389D01*
X59717522Y-552454721D01*
X59601187Y-552260299D01*
X59454238Y-552061718D01*
X59360405Y-551956010D01*
X59241365Y-551828640D01*
X59176289Y-551730341D01*
X59148808Y-551625868D01*
X59142600Y-551487058D01*
X59140735Y-551237147D01*
X59068552Y-551403599D01*
X58938208Y-551624441D01*
X58757309Y-551779886D01*
X58605733Y-551855494D01*
X58463860Y-551915866D01*
X58348815Y-551967995D01*
X58323067Y-551980689D01*
X58219342Y-552017463D01*
X58174024Y-552023451D01*
X58078657Y-552063992D01*
X58008193Y-552188374D01*
X57960559Y-552400741D01*
X57952189Y-552466176D01*
X57934114Y-552617235D01*
X57923252Y-552678652D01*
X57917121Y-552655597D01*
X57913240Y-552553244D01*
X57913098Y-552547654D01*
X57919574Y-552365705D01*
X57942408Y-552187100D01*
X57949214Y-552154502D01*
X57966932Y-552035864D01*
X57954771Y-551977958D01*
X57948077Y-551975797D01*
X57907316Y-551952889D01*
X57941708Y-551891968D01*
X58033920Y-551812777D01*
X58106170Y-551768861D01*
X58123723Y-551777731D01*
X58119127Y-551786408D01*
X58125799Y-551804348D01*
X58191088Y-551770629D01*
X58224149Y-551748115D01*
X58296121Y-551686177D01*
X58409772Y-551576548D01*
X58550329Y-551434797D01*
X58703017Y-551276497D01*
X58853062Y-551117215D01*
X58985689Y-550972524D01*
X59086123Y-550857992D01*
X59139592Y-550789191D01*
X59144524Y-550778162D01*
X59100148Y-550772441D01*
X58979843Y-550770430D01*
X58802922Y-550772188D01*
X58625722Y-550776586D01*
X58106862Y-550792573D01*
X57851273Y-550624752D01*
X57611571Y-550488729D01*
X57509294Y-550457207D01*
X57729252Y-550457207D01*
X57796474Y-550522253D01*
X57917697Y-550604967D01*
X58159249Y-550714467D01*
X58395631Y-550730786D01*
X58620871Y-550653782D01*
X58670306Y-550622968D01*
X58804540Y-550504502D01*
X58916477Y-550361500D01*
X58929192Y-550339430D01*
X58984974Y-550228105D01*
X58994629Y-550161639D01*
X58958400Y-550101622D01*
X58930898Y-550070577D01*
X58795026Y-549988045D01*
X58612392Y-549981922D01*
X58391645Y-550051071D01*
X58178272Y-550169638D01*
X58024433Y-550265900D01*
X57890498Y-550341882D01*
X57808947Y-550379737D01*
X57735378Y-550413780D01*
X57729252Y-550457207D01*
X57509294Y-550457207D01*
X57407520Y-550425840D01*
X57217969Y-550432684D01*
X57043830Y-550494909D01*
X56937584Y-550541050D01*
X56888280Y-550551553D01*
X56894617Y-550537164D01*
X56949185Y-550457981D01*
X56920392Y-550421734D01*
X56838407Y-550429969D01*
X56740034Y-550433623D01*
X56692968Y-550407596D01*
X56697257Y-550376810D01*
X56747337Y-550387500D01*
X56779639Y-550383360D01*
X56737524Y-550320716D01*
X56690244Y-550269141D01*
X56562998Y-550154351D01*
X56479930Y-550120021D01*
X56443495Y-550166121D01*
X56451741Y-550272138D01*
X56488798Y-550441686D01*
X56524046Y-550538057D01*
X56572228Y-550581937D01*
X56648089Y-550594009D01*
X56681541Y-550594538D01*
X56776060Y-550601275D01*
X56785193Y-550623842D01*
X56761726Y-550642108D01*
X56664092Y-550667750D01*
X56558411Y-550661247D01*
X56467580Y-550648011D01*
X56451387Y-550679401D01*
X56482665Y-550756641D01*
X56535847Y-550845883D01*
X56578756Y-550879736D01*
X56608388Y-550923086D01*
X56616980Y-551040811D01*
X56604956Y-551214424D01*
X56572740Y-551425439D01*
X56565390Y-551463182D01*
X56512018Y-551728940D01*
X55910136Y-551121403D01*
X55596332Y-550812562D01*
X55318433Y-550559532D01*
X55052602Y-550343862D01*
X54775001Y-550147104D01*
X54461790Y-549950808D01*
X54205193Y-549801868D01*
X53897019Y-549629436D01*
X53623191Y-549482666D01*
X53362003Y-549351313D01*
X53091754Y-549225132D01*
X52790739Y-549093877D01*
X52437255Y-548947304D01*
X52144406Y-548829073D01*
X51808960Y-548696216D01*
X51551750Y-548599532D01*
X51363383Y-548537709D01*
X51234470Y-548509431D01*
X51155616Y-548513384D01*
X51117432Y-548548256D01*
X51110525Y-548612731D01*
X51121449Y-548685951D01*
X51121554Y-548855505D01*
X51048989Y-548970010D01*
X50910754Y-549019839D01*
X50877668Y-549021200D01*
X50789890Y-549030235D01*
X50709965Y-549067040D01*
X50618103Y-549146163D01*
X50494512Y-549282155D01*
X50446848Y-549337915D01*
X50274971Y-549553548D01*
X50074617Y-549825430D01*
X49864167Y-550126816D01*
X49662003Y-550430961D01*
X49486507Y-550711119D01*
X49395396Y-550867774D01*
X49305098Y-551021044D01*
X49243081Y-551097869D01*
X49197236Y-551108133D01*
X49156237Y-551062993D01*
X49150621Y-551030383D01*
X49177252Y-551041978D01*
X49226694Y-551056414D01*
X49215267Y-551004015D01*
X49144318Y-550890148D01*
X49136310Y-550878823D01*
X48991451Y-550752407D01*
X48801077Y-550701251D01*
X48632525Y-550718222D01*
X48545098Y-550744713D01*
X48542819Y-550766938D01*
X48590668Y-550788798D01*
X48652310Y-550816707D01*
X48624904Y-550826670D01*
X48577017Y-550828732D01*
X48506376Y-550819231D01*
X48474446Y-550780771D01*
X48484789Y-550706737D01*
X48540969Y-550590516D01*
X48646548Y-550425493D01*
X48707812Y-550340310D01*
X49020629Y-550340310D01*
X49024418Y-550379361D01*
X49091542Y-550433164D01*
X49201627Y-550449328D01*
X49299838Y-550444763D01*
X49313956Y-550424659D01*
X49258903Y-550377846D01*
X49154835Y-550321766D01*
X49066522Y-550309312D01*
X49020629Y-550340310D01*
X48707812Y-550340310D01*
X48805089Y-550205055D01*
X48871935Y-550117260D01*
X49303752Y-550117260D01*
X49370774Y-550156887D01*
X49428514Y-550164915D01*
X49492618Y-550146114D01*
X49494371Y-550117260D01*
X49427350Y-550077633D01*
X49369610Y-550069605D01*
X49305506Y-550088406D01*
X49303752Y-550117260D01*
X48871935Y-550117260D01*
X49020156Y-549922588D01*
X49143153Y-549764913D01*
X49444460Y-549764913D01*
X49470544Y-549807504D01*
X49568904Y-549873012D01*
X49701872Y-549859661D01*
X49728474Y-549850165D01*
X49784290Y-549808668D01*
X49759334Y-549768888D01*
X49667697Y-549741735D01*
X49581033Y-549736022D01*
X49473312Y-549741504D01*
X49444460Y-549764913D01*
X49143153Y-549764913D01*
X49165690Y-549736022D01*
X49341168Y-549519571D01*
X49359840Y-549497748D01*
X49756473Y-549497748D01*
X49796506Y-549536092D01*
X49854595Y-549545403D01*
X49920488Y-549527057D01*
X49923264Y-549497748D01*
X49854314Y-549453899D01*
X49825142Y-549450093D01*
X49763551Y-549476738D01*
X49756473Y-549497748D01*
X49359840Y-549497748D01*
X49525747Y-549303845D01*
X49578683Y-549245287D01*
X49972647Y-549245287D01*
X49978445Y-549285728D01*
X50024601Y-549344186D01*
X50074144Y-549349418D01*
X50090056Y-549312227D01*
X50052240Y-549259792D01*
X50021001Y-549243172D01*
X49972647Y-549245287D01*
X49578683Y-549245287D01*
X49697062Y-549114335D01*
X49765149Y-549045027D01*
X50137711Y-549045027D01*
X50161538Y-549068855D01*
X50185366Y-549045027D01*
X50161538Y-549021200D01*
X50137711Y-549045027D01*
X49765149Y-549045027D01*
X49828656Y-548980381D01*
X49971767Y-548836793D01*
X50044668Y-548740616D01*
X50053859Y-548682694D01*
X50046854Y-548673008D01*
X49997812Y-548563040D01*
X50000843Y-548407806D01*
X50047741Y-548235866D01*
X50130300Y-548075780D01*
X50240314Y-547956107D01*
X50255997Y-547945143D01*
X50322729Y-547910910D01*
X50411241Y-547887979D01*
X50539218Y-547874649D01*
X50724341Y-547869220D01*
X50984293Y-547869992D01*
X51031749Y-547870548D01*
X51681255Y-547878674D01*
X51874430Y-547699374D01*
X52067604Y-547520074D01*
X51909795Y-547692224D01*
X51751985Y-547864374D01*
X51903901Y-547894757D01*
X52054912Y-547914871D01*
X52228973Y-547924889D01*
X52255908Y-547925140D01*
X52439359Y-547936767D01*
X52691671Y-547968995D01*
X52989620Y-548017842D01*
X53309983Y-548079329D01*
X53629537Y-548149474D01*
X53783302Y-548186941D01*
X54228908Y-548320324D01*
X54735838Y-548509407D01*
X55289036Y-548748354D01*
X55555745Y-548870572D01*
X55443914Y-548562480D01*
X55371756Y-548277290D01*
X55334372Y-547935380D01*
X55332440Y-547569033D01*
X55366638Y-547210531D01*
X55410816Y-546987950D01*
X55494842Y-546738998D01*
X55607599Y-546525944D01*
X55736853Y-546366243D01*
X55870369Y-546277347D01*
X55916848Y-546266070D01*
X56044840Y-546251091D01*
X55974390Y-546450767D01*
X55931866Y-546574336D01*
X55906792Y-546653081D01*
X55903940Y-546665360D01*
X55946103Y-546680736D01*
X56052308Y-546701957D01*
X56107965Y-546710871D01*
X56266345Y-546751029D01*
X56403131Y-546812218D01*
X56427114Y-546828304D01*
X56542237Y-546915142D01*
X56416601Y-547104991D01*
X56262166Y-547388877D01*
X56167876Y-547673857D01*
X56137093Y-547941258D01*
X56173180Y-548172410D01*
X56209505Y-548254951D01*
X56243503Y-548309724D01*
X56275370Y-548323689D01*
X56319035Y-548286328D01*
X56388428Y-548187122D01*
X56470968Y-548057520D01*
X56739165Y-547694973D01*
X57033507Y-547420717D01*
X57362565Y-547229369D01*
X57446053Y-547203847D01*
X58953846Y-547203847D01*
X58992943Y-547251868D01*
X59083786Y-547305565D01*
X59186701Y-547343663D01*
X59226502Y-547350057D01*
X59298542Y-547333546D01*
X59426634Y-547287401D01*
X59554102Y-547234145D01*
X59706921Y-547170886D01*
X59829991Y-547127683D01*
X59887129Y-547115009D01*
X59946528Y-547070878D01*
X60003499Y-546952574D01*
X60054720Y-546781230D01*
X60096865Y-546577978D01*
X60126611Y-546363950D01*
X60140634Y-546160278D01*
X60135608Y-545988095D01*
X60108210Y-545868534D01*
X60088030Y-545837860D01*
X60028554Y-545794494D01*
X59963351Y-545793367D01*
X59876539Y-545842220D01*
X59752235Y-545948795D01*
X59640381Y-546056041D01*
X59436254Y-546283061D01*
X59265274Y-546540400D01*
X59156379Y-546747847D01*
X59069560Y-546930203D01*
X59001350Y-547080785D01*
X58960935Y-547178913D01*
X58953846Y-547203847D01*
X57446053Y-547203847D01*
X57734912Y-547115544D01*
X58029079Y-547078909D01*
X58429643Y-547053919D01*
X58429643Y-546875037D01*
X58453687Y-546662164D01*
X58518647Y-546404111D01*
X58613772Y-546128463D01*
X58728307Y-545862806D01*
X58851499Y-545634723D01*
X58972596Y-545471801D01*
X58979360Y-545464900D01*
X59076013Y-545399813D01*
X59194070Y-545359428D01*
X59303036Y-545348693D01*
X59372419Y-545372557D01*
X59382739Y-545399436D01*
X59416111Y-545444454D01*
X59507967Y-545429207D01*
X59645918Y-545357157D01*
X59723885Y-545304127D01*
X59941681Y-545187018D01*
X60092797Y-545160548D01*
X60229474Y-545145608D01*
X60412629Y-545107367D01*
X60574109Y-545062624D01*
X60777539Y-545010079D01*
X60986298Y-544973929D01*
X61120315Y-544963277D01*
X61321822Y-544988863D01*
G37*
%TD*%
%LPC*%
D12*
%TO.C,SW188*%
X190000000Y-505000000D03*
D13*
X185600000Y-509700000D03*
X192600000Y-510750000D03*
%TD*%
D14*
%TO.C,D220*%
X224500000Y-489000000D03*
D15*
X224500000Y-481000000D03*
%TD*%
D16*
%TO.C,H69*%
X270000000Y-566000000D03*
%TD*%
D12*
%TO.C,SW213*%
X247000000Y-543000000D03*
D13*
X242600000Y-547700000D03*
X249600000Y-548750000D03*
%TD*%
D14*
%TO.C,D199*%
X194500000Y-486000000D03*
D15*
X194500000Y-478000000D03*
%TD*%
D14*
%TO.C,D216*%
X123500000Y-489000000D03*
D15*
X123500000Y-481000000D03*
%TD*%
D12*
%TO.C,SW197*%
X142500000Y-524000000D03*
D13*
X138100000Y-528700000D03*
X145100000Y-529750000D03*
%TD*%
D17*
%TO.C,A27*%
X169120000Y-472590000D03*
X169120000Y-475130000D03*
X169120000Y-477670000D03*
X169120000Y-480210000D03*
X153880000Y-477670000D03*
X169120000Y-482750000D03*
X169120000Y-485290000D03*
X153880000Y-472590000D03*
X169120000Y-487830000D03*
X169120000Y-490370000D03*
X169120000Y-492910000D03*
D15*
X166580000Y-492910000D03*
X164040000Y-492910000D03*
X161500000Y-492910000D03*
X158960000Y-492910000D03*
X156420000Y-492910000D03*
D17*
X153880000Y-492910000D03*
X153880000Y-490370000D03*
X153880000Y-487830000D03*
X153880000Y-485290000D03*
X153880000Y-482750000D03*
X153880000Y-480210000D03*
X153880000Y-475130000D03*
%TD*%
D12*
%TO.C,SW198*%
X161500000Y-524000000D03*
D13*
X157100000Y-528700000D03*
X164100000Y-529750000D03*
%TD*%
D12*
%TO.C,SW214*%
X99750000Y-562000000D03*
D13*
X95350000Y-566700000D03*
X102350000Y-567750000D03*
%TD*%
D14*
%TO.C,D203*%
X264500000Y-486000000D03*
D15*
X264500000Y-478000000D03*
%TD*%
D14*
%TO.C,D217*%
X143500000Y-489000000D03*
D15*
X143500000Y-481000000D03*
%TD*%
D18*
%TO.C,H71*%
X231750000Y-570500000D03*
%TD*%
D16*
%TO.C,H68*%
X53000000Y-566000000D03*
%TD*%
D12*
%TO.C,SW217*%
X161500000Y-562000000D03*
D13*
X157100000Y-566700000D03*
X164100000Y-567750000D03*
%TD*%
D12*
%TO.C,SW206*%
X114000000Y-543000000D03*
D13*
X109600000Y-547700000D03*
X116600000Y-548750000D03*
%TD*%
D14*
%TO.C,D201*%
X234500000Y-486000000D03*
D15*
X234500000Y-478000000D03*
%TD*%
D18*
%TO.C,H60*%
X274500000Y-496487175D03*
%TD*%
D14*
%TO.C,D190*%
X244500000Y-484500000D03*
D15*
X244500000Y-476500000D03*
%TD*%
D14*
%TO.C,D191*%
X259500000Y-484500000D03*
D15*
X259500000Y-476500000D03*
%TD*%
D14*
%TO.C,D194*%
X73500000Y-486000000D03*
D15*
X73500000Y-478000000D03*
%TD*%
D12*
%TO.C,SW215*%
X118750000Y-562000000D03*
D13*
X114350000Y-566700000D03*
X121350000Y-567750000D03*
%TD*%
D12*
%TO.C,SW203*%
X256500000Y-524000000D03*
D13*
X252100000Y-528700000D03*
X259100000Y-529750000D03*
%TD*%
D14*
%TO.C,D185*%
X128500000Y-484500000D03*
D15*
X128500000Y-476500000D03*
%TD*%
D12*
%TO.C,SW181*%
X57000000Y-505000000D03*
D13*
X52600000Y-509700000D03*
X59600000Y-510750000D03*
%TD*%
D18*
%TO.C,H57*%
X48500000Y-496500000D03*
%TD*%
%TO.C,H72*%
X48500000Y-473000000D03*
%TD*%
D12*
%TO.C,SW189*%
X209000000Y-505000000D03*
D13*
X204600000Y-509700000D03*
X211600000Y-510750000D03*
%TD*%
D12*
%TO.C,SW218*%
X185250000Y-562000000D03*
D13*
X180850000Y-566700000D03*
X187850000Y-567750000D03*
%TD*%
D12*
%TO.C,SW182*%
X76000000Y-505000000D03*
D13*
X71600000Y-509700000D03*
X78600000Y-510750000D03*
%TD*%
D18*
%TO.C,H70*%
X91250000Y-570500000D03*
%TD*%
D12*
%TO.C,SW192*%
X266000000Y-505000000D03*
D13*
X261600000Y-509700000D03*
X268600000Y-510750000D03*
%TD*%
D12*
%TO.C,SW195*%
X104500000Y-524000000D03*
D13*
X100100000Y-528700000D03*
X107100000Y-529750000D03*
%TD*%
D14*
%TO.C,D211*%
X219500000Y-487500000D03*
D15*
X219500000Y-479500000D03*
%TD*%
D18*
%TO.C,H61*%
X48500000Y-570500000D03*
%TD*%
D14*
%TO.C,D202*%
X249500000Y-486000000D03*
D15*
X249500000Y-478000000D03*
%TD*%
D14*
%TO.C,D200*%
X214500000Y-486000000D03*
D15*
X214500000Y-478000000D03*
%TD*%
D12*
%TO.C,SW194*%
X85500000Y-524000000D03*
D13*
X81100000Y-528700000D03*
X88100000Y-529750000D03*
%TD*%
D12*
%TO.C,SW183*%
X95000000Y-505000000D03*
D13*
X90600000Y-509700000D03*
X97600000Y-510750000D03*
%TD*%
D14*
%TO.C,D207*%
X118500000Y-487500000D03*
D15*
X118500000Y-479500000D03*
%TD*%
D14*
%TO.C,D219*%
X204500000Y-489000000D03*
D15*
X204500000Y-481000000D03*
%TD*%
D12*
%TO.C,SW212*%
X228000000Y-543000000D03*
D13*
X223600000Y-547700000D03*
X230600000Y-548750000D03*
%TD*%
D18*
%TO.C,H75*%
X274500000Y-473000000D03*
%TD*%
D14*
%TO.C,D206*%
X98500000Y-487500000D03*
D15*
X98500000Y-479500000D03*
%TD*%
D18*
%TO.C,H74*%
X199500000Y-473000000D03*
%TD*%
D14*
%TO.C,D196*%
X113500000Y-486000000D03*
D15*
X113500000Y-478000000D03*
%TD*%
D14*
%TO.C,D184*%
X108500000Y-484500000D03*
D15*
X108500000Y-476500000D03*
%TD*%
D12*
%TO.C,SW185*%
X133000000Y-505000000D03*
D13*
X128600000Y-509700000D03*
X135600000Y-510750000D03*
%TD*%
D14*
%TO.C,D189*%
X229500000Y-484500000D03*
D15*
X229500000Y-476500000D03*
%TD*%
D18*
%TO.C,H58*%
X123500000Y-496500000D03*
%TD*%
D12*
%TO.C,SW184*%
X114000000Y-505000000D03*
D13*
X109600000Y-509700000D03*
X116600000Y-510750000D03*
%TD*%
D12*
%TO.C,SW205*%
X95000000Y-543000000D03*
D13*
X90600000Y-547700000D03*
X97600000Y-548750000D03*
%TD*%
D12*
%TO.C,SW219*%
X204250000Y-562000000D03*
D13*
X199850000Y-566700000D03*
X206850000Y-567750000D03*
%TD*%
D14*
%TO.C,D215*%
X103500000Y-489000000D03*
D15*
X103500000Y-481000000D03*
%TD*%
D12*
%TO.C,SW190*%
X228000000Y-505000000D03*
D13*
X223600000Y-509700000D03*
X230600000Y-510750000D03*
%TD*%
D12*
%TO.C,SW202*%
X237500000Y-524000000D03*
D13*
X233100000Y-528700000D03*
X240100000Y-529750000D03*
%TD*%
D12*
%TO.C,SW220*%
X223250000Y-562000000D03*
D13*
X218850000Y-566700000D03*
X225850000Y-567750000D03*
%TD*%
D14*
%TO.C,D218*%
X184500000Y-489000000D03*
D15*
X184500000Y-481000000D03*
%TD*%
D18*
%TO.C,H63*%
X194750000Y-570500000D03*
%TD*%
%TO.C,H64*%
X274500000Y-570500000D03*
%TD*%
D12*
%TO.C,SW196*%
X123500000Y-524000000D03*
D13*
X119100000Y-528700000D03*
X126100000Y-529750000D03*
%TD*%
D14*
%TO.C,D214*%
X83500000Y-489000000D03*
D15*
X83500000Y-481000000D03*
%TD*%
D18*
%TO.C,H73*%
X123500000Y-473000000D03*
%TD*%
D12*
%TO.C,SW201*%
X218500000Y-524000000D03*
D13*
X214100000Y-528700000D03*
X221100000Y-529750000D03*
%TD*%
D12*
%TO.C,SW193*%
X66500000Y-524000000D03*
D13*
X62100000Y-528700000D03*
X69100000Y-529750000D03*
%TD*%
D12*
%TO.C,SW186*%
X152000000Y-505000000D03*
D13*
X147600000Y-509700000D03*
X154600000Y-510750000D03*
%TD*%
D12*
%TO.C,SW199*%
X180500000Y-524000000D03*
D13*
X176100000Y-528700000D03*
X183100000Y-529750000D03*
%TD*%
D16*
%TO.C,H65*%
X53000000Y-501000000D03*
%TD*%
D14*
%TO.C,D197*%
X133500000Y-486000000D03*
D15*
X133500000Y-478000000D03*
%TD*%
D14*
%TO.C,D187*%
X189500000Y-484500000D03*
D15*
X189500000Y-476500000D03*
%TD*%
D16*
%TO.C,H67*%
X161500000Y-533500000D03*
%TD*%
D14*
%TO.C,D213*%
X254500000Y-487500000D03*
D15*
X254500000Y-479500000D03*
%TD*%
D14*
%TO.C,D195*%
X93500000Y-486000000D03*
D15*
X93500000Y-478000000D03*
%TD*%
D12*
%TO.C,SW204*%
X76000000Y-543000000D03*
D13*
X71600000Y-547700000D03*
X78600000Y-548750000D03*
%TD*%
D14*
%TO.C,D209*%
X179500000Y-487500000D03*
D15*
X179500000Y-479500000D03*
%TD*%
D12*
%TO.C,SW191*%
X247000000Y-505000000D03*
D13*
X242600000Y-509700000D03*
X249600000Y-510750000D03*
%TD*%
D18*
%TO.C,H59*%
X199500000Y-496500000D03*
%TD*%
D14*
%TO.C,D210*%
X199500000Y-487500000D03*
D15*
X199500000Y-479500000D03*
%TD*%
D12*
%TO.C,SW207*%
X133000000Y-543000000D03*
D13*
X128600000Y-547700000D03*
X135600000Y-548750000D03*
%TD*%
D14*
%TO.C,D212*%
X239500000Y-487500000D03*
D15*
X239500000Y-479500000D03*
%TD*%
D14*
%TO.C,D205*%
X78500000Y-487500000D03*
D15*
X78500000Y-479500000D03*
%TD*%
D12*
%TO.C,SW216*%
X137750000Y-562000000D03*
D13*
X133350000Y-566700000D03*
X140350000Y-567750000D03*
%TD*%
D12*
%TO.C,SW200*%
X199500000Y-524000000D03*
D13*
X195100000Y-528700000D03*
X202100000Y-529750000D03*
%TD*%
D12*
%TO.C,SW209*%
X171000000Y-543000000D03*
D13*
X166600000Y-547700000D03*
X173600000Y-548750000D03*
%TD*%
D12*
%TO.C,SW210*%
X190000000Y-543000000D03*
D13*
X185600000Y-547700000D03*
X192600000Y-548750000D03*
%TD*%
D12*
%TO.C,SW208*%
X152000000Y-543000000D03*
D13*
X147600000Y-547700000D03*
X154600000Y-548750000D03*
%TD*%
D14*
%TO.C,D188*%
X209500000Y-484500000D03*
D15*
X209500000Y-476500000D03*
%TD*%
D12*
%TO.C,SW187*%
X171000000Y-505000000D03*
D13*
X166600000Y-509700000D03*
X173600000Y-510750000D03*
%TD*%
D14*
%TO.C,D204*%
X63500000Y-487500000D03*
D15*
X63500000Y-479500000D03*
%TD*%
D14*
%TO.C,D186*%
X148500000Y-484500000D03*
D15*
X148500000Y-476500000D03*
%TD*%
D14*
%TO.C,D198*%
X174500000Y-486000000D03*
D15*
X174500000Y-478000000D03*
%TD*%
D14*
%TO.C,D208*%
X138500000Y-487500000D03*
D15*
X138500000Y-479500000D03*
%TD*%
D14*
%TO.C,D182*%
X68500000Y-484500000D03*
D15*
X68500000Y-476500000D03*
%TD*%
D14*
%TO.C,D183*%
X88500000Y-484500000D03*
D15*
X88500000Y-476500000D03*
%TD*%
D14*
%TO.C,D193*%
X58500000Y-486000000D03*
D15*
X58500000Y-478000000D03*
%TD*%
D14*
%TO.C,D181*%
X53500000Y-484500000D03*
D15*
X53500000Y-476500000D03*
%TD*%
D18*
%TO.C,H62*%
X128250000Y-570500000D03*
%TD*%
D14*
%TO.C,D192*%
X269500000Y-484500000D03*
D15*
X269500000Y-476500000D03*
%TD*%
D16*
%TO.C,H66*%
X270000000Y-501000000D03*
%TD*%
D12*
%TO.C,SW211*%
X209000000Y-543000000D03*
D13*
X204600000Y-547700000D03*
X211600000Y-548750000D03*
%TD*%
%LPD*%
M02*
