%TF.GenerationSoftware,KiCad,Pcbnew,10.0.1*%
%TF.CreationDate,2026-04-26T20:15:25+01:00*%
%TF.ProjectId,just-40-mark03-noled-topdiode-hotswap,6a757374-2d34-4302-9d6d-61726b30332d,rev?*%
%TF.SameCoordinates,Original*%
%TF.FileFunction,Soldermask,Top*%
%TF.FilePolarity,Negative*%
%FSLAX46Y46*%
G04 Gerber Fmt 4.6, Leading zero omitted, Abs format (unit mm)*
G04 Created by KiCad (PCBNEW 10.0.1) date 2026-04-26 20:15:25*
%MOMM*%
%LPD*%
G01*
G04 APERTURE LIST*
G04 Aperture macros list*
%AMRoundRect*
0 Rectangle with rounded corners*
0 $1 Rounding radius*
0 $2 $3 $4 $5 $6 $7 $8 $9 X,Y pos of 4 corners*
0 Add a 4 corners polygon primitive as box body*
4,1,4,$2,$3,$4,$5,$6,$7,$8,$9,$2,$3,0*
0 Add four circle primitives for the rounded corners*
1,1,$1+$1,$2,$3*
1,1,$1+$1,$4,$5*
1,1,$1+$1,$6,$7*
1,1,$1+$1,$8,$9*
0 Add four rect primitives between the rounded corners*
20,1,$1+$1,$2,$3,$4,$5,0*
20,1,$1+$1,$4,$5,$6,$7,0*
20,1,$1+$1,$6,$7,$8,$9,0*
20,1,$1+$1,$8,$9,$2,$3,0*%
G04 Aperture macros list end*
%ADD10C,4.500000*%
%ADD11C,3.000000*%
%ADD12C,1.600000*%
%ADD13RoundRect,0.250000X0.550000X0.550000X-0.550000X0.550000X-0.550000X-0.550000X0.550000X-0.550000X0*%
%ADD14C,3.300000*%
%ADD15RoundRect,0.250000X0.550000X-0.550000X0.550000X0.550000X-0.550000X0.550000X-0.550000X-0.550000X0*%
%ADD16C,2.000000*%
G04 APERTURE END LIST*
D10*
%TO.C,SW188*%
X190000000Y-505000000D03*
D11*
X185600000Y-509700000D03*
X192600000Y-510750000D03*
%TD*%
D12*
%TO.C,D220*%
X224500000Y-489000000D03*
D13*
X224500000Y-481000000D03*
%TD*%
D14*
%TO.C,H69*%
X270000000Y-566000000D03*
%TD*%
D10*
%TO.C,SW213*%
X247000000Y-543000000D03*
D11*
X242600000Y-547700000D03*
X249600000Y-548750000D03*
%TD*%
D12*
%TO.C,D199*%
X194500000Y-486000000D03*
D13*
X194500000Y-478000000D03*
%TD*%
D12*
%TO.C,D216*%
X123500000Y-489000000D03*
D13*
X123500000Y-481000000D03*
%TD*%
D10*
%TO.C,SW197*%
X142500000Y-524000000D03*
D11*
X138100000Y-528700000D03*
X145100000Y-529750000D03*
%TD*%
D15*
%TO.C,A27*%
X169120000Y-472590000D03*
X169120000Y-475130000D03*
X169120000Y-477670000D03*
X169120000Y-480210000D03*
X153880000Y-477670000D03*
X169120000Y-482750000D03*
X169120000Y-485290000D03*
X153880000Y-472590000D03*
X169120000Y-487830000D03*
X169120000Y-490370000D03*
X169120000Y-492910000D03*
D13*
X166580000Y-492910000D03*
X164040000Y-492910000D03*
X161500000Y-492910000D03*
X158960000Y-492910000D03*
X156420000Y-492910000D03*
D15*
X153880000Y-492910000D03*
X153880000Y-490370000D03*
X153880000Y-487830000D03*
X153880000Y-485290000D03*
X153880000Y-482750000D03*
X153880000Y-480210000D03*
X153880000Y-475130000D03*
%TD*%
D10*
%TO.C,SW198*%
X161500000Y-524000000D03*
D11*
X157100000Y-528700000D03*
X164100000Y-529750000D03*
%TD*%
D10*
%TO.C,SW214*%
X99750000Y-562000000D03*
D11*
X95350000Y-566700000D03*
X102350000Y-567750000D03*
%TD*%
D12*
%TO.C,D203*%
X264500000Y-486000000D03*
D13*
X264500000Y-478000000D03*
%TD*%
D12*
%TO.C,D217*%
X143500000Y-489000000D03*
D13*
X143500000Y-481000000D03*
%TD*%
D16*
%TO.C,H71*%
X231750000Y-570500000D03*
%TD*%
D14*
%TO.C,H68*%
X53000000Y-566000000D03*
%TD*%
D10*
%TO.C,SW217*%
X161500000Y-562000000D03*
D11*
X157100000Y-566700000D03*
X164100000Y-567750000D03*
%TD*%
D10*
%TO.C,SW206*%
X114000000Y-543000000D03*
D11*
X109600000Y-547700000D03*
X116600000Y-548750000D03*
%TD*%
D12*
%TO.C,D201*%
X234500000Y-486000000D03*
D13*
X234500000Y-478000000D03*
%TD*%
D16*
%TO.C,H60*%
X274500000Y-496487175D03*
%TD*%
D12*
%TO.C,D190*%
X244500000Y-484500000D03*
D13*
X244500000Y-476500000D03*
%TD*%
D12*
%TO.C,D191*%
X259500000Y-484500000D03*
D13*
X259500000Y-476500000D03*
%TD*%
D12*
%TO.C,D194*%
X73500000Y-486000000D03*
D13*
X73500000Y-478000000D03*
%TD*%
D10*
%TO.C,SW215*%
X118750000Y-562000000D03*
D11*
X114350000Y-566700000D03*
X121350000Y-567750000D03*
%TD*%
D10*
%TO.C,SW203*%
X256500000Y-524000000D03*
D11*
X252100000Y-528700000D03*
X259100000Y-529750000D03*
%TD*%
D12*
%TO.C,D185*%
X128500000Y-484500000D03*
D13*
X128500000Y-476500000D03*
%TD*%
D10*
%TO.C,SW181*%
X57000000Y-505000000D03*
D11*
X52600000Y-509700000D03*
X59600000Y-510750000D03*
%TD*%
D16*
%TO.C,H57*%
X48500000Y-496500000D03*
%TD*%
%TO.C,H72*%
X48500000Y-473000000D03*
%TD*%
D10*
%TO.C,SW189*%
X209000000Y-505000000D03*
D11*
X204600000Y-509700000D03*
X211600000Y-510750000D03*
%TD*%
D10*
%TO.C,SW218*%
X185250000Y-562000000D03*
D11*
X180850000Y-566700000D03*
X187850000Y-567750000D03*
%TD*%
D10*
%TO.C,SW182*%
X76000000Y-505000000D03*
D11*
X71600000Y-509700000D03*
X78600000Y-510750000D03*
%TD*%
D16*
%TO.C,H70*%
X91250000Y-570500000D03*
%TD*%
D10*
%TO.C,SW192*%
X266000000Y-505000000D03*
D11*
X261600000Y-509700000D03*
X268600000Y-510750000D03*
%TD*%
D10*
%TO.C,SW195*%
X104500000Y-524000000D03*
D11*
X100100000Y-528700000D03*
X107100000Y-529750000D03*
%TD*%
D12*
%TO.C,D211*%
X219500000Y-487500000D03*
D13*
X219500000Y-479500000D03*
%TD*%
D16*
%TO.C,H61*%
X48500000Y-570500000D03*
%TD*%
D12*
%TO.C,D202*%
X249500000Y-486000000D03*
D13*
X249500000Y-478000000D03*
%TD*%
D12*
%TO.C,D200*%
X214500000Y-486000000D03*
D13*
X214500000Y-478000000D03*
%TD*%
D10*
%TO.C,SW194*%
X85500000Y-524000000D03*
D11*
X81100000Y-528700000D03*
X88100000Y-529750000D03*
%TD*%
D10*
%TO.C,SW183*%
X95000000Y-505000000D03*
D11*
X90600000Y-509700000D03*
X97600000Y-510750000D03*
%TD*%
D12*
%TO.C,D207*%
X118500000Y-487500000D03*
D13*
X118500000Y-479500000D03*
%TD*%
D12*
%TO.C,D219*%
X204500000Y-489000000D03*
D13*
X204500000Y-481000000D03*
%TD*%
D10*
%TO.C,SW212*%
X228000000Y-543000000D03*
D11*
X223600000Y-547700000D03*
X230600000Y-548750000D03*
%TD*%
D16*
%TO.C,H75*%
X274500000Y-473000000D03*
%TD*%
D12*
%TO.C,D206*%
X98500000Y-487500000D03*
D13*
X98500000Y-479500000D03*
%TD*%
D16*
%TO.C,H74*%
X199500000Y-473000000D03*
%TD*%
D12*
%TO.C,D196*%
X113500000Y-486000000D03*
D13*
X113500000Y-478000000D03*
%TD*%
D12*
%TO.C,D184*%
X108500000Y-484500000D03*
D13*
X108500000Y-476500000D03*
%TD*%
D10*
%TO.C,SW185*%
X133000000Y-505000000D03*
D11*
X128600000Y-509700000D03*
X135600000Y-510750000D03*
%TD*%
D12*
%TO.C,D189*%
X229500000Y-484500000D03*
D13*
X229500000Y-476500000D03*
%TD*%
D16*
%TO.C,H58*%
X123500000Y-496500000D03*
%TD*%
D10*
%TO.C,SW184*%
X114000000Y-505000000D03*
D11*
X109600000Y-509700000D03*
X116600000Y-510750000D03*
%TD*%
D10*
%TO.C,SW205*%
X95000000Y-543000000D03*
D11*
X90600000Y-547700000D03*
X97600000Y-548750000D03*
%TD*%
D10*
%TO.C,SW219*%
X204250000Y-562000000D03*
D11*
X199850000Y-566700000D03*
X206850000Y-567750000D03*
%TD*%
D12*
%TO.C,D215*%
X103500000Y-489000000D03*
D13*
X103500000Y-481000000D03*
%TD*%
D10*
%TO.C,SW190*%
X228000000Y-505000000D03*
D11*
X223600000Y-509700000D03*
X230600000Y-510750000D03*
%TD*%
D10*
%TO.C,SW202*%
X237500000Y-524000000D03*
D11*
X233100000Y-528700000D03*
X240100000Y-529750000D03*
%TD*%
D10*
%TO.C,SW220*%
X223250000Y-562000000D03*
D11*
X218850000Y-566700000D03*
X225850000Y-567750000D03*
%TD*%
D12*
%TO.C,D218*%
X184500000Y-489000000D03*
D13*
X184500000Y-481000000D03*
%TD*%
D16*
%TO.C,H63*%
X194750000Y-570500000D03*
%TD*%
%TO.C,H64*%
X274500000Y-570500000D03*
%TD*%
D10*
%TO.C,SW196*%
X123500000Y-524000000D03*
D11*
X119100000Y-528700000D03*
X126100000Y-529750000D03*
%TD*%
D12*
%TO.C,D214*%
X83500000Y-489000000D03*
D13*
X83500000Y-481000000D03*
%TD*%
D16*
%TO.C,H73*%
X123500000Y-473000000D03*
%TD*%
D10*
%TO.C,SW201*%
X218500000Y-524000000D03*
D11*
X214100000Y-528700000D03*
X221100000Y-529750000D03*
%TD*%
D10*
%TO.C,SW193*%
X66500000Y-524000000D03*
D11*
X62100000Y-528700000D03*
X69100000Y-529750000D03*
%TD*%
D10*
%TO.C,SW186*%
X152000000Y-505000000D03*
D11*
X147600000Y-509700000D03*
X154600000Y-510750000D03*
%TD*%
D10*
%TO.C,SW199*%
X180500000Y-524000000D03*
D11*
X176100000Y-528700000D03*
X183100000Y-529750000D03*
%TD*%
D14*
%TO.C,H65*%
X53000000Y-501000000D03*
%TD*%
D12*
%TO.C,D197*%
X133500000Y-486000000D03*
D13*
X133500000Y-478000000D03*
%TD*%
D12*
%TO.C,D187*%
X189500000Y-484500000D03*
D13*
X189500000Y-476500000D03*
%TD*%
D14*
%TO.C,H67*%
X161500000Y-533500000D03*
%TD*%
D12*
%TO.C,D213*%
X254500000Y-487500000D03*
D13*
X254500000Y-479500000D03*
%TD*%
D12*
%TO.C,D195*%
X93500000Y-486000000D03*
D13*
X93500000Y-478000000D03*
%TD*%
D10*
%TO.C,SW204*%
X76000000Y-543000000D03*
D11*
X71600000Y-547700000D03*
X78600000Y-548750000D03*
%TD*%
D12*
%TO.C,D209*%
X179500000Y-487500000D03*
D13*
X179500000Y-479500000D03*
%TD*%
D10*
%TO.C,SW191*%
X247000000Y-505000000D03*
D11*
X242600000Y-509700000D03*
X249600000Y-510750000D03*
%TD*%
D16*
%TO.C,H59*%
X199500000Y-496500000D03*
%TD*%
D12*
%TO.C,D210*%
X199500000Y-487500000D03*
D13*
X199500000Y-479500000D03*
%TD*%
D10*
%TO.C,SW207*%
X133000000Y-543000000D03*
D11*
X128600000Y-547700000D03*
X135600000Y-548750000D03*
%TD*%
D12*
%TO.C,D212*%
X239500000Y-487500000D03*
D13*
X239500000Y-479500000D03*
%TD*%
D12*
%TO.C,D205*%
X78500000Y-487500000D03*
D13*
X78500000Y-479500000D03*
%TD*%
D10*
%TO.C,SW216*%
X137750000Y-562000000D03*
D11*
X133350000Y-566700000D03*
X140350000Y-567750000D03*
%TD*%
D10*
%TO.C,SW200*%
X199500000Y-524000000D03*
D11*
X195100000Y-528700000D03*
X202100000Y-529750000D03*
%TD*%
D10*
%TO.C,SW209*%
X171000000Y-543000000D03*
D11*
X166600000Y-547700000D03*
X173600000Y-548750000D03*
%TD*%
D10*
%TO.C,SW210*%
X190000000Y-543000000D03*
D11*
X185600000Y-547700000D03*
X192600000Y-548750000D03*
%TD*%
D10*
%TO.C,SW208*%
X152000000Y-543000000D03*
D11*
X147600000Y-547700000D03*
X154600000Y-548750000D03*
%TD*%
D12*
%TO.C,D188*%
X209500000Y-484500000D03*
D13*
X209500000Y-476500000D03*
%TD*%
D10*
%TO.C,SW187*%
X171000000Y-505000000D03*
D11*
X166600000Y-509700000D03*
X173600000Y-510750000D03*
%TD*%
D12*
%TO.C,D204*%
X63500000Y-487500000D03*
D13*
X63500000Y-479500000D03*
%TD*%
D12*
%TO.C,D186*%
X148500000Y-484500000D03*
D13*
X148500000Y-476500000D03*
%TD*%
D12*
%TO.C,D198*%
X174500000Y-486000000D03*
D13*
X174500000Y-478000000D03*
%TD*%
D12*
%TO.C,D208*%
X138500000Y-487500000D03*
D13*
X138500000Y-479500000D03*
%TD*%
D12*
%TO.C,D182*%
X68500000Y-484500000D03*
D13*
X68500000Y-476500000D03*
%TD*%
D12*
%TO.C,D183*%
X88500000Y-484500000D03*
D13*
X88500000Y-476500000D03*
%TD*%
D12*
%TO.C,D193*%
X58500000Y-486000000D03*
D13*
X58500000Y-478000000D03*
%TD*%
D12*
%TO.C,D181*%
X53500000Y-484500000D03*
D13*
X53500000Y-476500000D03*
%TD*%
D16*
%TO.C,H62*%
X128250000Y-570500000D03*
%TD*%
D12*
%TO.C,D192*%
X269500000Y-484500000D03*
D13*
X269500000Y-476500000D03*
%TD*%
D14*
%TO.C,H66*%
X270000000Y-501000000D03*
%TD*%
D10*
%TO.C,SW211*%
X209000000Y-543000000D03*
D11*
X204600000Y-547700000D03*
X211600000Y-548750000D03*
%TD*%
M02*
